<?xml version="1.0" encoding="UTF-8" standalone="no"?><svg xmlns="http://www.w3.org/2000/svg" xmlns:xlink="http://www.w3.org/1999/xlink" contentScriptType="application/ecmascript" contentStyleType="text/css" height="599px" preserveAspectRatio="none" style="width:664px;height:599px;background:#EEEBDC;" version="1.1" viewBox="0 0 664 599" width="664px" zoomAndPan="magnify"><defs><filter height="300%" id="f1cnptvfbjc6ay" width="300%" x="-1" y="-1"><feGaussianBlur result="blurOut" stdDeviation="2.0"/><feColorMatrix in="blurOut" result="blurOut2" type="matrix" values="0 0 0 0 0 0 0 0 0 0 0 0 0 0 0 0 0 0 .4 0"/><feOffset dx="4.0" dy="4.0" in="blurOut2" result="blurOut3"/><feBlend in="SourceGraphic" in2="blurOut3" mode="normal"/></filter></defs><g><!--MD5=[d5260132601eae475fb8821c361df61b]
class ClientPortData--><rect codeLine="2" fill="#FEFECE" filter="url(#f1cnptvfbjc6ay)" height="107.9276" id="ClientPortData" style="stroke:#A80036;stroke-width:1.5;" width="235" x="211" y="310"/><ellipse cx="283.25" cy="326" fill="#ADD1B2" rx="11" ry="11" style="stroke:#A80036;stroke-width:1.0;"/><path d="M283.0469,332.7344 Q280.5625,332.7344 279.2344,331.0938 Q277.9219,329.4219 277.9219,326.3125 Q277.9219,323.1875 279.2344,321.5313 Q280.5625,319.875 283.0469,319.875 Q283.7656,319.875 284.4219,320.0313 Q285.0625,320.1875 285.625,320.4844 L285.625,323.2031 Q285.2656,322.8594 284.9688,322.6719 Q284.6719,322.4688 284.4063,322.3438 Q284.0938,322.2031 283.7813,322.1406 Q283.4844,322.0781 283.1719,322.0781 Q281.8438,322.0781 281.1563,323.1406 Q280.4688,324.2344 280.4688,326.3125 Q280.4688,328.4063 281.1563,329.4688 Q281.8438,330.5469 283.1719,330.5469 Q283.8125,330.5469 284.4063,330.2656 Q284.7031,330.1406 284.9844,329.9531 Q285.2813,329.75 285.625,329.4219 L285.625,332.1406 Q285.0469,332.4375 284.4063,332.5938 Q283.7813,332.7344 283.0469,332.7344 Z " fill="#000000"/><text fill="#000000" font-family="sans-serif" font-size="12" lengthAdjust="spacing" textLength="82" x="303.75" y="330.656">ClientPortData</text><line style="stroke:#A80036;stroke-width:1.5;" x1="212" x2="445" y1="342" y2="342"/><text fill="#000000" font-family="sans-serif" font-size="11" lengthAdjust="spacing" textLength="194" x="217" y="357.7589">chunkSenderData: ChunkSenderData</text><text fill="#000000" font-family="sans-serif" font-size="11" lengthAdjust="spacing" textLength="208" x="217" y="372.7408">chunkReceiverData: ChunkReceiverData</text><text fill="#000000" font-family="sans-serif" font-size="11" lengthAdjust="spacing" textLength="173" x="217" y="387.7227">connectRequested: atomic&lt;bool&gt;</text><text fill="#000000" font-family="sans-serif" font-size="11" lengthAdjust="spacing" textLength="223" x="217" y="402.7046">connectionState: atomic&lt;ConnectionState&gt;</text><line style="stroke:#A80036;stroke-width:1.5;" x1="212" x2="445" y1="409.9276" y2="409.9276"/><!--MD5=[7c99419aff5009fddfdcdd46e780beee]
class ClientPortUser--><rect codeLine="9" fill="#FEFECE" filter="url(#f1cnptvfbjc6ay)" height="242.7645" id="ClientPortUser" style="stroke:#A80036;stroke-width:1.5;" width="643" x="7" y="7"/><ellipse cx="283.25" cy="23" fill="#ADD1B2" rx="11" ry="11" style="stroke:#A80036;stroke-width:1.0;"/><path d="M283.0469,29.7344 Q280.5625,29.7344 279.2344,28.0938 Q277.9219,26.4219 277.9219,23.3125 Q277.9219,20.1875 279.2344,18.5313 Q280.5625,16.875 283.0469,16.875 Q283.7656,16.875 284.4219,17.0313 Q285.0625,17.1875 285.625,17.4844 L285.625,20.2031 Q285.2656,19.8594 284.9688,19.6719 Q284.6719,19.4688 284.4063,19.3438 Q284.0938,19.2031 283.7813,19.1406 Q283.4844,19.0781 283.1719,19.0781 Q281.8438,19.0781 281.1563,20.1406 Q280.4688,21.2344 280.4688,23.3125 Q280.4688,25.4063 281.1563,26.4688 Q281.8438,27.5469 283.1719,27.5469 Q283.8125,27.5469 284.4063,27.2656 Q284.7031,27.1406 284.9844,26.9531 Q285.2813,26.75 285.625,26.4219 L285.625,29.1406 Q285.0469,29.4375 284.4063,29.5938 Q283.7813,29.7344 283.0469,29.7344 Z " fill="#000000"/><text fill="#000000" font-family="sans-serif" font-size="12" lengthAdjust="spacing" textLength="82" x="303.75" y="27.656">ClientPortUser</text><line style="stroke:#A80036;stroke-width:1.5;" x1="8" x2="649" y1="39" y2="39"/><line style="stroke:#A80036;stroke-width:1.5;" x1="8" x2="649" y1="47" y2="47"/><text fill="#000000" font-family="sans-serif" font-size="11" lengthAdjust="spacing" textLength="76" x="13" y="62.7589">connect(): void</text><text fill="#000000" font-family="sans-serif" font-size="11" lengthAdjust="spacing" textLength="91" x="13" y="77.7408">disconnect(): void</text><text fill="#000000" font-family="sans-serif" font-size="11" lengthAdjust="spacing" textLength="201" x="13" y="92.7227">getConnectionState(): ConnectionState</text><text fill="#000000" font-family="sans-serif" font-size="11" lengthAdjust="spacing" textLength="631" x="13" y="107.7046">allocateRequest(userPayloadSize: uint32_t, userPayloadAlignment: uint32_t): expected&lt;RequestHeader*, AllocationError&gt;</text><text fill="#000000" font-family="sans-serif" font-size="11" lengthAdjust="spacing" textLength="272" x="13" y="122.6865">sendRequest(requestHeader: RequestHeader*): void</text><text fill="#000000" font-family="sans-serif" font-size="11" lengthAdjust="spacing" textLength="268" x="13" y="137.6684">freeRequest(requestHeader: RequestHeader*): void</text><text fill="#000000" font-family="sans-serif" font-size="11" lengthAdjust="spacing" textLength="374" x="13" y="152.6502">getResponse(): expected&lt;const ResponseHeader*, ChunkReceiveResult&gt;</text><text fill="#000000" font-family="sans-serif" font-size="11" lengthAdjust="spacing" textLength="339" x="13" y="167.6321">releaseResponse(responseHeader: const ResponseHeader*): void</text><text fill="#000000" font-family="sans-serif" font-size="11" lengthAdjust="spacing" textLength="131" x="13" y="182.614">hasNewResponses(): void</text><text fill="#000000" font-family="sans-serif" font-size="11" lengthAdjust="spacing" textLength="198" x="13" y="197.5959">hasLostResponsesSinceLastCall(): bool</text><text fill="#000000" font-family="sans-serif" font-size="11" lengthAdjust="spacing" textLength="515" x="13" y="212.5778">setConditionVariable(conditionVariable: ConditionVariableData&amp;, notificationIndex: uint64_t): void</text><text fill="#000000" font-family="sans-serif" font-size="11" lengthAdjust="spacing" textLength="159" x="13" y="227.5597">unsetConditionVariable(): void</text><text fill="#000000" font-family="sans-serif" font-size="11" lengthAdjust="spacing" textLength="155" x="13" y="242.5416">isConditionVariableSet(): bool</text><!--MD5=[75c4a8e0efcebb84df38aa1444a43c4c]
class ClientPortRouDi--><rect codeLine="25" fill="#FEFECE" filter="url(#f1cnptvfbjc6ay)" height="107.9276" id="ClientPortRouDi" style="stroke:#A80036;stroke-width:1.5;" width="599" x="29" y="478"/><ellipse cx="280.25" cy="494" fill="#ADD1B2" rx="11" ry="11" style="stroke:#A80036;stroke-width:1.0;"/><path d="M280.0469,500.7344 Q277.5625,500.7344 276.2344,499.0938 Q274.9219,497.4219 274.9219,494.3125 Q274.9219,491.1875 276.2344,489.5313 Q277.5625,487.875 280.0469,487.875 Q280.7656,487.875 281.4219,488.0313 Q282.0625,488.1875 282.625,488.4844 L282.625,491.2031 Q282.2656,490.8594 281.9688,490.6719 Q281.6719,490.4688 281.4063,490.3438 Q281.0938,490.2031 280.7813,490.1406 Q280.4844,490.0781 280.1719,490.0781 Q278.8438,490.0781 278.1563,491.1406 Q277.4688,492.2344 277.4688,494.3125 Q277.4688,496.4063 278.1563,497.4688 Q278.8438,498.5469 280.1719,498.5469 Q280.8125,498.5469 281.4063,498.2656 Q281.7031,498.1406 281.9844,497.9531 Q282.2813,497.75 282.625,497.4219 L282.625,500.1406 Q282.0469,500.4375 281.4063,500.5938 Q280.7813,500.7344 280.0469,500.7344 Z " fill="#000000"/><text fill="#000000" font-family="sans-serif" font-size="12" lengthAdjust="spacing" textLength="88" x="300.75" y="498.656">ClientPortRouDi</text><line style="stroke:#A80036;stroke-width:1.5;" x1="30" x2="627" y1="510" y2="510"/><text fill="#000000" font-family="sans-serif" font-size="11" lengthAdjust="spacing" textLength="243" x="35" y="525.7589">getResponseQueueFullPolicy: QueueFullPolicy</text><line style="stroke:#A80036;stroke-width:1.5;" x1="30" x2="627" y1="532.9819" y2="532.9819"/><text fill="#000000" font-family="sans-serif" font-size="11" lengthAdjust="spacing" textLength="255" x="35" y="548.7408">tryGetCaProMessage(): optional&lt;CaProMessage&gt;</text><text fill="#000000" font-family="sans-serif" font-size="11" lengthAdjust="spacing" textLength="587" x="35" y="563.7227">dispatchCaProMessageAndGetPossibleResponse(caProMessage: const CaProMessage): optional&lt;CaProMessage&gt;</text><text fill="#000000" font-family="sans-serif" font-size="11" lengthAdjust="spacing" textLength="124" x="35" y="578.7046">releaseAllChunks(): void</text><!--MD5=[3f49f8d2a15c91644eed424e36834ef7]
reverse link ClientPortUser to ClientPortData--><path codeLine="32" d="M328.5,263.3 C328.5,279.78 328.5,295.8 328.5,310 " fill="none" id="ClientPortUser-backto-ClientPortData" style="stroke:#A80036;stroke-width:1.0;"/><polygon fill="#EEEBDC" points="328.5,250.01,324.5,256.01,328.5,262.01,332.5,256.01,328.5,250.01" style="stroke:#A80036;stroke-width:1.0;"/><!--MD5=[b2b115d83fad0073b2738c1cfac47436]
link ClientPortData to ClientPortRouDi--><path codeLine="33" d="M328.5,418.44 C328.5,433.17 328.5,449.34 328.5,464.7 " fill="none" id="ClientPortData-to-ClientPortRouDi" style="stroke:#A80036;stroke-width:1.0;"/><polygon fill="#EEEBDC" points="328.5,477.95,332.5,471.95,328.5,465.95,324.5,471.95,328.5,477.95" style="stroke:#A80036;stroke-width:1.0;"/></g></svg>