<?xml version="1.0" encoding="UTF-8" standalone="no"?><svg xmlns="http://www.w3.org/2000/svg" xmlns:xlink="http://www.w3.org/1999/xlink" contentScriptType="application/ecmascript" contentStyleType="text/css" height="266px" preserveAspectRatio="none" style="width:601px;height:266px;background:#EEEBDC;" version="1.1" viewBox="0 0 601 266" width="601px" zoomAndPan="magnify"><defs><filter height="300%" id="f1sfwvb2ziohl2" width="300%" x="-1" y="-1"><feGaussianBlur result="blurOut" stdDeviation="2.0"/><feColorMatrix in="blurOut" result="blurOut2" type="matrix" values="0 0 0 0 0 0 0 0 0 0 0 0 0 0 0 0 0 0 .4 0"/><feOffset dx="4.0" dy="4.0" in="blurOut2" result="blurOut3"/><feBlend in="SourceGraphic" in2="blurOut3" mode="normal"/></filter></defs><g><!--MD5=[5efe5b76f74dafc2107a81786d6eaf75]
class ClientOptions--><rect codeLine="2" fill="#FEFECE" filter="url(#f1sfwvb2ziohl2)" height="112.0234" id="ClientOptions" style="stroke:#A80036;stroke-width:1.5;" width="276" x="7" y="7"/><ellipse cx="99.25" cy="23" fill="#ADD1B2" rx="11" ry="11" style="stroke:#A80036;stroke-width:1.0;"/><path d="M102.2188,28.6406 Q101.6406,28.9375 101,29.0781 Q100.3594,29.2344 99.6563,29.2344 Q97.1563,29.2344 95.8281,27.5938 Q94.5156,25.9375 94.5156,22.8125 Q94.5156,19.6875 95.8281,18.0313 Q97.1563,16.375 99.6563,16.375 Q100.3594,16.375 101,16.5313 Q101.6563,16.6875 102.2188,16.9844 L102.2188,19.7031 Q101.5938,19.125 101,18.8594 Q100.4063,18.5781 99.7813,18.5781 Q98.4375,18.5781 97.75,19.6563 Q97.0625,20.7188 97.0625,22.8125 Q97.0625,24.9063 97.75,25.9844 Q98.4375,27.0469 99.7813,27.0469 Q100.4063,27.0469 101,26.7813 Q101.5938,26.5 102.2188,25.9219 L102.2188,28.6406 Z " fill="#000000"/><text fill="#000000" font-family="sans-serif" font-size="12" lengthAdjust="spacing" textLength="83" x="119.75" y="27.1543">ClientOptions</text><line style="stroke:#A80036;stroke-width:1.5;" x1="8" x2="282" y1="39" y2="39"/><text fill="#000000" font-family="sans-serif" font-size="11" lengthAdjust="spacing" textLength="192" x="13" y="53.2104">responseQueueCapacity: uint64_t</text><text fill="#000000" font-family="sans-serif" font-size="11" lengthAdjust="spacing" textLength="141" x="13" y="66.0151">nodeName: NodeName_t</text><text fill="#000000" font-family="sans-serif" font-size="11" lengthAdjust="spacing" textLength="130" x="13" y="78.8198">connectOnCreate: bool</text><text fill="#000000" font-family="sans-serif" font-size="11" lengthAdjust="spacing" textLength="238" x="13" y="91.6245">responseQueueFullPolicy: QueueFullPolicy</text><text fill="#000000" font-family="sans-serif" font-size="11" lengthAdjust="spacing" textLength="264" x="13" y="104.4292">serverTooSlowPolicy: ConsumerTooSlowPolicy</text><line style="stroke:#A80036;stroke-width:1.5;" x1="8" x2="282" y1="111.0234" y2="111.0234"/><!--MD5=[482ee631cb97eb42770676ae6adca92a]
class ServerOptions--><rect codeLine="10" fill="#FEFECE" filter="url(#f1sfwvb2ziohl2)" height="112.0234" id="ServerOptions" style="stroke:#A80036;stroke-width:1.5;" width="269" x="318.5" y="7"/><ellipse cx="404.75" cy="23" fill="#ADD1B2" rx="11" ry="11" style="stroke:#A80036;stroke-width:1.0;"/><path d="M407.7188,28.6406 Q407.1406,28.9375 406.5,29.0781 Q405.8594,29.2344 405.1563,29.2344 Q402.6563,29.2344 401.3281,27.5938 Q400.0156,25.9375 400.0156,22.8125 Q400.0156,19.6875 401.3281,18.0313 Q402.6563,16.375 405.1563,16.375 Q405.8594,16.375 406.5,16.5313 Q407.1563,16.6875 407.7188,16.9844 L407.7188,19.7031 Q407.0938,19.125 406.5,18.8594 Q405.9063,18.5781 405.2813,18.5781 Q403.9375,18.5781 403.25,19.6563 Q402.5625,20.7188 402.5625,22.8125 Q402.5625,24.9063 403.25,25.9844 Q403.9375,27.0469 405.2813,27.0469 Q405.9063,27.0469 406.5,26.7813 Q407.0938,26.5 407.7188,25.9219 L407.7188,28.6406 Z " fill="#000000"/><text fill="#000000" font-family="sans-serif" font-size="12" lengthAdjust="spacing" textLength="88" x="425.25" y="27.1543">ServerOptions</text><line style="stroke:#A80036;stroke-width:1.5;" x1="319.5" x2="586.5" y1="39" y2="39"/><text fill="#000000" font-family="sans-serif" font-size="11" lengthAdjust="spacing" textLength="182" x="324.5" y="53.2104">requestQueueCapacity: uint64_t</text><text fill="#000000" font-family="sans-serif" font-size="11" lengthAdjust="spacing" textLength="141" x="324.5" y="66.0151">nodeName: NodeName_t</text><text fill="#000000" font-family="sans-serif" font-size="11" lengthAdjust="spacing" textLength="113" x="324.5" y="78.8198">offerOnCreate: bool</text><text fill="#000000" font-family="sans-serif" font-size="11" lengthAdjust="spacing" textLength="228" x="324.5" y="91.6245">requestQueueFullPolicy: QueueFullPolicy</text><text fill="#000000" font-family="sans-serif" font-size="11" lengthAdjust="spacing" textLength="257" x="324.5" y="104.4292">clientTooSlowPolicy: ConsumerTooSlowPolicy</text><line style="stroke:#A80036;stroke-width:1.5;" x1="319.5" x2="586.5" y1="111.0234" y2="111.0234"/><!--MD5=[b0e260534202599ba1304b7d36bcc677]
class QueueFullPolicy--><rect codeLine="18" fill="#FEFECE" filter="url(#f1sfwvb2ziohl2)" height="73.6094" id="QueueFullPolicy" style="stroke:#A80036;stroke-width:1.5;" width="147" x="71.5" y="179"/><ellipse cx="94.6" cy="195" fill="#EB937F" rx="11" ry="11" style="stroke:#A80036;stroke-width:1.0;"/><path d="M98.7094,201 L90.9906,201 L90.9906,188.6094 L98.7094,188.6094 L98.7094,190.7656 L93.4438,190.7656 L93.4438,193.4375 L98.2094,193.4375 L98.2094,195.5938 L93.4438,195.5938 L93.4438,198.8438 L98.7094,198.8438 L98.7094,201 Z " fill="#000000"/><text fill="#000000" font-family="sans-serif" font-size="12" lengthAdjust="spacing" textLength="97" x="110.4" y="199.1543">QueueFullPolicy</text><line style="stroke:#A80036;stroke-width:1.5;" x1="72.5" x2="217.5" y1="211" y2="211"/><text fill="#000000" font-family="sans-serif" font-size="11" lengthAdjust="spacing" textLength="109" x="77.5" y="225.2104">BLOCK_PRODUCER,</text><text fill="#000000" font-family="sans-serif" font-size="11" lengthAdjust="spacing" textLength="135" x="77.5" y="238.0151">DISCARD_OLDEST_DATA</text><line style="stroke:#A80036;stroke-width:1.5;" x1="72.5" x2="217.5" y1="244.6094" y2="244.6094"/><!--MD5=[6150fd7f3b739de50fdf5d37392fceec]
class ConsumerTooSlowPolicy--><rect codeLine="23" fill="#FEFECE" filter="url(#f1sfwvb2ziohl2)" height="73.6094" id="ConsumerTooSlowPolicy" style="stroke:#A80036;stroke-width:1.5;" width="181" x="253.5" y="179"/><ellipse cx="268.5" cy="195" fill="#EB937F" rx="11" ry="11" style="stroke:#A80036;stroke-width:1.0;"/><path d="M272.6094,201 L264.8906,201 L264.8906,188.6094 L272.6094,188.6094 L272.6094,190.7656 L267.3438,190.7656 L267.3438,193.4375 L272.1094,193.4375 L272.1094,195.5938 L267.3438,195.5938 L267.3438,198.8438 L272.6094,198.8438 L272.6094,201 Z " fill="#000000"/><text fill="#000000" font-family="sans-serif" font-size="12" lengthAdjust="spacing" textLength="149" x="282.5" y="199.1543">ConsumerTooSlowPolicy</text><line style="stroke:#A80036;stroke-width:1.5;" x1="254.5" x2="433.5" y1="211" y2="211"/><text fill="#000000" font-family="sans-serif" font-size="11" lengthAdjust="spacing" textLength="128" x="259.5" y="225.2104">WAIT_FOR_CONSUMER,</text><text fill="#000000" font-family="sans-serif" font-size="11" lengthAdjust="spacing" textLength="135" x="259.5" y="238.0151">DISCARD_OLDEST_DATA</text><line style="stroke:#A80036;stroke-width:1.5;" x1="254.5" x2="433.5" y1="244.6094" y2="244.6094"/><!--MD5=[1381ee83662079026c8389903ca9656e]
link ClientOptions to ServerOptions--><!--MD5=[c61e71b84ed44b05079962aa7034980e]
link ClientOptions to QueueFullPolicy--><!--MD5=[6aa7312b615a9c0380f18134b31c23a8]
link QueueFullPolicy to ConsumerTooSlowPolicy--></g></svg>