<?xml version="1.0" encoding="UTF-8" standalone="no"?><svg xmlns="http://www.w3.org/2000/svg" xmlns:xlink="http://www.w3.org/1999/xlink" contentScriptType="application/ecmascript" contentStyleType="text/css" height="1247px" preserveAspectRatio="none" style="width:798px;height:1247px;background:#EEEBDC;" version="1.1" viewBox="0 0 798 1247" width="798px" zoomAndPan="magnify"><defs><filter height="300%" id="f8ut1sqkfwyyd" width="300%" x="-1" y="-1"><feGaussianBlur result="blurOut" stdDeviation="2.0"/><feColorMatrix in="blurOut" result="blurOut2" type="matrix" values="0 0 0 0 0 0 0 0 0 0 0 0 0 0 0 0 0 0 .4 0"/><feOffset dx="4.0" dy="4.0" in="blurOut2" result="blurOut3"/><feBlend in="SourceGraphic" in2="blurOut3" mode="normal"/></filter></defs><g><rect fill="#FFFFFF" filter="url(#f8ut1sqkfwyyd)" height="83.2656" style="stroke:#A80036;stroke-width:1.0;" width="10" x="53" y="180.8281"/><rect fill="#FFFFFF" filter="url(#f8ut1sqkfwyyd)" height="25" style="stroke:#A80036;stroke-width:1.0;" width="10" x="53" y="437.625"/><rect fill="#FFFFFF" filter="url(#f8ut1sqkfwyyd)" height="141.5313" style="stroke:#A80036;stroke-width:1.0;" width="10" x="53" y="636.1563"/><rect fill="#FFFFFF" filter="url(#f8ut1sqkfwyyd)" height="199.7969" style="stroke:#A80036;stroke-width:1.0;" width="10" x="53" y="951.2188"/><rect fill="#FFFFFF" filter="url(#f8ut1sqkfwyyd)" height="29.1328" style="stroke:#A80036;stroke-width:1.0;" width="10" x="576" y="114.5625"/><rect fill="#FFFFFF" filter="url(#f8ut1sqkfwyyd)" height="29.1328" style="stroke:#A80036;stroke-width:1.0;" width="10" x="576" y="214.9609"/><rect fill="#FFFFFF" filter="url(#f8ut1sqkfwyyd)" height="29.1328" style="stroke:#A80036;stroke-width:1.0;" width="10" x="576" y="569.8906"/><rect fill="#FFFFFF" filter="url(#f8ut1sqkfwyyd)" height="29.1328" style="stroke:#A80036;stroke-width:1.0;" width="10" x="576" y="728.5547"/><rect fill="#FFFFFF" filter="url(#f8ut1sqkfwyyd)" height="29.1328" style="stroke:#A80036;stroke-width:1.0;" width="10" x="576" y="985.3516"/><rect fill="#FFFFFF" filter="url(#f8ut1sqkfwyyd)" height="29.1328" style="stroke:#A80036;stroke-width:1.0;" width="10" x="576" y="1101.8828"/><rect fill="#FFFFFF" filter="url(#f8ut1sqkfwyyd)" height="29.1328" style="stroke:#A80036;stroke-width:1.0;" width="10" x="715.5" y="371.3594"/><rect fill="#FFFFFF" filter="url(#f8ut1sqkfwyyd)" height="29.1328" style="stroke:#A80036;stroke-width:1.0;" width="10" x="715.5" y="670.2891"/><rect fill="#FFFFFF" filter="url(#f8ut1sqkfwyyd)" height="29.1328" style="stroke:#A80036;stroke-width:1.0;" width="10" x="715.5" y="884.9531"/><rect fill="#FFFFFF" filter="url(#f8ut1sqkfwyyd)" height="29.1328" style="stroke:#A80036;stroke-width:1.0;" width="10" x="715.5" y="1043.6172"/><line style="stroke:#A80036;stroke-width:1.0;" x1="58" x2="58" y1="40.2969" y2="279.0938"/><line style="stroke:#A80036;stroke-width:1.0;stroke-dasharray:1.0,4.0;" x1="58" x2="58" y1="279.0938" y2="307.0938"/><line style="stroke:#A80036;stroke-width:1.0;" x1="58" x2="58" y1="307.0938" y2="477.625"/><line style="stroke:#A80036;stroke-width:1.0;stroke-dasharray:1.0,4.0;" x1="58" x2="58" y1="477.625" y2="505.625"/><line style="stroke:#A80036;stroke-width:1.0;" x1="58" x2="58" y1="505.625" y2="792.6875"/><line style="stroke:#A80036;stroke-width:1.0;stroke-dasharray:1.0,4.0;" x1="58" x2="58" y1="792.6875" y2="820.6875"/><line style="stroke:#A80036;stroke-width:1.0;" x1="58" x2="58" y1="820.6875" y2="1166.0156"/><line style="stroke:#A80036;stroke-width:1.0;stroke-dasharray:1.0,4.0;" x1="58" x2="58" y1="1166.0156" y2="1194.0156"/><line style="stroke:#A80036;stroke-width:1.0;" x1="58" x2="58" y1="1194.0156" y2="1204.0156"/><line style="stroke:#A80036;stroke-width:1.0;" x1="580.5" x2="580.5" y1="40.2969" y2="279.0938"/><line style="stroke:#A80036;stroke-width:1.0;stroke-dasharray:1.0,4.0;" x1="580.5" x2="580.5" y1="279.0938" y2="307.0938"/><line style="stroke:#A80036;stroke-width:1.0;" x1="580.5" x2="580.5" y1="307.0938" y2="477.625"/><line style="stroke:#A80036;stroke-width:1.0;stroke-dasharray:1.0,4.0;" x1="580.5" x2="580.5" y1="477.625" y2="505.625"/><line style="stroke:#A80036;stroke-width:1.0;" x1="580.5" x2="580.5" y1="505.625" y2="792.6875"/><line style="stroke:#A80036;stroke-width:1.0;stroke-dasharray:1.0,4.0;" x1="580.5" x2="580.5" y1="792.6875" y2="820.6875"/><line style="stroke:#A80036;stroke-width:1.0;" x1="580.5" x2="580.5" y1="820.6875" y2="1166.0156"/><line style="stroke:#A80036;stroke-width:1.0;stroke-dasharray:1.0,4.0;" x1="580.5" x2="580.5" y1="1166.0156" y2="1194.0156"/><line style="stroke:#A80036;stroke-width:1.0;" x1="580.5" x2="580.5" y1="1194.0156" y2="1204.0156"/><line style="stroke:#A80036;stroke-width:1.0;" x1="720.5" x2="720.5" y1="40.2969" y2="279.0938"/><line style="stroke:#A80036;stroke-width:1.0;stroke-dasharray:1.0,4.0;" x1="720.5" x2="720.5" y1="279.0938" y2="307.0938"/><line style="stroke:#A80036;stroke-width:1.0;" x1="720.5" x2="720.5" y1="307.0938" y2="477.625"/><line style="stroke:#A80036;stroke-width:1.0;stroke-dasharray:1.0,4.0;" x1="720.5" x2="720.5" y1="477.625" y2="505.625"/><line style="stroke:#A80036;stroke-width:1.0;" x1="720.5" x2="720.5" y1="505.625" y2="792.6875"/><line style="stroke:#A80036;stroke-width:1.0;stroke-dasharray:1.0,4.0;" x1="720.5" x2="720.5" y1="792.6875" y2="820.6875"/><line style="stroke:#A80036;stroke-width:1.0;" x1="720.5" x2="720.5" y1="820.6875" y2="1166.0156"/><line style="stroke:#A80036;stroke-width:1.0;stroke-dasharray:1.0,4.0;" x1="720.5" x2="720.5" y1="1166.0156" y2="1194.0156"/><line style="stroke:#A80036;stroke-width:1.0;" x1="720.5" x2="720.5" y1="1194.0156" y2="1204.0156"/><rect fill="#FEFECE" filter="url(#f8ut1sqkfwyyd)" height="30.2969" style="stroke:#A80036;stroke-width:1.5;" width="102" x="5" y="5"/><text fill="#000000" font-family="sans-serif" font-size="14" lengthAdjust="spacing" textLength="88" x="12" y="24.9951">PortManager</text><rect fill="#FEFECE" filter="url(#f8ut1sqkfwyyd)" height="30.2969" style="stroke:#A80036;stroke-width:1.5;" width="102" x="5" y="1203.0156"/><text fill="#000000" font-family="sans-serif" font-size="14" lengthAdjust="spacing" textLength="88" x="12" y="1223.0107">PortManager</text><rect fill="#FEFECE" filter="url(#f8ut1sqkfwyyd)" height="30.2969" style="stroke:#A80036;stroke-width:1.5;" width="123" x="517.5" y="5"/><text fill="#000000" font-family="sans-serif" font-size="14" lengthAdjust="spacing" textLength="109" x="524.5" y="24.9951">ClientPortRouDi</text><rect fill="#FEFECE" filter="url(#f8ut1sqkfwyyd)" height="30.2969" style="stroke:#A80036;stroke-width:1.5;" width="123" x="517.5" y="1203.0156"/><text fill="#000000" font-family="sans-serif" font-size="14" lengthAdjust="spacing" textLength="109" x="524.5" y="1223.0107">ClientPortRouDi</text><rect fill="#FEFECE" filter="url(#f8ut1sqkfwyyd)" height="30.2969" style="stroke:#A80036;stroke-width:1.5;" width="128" x="654.5" y="5"/><text fill="#000000" font-family="sans-serif" font-size="14" lengthAdjust="spacing" textLength="114" x="661.5" y="24.9951">ServerPortRouDi</text><rect fill="#FEFECE" filter="url(#f8ut1sqkfwyyd)" height="30.2969" style="stroke:#A80036;stroke-width:1.5;" width="128" x="654.5" y="1203.0156"/><text fill="#000000" font-family="sans-serif" font-size="14" lengthAdjust="spacing" textLength="114" x="661.5" y="1223.0107">ServerPortRouDi</text><rect fill="#FFFFFF" filter="url(#f8ut1sqkfwyyd)" height="83.2656" style="stroke:#A80036;stroke-width:1.0;" width="10" x="53" y="180.8281"/><rect fill="#FFFFFF" filter="url(#f8ut1sqkfwyyd)" height="25" style="stroke:#A80036;stroke-width:1.0;" width="10" x="53" y="437.625"/><rect fill="#FFFFFF" filter="url(#f8ut1sqkfwyyd)" height="141.5313" style="stroke:#A80036;stroke-width:1.0;" width="10" x="53" y="636.1563"/><rect fill="#FFFFFF" filter="url(#f8ut1sqkfwyyd)" height="199.7969" style="stroke:#A80036;stroke-width:1.0;" width="10" x="53" y="951.2188"/><rect fill="#FFFFFF" filter="url(#f8ut1sqkfwyyd)" height="29.1328" style="stroke:#A80036;stroke-width:1.0;" width="10" x="576" y="114.5625"/><rect fill="#FFFFFF" filter="url(#f8ut1sqkfwyyd)" height="29.1328" style="stroke:#A80036;stroke-width:1.0;" width="10" x="576" y="214.9609"/><rect fill="#FFFFFF" filter="url(#f8ut1sqkfwyyd)" height="29.1328" style="stroke:#A80036;stroke-width:1.0;" width="10" x="576" y="569.8906"/><rect fill="#FFFFFF" filter="url(#f8ut1sqkfwyyd)" height="29.1328" style="stroke:#A80036;stroke-width:1.0;" width="10" x="576" y="728.5547"/><rect fill="#FFFFFF" filter="url(#f8ut1sqkfwyyd)" height="29.1328" style="stroke:#A80036;stroke-width:1.0;" width="10" x="576" y="985.3516"/><rect fill="#FFFFFF" filter="url(#f8ut1sqkfwyyd)" height="29.1328" style="stroke:#A80036;stroke-width:1.0;" width="10" x="576" y="1101.8828"/><rect fill="#FFFFFF" filter="url(#f8ut1sqkfwyyd)" height="29.1328" style="stroke:#A80036;stroke-width:1.0;" width="10" x="715.5" y="371.3594"/><rect fill="#FFFFFF" filter="url(#f8ut1sqkfwyyd)" height="29.1328" style="stroke:#A80036;stroke-width:1.0;" width="10" x="715.5" y="670.2891"/><rect fill="#FFFFFF" filter="url(#f8ut1sqkfwyyd)" height="29.1328" style="stroke:#A80036;stroke-width:1.0;" width="10" x="715.5" y="884.9531"/><rect fill="#FFFFFF" filter="url(#f8ut1sqkfwyyd)" height="29.1328" style="stroke:#A80036;stroke-width:1.0;" width="10" x="715.5" y="1043.6172"/><rect fill="#EEEEEE" filter="url(#f8ut1sqkfwyyd)" height="3" style="stroke:#EEEEEE;stroke-width:1.0;" width="791.5" x="0" y="70.8633"/><line style="stroke:#000000;stroke-width:1.0;" x1="0" x2="791.5" y1="70.8633" y2="70.8633"/><line style="stroke:#000000;stroke-width:1.0;" x1="0" x2="791.5" y1="73.8633" y2="73.8633"/><rect fill="#EEEEEE" filter="url(#f8ut1sqkfwyyd)" height="23.1328" style="stroke:#000000;stroke-width:2.0;" width="337" x="227.25" y="60.2969"/><text fill="#000000" font-family="sans-serif" font-size="13" font-weight="bold" lengthAdjust="spacing" textLength="318" x="233.25" y="76.3638">Client tries to connect (Server not present)</text><polygon fill="#A80036" points="564,110.5625,574,114.5625,564,118.5625,568,114.5625" style="stroke:#A80036;stroke-width:1.0;"/><line style="stroke:#A80036;stroke-width:1.0;" x1="58" x2="570" y1="114.5625" y2="114.5625"/><text fill="#000000" font-family="sans-serif" font-size="13" lengthAdjust="spacing" textLength="135" x="65" y="109.4966">tryGetCaProMessage</text><polygon fill="#A80036" points="69,139.6953,59,143.6953,69,147.6953,65,143.6953" style="stroke:#A80036;stroke-width:1.0;"/><line style="stroke:#A80036;stroke-width:1.0;stroke-dasharray:2.0,2.0;" x1="63" x2="580" y1="143.6953" y2="143.6953"/><text fill="#000000" font-family="sans-serif" font-size="13" lengthAdjust="spacing" textLength="196" x="75" y="138.6294">CaproMessageType::CONNECT</text><line style="stroke:#A80036;stroke-width:1.0;" x1="58" x2="105" y1="167.8281" y2="167.8281"/><line style="stroke:#A80036;stroke-width:1.0;" x1="105" x2="105" y1="167.8281" y2="180.8281"/><line style="stroke:#A80036;stroke-width:1.0;" x1="64" x2="105" y1="180.8281" y2="180.8281"/><polygon fill="#A80036" points="74,176.8281,64,180.8281,74,184.8281,70,180.8281" style="stroke:#A80036;stroke-width:1.0;"/><text fill="#000000" font-family="sans-serif" font-size="13" lengthAdjust="spacing" textLength="194" x="70" y="162.7622">sendToAllMatchingServerPorts</text><polygon fill="#A80036" points="564,210.9609,574,214.9609,564,218.9609,568,214.9609" style="stroke:#A80036;stroke-width:1.0;"/><line style="stroke:#A80036;stroke-width:1.0;" x1="63" x2="570" y1="214.9609" y2="214.9609"/><text fill="#000000" font-family="sans-serif" font-size="13" lengthAdjust="spacing" textLength="490" x="70" y="209.895">dispatchCaProMessageAndGetPossibleResponse(CaproMessageType::NACK)</text><polygon fill="#A80036" points="74,240.0938,64,244.0938,74,248.0938,70,244.0938" style="stroke:#A80036;stroke-width:1.0;"/><line style="stroke:#A80036;stroke-width:1.0;stroke-dasharray:2.0,2.0;" x1="68" x2="580" y1="244.0938" y2="244.0938"/><text fill="#000000" font-family="sans-serif" font-size="13" lengthAdjust="spacing" textLength="72" x="80" y="239.0278">cxx::nullopt</text><line style="stroke:#A80036;stroke-width:1.0;stroke-dasharray:2.0,2.0;" x1="63" x2="105" y1="263.0938" y2="263.0938"/><line style="stroke:#A80036;stroke-width:1.0;stroke-dasharray:2.0,2.0;" x1="105" x2="105" y1="263.0938" y2="276.0938"/><line style="stroke:#A80036;stroke-width:1.0;stroke-dasharray:2.0,2.0;" x1="58" x2="105" y1="276.0938" y2="276.0938"/><polygon fill="#A80036" points="68,272.0938,58,276.0938,68,280.0938,64,276.0938" style="stroke:#A80036;stroke-width:1.0;"/><rect fill="#EEEEEE" filter="url(#f8ut1sqkfwyyd)" height="3" style="stroke:#EEEEEE;stroke-width:1.0;" width="791.5" x="0" y="327.6602"/><line style="stroke:#000000;stroke-width:1.0;" x1="0" x2="791.5" y1="327.6602" y2="327.6602"/><line style="stroke:#000000;stroke-width:1.0;" x1="0" x2="791.5" y1="330.6602" y2="330.6602"/><rect fill="#EEEEEE" filter="url(#f8ut1sqkfwyyd)" height="23.1328" style="stroke:#000000;stroke-width:2.0;" width="322" x="234.75" y="317.0938"/><text fill="#000000" font-family="sans-serif" font-size="13" font-weight="bold" lengthAdjust="spacing" textLength="303" x="240.75" y="333.1606">Server offers service (Client not present)</text><polygon fill="#A80036" points="703.5,367.3594,713.5,371.3594,703.5,375.3594,707.5,371.3594" style="stroke:#A80036;stroke-width:1.0;"/><line style="stroke:#A80036;stroke-width:1.0;" x1="58" x2="709.5" y1="371.3594" y2="371.3594"/><text fill="#000000" font-family="sans-serif" font-size="13" lengthAdjust="spacing" textLength="135" x="65" y="366.2935">tryGetCaProMessage</text><polygon fill="#A80036" points="69,396.4922,59,400.4922,69,404.4922,65,400.4922" style="stroke:#A80036;stroke-width:1.0;"/><line style="stroke:#A80036;stroke-width:1.0;stroke-dasharray:2.0,2.0;" x1="63" x2="719.5" y1="400.4922" y2="400.4922"/><text fill="#000000" font-family="sans-serif" font-size="13" lengthAdjust="spacing" textLength="173" x="75" y="395.4263">CaproMessageType::OFFER</text><line style="stroke:#A80036;stroke-width:1.0;" x1="58" x2="105" y1="424.625" y2="424.625"/><line style="stroke:#A80036;stroke-width:1.0;" x1="105" x2="105" y1="424.625" y2="437.625"/><line style="stroke:#A80036;stroke-width:1.0;" x1="64" x2="105" y1="437.625" y2="437.625"/><polygon fill="#A80036" points="74,433.625,64,437.625,74,441.625,70,437.625" style="stroke:#A80036;stroke-width:1.0;"/><text fill="#000000" font-family="sans-serif" font-size="13" lengthAdjust="spacing" textLength="188" x="70" y="419.5591">sendToAllMatchingClientPorts</text><line style="stroke:#A80036;stroke-width:1.0;stroke-dasharray:2.0,2.0;" x1="63" x2="105" y1="461.625" y2="461.625"/><line style="stroke:#A80036;stroke-width:1.0;stroke-dasharray:2.0,2.0;" x1="105" x2="105" y1="461.625" y2="474.625"/><line style="stroke:#A80036;stroke-width:1.0;stroke-dasharray:2.0,2.0;" x1="58" x2="105" y1="474.625" y2="474.625"/><polygon fill="#A80036" points="68,470.625,58,474.625,68,478.625,64,474.625" style="stroke:#A80036;stroke-width:1.0;"/><rect fill="#EEEEEE" filter="url(#f8ut1sqkfwyyd)" height="3" style="stroke:#EEEEEE;stroke-width:1.0;" width="791.5" x="0" y="526.1914"/><line style="stroke:#000000;stroke-width:1.0;" x1="0" x2="791.5" y1="526.1914" y2="526.1914"/><line style="stroke:#000000;stroke-width:1.0;" x1="0" x2="791.5" y1="529.1914" y2="529.1914"/><rect fill="#EEEEEE" filter="url(#f8ut1sqkfwyyd)" height="23.1328" style="stroke:#000000;stroke-width:2.0;" width="308" x="241.75" y="515.625"/><text fill="#000000" font-family="sans-serif" font-size="13" font-weight="bold" lengthAdjust="spacing" textLength="289" x="247.75" y="531.6919">Client tries to connect (Server present)</text><polygon fill="#A80036" points="564,565.8906,574,569.8906,564,573.8906,568,569.8906" style="stroke:#A80036;stroke-width:1.0;"/><line style="stroke:#A80036;stroke-width:1.0;" x1="58" x2="570" y1="569.8906" y2="569.8906"/><text fill="#000000" font-family="sans-serif" font-size="13" lengthAdjust="spacing" textLength="135" x="65" y="564.8247">tryGetCaProMessage</text><polygon fill="#A80036" points="69,595.0234,59,599.0234,69,603.0234,65,599.0234" style="stroke:#A80036;stroke-width:1.0;"/><line style="stroke:#A80036;stroke-width:1.0;stroke-dasharray:2.0,2.0;" x1="63" x2="580" y1="599.0234" y2="599.0234"/><text fill="#000000" font-family="sans-serif" font-size="13" lengthAdjust="spacing" textLength="196" x="75" y="593.9575">CaproMessageType::CONNECT</text><line style="stroke:#A80036;stroke-width:1.0;" x1="58" x2="105" y1="623.1563" y2="623.1563"/><line style="stroke:#A80036;stroke-width:1.0;" x1="105" x2="105" y1="623.1563" y2="636.1563"/><line style="stroke:#A80036;stroke-width:1.0;" x1="64" x2="105" y1="636.1563" y2="636.1563"/><polygon fill="#A80036" points="74,632.1563,64,636.1563,74,640.1563,70,636.1563" style="stroke:#A80036;stroke-width:1.0;"/><text fill="#000000" font-family="sans-serif" font-size="13" lengthAdjust="spacing" textLength="194" x="70" y="618.0903">sendToAllMatchingServerPorts</text><polygon fill="#A80036" points="703.5,666.2891,713.5,670.2891,703.5,674.2891,707.5,670.2891" style="stroke:#A80036;stroke-width:1.0;"/><line style="stroke:#A80036;stroke-width:1.0;" x1="63" x2="709.5" y1="670.2891" y2="670.2891"/><text fill="#000000" font-family="sans-serif" font-size="13" lengthAdjust="spacing" textLength="517" x="70" y="665.2231">dispatchCaProMessageAndGetPossibleResponse(CaproMessageType::CONNECT)</text><polygon fill="#A80036" points="74,695.4219,64,699.4219,74,703.4219,70,699.4219" style="stroke:#A80036;stroke-width:1.0;"/><line style="stroke:#A80036;stroke-width:1.0;stroke-dasharray:2.0,2.0;" x1="68" x2="719.5" y1="699.4219" y2="699.4219"/><text fill="#000000" font-family="sans-serif" font-size="13" lengthAdjust="spacing" textLength="159" x="80" y="694.356">CaproMessageType::ACK</text><polygon fill="#A80036" points="564,724.5547,574,728.5547,564,732.5547,568,728.5547" style="stroke:#A80036;stroke-width:1.0;"/><line style="stroke:#A80036;stroke-width:1.0;" x1="63" x2="570" y1="728.5547" y2="728.5547"/><text fill="#000000" font-family="sans-serif" font-size="13" lengthAdjust="spacing" textLength="480" x="70" y="723.4888">dispatchCaProMessageAndGetPossibleResponse(CaproMessageType::ACK)</text><polygon fill="#A80036" points="74,753.6875,64,757.6875,74,761.6875,70,757.6875" style="stroke:#A80036;stroke-width:1.0;"/><line style="stroke:#A80036;stroke-width:1.0;stroke-dasharray:2.0,2.0;" x1="68" x2="580" y1="757.6875" y2="757.6875"/><text fill="#000000" font-family="sans-serif" font-size="13" lengthAdjust="spacing" textLength="72" x="80" y="752.6216">cxx::nullopt</text><line style="stroke:#A80036;stroke-width:1.0;stroke-dasharray:2.0,2.0;" x1="63" x2="105" y1="776.6875" y2="776.6875"/><line style="stroke:#A80036;stroke-width:1.0;stroke-dasharray:2.0,2.0;" x1="105" x2="105" y1="776.6875" y2="789.6875"/><line style="stroke:#A80036;stroke-width:1.0;stroke-dasharray:2.0,2.0;" x1="58" x2="105" y1="789.6875" y2="789.6875"/><polygon fill="#A80036" points="68,785.6875,58,789.6875,68,793.6875,64,789.6875" style="stroke:#A80036;stroke-width:1.0;"/><rect fill="#EEEEEE" filter="url(#f8ut1sqkfwyyd)" height="3" style="stroke:#EEEEEE;stroke-width:1.0;" width="791.5" x="0" y="841.2539"/><line style="stroke:#000000;stroke-width:1.0;" x1="0" x2="791.5" y1="841.2539" y2="841.2539"/><line style="stroke:#000000;stroke-width:1.0;" x1="0" x2="791.5" y1="844.2539" y2="844.2539"/><rect fill="#EEEEEE" filter="url(#f8ut1sqkfwyyd)" height="23.1328" style="stroke:#000000;stroke-width:2.0;" width="293" x="249.25" y="830.6875"/><text fill="#000000" font-family="sans-serif" font-size="13" font-weight="bold" lengthAdjust="spacing" textLength="274" x="255.25" y="846.7544">Server offers service (Client present)</text><polygon fill="#A80036" points="703.5,880.9531,713.5,884.9531,703.5,888.9531,707.5,884.9531" style="stroke:#A80036;stroke-width:1.0;"/><line style="stroke:#A80036;stroke-width:1.0;" x1="58" x2="709.5" y1="884.9531" y2="884.9531"/><text fill="#000000" font-family="sans-serif" font-size="13" lengthAdjust="spacing" textLength="135" x="65" y="879.8872">tryGetCaProMessage</text><polygon fill="#A80036" points="69,910.0859,59,914.0859,69,918.0859,65,914.0859" style="stroke:#A80036;stroke-width:1.0;"/><line style="stroke:#A80036;stroke-width:1.0;stroke-dasharray:2.0,2.0;" x1="63" x2="719.5" y1="914.0859" y2="914.0859"/><text fill="#000000" font-family="sans-serif" font-size="13" lengthAdjust="spacing" textLength="173" x="75" y="909.02">CaproMessageType::OFFER</text><line style="stroke:#A80036;stroke-width:1.0;" x1="58" x2="105" y1="938.2188" y2="938.2188"/><line style="stroke:#A80036;stroke-width:1.0;" x1="105" x2="105" y1="938.2188" y2="951.2188"/><line style="stroke:#A80036;stroke-width:1.0;" x1="64" x2="105" y1="951.2188" y2="951.2188"/><polygon fill="#A80036" points="74,947.2188,64,951.2188,74,955.2188,70,951.2188" style="stroke:#A80036;stroke-width:1.0;"/><text fill="#000000" font-family="sans-serif" font-size="13" lengthAdjust="spacing" textLength="188" x="70" y="933.1528">sendToAllMatchingClientPorts</text><polygon fill="#A80036" points="564,981.3516,574,985.3516,564,989.3516,568,985.3516" style="stroke:#A80036;stroke-width:1.0;"/><line style="stroke:#A80036;stroke-width:1.0;" x1="63" x2="570" y1="985.3516" y2="985.3516"/><text fill="#000000" font-family="sans-serif" font-size="13" lengthAdjust="spacing" textLength="494" x="70" y="980.2856">dispatchCaProMessageAndGetPossibleResponse(CaproMessageType::OFFER)</text><polygon fill="#A80036" points="74,1010.4844,64,1014.4844,74,1018.4844,70,1014.4844" style="stroke:#A80036;stroke-width:1.0;"/><line style="stroke:#A80036;stroke-width:1.0;stroke-dasharray:2.0,2.0;" x1="68" x2="580" y1="1014.4844" y2="1014.4844"/><text fill="#000000" font-family="sans-serif" font-size="13" lengthAdjust="spacing" textLength="196" x="80" y="1009.4185">CaproMessageType::CONNECT</text><polygon fill="#A80036" points="703.5,1039.6172,713.5,1043.6172,703.5,1047.6172,707.5,1043.6172" style="stroke:#A80036;stroke-width:1.0;"/><line style="stroke:#A80036;stroke-width:1.0;" x1="63" x2="709.5" y1="1043.6172" y2="1043.6172"/><text fill="#000000" font-family="sans-serif" font-size="13" lengthAdjust="spacing" textLength="517" x="70" y="1038.5513">dispatchCaProMessageAndGetPossibleResponse(CaproMessageType::CONNECT)</text><polygon fill="#A80036" points="74,1068.75,64,1072.75,74,1076.75,70,1072.75" style="stroke:#A80036;stroke-width:1.0;"/><line style="stroke:#A80036;stroke-width:1.0;stroke-dasharray:2.0,2.0;" x1="68" x2="719.5" y1="1072.75" y2="1072.75"/><text fill="#000000" font-family="sans-serif" font-size="13" lengthAdjust="spacing" textLength="159" x="80" y="1067.6841">CaproMessageType::ACK</text><polygon fill="#A80036" points="564,1097.8828,574,1101.8828,564,1105.8828,568,1101.8828" style="stroke:#A80036;stroke-width:1.0;"/><line style="stroke:#A80036;stroke-width:1.0;" x1="63" x2="570" y1="1101.8828" y2="1101.8828"/><text fill="#000000" font-family="sans-serif" font-size="13" lengthAdjust="spacing" textLength="480" x="70" y="1096.8169">dispatchCaProMessageAndGetPossibleResponse(CaproMessageType::ACK)</text><polygon fill="#A80036" points="74,1127.0156,64,1131.0156,74,1135.0156,70,1131.0156" style="stroke:#A80036;stroke-width:1.0;"/><line style="stroke:#A80036;stroke-width:1.0;stroke-dasharray:2.0,2.0;" x1="68" x2="580" y1="1131.0156" y2="1131.0156"/><text fill="#000000" font-family="sans-serif" font-size="13" lengthAdjust="spacing" textLength="72" x="80" y="1125.9497">cxx::nullopt</text><line style="stroke:#A80036;stroke-width:1.0;stroke-dasharray:2.0,2.0;" x1="63" x2="105" y1="1150.0156" y2="1150.0156"/><line style="stroke:#A80036;stroke-width:1.0;stroke-dasharray:2.0,2.0;" x1="105" x2="105" y1="1150.0156" y2="1163.0156"/><line style="stroke:#A80036;stroke-width:1.0;stroke-dasharray:2.0,2.0;" x1="58" x2="105" y1="1163.0156" y2="1163.0156"/><polygon fill="#A80036" points="68,1159.0156,58,1163.0156,68,1167.0156,64,1163.0156" style="stroke:#A80036;stroke-width:1.0;"/></g></svg>