<?xml version="1.0" encoding="UTF-8" standalone="no"?><svg xmlns="http://www.w3.org/2000/svg" xmlns:xlink="http://www.w3.org/1999/xlink" contentScriptType="application/ecmascript" contentStyleType="text/css" height="566px" preserveAspectRatio="none" style="width:928px;height:566px;background:#EEEBDC;" version="1.1" viewBox="0 0 928 566" width="928px" zoomAndPan="magnify"><defs><filter height="300%" id="fznr0t1o75wbu" width="300%" x="-1" y="-1"><feGaussianBlur result="blurOut" stdDeviation="2.0"/><feColorMatrix in="blurOut" result="blurOut2" type="matrix" values="0 0 0 0 0 0 0 0 0 0 0 0 0 0 0 0 0 0 .4 0"/><feOffset dx="4.0" dy="4.0" in="blurOut2" result="blurOut3"/><feBlend in="SourceGraphic" in2="blurOut3" mode="normal"/></filter></defs><g><!--MD5=[a18d6c8dd3677bd5be9c5a86f56031d9]
class ClientSendError--><rect codeLine="2" fill="#FEFECE" filter="url(#fznr0t1o75wbu)" height="86.4141" id="ClientSendError" style="stroke:#A80036;stroke-width:1.5;" width="168" x="7" y="71"/><ellipse cx="39.1" cy="87" fill="#EB937F" rx="11" ry="11" style="stroke:#A80036;stroke-width:1.0;"/><path d="M43.2094,93 L35.4906,93 L35.4906,80.6094 L43.2094,80.6094 L43.2094,82.7656 L37.9438,82.7656 L37.9438,85.4375 L42.7094,85.4375 L42.7094,87.5938 L37.9438,87.5938 L37.9438,90.8438 L43.2094,90.8438 L43.2094,93 Z " fill="#000000"/><text fill="#000000" font-family="sans-serif" font-size="12" lengthAdjust="spacing" textLength="98" x="56.9" y="91.1543">ClientSendError</text><line style="stroke:#A80036;stroke-width:1.5;" x1="8" x2="174" y1="103" y2="103"/><text fill="#000000" font-family="sans-serif" font-size="11" lengthAdjust="spacing" textLength="156" x="13" y="117.2104">NO_CONNECT_REQUESTED,</text><text fill="#000000" font-family="sans-serif" font-size="11" lengthAdjust="spacing" textLength="141" x="13" y="130.0151">SERVER_NOT_AVAILABLE,</text><text fill="#000000" font-family="sans-serif" font-size="11" lengthAdjust="spacing" textLength="105" x="13" y="142.8198">INVALID_REQUEST,</text><line style="stroke:#A80036;stroke-width:1.5;" x1="8" x2="174" y1="149.4141" y2="149.4141"/><!--MD5=[d5260132601eae475fb8821c361df61b]
class ClientPortData--><rect codeLine="8" fill="#FEFECE" filter="url(#fznr0t1o75wbu)" height="99.2188" id="ClientPortData" style="stroke:#A80036;stroke-width:1.5;" width="260" x="432" y="281"/><ellipse cx="512.25" cy="297" fill="#ADD1B2" rx="11" ry="11" style="stroke:#A80036;stroke-width:1.0;"/><path d="M515.2188,302.6406 Q514.6406,302.9375 514,303.0781 Q513.3594,303.2344 512.6563,303.2344 Q510.1563,303.2344 508.8281,301.5938 Q507.5156,299.9375 507.5156,296.8125 Q507.5156,293.6875 508.8281,292.0313 Q510.1563,290.375 512.6563,290.375 Q513.3594,290.375 514,290.5313 Q514.6563,290.6875 515.2188,290.9844 L515.2188,293.7031 Q514.5938,293.125 514,292.8594 Q513.4063,292.5781 512.7813,292.5781 Q511.4375,292.5781 510.75,293.6563 Q510.0625,294.7188 510.0625,296.8125 Q510.0625,298.9063 510.75,299.9844 Q511.4375,301.0469 512.7813,301.0469 Q513.4063,301.0469 514,300.7813 Q514.5938,300.5 515.2188,299.9219 L515.2188,302.6406 Z " fill="#000000"/><text fill="#000000" font-family="sans-serif" font-size="12" lengthAdjust="spacing" textLength="91" x="532.75" y="301.1543">ClientPortData</text><line style="stroke:#A80036;stroke-width:1.5;" x1="433" x2="691" y1="313" y2="313"/><text fill="#000000" font-family="sans-serif" font-size="11" lengthAdjust="spacing" textLength="210" x="438" y="327.2104">chunkSenderData: ChunkSenderData</text><text fill="#000000" font-family="sans-serif" font-size="11" lengthAdjust="spacing" textLength="224" x="438" y="340.0151">chunkReceiverData: ChunkReceiverData</text><text fill="#000000" font-family="sans-serif" font-size="11" lengthAdjust="spacing" textLength="192" x="438" y="352.8198">connectRequested: atomic&lt;bool&gt;</text><text fill="#000000" font-family="sans-serif" font-size="11" lengthAdjust="spacing" textLength="248" x="438" y="365.6245">connectionState: atomic&lt;ConnectionState&gt;</text><line style="stroke:#A80036;stroke-width:1.5;" x1="433" x2="691" y1="372.2188" y2="372.2188"/><!--MD5=[7c99419aff5009fddfdcdd46e780beee]
class ClientPortUser--><rect codeLine="15" fill="#FEFECE" filter="url(#fznr0t1o75wbu)" height="214.4609" id="ClientPortUser" style="stroke:#A80036;stroke-width:1.5;" width="704" x="210" y="7"/><ellipse cx="512.75" cy="23" fill="#ADD1B2" rx="11" ry="11" style="stroke:#A80036;stroke-width:1.0;"/><path d="M515.7188,28.6406 Q515.1406,28.9375 514.5,29.0781 Q513.8594,29.2344 513.1563,29.2344 Q510.6563,29.2344 509.3281,27.5938 Q508.0156,25.9375 508.0156,22.8125 Q508.0156,19.6875 509.3281,18.0313 Q510.6563,16.375 513.1563,16.375 Q513.8594,16.375 514.5,16.5313 Q515.1563,16.6875 515.7188,16.9844 L515.7188,19.7031 Q515.0938,19.125 514.5,18.8594 Q513.9063,18.5781 513.2813,18.5781 Q511.9375,18.5781 511.25,19.6563 Q510.5625,20.7188 510.5625,22.8125 Q510.5625,24.9063 511.25,25.9844 Q511.9375,27.0469 513.2813,27.0469 Q513.9063,27.0469 514.5,26.7813 Q515.0938,26.5 515.7188,25.9219 L515.7188,28.6406 Z " fill="#000000"/><text fill="#000000" font-family="sans-serif" font-size="12" lengthAdjust="spacing" textLength="90" x="533.25" y="27.1543">ClientPortUser</text><line style="stroke:#A80036;stroke-width:1.5;" x1="211" x2="913" y1="39" y2="39"/><line style="stroke:#A80036;stroke-width:1.5;" x1="211" x2="913" y1="47" y2="47"/><text fill="#000000" font-family="sans-serif" font-size="11" lengthAdjust="spacing" textLength="83" x="216" y="61.2104">connect(): void</text><text fill="#000000" font-family="sans-serif" font-size="11" lengthAdjust="spacing" textLength="100" x="216" y="74.0151">disconnect(): void</text><text fill="#000000" font-family="sans-serif" font-size="11" lengthAdjust="spacing" textLength="220" x="216" y="86.8198">getConnectionState(): ConnectionState</text><text fill="#000000" font-family="sans-serif" font-size="11" lengthAdjust="spacing" textLength="692" x="216" y="99.6245">allocateRequest(userPayloadSize: uint32_t, userPayloadAlignment: uint32_t): expected&lt;RequestHeader*, AllocationError&gt;</text><text fill="#000000" font-family="sans-serif" font-size="11" lengthAdjust="spacing" textLength="435" x="216" y="112.4292">sendRequest(requestHeader: RequestHeader*): expected&lt;ClientSendError&gt;</text><text fill="#000000" font-family="sans-serif" font-size="11" lengthAdjust="spacing" textLength="349" x="216" y="125.2339">releaseRequest(requestHeader: const RequestHeader*): void</text><text fill="#000000" font-family="sans-serif" font-size="11" lengthAdjust="spacing" textLength="418" x="216" y="138.0386">getResponse(): expected&lt;const ResponseHeader*, ChunkReceiveResult&gt;</text><text fill="#000000" font-family="sans-serif" font-size="11" lengthAdjust="spacing" textLength="379" x="216" y="150.8433">releaseResponse(responseHeader: const ResponseHeader*): void</text><text fill="#000000" font-family="sans-serif" font-size="11" lengthAdjust="spacing" textLength="148" x="216" y="163.6479">hasNewResponses(): bool</text><text fill="#000000" font-family="sans-serif" font-size="11" lengthAdjust="spacing" textLength="224" x="216" y="176.4526">hasLostResponsesSinceLastCall(): bool</text><text fill="#000000" font-family="sans-serif" font-size="11" lengthAdjust="spacing" textLength="549" x="216" y="189.2573">setConditionVariable(conditionVariable: ConditionVariableData&amp;, notificationIndex: uint64_t): void</text><text fill="#000000" font-family="sans-serif" font-size="11" lengthAdjust="spacing" textLength="170" x="216" y="202.062">unsetConditionVariable(): void</text><text fill="#000000" font-family="sans-serif" font-size="11" lengthAdjust="spacing" textLength="168" x="216" y="214.8667">isConditionVariableSet(): bool</text><!--MD5=[75c4a8e0efcebb84df38aa1444a43c4c]
class ClientPortRouDi--><rect codeLine="31" fill="#FEFECE" filter="url(#fznr0t1o75wbu)" height="112.0234" id="ClientPortRouDi" style="stroke:#A80036;stroke-width:1.5;" width="665" x="229.5" y="440"/><ellipse cx="509.25" cy="456" fill="#ADD1B2" rx="11" ry="11" style="stroke:#A80036;stroke-width:1.0;"/><path d="M512.2188,461.6406 Q511.6406,461.9375 511,462.0781 Q510.3594,462.2344 509.6563,462.2344 Q507.1563,462.2344 505.8281,460.5938 Q504.5156,458.9375 504.5156,455.8125 Q504.5156,452.6875 505.8281,451.0313 Q507.1563,449.375 509.6563,449.375 Q510.3594,449.375 511,449.5313 Q511.6563,449.6875 512.2188,449.9844 L512.2188,452.7031 Q511.5938,452.125 511,451.8594 Q510.4063,451.5781 509.7813,451.5781 Q508.4375,451.5781 507.75,452.6563 Q507.0625,453.7188 507.0625,455.8125 Q507.0625,457.9063 507.75,458.9844 Q508.4375,460.0469 509.7813,460.0469 Q510.4063,460.0469 511,459.7813 Q511.5938,459.5 512.2188,458.9219 L512.2188,461.6406 Z " fill="#000000"/><text fill="#000000" font-family="sans-serif" font-size="12" lengthAdjust="spacing" textLength="97" x="529.75" y="460.1543">ClientPortRouDi</text><line style="stroke:#A80036;stroke-width:1.5;" x1="230.5" x2="893.5" y1="472" y2="472"/><line style="stroke:#A80036;stroke-width:1.5;" x1="230.5" x2="893.5" y1="480" y2="480"/><text fill="#000000" font-family="sans-serif" font-size="11" lengthAdjust="spacing" textLength="266" x="235.5" y="494.2104">getResponseQueueFullPolicy(): QueueFullPolicy</text><text fill="#000000" font-family="sans-serif" font-size="11" lengthAdjust="spacing" textLength="291" x="235.5" y="507.0151">getServerTooSlowPolicy(): ConsumerTooSlowPolicy</text><text fill="#000000" font-family="sans-serif" font-size="11" lengthAdjust="spacing" textLength="284" x="235.5" y="519.8198">tryGetCaProMessage(): optional&lt;CaProMessage&gt;</text><text fill="#000000" font-family="sans-serif" font-size="11" lengthAdjust="spacing" textLength="653" x="235.5" y="532.6245">dispatchCaProMessageAndGetPossibleResponse(caProMessage: const CaProMessage): optional&lt;CaProMessage&gt;</text><text fill="#000000" font-family="sans-serif" font-size="11" lengthAdjust="spacing" textLength="137" x="235.5" y="545.4292">releaseAllChunks(): void</text><!--MD5=[3f49f8d2a15c91644eed424e36834ef7]
reverse link ClientPortUser to ClientPortData--><path codeLine="39" d="M562,234.48 C562,250.85 562,266.83 562,280.87 " fill="none" id="ClientPortUser-backto-ClientPortData" style="stroke:#A80036;stroke-width:1.0;"/><polygon fill="#EEEBDC" points="562,221.31,558,227.31,562,233.31,566,227.31,562,221.31" style="stroke:#A80036;stroke-width:1.0;"/><!--MD5=[b2b115d83fad0073b2738c1cfac47436]
link ClientPortData to ClientPortRouDi--><path codeLine="40" d="M562,380.11 C562,394.67 562,410.92 562,426.51 " fill="none" id="ClientPortData-to-ClientPortRouDi" style="stroke:#A80036;stroke-width:1.0;"/><polygon fill="#EEEBDC" points="562,439.98,566,433.98,562,427.98,558,433.98,562,439.98" style="stroke:#A80036;stroke-width:1.0;"/></g></svg>