<?xml version="1.0" encoding="UTF-8" standalone="no"?><svg xmlns="http://www.w3.org/2000/svg" xmlns:xlink="http://www.w3.org/1999/xlink" contentScriptType="application/ecmascript" contentStyleType="text/css" height="629px" preserveAspectRatio="none" style="width:854px;height:629px;background:#EEEBDC;" version="1.1" viewBox="0 0 854 629" width="854px" zoomAndPan="magnify"><defs><filter height="300%" id="f1dxydwd98eslq" width="300%" x="-1" y="-1"><feGaussianBlur result="blurOut" stdDeviation="2.0"/><feColorMatrix in="blurOut" result="blurOut2" type="matrix" values="0 0 0 0 0 0 0 0 0 0 0 0 0 0 0 0 0 0 .4 0"/><feOffset dx="4.0" dy="4.0" in="blurOut2" result="blurOut3"/><feBlend in="SourceGraphic" in2="blurOut3" mode="normal"/></filter></defs><g><!--MD5=[a18d6c8dd3677bd5be9c5a86f56031d9]
class ClientSendError--><rect codeLine="2" fill="#FEFECE" filter="url(#f1dxydwd98eslq)" height="92.9457" id="ClientSendError" style="stroke:#A80036;stroke-width:1.5;" width="155" x="7" y="89.5"/><ellipse cx="37.3" cy="105.5" fill="#EB937F" rx="11" ry="11" style="stroke:#A80036;stroke-width:1.0;"/><path d="M33.6906,99.6094 L41.4094,99.6094 L41.4094,101.7656 L36.1438,101.7656 L36.1438,104.4375 L40.9094,104.4375 L40.9094,106.5938 L36.1438,106.5938 L36.1438,109.8438 L41.4094,109.8438 L41.4094,112 L33.6906,112 L33.6906,99.6094 Z " fill="#000000"/><text fill="#000000" font-family="sans-serif" font-size="12" lengthAdjust="spacing" textLength="89" x="54.7" y="110.156">ClientSendError</text><line style="stroke:#A80036;stroke-width:1.5;" x1="8" x2="161" y1="121.5" y2="121.5"/><text fill="#000000" font-family="sans-serif" font-size="11" lengthAdjust="spacing" textLength="143" x="13" y="137.2589">NO_CONNECT_REQUESTED,</text><text fill="#000000" font-family="sans-serif" font-size="11" lengthAdjust="spacing" textLength="132" x="13" y="152.2408">SERVER_NOT_AVAILABLE,</text><text fill="#000000" font-family="sans-serif" font-size="11" lengthAdjust="spacing" textLength="100" x="13" y="167.2227">INVALID_REQUEST,</text><line style="stroke:#A80036;stroke-width:1.5;" x1="8" x2="161" y1="174.4457" y2="174.4457"/><!--MD5=[d5260132601eae475fb8821c361df61b]
class ClientPortData--><rect codeLine="8" fill="#FEFECE" filter="url(#f1dxydwd98eslq)" height="107.9276" id="ClientPortData" style="stroke:#A80036;stroke-width:1.5;" width="235" x="401" y="325"/><ellipse cx="473.25" cy="341" fill="#ADD1B2" rx="11" ry="11" style="stroke:#A80036;stroke-width:1.0;"/><path d="M473.0469,347.7344 Q470.5625,347.7344 469.2344,346.0938 Q467.9219,344.4219 467.9219,341.3125 Q467.9219,338.1875 469.2344,336.5313 Q470.5625,334.875 473.0469,334.875 Q473.7656,334.875 474.4219,335.0313 Q475.0625,335.1875 475.625,335.4844 L475.625,338.2031 Q475.2656,337.8594 474.9688,337.6719 Q474.6719,337.4688 474.4063,337.3438 Q474.0938,337.2031 473.7813,337.1406 Q473.4844,337.0781 473.1719,337.0781 Q471.8438,337.0781 471.1563,338.1406 Q470.4688,339.2344 470.4688,341.3125 Q470.4688,343.4063 471.1563,344.4688 Q471.8438,345.5469 473.1719,345.5469 Q473.8125,345.5469 474.4063,345.2656 Q474.7031,345.1406 474.9844,344.9531 Q475.2813,344.75 475.625,344.4219 L475.625,347.1406 Q475.0469,347.4375 474.4063,347.5938 Q473.7813,347.7344 473.0469,347.7344 Z " fill="#000000"/><text fill="#000000" font-family="sans-serif" font-size="12" lengthAdjust="spacing" textLength="82" x="493.75" y="345.656">ClientPortData</text><line style="stroke:#A80036;stroke-width:1.5;" x1="402" x2="635" y1="357" y2="357"/><text fill="#000000" font-family="sans-serif" font-size="11" lengthAdjust="spacing" textLength="194" x="407" y="372.7589">chunkSenderData: ChunkSenderData</text><text fill="#000000" font-family="sans-serif" font-size="11" lengthAdjust="spacing" textLength="208" x="407" y="387.7408">chunkReceiverData: ChunkReceiverData</text><text fill="#000000" font-family="sans-serif" font-size="11" lengthAdjust="spacing" textLength="173" x="407" y="402.7227">connectRequested: atomic&lt;bool&gt;</text><text fill="#000000" font-family="sans-serif" font-size="11" lengthAdjust="spacing" textLength="223" x="407" y="417.7046">connectionState: atomic&lt;ConnectionState&gt;</text><line style="stroke:#A80036;stroke-width:1.5;" x1="402" x2="635" y1="424.9276" y2="424.9276"/><!--MD5=[7c99419aff5009fddfdcdd46e780beee]
class ClientPortUser--><rect codeLine="15" fill="#FEFECE" filter="url(#f1dxydwd98eslq)" height="257.7464" id="ClientPortUser" style="stroke:#A80036;stroke-width:1.5;" width="643" x="197" y="7"/><ellipse cx="473.25" cy="23" fill="#ADD1B2" rx="11" ry="11" style="stroke:#A80036;stroke-width:1.0;"/><path d="M473.0469,29.7344 Q470.5625,29.7344 469.2344,28.0938 Q467.9219,26.4219 467.9219,23.3125 Q467.9219,20.1875 469.2344,18.5313 Q470.5625,16.875 473.0469,16.875 Q473.7656,16.875 474.4219,17.0313 Q475.0625,17.1875 475.625,17.4844 L475.625,20.2031 Q475.2656,19.8594 474.9688,19.6719 Q474.6719,19.4688 474.4063,19.3438 Q474.0938,19.2031 473.7813,19.1406 Q473.4844,19.0781 473.1719,19.0781 Q471.8438,19.0781 471.1563,20.1406 Q470.4688,21.2344 470.4688,23.3125 Q470.4688,25.4063 471.1563,26.4688 Q471.8438,27.5469 473.1719,27.5469 Q473.8125,27.5469 474.4063,27.2656 Q474.7031,27.1406 474.9844,26.9531 Q475.2813,26.75 475.625,26.4219 L475.625,29.1406 Q475.0469,29.4375 474.4063,29.5938 Q473.7813,29.7344 473.0469,29.7344 Z " fill="#000000"/><text fill="#000000" font-family="sans-serif" font-size="12" lengthAdjust="spacing" textLength="82" x="493.75" y="27.656">ClientPortUser</text><line style="stroke:#A80036;stroke-width:1.5;" x1="198" x2="839" y1="39" y2="39"/><line style="stroke:#A80036;stroke-width:1.5;" x1="198" x2="839" y1="47" y2="47"/><text fill="#000000" font-family="sans-serif" font-size="11" lengthAdjust="spacing" textLength="76" x="203" y="62.7589">connect(): void</text><text fill="#000000" font-family="sans-serif" font-size="11" lengthAdjust="spacing" textLength="91" x="203" y="77.7408">disconnect(): void</text><text fill="#000000" font-family="sans-serif" font-size="11" lengthAdjust="spacing" textLength="201" x="203" y="92.7227">getConnectionState(): ConnectionState</text><text fill="#000000" font-family="sans-serif" font-size="11" lengthAdjust="spacing" textLength="631" x="203" y="107.7046">allocateRequest(userPayloadSize: uint32_t, userPayloadAlignment: uint32_t): expected&lt;RequestHeader*, AllocationError&gt;</text><text fill="#000000" font-family="sans-serif" font-size="11" lengthAdjust="spacing" textLength="392" x="203" y="122.6865">sendRequest(requestHeader: RequestHeader*): expected&lt;ClientSendError&gt;</text><text fill="#000000" font-family="sans-serif" font-size="11" lengthAdjust="spacing" textLength="315" x="203" y="137.6684">releaseRequest(requestHeader: const RequestHeader*): void</text><text fill="#000000" font-family="sans-serif" font-size="11" lengthAdjust="spacing" textLength="374" x="203" y="152.6502">getResponse(): expected&lt;const ResponseHeader*, ChunkReceiveResult&gt;</text><text fill="#000000" font-family="sans-serif" font-size="11" lengthAdjust="spacing" textLength="339" x="203" y="167.6321">releaseResponse(responseHeader: const ResponseHeader*): void</text><text fill="#000000" font-family="sans-serif" font-size="11" lengthAdjust="spacing" textLength="169" x="203" y="182.614">releaseQueuedResponses(): void</text><text fill="#000000" font-family="sans-serif" font-size="11" lengthAdjust="spacing" textLength="132" x="203" y="197.5959">hasNewResponses(): bool</text><text fill="#000000" font-family="sans-serif" font-size="11" lengthAdjust="spacing" textLength="198" x="203" y="212.5778">hasLostResponsesSinceLastCall(): bool</text><text fill="#000000" font-family="sans-serif" font-size="11" lengthAdjust="spacing" textLength="539" x="203" y="227.5597">setConditionVariable(conditionVariableData: ConditionVariableData&amp;, notificationIndex: uint64_t): void</text><text fill="#000000" font-family="sans-serif" font-size="11" lengthAdjust="spacing" textLength="159" x="203" y="242.5416">unsetConditionVariable(): void</text><text fill="#000000" font-family="sans-serif" font-size="11" lengthAdjust="spacing" textLength="155" x="203" y="257.5235">isConditionVariableSet(): bool</text><!--MD5=[75c4a8e0efcebb84df38aa1444a43c4c]
class ClientPortRouDi--><rect codeLine="32" fill="#FEFECE" filter="url(#f1dxydwd98eslq)" height="122.9094" id="ClientPortRouDi" style="stroke:#A80036;stroke-width:1.5;" width="607" x="215" y="493"/><ellipse cx="470.25" cy="509" fill="#ADD1B2" rx="11" ry="11" style="stroke:#A80036;stroke-width:1.0;"/><path d="M470.0469,515.7344 Q467.5625,515.7344 466.2344,514.0938 Q464.9219,512.4219 464.9219,509.3125 Q464.9219,506.1875 466.2344,504.5313 Q467.5625,502.875 470.0469,502.875 Q470.7656,502.875 471.4219,503.0313 Q472.0625,503.1875 472.625,503.4844 L472.625,506.2031 Q472.2656,505.8594 471.9688,505.6719 Q471.6719,505.4688 471.4063,505.3438 Q471.0938,505.2031 470.7813,505.1406 Q470.4844,505.0781 470.1719,505.0781 Q468.8438,505.0781 468.1563,506.1406 Q467.4688,507.2344 467.4688,509.3125 Q467.4688,511.4063 468.1563,512.4688 Q468.8438,513.5469 470.1719,513.5469 Q470.8125,513.5469 471.4063,513.2656 Q471.7031,513.1406 471.9844,512.9531 Q472.2813,512.75 472.625,512.4219 L472.625,515.1406 Q472.0469,515.4375 471.4063,515.5938 Q470.7813,515.7344 470.0469,515.7344 Z " fill="#000000"/><text fill="#000000" font-family="sans-serif" font-size="12" lengthAdjust="spacing" textLength="88" x="490.75" y="513.656">ClientPortRouDi</text><line style="stroke:#A80036;stroke-width:1.5;" x1="216" x2="821" y1="525" y2="525"/><line style="stroke:#A80036;stroke-width:1.5;" x1="216" x2="821" y1="533" y2="533"/><text fill="#000000" font-family="sans-serif" font-size="11" lengthAdjust="spacing" textLength="249" x="221" y="548.7589">getResponseQueueFullPolicy(): QueueFullPolicy</text><text fill="#000000" font-family="sans-serif" font-size="11" lengthAdjust="spacing" textLength="269" x="221" y="563.7408">getServerTooSlowPolicy(): ConsumerTooSlowPolicy</text><text fill="#000000" font-family="sans-serif" font-size="11" lengthAdjust="spacing" textLength="255" x="221" y="578.7227">tryGetCaProMessage(): optional&lt;CaProMessage&gt;</text><text fill="#000000" font-family="sans-serif" font-size="11" lengthAdjust="spacing" textLength="595" x="221" y="593.7046">dispatchCaProMessageAndGetPossibleResponse(caProMessage: const CaProMessage&amp;): optional&lt;CaProMessage&gt;</text><text fill="#000000" font-family="sans-serif" font-size="11" lengthAdjust="spacing" textLength="124" x="221" y="608.6865">releaseAllChunks(): void</text><!--MD5=[3f49f8d2a15c91644eed424e36834ef7]
reverse link ClientPortUser to ClientPortData--><path codeLine="40" d="M518.5,278.5 C518.5,294.89 518.5,310.75 518.5,324.8 " fill="none" id="ClientPortUser-backto-ClientPortData" style="stroke:#A80036;stroke-width:1.0;"/><polygon fill="#EEEBDC" points="518.5,265.26,514.5,271.26,518.5,277.26,522.5,271.26,518.5,265.26" style="stroke:#A80036;stroke-width:1.0;"/><!--MD5=[b2b115d83fad0073b2738c1cfac47436]
link ClientPortData to ClientPortRouDi--><path codeLine="41" d="M518.5,433.47 C518.5,448.03 518.5,464.05 518.5,479.53 " fill="none" id="ClientPortData-to-ClientPortRouDi" style="stroke:#A80036;stroke-width:1.0;"/><polygon fill="#EEEBDC" points="518.5,492.93,522.5,486.93,518.5,480.93,514.5,486.93,518.5,492.93" style="stroke:#A80036;stroke-width:1.0;"/></g></svg>