<?xml version="1.0" encoding="UTF-8" standalone="no"?><svg xmlns="http://www.w3.org/2000/svg" xmlns:xlink="http://www.w3.org/1999/xlink" contentScriptType="application/ecmascript" contentStyleType="text/css" height="281px" preserveAspectRatio="none" style="width:565px;height:281px;background:#EEEBDC;" version="1.1" viewBox="0 0 565 281" width="565px" zoomAndPan="magnify"><defs><filter height="300%" id="f1sfwvb2ziohl2" width="300%" x="-1" y="-1"><feGaussianBlur result="blurOut" stdDeviation="2.0"/><feColorMatrix in="blurOut" result="blurOut2" type="matrix" values="0 0 0 0 0 0 0 0 0 0 0 0 0 0 0 0 0 0 .4 0"/><feOffset dx="4.0" dy="4.0" in="blurOut2" result="blurOut3"/><feBlend in="SourceGraphic" in2="blurOut3" mode="normal"/></filter></defs><g><!--MD5=[5efe5b76f74dafc2107a81786d6eaf75]
class ClientOptions--><rect codeLine="2" fill="#FEFECE" filter="url(#f1sfwvb2ziohl2)" height="122.9094" id="ClientOptions" style="stroke:#A80036;stroke-width:1.5;" width="257" x="7" y="7"/><ellipse cx="93.75" cy="23" fill="#ADD1B2" rx="11" ry="11" style="stroke:#A80036;stroke-width:1.0;"/><path d="M93.5469,29.7344 Q91.0625,29.7344 89.7344,28.0938 Q88.4219,26.4219 88.4219,23.3125 Q88.4219,20.1875 89.7344,18.5313 Q91.0625,16.875 93.5469,16.875 Q94.2656,16.875 94.9219,17.0313 Q95.5625,17.1875 96.125,17.4844 L96.125,20.2031 Q95.7656,19.8594 95.4688,19.6719 Q95.1719,19.4688 94.9063,19.3438 Q94.5938,19.2031 94.2813,19.1406 Q93.9844,19.0781 93.6719,19.0781 Q92.3438,19.0781 91.6563,20.1406 Q90.9688,21.2344 90.9688,23.3125 Q90.9688,25.4063 91.6563,26.4688 Q92.3438,27.5469 93.6719,27.5469 Q94.3125,27.5469 94.9063,27.2656 Q95.2031,27.1406 95.4844,26.9531 Q95.7813,26.75 96.125,26.4219 L96.125,29.1406 Q95.5469,29.4375 94.9063,29.5938 Q94.2813,29.7344 93.5469,29.7344 Z " fill="#000000"/><text fill="#000000" font-family="sans-serif" font-size="12" lengthAdjust="spacing" textLength="75" x="114.25" y="27.656">ClientOptions</text><line style="stroke:#A80036;stroke-width:1.5;" x1="8" x2="263" y1="39" y2="39"/><text fill="#000000" font-family="sans-serif" font-size="11" lengthAdjust="spacing" textLength="175" x="13" y="54.7589">responseQueueCapacity: uint64_t</text><text fill="#000000" font-family="sans-serif" font-size="11" lengthAdjust="spacing" textLength="130" x="13" y="69.7408">nodeName: NodeName_t</text><text fill="#000000" font-family="sans-serif" font-size="11" lengthAdjust="spacing" textLength="121" x="13" y="84.7227">connectOnCreate: bool</text><text fill="#000000" font-family="sans-serif" font-size="11" lengthAdjust="spacing" textLength="224" x="13" y="99.7046">responseQueueFullPolicy: QueueFullPolicy</text><text fill="#000000" font-family="sans-serif" font-size="11" lengthAdjust="spacing" textLength="245" x="13" y="114.6865">serverTooSlowPolicy: ConsumerTooSlowPolicy</text><line style="stroke:#A80036;stroke-width:1.5;" x1="8" x2="263" y1="121.9094" y2="121.9094"/><!--MD5=[482ee631cb97eb42770676ae6adca92a]
class ServerOptions--><rect codeLine="10" fill="#FEFECE" filter="url(#f1sfwvb2ziohl2)" height="122.9094" id="ServerOptions" style="stroke:#A80036;stroke-width:1.5;" width="252" x="299.5" y="7"/><ellipse cx="381.25" cy="23" fill="#ADD1B2" rx="11" ry="11" style="stroke:#A80036;stroke-width:1.0;"/><path d="M381.0469,29.7344 Q378.5625,29.7344 377.2344,28.0938 Q375.9219,26.4219 375.9219,23.3125 Q375.9219,20.1875 377.2344,18.5313 Q378.5625,16.875 381.0469,16.875 Q381.7656,16.875 382.4219,17.0313 Q383.0625,17.1875 383.625,17.4844 L383.625,20.2031 Q383.2656,19.8594 382.9688,19.6719 Q382.6719,19.4688 382.4063,19.3438 Q382.0938,19.2031 381.7813,19.1406 Q381.4844,19.0781 381.1719,19.0781 Q379.8438,19.0781 379.1563,20.1406 Q378.4688,21.2344 378.4688,23.3125 Q378.4688,25.4063 379.1563,26.4688 Q379.8438,27.5469 381.1719,27.5469 Q381.8125,27.5469 382.4063,27.2656 Q382.7031,27.1406 382.9844,26.9531 Q383.2813,26.75 383.625,26.4219 L383.625,29.1406 Q383.0469,29.4375 382.4063,29.5938 Q381.7813,29.7344 381.0469,29.7344 Z " fill="#000000"/><text fill="#000000" font-family="sans-serif" font-size="12" lengthAdjust="spacing" textLength="80" x="401.75" y="27.656">ServerOptions</text><line style="stroke:#A80036;stroke-width:1.5;" x1="300.5" x2="550.5" y1="39" y2="39"/><text fill="#000000" font-family="sans-serif" font-size="11" lengthAdjust="spacing" textLength="167" x="305.5" y="54.7589">requestQueueCapacity: uint64_t</text><text fill="#000000" font-family="sans-serif" font-size="11" lengthAdjust="spacing" textLength="130" x="305.5" y="69.7408">nodeName: NodeName_t</text><text fill="#000000" font-family="sans-serif" font-size="11" lengthAdjust="spacing" textLength="106" x="305.5" y="84.7227">offerOnCreate: bool</text><text fill="#000000" font-family="sans-serif" font-size="11" lengthAdjust="spacing" textLength="216" x="305.5" y="99.7046">requestQueueFullPolicy: QueueFullPolicy</text><text fill="#000000" font-family="sans-serif" font-size="11" lengthAdjust="spacing" textLength="240" x="305.5" y="114.6865">clientTooSlowPolicy: ConsumerTooSlowPolicy</text><line style="stroke:#A80036;stroke-width:1.5;" x1="300.5" x2="550.5" y1="121.9094" y2="121.9094"/><!--MD5=[b0e260534202599ba1304b7d36bcc677]
class QueueFullPolicy--><rect codeLine="18" fill="#FEFECE" filter="url(#f1sfwvb2ziohl2)" height="77.9638" id="QueueFullPolicy" style="stroke:#A80036;stroke-width:1.5;" width="138" x="66.5" y="190"/><ellipse cx="89.6" cy="206" fill="#EB937F" rx="11" ry="11" style="stroke:#A80036;stroke-width:1.0;"/><path d="M85.9906,200.1094 L93.7094,200.1094 L93.7094,202.2656 L88.4438,202.2656 L88.4438,204.9375 L93.2094,204.9375 L93.2094,207.0938 L88.4438,207.0938 L88.4438,210.3438 L93.7094,210.3438 L93.7094,212.5 L85.9906,212.5 L85.9906,200.1094 Z " fill="#000000"/><text fill="#000000" font-family="sans-serif" font-size="12" lengthAdjust="spacing" textLength="88" x="105.4" y="210.656">QueueFullPolicy</text><line style="stroke:#A80036;stroke-width:1.5;" x1="67.5" x2="203.5" y1="222" y2="222"/><text fill="#000000" font-family="sans-serif" font-size="11" lengthAdjust="spacing" textLength="103" x="72.5" y="237.7589">BLOCK_PRODUCER,</text><text fill="#000000" font-family="sans-serif" font-size="11" lengthAdjust="spacing" textLength="126" x="72.5" y="252.7408">DISCARD_OLDEST_DATA</text><line style="stroke:#A80036;stroke-width:1.5;" x1="67.5" x2="203.5" y1="259.9638" y2="259.9638"/><!--MD5=[6150fd7f3b739de50fdf5d37392fceec]
class ConsumerTooSlowPolicy--><rect codeLine="23" fill="#FEFECE" filter="url(#f1sfwvb2ziohl2)" height="77.9638" id="ConsumerTooSlowPolicy" style="stroke:#A80036;stroke-width:1.5;" width="169" x="240" y="190"/><ellipse cx="255" cy="206" fill="#EB937F" rx="11" ry="11" style="stroke:#A80036;stroke-width:1.0;"/><path d="M251.3906,200.1094 L259.1094,200.1094 L259.1094,202.2656 L253.8438,202.2656 L253.8438,204.9375 L258.6094,204.9375 L258.6094,207.0938 L253.8438,207.0938 L253.8438,210.3438 L259.1094,210.3438 L259.1094,212.5 L251.3906,212.5 L251.3906,200.1094 Z " fill="#000000"/><text fill="#000000" font-family="sans-serif" font-size="12" lengthAdjust="spacing" textLength="137" x="269" y="210.656">ConsumerTooSlowPolicy</text><line style="stroke:#A80036;stroke-width:1.5;" x1="241" x2="408" y1="222" y2="222"/><text fill="#000000" font-family="sans-serif" font-size="11" lengthAdjust="spacing" textLength="123" x="246" y="237.7589">WAIT_FOR_CONSUMER,</text><text fill="#000000" font-family="sans-serif" font-size="11" lengthAdjust="spacing" textLength="126" x="246" y="252.7408">DISCARD_OLDEST_DATA</text><line style="stroke:#A80036;stroke-width:1.5;" x1="241" x2="408" y1="259.9638" y2="259.9638"/><!--MD5=[1381ee83662079026c8389903ca9656e]
link ClientOptions to ServerOptions--><!--MD5=[c61e71b84ed44b05079962aa7034980e]
link ClientOptions to QueueFullPolicy--><!--MD5=[6aa7312b615a9c0380f18134b31c23a8]
link QueueFullPolicy to ConsumerTooSlowPolicy--></g></svg>