<?xml version="1.0" encoding="UTF-8" standalone="no"?><svg xmlns="http://www.w3.org/2000/svg" xmlns:xlink="http://www.w3.org/1999/xlink" contentScriptType="application/ecmascript" contentStyleType="text/css" height="435px" preserveAspectRatio="none" style="width:873px;height:435px;background:#EEEBDC;" version="1.1" viewBox="0 0 873 435" width="873px" zoomAndPan="magnify"><defs><filter height="300%" id="fhrxfriopw9l9" width="300%" x="-1" y="-1"><feGaussianBlur result="blurOut" stdDeviation="2.0"/><feColorMatrix in="blurOut" result="blurOut2" type="matrix" values="0 0 0 0 0 0 0 0 0 0 0 0 0 0 0 0 0 0 .4 0"/><feOffset dx="4.0" dy="4.0" in="blurOut2" result="blurOut3"/><feBlend in="SourceGraphic" in2="blurOut3" mode="normal"/></filter></defs><g><ellipse cx="501.5" cy="16" fill="#000000" filter="url(#fhrxfriopw9l9)" rx="10" ry="10" style="stroke:none;stroke-width:1.0;"/><g id="NOT_CONNECTED"><rect fill="#FEFECE" filter="url(#fhrxfriopw9l9)" height="50" rx="12.5" ry="12.5" style="stroke:#A80036;stroke-width:1.5;" width="141" x="431" y="87"/><line style="stroke:#A80036;stroke-width:1.5;" x1="431" x2="572" y1="116.0679" y2="116.0679"/><text fill="#000000" font-family="sans-serif" font-size="14" lengthAdjust="spacing" textLength="121" x="441" y="106.9659">NOT_CONNECTED</text></g><g id="CONNECT_REQUESTED"><rect fill="#FEFECE" filter="url(#fhrxfriopw9l9)" height="55.412" rx="12.5" ry="12.5" style="stroke:#A80036;stroke-width:1.5;" width="293" x="355" y="216"/><line style="stroke:#A80036;stroke-width:1.5;" x1="355" x2="648" y1="245.0679" y2="245.0679"/><text fill="#000000" font-family="sans-serif" font-size="14" lengthAdjust="spacing" textLength="153" x="425" y="235.9659">CONNECT_REQUESTED</text><text fill="#000000" font-family="sans-serif" font-size="12" lengthAdjust="spacing" textLength="273" x="360" y="262.896">entry / CONNECT with response queue for server</text></g><g id="CONNECTED"><rect fill="#FEFECE" filter="url(#fhrxfriopw9l9)" height="71.7561" rx="12.5" ry="12.5" style="stroke:#A80036;stroke-width:1.5;" width="223" x="390" y="350"/><line style="stroke:#A80036;stroke-width:1.5;" x1="390" x2="613" y1="379.0679" y2="379.0679"/><text fill="#000000" font-family="sans-serif" font-size="14" lengthAdjust="spacing" textLength="85" x="459" y="369.9659">CONNECTED</text><text fill="#000000" font-family="sans-serif" font-size="12" lengthAdjust="spacing" textLength="203" x="395" y="396.896">entry / store received request queue</text><text fill="#000000" font-family="sans-serif" font-size="12" lengthAdjust="spacing" textLength="157" x="395" y="413.2401">exit / remove request queue</text></g><g id="WAIT_FOR_OFFER"><rect fill="#FEFECE" filter="url(#fhrxfriopw9l9)" height="50" rx="12.5" ry="12.5" style="stroke:#A80036;stroke-width:1.5;" width="136" x="723.5" y="218.5"/><line style="stroke:#A80036;stroke-width:1.5;" x1="723.5" x2="859.5" y1="247.5679" y2="247.5679"/><text fill="#000000" font-family="sans-serif" font-size="14" lengthAdjust="spacing" textLength="116" x="733.5" y="238.4659">WAIT_FOR_OFFER</text></g><g id="DISCONNECT_REQUESTED"><rect fill="#FEFECE" filter="url(#fhrxfriopw9l9)" height="55.412" rx="12.5" ry="12.5" style="stroke:#A80036;stroke-width:1.5;" width="313" x="7" y="216"/><line style="stroke:#A80036;stroke-width:1.5;" x1="7" x2="320" y1="245.0679" y2="245.0679"/><text fill="#000000" font-family="sans-serif" font-size="14" lengthAdjust="spacing" textLength="176" x="75.5" y="235.9659">DISCONNECT_REQUESTED</text><text fill="#000000" font-family="sans-serif" font-size="12" lengthAdjust="spacing" textLength="293" x="12" y="262.896">entry / DISCONNECT with response queue for server</text></g><!--MD5=[ac5c2e6b1118f58b9afe14441bc27cc5]
link *start to NOT_CONNECTED--><path d="M501.5,26.01 C501.5,38.7 501.5,62.41 501.5,81.57 " fill="none" id="*start-to-NOT_CONNECTED" style="stroke:#A80036;stroke-width:1.0;"/><polygon fill="#A80036" points="501.5,86.84,505.5,77.84,501.5,81.84,497.5,77.84,501.5,86.84" style="stroke:#A80036;stroke-width:1.0;"/><!--MD5=[a63dee3f0560c066ab929cd5f6cd8eb5]
link NOT_CONNECTED to CONNECT_REQUESTED--><path d="M501.5,137.05 C501.5,157.86 501.5,188.1 501.5,210.87 " fill="none" id="NOT_CONNECTED-to-CONNECT_REQUESTED" style="stroke:#A80036;stroke-width:1.0;"/><polygon fill="#A80036" points="501.5,215.9,505.5,206.9,501.5,210.9,497.5,206.9,501.5,215.9" style="stroke:#A80036;stroke-width:1.0;"/><text fill="#000000" font-family="sans-serif" font-size="13" lengthAdjust="spacing" textLength="60" x="502.5" y="181.897">CONNECT</text><!--MD5=[6d4cbb908318cc799384f39c9e350ccb]
link NOT_CONNECTED to NOT_CONNECTED--><path d="M572,101.93 C591.8,102.37 607,105.72 607,112 C607,117.69 594.52,120.98 577.44,121.87 " fill="none" id="NOT_CONNECTED-to-NOT_CONNECTED" style="stroke:#A80036;stroke-width:1.0;"/><polygon fill="#A80036" points="572,122.07,581.1423,125.7332,576.9966,121.8844,580.8453,117.7387,572,122.07" style="stroke:#A80036;stroke-width:1.0;"/><text fill="#000000" font-family="sans-serif" font-size="13" lengthAdjust="spacing" textLength="39" x="613" y="117.397">OFFER</text><!--MD5=[95a1b69b5d1f5b88b7fe79452ecf1d43]
link CONNECT_REQUESTED to CONNECTED--><path d="M501.5,271.26 C501.5,291.98 501.5,321.04 501.5,344.59 " fill="none" id="CONNECT_REQUESTED-to-CONNECTED" style="stroke:#A80036;stroke-width:1.0;"/><polygon fill="#A80036" points="501.5,349.83,505.5,340.83,501.5,344.83,497.5,340.83,501.5,349.83" style="stroke:#A80036;stroke-width:1.0;"/><text fill="#000000" font-family="sans-serif" font-size="13" lengthAdjust="spacing" textLength="24" x="502.5" y="315.897">ACK</text><!--MD5=[eeb0e01cb3c55125e023fbe509c664b9]
link CONNECT_REQUESTED to WAIT_FOR_OFFER--><path d="M648.2,267.46 C666.91,268.17 685.78,267.72 703.75,265.5 C708.54,264.91 713.45,264.14 718.38,263.25 " fill="none" id="CONNECT_REQUESTED-to-WAIT_FOR_OFFER" style="stroke:#A80036;stroke-width:1.0;"/><polygon fill="#A80036" points="723.3,262.32,713.7138,260.0606,718.3869,263.2483,715.1992,267.9215,723.3,262.32" style="stroke:#A80036;stroke-width:1.0;"/><text fill="#000000" font-family="sans-serif" font-size="13" lengthAdjust="spacing" textLength="34" x="668.75" y="261.397">NACK</text><!--MD5=[e98dd40ccb9dbffa5822f17d454db13a]
reverse link CONNECT_REQUESTED to WAIT_FOR_OFFER--><path d="M653.43,243.5 C677.93,243.5 702.17,243.5 723.34,243.5 " fill="none" id="CONNECT_REQUESTED-backto-WAIT_FOR_OFFER" style="stroke:#A80036;stroke-width:1.0;"/><polygon fill="#A80036" points="648.2,243.5,657.2,247.5,653.2,243.5,657.2,239.5,648.2,243.5" style="stroke:#A80036;stroke-width:1.0;"/><text fill="#000000" font-family="sans-serif" font-size="13" lengthAdjust="spacing" textLength="39" x="666.25" y="236.397">OFFER</text><!--MD5=[32dbbd21427f9721e8582097714044f5]
reverse link NOT_CONNECTED to WAIT_FOR_OFFER--><path d="M560,139.12 C611.85,162.28 686.96,195.82 737.43,218.35 " fill="none" id="NOT_CONNECTED-backto-WAIT_FOR_OFFER" style="stroke:#A80036;stroke-width:1.0;"/><polygon fill="#A80036" points="555.37,137.05,561.9464,144.3815,559.9325,139.0953,565.2188,137.0815,555.37,137.05" style="stroke:#A80036;stroke-width:1.0;"/><text fill="#000000" font-family="sans-serif" font-size="13" lengthAdjust="spacing" textLength="80" x="664.5" y="181.897">DISCONNECT</text><!--MD5=[d88ca26a7152883e48aff2a983f858ef]
reverse link WAIT_FOR_OFFER to CONNECTED--><path d="M736.97,270.92 C690.83,293.27 624.33,325.49 573.77,349.99 " fill="none" id="WAIT_FOR_OFFER-backto-CONNECTED" style="stroke:#A80036;stroke-width:1.0;"/><polygon fill="#A80036" points="741.65,268.65,731.8068,268.9841,737.1525,270.8345,735.302,276.1802,741.65,268.65" style="stroke:#A80036;stroke-width:1.0;"/><text fill="#000000" font-family="sans-serif" font-size="13" lengthAdjust="spacing" textLength="77" x="672.5" y="315.897">STOP_OFFER</text><!--MD5=[7ae16d8c11da92896f1be6a1780c3371]
reverse link DISCONNECT_REQUESTED to CONNECTED--><path d="M232.25,273.08 C285.66,295.28 359.99,326.18 417.02,349.88 " fill="none" id="DISCONNECT_REQUESTED-backto-CONNECTED" style="stroke:#A80036;stroke-width:1.0;"/><polygon fill="#A80036" points="227.47,271.09,234.2502,278.2334,232.0883,273.006,237.3158,270.8441,227.47,271.09" style="stroke:#A80036;stroke-width:1.0;"/><text fill="#000000" font-family="sans-serif" font-size="13" lengthAdjust="spacing" textLength="80" x="344.5" y="315.897">DISCONNECT</text><!--MD5=[263970c7f008148b082ac9ed0f680229]
reverse link NOT_CONNECTED to DISCONNECT_REQUESTED--><path d="M433.86,138.91 C375.57,161.25 291.75,193.36 232.94,215.9 " fill="none" id="NOT_CONNECTED-backto-DISCONNECT_REQUESTED" style="stroke:#A80036;stroke-width:1.0;"/><polygon fill="#A80036" points="438.72,137.05,428.885,136.5273,434.0496,138.8353,431.7415,143.9999,438.72,137.05" style="stroke:#A80036;stroke-width:1.0;"/><text fill="#000000" font-family="sans-serif" font-size="13" lengthAdjust="spacing" textLength="63" x="354.5" y="181.897">ACK/NACK</text></g></svg>