<?xml version="1.0" encoding="UTF-8" standalone="no"?><svg xmlns="http://www.w3.org/2000/svg" xmlns:xlink="http://www.w3.org/1999/xlink" contentScriptType="application/ecmascript" contentStyleType="text/css" height="419px" preserveAspectRatio="none" style="width:939px;height:419px;background:#EEEBDC;" version="1.1" viewBox="0 0 939 419" width="939px" zoomAndPan="magnify"><defs><filter height="300%" id="fhrxfriopw9l9" width="300%" x="-1" y="-1"><feGaussianBlur result="blurOut" stdDeviation="2.0"/><feColorMatrix in="blurOut" result="blurOut2" type="matrix" values="0 0 0 0 0 0 0 0 0 0 0 0 0 0 0 0 0 0 .4 0"/><feOffset dx="4.0" dy="4.0" in="blurOut2" result="blurOut3"/><feBlend in="SourceGraphic" in2="blurOut3" mode="normal"/></filter></defs><g><ellipse cx="545" cy="16" fill="#000000" filter="url(#fhrxfriopw9l9)" rx="10" ry="10" style="stroke:none;stroke-width:1.0;"/><g id="NOT_CONNECTED"><rect fill="#FEFECE" filter="url(#fhrxfriopw9l9)" height="50" rx="12.5" ry="12.5" style="stroke:#A80036;stroke-width:1.5;" width="146" x="472" y="87"/><line style="stroke:#A80036;stroke-width:1.5;" x1="472" x2="618" y1="113.2969" y2="113.2969"/><text fill="#000000" font-family="sans-serif" font-size="14" lengthAdjust="spacing" textLength="126" x="482" y="104.9951">NOT_CONNECTED</text></g><g id="CONNECT_REQUESTED"><rect fill="#FEFECE" filter="url(#fhrxfriopw9l9)" height="50.2656" rx="12.5" ry="12.5" style="stroke:#A80036;stroke-width:1.5;" width="322" x="384" y="214"/><line style="stroke:#A80036;stroke-width:1.5;" x1="384" x2="706" y1="240.2969" y2="240.2969"/><text fill="#000000" font-family="sans-serif" font-size="14" lengthAdjust="spacing" textLength="163" x="463.5" y="231.9951">CONNECT_REQUESTED</text><text fill="#000000" font-family="sans-serif" font-size="12" lengthAdjust="spacing" textLength="302" x="389" y="256.4355">entry / CONNECT with response queue for server</text></g><g id="CONNECTED"><rect fill="#FEFECE" filter="url(#fhrxfriopw9l9)" height="64.2344" rx="12.5" ry="12.5" style="stroke:#A80036;stroke-width:1.5;" width="251" x="419.5" y="341"/><line style="stroke:#A80036;stroke-width:1.5;" x1="419.5" x2="670.5" y1="367.2969" y2="367.2969"/><text fill="#000000" font-family="sans-serif" font-size="14" lengthAdjust="spacing" textLength="89" x="500.5" y="358.9951">CONNECTED</text><text fill="#000000" font-family="sans-serif" font-size="12" lengthAdjust="spacing" textLength="231" x="424.5" y="383.4355">entry / store received request queue</text><text fill="#000000" font-family="sans-serif" font-size="12" lengthAdjust="spacing" textLength="177" x="424.5" y="397.4043">exit / remove request queue</text></g><g id="WAIT_FOR_OFFER"><rect fill="#FEFECE" filter="url(#fhrxfriopw9l9)" height="50" rx="12.5" ry="12.5" style="stroke:#A80036;stroke-width:1.5;" width="143" x="782.5" y="214"/><line style="stroke:#A80036;stroke-width:1.5;" x1="782.5" x2="925.5" y1="240.2969" y2="240.2969"/><text fill="#000000" font-family="sans-serif" font-size="14" lengthAdjust="spacing" textLength="123" x="792.5" y="231.9951">WAIT_FOR_OFFER</text></g><g id="DISCONNECT_REQUESTED"><rect fill="#FEFECE" filter="url(#fhrxfriopw9l9)" height="50.2656" rx="12.5" ry="12.5" style="stroke:#A80036;stroke-width:1.5;" width="342" x="7" y="214"/><line style="stroke:#A80036;stroke-width:1.5;" x1="7" x2="349" y1="240.2969" y2="240.2969"/><text fill="#000000" font-family="sans-serif" font-size="14" lengthAdjust="spacing" textLength="186" x="85" y="231.9951">DISCONNECT_REQUESTED</text><text fill="#000000" font-family="sans-serif" font-size="12" lengthAdjust="spacing" textLength="322" x="12" y="256.4355">entry / DISCONNECT with response queue for server</text></g><!--MD5=[ac5c2e6b1118f58b9afe14441bc27cc5]
link *start to NOT_CONNECTED--><path d="M545,26.01 C545,38.7 545,62.41 545,81.57 " fill="none" id="*start-to-NOT_CONNECTED" style="stroke:#A80036;stroke-width:1.0;"/><polygon fill="#A80036" points="545,86.84,549,77.84,545,81.84,541,77.84,545,86.84" style="stroke:#A80036;stroke-width:1.0;"/><!--MD5=[a63dee3f0560c066ab929cd5f6cd8eb5]
link NOT_CONNECTED to CONNECT_REQUESTED--><path d="M545,137.1 C545,157.59 545,187.08 545,208.88 " fill="none" id="NOT_CONNECTED-to-CONNECT_REQUESTED" style="stroke:#A80036;stroke-width:1.0;"/><polygon fill="#A80036" points="545,213.97,549,204.97,545,208.97,541,204.97,545,213.97" style="stroke:#A80036;stroke-width:1.0;"/><text fill="#000000" font-family="sans-serif" font-size="13" lengthAdjust="spacing" textLength="63" x="546" y="180.0669">CONNECT</text><!--MD5=[6d4cbb908318cc799384f39c9e350ccb]
link NOT_CONNECTED to NOT_CONNECTED--><path d="M618.19,101.95 C637.96,102.48 653,105.83 653,112 C653,117.59 640.65,120.87 623.62,121.83 " fill="none" id="NOT_CONNECTED-to-NOT_CONNECTED" style="stroke:#A80036;stroke-width:1.0;"/><polygon fill="#A80036" points="618.19,122.05,627.3431,125.686,623.186,121.8496,627.0224,117.6925,618.19,122.05" style="stroke:#A80036;stroke-width:1.0;"/><text fill="#000000" font-family="sans-serif" font-size="13" lengthAdjust="spacing" textLength="40" x="659" y="116.5669">OFFER</text><!--MD5=[95a1b69b5d1f5b88b7fe79452ecf1d43]
link CONNECT_REQUESTED to CONNECTED--><path d="M545,264.21 C545,284.28 545,313.1 545,335.89 " fill="none" id="CONNECT_REQUESTED-to-CONNECTED" style="stroke:#A80036;stroke-width:1.0;"/><polygon fill="#A80036" points="545,340.95,549,331.95,545,335.95,541,331.95,545,340.95" style="stroke:#A80036;stroke-width:1.0;"/><text fill="#000000" font-family="sans-serif" font-size="13" lengthAdjust="spacing" textLength="26" x="546" y="307.0669">ACK</text><!--MD5=[eeb0e01cb3c55125e023fbe509c664b9]
link CONNECT_REQUESTED to WAIT_FOR_OFFER--><path d="M706.26,261.05 C725.48,261.53 744.81,261.01 763.25,259 C767.84,258.5 772.55,257.86 777.27,257.12 " fill="none" id="CONNECT_REQUESTED-to-WAIT_FOR_OFFER" style="stroke:#A80036;stroke-width:1.0;"/><polygon fill="#A80036" points="782.41,256.28,772.8795,253.7961,777.4765,257.0927,774.1799,261.6897,782.41,256.28" style="stroke:#A80036;stroke-width:1.0;"/><text fill="#000000" font-family="sans-serif" font-size="13" lengthAdjust="spacing" textLength="36" x="726.25" y="255.0669">NACK</text><!--MD5=[e98dd40ccb9dbffa5822f17d454db13a]
reverse link CONNECT_REQUESTED to WAIT_FOR_OFFER--><path d="M711.59,239 C736.41,239 760.81,239 782.2,239 " fill="none" id="CONNECT_REQUESTED-backto-WAIT_FOR_OFFER" style="stroke:#A80036;stroke-width:1.0;"/><polygon fill="#A80036" points="706.29,239,715.29,243,711.29,239,715.29,235,706.29,239" style="stroke:#A80036;stroke-width:1.0;"/><text fill="#000000" font-family="sans-serif" font-size="13" lengthAdjust="spacing" textLength="40" x="724.25" y="232.0669">OFFER</text><!--MD5=[32dbbd21427f9721e8582097714044f5]
reverse link NOT_CONNECTED to WAIT_FOR_OFFER--><path d="M609.45,139.07 C664,161.14 741.55,192.51 794.6,213.97 " fill="none" id="NOT_CONNECTED-backto-WAIT_FOR_OFFER" style="stroke:#A80036;stroke-width:1.0;"/><polygon fill="#A80036" points="604.58,137.1,611.432,144.1746,609.2174,138.9692,614.4228,136.7547,604.58,137.1" style="stroke:#A80036;stroke-width:1.0;"/><text fill="#000000" font-family="sans-serif" font-size="13" lengthAdjust="spacing" textLength="85" x="719" y="180.0669">DISCONNECT</text><!--MD5=[d88ca26a7152883e48aff2a983f858ef]
reverse link WAIT_FOR_OFFER to CONNECTED--><path d="M792.88,266.11 C742.57,287.6 671.12,318.12 617.85,340.88 " fill="none" id="WAIT_FOR_OFFER-backto-CONNECTED" style="stroke:#A80036;stroke-width:1.0;"/><polygon fill="#A80036" points="797.68,264.06,787.8324,263.9028,793.0791,266.0175,790.9644,271.2642,797.68,264.06" style="stroke:#A80036;stroke-width:1.0;"/><text fill="#000000" font-family="sans-serif" font-size="13" lengthAdjust="spacing" textLength="81" x="728" y="307.0669">STOP_OFFER</text><!--MD5=[7ae16d8c11da92896f1be6a1780c3371]
reverse link DISCONNECT_REQUESTED to CONNECTED--><path d="M249.87,265.85 C309.66,287.35 394.95,318.03 458.48,340.88 " fill="none" id="DISCONNECT_REQUESTED-backto-CONNECTED" style="stroke:#A80036;stroke-width:1.0;"/><polygon fill="#A80036" points="244.89,264.06,252.0177,270.8567,249.5981,265.7435,254.7113,263.3238,244.89,264.06" style="stroke:#A80036;stroke-width:1.0;"/><text fill="#000000" font-family="sans-serif" font-size="13" lengthAdjust="spacing" textLength="85" x="374" y="307.0669">DISCONNECT</text><!--MD5=[263970c7f008148b082ac9ed0f680229]
reverse link NOT_CONNECTED to DISCONNECT_REQUESTED--><path d="M469.23,138.81 C404.41,160.89 311.81,192.42 248.54,213.97 " fill="none" id="NOT_CONNECTED-backto-DISCONNECT_REQUESTED" style="stroke:#A80036;stroke-width:1.0;"/><polygon fill="#A80036" points="474.24,137.1,464.4303,136.2222,469.5081,138.7154,467.015,143.7932,474.24,137.1" style="stroke:#A80036;stroke-width:1.0;"/><text fill="#000000" font-family="sans-serif" font-size="13" lengthAdjust="spacing" textLength="66" x="385" y="180.0669">ACK/NACK</text></g></svg>