<?xml version="1.0" encoding="UTF-8" standalone="no"?><svg xmlns="http://www.w3.org/2000/svg" xmlns:xlink="http://www.w3.org/1999/xlink" contentScriptType="application/ecmascript" contentStyleType="text/css" height="1012px" preserveAspectRatio="none" style="width:885px;height:1012px;background:#EEEBDC;" version="1.1" viewBox="0 0 885 1012" width="885px" zoomAndPan="magnify"><defs><filter height="300%" id="fll627y6ozrth" width="300%" x="-1" y="-1"><feGaussianBlur result="blurOut" stdDeviation="2.0"/><feColorMatrix in="blurOut" result="blurOut2" type="matrix" values="0 0 0 0 0 0 0 0 0 0 0 0 0 0 0 0 0 0 .4 0"/><feOffset dx="4.0" dy="4.0" in="blurOut2" result="blurOut3"/><feBlend in="SourceGraphic" in2="blurOut3" mode="normal"/></filter></defs><g><!--MD5=[7ba86efbd0c950b29d731e7fdecdb02b]
class CommandLineOptionSet--><rect codeLine="2" fill="#FEFECE" filter="url(#fll627y6ozrth)" height="99.2188" id="CommandLineOptionSet" style="stroke:#A80036;stroke-width:1.5;" width="335" x="7" y="286"/><ellipse cx="102.75" cy="302" fill="#ADD1B2" rx="11" ry="11" style="stroke:#A80036;stroke-width:1.0;"/><path d="M106.2656,306.0313 L106.2656,308.0625 Q104.7813,308.6719 102.9531,308.6719 Q100.2344,308.6719 98.7813,306.9375 Q97.3281,305.1875 97.3281,302.0781 Q97.3281,299.0781 98.9063,297.2969 Q100.4844,295.5 103.2031,295.5 Q105.1094,295.5 106.8438,296.4219 L105.8906,298.3281 Q104.3906,297.5469 103.2031,297.5469 Q101.5938,297.5469 100.6094,298.7656 Q99.6406,299.9688 99.6406,302.0938 Q99.6406,304.3438 100.5469,305.4844 Q101.4688,306.625 103.2031,306.625 Q104.2344,306.625 106.2656,306.0313 Z " fill="#000000"/><text fill="#000000" font-family="sans-serif" font-size="12" lengthAdjust="spacing" textLength="135" x="123.25" y="306.1543">CommandLineOptionSet</text><line style="stroke:#A80036;stroke-width:1.5;" x1="8" x2="341" y1="318" y2="318"/><line style="stroke:#A80036;stroke-width:1.5;" x1="8" x2="341" y1="326" y2="326"/><ellipse cx="18" cy="337" fill="#84BE84" rx="3" ry="3" style="stroke:#038048;stroke-width:1.0;"/><text fill="#000000" font-family="sans-serif" font-size="11" lengthAdjust="spacing" textLength="309" x="27" y="340.2104">CommandLineOptionSet(programDescription, onFailureCallback)</text><ellipse cx="18" cy="349.8047" fill="#84BE84" rx="3" ry="3" style="stroke:#038048;stroke-width:1.0;"/><text fill="#000000" font-family="sans-serif" font-size="11" lengthAdjust="spacing" textLength="61" x="27" y="353.0151">addSwitch(..)</text><ellipse cx="18" cy="362.6094" fill="#84BE84" rx="3" ry="3" style="stroke:#038048;stroke-width:1.0;"/><text fill="#000000" font-family="sans-serif" font-size="11" lengthAdjust="spacing" textLength="71" x="27" y="365.8198">addOptional(..)</text><ellipse cx="18" cy="375.4141" fill="#84BE84" rx="3" ry="3" style="stroke:#038048;stroke-width:1.0;"/><text fill="#000000" font-family="sans-serif" font-size="11" lengthAdjust="spacing" textLength="73" x="27" y="378.6245">addRequired(..)</text><!--MD5=[9d0efe5abe916d2460885a13431354e9]
class CommandLineOptionValue--><rect codeLine="9" fill="#FEFECE" filter="url(#fll627y6ozrth)" height="86.4141" id="CommandLineOptionValue" style="stroke:#A80036;stroke-width:1.5;" width="180" x="263.5" y="170"/><ellipse cx="278.5" cy="186" fill="#ADD1B2" rx="11" ry="11" style="stroke:#A80036;stroke-width:1.0;"/><path d="M282.0156,190.0313 L282.0156,192.0625 Q280.5313,192.6719 278.7031,192.6719 Q275.9844,192.6719 274.5313,190.9375 Q273.0781,189.1875 273.0781,186.0781 Q273.0781,183.0781 274.6563,181.2969 Q276.2344,179.5 278.9531,179.5 Q280.8594,179.5 282.5938,180.4219 L281.6406,182.3281 Q280.1406,181.5469 278.9531,181.5469 Q277.3438,181.5469 276.3594,182.7656 Q275.3906,183.9688 275.3906,186.0938 Q275.3906,188.3438 276.2969,189.4844 Q277.2188,190.625 278.9531,190.625 Q279.9844,190.625 282.0156,190.0313 Z " fill="#000000"/><text fill="#000000" font-family="sans-serif" font-size="12" lengthAdjust="spacing" textLength="148" x="292.5" y="190.1543">CommandLineOptionValue</text><line style="stroke:#A80036;stroke-width:1.5;" x1="264.5" x2="442.5" y1="202" y2="202"/><line style="stroke:#A80036;stroke-width:1.5;" x1="264.5" x2="442.5" y1="210" y2="210"/><ellipse cx="274.5" cy="221" fill="#84BE84" rx="3" ry="3" style="stroke:#038048;stroke-width:1.0;"/><text fill="#000000" font-family="sans-serif" font-size="11" lengthAdjust="spacing" textLength="90" x="283.5" y="224.2104">T get(optionName)</text><ellipse cx="274.5" cy="233.8047" fill="#84BE84" rx="3" ry="3" style="stroke:#038048;stroke-width:1.0;"/><text fill="#000000" font-family="sans-serif" font-size="11" lengthAdjust="spacing" textLength="106" x="283.5" y="237.0151">bool has(optionName)</text><ellipse cx="274.5" cy="246.6094" fill="#84BE84" rx="3" ry="3" style="stroke:#038048;stroke-width:1.0;"/><text fill="#000000" font-family="sans-serif" font-size="11" lengthAdjust="spacing" textLength="139" x="283.5" y="249.8198">BinaryName_t binaryName()</text><!--MD5=[2ab591c68ec5c8c322c776c91b207122]
class CommandLineArgumentParser--><rect codeLine="15" fill="#FEFECE" filter="url(#fll627y6ozrth)" height="60.8047" id="CommandLineArgumentParser" style="stroke:#A80036;stroke-width:1.5;" width="323" x="135" y="19.5"/><ellipse cx="208.25" cy="35.5" fill="#ADD1B2" rx="11" ry="11" style="stroke:#A80036;stroke-width:1.0;"/><path d="M211.7656,39.5313 L211.7656,41.5625 Q210.2813,42.1719 208.4531,42.1719 Q205.7344,42.1719 204.2813,40.4375 Q202.8281,38.6875 202.8281,35.5781 Q202.8281,32.5781 204.4063,30.7969 Q205.9844,29 208.7031,29 Q210.6094,29 212.3438,29.9219 L211.3906,31.8281 Q209.8906,31.0469 208.7031,31.0469 Q207.0938,31.0469 206.1094,32.2656 Q205.1406,33.4688 205.1406,35.5938 Q205.1406,37.8438 206.0469,38.9844 Q206.9688,40.125 208.7031,40.125 Q209.7344,40.125 211.7656,39.5313 Z " fill="#000000"/><text fill="#000000" font-family="sans-serif" font-size="12" lengthAdjust="spacing" textLength="168" x="228.75" y="39.6543">CommandLineArgumentParser</text><line style="stroke:#A80036;stroke-width:1.5;" x1="136" x2="457" y1="51.5" y2="51.5"/><line style="stroke:#A80036;stroke-width:1.5;" x1="136" x2="457" y1="59.5" y2="59.5"/><ellipse cx="146" cy="70.5" fill="#84BE84" rx="3" ry="3" style="stroke:#038048;stroke-width:1.0;"/><text fill="#000000" font-family="sans-serif" font-size="11" lengthAdjust="spacing" textLength="297" x="155" y="73.7104">CommandLineOptionValue parse(CommandLineOptionSet, ..)</text><!--MD5=[b07065dfc0d0e09965ec10bfc328bb3e]
class Option--><rect codeLine="19" fill="#FEFECE" filter="url(#fll627y6ozrth)" height="227.2656" id="Option" style="stroke:#A80036;stroke-width:1.5;" width="210" x="251.5" y="415"/><ellipse cx="333.75" cy="431" fill="#ADD1B2" rx="11" ry="11" style="stroke:#A80036;stroke-width:1.0;"/><path d="M337.2656,435.0313 L337.2656,437.0625 Q335.7813,437.6719 333.9531,437.6719 Q331.2344,437.6719 329.7813,435.9375 Q328.3281,434.1875 328.3281,431.0781 Q328.3281,428.0781 329.9063,426.2969 Q331.4844,424.5 334.2031,424.5 Q336.1094,424.5 337.8438,425.4219 L336.8906,427.3281 Q335.3906,426.5469 334.2031,426.5469 Q332.5938,426.5469 331.6094,427.7656 Q330.6406,428.9688 330.6406,431.0938 Q330.6406,433.3438 331.5469,434.4844 Q332.4688,435.625 334.2031,435.625 Q335.2344,435.625 337.2656,435.0313 Z " fill="#000000"/><text fill="#000000" font-family="sans-serif" font-size="12" lengthAdjust="spacing" textLength="37" x="354.25" y="435.1543">Option</text><line style="stroke:#A80036;stroke-width:1.5;" x1="252.5" x2="460.5" y1="447" y2="447"/><polygon fill="none" points="262.5,453,266.5,457,262.5,461,258.5,457" style="stroke:#B38D22;stroke-width:1.0;"/><text fill="#000000" font-family="sans-serif" font-size="11" lengthAdjust="spacing" textLength="58" x="271.5" y="461.2104">shortOption</text><polygon fill="none" points="262.5,465.8047,266.5,469.8047,262.5,473.8047,258.5,469.8047" style="stroke:#B38D22;stroke-width:1.0;"/><text fill="#000000" font-family="sans-serif" font-size="11" lengthAdjust="spacing" textLength="53" x="271.5" y="474.0151">longOption</text><polygon fill="none" points="262.5,478.6094,266.5,482.6094,262.5,486.6094,258.5,482.6094" style="stroke:#B38D22;stroke-width:1.0;"/><text fill="#000000" font-family="sans-serif" font-size="11" lengthAdjust="spacing" textLength="26" x="271.5" y="486.8198">value</text><line style="stroke:#A80036;stroke-width:1.5;" x1="252.5" x2="460.5" y1="493.4141" y2="493.4141"/><ellipse cx="262.5" cy="504.4141" fill="#84BE84" rx="3" ry="3" style="stroke:#038048;stroke-width:1.0;"/><text fill="#000000" font-family="sans-serif" font-size="11" lengthAdjust="spacing" textLength="44" x="271.5" y="507.6245">isSwitch()</text><ellipse cx="262.5" cy="517.2188" fill="#84BE84" rx="3" ry="3" style="stroke:#038048;stroke-width:1.0;"/><text fill="#000000" font-family="sans-serif" font-size="11" lengthAdjust="spacing" textLength="146" x="271.5" y="520.4292">hasOptionName(optionName)</text><ellipse cx="262.5" cy="530.0234" fill="#84BE84" rx="3" ry="3" style="stroke:#038048;stroke-width:1.0;"/><text fill="#000000" font-family="sans-serif" font-size="11" lengthAdjust="spacing" textLength="133" x="271.5" y="533.2339">isSameOption(otherOption)</text><ellipse cx="262.5" cy="542.8281" fill="#84BE84" rx="3" ry="3" style="stroke:#038048;stroke-width:1.0;"/><text fill="#000000" font-family="sans-serif" font-size="11" lengthAdjust="spacing" textLength="113" x="271.5" y="546.0386">operator&lt;(otherOption)</text><ellipse cx="262.5" cy="555.6328" fill="#84BE84" rx="3" ry="3" style="stroke:#038048;stroke-width:1.0;"/><text fill="#000000" font-family="sans-serif" font-size="11" lengthAdjust="spacing" textLength="45" x="271.5" y="558.8433">isEmpty()</text><ellipse cx="262.5" cy="568.4375" fill="#84BE84" rx="3" ry="3" style="stroke:#038048;stroke-width:1.0;"/><text fill="#000000" font-family="sans-serif" font-size="11" lengthAdjust="spacing" textLength="184" x="271.5" y="571.6479">longOptionNameDoesStartWithDash()</text><ellipse cx="262.5" cy="581.2422" fill="#84BE84" rx="3" ry="3" style="stroke:#038048;stroke-width:1.0;"/><text fill="#000000" font-family="sans-serif" font-size="11" lengthAdjust="spacing" textLength="153" x="271.5" y="584.4526">shortOptionNameIsEqualDash()</text><ellipse cx="262.5" cy="594.0469" fill="#84BE84" rx="3" ry="3" style="stroke:#038048;stroke-width:1.0;"/><text fill="#000000" font-family="sans-serif" font-size="11" lengthAdjust="spacing" textLength="169" x="271.5" y="597.2573">hasLongOptionName(optionName)</text><ellipse cx="262.5" cy="606.8516" fill="#84BE84" rx="3" ry="3" style="stroke:#038048;stroke-width:1.0;"/><text fill="#000000" font-family="sans-serif" font-size="11" lengthAdjust="spacing" textLength="138" x="271.5" y="610.062">hasShortOptionName(value)</text><ellipse cx="262.5" cy="619.6563" fill="#84BE84" rx="3" ry="3" style="stroke:#038048;stroke-width:1.0;"/><text fill="#000000" font-family="sans-serif" font-size="11" lengthAdjust="spacing" textLength="82" x="271.5" y="622.8667">hasShortOption()</text><ellipse cx="262.5" cy="632.4609" fill="#84BE84" rx="3" ry="3" style="stroke:#038048;stroke-width:1.0;"/><text fill="#000000" font-family="sans-serif" font-size="11" lengthAdjust="spacing" textLength="79" x="271.5" y="635.6714">hasLongOption()</text><!--MD5=[7a5148681ac0546d1b0d53a8c0f053ef]
class OptionWithDetails::Details--><rect codeLine="36" fill="#FEFECE" filter="url(#fll627y6ozrth)" height="86.4141" id="OptionWithDetails::Details" style="stroke:#A80036;stroke-width:1.5;" width="176" x="137.5" y="912"/><ellipse cx="152.5" cy="928" fill="#ADD1B2" rx="11" ry="11" style="stroke:#A80036;stroke-width:1.0;"/><path d="M156.0156,932.0313 L156.0156,934.0625 Q154.5313,934.6719 152.7031,934.6719 Q149.9844,934.6719 148.5313,932.9375 Q147.0781,931.1875 147.0781,928.0781 Q147.0781,925.0781 148.6563,923.2969 Q150.2344,921.5 152.9531,921.5 Q154.8594,921.5 156.5938,922.4219 L155.6406,924.3281 Q154.1406,923.5469 152.9531,923.5469 Q151.3438,923.5469 150.3594,924.7656 Q149.3906,925.9688 149.3906,928.0938 Q149.3906,930.3438 150.2969,931.4844 Q151.2188,932.625 152.9531,932.625 Q153.9844,932.625 156.0156,932.0313 Z " fill="#000000"/><text fill="#000000" font-family="sans-serif" font-size="12" lengthAdjust="spacing" textLength="144" x="166.5" y="932.1543">OptionWithDetails::Details</text><line style="stroke:#A80036;stroke-width:1.5;" x1="138.5" x2="312.5" y1="944" y2="944"/><polygon fill="none" points="148.5,950,152.5,954,148.5,958,144.5,954" style="stroke:#B38D22;stroke-width:1.0;"/><text fill="#000000" font-family="sans-serif" font-size="11" lengthAdjust="spacing" textLength="52" x="157.5" y="958.2104">description</text><polygon fill="none" points="148.5,962.8047,152.5,966.8047,148.5,970.8047,144.5,966.8047" style="stroke:#B38D22;stroke-width:1.0;"/><text fill="#000000" font-family="sans-serif" font-size="11" lengthAdjust="spacing" textLength="22" x="157.5" y="971.0151">type</text><polygon fill="none" points="148.5,975.6094,152.5,979.6094,148.5,983.6094,144.5,979.6094" style="stroke:#B38D22;stroke-width:1.0;"/><text fill="#000000" font-family="sans-serif" font-size="11" lengthAdjust="spacing" textLength="52" x="157.5" y="983.8198">typeName</text><line style="stroke:#A80036;stroke-width:1.5;" x1="138.5" x2="312.5" y1="990.4141" y2="990.4141"/><!--MD5=[9ec7b5d669942d91bec0f6e1feb75bb2]
class OptionWithDetails--><rect codeLine="42" fill="#FEFECE" filter="url(#fll627y6ozrth)" height="86.4141" id="OptionWithDetails" style="stroke:#A80036;stroke-width:1.5;" width="279" x="86" y="765"/><ellipse cx="171.25" cy="781" fill="#ADD1B2" rx="11" ry="11" style="stroke:#A80036;stroke-width:1.0;"/><path d="M174.7656,785.0313 L174.7656,787.0625 Q173.2813,787.6719 171.4531,787.6719 Q168.7344,787.6719 167.2813,785.9375 Q165.8281,784.1875 165.8281,781.0781 Q165.8281,778.0781 167.4063,776.2969 Q168.9844,774.5 171.7031,774.5 Q173.6094,774.5 175.3438,775.4219 L174.3906,777.3281 Q172.8906,776.5469 171.7031,776.5469 Q170.0938,776.5469 169.1094,777.7656 Q168.1406,778.9688 168.1406,781.0938 Q168.1406,783.3438 169.0469,784.4844 Q169.9688,785.625 171.7031,785.625 Q172.7344,785.625 174.7656,785.0313 Z " fill="#000000"/><text fill="#000000" font-family="sans-serif" font-size="12" lengthAdjust="spacing" textLength="100" x="191.75" y="785.1543">OptionWithDetails</text><line style="stroke:#A80036;stroke-width:1.5;" x1="87" x2="364" y1="797" y2="797"/><polygon fill="none" points="97,803,101,807,97,811,93,807" style="stroke:#B38D22;stroke-width:1.0;"/><text fill="#000000" font-family="sans-serif" font-size="11" lengthAdjust="spacing" textLength="31" x="106" y="811.2104">details</text><line style="stroke:#A80036;stroke-width:1.5;" x1="87" x2="364" y1="817.8047" y2="817.8047"/><text fill="#000000" font-family="sans-serif" font-size="11" lengthAdjust="spacing" textLength="267" x="92" y="832.0151">OptionWithDetails(option, description, type, typeName)</text><text fill="#000000" font-family="sans-serif" font-size="11" lengthAdjust="spacing" textLength="167" x="92" y="844.8198">operator&lt;(otherOptionWithDetails)</text><!--MD5=[ab9be1a3719564be5e3fae8542d48a05]
class OptionManager--><rect codeLine="50" fill="#FEFECE" filter="url(#fll627y6ozrth)" height="86.4141" id="OptionManager" style="stroke:#A80036;stroke-width:1.5;" width="293" x="547" y="7"/><ellipse cx="646.25" cy="23" fill="#ADD1B2" rx="11" ry="11" style="stroke:#A80036;stroke-width:1.0;"/><path d="M649.7656,27.0313 L649.7656,29.0625 Q648.2813,29.6719 646.4531,29.6719 Q643.7344,29.6719 642.2813,27.9375 Q640.8281,26.1875 640.8281,23.0781 Q640.8281,20.0781 642.4063,18.2969 Q643.9844,16.5 646.7031,16.5 Q648.6094,16.5 650.3438,17.4219 L649.3906,19.3281 Q647.8906,18.5469 646.7031,18.5469 Q645.0938,18.5469 644.1094,19.7656 Q643.1406,20.9688 643.1406,23.0938 Q643.1406,25.3438 644.0469,26.4844 Q644.9688,27.625 646.7031,27.625 Q647.7344,27.625 649.7656,27.0313 Z " fill="#000000"/><text fill="#000000" font-family="sans-serif" font-size="12" lengthAdjust="spacing" textLength="86" x="666.75" y="27.1543">OptionManager</text><line style="stroke:#A80036;stroke-width:1.5;" x1="548" x2="839" y1="39" y2="39"/><line style="stroke:#A80036;stroke-width:1.5;" x1="548" x2="839" y1="47" y2="47"/><ellipse cx="558" cy="58" fill="#84BE84" rx="3" ry="3" style="stroke:#038048;stroke-width:1.0;"/><text fill="#000000" font-family="sans-serif" font-size="11" lengthAdjust="spacing" textLength="267" x="567" y="61.2104">OptionManager(programDescription, onFailureCallback)</text><ellipse cx="558" cy="70.8047" fill="#84BE84" rx="3" ry="3" style="stroke:#038048;stroke-width:1.0;"/><text fill="#000000" font-family="sans-serif" font-size="11" lengthAdjust="spacing" textLength="83" x="567" y="74.0151">T defineOption(..)</text><ellipse cx="558" cy="83.6094" fill="#84BE84" rx="3" ry="3" style="stroke:#038048;stroke-width:1.0;"/><text fill="#000000" font-family="sans-serif" font-size="11" lengthAdjust="spacing" textLength="130" x="567" y="86.8198">populateDefinedOptions(..)</text><path d="M511,200.5 L511,225.6328 A0,0 0 0 0 511,225.6328 L876,225.6328 A0,0 0 0 0 876,225.6328 L876,210.5 L866,200.5 L697.5,200.5 L693.5,93.3 L689.5,200.5 L511,200.5 A0,0 0 0 0 511,200.5 " fill="#FBFB77" filter="url(#fll627y6ozrth)" style="stroke:#A80036;stroke-width:1.0;"/><path d="M866,200.5 L866,210.5 L876,210.5 L866,200.5 " fill="#FBFB77" style="stroke:#A80036;stroke-width:1.0;"/><text fill="#000000" font-family="sans-serif" font-size="13" lengthAdjust="spacing" textLength="344" x="517" y="217.5669">Used only by the macro struct builder IOX_CLI_DEFINITION</text><!--MD5=[a0649bf7f0337ec18a9f896a3be4b741]
reverse link OptionWithDetails to OptionWithDetails::Details--><path codeLine="59" d="M225.5,864.73 C225.5,880.38 225.5,897.15 225.5,911.87 " fill="none" id="OptionWithDetails-backto-OptionWithDetails::Details" style="stroke:#A80036;stroke-width:1.0;"/><polygon fill="#A80036" points="225.5,851.33,221.5,857.33,225.5,863.33,229.5,857.33,225.5,851.33" style="stroke:#A80036;stroke-width:1.0;"/><text fill="#000000" font-family="sans-serif" font-size="13" lengthAdjust="spacing" textLength="7" x="217.9422" y="871.4755">1</text><text fill="#000000" font-family="sans-serif" font-size="13" lengthAdjust="spacing" textLength="7" x="217.9422" y="900.8453">1</text><!--MD5=[12bb36036b03ed08e7013ad7cee0284d]
reverse link Option to OptionWithDetails--><path codeLine="60" d="M294.66,660.5 C276.83,698.26 258.64,736.79 245.4,764.85 " fill="none" id="Option-backto-OptionWithDetails" style="stroke:#A80036;stroke-width:1.0;"/><polygon fill="none" points="288.35,657.47,303.22,642.37,301.01,663.44,288.35,657.47" style="stroke:#A80036;stroke-width:1.0;"/><!--MD5=[63d4c1f611b5740204eb7f474ddb42de]
reverse link CommandLineOptionValue to Option--><path codeLine="62" d="M354.03,269.29 C354.41,309.52 354.95,365.38 355.42,414.86 " fill="none" id="CommandLineOptionValue-backto-Option" style="stroke:#A80036;stroke-width:1.0;"/><polygon fill="#A80036" points="353.9,256.28,349.9529,262.3149,354.0055,268.2795,357.9526,262.2446,353.9,256.28" style="stroke:#A80036;stroke-width:1.0;"/><text fill="#000000" font-family="sans-serif" font-size="13" lengthAdjust="spacing" textLength="21" x="331.2903" y="276.4175">0..n</text><text fill="#000000" font-family="sans-serif" font-size="13" lengthAdjust="spacing" textLength="7" x="348.1123" y="403.7833">1</text><!--MD5=[66aa408cfb54338f3a1de46ad149a9f9]
reverse link CommandLineOptionSet to OptionWithDetails--><path codeLine="63" d="M181.19,398.18 C191.72,495.33 211.9,681.49 220.93,764.84 " fill="none" id="CommandLineOptionSet-backto-OptionWithDetails" style="stroke:#A80036;stroke-width:1.0;"/><polygon fill="#A80036" points="179.77,385.08,176.4392,391.4758,181.0619,397.0103,184.3927,390.6145,179.77,385.08" style="stroke:#A80036;stroke-width:1.0;"/><text fill="#000000" font-family="sans-serif" font-size="13" lengthAdjust="spacing" textLength="21" x="158.0345" y="405.1677">0..n</text><text fill="#000000" font-family="sans-serif" font-size="13" lengthAdjust="spacing" textLength="7" x="212.6438" y="753.8105">1</text><!--MD5=[3394777e280b21e82721fe94825775fe]
reverse link CommandLineArgumentParser to CommandLineOptionSet--><path codeLine="65" d="M277.09,92.76 C272.57,102.65 267.82,113.18 263.5,123 C239.14,178.44 212.33,242.6 194.57,285.59 " fill="none" id="CommandLineArgumentParser-backto-CommandLineOptionSet" style="stroke:#A80036;stroke-width:1.0;"/><polygon fill="#A80036" points="282.64,80.68,276.5002,84.4619,277.6297,91.584,283.7695,87.8021,282.64,80.68" style="stroke:#A80036;stroke-width:1.0;"/><text fill="#000000" font-family="sans-serif" font-size="13" lengthAdjust="spacing" textLength="50" x="264.5" y="136.0669">borrows</text><text fill="#000000" font-family="sans-serif" font-size="13" lengthAdjust="spacing" textLength="7" x="272.2223" y="100.2959">1</text><text fill="#000000" font-family="sans-serif" font-size="13" lengthAdjust="spacing" textLength="7" x="189.7966" y="274.9367">1</text><!--MD5=[3703c70145107da4bebb6bd069f8e4b7]
reverse link CommandLineArgumentParser to CommandLineOptionValue--><path codeLine="66" d="M311.38,93.02 C319.76,116.71 330.21,146.22 338.6,169.92 " fill="none" id="CommandLineArgumentParser-backto-CommandLineOptionValue" style="stroke:#A80036;stroke-width:1.0;"/><polygon fill="#A80036" points="306.95,80.53,305.1762,87.5195,310.9459,91.8452,312.7197,84.8556,306.95,80.53" style="stroke:#A80036;stroke-width:1.0;"/><text fill="#000000" font-family="sans-serif" font-size="13" lengthAdjust="spacing" textLength="50" x="328.5" y="136.0669">contains</text><text fill="#000000" font-family="sans-serif" font-size="13" lengthAdjust="spacing" textLength="7" x="301.3834" y="100.4744">1</text><text fill="#000000" font-family="sans-serif" font-size="13" lengthAdjust="spacing" textLength="7" x="328.6675" y="158.9033">1</text></g></svg>