<?xml version="1.0" encoding="UTF-8" standalone="no"?><svg xmlns="http://www.w3.org/2000/svg" xmlns:xlink="http://www.w3.org/1999/xlink" contentScriptType="application/ecmascript" contentStyleType="text/css" height="604px" preserveAspectRatio="none" style="width:574px;height:604px;background:#EEEBDC;" version="1.1" viewBox="0 0 574 604" width="574px" zoomAndPan="magnify"><defs><filter height="300%" id="f16sunqidi2pa7" width="300%" x="-1" y="-1"><feGaussianBlur result="blurOut" stdDeviation="2.0"/><feColorMatrix in="blurOut" result="blurOut2" type="matrix" values="0 0 0 0 0 0 0 0 0 0 0 0 0 0 0 0 0 0 .4 0"/><feOffset dx="4.0" dy="4.0" in="blurOut2" result="blurOut3"/><feBlend in="SourceGraphic" in2="blurOut3" mode="normal"/></filter></defs><g><rect fill="#FFFFFF" filter="url(#f16sunqidi2pa7)" height="235.8281" style="stroke:#A80036;stroke-width:1.0;" width="10" x="244.5" y="307.3594"/><rect fill="#FFFFFF" filter="url(#f16sunqidi2pa7)" height="14" style="stroke:#A80036;stroke-width:1.0;" width="10" x="491.5" y="342.6563"/><rect fill="#FFFFFF" filter="url(#f16sunqidi2pa7)" height="14" style="stroke:#A80036;stroke-width:1.0;" width="10" x="491.5" y="385.7891"/><rect fill="#FFFFFF" filter="url(#f16sunqidi2pa7)" height="14" style="stroke:#A80036;stroke-width:1.0;" width="10" x="491.5" y="428.9219"/><rect fill="#FFFFFF" filter="url(#f16sunqidi2pa7)" height="14" style="stroke:#A80036;stroke-width:1.0;" width="10" x="491.5" y="472.0547"/><rect fill="#FFFFFF" filter="url(#f16sunqidi2pa7)" height="14" style="stroke:#A80036;stroke-width:1.0;" width="10" x="491.5" y="515.1875"/><line style="stroke:#A80036;stroke-width:1.0;stroke-dasharray:5.0,5.0;" x1="29" x2="29" y1="40.2969" y2="561.1875"/><line style="stroke:#A80036;stroke-width:1.0;stroke-dasharray:5.0,5.0;" x1="249" x2="249" y1="308.875" y2="561.1875"/><line style="stroke:#A80036;stroke-width:1.0;stroke-dasharray:5.0,5.0;" x1="496.5" x2="496.5" y1="40.2969" y2="561.1875"/><rect fill="#FEFECE" filter="url(#f16sunqidi2pa7)" height="30.2969" style="stroke:#A80036;stroke-width:1.5;" width="44" x="5" y="5"/><text fill="#000000" font-family="sans-serif" font-size="14" lengthAdjust="spacing" textLength="30" x="12" y="24.9951">User</text><rect fill="#FEFECE" filter="url(#f16sunqidi2pa7)" height="30.2969" style="stroke:#A80036;stroke-width:1.5;" width="44" x="5" y="560.1875"/><text fill="#000000" font-family="sans-serif" font-size="14" lengthAdjust="spacing" textLength="30" x="12" y="580.1826">User</text><rect fill="#FEFECE" filter="url(#f16sunqidi2pa7)" height="30.2969" style="stroke:#A80036;stroke-width:1.5;" width="101" x="197" y="560.1875"/><text fill="#000000" font-family="sans-serif" font-size="14" lengthAdjust="spacing" textLength="87" x="204" y="580.1826">UserCLIStruct</text><rect fill="#FEFECE" filter="url(#f16sunqidi2pa7)" height="30.2969" style="stroke:#A80036;stroke-width:1.5;" width="112" x="438.5" y="5"/><text fill="#000000" font-family="sans-serif" font-size="14" lengthAdjust="spacing" textLength="98" x="445.5" y="24.9951">OptionManager</text><rect fill="#FEFECE" filter="url(#f16sunqidi2pa7)" height="30.2969" style="stroke:#A80036;stroke-width:1.5;" width="112" x="438.5" y="560.1875"/><text fill="#000000" font-family="sans-serif" font-size="14" lengthAdjust="spacing" textLength="98" x="445.5" y="580.1826">OptionManager</text><rect fill="#FFFFFF" filter="url(#f16sunqidi2pa7)" height="235.8281" style="stroke:#A80036;stroke-width:1.0;" width="10" x="244.5" y="307.3594"/><rect fill="#FFFFFF" filter="url(#f16sunqidi2pa7)" height="14" style="stroke:#A80036;stroke-width:1.0;" width="10" x="491.5" y="342.6563"/><rect fill="#FFFFFF" filter="url(#f16sunqidi2pa7)" height="14" style="stroke:#A80036;stroke-width:1.0;" width="10" x="491.5" y="385.7891"/><rect fill="#FFFFFF" filter="url(#f16sunqidi2pa7)" height="14" style="stroke:#A80036;stroke-width:1.0;" width="10" x="491.5" y="428.9219"/><rect fill="#FFFFFF" filter="url(#f16sunqidi2pa7)" height="14" style="stroke:#A80036;stroke-width:1.0;" width="10" x="491.5" y="472.0547"/><rect fill="#FFFFFF" filter="url(#f16sunqidi2pa7)" height="14" style="stroke:#A80036;stroke-width:1.0;" width="10" x="491.5" y="515.1875"/><rect fill="#EEEEEE" filter="url(#f16sunqidi2pa7)" height="3" style="stroke:#EEEEEE;stroke-width:1.0;" width="567" x="0" y="70.8633"/><line style="stroke:#000000;stroke-width:1.0;" x1="0" x2="567" y1="70.8633" y2="70.8633"/><line style="stroke:#000000;stroke-width:1.0;" x1="0" x2="567" y1="73.8633" y2="73.8633"/><rect fill="#EEEEEE" filter="url(#f16sunqidi2pa7)" height="23.1328" style="stroke:#000000;stroke-width:2.0;" width="490" x="38.5" y="60.2969"/><text fill="#000000" font-family="sans-serif" font-size="13" font-weight="bold" lengthAdjust="spacing" textLength="473" x="44.5" y="76.3638">Create a struct named UserCLIStruct to store command line option values</text><rect fill="#FBFB77" filter="url(#f16sunqidi2pa7)" height="23" style="stroke:#A80036;stroke-width:1.0;" width="342" x="34" y="98.4297"/><text fill="#000000" font-family="sans-serif" font-size="13" lengthAdjust="spacing" textLength="334" x="38" y="114.4966">IOX_CLI_DEFINITION(UserCLIStruct, ProgramDescription)</text><rect fill="#EEEEEE" filter="url(#f16sunqidi2pa7)" height="3" style="stroke:#EEEEEE;stroke-width:1.0;" width="567" x="0" y="147.1289"/><line style="stroke:#000000;stroke-width:1.0;" x1="0" x2="567" y1="147.1289" y2="147.1289"/><line style="stroke:#000000;stroke-width:1.0;" x1="0" x2="567" y1="150.1289" y2="150.1289"/><rect fill="#EEEEEE" filter="url(#f16sunqidi2pa7)" height="23.1328" style="stroke:#000000;stroke-width:2.0;" width="340" x="113.5" y="136.5625"/><text fill="#000000" font-family="sans-serif" font-size="13" font-weight="bold" lengthAdjust="spacing" textLength="323" x="119.5" y="152.6294">Define options which are stored in struct members</text><rect fill="#FBFB77" filter="url(#f16sunqidi2pa7)" height="53" style="stroke:#A80036;stroke-width:1.0;" width="150" x="34" y="174.6953"/><text fill="#000000" font-family="sans-serif" font-size="13" lengthAdjust="spacing" textLength="140" x="38" y="190.7622">IOX_CLI_OPTIONAL(a ...)</text><text fill="#000000" font-family="sans-serif" font-size="13" lengthAdjust="spacing" textLength="142" x="38" y="205.895">IOX_CLI_REQUIRED(b ...)</text><text fill="#000000" font-family="sans-serif" font-size="13" lengthAdjust="spacing" textLength="124" x="38" y="221.0278">IOX_CLI_SWITCH(c ...)</text><rect fill="#EEEEEE" filter="url(#f16sunqidi2pa7)" height="3" style="stroke:#EEEEEE;stroke-width:1.0;" width="567" x="0" y="253.6602"/><line style="stroke:#000000;stroke-width:1.0;" x1="0" x2="567" y1="253.6602" y2="253.6602"/><line style="stroke:#000000;stroke-width:1.0;" x1="0" x2="567" y1="256.6602" y2="256.6602"/><rect fill="#EEEEEE" filter="url(#f16sunqidi2pa7)" height="23.1328" style="stroke:#000000;stroke-width:2.0;" width="543" x="12" y="243.0938"/><text fill="#000000" font-family="sans-serif" font-size="13" font-weight="bold" lengthAdjust="spacing" textLength="526" x="18" y="259.1606">Instantiate UserCLIStruct, parse command line arguments and populate members</text><polygon fill="#A80036" points="185,293.3594,195,297.3594,185,301.3594,189,297.3594" style="stroke:#A80036;stroke-width:1.0;"/><line style="stroke:#A80036;stroke-width:1.0;" x1="29" x2="191" y1="297.3594" y2="297.3594"/><text fill="#000000" font-family="sans-serif" font-size="13" lengthAdjust="spacing" textLength="144" x="36" y="292.2935">UserCLIStruct(argc, argv)</text><rect fill="#FEFECE" filter="url(#f16sunqidi2pa7)" height="30.2969" style="stroke:#A80036;stroke-width:1.5;" width="101" x="197" y="276.2266"/><text fill="#000000" font-family="sans-serif" font-size="14" lengthAdjust="spacing" textLength="87" x="204" y="296.2217">UserCLIStruct</text><polygon fill="#A80036" points="479.5,338.6563,489.5,342.6563,479.5,346.6563,483.5,342.6563" style="stroke:#A80036;stroke-width:1.0;"/><line style="stroke:#A80036;stroke-width:1.0;" x1="254.5" x2="485.5" y1="342.6563" y2="342.6563"/><text fill="#000000" font-family="sans-serif" font-size="13" lengthAdjust="spacing" textLength="218" x="261.5" y="337.5903">OptionManager(ProgramDescription)</text><polygon fill="#A80036" points="265.5,352.6563,255.5,356.6563,265.5,360.6563,261.5,356.6563" style="stroke:#A80036;stroke-width:1.0;"/><line style="stroke:#A80036;stroke-width:1.0;stroke-dasharray:2.0,2.0;" x1="259.5" x2="495.5" y1="356.6563" y2="356.6563"/><polygon fill="#A80036" points="479.5,381.7891,489.5,385.7891,479.5,389.7891,483.5,385.7891" style="stroke:#A80036;stroke-width:1.0;"/><line style="stroke:#A80036;stroke-width:1.0;" x1="254.5" x2="485.5" y1="385.7891" y2="385.7891"/><text fill="#000000" font-family="sans-serif" font-size="13" lengthAdjust="spacing" textLength="105" x="261.5" y="380.7231">defineOption(a ...)</text><polygon fill="#A80036" points="265.5,395.7891,255.5,399.7891,265.5,403.7891,261.5,399.7891" style="stroke:#A80036;stroke-width:1.0;"/><line style="stroke:#A80036;stroke-width:1.0;stroke-dasharray:2.0,2.0;" x1="259.5" x2="495.5" y1="399.7891" y2="399.7891"/><polygon fill="#A80036" points="479.5,424.9219,489.5,428.9219,479.5,432.9219,483.5,428.9219" style="stroke:#A80036;stroke-width:1.0;"/><line style="stroke:#A80036;stroke-width:1.0;" x1="254.5" x2="485.5" y1="428.9219" y2="428.9219"/><text fill="#000000" font-family="sans-serif" font-size="13" lengthAdjust="spacing" textLength="106" x="261.5" y="423.856">defineOption(b ...)</text><polygon fill="#A80036" points="265.5,438.9219,255.5,442.9219,265.5,446.9219,261.5,442.9219" style="stroke:#A80036;stroke-width:1.0;"/><line style="stroke:#A80036;stroke-width:1.0;stroke-dasharray:2.0,2.0;" x1="259.5" x2="495.5" y1="442.9219" y2="442.9219"/><polygon fill="#A80036" points="479.5,468.0547,489.5,472.0547,479.5,476.0547,483.5,472.0547" style="stroke:#A80036;stroke-width:1.0;"/><line style="stroke:#A80036;stroke-width:1.0;" x1="254.5" x2="485.5" y1="472.0547" y2="472.0547"/><text fill="#000000" font-family="sans-serif" font-size="13" lengthAdjust="spacing" textLength="104" x="261.5" y="466.9888">defineOption(c ...)</text><polygon fill="#A80036" points="265.5,482.0547,255.5,486.0547,265.5,490.0547,261.5,486.0547" style="stroke:#A80036;stroke-width:1.0;"/><line style="stroke:#A80036;stroke-width:1.0;stroke-dasharray:2.0,2.0;" x1="259.5" x2="495.5" y1="486.0547" y2="486.0547"/><polygon fill="#A80036" points="479.5,511.1875,489.5,515.1875,479.5,519.1875,483.5,515.1875" style="stroke:#A80036;stroke-width:1.0;"/><line style="stroke:#A80036;stroke-width:1.0;" x1="254.5" x2="485.5" y1="515.1875" y2="515.1875"/><text fill="#000000" font-family="sans-serif" font-size="13" lengthAdjust="spacing" textLength="154" x="261.5" y="510.1216">populateDefinedOptions()</text><polygon fill="#A80036" points="265.5,525.1875,255.5,529.1875,265.5,533.1875,261.5,529.1875" style="stroke:#A80036;stroke-width:1.0;"/><line style="stroke:#A80036;stroke-width:1.0;stroke-dasharray:2.0,2.0;" x1="259.5" x2="495.5" y1="529.1875" y2="529.1875"/><polygon fill="#A80036" points="40,539.1875,30,543.1875,40,547.1875,36,543.1875" style="stroke:#A80036;stroke-width:1.0;"/><line style="stroke:#A80036;stroke-width:1.0;stroke-dasharray:2.0,2.0;" x1="34" x2="248.5" y1="543.1875" y2="543.1875"/></g></svg>