<?xml version="1.0" encoding="UTF-8" standalone="no"?><svg xmlns="http://www.w3.org/2000/svg" xmlns:xlink="http://www.w3.org/1999/xlink" contentScriptType="application/ecmascript" contentStyleType="text/css" height="604px" preserveAspectRatio="none" style="width:658px;height:604px;background:#EEEBDC;" version="1.1" viewBox="0 0 658 604" width="658px" zoomAndPan="magnify"><defs><filter height="300%" id="f16sunqidi2pa7" width="300%" x="-1" y="-1"><feGaussianBlur result="blurOut" stdDeviation="2.0"/><feColorMatrix in="blurOut" result="blurOut2" type="matrix" values="0 0 0 0 0 0 0 0 0 0 0 0 0 0 0 0 0 0 .4 0"/><feOffset dx="4.0" dy="4.0" in="blurOut2" result="blurOut3"/><feBlend in="SourceGraphic" in2="blurOut3" mode="normal"/></filter></defs><g><rect fill="#FFFFFF" filter="url(#f16sunqidi2pa7)" height="235.8281" style="stroke:#A80036;stroke-width:1.0;" width="10" x="266.5" y="307.3594"/><rect fill="#FFFFFF" filter="url(#f16sunqidi2pa7)" height="14" style="stroke:#A80036;stroke-width:1.0;" width="10" x="530.5" y="342.6563"/><rect fill="#FFFFFF" filter="url(#f16sunqidi2pa7)" height="14" style="stroke:#A80036;stroke-width:1.0;" width="10" x="530.5" y="385.7891"/><rect fill="#FFFFFF" filter="url(#f16sunqidi2pa7)" height="14" style="stroke:#A80036;stroke-width:1.0;" width="10" x="530.5" y="428.9219"/><rect fill="#FFFFFF" filter="url(#f16sunqidi2pa7)" height="14" style="stroke:#A80036;stroke-width:1.0;" width="10" x="530.5" y="472.0547"/><rect fill="#FFFFFF" filter="url(#f16sunqidi2pa7)" height="14" style="stroke:#A80036;stroke-width:1.0;" width="10" x="530.5" y="515.1875"/><line style="stroke:#A80036;stroke-width:1.0;stroke-dasharray:5.0,5.0;" x1="30" x2="30" y1="40.2969" y2="561.1875"/><line style="stroke:#A80036;stroke-width:1.0;stroke-dasharray:5.0,5.0;" x1="271" x2="271" y1="308.875" y2="561.1875"/><line style="stroke:#A80036;stroke-width:1.0;stroke-dasharray:5.0,5.0;" x1="535.5" x2="535.5" y1="40.2969" y2="561.1875"/><rect fill="#FEFECE" filter="url(#f16sunqidi2pa7)" height="30.2969" style="stroke:#A80036;stroke-width:1.5;" width="46" x="5" y="5"/><text fill="#000000" font-family="sans-serif" font-size="14" lengthAdjust="spacing" textLength="32" x="12" y="24.9951">User</text><rect fill="#FEFECE" filter="url(#f16sunqidi2pa7)" height="30.2969" style="stroke:#A80036;stroke-width:1.5;" width="46" x="5" y="560.1875"/><text fill="#000000" font-family="sans-serif" font-size="14" lengthAdjust="spacing" textLength="32" x="12" y="580.1826">User</text><rect fill="#FEFECE" filter="url(#f16sunqidi2pa7)" height="30.2969" style="stroke:#A80036;stroke-width:1.5;" width="107" x="216" y="560.1875"/><text fill="#000000" font-family="sans-serif" font-size="14" lengthAdjust="spacing" textLength="93" x="223" y="580.1826">UserCLIStruct</text><rect fill="#FEFECE" filter="url(#f16sunqidi2pa7)" height="30.2969" style="stroke:#A80036;stroke-width:1.5;" width="120" x="473.5" y="5"/><text fill="#000000" font-family="sans-serif" font-size="14" lengthAdjust="spacing" textLength="106" x="480.5" y="24.9951">OptionManager</text><rect fill="#FEFECE" filter="url(#f16sunqidi2pa7)" height="30.2969" style="stroke:#A80036;stroke-width:1.5;" width="120" x="473.5" y="560.1875"/><text fill="#000000" font-family="sans-serif" font-size="14" lengthAdjust="spacing" textLength="106" x="480.5" y="580.1826">OptionManager</text><rect fill="#FFFFFF" filter="url(#f16sunqidi2pa7)" height="235.8281" style="stroke:#A80036;stroke-width:1.0;" width="10" x="266.5" y="307.3594"/><rect fill="#FFFFFF" filter="url(#f16sunqidi2pa7)" height="14" style="stroke:#A80036;stroke-width:1.0;" width="10" x="530.5" y="342.6563"/><rect fill="#FFFFFF" filter="url(#f16sunqidi2pa7)" height="14" style="stroke:#A80036;stroke-width:1.0;" width="10" x="530.5" y="385.7891"/><rect fill="#FFFFFF" filter="url(#f16sunqidi2pa7)" height="14" style="stroke:#A80036;stroke-width:1.0;" width="10" x="530.5" y="428.9219"/><rect fill="#FFFFFF" filter="url(#f16sunqidi2pa7)" height="14" style="stroke:#A80036;stroke-width:1.0;" width="10" x="530.5" y="472.0547"/><rect fill="#FFFFFF" filter="url(#f16sunqidi2pa7)" height="14" style="stroke:#A80036;stroke-width:1.0;" width="10" x="530.5" y="515.1875"/><rect fill="#EEEEEE" filter="url(#f16sunqidi2pa7)" height="3" style="stroke:#EEEEEE;stroke-width:1.0;" width="651" x="0" y="70.8633"/><line style="stroke:#000000;stroke-width:1.0;" x1="0" x2="651" y1="70.8633" y2="70.8633"/><line style="stroke:#000000;stroke-width:1.0;" x1="0" x2="651" y1="73.8633" y2="73.8633"/><rect fill="#EEEEEE" filter="url(#f16sunqidi2pa7)" height="23.1328" style="stroke:#000000;stroke-width:2.0;" width="566" x="42.5" y="60.2969"/><text fill="#000000" font-family="sans-serif" font-size="13" font-weight="bold" lengthAdjust="spacing" textLength="547" x="48.5" y="76.3638">Create a struct named UserCLIStruct to store command line option values</text><rect fill="#FBFB77" filter="url(#f16sunqidi2pa7)" height="23" style="stroke:#A80036;stroke-width:1.0;" width="366" x="35" y="98.4297"/><text fill="#000000" font-family="sans-serif" font-size="13" lengthAdjust="spacing" textLength="358" x="39" y="114.4966">IOX_CLI_DEFINITION(UserCLIStruct, ProgramDescription)</text><rect fill="#EEEEEE" filter="url(#f16sunqidi2pa7)" height="3" style="stroke:#EEEEEE;stroke-width:1.0;" width="651" x="0" y="147.1289"/><line style="stroke:#000000;stroke-width:1.0;" x1="0" x2="651" y1="147.1289" y2="147.1289"/><line style="stroke:#000000;stroke-width:1.0;" x1="0" x2="651" y1="150.1289" y2="150.1289"/><rect fill="#EEEEEE" filter="url(#f16sunqidi2pa7)" height="23.1328" style="stroke:#000000;stroke-width:2.0;" width="397" x="127" y="136.5625"/><text fill="#000000" font-family="sans-serif" font-size="13" font-weight="bold" lengthAdjust="spacing" textLength="378" x="133" y="152.6294">Define options which are stored in struct members</text><rect fill="#FBFB77" filter="url(#f16sunqidi2pa7)" height="53" style="stroke:#A80036;stroke-width:1.0;" width="161" x="35" y="174.6953"/><text fill="#000000" font-family="sans-serif" font-size="13" lengthAdjust="spacing" textLength="152" x="39" y="190.7622">IOX_CLI_OPTIONAL(a ...)</text><text fill="#000000" font-family="sans-serif" font-size="13" lengthAdjust="spacing" textLength="153" x="39" y="205.895">IOX_CLI_REQUIRED(b ...)</text><text fill="#000000" font-family="sans-serif" font-size="13" lengthAdjust="spacing" textLength="136" x="39" y="221.0278">IOX_CLI_SWITCH(c ...)</text><rect fill="#EEEEEE" filter="url(#f16sunqidi2pa7)" height="3" style="stroke:#EEEEEE;stroke-width:1.0;" width="651" x="0" y="253.6602"/><line style="stroke:#000000;stroke-width:1.0;" x1="0" x2="651" y1="253.6602" y2="253.6602"/><line style="stroke:#000000;stroke-width:1.0;" x1="0" x2="651" y1="256.6602" y2="256.6602"/><rect fill="#EEEEEE" filter="url(#f16sunqidi2pa7)" height="23.1328" style="stroke:#000000;stroke-width:2.0;" width="627" x="12" y="243.0938"/><text fill="#000000" font-family="sans-serif" font-size="13" font-weight="bold" lengthAdjust="spacing" textLength="608" x="18" y="259.1606">Instantiate UserCLIStruct, parse command line arguments and populate members</text><polygon fill="#A80036" points="204,293.3594,214,297.3594,204,301.3594,208,297.3594" style="stroke:#A80036;stroke-width:1.0;"/><line style="stroke:#A80036;stroke-width:1.0;" x1="30" x2="210" y1="297.3594" y2="297.3594"/><text fill="#000000" font-family="sans-serif" font-size="13" lengthAdjust="spacing" textLength="162" x="37" y="292.2935">UserCLIStruct(argc, argv)</text><rect fill="#FEFECE" filter="url(#f16sunqidi2pa7)" height="30.2969" style="stroke:#A80036;stroke-width:1.5;" width="107" x="216" y="276.2266"/><text fill="#000000" font-family="sans-serif" font-size="14" lengthAdjust="spacing" textLength="93" x="223" y="296.2217">UserCLIStruct</text><polygon fill="#A80036" points="518.5,338.6563,528.5,342.6563,518.5,346.6563,522.5,342.6563" style="stroke:#A80036;stroke-width:1.0;"/><line style="stroke:#A80036;stroke-width:1.0;" x1="276.5" x2="524.5" y1="342.6563" y2="342.6563"/><text fill="#000000" font-family="sans-serif" font-size="13" lengthAdjust="spacing" textLength="235" x="283.5" y="337.5903">OptionManager(ProgramDescription)</text><polygon fill="#A80036" points="287.5,352.6563,277.5,356.6563,287.5,360.6563,283.5,356.6563" style="stroke:#A80036;stroke-width:1.0;"/><line style="stroke:#A80036;stroke-width:1.0;stroke-dasharray:2.0,2.0;" x1="281.5" x2="534.5" y1="356.6563" y2="356.6563"/><polygon fill="#A80036" points="518.5,381.7891,528.5,385.7891,518.5,389.7891,522.5,385.7891" style="stroke:#A80036;stroke-width:1.0;"/><line style="stroke:#A80036;stroke-width:1.0;" x1="276.5" x2="524.5" y1="385.7891" y2="385.7891"/><text fill="#000000" font-family="sans-serif" font-size="13" lengthAdjust="spacing" textLength="115" x="283.5" y="380.7231">defineOption(a ...)</text><polygon fill="#A80036" points="287.5,395.7891,277.5,399.7891,287.5,403.7891,283.5,399.7891" style="stroke:#A80036;stroke-width:1.0;"/><line style="stroke:#A80036;stroke-width:1.0;stroke-dasharray:2.0,2.0;" x1="281.5" x2="534.5" y1="399.7891" y2="399.7891"/><polygon fill="#A80036" points="518.5,424.9219,528.5,428.9219,518.5,432.9219,522.5,428.9219" style="stroke:#A80036;stroke-width:1.0;"/><line style="stroke:#A80036;stroke-width:1.0;" x1="276.5" x2="524.5" y1="428.9219" y2="428.9219"/><text fill="#000000" font-family="sans-serif" font-size="13" lengthAdjust="spacing" textLength="115" x="283.5" y="423.856">defineOption(b ...)</text><polygon fill="#A80036" points="287.5,438.9219,277.5,442.9219,287.5,446.9219,283.5,442.9219" style="stroke:#A80036;stroke-width:1.0;"/><line style="stroke:#A80036;stroke-width:1.0;stroke-dasharray:2.0,2.0;" x1="281.5" x2="534.5" y1="442.9219" y2="442.9219"/><polygon fill="#A80036" points="518.5,468.0547,528.5,472.0547,518.5,476.0547,522.5,472.0547" style="stroke:#A80036;stroke-width:1.0;"/><line style="stroke:#A80036;stroke-width:1.0;" x1="276.5" x2="524.5" y1="472.0547" y2="472.0547"/><text fill="#000000" font-family="sans-serif" font-size="13" lengthAdjust="spacing" textLength="114" x="283.5" y="466.9888">defineOption(c ...)</text><polygon fill="#A80036" points="287.5,482.0547,277.5,486.0547,287.5,490.0547,283.5,486.0547" style="stroke:#A80036;stroke-width:1.0;"/><line style="stroke:#A80036;stroke-width:1.0;stroke-dasharray:2.0,2.0;" x1="281.5" x2="534.5" y1="486.0547" y2="486.0547"/><polygon fill="#A80036" points="518.5,511.1875,528.5,515.1875,518.5,519.1875,522.5,515.1875" style="stroke:#A80036;stroke-width:1.0;"/><line style="stroke:#A80036;stroke-width:1.0;" x1="276.5" x2="524.5" y1="515.1875" y2="515.1875"/><text fill="#000000" font-family="sans-serif" font-size="13" lengthAdjust="spacing" textLength="164" x="283.5" y="510.1216">populateDefinedOptions()</text><polygon fill="#A80036" points="287.5,525.1875,277.5,529.1875,287.5,533.1875,283.5,529.1875" style="stroke:#A80036;stroke-width:1.0;"/><line style="stroke:#A80036;stroke-width:1.0;stroke-dasharray:2.0,2.0;" x1="281.5" x2="534.5" y1="529.1875" y2="529.1875"/><polygon fill="#A80036" points="41,539.1875,31,543.1875,41,547.1875,37,543.1875" style="stroke:#A80036;stroke-width:1.0;"/><line style="stroke:#A80036;stroke-width:1.0;stroke-dasharray:2.0,2.0;" x1="35" x2="270.5" y1="543.1875" y2="543.1875"/></g></svg>