<?xml version="1.0" encoding="UTF-8" standalone="no"?><svg xmlns="http://www.w3.org/2000/svg" xmlns:xlink="http://www.w3.org/1999/xlink" contentScriptType="application/ecmascript" contentStyleType="text/css" height="301px" preserveAspectRatio="none" style="width:884px;height:301px;background:#EEEBDC;" version="1.1" viewBox="0 0 884 301" width="884px" zoomAndPan="magnify"><defs><filter height="300%" id="f13coi4pcan2vw" width="300%" x="-1" y="-1"><feGaussianBlur result="blurOut" stdDeviation="2.0"/><feColorMatrix in="blurOut" result="blurOut2" type="matrix" values="0 0 0 0 0 0 0 0 0 0 0 0 0 0 0 0 0 0 .4 0"/><feOffset dx="4.0" dy="4.0" in="blurOut2" result="blurOut3"/><feBlend in="SourceGraphic" in2="blurOut3" mode="normal"/></filter></defs><g><!--MD5=[7ba86efbd0c950b29d731e7fdecdb02b]
class CommandLineOptionSet--><rect codeLine="2" fill="#FEFECE" filter="url(#f13coi4pcan2vw)" height="99.2188" id="CommandLineOptionSet" style="stroke:#A80036;stroke-width:1.5;" width="335" x="7" y="7"/><ellipse cx="102.75" cy="23" fill="#ADD1B2" rx="11" ry="11" style="stroke:#A80036;stroke-width:1.0;"/><path d="M106.2656,27.0313 L106.2656,29.0625 Q104.7813,29.6719 102.9531,29.6719 Q100.2344,29.6719 98.7813,27.9375 Q97.3281,26.1875 97.3281,23.0781 Q97.3281,20.0781 98.9063,18.2969 Q100.4844,16.5 103.2031,16.5 Q105.1094,16.5 106.8438,17.4219 L105.8906,19.3281 Q104.3906,18.5469 103.2031,18.5469 Q101.5938,18.5469 100.6094,19.7656 Q99.6406,20.9688 99.6406,23.0938 Q99.6406,25.3438 100.5469,26.4844 Q101.4688,27.625 103.2031,27.625 Q104.2344,27.625 106.2656,27.0313 Z " fill="#000000"/><text fill="#000000" font-family="sans-serif" font-size="12" lengthAdjust="spacing" textLength="135" x="123.25" y="27.1543">CommandLineOptionSet</text><line style="stroke:#A80036;stroke-width:1.5;" x1="8" x2="341" y1="39" y2="39"/><line style="stroke:#A80036;stroke-width:1.5;" x1="8" x2="341" y1="47" y2="47"/><ellipse cx="18" cy="58" fill="#84BE84" rx="3" ry="3" style="stroke:#038048;stroke-width:1.0;"/><text fill="#000000" font-family="sans-serif" font-size="11" lengthAdjust="spacing" textLength="309" x="27" y="61.2104">CommandLineOptionSet(programDescription, onFailureCallback)</text><ellipse cx="18" cy="70.8047" fill="#84BE84" rx="3" ry="3" style="stroke:#038048;stroke-width:1.0;"/><text fill="#000000" font-family="sans-serif" font-size="11" lengthAdjust="spacing" textLength="61" x="27" y="74.0151">addSwitch(..)</text><ellipse cx="18" cy="83.6094" fill="#84BE84" rx="3" ry="3" style="stroke:#038048;stroke-width:1.0;"/><text fill="#000000" font-family="sans-serif" font-size="11" lengthAdjust="spacing" textLength="63" x="27" y="86.8198">addOption(..)</text><ellipse cx="18" cy="96.4141" fill="#84BE84" rx="3" ry="3" style="stroke:#038048;stroke-width:1.0;"/><text fill="#000000" font-family="sans-serif" font-size="11" lengthAdjust="spacing" textLength="73" x="27" y="99.6245">addRequired(..)</text><!--MD5=[06dc4554dfd8144aebd798b05fd3539c]
class CommandLineValue--><rect codeLine="9" fill="#FEFECE" filter="url(#f13coi4pcan2vw)" height="86.4141" id="CommandLineValue" style="stroke:#A80036;stroke-width:1.5;" width="165" x="377" y="13.5"/><ellipse cx="401.9" cy="29.5" fill="#ADD1B2" rx="11" ry="11" style="stroke:#A80036;stroke-width:1.0;"/><path d="M405.4156,33.5313 L405.4156,35.5625 Q403.9313,36.1719 402.1031,36.1719 Q399.3844,36.1719 397.9313,34.4375 Q396.4781,32.6875 396.4781,29.5781 Q396.4781,26.5781 398.0563,24.7969 Q399.6344,23 402.3531,23 Q404.2594,23 405.9938,23.9219 L405.0406,25.8281 Q403.5406,25.0469 402.3531,25.0469 Q400.7438,25.0469 399.7594,26.2656 Q398.7906,27.4688 398.7906,29.5938 Q398.7906,31.8438 399.6969,32.9844 Q400.6188,34.125 402.3531,34.125 Q403.3844,34.125 405.4156,33.5313 Z " fill="#000000"/><text fill="#000000" font-family="sans-serif" font-size="12" lengthAdjust="spacing" textLength="111" x="418.1" y="33.6543">CommandLineValue</text><line style="stroke:#A80036;stroke-width:1.5;" x1="378" x2="541" y1="45.5" y2="45.5"/><line style="stroke:#A80036;stroke-width:1.5;" x1="378" x2="541" y1="53.5" y2="53.5"/><ellipse cx="388" cy="64.5" fill="#84BE84" rx="3" ry="3" style="stroke:#038048;stroke-width:1.0;"/><text fill="#000000" font-family="sans-serif" font-size="11" lengthAdjust="spacing" textLength="90" x="397" y="67.7104">T get(optionName)</text><ellipse cx="388" cy="77.3047" fill="#84BE84" rx="3" ry="3" style="stroke:#038048;stroke-width:1.0;"/><text fill="#000000" font-family="sans-serif" font-size="11" lengthAdjust="spacing" textLength="106" x="397" y="80.5151">bool has(optionName)</text><ellipse cx="388" cy="90.1094" fill="#84BE84" rx="3" ry="3" style="stroke:#038048;stroke-width:1.0;"/><text fill="#000000" font-family="sans-serif" font-size="11" lengthAdjust="spacing" textLength="139" x="397" y="93.3198">BinaryName_t binaryName()</text><!--MD5=[2ab591c68ec5c8c322c776c91b207122]
class CommandLineArgumentParser--><rect codeLine="15" fill="#FEFECE" filter="url(#f13coi4pcan2vw)" height="60.8047" id="CommandLineArgumentParser" style="stroke:#A80036;stroke-width:1.5;" width="290" x="171.5" y="227"/><ellipse cx="228.25" cy="243" fill="#ADD1B2" rx="11" ry="11" style="stroke:#A80036;stroke-width:1.0;"/><path d="M231.7656,247.0313 L231.7656,249.0625 Q230.2813,249.6719 228.4531,249.6719 Q225.7344,249.6719 224.2813,247.9375 Q222.8281,246.1875 222.8281,243.0781 Q222.8281,240.0781 224.4063,238.2969 Q225.9844,236.5 228.7031,236.5 Q230.6094,236.5 232.3438,237.4219 L231.3906,239.3281 Q229.8906,238.5469 228.7031,238.5469 Q227.0938,238.5469 226.1094,239.7656 Q225.1406,240.9688 225.1406,243.0938 Q225.1406,245.3438 226.0469,246.4844 Q226.9688,247.625 228.7031,247.625 Q229.7344,247.625 231.7656,247.0313 Z " fill="#000000"/><text fill="#000000" font-family="sans-serif" font-size="12" lengthAdjust="spacing" textLength="168" x="248.75" y="247.1543">CommandLineArgumentParser</text><line style="stroke:#A80036;stroke-width:1.5;" x1="172.5" x2="460.5" y1="259" y2="259"/><line style="stroke:#A80036;stroke-width:1.5;" x1="172.5" x2="460.5" y1="267" y2="267"/><ellipse cx="182.5" cy="278" fill="#84BE84" rx="3" ry="3" style="stroke:#038048;stroke-width:1.0;"/><text fill="#000000" font-family="sans-serif" font-size="11" lengthAdjust="spacing" textLength="264" x="191.5" y="281.2104">CommandLineValue parse(CommandLineOptionSet, ..)</text><!--MD5=[ab9be1a3719564be5e3fae8542d48a05]
class OptionManager--><rect codeLine="22" fill="#FEFECE" filter="url(#f13coi4pcan2vw)" height="86.4141" id="OptionManager" style="stroke:#A80036;stroke-width:1.5;" width="293" x="577" y="13.5"/><ellipse cx="676.25" cy="29.5" fill="#ADD1B2" rx="11" ry="11" style="stroke:#A80036;stroke-width:1.0;"/><path d="M679.7656,33.5313 L679.7656,35.5625 Q678.2813,36.1719 676.4531,36.1719 Q673.7344,36.1719 672.2813,34.4375 Q670.8281,32.6875 670.8281,29.5781 Q670.8281,26.5781 672.4063,24.7969 Q673.9844,23 676.7031,23 Q678.6094,23 680.3438,23.9219 L679.3906,25.8281 Q677.8906,25.0469 676.7031,25.0469 Q675.0938,25.0469 674.1094,26.2656 Q673.1406,27.4688 673.1406,29.5938 Q673.1406,31.8438 674.0469,32.9844 Q674.9688,34.125 676.7031,34.125 Q677.7344,34.125 679.7656,33.5313 Z " fill="#000000"/><text fill="#000000" font-family="sans-serif" font-size="12" lengthAdjust="spacing" textLength="86" x="696.75" y="33.6543">OptionManager</text><line style="stroke:#A80036;stroke-width:1.5;" x1="578" x2="869" y1="45.5" y2="45.5"/><line style="stroke:#A80036;stroke-width:1.5;" x1="578" x2="869" y1="53.5" y2="53.5"/><ellipse cx="588" cy="64.5" fill="#84BE84" rx="3" ry="3" style="stroke:#038048;stroke-width:1.0;"/><text fill="#000000" font-family="sans-serif" font-size="11" lengthAdjust="spacing" textLength="267" x="597" y="67.7104">OptionManager(programDescription, onFailureCallback)</text><ellipse cx="588" cy="77.3047" fill="#84BE84" rx="3" ry="3" style="stroke:#038048;stroke-width:1.0;"/><text fill="#000000" font-family="sans-serif" font-size="11" lengthAdjust="spacing" textLength="83" x="597" y="80.5151">T defineOption(..)</text><ellipse cx="588" cy="90.1094" fill="#84BE84" rx="3" ry="3" style="stroke:#038048;stroke-width:1.0;"/><text fill="#000000" font-family="sans-serif" font-size="11" lengthAdjust="spacing" textLength="130" x="597" y="93.3198">populateDefinedOptions(..)</text><!--MD5=[4e76dd6b46218ceaef802815791db681]
reverse link CommandLineOptionSet to CommandLineArgumentParser--><path codeLine="19" d="M221.1,122.8 C246.15,157.91 275.81,199.48 295.33,226.84 " fill="none" id="CommandLineOptionSet-backto-CommandLineArgumentParser" style="stroke:#A80036;stroke-width:1.0;"/><polygon fill="none" points="215.16,126.53,209.24,106.18,226.55,118.4,215.16,126.53" style="stroke:#A80036;stroke-width:1.0;"/><!--MD5=[66715a7e86907ca44e416b5bfcce00ae]
reverse link CommandLineValue to CommandLineArgumentParser--><path codeLine="20" d="M417.29,116.24 C391.13,152.65 358.64,197.86 337.74,226.94 " fill="none" id="CommandLineValue-backto-CommandLineArgumentParser" style="stroke:#A80036;stroke-width:1.0;"/><polygon fill="none" points="411.82,111.86,429.17,99.7,423.19,120.03,411.82,111.86" style="stroke:#A80036;stroke-width:1.0;"/></g></svg>