<?xml version="1.0" encoding="UTF-8" standalone="no"?><svg xmlns="http://www.w3.org/2000/svg" xmlns:xlink="http://www.w3.org/1999/xlink" contentScriptType="application/ecmascript" contentStyleType="text/css" height="524px" preserveAspectRatio="none" style="width:901px;height:524px;background:#EEEBDC;" version="1.1" viewBox="0 0 901 524" width="901px" zoomAndPan="magnify"><defs><filter height="300%" id="fd2rt3wbubgzu" width="300%" x="-1" y="-1"><feGaussianBlur result="blurOut" stdDeviation="2.0"/><feColorMatrix in="blurOut" result="blurOut2" type="matrix" values="0 0 0 0 0 0 0 0 0 0 0 0 0 0 0 0 0 0 .4 0"/><feOffset dx="4.0" dy="4.0" in="blurOut2" result="blurOut3"/><feBlend in="SourceGraphic" in2="blurOut3" mode="normal"/></filter></defs><g><rect fill="#FFFFFF" filter="url(#fd2rt3wbubgzu)" height="357.4609" style="stroke:#A80036;stroke-width:1.0;" width="10" x="382" y="114.5625"/><rect fill="#FFFFFF" filter="url(#fd2rt3wbubgzu)" height="256.0625" style="stroke:#A80036;stroke-width:1.0;" width="10" x="387" y="215.9609"/><rect fill="#FFFFFF" filter="url(#fd2rt3wbubgzu)" height="197.7969" style="stroke:#A80036;stroke-width:1.0;" width="10" x="392" y="274.2266"/><rect fill="#FFFFFF" filter="url(#fd2rt3wbubgzu)" height="139.5313" style="stroke:#A80036;stroke-width:1.0;" width="10" x="397" y="332.4922"/><rect fill="#FFFFFF" filter="url(#fd2rt3wbubgzu)" height="328.3281" style="stroke:#A80036;stroke-width:1.0;" width="10" x="629" y="143.6953"/><rect fill="#FFFFFF" filter="url(#fd2rt3wbubgzu)" height="226.9297" style="stroke:#A80036;stroke-width:1.0;" width="10" x="634" y="245.0938"/><rect fill="#FFFFFF" filter="url(#fd2rt3wbubgzu)" height="168.6641" style="stroke:#A80036;stroke-width:1.0;" width="10" x="639" y="303.3594"/><rect fill="#FFFFFF" filter="url(#fd2rt3wbubgzu)" height="110.3984" style="stroke:#A80036;stroke-width:1.0;" width="10" x="644" y="361.625"/><rect fill="#FFFFFF" filter="url(#fd2rt3wbubgzu)" height="9" style="stroke:#A80036;stroke-width:1.0;" width="10" x="649" y="463.0234"/><rect fill="#FFFFFF" filter="url(#fd2rt3wbubgzu)" height="38.1328" style="stroke:#A80036;stroke-width:1.0;" width="10" x="832" y="433.8906"/><line style="stroke:#A80036;stroke-width:1.0;stroke-dasharray:5.0,5.0;" x1="29" x2="29" y1="40.2969" y2="481.0234"/><line style="stroke:#A80036;stroke-width:1.0;stroke-dasharray:5.0,5.0;" x1="387" x2="387" y1="40.2969" y2="481.0234"/><line style="stroke:#A80036;stroke-width:1.0;stroke-dasharray:5.0,5.0;" x1="634" x2="634" y1="40.2969" y2="481.0234"/><line style="stroke:#A80036;stroke-width:1.0;stroke-dasharray:5.0,5.0;" x1="836.5" x2="836.5" y1="40.2969" y2="481.0234"/><rect fill="#FEFECE" filter="url(#fd2rt3wbubgzu)" height="30.2969" style="stroke:#A80036;stroke-width:1.5;" width="44" x="5" y="5"/><text fill="#000000" font-family="sans-serif" font-size="14" lengthAdjust="spacing" textLength="30" x="12" y="24.9951">User</text><rect fill="#FEFECE" filter="url(#fd2rt3wbubgzu)" height="30.2969" style="stroke:#A80036;stroke-width:1.5;" width="44" x="5" y="480.0234"/><text fill="#000000" font-family="sans-serif" font-size="14" lengthAdjust="spacing" textLength="30" x="12" y="500.0186">User</text><rect fill="#FEFECE" filter="url(#fd2rt3wbubgzu)" height="30.2969" style="stroke:#A80036;stroke-width:1.5;" width="136" x="317" y="5"/><text fill="#000000" font-family="sans-serif" font-size="14" lengthAdjust="spacing" textLength="122" x="324" y="24.9951">MacroStructCreator</text><rect fill="#FEFECE" filter="url(#fd2rt3wbubgzu)" height="30.2969" style="stroke:#A80036;stroke-width:1.5;" width="136" x="317" y="480.0234"/><text fill="#000000" font-family="sans-serif" font-size="14" lengthAdjust="spacing" textLength="122" x="324" y="500.0186">MacroStructCreator</text><rect fill="#FEFECE" filter="url(#fd2rt3wbubgzu)" height="30.2969" style="stroke:#A80036;stroke-width:1.5;" width="112" x="576" y="5"/><text fill="#000000" font-family="sans-serif" font-size="14" lengthAdjust="spacing" textLength="98" x="583" y="24.9951">OptionManager</text><rect fill="#FEFECE" filter="url(#fd2rt3wbubgzu)" height="30.2969" style="stroke:#A80036;stroke-width:1.5;" width="112" x="576" y="480.0234"/><text fill="#000000" font-family="sans-serif" font-size="14" lengthAdjust="spacing" textLength="98" x="583" y="500.0186">OptionManager</text><rect fill="#FEFECE" filter="url(#fd2rt3wbubgzu)" height="30.2969" style="stroke:#A80036;stroke-width:1.5;" width="101" x="784.5" y="5"/><text fill="#000000" font-family="sans-serif" font-size="14" lengthAdjust="spacing" textLength="87" x="791.5" y="24.9951">UserCLIStruct</text><rect fill="#FEFECE" filter="url(#fd2rt3wbubgzu)" height="30.2969" style="stroke:#A80036;stroke-width:1.5;" width="101" x="784.5" y="480.0234"/><text fill="#000000" font-family="sans-serif" font-size="14" lengthAdjust="spacing" textLength="87" x="791.5" y="500.0186">UserCLIStruct</text><rect fill="#FFFFFF" filter="url(#fd2rt3wbubgzu)" height="357.4609" style="stroke:#A80036;stroke-width:1.0;" width="10" x="382" y="114.5625"/><rect fill="#FFFFFF" filter="url(#fd2rt3wbubgzu)" height="256.0625" style="stroke:#A80036;stroke-width:1.0;" width="10" x="387" y="215.9609"/><rect fill="#FFFFFF" filter="url(#fd2rt3wbubgzu)" height="197.7969" style="stroke:#A80036;stroke-width:1.0;" width="10" x="392" y="274.2266"/><rect fill="#FFFFFF" filter="url(#fd2rt3wbubgzu)" height="139.5313" style="stroke:#A80036;stroke-width:1.0;" width="10" x="397" y="332.4922"/><rect fill="#FFFFFF" filter="url(#fd2rt3wbubgzu)" height="328.3281" style="stroke:#A80036;stroke-width:1.0;" width="10" x="629" y="143.6953"/><rect fill="#FFFFFF" filter="url(#fd2rt3wbubgzu)" height="226.9297" style="stroke:#A80036;stroke-width:1.0;" width="10" x="634" y="245.0938"/><rect fill="#FFFFFF" filter="url(#fd2rt3wbubgzu)" height="168.6641" style="stroke:#A80036;stroke-width:1.0;" width="10" x="639" y="303.3594"/><rect fill="#FFFFFF" filter="url(#fd2rt3wbubgzu)" height="110.3984" style="stroke:#A80036;stroke-width:1.0;" width="10" x="644" y="361.625"/><rect fill="#FFFFFF" filter="url(#fd2rt3wbubgzu)" height="9" style="stroke:#A80036;stroke-width:1.0;" width="10" x="649" y="463.0234"/><rect fill="#FFFFFF" filter="url(#fd2rt3wbubgzu)" height="38.1328" style="stroke:#A80036;stroke-width:1.0;" width="10" x="832" y="433.8906"/><rect fill="#EEEEEE" filter="url(#fd2rt3wbubgzu)" height="3" style="stroke:#EEEEEE;stroke-width:1.0;" width="894.5" x="0" y="70.8633"/><line style="stroke:#000000;stroke-width:1.0;" x1="0" x2="894.5" y1="70.8633" y2="70.8633"/><line style="stroke:#000000;stroke-width:1.0;" x1="0" x2="894.5" y1="73.8633" y2="73.8633"/><rect fill="#EEEEEE" filter="url(#fd2rt3wbubgzu)" height="23.1328" style="stroke:#000000;stroke-width:2.0;" width="490" x="202.25" y="60.2969"/><text fill="#000000" font-family="sans-serif" font-size="13" font-weight="bold" lengthAdjust="spacing" textLength="473" x="208.25" y="76.3638">Create a struct named UserCLIStruct to store command line option values</text><polygon fill="#A80036" points="370,110.5625,380,114.5625,370,118.5625,374,114.5625" style="stroke:#A80036;stroke-width:1.0;"/><line style="stroke:#A80036;stroke-width:1.0;" x1="29" x2="376" y1="114.5625" y2="114.5625"/><text fill="#000000" font-family="sans-serif" font-size="13" lengthAdjust="spacing" textLength="334" x="36" y="109.4966">IOX_CLI_DEFINITION(UserCLIStruct, ProgramDescription)</text><polygon fill="#A80036" points="617,139.6953,627,143.6953,617,147.6953,621,143.6953" style="stroke:#A80036;stroke-width:1.0;"/><line style="stroke:#A80036;stroke-width:1.0;" x1="392" x2="623" y1="143.6953" y2="143.6953"/><text fill="#000000" font-family="sans-serif" font-size="13" lengthAdjust="spacing" textLength="218" x="399" y="138.6294">OptionManager(ProgramDescription)</text><rect fill="#EEEEEE" filter="url(#fd2rt3wbubgzu)" height="3" style="stroke:#EEEEEE;stroke-width:1.0;" width="894.5" x="0" y="172.2617"/><line style="stroke:#000000;stroke-width:1.0;" x1="0" x2="894.5" y1="172.2617" y2="172.2617"/><line style="stroke:#000000;stroke-width:1.0;" x1="0" x2="894.5" y1="175.2617" y2="175.2617"/><rect fill="#EEEEEE" filter="url(#fd2rt3wbubgzu)" height="23.1328" style="stroke:#000000;stroke-width:2.0;" width="340" x="277.25" y="161.6953"/><text fill="#000000" font-family="sans-serif" font-size="13" font-weight="bold" lengthAdjust="spacing" textLength="323" x="283.25" y="177.7622">Define options which are stored in struct members</text><polygon fill="#A80036" points="375,211.9609,385,215.9609,375,219.9609,379,215.9609" style="stroke:#A80036;stroke-width:1.0;"/><line style="stroke:#A80036;stroke-width:1.0;" x1="29" x2="381" y1="215.9609" y2="215.9609"/><text fill="#000000" font-family="sans-serif" font-size="13" lengthAdjust="spacing" textLength="121" x="36" y="210.895">IOX_CLI_OPTIONAL()</text><polygon fill="#A80036" points="622,241.0938,632,245.0938,622,249.0938,626,245.0938" style="stroke:#A80036;stroke-width:1.0;"/><line style="stroke:#A80036;stroke-width:1.0;" x1="397" x2="628" y1="245.0938" y2="245.0938"/><text fill="#000000" font-family="sans-serif" font-size="13" lengthAdjust="spacing" textLength="86" x="404" y="240.0278">defineOption()</text><polygon fill="#A80036" points="380,270.2266,390,274.2266,380,278.2266,384,274.2266" style="stroke:#A80036;stroke-width:1.0;"/><line style="stroke:#A80036;stroke-width:1.0;" x1="29" x2="386" y1="274.2266" y2="274.2266"/><text fill="#000000" font-family="sans-serif" font-size="13" lengthAdjust="spacing" textLength="106" x="36" y="269.1606">IOX_CLI_SWITCH()</text><polygon fill="#A80036" points="627,299.3594,637,303.3594,627,307.3594,631,303.3594" style="stroke:#A80036;stroke-width:1.0;"/><line style="stroke:#A80036;stroke-width:1.0;" x1="402" x2="633" y1="303.3594" y2="303.3594"/><text fill="#000000" font-family="sans-serif" font-size="13" lengthAdjust="spacing" textLength="86" x="409" y="298.2935">defineOption()</text><polygon fill="#A80036" points="385,328.4922,395,332.4922,385,336.4922,389,332.4922" style="stroke:#A80036;stroke-width:1.0;"/><line style="stroke:#A80036;stroke-width:1.0;" x1="29" x2="391" y1="332.4922" y2="332.4922"/><text fill="#000000" font-family="sans-serif" font-size="13" lengthAdjust="spacing" textLength="122" x="36" y="327.4263">IOX_CLI_REQUIRED()</text><polygon fill="#A80036" points="632,357.625,642,361.625,632,365.625,636,361.625" style="stroke:#A80036;stroke-width:1.0;"/><line style="stroke:#A80036;stroke-width:1.0;" x1="407" x2="638" y1="361.625" y2="361.625"/><text fill="#000000" font-family="sans-serif" font-size="13" lengthAdjust="spacing" textLength="86" x="414" y="356.5591">defineOption()</text><rect fill="#EEEEEE" filter="url(#fd2rt3wbubgzu)" height="3" style="stroke:#EEEEEE;stroke-width:1.0;" width="894.5" x="0" y="390.1914"/><line style="stroke:#000000;stroke-width:1.0;" x1="0" x2="894.5" y1="390.1914" y2="390.1914"/><line style="stroke:#000000;stroke-width:1.0;" x1="0" x2="894.5" y1="393.1914" y2="393.1914"/><rect fill="#EEEEEE" filter="url(#fd2rt3wbubgzu)" height="23.1328" style="stroke:#000000;stroke-width:2.0;" width="543" x="175.75" y="379.625"/><text fill="#000000" font-family="sans-serif" font-size="13" font-weight="bold" lengthAdjust="spacing" textLength="526" x="181.75" y="395.6919">Instantiate UserCLIStruct, parse command line arguments and populate members</text><polygon fill="#A80036" points="820,429.8906,830,433.8906,820,437.8906,824,433.8906" style="stroke:#A80036;stroke-width:1.0;"/><line style="stroke:#A80036;stroke-width:1.0;" x1="29" x2="826" y1="433.8906" y2="433.8906"/><text fill="#000000" font-family="sans-serif" font-size="13" lengthAdjust="spacing" textLength="144" x="36" y="428.8247">UserCLIStruct(argc, argv)</text><polygon fill="#A80036" points="670,459.0234,660,463.0234,670,467.0234,666,463.0234" style="stroke:#A80036;stroke-width:1.0;"/><line style="stroke:#A80036;stroke-width:1.0;" x1="664" x2="831" y1="463.0234" y2="463.0234"/><text fill="#000000" font-family="sans-serif" font-size="13" lengthAdjust="spacing" textLength="154" x="676" y="457.9575">populateDefinedOptions()</text></g></svg>