<?xml version="1.0" encoding="UTF-8" standalone="no"?><svg xmlns="http://www.w3.org/2000/svg" xmlns:xlink="http://www.w3.org/1999/xlink" contentScriptType="application/ecmascript" contentStyleType="text/css" height="652px" preserveAspectRatio="none" style="width:881px;height:652px;background:#EEEBDC;" version="1.1" viewBox="0 0 881 652" width="881px" zoomAndPan="magnify"><defs><filter height="300%" id="fehe18vuct30v" width="300%" x="-1" y="-1"><feGaussianBlur result="blurOut" stdDeviation="2.0"/><feColorMatrix in="blurOut" result="blurOut2" type="matrix" values="0 0 0 0 0 0 0 0 0 0 0 0 0 0 0 0 0 0 .4 0"/><feOffset dx="4.0" dy="4.0" in="blurOut2" result="blurOut3"/><feBlend in="SourceGraphic" in2="blurOut3" mode="normal"/></filter></defs><g><rect fill="#FFFFFF" filter="url(#fehe18vuct30v)" height="57.1328" style="stroke:#A80036;stroke-width:1.0;" width="10" x="382" y="114.5625"/><rect fill="#FFFFFF" filter="url(#fehe18vuct30v)" height="57.1328" style="stroke:#A80036;stroke-width:1.0;" width="10" x="382" y="243.9609"/><rect fill="#FFFFFF" filter="url(#fehe18vuct30v)" height="57.1328" style="stroke:#A80036;stroke-width:1.0;" width="10" x="382" y="330.2266"/><rect fill="#FFFFFF" filter="url(#fehe18vuct30v)" height="57.1328" style="stroke:#A80036;stroke-width:1.0;" width="10" x="382" y="416.4922"/><rect fill="#FFFFFF" filter="url(#fehe18vuct30v)" height="14" style="stroke:#A80036;stroke-width:1.0;" width="10" x="629" y="143.6953"/><rect fill="#FFFFFF" filter="url(#fehe18vuct30v)" height="14" style="stroke:#A80036;stroke-width:1.0;" width="10" x="629" y="273.0938"/><rect fill="#FFFFFF" filter="url(#fehe18vuct30v)" height="14" style="stroke:#A80036;stroke-width:1.0;" width="10" x="629" y="359.3594"/><rect fill="#FFFFFF" filter="url(#fehe18vuct30v)" height="14" style="stroke:#A80036;stroke-width:1.0;" width="10" x="629" y="445.625"/><rect fill="#FFFFFF" filter="url(#fehe18vuct30v)" height="9" style="stroke:#A80036;stroke-width:1.0;" width="10" x="629" y="591.1875"/><rect fill="#FFFFFF" filter="url(#fehe18vuct30v)" height="44.2969" style="stroke:#A80036;stroke-width:1.0;" width="10" x="812" y="555.8906"/><line style="stroke:#A80036;stroke-width:1.0;stroke-dasharray:5.0,5.0;" x1="29" x2="29" y1="40.2969" y2="609.1875"/><line style="stroke:#A80036;stroke-width:1.0;stroke-dasharray:5.0,5.0;" x1="387" x2="387" y1="40.2969" y2="609.1875"/><line style="stroke:#A80036;stroke-width:1.0;stroke-dasharray:5.0,5.0;" x1="634" x2="634" y1="40.2969" y2="609.1875"/><line style="stroke:#A80036;stroke-width:1.0;stroke-dasharray:5.0,5.0;" x1="816.5" x2="816.5" y1="557.4063" y2="609.1875"/><rect fill="#FEFECE" filter="url(#fehe18vuct30v)" height="30.2969" style="stroke:#A80036;stroke-width:1.5;" width="44" x="5" y="5"/><text fill="#000000" font-family="sans-serif" font-size="14" lengthAdjust="spacing" textLength="30" x="12" y="24.9951">User</text><rect fill="#FEFECE" filter="url(#fehe18vuct30v)" height="30.2969" style="stroke:#A80036;stroke-width:1.5;" width="44" x="5" y="608.1875"/><text fill="#000000" font-family="sans-serif" font-size="14" lengthAdjust="spacing" textLength="30" x="12" y="628.1826">User</text><rect fill="#FEFECE" filter="url(#fehe18vuct30v)" height="30.2969" style="stroke:#A80036;stroke-width:1.5;" width="136" x="317" y="5"/><text fill="#000000" font-family="sans-serif" font-size="14" lengthAdjust="spacing" textLength="122" x="324" y="24.9951">MacroStructCreator</text><rect fill="#FEFECE" filter="url(#fehe18vuct30v)" height="30.2969" style="stroke:#A80036;stroke-width:1.5;" width="136" x="317" y="608.1875"/><text fill="#000000" font-family="sans-serif" font-size="14" lengthAdjust="spacing" textLength="122" x="324" y="628.1826">MacroStructCreator</text><rect fill="#FEFECE" filter="url(#fehe18vuct30v)" height="30.2969" style="stroke:#A80036;stroke-width:1.5;" width="112" x="576" y="5"/><text fill="#000000" font-family="sans-serif" font-size="14" lengthAdjust="spacing" textLength="98" x="583" y="24.9951">OptionManager</text><rect fill="#FEFECE" filter="url(#fehe18vuct30v)" height="30.2969" style="stroke:#A80036;stroke-width:1.5;" width="112" x="576" y="608.1875"/><text fill="#000000" font-family="sans-serif" font-size="14" lengthAdjust="spacing" textLength="98" x="583" y="628.1826">OptionManager</text><rect fill="#FEFECE" filter="url(#fehe18vuct30v)" height="30.2969" style="stroke:#A80036;stroke-width:1.5;" width="101" x="764.5" y="608.1875"/><text fill="#000000" font-family="sans-serif" font-size="14" lengthAdjust="spacing" textLength="87" x="771.5" y="628.1826">UserCLIStruct</text><rect fill="#FFFFFF" filter="url(#fehe18vuct30v)" height="57.1328" style="stroke:#A80036;stroke-width:1.0;" width="10" x="382" y="114.5625"/><rect fill="#FFFFFF" filter="url(#fehe18vuct30v)" height="57.1328" style="stroke:#A80036;stroke-width:1.0;" width="10" x="382" y="243.9609"/><rect fill="#FFFFFF" filter="url(#fehe18vuct30v)" height="57.1328" style="stroke:#A80036;stroke-width:1.0;" width="10" x="382" y="330.2266"/><rect fill="#FFFFFF" filter="url(#fehe18vuct30v)" height="57.1328" style="stroke:#A80036;stroke-width:1.0;" width="10" x="382" y="416.4922"/><rect fill="#FFFFFF" filter="url(#fehe18vuct30v)" height="14" style="stroke:#A80036;stroke-width:1.0;" width="10" x="629" y="143.6953"/><rect fill="#FFFFFF" filter="url(#fehe18vuct30v)" height="14" style="stroke:#A80036;stroke-width:1.0;" width="10" x="629" y="273.0938"/><rect fill="#FFFFFF" filter="url(#fehe18vuct30v)" height="14" style="stroke:#A80036;stroke-width:1.0;" width="10" x="629" y="359.3594"/><rect fill="#FFFFFF" filter="url(#fehe18vuct30v)" height="14" style="stroke:#A80036;stroke-width:1.0;" width="10" x="629" y="445.625"/><rect fill="#FFFFFF" filter="url(#fehe18vuct30v)" height="9" style="stroke:#A80036;stroke-width:1.0;" width="10" x="629" y="591.1875"/><rect fill="#FFFFFF" filter="url(#fehe18vuct30v)" height="44.2969" style="stroke:#A80036;stroke-width:1.0;" width="10" x="812" y="555.8906"/><rect fill="#EEEEEE" filter="url(#fehe18vuct30v)" height="3" style="stroke:#EEEEEE;stroke-width:1.0;" width="874.5" x="0" y="70.8633"/><line style="stroke:#000000;stroke-width:1.0;" x1="0" x2="874.5" y1="70.8633" y2="70.8633"/><line style="stroke:#000000;stroke-width:1.0;" x1="0" x2="874.5" y1="73.8633" y2="73.8633"/><rect fill="#EEEEEE" filter="url(#fehe18vuct30v)" height="23.1328" style="stroke:#000000;stroke-width:2.0;" width="490" x="192.25" y="60.2969"/><text fill="#000000" font-family="sans-serif" font-size="13" font-weight="bold" lengthAdjust="spacing" textLength="473" x="198.25" y="76.3638">Create a struct named UserCLIStruct to store command line option values</text><polygon fill="#A80036" points="370,110.5625,380,114.5625,370,118.5625,374,114.5625" style="stroke:#A80036;stroke-width:1.0;"/><line style="stroke:#A80036;stroke-width:1.0;" x1="29" x2="376" y1="114.5625" y2="114.5625"/><text fill="#000000" font-family="sans-serif" font-size="13" lengthAdjust="spacing" textLength="334" x="36" y="109.4966">IOX_CLI_DEFINITION(UserCLIStruct, ProgramDescription)</text><polygon fill="#A80036" points="617,139.6953,627,143.6953,617,147.6953,621,143.6953" style="stroke:#A80036;stroke-width:1.0;"/><line style="stroke:#A80036;stroke-width:1.0;" x1="392" x2="623" y1="143.6953" y2="143.6953"/><text fill="#000000" font-family="sans-serif" font-size="13" lengthAdjust="spacing" textLength="218" x="399" y="138.6294">OptionManager(ProgramDescription)</text><polygon fill="#A80036" points="403,153.6953,393,157.6953,403,161.6953,399,157.6953" style="stroke:#A80036;stroke-width:1.0;"/><line style="stroke:#A80036;stroke-width:1.0;stroke-dasharray:2.0,2.0;" x1="397" x2="633" y1="157.6953" y2="157.6953"/><polygon fill="#A80036" points="40,167.6953,30,171.6953,40,175.6953,36,171.6953" style="stroke:#A80036;stroke-width:1.0;"/><line style="stroke:#A80036;stroke-width:1.0;stroke-dasharray:2.0,2.0;" x1="34" x2="386" y1="171.6953" y2="171.6953"/><rect fill="#EEEEEE" filter="url(#fehe18vuct30v)" height="3" style="stroke:#EEEEEE;stroke-width:1.0;" width="874.5" x="0" y="200.2617"/><line style="stroke:#000000;stroke-width:1.0;" x1="0" x2="874.5" y1="200.2617" y2="200.2617"/><line style="stroke:#000000;stroke-width:1.0;" x1="0" x2="874.5" y1="203.2617" y2="203.2617"/><rect fill="#EEEEEE" filter="url(#fehe18vuct30v)" height="23.1328" style="stroke:#000000;stroke-width:2.0;" width="340" x="267.25" y="189.6953"/><text fill="#000000" font-family="sans-serif" font-size="13" font-weight="bold" lengthAdjust="spacing" textLength="323" x="273.25" y="205.7622">Define options which are stored in struct members</text><polygon fill="#A80036" points="370,239.9609,380,243.9609,370,247.9609,374,243.9609" style="stroke:#A80036;stroke-width:1.0;"/><line style="stroke:#A80036;stroke-width:1.0;" x1="29" x2="376" y1="243.9609" y2="243.9609"/><text fill="#000000" font-family="sans-serif" font-size="13" lengthAdjust="spacing" textLength="121" x="36" y="238.895">IOX_CLI_OPTIONAL()</text><polygon fill="#A80036" points="617,269.0938,627,273.0938,617,277.0938,621,273.0938" style="stroke:#A80036;stroke-width:1.0;"/><line style="stroke:#A80036;stroke-width:1.0;" x1="392" x2="623" y1="273.0938" y2="273.0938"/><text fill="#000000" font-family="sans-serif" font-size="13" lengthAdjust="spacing" textLength="86" x="399" y="268.0278">defineOption()</text><polygon fill="#A80036" points="403,283.0938,393,287.0938,403,291.0938,399,287.0938" style="stroke:#A80036;stroke-width:1.0;"/><line style="stroke:#A80036;stroke-width:1.0;stroke-dasharray:2.0,2.0;" x1="397" x2="633" y1="287.0938" y2="287.0938"/><polygon fill="#A80036" points="40,297.0938,30,301.0938,40,305.0938,36,301.0938" style="stroke:#A80036;stroke-width:1.0;"/><line style="stroke:#A80036;stroke-width:1.0;stroke-dasharray:2.0,2.0;" x1="34" x2="386" y1="301.0938" y2="301.0938"/><polygon fill="#A80036" points="370,326.2266,380,330.2266,370,334.2266,374,330.2266" style="stroke:#A80036;stroke-width:1.0;"/><line style="stroke:#A80036;stroke-width:1.0;" x1="29" x2="376" y1="330.2266" y2="330.2266"/><text fill="#000000" font-family="sans-serif" font-size="13" lengthAdjust="spacing" textLength="122" x="36" y="325.1606">IOX_CLI_REQUIRED()</text><polygon fill="#A80036" points="617,355.3594,627,359.3594,617,363.3594,621,359.3594" style="stroke:#A80036;stroke-width:1.0;"/><line style="stroke:#A80036;stroke-width:1.0;" x1="392" x2="623" y1="359.3594" y2="359.3594"/><text fill="#000000" font-family="sans-serif" font-size="13" lengthAdjust="spacing" textLength="86" x="399" y="354.2935">defineOption()</text><polygon fill="#A80036" points="403,369.3594,393,373.3594,403,377.3594,399,373.3594" style="stroke:#A80036;stroke-width:1.0;"/><line style="stroke:#A80036;stroke-width:1.0;stroke-dasharray:2.0,2.0;" x1="397" x2="633" y1="373.3594" y2="373.3594"/><polygon fill="#A80036" points="40,383.3594,30,387.3594,40,391.3594,36,387.3594" style="stroke:#A80036;stroke-width:1.0;"/><line style="stroke:#A80036;stroke-width:1.0;stroke-dasharray:2.0,2.0;" x1="34" x2="386" y1="387.3594" y2="387.3594"/><polygon fill="#A80036" points="370,412.4922,380,416.4922,370,420.4922,374,416.4922" style="stroke:#A80036;stroke-width:1.0;"/><line style="stroke:#A80036;stroke-width:1.0;" x1="29" x2="376" y1="416.4922" y2="416.4922"/><text fill="#000000" font-family="sans-serif" font-size="13" lengthAdjust="spacing" textLength="106" x="36" y="411.4263">IOX_CLI_SWITCH()</text><polygon fill="#A80036" points="617,441.625,627,445.625,617,449.625,621,445.625" style="stroke:#A80036;stroke-width:1.0;"/><line style="stroke:#A80036;stroke-width:1.0;" x1="392" x2="623" y1="445.625" y2="445.625"/><text fill="#000000" font-family="sans-serif" font-size="13" lengthAdjust="spacing" textLength="86" x="399" y="440.5591">defineOption()</text><polygon fill="#A80036" points="403,455.625,393,459.625,403,463.625,399,459.625" style="stroke:#A80036;stroke-width:1.0;"/><line style="stroke:#A80036;stroke-width:1.0;stroke-dasharray:2.0,2.0;" x1="397" x2="633" y1="459.625" y2="459.625"/><polygon fill="#A80036" points="40,469.625,30,473.625,40,477.625,36,473.625" style="stroke:#A80036;stroke-width:1.0;"/><line style="stroke:#A80036;stroke-width:1.0;stroke-dasharray:2.0,2.0;" x1="34" x2="386" y1="473.625" y2="473.625"/><rect fill="#EEEEEE" filter="url(#fehe18vuct30v)" height="3" style="stroke:#EEEEEE;stroke-width:1.0;" width="874.5" x="0" y="502.1914"/><line style="stroke:#000000;stroke-width:1.0;" x1="0" x2="874.5" y1="502.1914" y2="502.1914"/><line style="stroke:#000000;stroke-width:1.0;" x1="0" x2="874.5" y1="505.1914" y2="505.1914"/><rect fill="#EEEEEE" filter="url(#fehe18vuct30v)" height="23.1328" style="stroke:#000000;stroke-width:2.0;" width="543" x="165.75" y="491.625"/><text fill="#000000" font-family="sans-serif" font-size="13" font-weight="bold" lengthAdjust="spacing" textLength="526" x="171.75" y="507.6919">Instantiate UserCLIStruct, parse command line arguments and populate members</text><polygon fill="#A80036" points="752.5,541.8906,762.5,545.8906,752.5,549.8906,756.5,545.8906" style="stroke:#A80036;stroke-width:1.0;"/><line style="stroke:#A80036;stroke-width:1.0;" x1="29" x2="758.5" y1="545.8906" y2="545.8906"/><text fill="#000000" font-family="sans-serif" font-size="13" lengthAdjust="spacing" textLength="144" x="36" y="540.8247">UserCLIStruct(argc, argv)</text><rect fill="#FEFECE" filter="url(#fehe18vuct30v)" height="30.2969" style="stroke:#A80036;stroke-width:1.5;" width="101" x="764.5" y="524.7578"/><text fill="#000000" font-family="sans-serif" font-size="14" lengthAdjust="spacing" textLength="87" x="771.5" y="544.7529">UserCLIStruct</text><polygon fill="#A80036" points="650,587.1875,640,591.1875,650,595.1875,646,591.1875" style="stroke:#A80036;stroke-width:1.0;"/><line style="stroke:#A80036;stroke-width:1.0;" x1="644" x2="811" y1="591.1875" y2="591.1875"/><text fill="#000000" font-family="sans-serif" font-size="13" lengthAdjust="spacing" textLength="154" x="656" y="586.1216">populateDefinedOptions()</text></g></svg>