<?xml version="1.0" encoding="UTF-8" standalone="no"?><svg xmlns="http://www.w3.org/2000/svg" xmlns:xlink="http://www.w3.org/1999/xlink" contentScriptType="application/ecmascript" contentStyleType="text/css" height="1012px" preserveAspectRatio="none" style="width:910px;height:1012px;background:#EEEBDC;" version="1.1" viewBox="0 0 910 1012" width="910px" zoomAndPan="magnify"><defs><filter height="300%" id="fc2u3iz4oru9a" width="300%" x="-1" y="-1"><feGaussianBlur result="blurOut" stdDeviation="2.0"/><feColorMatrix in="blurOut" result="blurOut2" type="matrix" values="0 0 0 0 0 0 0 0 0 0 0 0 0 0 0 0 0 0 .4 0"/><feOffset dx="4.0" dy="4.0" in="blurOut2" result="blurOut3"/><feBlend in="SourceGraphic" in2="blurOut3" mode="normal"/></filter></defs><g><!--MD5=[c166ac2c6219022b87b2477609d1a73f]
class OptionDefinition--><rect codeLine="2" fill="#FEFECE" filter="url(#fc2u3iz4oru9a)" height="99.2188" id="OptionDefinition" style="stroke:#A80036;stroke-width:1.5;" width="344" x="7" y="286"/><ellipse cx="124.75" cy="302" fill="#ADD1B2" rx="11" ry="11" style="stroke:#A80036;stroke-width:1.0;"/><path d="M127.7188,307.6406 Q127.1406,307.9375 126.5,308.0781 Q125.8594,308.2344 125.1563,308.2344 Q122.6563,308.2344 121.3281,306.5938 Q120.0156,304.9375 120.0156,301.8125 Q120.0156,298.6875 121.3281,297.0313 Q122.6563,295.375 125.1563,295.375 Q125.8594,295.375 126.5,295.5313 Q127.1563,295.6875 127.7188,295.9844 L127.7188,298.7031 Q127.0938,298.125 126.5,297.8594 Q125.9063,297.5781 125.2813,297.5781 Q123.9375,297.5781 123.25,298.6563 Q122.5625,299.7188 122.5625,301.8125 Q122.5625,303.9063 123.25,304.9844 Q123.9375,306.0469 125.2813,306.0469 Q125.9063,306.0469 126.5,305.7813 Q127.0938,305.5 127.7188,304.9219 L127.7188,307.6406 Z " fill="#000000"/><text fill="#000000" font-family="sans-serif" font-size="12" lengthAdjust="spacing" textLength="100" x="145.25" y="306.1543">OptionDefinition</text><line style="stroke:#A80036;stroke-width:1.5;" x1="8" x2="350" y1="318" y2="318"/><line style="stroke:#A80036;stroke-width:1.5;" x1="8" x2="350" y1="326" y2="326"/><ellipse cx="18" cy="337" fill="#84BE84" rx="3" ry="3" style="stroke:#038048;stroke-width:1.0;"/><text fill="#000000" font-family="sans-serif" font-size="11" lengthAdjust="spacing" textLength="318" x="27" y="340.2104">OptionDefinition(programDescription, onFailureCallback)</text><ellipse cx="18" cy="349.8047" fill="#84BE84" rx="3" ry="3" style="stroke:#038048;stroke-width:1.0;"/><text fill="#000000" font-family="sans-serif" font-size="11" lengthAdjust="spacing" textLength="74" x="27" y="353.0151">addSwitch(..)</text><ellipse cx="18" cy="362.6094" fill="#84BE84" rx="3" ry="3" style="stroke:#038048;stroke-width:1.0;"/><text fill="#000000" font-family="sans-serif" font-size="11" lengthAdjust="spacing" textLength="84" x="27" y="365.8198">addOptional(..)</text><ellipse cx="18" cy="375.4141" fill="#84BE84" rx="3" ry="3" style="stroke:#038048;stroke-width:1.0;"/><text fill="#000000" font-family="sans-serif" font-size="11" lengthAdjust="spacing" textLength="87" x="27" y="378.6245">addRequired(..)</text><!--MD5=[cf56230f77c775f7db223e974dbfe4c8]
class Arguments--><rect codeLine="9" fill="#FEFECE" filter="url(#fc2u3iz4oru9a)" height="86.4141" id="Arguments" style="stroke:#A80036;stroke-width:1.5;" width="185" x="268.5" y="170"/><ellipse cx="322.75" cy="186" fill="#ADD1B2" rx="11" ry="11" style="stroke:#A80036;stroke-width:1.0;"/><path d="M325.7188,191.6406 Q325.1406,191.9375 324.5,192.0781 Q323.8594,192.2344 323.1563,192.2344 Q320.6563,192.2344 319.3281,190.5938 Q318.0156,188.9375 318.0156,185.8125 Q318.0156,182.6875 319.3281,181.0313 Q320.6563,179.375 323.1563,179.375 Q323.8594,179.375 324.5,179.5313 Q325.1563,179.6875 325.7188,179.9844 L325.7188,182.7031 Q325.0938,182.125 324.5,181.8594 Q323.9063,181.5781 323.2813,181.5781 Q321.9375,181.5781 321.25,182.6563 Q320.5625,183.7188 320.5625,185.8125 Q320.5625,187.9063 321.25,188.9844 Q321.9375,190.0469 323.2813,190.0469 Q323.9063,190.0469 324.5,189.7813 Q325.0938,189.5 325.7188,188.9219 L325.7188,191.6406 Z " fill="#000000"/><text fill="#000000" font-family="sans-serif" font-size="12" lengthAdjust="spacing" textLength="68" x="343.25" y="190.1543">Arguments</text><line style="stroke:#A80036;stroke-width:1.5;" x1="269.5" x2="452.5" y1="202" y2="202"/><line style="stroke:#A80036;stroke-width:1.5;" x1="269.5" x2="452.5" y1="210" y2="210"/><ellipse cx="279.5" cy="221" fill="#84BE84" rx="3" ry="3" style="stroke:#038048;stroke-width:1.0;"/><text fill="#000000" font-family="sans-serif" font-size="11" lengthAdjust="spacing" textLength="105" x="288.5" y="224.2104">T get(optionName)</text><ellipse cx="279.5" cy="233.8047" fill="#84BE84" rx="3" ry="3" style="stroke:#038048;stroke-width:1.0;"/><text fill="#000000" font-family="sans-serif" font-size="11" lengthAdjust="spacing" textLength="125" x="288.5" y="237.0151">bool has(optionName)</text><ellipse cx="279.5" cy="246.6094" fill="#84BE84" rx="3" ry="3" style="stroke:#038048;stroke-width:1.0;"/><text fill="#000000" font-family="sans-serif" font-size="11" lengthAdjust="spacing" textLength="159" x="288.5" y="249.8198">BinaryName_t binaryName()</text><!--MD5=[4e6922e81274f30076a4362b1e5f37a1]
class CommandLineParser--><rect codeLine="15" fill="#FEFECE" filter="url(#fc2u3iz4oru9a)" height="60.8047" id="CommandLineParser" style="stroke:#A80036;stroke-width:1.5;" width="239" x="190.5" y="19.5"/><ellipse cx="241.75" cy="35.5" fill="#ADD1B2" rx="11" ry="11" style="stroke:#A80036;stroke-width:1.0;"/><path d="M244.7188,41.1406 Q244.1406,41.4375 243.5,41.5781 Q242.8594,41.7344 242.1563,41.7344 Q239.6563,41.7344 238.3281,40.0938 Q237.0156,38.4375 237.0156,35.3125 Q237.0156,32.1875 238.3281,30.5313 Q239.6563,28.875 242.1563,28.875 Q242.8594,28.875 243.5,29.0313 Q244.1563,29.1875 244.7188,29.4844 L244.7188,32.2031 Q244.0938,31.625 243.5,31.3594 Q242.9063,31.0781 242.2813,31.0781 Q240.9375,31.0781 240.25,32.1563 Q239.5625,33.2188 239.5625,35.3125 Q239.5625,37.4063 240.25,38.4844 Q240.9375,39.5469 242.2813,39.5469 Q242.9063,39.5469 243.5,39.2813 Q244.0938,39 244.7188,38.4219 L244.7188,41.1406 Z " fill="#000000"/><text fill="#000000" font-family="sans-serif" font-size="12" lengthAdjust="spacing" textLength="128" x="262.25" y="39.6543">CommandLineParser</text><line style="stroke:#A80036;stroke-width:1.5;" x1="191.5" x2="428.5" y1="51.5" y2="51.5"/><line style="stroke:#A80036;stroke-width:1.5;" x1="191.5" x2="428.5" y1="59.5" y2="59.5"/><ellipse cx="201.5" cy="70.5" fill="#84BE84" rx="3" ry="3" style="stroke:#038048;stroke-width:1.0;"/><text fill="#000000" font-family="sans-serif" font-size="11" lengthAdjust="spacing" textLength="213" x="210.5" y="73.7104">Arguments parse(OptionDefinition, ..)</text><!--MD5=[b07065dfc0d0e09965ec10bfc328bb3e]
class Option--><rect codeLine="19" fill="#FEFECE" filter="url(#fc2u3iz4oru9a)" height="227.2656" id="Option" style="stroke:#A80036;stroke-width:1.5;" width="237" x="249.5" y="415"/><ellipse cx="343.25" cy="431" fill="#ADD1B2" rx="11" ry="11" style="stroke:#A80036;stroke-width:1.0;"/><path d="M346.2188,436.6406 Q345.6406,436.9375 345,437.0781 Q344.3594,437.2344 343.6563,437.2344 Q341.1563,437.2344 339.8281,435.5938 Q338.5156,433.9375 338.5156,430.8125 Q338.5156,427.6875 339.8281,426.0313 Q341.1563,424.375 343.6563,424.375 Q344.3594,424.375 345,424.5313 Q345.6563,424.6875 346.2188,424.9844 L346.2188,427.7031 Q345.5938,427.125 345,426.8594 Q344.4063,426.5781 343.7813,426.5781 Q342.4375,426.5781 341.75,427.6563 Q341.0625,428.7188 341.0625,430.8125 Q341.0625,432.9063 341.75,433.9844 Q342.4375,435.0469 343.7813,435.0469 Q344.4063,435.0469 345,434.7813 Q345.5938,434.5 346.2188,433.9219 L346.2188,436.6406 Z " fill="#000000"/><text fill="#000000" font-family="sans-serif" font-size="12" lengthAdjust="spacing" textLength="41" x="363.75" y="435.1543">Option</text><line style="stroke:#A80036;stroke-width:1.5;" x1="250.5" x2="485.5" y1="447" y2="447"/><polygon fill="none" points="260.5,453,264.5,457,260.5,461,256.5,457" style="stroke:#B38D22;stroke-width:1.0;"/><text fill="#000000" font-family="sans-serif" font-size="11" lengthAdjust="spacing" textLength="67" x="269.5" y="461.2104">shortOption</text><polygon fill="none" points="260.5,465.8047,264.5,469.8047,260.5,473.8047,256.5,469.8047" style="stroke:#B38D22;stroke-width:1.0;"/><text fill="#000000" font-family="sans-serif" font-size="11" lengthAdjust="spacing" textLength="61" x="269.5" y="474.0151">longOption</text><polygon fill="none" points="260.5,478.6094,264.5,482.6094,260.5,486.6094,256.5,482.6094" style="stroke:#B38D22;stroke-width:1.0;"/><text fill="#000000" font-family="sans-serif" font-size="11" lengthAdjust="spacing" textLength="30" x="269.5" y="486.8198">value</text><line style="stroke:#A80036;stroke-width:1.5;" x1="250.5" x2="485.5" y1="493.4141" y2="493.4141"/><ellipse cx="260.5" cy="504.4141" fill="#84BE84" rx="3" ry="3" style="stroke:#038048;stroke-width:1.0;"/><text fill="#000000" font-family="sans-serif" font-size="11" lengthAdjust="spacing" textLength="55" x="269.5" y="507.6245">isSwitch()</text><ellipse cx="260.5" cy="517.2188" fill="#84BE84" rx="3" ry="3" style="stroke:#038048;stroke-width:1.0;"/><text fill="#000000" font-family="sans-serif" font-size="11" lengthAdjust="spacing" textLength="167" x="269.5" y="520.4292">hasOptionName(optionName)</text><ellipse cx="260.5" cy="530.0234" fill="#84BE84" rx="3" ry="3" style="stroke:#038048;stroke-width:1.0;"/><text fill="#000000" font-family="sans-serif" font-size="11" lengthAdjust="spacing" textLength="155" x="269.5" y="533.2339">isSameOption(otherOption)</text><ellipse cx="260.5" cy="542.8281" fill="#84BE84" rx="3" ry="3" style="stroke:#038048;stroke-width:1.0;"/><text fill="#000000" font-family="sans-serif" font-size="11" lengthAdjust="spacing" textLength="133" x="269.5" y="546.0386">operator&lt;(otherOption)</text><ellipse cx="260.5" cy="555.6328" fill="#84BE84" rx="3" ry="3" style="stroke:#038048;stroke-width:1.0;"/><text fill="#000000" font-family="sans-serif" font-size="11" lengthAdjust="spacing" textLength="53" x="269.5" y="558.8433">isEmpty()</text><ellipse cx="260.5" cy="568.4375" fill="#84BE84" rx="3" ry="3" style="stroke:#038048;stroke-width:1.0;"/><text fill="#000000" font-family="sans-serif" font-size="11" lengthAdjust="spacing" textLength="211" x="269.5" y="571.6479">longOptionNameDoesStartWithDash()</text><ellipse cx="260.5" cy="581.2422" fill="#84BE84" rx="3" ry="3" style="stroke:#038048;stroke-width:1.0;"/><text fill="#000000" font-family="sans-serif" font-size="11" lengthAdjust="spacing" textLength="178" x="269.5" y="584.4526">shortOptionNameIsEqualDash()</text><ellipse cx="260.5" cy="594.0469" fill="#84BE84" rx="3" ry="3" style="stroke:#038048;stroke-width:1.0;"/><text fill="#000000" font-family="sans-serif" font-size="11" lengthAdjust="spacing" textLength="194" x="269.5" y="597.2573">hasLongOptionName(optionName)</text><ellipse cx="260.5" cy="606.8516" fill="#84BE84" rx="3" ry="3" style="stroke:#038048;stroke-width:1.0;"/><text fill="#000000" font-family="sans-serif" font-size="11" lengthAdjust="spacing" textLength="160" x="269.5" y="610.062">hasShortOptionName(value)</text><ellipse cx="260.5" cy="619.6563" fill="#84BE84" rx="3" ry="3" style="stroke:#038048;stroke-width:1.0;"/><text fill="#000000" font-family="sans-serif" font-size="11" lengthAdjust="spacing" textLength="97" x="269.5" y="622.8667">hasShortOption()</text><ellipse cx="260.5" cy="632.4609" fill="#84BE84" rx="3" ry="3" style="stroke:#038048;stroke-width:1.0;"/><text fill="#000000" font-family="sans-serif" font-size="11" lengthAdjust="spacing" textLength="93" x="269.5" y="635.6714">hasLongOption()</text><!--MD5=[7a5148681ac0546d1b0d53a8c0f053ef]
class OptionWithDetails::Details--><rect codeLine="36" fill="#FEFECE" filter="url(#fc2u3iz4oru9a)" height="86.4141" id="OptionWithDetails::Details" style="stroke:#A80036;stroke-width:1.5;" width="194" x="128" y="912"/><ellipse cx="143" cy="928" fill="#ADD1B2" rx="11" ry="11" style="stroke:#A80036;stroke-width:1.0;"/><path d="M145.9688,933.6406 Q145.3906,933.9375 144.75,934.0781 Q144.1094,934.2344 143.4063,934.2344 Q140.9063,934.2344 139.5781,932.5938 Q138.2656,930.9375 138.2656,927.8125 Q138.2656,924.6875 139.5781,923.0313 Q140.9063,921.375 143.4063,921.375 Q144.1094,921.375 144.75,921.5313 Q145.4063,921.6875 145.9688,921.9844 L145.9688,924.7031 Q145.3438,924.125 144.75,923.8594 Q144.1563,923.5781 143.5313,923.5781 Q142.1875,923.5781 141.5,924.6563 Q140.8125,925.7188 140.8125,927.8125 Q140.8125,929.9063 141.5,930.9844 Q142.1875,932.0469 143.5313,932.0469 Q144.1563,932.0469 144.75,931.7813 Q145.3438,931.5 145.9688,930.9219 L145.9688,933.6406 Z " fill="#000000"/><text fill="#000000" font-family="sans-serif" font-size="12" lengthAdjust="spacing" textLength="162" x="157" y="932.1543">OptionWithDetails::Details</text><line style="stroke:#A80036;stroke-width:1.5;" x1="129" x2="321" y1="944" y2="944"/><polygon fill="none" points="139,950,143,954,139,958,135,954" style="stroke:#B38D22;stroke-width:1.0;"/><text fill="#000000" font-family="sans-serif" font-size="11" lengthAdjust="spacing" textLength="63" x="148" y="958.2104">description</text><polygon fill="none" points="139,962.8047,143,966.8047,139,970.8047,135,966.8047" style="stroke:#B38D22;stroke-width:1.0;"/><text fill="#000000" font-family="sans-serif" font-size="11" lengthAdjust="spacing" textLength="24" x="148" y="971.0151">type</text><polygon fill="none" points="139,975.6094,143,979.6094,139,983.6094,135,979.6094" style="stroke:#B38D22;stroke-width:1.0;"/><text fill="#000000" font-family="sans-serif" font-size="11" lengthAdjust="spacing" textLength="57" x="148" y="983.8198">typeName</text><line style="stroke:#A80036;stroke-width:1.5;" x1="129" x2="321" y1="990.4141" y2="990.4141"/><!--MD5=[9ec7b5d669942d91bec0f6e1feb75bb2]
class OptionWithDetails--><rect codeLine="42" fill="#FEFECE" filter="url(#fc2u3iz4oru9a)" height="86.4141" id="OptionWithDetails" style="stroke:#A80036;stroke-width:1.5;" width="322" x="64" y="765"/><ellipse cx="165.25" cy="781" fill="#ADD1B2" rx="11" ry="11" style="stroke:#A80036;stroke-width:1.0;"/><path d="M168.2188,786.6406 Q167.6406,786.9375 167,787.0781 Q166.3594,787.2344 165.6563,787.2344 Q163.1563,787.2344 161.8281,785.5938 Q160.5156,783.9375 160.5156,780.8125 Q160.5156,777.6875 161.8281,776.0313 Q163.1563,774.375 165.6563,774.375 Q166.3594,774.375 167,774.5313 Q167.6563,774.6875 168.2188,774.9844 L168.2188,777.7031 Q167.5938,777.125 167,776.8594 Q166.4063,776.5781 165.7813,776.5781 Q164.4375,776.5781 163.75,777.6563 Q163.0625,778.7188 163.0625,780.8125 Q163.0625,782.9063 163.75,783.9844 Q164.4375,785.0469 165.7813,785.0469 Q166.4063,785.0469 167,784.7813 Q167.5938,784.5 168.2188,783.9219 L168.2188,786.6406 Z " fill="#000000"/><text fill="#000000" font-family="sans-serif" font-size="12" lengthAdjust="spacing" textLength="111" x="185.75" y="785.1543">OptionWithDetails</text><line style="stroke:#A80036;stroke-width:1.5;" x1="65" x2="385" y1="797" y2="797"/><polygon fill="none" points="75,803,79,807,75,811,71,807" style="stroke:#B38D22;stroke-width:1.0;"/><text fill="#000000" font-family="sans-serif" font-size="11" lengthAdjust="spacing" textLength="38" x="84" y="811.2104">details</text><line style="stroke:#A80036;stroke-width:1.5;" x1="65" x2="385" y1="817.8047" y2="817.8047"/><text fill="#000000" font-family="sans-serif" font-size="11" lengthAdjust="spacing" textLength="310" x="70" y="832.0151">OptionWithDetails(option, description, type, typeName)</text><text fill="#000000" font-family="sans-serif" font-size="11" lengthAdjust="spacing" textLength="195" x="70" y="844.8198">operator&lt;(otherOptionWithDetails)</text><!--MD5=[ab9be1a3719564be5e3fae8542d48a05]
class OptionManager--><rect codeLine="50" fill="#FEFECE" filter="url(#fc2u3iz4oru9a)" height="86.4141" id="OptionManager" style="stroke:#A80036;stroke-width:1.5;" width="340" x="536" y="7"/><ellipse cx="653.75" cy="23" fill="#ADD1B2" rx="11" ry="11" style="stroke:#A80036;stroke-width:1.0;"/><path d="M656.7188,28.6406 Q656.1406,28.9375 655.5,29.0781 Q654.8594,29.2344 654.1563,29.2344 Q651.6563,29.2344 650.3281,27.5938 Q649.0156,25.9375 649.0156,22.8125 Q649.0156,19.6875 650.3281,18.0313 Q651.6563,16.375 654.1563,16.375 Q654.8594,16.375 655.5,16.5313 Q656.1563,16.6875 656.7188,16.9844 L656.7188,19.7031 Q656.0938,19.125 655.5,18.8594 Q654.9063,18.5781 654.2813,18.5781 Q652.9375,18.5781 652.25,19.6563 Q651.5625,20.7188 651.5625,22.8125 Q651.5625,24.9063 652.25,25.9844 Q652.9375,27.0469 654.2813,27.0469 Q654.9063,27.0469 655.5,26.7813 Q656.0938,26.5 656.7188,25.9219 L656.7188,28.6406 Z " fill="#000000"/><text fill="#000000" font-family="sans-serif" font-size="12" lengthAdjust="spacing" textLength="96" x="674.25" y="27.1543">OptionManager</text><line style="stroke:#A80036;stroke-width:1.5;" x1="537" x2="875" y1="39" y2="39"/><line style="stroke:#A80036;stroke-width:1.5;" x1="537" x2="875" y1="47" y2="47"/><ellipse cx="547" cy="58" fill="#84BE84" rx="3" ry="3" style="stroke:#038048;stroke-width:1.0;"/><text fill="#000000" font-family="sans-serif" font-size="11" lengthAdjust="spacing" textLength="314" x="556" y="61.2104">OptionManager(programDescription, onFailureCallback)</text><ellipse cx="547" cy="70.8047" fill="#84BE84" rx="3" ry="3" style="stroke:#038048;stroke-width:1.0;"/><text fill="#000000" font-family="sans-serif" font-size="11" lengthAdjust="spacing" textLength="99" x="556" y="74.0151">T defineOption(..)</text><ellipse cx="547" cy="83.6094" fill="#84BE84" rx="3" ry="3" style="stroke:#038048;stroke-width:1.0;"/><text fill="#000000" font-family="sans-serif" font-size="11" lengthAdjust="spacing" textLength="152" x="556" y="86.8198">populateDefinedOptions(..)</text><path d="M511,200.5 L511,225.6328 A0,0 0 0 0 511,225.6328 L901,225.6328 A0,0 0 0 0 901,225.6328 L901,210.5 L891,200.5 L710,200.5 L706,93.3 L702,200.5 L511,200.5 A0,0 0 0 0 511,200.5 " fill="#FBFB77" filter="url(#fc2u3iz4oru9a)" style="stroke:#A80036;stroke-width:1.0;"/><path d="M891,200.5 L891,210.5 L901,210.5 L891,200.5 " fill="#FBFB77" style="stroke:#A80036;stroke-width:1.0;"/><text fill="#000000" font-family="sans-serif" font-size="13" lengthAdjust="spacing" textLength="369" x="517" y="217.5669">Used only by the macro struct builder IOX_CLI_DEFINITION</text><!--MD5=[a0649bf7f0337ec18a9f896a3be4b741]
reverse link OptionWithDetails to OptionWithDetails::Details--><path codeLine="59" d="M225,864.73 C225,880.38 225,897.15 225,911.87 " fill="none" id="OptionWithDetails-backto-OptionWithDetails::Details" style="stroke:#A80036;stroke-width:1.0;"/><polygon fill="#A80036" points="225,851.33,221,857.33,225,863.33,229,857.33,225,851.33" style="stroke:#A80036;stroke-width:1.0;"/><text fill="#000000" font-family="sans-serif" font-size="13" lengthAdjust="spacing" textLength="8" x="216.3625" y="871.4755">1</text><text fill="#000000" font-family="sans-serif" font-size="13" lengthAdjust="spacing" textLength="8" x="216.3625" y="900.8453">1</text><!--MD5=[12bb36036b03ed08e7013ad7cee0284d]
reverse link Option to OptionWithDetails--><path codeLine="60" d="M300.63,660.24 C281.12,698.09 261.21,736.73 246.72,764.85 " fill="none" id="Option-backto-OptionWithDetails" style="stroke:#A80036;stroke-width:1.0;"/><polygon fill="none" points="294.45,656.94,309.84,642.37,306.9,663.35,294.45,656.94" style="stroke:#A80036;stroke-width:1.0;"/><!--MD5=[b056951717f6d076787c65bc4e731d2f]
reverse link Arguments to Option--><path codeLine="62" d="M362.23,269.29 C363.13,309.52 364.38,365.38 365.48,414.86 " fill="none" id="Arguments-backto-Option" style="stroke:#A80036;stroke-width:1.0;"/><polygon fill="#A80036" points="361.94,256.28,358.0729,262.3665,362.204,268.2771,366.071,262.1906,361.94,256.28" style="stroke:#A80036;stroke-width:1.0;"/><text fill="#000000" font-family="sans-serif" font-size="13" lengthAdjust="spacing" textLength="24" x="336.1773" y="276.4175">0..n</text><text fill="#000000" font-family="sans-serif" font-size="13" lengthAdjust="spacing" textLength="8" x="357.0419" y="403.7833">1</text><!--MD5=[b165088649ef6c70eacba12e0b65d041]
reverse link OptionDefinition to OptionWithDetails--><path codeLine="63" d="M185.03,398.18 C194.53,495.33 212.73,681.49 220.88,764.84 " fill="none" id="OptionDefinition-backto-OptionWithDetails" style="stroke:#A80036;stroke-width:1.0;"/><polygon fill="#A80036" points="183.75,385.08,180.3495,391.439,184.9114,397.0237,188.3119,390.6647,183.75,385.08" style="stroke:#A80036;stroke-width:1.0;"/><text fill="#000000" font-family="sans-serif" font-size="13" lengthAdjust="spacing" textLength="24" x="158.7305" y="405.1677">0..n</text><text fill="#000000" font-family="sans-serif" font-size="13" lengthAdjust="spacing" textLength="8" x="211.5859" y="753.8105">1</text><!--MD5=[18b0485bc259fc960e9ac095f140c771]
reverse link CommandLineParser to OptionDefinition--><path codeLine="65" d="M289.17,92.5 C284.19,102.48 278.89,113.11 274,123 C263.69,143.85 260.78,148.9 251,170 C233.11,208.61 213.83,252.82 199.73,285.67 " fill="none" id="CommandLineParser-backto-OptionDefinition" style="stroke:#A80036;stroke-width:1.0;"/><polygon fill="#A80036" points="295.06,80.75,288.799,84.3277,289.6934,91.4831,295.9544,87.9054,295.06,80.75" style="stroke:#A80036;stroke-width:1.0;"/><text fill="#000000" font-family="sans-serif" font-size="13" lengthAdjust="spacing" textLength="50" x="275" y="136.0669">borrows</text><text fill="#000000" font-family="sans-serif" font-size="13" lengthAdjust="spacing" textLength="8" x="283.3312" y="100.3797">1</text><text fill="#000000" font-family="sans-serif" font-size="13" lengthAdjust="spacing" textLength="8" x="193.9781" y="275.0274">1</text><!--MD5=[730caabd668978b51cb0c5b623077c26]
reverse link CommandLineParser to Arguments--><path codeLine="66" d="M323.31,93.02 C330.82,116.71 340.16,146.22 347.67,169.92 " fill="none" id="CommandLineParser-backto-Arguments" style="stroke:#A80036;stroke-width:1.0;"/><polygon fill="#A80036" points="319.35,80.53,317.3489,87.4579,322.9743,91.9696,324.9753,85.0417,319.35,80.53" style="stroke:#A80036;stroke-width:1.0;"/><text fill="#000000" font-family="sans-serif" font-size="13" lengthAdjust="spacing" textLength="54" x="339" y="136.0669">contains</text><text fill="#000000" font-family="sans-serif" font-size="13" lengthAdjust="spacing" textLength="8" x="312.4534" y="100.4744">1</text><text fill="#000000" font-family="sans-serif" font-size="13" lengthAdjust="spacing" textLength="8" x="336.908" y="158.9033">1</text></g></svg>