<?xml version="1.0" encoding="UTF-8" standalone="no"?><svg xmlns="http://www.w3.org/2000/svg" xmlns:xlink="http://www.w3.org/1999/xlink" contentScriptType="application/ecmascript" contentStyleType="text/css" height="301px" preserveAspectRatio="none" style="width:900px;height:301px;background:#EEEBDC;" version="1.1" viewBox="0 0 900 301" width="900px" zoomAndPan="magnify"><defs><filter height="300%" id="f1p70zllytwgy9" width="300%" x="-1" y="-1"><feGaussianBlur result="blurOut" stdDeviation="2.0"/><feColorMatrix in="blurOut" result="blurOut2" type="matrix" values="0 0 0 0 0 0 0 0 0 0 0 0 0 0 0 0 0 0 .4 0"/><feOffset dx="4.0" dy="4.0" in="blurOut2" result="blurOut3"/><feBlend in="SourceGraphic" in2="blurOut3" mode="normal"/></filter></defs><g><!--MD5=[7ba86efbd0c950b29d731e7fdecdb02b]
class CommandLineOptionSet--><rect codeLine="2" fill="#FEFECE" filter="url(#f1p70zllytwgy9)" height="99.2188" id="CommandLineOptionSet" style="stroke:#A80036;stroke-width:1.5;" width="335" x="7" y="7"/><ellipse cx="102.75" cy="23" fill="#ADD1B2" rx="11" ry="11" style="stroke:#A80036;stroke-width:1.0;"/><path d="M106.2656,27.0313 L106.2656,29.0625 Q104.7813,29.6719 102.9531,29.6719 Q100.2344,29.6719 98.7813,27.9375 Q97.3281,26.1875 97.3281,23.0781 Q97.3281,20.0781 98.9063,18.2969 Q100.4844,16.5 103.2031,16.5 Q105.1094,16.5 106.8438,17.4219 L105.8906,19.3281 Q104.3906,18.5469 103.2031,18.5469 Q101.5938,18.5469 100.6094,19.7656 Q99.6406,20.9688 99.6406,23.0938 Q99.6406,25.3438 100.5469,26.4844 Q101.4688,27.625 103.2031,27.625 Q104.2344,27.625 106.2656,27.0313 Z " fill="#000000"/><text fill="#000000" font-family="sans-serif" font-size="12" lengthAdjust="spacing" textLength="135" x="123.25" y="27.1543">CommandLineOptionSet</text><line style="stroke:#A80036;stroke-width:1.5;" x1="8" x2="341" y1="39" y2="39"/><line style="stroke:#A80036;stroke-width:1.5;" x1="8" x2="341" y1="47" y2="47"/><ellipse cx="18" cy="58" fill="#84BE84" rx="3" ry="3" style="stroke:#038048;stroke-width:1.0;"/><text fill="#000000" font-family="sans-serif" font-size="11" lengthAdjust="spacing" textLength="309" x="27" y="61.2104">CommandLineOptionSet(programDescription, onFailureCallback)</text><ellipse cx="18" cy="70.8047" fill="#84BE84" rx="3" ry="3" style="stroke:#038048;stroke-width:1.0;"/><text fill="#000000" font-family="sans-serif" font-size="11" lengthAdjust="spacing" textLength="61" x="27" y="74.0151">addSwitch(..)</text><ellipse cx="18" cy="83.6094" fill="#84BE84" rx="3" ry="3" style="stroke:#038048;stroke-width:1.0;"/><text fill="#000000" font-family="sans-serif" font-size="11" lengthAdjust="spacing" textLength="63" x="27" y="86.8198">addOption(..)</text><ellipse cx="18" cy="96.4141" fill="#84BE84" rx="3" ry="3" style="stroke:#038048;stroke-width:1.0;"/><text fill="#000000" font-family="sans-serif" font-size="11" lengthAdjust="spacing" textLength="73" x="27" y="99.6245">addRequired(..)</text><!--MD5=[9d0efe5abe916d2460885a13431354e9]
class CommandLineOptionValue--><rect codeLine="9" fill="#FEFECE" filter="url(#f1p70zllytwgy9)" height="86.4141" id="CommandLineOptionValue" style="stroke:#A80036;stroke-width:1.5;" width="180" x="377.5" y="13.5"/><ellipse cx="392.5" cy="29.5" fill="#ADD1B2" rx="11" ry="11" style="stroke:#A80036;stroke-width:1.0;"/><path d="M396.0156,33.5313 L396.0156,35.5625 Q394.5313,36.1719 392.7031,36.1719 Q389.9844,36.1719 388.5313,34.4375 Q387.0781,32.6875 387.0781,29.5781 Q387.0781,26.5781 388.6563,24.7969 Q390.2344,23 392.9531,23 Q394.8594,23 396.5938,23.9219 L395.6406,25.8281 Q394.1406,25.0469 392.9531,25.0469 Q391.3438,25.0469 390.3594,26.2656 Q389.3906,27.4688 389.3906,29.5938 Q389.3906,31.8438 390.2969,32.9844 Q391.2188,34.125 392.9531,34.125 Q393.9844,34.125 396.0156,33.5313 Z " fill="#000000"/><text fill="#000000" font-family="sans-serif" font-size="12" lengthAdjust="spacing" textLength="148" x="406.5" y="33.6543">CommandLineOptionValue</text><line style="stroke:#A80036;stroke-width:1.5;" x1="378.5" x2="556.5" y1="45.5" y2="45.5"/><line style="stroke:#A80036;stroke-width:1.5;" x1="378.5" x2="556.5" y1="53.5" y2="53.5"/><ellipse cx="388.5" cy="64.5" fill="#84BE84" rx="3" ry="3" style="stroke:#038048;stroke-width:1.0;"/><text fill="#000000" font-family="sans-serif" font-size="11" lengthAdjust="spacing" textLength="90" x="397.5" y="67.7104">T get(optionName)</text><ellipse cx="388.5" cy="77.3047" fill="#84BE84" rx="3" ry="3" style="stroke:#038048;stroke-width:1.0;"/><text fill="#000000" font-family="sans-serif" font-size="11" lengthAdjust="spacing" textLength="106" x="397.5" y="80.5151">bool has(optionName)</text><ellipse cx="388.5" cy="90.1094" fill="#84BE84" rx="3" ry="3" style="stroke:#038048;stroke-width:1.0;"/><text fill="#000000" font-family="sans-serif" font-size="11" lengthAdjust="spacing" textLength="139" x="397.5" y="93.3198">BinaryName_t binaryName()</text><!--MD5=[2ab591c68ec5c8c322c776c91b207122]
class CommandLineArgumentParser--><rect codeLine="15" fill="#FEFECE" filter="url(#f1p70zllytwgy9)" height="60.8047" id="CommandLineArgumentParser" style="stroke:#A80036;stroke-width:1.5;" width="323" x="159" y="227"/><ellipse cx="232.25" cy="243" fill="#ADD1B2" rx="11" ry="11" style="stroke:#A80036;stroke-width:1.0;"/><path d="M235.7656,247.0313 L235.7656,249.0625 Q234.2813,249.6719 232.4531,249.6719 Q229.7344,249.6719 228.2813,247.9375 Q226.8281,246.1875 226.8281,243.0781 Q226.8281,240.0781 228.4063,238.2969 Q229.9844,236.5 232.7031,236.5 Q234.6094,236.5 236.3438,237.4219 L235.3906,239.3281 Q233.8906,238.5469 232.7031,238.5469 Q231.0938,238.5469 230.1094,239.7656 Q229.1406,240.9688 229.1406,243.0938 Q229.1406,245.3438 230.0469,246.4844 Q230.9688,247.625 232.7031,247.625 Q233.7344,247.625 235.7656,247.0313 Z " fill="#000000"/><text fill="#000000" font-family="sans-serif" font-size="12" lengthAdjust="spacing" textLength="168" x="252.75" y="247.1543">CommandLineArgumentParser</text><line style="stroke:#A80036;stroke-width:1.5;" x1="160" x2="481" y1="259" y2="259"/><line style="stroke:#A80036;stroke-width:1.5;" x1="160" x2="481" y1="267" y2="267"/><ellipse cx="170" cy="278" fill="#84BE84" rx="3" ry="3" style="stroke:#038048;stroke-width:1.0;"/><text fill="#000000" font-family="sans-serif" font-size="11" lengthAdjust="spacing" textLength="297" x="179" y="281.2104">CommandLineOptionValue parse(CommandLineOptionSet, ..)</text><!--MD5=[ab9be1a3719564be5e3fae8542d48a05]
class OptionManager--><rect codeLine="22" fill="#FEFECE" filter="url(#f1p70zllytwgy9)" height="86.4141" id="OptionManager" style="stroke:#A80036;stroke-width:1.5;" width="293" x="593" y="13.5"/><ellipse cx="692.25" cy="29.5" fill="#ADD1B2" rx="11" ry="11" style="stroke:#A80036;stroke-width:1.0;"/><path d="M695.7656,33.5313 L695.7656,35.5625 Q694.2813,36.1719 692.4531,36.1719 Q689.7344,36.1719 688.2813,34.4375 Q686.8281,32.6875 686.8281,29.5781 Q686.8281,26.5781 688.4063,24.7969 Q689.9844,23 692.7031,23 Q694.6094,23 696.3438,23.9219 L695.3906,25.8281 Q693.8906,25.0469 692.7031,25.0469 Q691.0938,25.0469 690.1094,26.2656 Q689.1406,27.4688 689.1406,29.5938 Q689.1406,31.8438 690.0469,32.9844 Q690.9688,34.125 692.7031,34.125 Q693.7344,34.125 695.7656,33.5313 Z " fill="#000000"/><text fill="#000000" font-family="sans-serif" font-size="12" lengthAdjust="spacing" textLength="86" x="712.75" y="33.6543">OptionManager</text><line style="stroke:#A80036;stroke-width:1.5;" x1="594" x2="885" y1="45.5" y2="45.5"/><line style="stroke:#A80036;stroke-width:1.5;" x1="594" x2="885" y1="53.5" y2="53.5"/><ellipse cx="604" cy="64.5" fill="#84BE84" rx="3" ry="3" style="stroke:#038048;stroke-width:1.0;"/><text fill="#000000" font-family="sans-serif" font-size="11" lengthAdjust="spacing" textLength="267" x="613" y="67.7104">OptionManager(programDescription, onFailureCallback)</text><ellipse cx="604" cy="77.3047" fill="#84BE84" rx="3" ry="3" style="stroke:#038048;stroke-width:1.0;"/><text fill="#000000" font-family="sans-serif" font-size="11" lengthAdjust="spacing" textLength="83" x="613" y="80.5151">T defineOption(..)</text><ellipse cx="604" cy="90.1094" fill="#84BE84" rx="3" ry="3" style="stroke:#038048;stroke-width:1.0;"/><text fill="#000000" font-family="sans-serif" font-size="11" lengthAdjust="spacing" textLength="130" x="613" y="93.3198">populateDefinedOptions(..)</text><!--MD5=[4e76dd6b46218ceaef802815791db681]
reverse link CommandLineOptionSet to CommandLineArgumentParser--><path codeLine="19" d="M222.06,122.33 C247.89,157.53 278.57,199.35 298.74,226.84 " fill="none" id="CommandLineOptionSet-backto-CommandLineArgumentParser" style="stroke:#A80036;stroke-width:1.0;"/><polygon fill="none" points="216.4,126.45,210.22,106.18,227.69,118.17,216.4,126.45" style="stroke:#A80036;stroke-width:1.0;"/><!--MD5=[9728e3a843abaf3cc509ea0e7008b3ef]
reverse link CommandLineOptionValue to CommandLineArgumentParser--><path codeLine="20" d="M424.11,116.24 C397.21,152.65 363.82,197.86 342.33,226.94 " fill="none" id="CommandLineOptionValue-backto-CommandLineArgumentParser" style="stroke:#A80036;stroke-width:1.0;"/><polygon fill="none" points="418.81,111.63,436.33,99.7,430.07,119.95,418.81,111.63" style="stroke:#A80036;stroke-width:1.0;"/></g></svg>