<?xml version="1.0" encoding="UTF-8" standalone="no"?><svg xmlns="http://www.w3.org/2000/svg" xmlns:xlink="http://www.w3.org/1999/xlink" contentScriptType="application/ecmascript" contentStyleType="text/css" height="711px" preserveAspectRatio="none" style="width:730px;height:711px;background:#EEEBDC;" version="1.1" viewBox="0 0 730 711" width="730px" zoomAndPan="magnify"><defs><filter height="300%" id="f5i15omh81xi6" width="300%" x="-1" y="-1"><feGaussianBlur result="blurOut" stdDeviation="2.0"/><feColorMatrix in="blurOut" result="blurOut2" type="matrix" values="0 0 0 0 0 0 0 0 0 0 0 0 0 0 0 0 0 0 .4 0"/><feOffset dx="4.0" dy="4.0" in="blurOut2" result="blurOut3"/><feBlend in="SourceGraphic" in2="blurOut3" mode="normal"/></filter></defs><g><rect fill="#FFFFFF" filter="url(#f5i15omh81xi6)" height="29.1328" style="stroke:#A80036;stroke-width:1.0;" width="10" x="374" y="114.5625"/><rect fill="#FFFFFF" filter="url(#f5i15omh81xi6)" height="14" style="stroke:#A80036;stroke-width:1.0;" width="10" x="374" y="172.8281"/><rect fill="#FFFFFF" filter="url(#f5i15omh81xi6)" height="14" style="stroke:#A80036;stroke-width:1.0;" width="10" x="374" y="215.9609"/><rect fill="#FFFFFF" filter="url(#f5i15omh81xi6)" height="14" style="stroke:#A80036;stroke-width:1.0;" width="10" x="374" y="259.0938"/><rect fill="#FFFFFF" filter="url(#f5i15omh81xi6)" height="29.1328" style="stroke:#A80036;stroke-width:1.0;" width="10" x="529" y="345.3594"/><rect fill="#FFFFFF" filter="url(#f5i15omh81xi6)" height="29.1328" style="stroke:#A80036;stroke-width:1.0;" width="10" x="666.5" y="446.7578"/><rect fill="#FFFFFF" filter="url(#f5i15omh81xi6)" height="29.1328" style="stroke:#A80036;stroke-width:1.0;" width="10" x="666.5" y="505.0234"/><rect fill="#FFFFFF" filter="url(#f5i15omh81xi6)" height="29.1328" style="stroke:#A80036;stroke-width:1.0;" width="10" x="666.5" y="563.2891"/><rect fill="#FFFFFF" filter="url(#f5i15omh81xi6)" height="29.1328" style="stroke:#A80036;stroke-width:1.0;" width="10" x="666.5" y="621.5547"/><line style="stroke:#A80036;stroke-width:1.0;stroke-dasharray:5.0,5.0;" x1="30" x2="30" y1="40.2969" y2="668.6875"/><line style="stroke:#A80036;stroke-width:1.0;stroke-dasharray:5.0,5.0;" x1="378.5" x2="378.5" y1="40.2969" y2="668.6875"/><line style="stroke:#A80036;stroke-width:1.0;stroke-dasharray:5.0,5.0;" x1="533.5" x2="533.5" y1="40.2969" y2="668.6875"/><line style="stroke:#A80036;stroke-width:1.0;stroke-dasharray:5.0,5.0;" x1="671.5" x2="671.5" y1="40.2969" y2="668.6875"/><rect fill="#FEFECE" filter="url(#f5i15omh81xi6)" height="30.2969" style="stroke:#A80036;stroke-width:1.5;" width="46" x="5" y="5"/><text fill="#000000" font-family="sans-serif" font-size="14" lengthAdjust="spacing" textLength="32" x="12" y="24.9951">User</text><rect fill="#FEFECE" filter="url(#f5i15omh81xi6)" height="30.2969" style="stroke:#A80036;stroke-width:1.5;" width="46" x="5" y="667.6875"/><text fill="#000000" font-family="sans-serif" font-size="14" lengthAdjust="spacing" textLength="32" x="12" y="687.6826">User</text><rect fill="#FEFECE" filter="url(#f5i15omh81xi6)" height="30.2969" style="stroke:#A80036;stroke-width:1.5;" width="125" x="314.5" y="5"/><text fill="#000000" font-family="sans-serif" font-size="14" lengthAdjust="spacing" textLength="111" x="321.5" y="24.9951">OptionDefinition</text><rect fill="#FEFECE" filter="url(#f5i15omh81xi6)" height="30.2969" style="stroke:#A80036;stroke-width:1.5;" width="125" x="314.5" y="667.6875"/><text fill="#000000" font-family="sans-serif" font-size="14" lengthAdjust="spacing" textLength="111" x="321.5" y="687.6826">OptionDefinition</text><rect fill="#FEFECE" filter="url(#f5i15omh81xi6)" height="30.2969" style="stroke:#A80036;stroke-width:1.5;" width="157" x="453.5" y="5"/><text fill="#000000" font-family="sans-serif" font-size="14" lengthAdjust="spacing" textLength="143" x="460.5" y="24.9951">CommandLineParser</text><rect fill="#FEFECE" filter="url(#f5i15omh81xi6)" height="30.2969" style="stroke:#A80036;stroke-width:1.5;" width="157" x="453.5" y="667.6875"/><text fill="#000000" font-family="sans-serif" font-size="14" lengthAdjust="spacing" textLength="143" x="460.5" y="687.6826">CommandLineParser</text><rect fill="#FEFECE" filter="url(#f5i15omh81xi6)" height="30.2969" style="stroke:#A80036;stroke-width:1.5;" width="90" x="624.5" y="5"/><text fill="#000000" font-family="sans-serif" font-size="14" lengthAdjust="spacing" textLength="76" x="631.5" y="24.9951">Arguments</text><rect fill="#FEFECE" filter="url(#f5i15omh81xi6)" height="30.2969" style="stroke:#A80036;stroke-width:1.5;" width="90" x="624.5" y="667.6875"/><text fill="#000000" font-family="sans-serif" font-size="14" lengthAdjust="spacing" textLength="76" x="631.5" y="687.6826">Arguments</text><rect fill="#FFFFFF" filter="url(#f5i15omh81xi6)" height="29.1328" style="stroke:#A80036;stroke-width:1.0;" width="10" x="374" y="114.5625"/><rect fill="#FFFFFF" filter="url(#f5i15omh81xi6)" height="14" style="stroke:#A80036;stroke-width:1.0;" width="10" x="374" y="172.8281"/><rect fill="#FFFFFF" filter="url(#f5i15omh81xi6)" height="14" style="stroke:#A80036;stroke-width:1.0;" width="10" x="374" y="215.9609"/><rect fill="#FFFFFF" filter="url(#f5i15omh81xi6)" height="14" style="stroke:#A80036;stroke-width:1.0;" width="10" x="374" y="259.0938"/><rect fill="#FFFFFF" filter="url(#f5i15omh81xi6)" height="29.1328" style="stroke:#A80036;stroke-width:1.0;" width="10" x="529" y="345.3594"/><rect fill="#FFFFFF" filter="url(#f5i15omh81xi6)" height="29.1328" style="stroke:#A80036;stroke-width:1.0;" width="10" x="666.5" y="446.7578"/><rect fill="#FFFFFF" filter="url(#f5i15omh81xi6)" height="29.1328" style="stroke:#A80036;stroke-width:1.0;" width="10" x="666.5" y="505.0234"/><rect fill="#FFFFFF" filter="url(#f5i15omh81xi6)" height="29.1328" style="stroke:#A80036;stroke-width:1.0;" width="10" x="666.5" y="563.2891"/><rect fill="#FFFFFF" filter="url(#f5i15omh81xi6)" height="29.1328" style="stroke:#A80036;stroke-width:1.0;" width="10" x="666.5" y="621.5547"/><rect fill="#EEEEEE" filter="url(#f5i15omh81xi6)" height="3" style="stroke:#EEEEEE;stroke-width:1.0;" width="723.5" x="0" y="70.8633"/><line style="stroke:#000000;stroke-width:1.0;" x1="0" x2="723.5" y1="70.8633" y2="70.8633"/><line style="stroke:#000000;stroke-width:1.0;" x1="0" x2="723.5" y1="73.8633" y2="73.8633"/><rect fill="#EEEEEE" filter="url(#f5i15omh81xi6)" height="23.1328" style="stroke:#000000;stroke-width:2.0;" width="468" x="127.75" y="60.2969"/><text fill="#000000" font-family="sans-serif" font-size="13" font-weight="bold" lengthAdjust="spacing" textLength="449" x="133.75" y="76.3638">Create a OptionDefinition and define the application options</text><polygon fill="#A80036" points="362,110.5625,372,114.5625,362,118.5625,366,114.5625" style="stroke:#A80036;stroke-width:1.0;"/><line style="stroke:#A80036;stroke-width:1.0;" x1="30" x2="368" y1="114.5625" y2="114.5625"/><text fill="#000000" font-family="sans-serif" font-size="13" lengthAdjust="spacing" textLength="325" x="37" y="109.4966">OptionDefinition(programName, onFailureCallback)</text><polygon fill="#A80036" points="41,139.6953,31,143.6953,41,147.6953,37,143.6953" style="stroke:#A80036;stroke-width:1.0;"/><line style="stroke:#A80036;stroke-width:1.0;stroke-dasharray:2.0,2.0;" x1="35" x2="378" y1="143.6953" y2="143.6953"/><text fill="#000000" font-family="sans-serif" font-size="13" lengthAdjust="spacing" textLength="102" x="47" y="138.6294">OptionDefinition</text><polygon fill="#A80036" points="362,168.8281,372,172.8281,362,176.8281,366,172.8281" style="stroke:#A80036;stroke-width:1.0;"/><line style="stroke:#A80036;stroke-width:1.0;" x1="30" x2="368" y1="172.8281" y2="172.8281"/><text fill="#000000" font-family="sans-serif" font-size="13" lengthAdjust="spacing" textLength="75" x="37" y="167.7622">addSwitch()</text><polygon fill="#A80036" points="41,182.8281,31,186.8281,41,190.8281,37,186.8281" style="stroke:#A80036;stroke-width:1.0;"/><line style="stroke:#A80036;stroke-width:1.0;stroke-dasharray:2.0,2.0;" x1="35" x2="378" y1="186.8281" y2="186.8281"/><polygon fill="#A80036" points="362,211.9609,372,215.9609,362,219.9609,366,215.9609" style="stroke:#A80036;stroke-width:1.0;"/><line style="stroke:#A80036;stroke-width:1.0;" x1="30" x2="368" y1="215.9609" y2="215.9609"/><text fill="#000000" font-family="sans-serif" font-size="13" lengthAdjust="spacing" textLength="87" x="37" y="210.895">addOptional()</text><polygon fill="#A80036" points="41,225.9609,31,229.9609,41,233.9609,37,229.9609" style="stroke:#A80036;stroke-width:1.0;"/><line style="stroke:#A80036;stroke-width:1.0;stroke-dasharray:2.0,2.0;" x1="35" x2="378" y1="229.9609" y2="229.9609"/><polygon fill="#A80036" points="362,255.0938,372,259.0938,362,263.0938,366,259.0938" style="stroke:#A80036;stroke-width:1.0;"/><line style="stroke:#A80036;stroke-width:1.0;" x1="30" x2="368" y1="259.0938" y2="259.0938"/><text fill="#000000" font-family="sans-serif" font-size="13" lengthAdjust="spacing" textLength="90" x="37" y="254.0278">addRequired()</text><polygon fill="#A80036" points="41,269.0938,31,273.0938,41,277.0938,37,273.0938" style="stroke:#A80036;stroke-width:1.0;"/><line style="stroke:#A80036;stroke-width:1.0;stroke-dasharray:2.0,2.0;" x1="35" x2="378" y1="273.0938" y2="273.0938"/><rect fill="#EEEEEE" filter="url(#f5i15omh81xi6)" height="3" style="stroke:#EEEEEE;stroke-width:1.0;" width="723.5" x="0" y="301.6602"/><line style="stroke:#000000;stroke-width:1.0;" x1="0" x2="723.5" y1="301.6602" y2="301.6602"/><line style="stroke:#000000;stroke-width:1.0;" x1="0" x2="723.5" y1="304.6602" y2="304.6602"/><rect fill="#EEEEEE" filter="url(#f5i15omh81xi6)" height="23.1328" style="stroke:#000000;stroke-width:2.0;" width="255" x="234.25" y="291.0938"/><text fill="#000000" font-family="sans-serif" font-size="13" font-weight="bold" lengthAdjust="spacing" textLength="236" x="240.25" y="307.1606">Parse command line arguments</text><polygon fill="#A80036" points="517,341.3594,527,345.3594,517,349.3594,521,345.3594" style="stroke:#A80036;stroke-width:1.0;"/><line style="stroke:#A80036;stroke-width:1.0;" x1="30" x2="523" y1="345.3594" y2="345.3594"/><text fill="#000000" font-family="sans-serif" font-size="13" lengthAdjust="spacing" textLength="148" x="37" y="340.2935">parse(OptionDefinition)</text><polygon fill="#A80036" points="41,370.4922,31,374.4922,41,378.4922,37,374.4922" style="stroke:#A80036;stroke-width:1.0;"/><line style="stroke:#A80036;stroke-width:1.0;stroke-dasharray:2.0,2.0;" x1="35" x2="533" y1="374.4922" y2="374.4922"/><text fill="#000000" font-family="sans-serif" font-size="13" lengthAdjust="spacing" textLength="71" x="47" y="369.4263">Arguments</text><rect fill="#EEEEEE" filter="url(#f5i15omh81xi6)" height="3" style="stroke:#EEEEEE;stroke-width:1.0;" width="723.5" x="0" y="403.0586"/><line style="stroke:#000000;stroke-width:1.0;" x1="0" x2="723.5" y1="403.0586" y2="403.0586"/><line style="stroke:#000000;stroke-width:1.0;" x1="0" x2="723.5" y1="406.0586" y2="406.0586"/><rect fill="#EEEEEE" filter="url(#f5i15omh81xi6)" height="23.1328" style="stroke:#000000;stroke-width:2.0;" width="288" x="217.75" y="392.4922"/><text fill="#000000" font-family="sans-serif" font-size="13" font-weight="bold" lengthAdjust="spacing" textLength="269" x="223.75" y="408.5591">Acquire command line option values</text><polygon fill="#A80036" points="654.5,442.7578,664.5,446.7578,654.5,450.7578,658.5,446.7578" style="stroke:#A80036;stroke-width:1.0;"/><line style="stroke:#A80036;stroke-width:1.0;" x1="30" x2="660.5" y1="446.7578" y2="446.7578"/><text fill="#000000" font-family="sans-serif" font-size="13" lengthAdjust="spacing" textLength="111" x="37" y="441.6919">has(switchName)</text><polygon fill="#A80036" points="41,471.8906,31,475.8906,41,479.8906,37,475.8906" style="stroke:#A80036;stroke-width:1.0;"/><line style="stroke:#A80036;stroke-width:1.0;stroke-dasharray:2.0,2.0;" x1="35" x2="670.5" y1="475.8906" y2="475.8906"/><text fill="#000000" font-family="sans-serif" font-size="13" lengthAdjust="spacing" textLength="27" x="47" y="470.8247">bool</text><polygon fill="#A80036" points="654.5,501.0234,664.5,505.0234,654.5,509.0234,658.5,505.0234" style="stroke:#A80036;stroke-width:1.0;"/><line style="stroke:#A80036;stroke-width:1.0;" x1="30" x2="660.5" y1="505.0234" y2="505.0234"/><text fill="#000000" font-family="sans-serif" font-size="13" lengthAdjust="spacing" textLength="254" x="37" y="499.9575">get&lt;TypeName&gt;(optionalOptionName)</text><polygon fill="#A80036" points="41,530.1563,31,534.1563,41,538.1563,37,534.1563" style="stroke:#A80036;stroke-width:1.0;"/><line style="stroke:#A80036;stroke-width:1.0;stroke-dasharray:2.0,2.0;" x1="35" x2="670.5" y1="534.1563" y2="534.1563"/><text fill="#000000" font-family="sans-serif" font-size="13" lengthAdjust="spacing" textLength="69" x="47" y="529.0903">TypeName</text><polygon fill="#A80036" points="654.5,559.2891,664.5,563.2891,654.5,567.2891,658.5,563.2891" style="stroke:#A80036;stroke-width:1.0;"/><line style="stroke:#A80036;stroke-width:1.0;" x1="30" x2="660.5" y1="563.2891" y2="563.2891"/><text fill="#000000" font-family="sans-serif" font-size="13" lengthAdjust="spacing" textLength="256" x="37" y="558.2231">get&lt;TypeName&gt;(requiredOptionName)</text><polygon fill="#A80036" points="41,588.4219,31,592.4219,41,596.4219,37,592.4219" style="stroke:#A80036;stroke-width:1.0;"/><line style="stroke:#A80036;stroke-width:1.0;stroke-dasharray:2.0,2.0;" x1="35" x2="670.5" y1="592.4219" y2="592.4219"/><text fill="#000000" font-family="sans-serif" font-size="13" lengthAdjust="spacing" textLength="69" x="47" y="587.356">TypeName</text><polygon fill="#A80036" points="654.5,617.5547,664.5,621.5547,654.5,625.5547,658.5,621.5547" style="stroke:#A80036;stroke-width:1.0;"/><line style="stroke:#A80036;stroke-width:1.0;" x1="30" x2="660.5" y1="621.5547" y2="621.5547"/><text fill="#000000" font-family="sans-serif" font-size="13" lengthAdjust="spacing" textLength="88" x="37" y="616.4888">binaryName()</text><polygon fill="#A80036" points="41,646.6875,31,650.6875,41,654.6875,37,650.6875" style="stroke:#A80036;stroke-width:1.0;"/><line style="stroke:#A80036;stroke-width:1.0;stroke-dasharray:2.0,2.0;" x1="35" x2="670.5" y1="650.6875" y2="650.6875"/><text fill="#000000" font-family="sans-serif" font-size="13" lengthAdjust="spacing" textLength="91" x="47" y="645.6216">BinaryName_t</text></g></svg>