<?xml version="1.0" encoding="UTF-8" standalone="no"?><svg xmlns="http://www.w3.org/2000/svg" xmlns:xlink="http://www.w3.org/1999/xlink" contentScriptType="application/ecmascript" contentStyleType="text/css" height="669px" preserveAspectRatio="none" style="width:876px;height:669px;background:#EEEBDC;" version="1.1" viewBox="0 0 876 669" width="876px" zoomAndPan="magnify"><defs><filter height="300%" id="f10pzrlsltgexi" width="300%" x="-1" y="-1"><feGaussianBlur result="blurOut" stdDeviation="2.0"/><feColorMatrix in="blurOut" result="blurOut2" type="matrix" values="0 0 0 0 0 0 0 0 0 0 0 0 0 0 0 0 0 0 .4 0"/><feOffset dx="4.0" dy="4.0" in="blurOut2" result="blurOut3"/><feBlend in="SourceGraphic" in2="blurOut3" mode="normal"/></filter></defs><g><rect fill="#FFFFFF" filter="url(#f10pzrlsltgexi)" height="29.1328" style="stroke:#A80036;stroke-width:1.0;" width="10" x="394" y="114.5625"/><rect fill="#FFFFFF" filter="url(#f10pzrlsltgexi)" height="444.8594" style="stroke:#A80036;stroke-width:1.0;" width="10" x="394" y="172.8281"/><rect fill="#FFFFFF" filter="url(#f10pzrlsltgexi)" height="415.7266" style="stroke:#A80036;stroke-width:1.0;" width="10" x="399" y="201.9609"/><rect fill="#FFFFFF" filter="url(#f10pzrlsltgexi)" height="386.5938" style="stroke:#A80036;stroke-width:1.0;" width="10" x="404" y="231.0938"/><rect fill="#FFFFFF" filter="url(#f10pzrlsltgexi)" height="29.1328" style="stroke:#A80036;stroke-width:1.0;" width="10" x="597.5" y="303.3594"/><rect fill="#FFFFFF" filter="url(#f10pzrlsltgexi)" height="29.1328" style="stroke:#A80036;stroke-width:1.0;" width="10" x="786.5" y="404.7578"/><rect fill="#FFFFFF" filter="url(#f10pzrlsltgexi)" height="29.1328" style="stroke:#A80036;stroke-width:1.0;" width="10" x="786.5" y="463.0234"/><rect fill="#FFFFFF" filter="url(#f10pzrlsltgexi)" height="29.1328" style="stroke:#A80036;stroke-width:1.0;" width="10" x="786.5" y="521.2891"/><rect fill="#FFFFFF" filter="url(#f10pzrlsltgexi)" height="29.1328" style="stroke:#A80036;stroke-width:1.0;" width="10" x="786.5" y="579.5547"/><line style="stroke:#A80036;stroke-width:1.0;stroke-dasharray:5.0,5.0;" x1="29" x2="29" y1="40.2969" y2="626.6875"/><line style="stroke:#A80036;stroke-width:1.0;stroke-dasharray:5.0,5.0;" x1="399" x2="399" y1="40.2969" y2="626.6875"/><line style="stroke:#A80036;stroke-width:1.0;stroke-dasharray:5.0,5.0;" x1="602" x2="602" y1="40.2969" y2="626.6875"/><line style="stroke:#A80036;stroke-width:1.0;stroke-dasharray:5.0,5.0;" x1="791" x2="791" y1="40.2969" y2="626.6875"/><rect fill="#FEFECE" filter="url(#f10pzrlsltgexi)" height="30.2969" style="stroke:#A80036;stroke-width:1.5;" width="44" x="5" y="5"/><text fill="#000000" font-family="sans-serif" font-size="14" lengthAdjust="spacing" textLength="30" x="12" y="24.9951">User</text><rect fill="#FEFECE" filter="url(#f10pzrlsltgexi)" height="30.2969" style="stroke:#A80036;stroke-width:1.5;" width="44" x="5" y="625.6875"/><text fill="#000000" font-family="sans-serif" font-size="14" lengthAdjust="spacing" textLength="30" x="12" y="645.6826">User</text><rect fill="#FEFECE" filter="url(#f10pzrlsltgexi)" height="30.2969" style="stroke:#A80036;stroke-width:1.5;" width="170" x="312" y="5"/><text fill="#000000" font-family="sans-serif" font-size="14" lengthAdjust="spacing" textLength="156" x="319" y="24.9951">CommandLineOptionSet</text><rect fill="#FEFECE" filter="url(#f10pzrlsltgexi)" height="30.2969" style="stroke:#A80036;stroke-width:1.5;" width="170" x="312" y="625.6875"/><text fill="#000000" font-family="sans-serif" font-size="14" lengthAdjust="spacing" textLength="156" x="319" y="645.6826">CommandLineOptionSet</text><rect fill="#FEFECE" filter="url(#f10pzrlsltgexi)" height="30.2969" style="stroke:#A80036;stroke-width:1.5;" width="209" x="496" y="5"/><text fill="#000000" font-family="sans-serif" font-size="14" lengthAdjust="spacing" textLength="195" x="503" y="24.9951">CommandLineArgumentParser</text><rect fill="#FEFECE" filter="url(#f10pzrlsltgexi)" height="30.2969" style="stroke:#A80036;stroke-width:1.5;" width="209" x="496" y="625.6875"/><text fill="#000000" font-family="sans-serif" font-size="14" lengthAdjust="spacing" textLength="195" x="503" y="645.6826">CommandLineArgumentParser</text><rect fill="#FEFECE" filter="url(#f10pzrlsltgexi)" height="30.2969" style="stroke:#A80036;stroke-width:1.5;" width="141" x="719" y="5"/><text fill="#000000" font-family="sans-serif" font-size="14" lengthAdjust="spacing" textLength="127" x="726" y="24.9951">CommandLineValue</text><rect fill="#FEFECE" filter="url(#f10pzrlsltgexi)" height="30.2969" style="stroke:#A80036;stroke-width:1.5;" width="141" x="719" y="625.6875"/><text fill="#000000" font-family="sans-serif" font-size="14" lengthAdjust="spacing" textLength="127" x="726" y="645.6826">CommandLineValue</text><rect fill="#FFFFFF" filter="url(#f10pzrlsltgexi)" height="29.1328" style="stroke:#A80036;stroke-width:1.0;" width="10" x="394" y="114.5625"/><rect fill="#FFFFFF" filter="url(#f10pzrlsltgexi)" height="444.8594" style="stroke:#A80036;stroke-width:1.0;" width="10" x="394" y="172.8281"/><rect fill="#FFFFFF" filter="url(#f10pzrlsltgexi)" height="415.7266" style="stroke:#A80036;stroke-width:1.0;" width="10" x="399" y="201.9609"/><rect fill="#FFFFFF" filter="url(#f10pzrlsltgexi)" height="386.5938" style="stroke:#A80036;stroke-width:1.0;" width="10" x="404" y="231.0938"/><rect fill="#FFFFFF" filter="url(#f10pzrlsltgexi)" height="29.1328" style="stroke:#A80036;stroke-width:1.0;" width="10" x="597.5" y="303.3594"/><rect fill="#FFFFFF" filter="url(#f10pzrlsltgexi)" height="29.1328" style="stroke:#A80036;stroke-width:1.0;" width="10" x="786.5" y="404.7578"/><rect fill="#FFFFFF" filter="url(#f10pzrlsltgexi)" height="29.1328" style="stroke:#A80036;stroke-width:1.0;" width="10" x="786.5" y="463.0234"/><rect fill="#FFFFFF" filter="url(#f10pzrlsltgexi)" height="29.1328" style="stroke:#A80036;stroke-width:1.0;" width="10" x="786.5" y="521.2891"/><rect fill="#FFFFFF" filter="url(#f10pzrlsltgexi)" height="29.1328" style="stroke:#A80036;stroke-width:1.0;" width="10" x="786.5" y="579.5547"/><rect fill="#EEEEEE" filter="url(#f10pzrlsltgexi)" height="3" style="stroke:#EEEEEE;stroke-width:1.0;" width="869" x="0" y="70.8633"/><line style="stroke:#000000;stroke-width:1.0;" x1="0" x2="869" y1="70.8633" y2="70.8633"/><line style="stroke:#000000;stroke-width:1.0;" x1="0" x2="869" y1="73.8633" y2="73.8633"/><rect fill="#EEEEEE" filter="url(#f10pzrlsltgexi)" height="23.1328" style="stroke:#000000;stroke-width:2.0;" width="454" x="207.5" y="60.2969"/><text fill="#000000" font-family="sans-serif" font-size="13" font-weight="bold" lengthAdjust="spacing" textLength="437" x="213.5" y="76.3638">Create a CommandLineOptionSet and define the application options</text><polygon fill="#A80036" points="382,110.5625,392,114.5625,382,118.5625,386,114.5625" style="stroke:#A80036;stroke-width:1.0;"/><line style="stroke:#A80036;stroke-width:1.0;" x1="29" x2="388" y1="114.5625" y2="114.5625"/><text fill="#000000" font-family="sans-serif" font-size="13" lengthAdjust="spacing" textLength="346" x="36" y="109.4966">CommandLineOptionSet(programName, onFailureCallback)</text><polygon fill="#A80036" points="40,139.6953,30,143.6953,40,147.6953,36,143.6953" style="stroke:#A80036;stroke-width:1.0;"/><line style="stroke:#A80036;stroke-width:1.0;stroke-dasharray:2.0,2.0;" x1="34" x2="398" y1="143.6953" y2="143.6953"/><text fill="#000000" font-family="sans-serif" font-size="13" lengthAdjust="spacing" textLength="144" x="46" y="138.6294">CommandLineOptionSet</text><polygon fill="#A80036" points="382,168.8281,392,172.8281,382,176.8281,386,172.8281" style="stroke:#A80036;stroke-width:1.0;"/><line style="stroke:#A80036;stroke-width:1.0;" x1="29" x2="388" y1="172.8281" y2="172.8281"/><text fill="#000000" font-family="sans-serif" font-size="13" lengthAdjust="spacing" textLength="69" x="36" y="167.7622">addSwitch()</text><polygon fill="#A80036" points="387,197.9609,397,201.9609,387,205.9609,391,201.9609" style="stroke:#A80036;stroke-width:1.0;"/><line style="stroke:#A80036;stroke-width:1.0;" x1="29" x2="393" y1="201.9609" y2="201.9609"/><text fill="#000000" font-family="sans-serif" font-size="13" lengthAdjust="spacing" textLength="82" x="36" y="196.895">addOptional()</text><polygon fill="#A80036" points="392,227.0938,402,231.0938,392,235.0938,396,231.0938" style="stroke:#A80036;stroke-width:1.0;"/><line style="stroke:#A80036;stroke-width:1.0;" x1="29" x2="398" y1="231.0938" y2="231.0938"/><text fill="#000000" font-family="sans-serif" font-size="13" lengthAdjust="spacing" textLength="85" x="36" y="226.0278">addRequired()</text><rect fill="#EEEEEE" filter="url(#f10pzrlsltgexi)" height="3" style="stroke:#EEEEEE;stroke-width:1.0;" width="869" x="0" y="259.6602"/><line style="stroke:#000000;stroke-width:1.0;" x1="0" x2="869" y1="259.6602" y2="259.6602"/><line style="stroke:#000000;stroke-width:1.0;" x1="0" x2="869" y1="262.6602" y2="262.6602"/><rect fill="#EEEEEE" filter="url(#f10pzrlsltgexi)" height="23.1328" style="stroke:#000000;stroke-width:2.0;" width="218" x="325.5" y="249.0938"/><text fill="#000000" font-family="sans-serif" font-size="13" font-weight="bold" lengthAdjust="spacing" textLength="201" x="331.5" y="265.1606">Parse command line arguments</text><polygon fill="#A80036" points="585.5,299.3594,595.5,303.3594,585.5,307.3594,589.5,303.3594" style="stroke:#A80036;stroke-width:1.0;"/><line style="stroke:#A80036;stroke-width:1.0;" x1="29" x2="591.5" y1="303.3594" y2="303.3594"/><text fill="#000000" font-family="sans-serif" font-size="13" lengthAdjust="spacing" textLength="185" x="36" y="298.2935">parse(CommandLineOptionSet)</text><polygon fill="#A80036" points="40,328.4922,30,332.4922,40,336.4922,36,332.4922" style="stroke:#A80036;stroke-width:1.0;"/><line style="stroke:#A80036;stroke-width:1.0;stroke-dasharray:2.0,2.0;" x1="34" x2="601.5" y1="332.4922" y2="332.4922"/><text fill="#000000" font-family="sans-serif" font-size="13" lengthAdjust="spacing" textLength="117" x="46" y="327.4263">CommandLineValue</text><rect fill="#EEEEEE" filter="url(#f10pzrlsltgexi)" height="3" style="stroke:#EEEEEE;stroke-width:1.0;" width="869" x="0" y="361.0586"/><line style="stroke:#000000;stroke-width:1.0;" x1="0" x2="869" y1="361.0586" y2="361.0586"/><line style="stroke:#000000;stroke-width:1.0;" x1="0" x2="869" y1="364.0586" y2="364.0586"/><rect fill="#EEEEEE" filter="url(#f10pzrlsltgexi)" height="23.1328" style="stroke:#000000;stroke-width:2.0;" width="248" x="310.5" y="350.4922"/><text fill="#000000" font-family="sans-serif" font-size="13" font-weight="bold" lengthAdjust="spacing" textLength="231" x="316.5" y="366.5591">Acquire command line option values</text><polygon fill="#A80036" points="774.5,400.7578,784.5,404.7578,774.5,408.7578,778.5,404.7578" style="stroke:#A80036;stroke-width:1.0;"/><line style="stroke:#A80036;stroke-width:1.0;" x1="29" x2="780.5" y1="404.7578" y2="404.7578"/><text fill="#000000" font-family="sans-serif" font-size="13" lengthAdjust="spacing" textLength="100" x="36" y="399.6919">has(switchName)</text><polygon fill="#A80036" points="40,429.8906,30,433.8906,40,437.8906,36,433.8906" style="stroke:#A80036;stroke-width:1.0;"/><line style="stroke:#A80036;stroke-width:1.0;stroke-dasharray:2.0,2.0;" x1="34" x2="790.5" y1="433.8906" y2="433.8906"/><text fill="#000000" font-family="sans-serif" font-size="13" lengthAdjust="spacing" textLength="27" x="46" y="428.8247">bool</text><polygon fill="#A80036" points="774.5,459.0234,784.5,463.0234,774.5,467.0234,778.5,463.0234" style="stroke:#A80036;stroke-width:1.0;"/><line style="stroke:#A80036;stroke-width:1.0;" x1="29" x2="780.5" y1="463.0234" y2="463.0234"/><text fill="#000000" font-family="sans-serif" font-size="13" lengthAdjust="spacing" textLength="226" x="36" y="457.9575">get&lt;TypeName&gt;(optionalOptionName)</text><polygon fill="#A80036" points="40,488.1563,30,492.1563,40,496.1563,36,492.1563" style="stroke:#A80036;stroke-width:1.0;"/><line style="stroke:#A80036;stroke-width:1.0;stroke-dasharray:2.0,2.0;" x1="34" x2="790.5" y1="492.1563" y2="492.1563"/><text fill="#000000" font-family="sans-serif" font-size="13" lengthAdjust="spacing" textLength="62" x="46" y="487.0903">TypeName</text><polygon fill="#A80036" points="774.5,517.2891,784.5,521.2891,774.5,525.2891,778.5,521.2891" style="stroke:#A80036;stroke-width:1.0;"/><line style="stroke:#A80036;stroke-width:1.0;" x1="29" x2="780.5" y1="521.2891" y2="521.2891"/><text fill="#000000" font-family="sans-serif" font-size="13" lengthAdjust="spacing" textLength="228" x="36" y="516.2231">get&lt;TypeName&gt;(requiredOptionName)</text><polygon fill="#A80036" points="40,546.4219,30,550.4219,40,554.4219,36,550.4219" style="stroke:#A80036;stroke-width:1.0;"/><line style="stroke:#A80036;stroke-width:1.0;stroke-dasharray:2.0,2.0;" x1="34" x2="790.5" y1="550.4219" y2="550.4219"/><text fill="#000000" font-family="sans-serif" font-size="13" lengthAdjust="spacing" textLength="62" x="46" y="545.356">TypeName</text><polygon fill="#A80036" points="774.5,575.5547,784.5,579.5547,774.5,583.5547,778.5,579.5547" style="stroke:#A80036;stroke-width:1.0;"/><line style="stroke:#A80036;stroke-width:1.0;" x1="29" x2="780.5" y1="579.5547" y2="579.5547"/><text fill="#000000" font-family="sans-serif" font-size="13" lengthAdjust="spacing" textLength="79" x="36" y="574.4888">binaryName()</text><polygon fill="#A80036" points="40,604.6875,30,608.6875,40,612.6875,36,608.6875" style="stroke:#A80036;stroke-width:1.0;"/><line style="stroke:#A80036;stroke-width:1.0;stroke-dasharray:2.0,2.0;" x1="34" x2="790.5" y1="608.6875" y2="608.6875"/><text fill="#000000" font-family="sans-serif" font-size="13" lengthAdjust="spacing" textLength="80" x="46" y="603.6216">BinaryName_t</text></g></svg>