<?xml version="1.0" encoding="UTF-8" standalone="no"?><svg xmlns="http://www.w3.org/2000/svg" xmlns:xlink="http://www.w3.org/1999/xlink" contentScriptType="application/ecmascript" contentStyleType="text/css" height="711px" preserveAspectRatio="none" style="width:920px;height:711px;background:#EEEBDC;" version="1.1" viewBox="0 0 920 711" width="920px" zoomAndPan="magnify"><defs><filter height="300%" id="fjnwzesh0bqqc" width="300%" x="-1" y="-1"><feGaussianBlur result="blurOut" stdDeviation="2.0"/><feColorMatrix in="blurOut" result="blurOut2" type="matrix" values="0 0 0 0 0 0 0 0 0 0 0 0 0 0 0 0 0 0 .4 0"/><feOffset dx="4.0" dy="4.0" in="blurOut2" result="blurOut3"/><feBlend in="SourceGraphic" in2="blurOut3" mode="normal"/></filter></defs><g><rect fill="#FFFFFF" filter="url(#fjnwzesh0bqqc)" height="29.1328" style="stroke:#A80036;stroke-width:1.0;" width="10" x="394" y="114.5625"/><rect fill="#FFFFFF" filter="url(#fjnwzesh0bqqc)" height="14" style="stroke:#A80036;stroke-width:1.0;" width="10" x="394" y="172.8281"/><rect fill="#FFFFFF" filter="url(#fjnwzesh0bqqc)" height="14" style="stroke:#A80036;stroke-width:1.0;" width="10" x="394" y="215.9609"/><rect fill="#FFFFFF" filter="url(#fjnwzesh0bqqc)" height="14" style="stroke:#A80036;stroke-width:1.0;" width="10" x="394" y="259.0938"/><rect fill="#FFFFFF" filter="url(#fjnwzesh0bqqc)" height="29.1328" style="stroke:#A80036;stroke-width:1.0;" width="10" x="597.5" y="345.3594"/><rect fill="#FFFFFF" filter="url(#fjnwzesh0bqqc)" height="29.1328" style="stroke:#A80036;stroke-width:1.0;" width="10" x="808.5" y="446.7578"/><rect fill="#FFFFFF" filter="url(#fjnwzesh0bqqc)" height="29.1328" style="stroke:#A80036;stroke-width:1.0;" width="10" x="808.5" y="505.0234"/><rect fill="#FFFFFF" filter="url(#fjnwzesh0bqqc)" height="29.1328" style="stroke:#A80036;stroke-width:1.0;" width="10" x="808.5" y="563.2891"/><rect fill="#FFFFFF" filter="url(#fjnwzesh0bqqc)" height="29.1328" style="stroke:#A80036;stroke-width:1.0;" width="10" x="808.5" y="621.5547"/><line style="stroke:#A80036;stroke-width:1.0;stroke-dasharray:5.0,5.0;" x1="29" x2="29" y1="40.2969" y2="668.6875"/><line style="stroke:#A80036;stroke-width:1.0;stroke-dasharray:5.0,5.0;" x1="399" x2="399" y1="40.2969" y2="668.6875"/><line style="stroke:#A80036;stroke-width:1.0;stroke-dasharray:5.0,5.0;" x1="602" x2="602" y1="40.2969" y2="668.6875"/><line style="stroke:#A80036;stroke-width:1.0;stroke-dasharray:5.0,5.0;" x1="813" x2="813" y1="40.2969" y2="668.6875"/><rect fill="#FEFECE" filter="url(#fjnwzesh0bqqc)" height="30.2969" style="stroke:#A80036;stroke-width:1.5;" width="44" x="5" y="5"/><text fill="#000000" font-family="sans-serif" font-size="14" lengthAdjust="spacing" textLength="30" x="12" y="24.9951">User</text><rect fill="#FEFECE" filter="url(#fjnwzesh0bqqc)" height="30.2969" style="stroke:#A80036;stroke-width:1.5;" width="44" x="5" y="667.6875"/><text fill="#000000" font-family="sans-serif" font-size="14" lengthAdjust="spacing" textLength="30" x="12" y="687.6826">User</text><rect fill="#FEFECE" filter="url(#fjnwzesh0bqqc)" height="30.2969" style="stroke:#A80036;stroke-width:1.5;" width="170" x="312" y="5"/><text fill="#000000" font-family="sans-serif" font-size="14" lengthAdjust="spacing" textLength="156" x="319" y="24.9951">CommandLineOptionSet</text><rect fill="#FEFECE" filter="url(#fjnwzesh0bqqc)" height="30.2969" style="stroke:#A80036;stroke-width:1.5;" width="170" x="312" y="667.6875"/><text fill="#000000" font-family="sans-serif" font-size="14" lengthAdjust="spacing" textLength="156" x="319" y="687.6826">CommandLineOptionSet</text><rect fill="#FEFECE" filter="url(#fjnwzesh0bqqc)" height="30.2969" style="stroke:#A80036;stroke-width:1.5;" width="209" x="496" y="5"/><text fill="#000000" font-family="sans-serif" font-size="14" lengthAdjust="spacing" textLength="195" x="503" y="24.9951">CommandLineArgumentParser</text><rect fill="#FEFECE" filter="url(#fjnwzesh0bqqc)" height="30.2969" style="stroke:#A80036;stroke-width:1.5;" width="209" x="496" y="667.6875"/><text fill="#000000" font-family="sans-serif" font-size="14" lengthAdjust="spacing" textLength="195" x="503" y="687.6826">CommandLineArgumentParser</text><rect fill="#FEFECE" filter="url(#fjnwzesh0bqqc)" height="30.2969" style="stroke:#A80036;stroke-width:1.5;" width="185" x="719" y="5"/><text fill="#000000" font-family="sans-serif" font-size="14" lengthAdjust="spacing" textLength="171" x="726" y="24.9951">CommandLineOptionValue</text><rect fill="#FEFECE" filter="url(#fjnwzesh0bqqc)" height="30.2969" style="stroke:#A80036;stroke-width:1.5;" width="185" x="719" y="667.6875"/><text fill="#000000" font-family="sans-serif" font-size="14" lengthAdjust="spacing" textLength="171" x="726" y="687.6826">CommandLineOptionValue</text><rect fill="#FFFFFF" filter="url(#fjnwzesh0bqqc)" height="29.1328" style="stroke:#A80036;stroke-width:1.0;" width="10" x="394" y="114.5625"/><rect fill="#FFFFFF" filter="url(#fjnwzesh0bqqc)" height="14" style="stroke:#A80036;stroke-width:1.0;" width="10" x="394" y="172.8281"/><rect fill="#FFFFFF" filter="url(#fjnwzesh0bqqc)" height="14" style="stroke:#A80036;stroke-width:1.0;" width="10" x="394" y="215.9609"/><rect fill="#FFFFFF" filter="url(#fjnwzesh0bqqc)" height="14" style="stroke:#A80036;stroke-width:1.0;" width="10" x="394" y="259.0938"/><rect fill="#FFFFFF" filter="url(#fjnwzesh0bqqc)" height="29.1328" style="stroke:#A80036;stroke-width:1.0;" width="10" x="597.5" y="345.3594"/><rect fill="#FFFFFF" filter="url(#fjnwzesh0bqqc)" height="29.1328" style="stroke:#A80036;stroke-width:1.0;" width="10" x="808.5" y="446.7578"/><rect fill="#FFFFFF" filter="url(#fjnwzesh0bqqc)" height="29.1328" style="stroke:#A80036;stroke-width:1.0;" width="10" x="808.5" y="505.0234"/><rect fill="#FFFFFF" filter="url(#fjnwzesh0bqqc)" height="29.1328" style="stroke:#A80036;stroke-width:1.0;" width="10" x="808.5" y="563.2891"/><rect fill="#FFFFFF" filter="url(#fjnwzesh0bqqc)" height="29.1328" style="stroke:#A80036;stroke-width:1.0;" width="10" x="808.5" y="621.5547"/><rect fill="#EEEEEE" filter="url(#fjnwzesh0bqqc)" height="3" style="stroke:#EEEEEE;stroke-width:1.0;" width="913" x="0" y="70.8633"/><line style="stroke:#000000;stroke-width:1.0;" x1="0" x2="913" y1="70.8633" y2="70.8633"/><line style="stroke:#000000;stroke-width:1.0;" x1="0" x2="913" y1="73.8633" y2="73.8633"/><rect fill="#EEEEEE" filter="url(#fjnwzesh0bqqc)" height="23.1328" style="stroke:#000000;stroke-width:2.0;" width="454" x="229.5" y="60.2969"/><text fill="#000000" font-family="sans-serif" font-size="13" font-weight="bold" lengthAdjust="spacing" textLength="437" x="235.5" y="76.3638">Create a CommandLineOptionSet and define the application options</text><polygon fill="#A80036" points="382,110.5625,392,114.5625,382,118.5625,386,114.5625" style="stroke:#A80036;stroke-width:1.0;"/><line style="stroke:#A80036;stroke-width:1.0;" x1="29" x2="388" y1="114.5625" y2="114.5625"/><text fill="#000000" font-family="sans-serif" font-size="13" lengthAdjust="spacing" textLength="346" x="36" y="109.4966">CommandLineOptionSet(programName, onFailureCallback)</text><polygon fill="#A80036" points="40,139.6953,30,143.6953,40,147.6953,36,143.6953" style="stroke:#A80036;stroke-width:1.0;"/><line style="stroke:#A80036;stroke-width:1.0;stroke-dasharray:2.0,2.0;" x1="34" x2="398" y1="143.6953" y2="143.6953"/><text fill="#000000" font-family="sans-serif" font-size="13" lengthAdjust="spacing" textLength="144" x="46" y="138.6294">CommandLineOptionSet</text><polygon fill="#A80036" points="382,168.8281,392,172.8281,382,176.8281,386,172.8281" style="stroke:#A80036;stroke-width:1.0;"/><line style="stroke:#A80036;stroke-width:1.0;" x1="29" x2="388" y1="172.8281" y2="172.8281"/><text fill="#000000" font-family="sans-serif" font-size="13" lengthAdjust="spacing" textLength="69" x="36" y="167.7622">addSwitch()</text><polygon fill="#A80036" points="40,182.8281,30,186.8281,40,190.8281,36,186.8281" style="stroke:#A80036;stroke-width:1.0;"/><line style="stroke:#A80036;stroke-width:1.0;stroke-dasharray:2.0,2.0;" x1="34" x2="398" y1="186.8281" y2="186.8281"/><polygon fill="#A80036" points="382,211.9609,392,215.9609,382,219.9609,386,215.9609" style="stroke:#A80036;stroke-width:1.0;"/><line style="stroke:#A80036;stroke-width:1.0;" x1="29" x2="388" y1="215.9609" y2="215.9609"/><text fill="#000000" font-family="sans-serif" font-size="13" lengthAdjust="spacing" textLength="82" x="36" y="210.895">addOptional()</text><polygon fill="#A80036" points="40,225.9609,30,229.9609,40,233.9609,36,229.9609" style="stroke:#A80036;stroke-width:1.0;"/><line style="stroke:#A80036;stroke-width:1.0;stroke-dasharray:2.0,2.0;" x1="34" x2="398" y1="229.9609" y2="229.9609"/><polygon fill="#A80036" points="382,255.0938,392,259.0938,382,263.0938,386,259.0938" style="stroke:#A80036;stroke-width:1.0;"/><line style="stroke:#A80036;stroke-width:1.0;" x1="29" x2="388" y1="259.0938" y2="259.0938"/><text fill="#000000" font-family="sans-serif" font-size="13" lengthAdjust="spacing" textLength="85" x="36" y="254.0278">addRequired()</text><polygon fill="#A80036" points="40,269.0938,30,273.0938,40,277.0938,36,273.0938" style="stroke:#A80036;stroke-width:1.0;"/><line style="stroke:#A80036;stroke-width:1.0;stroke-dasharray:2.0,2.0;" x1="34" x2="398" y1="273.0938" y2="273.0938"/><rect fill="#EEEEEE" filter="url(#fjnwzesh0bqqc)" height="3" style="stroke:#EEEEEE;stroke-width:1.0;" width="913" x="0" y="301.6602"/><line style="stroke:#000000;stroke-width:1.0;" x1="0" x2="913" y1="301.6602" y2="301.6602"/><line style="stroke:#000000;stroke-width:1.0;" x1="0" x2="913" y1="304.6602" y2="304.6602"/><rect fill="#EEEEEE" filter="url(#fjnwzesh0bqqc)" height="23.1328" style="stroke:#000000;stroke-width:2.0;" width="218" x="347.5" y="291.0938"/><text fill="#000000" font-family="sans-serif" font-size="13" font-weight="bold" lengthAdjust="spacing" textLength="201" x="353.5" y="307.1606">Parse command line arguments</text><polygon fill="#A80036" points="585.5,341.3594,595.5,345.3594,585.5,349.3594,589.5,345.3594" style="stroke:#A80036;stroke-width:1.0;"/><line style="stroke:#A80036;stroke-width:1.0;" x1="29" x2="591.5" y1="345.3594" y2="345.3594"/><text fill="#000000" font-family="sans-serif" font-size="13" lengthAdjust="spacing" textLength="185" x="36" y="340.2935">parse(CommandLineOptionSet)</text><polygon fill="#A80036" points="40,370.4922,30,374.4922,40,378.4922,36,374.4922" style="stroke:#A80036;stroke-width:1.0;"/><line style="stroke:#A80036;stroke-width:1.0;stroke-dasharray:2.0,2.0;" x1="34" x2="601.5" y1="374.4922" y2="374.4922"/><text fill="#000000" font-family="sans-serif" font-size="13" lengthAdjust="spacing" textLength="158" x="46" y="369.4263">CommandLineOptionValue</text><rect fill="#EEEEEE" filter="url(#fjnwzesh0bqqc)" height="3" style="stroke:#EEEEEE;stroke-width:1.0;" width="913" x="0" y="403.0586"/><line style="stroke:#000000;stroke-width:1.0;" x1="0" x2="913" y1="403.0586" y2="403.0586"/><line style="stroke:#000000;stroke-width:1.0;" x1="0" x2="913" y1="406.0586" y2="406.0586"/><rect fill="#EEEEEE" filter="url(#fjnwzesh0bqqc)" height="23.1328" style="stroke:#000000;stroke-width:2.0;" width="248" x="332.5" y="392.4922"/><text fill="#000000" font-family="sans-serif" font-size="13" font-weight="bold" lengthAdjust="spacing" textLength="231" x="338.5" y="408.5591">Acquire command line option values</text><polygon fill="#A80036" points="796.5,442.7578,806.5,446.7578,796.5,450.7578,800.5,446.7578" style="stroke:#A80036;stroke-width:1.0;"/><line style="stroke:#A80036;stroke-width:1.0;" x1="29" x2="802.5" y1="446.7578" y2="446.7578"/><text fill="#000000" font-family="sans-serif" font-size="13" lengthAdjust="spacing" textLength="100" x="36" y="441.6919">has(switchName)</text><polygon fill="#A80036" points="40,471.8906,30,475.8906,40,479.8906,36,475.8906" style="stroke:#A80036;stroke-width:1.0;"/><line style="stroke:#A80036;stroke-width:1.0;stroke-dasharray:2.0,2.0;" x1="34" x2="812.5" y1="475.8906" y2="475.8906"/><text fill="#000000" font-family="sans-serif" font-size="13" lengthAdjust="spacing" textLength="27" x="46" y="470.8247">bool</text><polygon fill="#A80036" points="796.5,501.0234,806.5,505.0234,796.5,509.0234,800.5,505.0234" style="stroke:#A80036;stroke-width:1.0;"/><line style="stroke:#A80036;stroke-width:1.0;" x1="29" x2="802.5" y1="505.0234" y2="505.0234"/><text fill="#000000" font-family="sans-serif" font-size="13" lengthAdjust="spacing" textLength="226" x="36" y="499.9575">get&lt;TypeName&gt;(optionalOptionName)</text><polygon fill="#A80036" points="40,530.1563,30,534.1563,40,538.1563,36,534.1563" style="stroke:#A80036;stroke-width:1.0;"/><line style="stroke:#A80036;stroke-width:1.0;stroke-dasharray:2.0,2.0;" x1="34" x2="812.5" y1="534.1563" y2="534.1563"/><text fill="#000000" font-family="sans-serif" font-size="13" lengthAdjust="spacing" textLength="62" x="46" y="529.0903">TypeName</text><polygon fill="#A80036" points="796.5,559.2891,806.5,563.2891,796.5,567.2891,800.5,563.2891" style="stroke:#A80036;stroke-width:1.0;"/><line style="stroke:#A80036;stroke-width:1.0;" x1="29" x2="802.5" y1="563.2891" y2="563.2891"/><text fill="#000000" font-family="sans-serif" font-size="13" lengthAdjust="spacing" textLength="228" x="36" y="558.2231">get&lt;TypeName&gt;(requiredOptionName)</text><polygon fill="#A80036" points="40,588.4219,30,592.4219,40,596.4219,36,592.4219" style="stroke:#A80036;stroke-width:1.0;"/><line style="stroke:#A80036;stroke-width:1.0;stroke-dasharray:2.0,2.0;" x1="34" x2="812.5" y1="592.4219" y2="592.4219"/><text fill="#000000" font-family="sans-serif" font-size="13" lengthAdjust="spacing" textLength="62" x="46" y="587.356">TypeName</text><polygon fill="#A80036" points="796.5,617.5547,806.5,621.5547,796.5,625.5547,800.5,621.5547" style="stroke:#A80036;stroke-width:1.0;"/><line style="stroke:#A80036;stroke-width:1.0;" x1="29" x2="802.5" y1="621.5547" y2="621.5547"/><text fill="#000000" font-family="sans-serif" font-size="13" lengthAdjust="spacing" textLength="79" x="36" y="616.4888">binaryName()</text><polygon fill="#A80036" points="40,646.6875,30,650.6875,40,654.6875,36,650.6875" style="stroke:#A80036;stroke-width:1.0;"/><line style="stroke:#A80036;stroke-width:1.0;stroke-dasharray:2.0,2.0;" x1="34" x2="812.5" y1="650.6875" y2="650.6875"/><text fill="#000000" font-family="sans-serif" font-size="13" lengthAdjust="spacing" textLength="80" x="46" y="645.6216">BinaryName_t</text></g></svg>