<?xml version="1.0" encoding="UTF-8" standalone="no"?>
<svg
   viewBox="0 0 281.3122 91.126801"
   version="1.1"
   id="svg4"
   sodipodi:docname="eclipse-logo.svg"
   inkscape:version="1.3.2 (091e20ef0f, 2023-11-25, custom)"
   width="281.31219"
   height="91.126801"
   xmlns:inkscape="http://www.inkscape.org/namespaces/inkscape"
   xmlns:sodipodi="http://sodipodi.sourceforge.net/DTD/sodipodi-0.dtd"
   xmlns="http://www.w3.org/2000/svg"
   xmlns:svg="http://www.w3.org/2000/svg"
   xmlns:rdf="http://www.w3.org/1999/02/22-rdf-syntax-ns#"
   xmlns:cc="http://creativecommons.org/ns#"
   xmlns:dc="http://purl.org/dc/elements/1.1/">
  <sodipodi:namedview
     id="namedview4"
     pagecolor="#ffffff"
     bordercolor="#000000"
     borderopacity="0.25"
     inkscape:showpageshadow="2"
     inkscape:pageopacity="0.0"
     inkscape:pagecheckerboard="0"
     inkscape:deskcolor="#d1d1d1"
     inkscape:zoom="3.0375272"
     inkscape:cx="118.18824"
     inkscape:cy="5.4320501"
     inkscape:window-width="1903"
     inkscape:window-height="1199"
     inkscape:window-x="0"
     inkscape:window-y="0"
     inkscape:window-maximized="1"
     inkscape:current-layer="svg4" />
  <defs
     id="defs1">
    <style
       id="style1">.cls-1{fill:#f79422;}.cls-2{fill:#fff;}</style>
  </defs>
  <title
     id="title1">EF_all_colours_ai</title>
  <g
     id="Layer_1"
     data-name="Layer 1"
     transform="translate(-50.847801,-47.333203)">
    <path
       class="cls-1"
       d="m 316.56,131.3 -8.67,-11 h -2.71 V 138 h 3.34 v -12 l 9.31,12 h 2.07 v -17.69 h -3.34 z M 284.15,123 c 4.17,0 5.84,3.34 5.79,6.33 -0.05,2.99 -1.62,6 -5.79,6 -4.17,0 -5.74,-3.11 -5.81,-6 -0.07,-2.89 1.66,-6.33 5.81,-6.33 z m 0,-3 c -6.12,0 -9.1,4.68 -9.1,9.33 0,4.65 2.88,9.13 9.1,9.13 6.22,0 9,-4.58 9.08,-9.16 0.08,-4.58 -2.98,-9.3 -9.08,-9.3 z m -21.23,18 V 120.31 H 259.6 V 138 Z m -23.56,0 h 3.34 v -14.66 h 5.61 v -3 h -14.57 v 3 h 5.62 z m -18.91,-6.44 h -6.58 l 3.29,-7.56 z m 2.83,6.44 h 3.64 L 219,120.31 h -3.64 L 207.4,138 h 3.6 l 1.51,-3.33 h 9.26 z m -38,-14.56 h 3.64 c 3.85,0 5.46,2.76 5.54,5.52 0.08,2.76 -1.52,5.83 -5.54,5.83 h -3.64 z m 3.64,-3.16 H 182 V 138 h 6.95 c 6.2,0 8.93,-4.52 8.85,-9 -0.08,-4.48 -2.8,-8.69 -8.88,-8.69 z m -22.37,11 -8.67,-11 h -2.71 V 138 h 3.34 v -12 l 9.3,12 h 2.08 v -17.69 h -3.34 z m -27.46,-10.94 v 10.16 c 0,3 -1.56,4.88 -4.32,4.88 -2.76,0 -4.58,-1.69 -4.58,-4.88 v -10.14 h -3.31 v 10.14 c 0,5.33 3.62,7.91 7.86,7.91 4.45,0 7.67,-2.68 7.67,-7.91 v -10.14 z m -33,2.65 c 4.17,0 5.84,3.34 5.79,6.33 -0.05,2.99 -1.62,6 -5.79,6 -4.17,0 -5.74,-3.11 -5.82,-6 -0.08,-2.89 1.66,-6.32 5.83,-6.32 z m 0,-3 c -6.12,0 -9.1,4.68 -9.1,9.33 0,4.65 2.88,9.13 9.1,9.13 6.22,0 9,-4.58 9.08,-9.16 0.08,-4.58 -2.98,-9.29 -9.07,-9.29 z M 76.32,138 v -6.54 h 8.87 v -3.06 h -8.87 v -4.83 h 9.38 v -3.21 H 73 V 138 Z"
       id="path1" />
    <path
       class="cls-2"
       d="m 320.23,101.75 h -22.17 v -8.91 h 21.38 V 85.9 h -21.38 v -9.14 h 22.17 v -7.22 h -29.56 v 39.54 h 29.56 z m -40,-25.66 c -3,-6.1 -9.36,-7.84 -15.51,-7.84 -7.28,0 -15.29,3.38 -15.29,11.5 0,8.86 7.45,11 15.51,12 5.25,0.56 9.14,2.09 9.14,5.81 0,4.29 -4.4,5.92 -9.08,5.92 -4.68,0 -9.36,-1.92 -11.11,-6.26 l -6.21,3.22 c 2.94,7.22 9.14,9.7 17.21,9.7 8.8,0 16.58,-3.78 16.58,-12.58 0,-9.42 -7.67,-11.56 -15.91,-12.58 -4.73,-0.56 -8.79,-1.52 -8.79,-5 0,-2.93 2.65,-5.25 8.17,-5.25 4.29,0 8,2.15 9.37,4.4 z m -53.34,-6.55 c -6.21,-0.05 -12.41,0 -18.62,0 v 39.54 h 7.45 V 97.46 h 11.17 c 19.36,0 19.31,-27.92 0.02,-27.92 z m -11.17,7.11 h 11.17 c 9.47,0 9.53,14 0,14 h -11.15 z m -18,32.43 V 69.54 h -7.39 v 39.54 z m -44,-39.54 v 39.54 h 27.75 V 102.2 H 161.22 V 69.54 Z M 141.55,99 a 14.53,14.53 0 0 1 -9.92,4 c -9.76,0 -13.54,-6.82 -13.6,-13.37 -0.06,-6.55 4.06,-13.7 13.6,-13.7 a 13.56,13.56 0 0 1 9.53,3.72 l 5,-4.79 a 20.35,20.35 0 0 0 -14.49,-6 c -14.27,0 -21,10.49 -20.93,20.81 0.07,10.32 6.26,20.33 20.89,20.33 a 20.83,20.83 0 0 0 15,-5.87 z m -39,2.76 H 80.37 v -8.92 h 21.38 V 85.9 H 80.37 v -9.14 h 22.17 V 69.54 H 73 v 39.54 h 29.56 z"
       id="path2" />
    <path
       class="cls-1"
       d="m 60.66,65.52 c 9,-14.1 27.15,-19 42.25,-12.25 l -1,-0.69 a 33.16108,33.16108 0 1 0 -35.8,55.83 l 1.05,0.63 C 54.69,98.14 51.61,79.63 60.66,65.52 Z"
       id="path3" />
    <path
       class="cls-2"
       d="m 323,73.41 v 0 a 4.58,4.58 0 1 1 9.16,0 v 0 a 4.58,4.58 0 1 1 -9.16,0 z m 8.63,0 v 0 a 4.05,4.05 0 1 0 -8.1,0 v 0 a 4,4 0 0 0 4.05,4.08 4.07,4.07 0 0 0 4.09,-4.11 z m -5.94,-2.47 H 328 c 1.11,0 1.92,0.5 1.92,1.58 A 1.46,1.46 0 0 1 328.83,74 l 1.17,1.67 h -1.39 l -1,-1.5 h -0.74 v 1.5 h -1.15 z m 2.15,2.31 c 0.53,0 0.82,-0.26 0.82,-0.65 0,-0.39 -0.32,-0.66 -0.82,-0.66 h -1 v 1.31 z"
       id="path4" />
  </g>
  <metadata
     id="metadata4">
    <rdf:RDF>
      <cc:Work
         rdf:about="">
        <dc:title>EF_all_colours_ai</dc:title>
      </cc:Work>
    </rdf:RDF>
  </metadata>
</svg>
