<?xml version="1.0" encoding="UTF-8" standalone="no"?>
<!-- Created with Inkscape (http://www.inkscape.org/) -->

<svg
   width="152.19171mm"
   height="62.630711mm"
   viewBox="0 0 152.19171 62.630713"
   version="1.1"
   id="svg1"
   inkscape:version="1.3.2 (091e20ef0f, 2023-11-25, custom)"
   sodipodi:docname="ekxide.svg"
   xmlns:inkscape="http://www.inkscape.org/namespaces/inkscape"
   xmlns:sodipodi="http://sodipodi.sourceforge.net/DTD/sodipodi-0.dtd"
   xmlns="http://www.w3.org/2000/svg"
   xmlns:svg="http://www.w3.org/2000/svg">
  <sodipodi:namedview
     id="namedview1"
     pagecolor="#ffffff"
     bordercolor="#888888"
     borderopacity="1"
     inkscape:showpageshadow="2"
     inkscape:pageopacity="0.0"
     inkscape:pagecheckerboard="true"
     inkscape:deskcolor="#ffffff"
     inkscape:document-units="mm"
     showborder="false"
     shape-rendering="auto"
     inkscape:zoom="0.33463978"
     inkscape:cx="-25.400447"
     inkscape:cy="327.21752"
     inkscape:window-width="1903"
     inkscape:window-height="1199"
     inkscape:window-x="0"
     inkscape:window-y="0"
     inkscape:window-maximized="1"
     inkscape:current-layer="layer1" />
  <defs
     id="defs1">
    <inkscape:path-effect
       effect="fillet_chamfer"
       id="path-effect47"
       is_visible="true"
       lpeversion="1"
       nodesatellites_param="F,0,0,1,0,0,0,1 @ F,0,0,1,0,7,0,1 @ F,0,0,1,0,0,0,1 @ F,0,0,1,0,0,0,1 @ F,0,0,1,0,6,0,1 @ F,0,0,1,0,0,0,1"
       radius="0"
       unit="px"
       method="auto"
       mode="F"
       chamfer_steps="1"
       flexible="false"
       use_knot_distance="true"
       apply_no_radius="true"
       apply_with_radius="true"
       only_selected="false"
       hide_knots="false" />
    <inkscape:path-effect
       effect="fillet_chamfer"
       id="path-effect46"
       is_visible="true"
       lpeversion="1"
       nodesatellites_param="F,0,0,1,0,0,0,1 @ F,0,0,1,0,0,0,1 @ F,0,0,1,0,6.5,0,1 @ F,0,0,1,0,0,0,1 @ F,0,0,1,0,0,0,1 @ F,0,0,1,0,5,0,1"
       radius="0"
       unit="px"
       method="auto"
       mode="F"
       chamfer_steps="1"
       flexible="false"
       use_knot_distance="true"
       apply_no_radius="true"
       apply_with_radius="true"
       only_selected="false"
       hide_knots="false" />
    <inkscape:path-effect
       effect="fillet_chamfer"
       id="path-effect38"
       is_visible="true"
       lpeversion="1"
       nodesatellites_param="F,0,0,1,0,0,0,1 @ F,0,0,1,0,0,0,1 @ F,0,0,1,0,0,0,1 @ F,0,0,1,0,0,0,1"
       radius="0"
       unit="px"
       method="auto"
       mode="F"
       chamfer_steps="1"
       flexible="false"
       use_knot_distance="true"
       apply_no_radius="true"
       apply_with_radius="true"
       only_selected="false"
       hide_knots="false" />
    <inkscape:path-effect
       effect="fillet_chamfer"
       id="path-effect37"
       is_visible="true"
       lpeversion="1"
       nodesatellites_param="F,0,0,1,0,6.5,0,1 @ F,0,0,1,0,0,0,1 @ F,0,0,1,0,0,0,1 @ F,0,0,1,0,5,0,1 @ F,0,0,1,0,0,0,1 @ F,0,0,1,0,0,0,1"
       radius="0"
       unit="px"
       method="auto"
       mode="F"
       chamfer_steps="1"
       flexible="false"
       use_knot_distance="true"
       apply_no_radius="true"
       apply_with_radius="true"
       only_selected="false"
       hide_knots="false" />
    <linearGradient
       id="swatch1"
       inkscape:swatch="solid">
      <stop
         style="stop-color:#ffffff;stop-opacity:1;"
         offset="0"
         id="stop1" />
    </linearGradient>
  </defs>
  <g
     inkscape:label="Ebene 1"
     inkscape:groupmode="layer"
     id="layer1"
     transform="translate(171.57071,35.099813)">
    <g
       id="g28-5-7"
       transform="translate(-0.76507134,129.07893)" />
    <text
       xml:space="preserve"
       style="font-style:normal;font-variant:normal;font-weight:normal;font-stretch:normal;font-size:16.9333px;font-family:'Noto Sans';-inkscape-font-specification:'Noto Sans';letter-spacing:3.70417px;fill:#ffffff;fill-opacity:1;stroke:none;stroke-width:1;stroke-linecap:round;stroke-linejoin:round;stroke-dasharray:none;stroke-opacity:1"
       x="376.51248"
       y="79.518082"
       id="text4"><tspan
         sodipodi:role="line"
         id="tspan4"
         style="stroke:none;stroke-width:1"
         x="376.51248"
         y="79.518082" /></text>
    <g
       id="g47-3-3"
       transform="translate(-279.27116,-252.32172)"
       inkscape:export-filename="ekxide-white-no-frame.png"
       inkscape:export-xdpi="683.60101"
       inkscape:export-ydpi="683.60101">
      <path
         id="text1-7-6-9-8-6-0-76-9-3-5-2"
         style="font-size:63.5px;line-height:1.25;font-family:THIN;-inkscape-font-specification:'THIN, ';letter-spacing:6.61458px;fill:#ffffff;fill-opacity:1;stroke:#ffffff;stroke-width:1.4;stroke-linecap:round;stroke-linejoin:round;stroke-dasharray:none;stroke-opacity:1"
         d="m 148.28212,228.78258 v 38.49687 h 0.89917 v -38.49687 z m 80.51602,0.0806 v 33.48633 c 0,1.13689 -0.40308,2.1084 -1.20923,2.91455 -0.80615,0.80615 -1.77767,1.20923 -2.91455,1.20923 h -9.11572 c -1.07487,0 -1.98438,-0.37208 -2.72852,-1.11621 -0.76481,-0.76481 -1.14722,-1.67432 -1.14722,-2.72852 v -12.43335 c 0,-1.57096 0.55811,-2.90421 1.67432,-3.99975 1.09554,-1.09553 2.41846,-1.64331 3.96875,-1.64331 h 6.21564 v -0.89917 h -6.21564 c -1.79834,0 -3.32796,0.64079 -4.58887,1.92236 -1.28157,1.28158 -1.92236,2.82154 -1.92236,4.61987 v 12.43335 c 0,1.30225 0.46509,2.41847 1.39526,3.34864 0.93018,0.90951 2.04639,1.36425 3.34864,1.36425 h 9.11572 c 1.36426,0 2.54248,-0.48576 3.53467,-1.45727 0.97151,-0.97151 1.45727,-2.14974 1.45727,-3.53467 v -33.48633 z m -29.39976,7.61091 v 0.99219 h 0.89917 v -0.99219 z m -35.67482,6.87761 -8.20312,7.87808 a 6.3922891,6.3922891 0 0 0 0.23771,9.43766 l 8.00571,6.94945 0.55656,-0.70952 -7.95765,-6.92051 a 5.4998133,5.4998133 0 0 1 -0.21188,-8.10596 l 8.16126,-7.88272 z m -37.30677,0.33228 c -1.79834,0 -3.3383,0.6408 -4.61987,1.92237 -1.26091,1.28157 -1.89136,2.82153 -1.89136,4.61987 v 10.604 c 0,1.79834 0.64079,3.32797 1.92236,4.58887 1.28158,1.28158 2.8112,1.92236 4.58887,1.92236 h 11.90625 v -0.86816 h -11.90625 c -1.55029,0 -2.87321,-0.55811 -3.96875,-1.67432 -1.09554,-1.09554 -1.64331,-2.41846 -1.64331,-3.96875 l -0.031,-10.604 c 0,-1.57096 0.54778,-2.90422 1.64331,-3.99976 1.11621,-1.1162 2.44947,-1.67431 3.99976,-1.67431 h 5.45703 c 1.55029,0 2.88355,0.54778 3.99976,1.64331 1.09554,1.11621 1.64331,2.44947 1.64331,3.99975 v 0.12403 c 0,1.30225 -0.46509,2.41846 -1.39527,3.34863 -0.93017,0.93018 -2.05672,1.39526 -3.37963,1.39526 h -6.99493 v 0.86817 h 6.99493 c 1.55028,0 2.88354,-0.54777 3.99975,-1.64331 1.09554,-1.09554 1.64331,-2.41846 1.64331,-3.96875 v -0.12403 c 0,-1.79833 -0.64079,-3.33829 -1.92236,-4.61987 -1.2609,-1.2609 -2.79053,-1.89136 -4.58887,-1.89136 z m 47.48857,0 -0.71313,0.4961 c 1.59553,2.30424 3.23488,4.57865 4.86223,6.86108 2.08371,2.92248 5.41566,2.95443 7.4874,0.0227 1.62089,-2.29369 3.23799,-4.58999 4.85862,-6.88381 l -0.74414,-0.4961 -4.98781,7.04919 a 3.5376041,3.5376041 0 0 1 -5.77536,0 z m 25.49302,0 v 23.65747 h 0.89917 v -23.65747 z m 47.29634,0 c -1.79834,0 -3.3383,0.6408 -4.61987,1.92237 -1.26091,1.28157 -1.89136,2.82153 -1.89136,4.61987 v 10.604 c 0,1.79834 0.64079,3.32797 1.92236,4.58887 1.28156,1.28158 2.8112,1.92236 4.58887,1.92236 h 11.90625 v -0.86816 h -11.90625 c -1.55029,0 -2.87321,-0.55811 -3.96875,-1.67432 -1.09554,-1.09554 -1.64331,-2.41846 -1.64331,-3.96875 l -0.031,-10.604 c 0,-1.57096 0.54777,-2.90422 1.64331,-3.99976 1.11621,-1.1162 2.44947,-1.67431 3.99976,-1.67431 h 5.45703 c 1.55029,0 2.88355,0.54778 3.99976,1.64331 1.09554,1.11621 1.64331,2.44947 1.64331,3.99975 v 0.12403 c 0,1.30225 -0.46509,2.41846 -1.39527,3.34863 -0.93017,0.93018 -2.05672,1.39526 -3.37964,1.39526 H 246.025 v 0.86817 h 6.99492 c 1.55029,0 2.88356,-0.54777 3.99976,-1.64331 1.09554,-1.09554 1.64331,-2.41846 1.64331,-3.96875 v -0.12403 c 0,-1.79833 -0.64079,-3.33829 -1.92236,-4.61987 -1.26091,-1.2609 -2.79053,-1.89136 -4.58887,-1.89136 z m -64.89785,14.24048 c -1.35777,0.005 -2.71687,0.74309 -3.75532,2.2071 -1.60341,2.26048 -3.21462,4.51577 -4.81831,6.77581 l 0.74414,0.5271 4.92993,-6.98407 a 3.5364107,3.5364107 0 0 1 5.77484,-0.006 l 4.95318,6.98975 0.71314,-0.5271 c -1.60995,-2.25578 -3.19954,-4.52637 -4.79454,-6.79286 -1.03295,-1.46783 -2.38929,-2.19526 -3.74706,-2.19005 z"
         transform="translate(0.52916663)" />
      <g
         id="g28-61-0-5-4-2-6-06"
         transform="translate(385.77715,-37.209663)"
         style="fill:#ffffff;fill-opacity:1">
        <path
           id="path3-0-3-2-6-5-12-2-1"
           style="fill:#ffe089;fill-opacity:1;stroke-width:1.16443"
           d="m -246.76112,254.43157 a 31.315309,31.315309 0 0 0 -31.31558,31.31514 31.315309,31.315309 0 0 0 31.31558,31.31557 31.315309,31.315309 0 0 0 17.1925,-5.16732 30.192357,30.192357 0 0 1 -15.96534,4.59705 30.192357,30.192357 0 0 1 -30.19226,-30.19227 30.192357,30.192357 0 0 1 30.19226,-30.19228 30.192357,30.192357 0 0 1 29.76901,25.20384 31.315309,31.315309 0 0 0 -30.99617,-26.87973 z" />
      </g>
    </g>
  </g>
</svg>
