<?xml version="1.0" encoding="UTF-8" standalone="no"?><svg xmlns="http://www.w3.org/2000/svg" xmlns:xlink="http://www.w3.org/1999/xlink" contentStyleType="text/css" height="1549px" preserveAspectRatio="none" style="width:2986px;height:1549px;background:#00000000;" version="1.1" viewBox="0 0 2986 1549" width="2986px" zoomAndPan="magnify"><defs/><g><rect fill="none" height="11.6406" style="stroke:none;stroke-width:1.0;" width="176" x="2796" y="0"/><text fill="#888888" font-family="sans-serif" font-size="10" lengthAdjust="spacing" textLength="176" x="2796" y="9.2822">Eclipse iceoryx component overview</text><rect fill="none" height="26.2969" id="_title" style="stroke:none;stroke-width:1.0;" width="304" x="1334" y="17.6406"/><text fill="#000000" font-family="sans-serif" font-size="14" font-weight="bold" lengthAdjust="spacing" textLength="294" x="1339" y="35.6357">Eclipse iceoryx Component Overview</text><!--MD5=[236072d5b7a4fe7c6ddb917ba2c4b23f]
cluster iceoryx_platform--><g id="cluster_iceoryx_platform"><path d="M1207.5,1055.9375 L1339.5,1055.9375 A3.75,3.75 0 0 1 1342,1058.4375 L1349,1078.2344 L1482.5,1078.2344 A2.5,2.5 0 0 1 1485,1080.7344 L1485,1250.4375 A2.5,2.5 0 0 1 1482.5,1252.9375 L1207.5,1252.9375 A2.5,2.5 0 0 1 1205,1250.4375 L1205,1058.4375 A2.5,2.5 0 0 1 1207.5,1055.9375 " fill="#008000" style="stroke:#000000;stroke-width:1.5;"/><line style="stroke:#000000;stroke-width:1.5;" x1="1205" x2="1349" y1="1078.2344" y2="1078.2344"/><text fill="#000000" font-family="sans-serif" font-size="14" font-weight="bold" lengthAdjust="spacing" textLength="131" x="1209" y="1070.9326">iceoryx_platform</text></g><!--MD5=[52d0f281a760e547a9e5bb4800864913]
cluster platform library--><g id="cluster_platform library"><rect fill="#D2691E" height="114" rx="2.5" ry="2.5" style="stroke:#181818;stroke-width:1.0;" width="208" x="1245" y="1106.9375"/><path d="M1376,1106.9375 L1376,1116.2344 L1366,1126.2344 L1245,1126.2344 " fill="none" style="stroke:#181818;stroke-width:1.0;"/><text fill="#000000" font-family="sans-serif" font-size="14" font-weight="bold" lengthAdjust="spacing" textLength="121" x="1248" y="1120.9326">platform library</text></g><!--MD5=[415eaaaa2a07b50c6508c9baea7f95bd]
cluster iceoryx_hoofs--><g id="cluster_iceoryx_hoofs"><path d="M8.5,793.9375 L119.5,793.9375 A3.75,3.75 0 0 1 122,796.4375 L129,816.2344 L964.5,816.2344 A2.5,2.5 0 0 1 967,818.7344 L967,1540.4375 A2.5,2.5 0 0 1 964.5,1542.9375 L8.5,1542.9375 A2.5,2.5 0 0 1 6,1540.4375 L6,796.4375 A2.5,2.5 0 0 1 8.5,793.9375 " fill="#008000" style="stroke:#000000;stroke-width:1.5;"/><line style="stroke:#000000;stroke-width:1.5;" x1="6" x2="129" y1="816.2344" y2="816.2344"/><text fill="#000000" font-family="sans-serif" font-size="14" font-weight="bold" lengthAdjust="spacing" textLength="110" x="10" y="808.9326">iceoryx_hoofs</text></g><!--MD5=[b4465e90ffeb9984a7a126b6e59ae458]
cluster hoofs library--><g id="cluster_hoofs library"><rect fill="#D2691E" height="666" rx="2.5" ry="2.5" style="stroke:#181818;stroke-width:1.0;" width="889" x="38" y="844.9375"/><path d="M148,844.9375 L148,854.2344 L138,864.2344 L38,864.2344 " fill="none" style="stroke:#181818;stroke-width:1.0;"/><text fill="#000000" font-family="sans-serif" font-size="14" font-weight="bold" lengthAdjust="spacing" textLength="100" x="41" y="858.9326">hoofs library</text></g><!--MD5=[33efd23a80481a3dc96802ea8e830f29]
cluster iceoryx_dust--><g id="cluster_iceoryx_dust"><path d="M1009.5,531.9375 L1110.5,531.9375 A3.75,3.75 0 0 1 1113,534.4375 L1120,554.2344 L1412.5,554.2344 A2.5,2.5 0 0 1 1415,556.7344 L1415,988.4375 A2.5,2.5 0 0 1 1412.5,990.9375 L1009.5,990.9375 A2.5,2.5 0 0 1 1007,988.4375 L1007,534.4375 A2.5,2.5 0 0 1 1009.5,531.9375 " fill="#008000" style="stroke:#000000;stroke-width:1.5;"/><line style="stroke:#000000;stroke-width:1.5;" x1="1007" x2="1120" y1="554.2344" y2="554.2344"/><text fill="#000000" font-family="sans-serif" font-size="14" font-weight="bold" lengthAdjust="spacing" textLength="100" x="1011" y="546.9326">iceoryx_dust</text></g><!--MD5=[9ccbf00999a67ca6ac4588fc5a3bec2c]
cluster dust library--><g id="cluster_dust library"><rect fill="#D2691E" height="376" rx="2.5" ry="2.5" style="stroke:#181818;stroke-width:1.0;" width="336" x="1047" y="582.9375"/><path d="M1147,582.9375 L1147,592.2344 L1137,602.2344 L1047,602.2344 " fill="none" style="stroke:#181818;stroke-width:1.0;"/><text fill="#000000" font-family="sans-serif" font-size="14" font-weight="bold" lengthAdjust="spacing" textLength="90" x="1050" y="596.9326">dust library</text></g><!--MD5=[ed7dc03aa8d539cfd7d57db110a68e55]
cluster iceoryx_posh--><g id="cluster_iceoryx_posh"><path d="M1457.5,309.9375 L1562.5,309.9375 A3.75,3.75 0 0 1 1565,312.4375 L1572,332.2344 L2976.5,332.2344 A2.5,2.5 0 0 1 2979,334.7344 L2979,726.4375 A2.5,2.5 0 0 1 2976.5,728.9375 L1457.5,728.9375 A2.5,2.5 0 0 1 1455,726.4375 L1455,312.4375 A2.5,2.5 0 0 1 1457.5,309.9375 " fill="#008000" style="stroke:#000000;stroke-width:1.5;"/><line style="stroke:#000000;stroke-width:1.5;" x1="1455" x2="1572" y1="332.2344" y2="332.2344"/><text fill="#000000" font-family="sans-serif" font-size="14" font-weight="bold" lengthAdjust="spacing" textLength="104" x="1459" y="324.9326">iceoryx_posh</text></g><!--MD5=[38f2323d045ecacd4478f4c7d1e06b9d]
cluster core library--><g id="cluster_core library"><rect fill="#D2691E" height="336" rx="2.5" ry="2.5" style="stroke:#181818;stroke-width:1.0;" width="516" x="2431" y="360.9375"/><path d="M2532,360.9375 L2532,370.2344 L2522,380.2344 L2431,380.2344 " fill="none" style="stroke:#181818;stroke-width:1.0;"/><text fill="#000000" font-family="sans-serif" font-size="14" font-weight="bold" lengthAdjust="spacing" textLength="91" x="2434" y="374.9326">core library</text></g><!--MD5=[2882655244722af885eff964b671140f]
cluster runtime library--><g id="cluster_runtime library"><rect fill="#D2691E" height="114" rx="2.5" ry="2.5" style="stroke:#181818;stroke-width:1.0;" width="170" x="2237" y="360.9375"/><path d="M2363,360.9375 L2363,370.2344 L2353,380.2344 L2237,380.2344 " fill="none" style="stroke:#181818;stroke-width:1.0;"/><text fill="#000000" font-family="sans-serif" font-size="14" font-weight="bold" lengthAdjust="spacing" textLength="116" x="2240" y="374.9326">runtime library</text></g><!--MD5=[4997cf375c60d6f53c72389211135b42]
cluster gateway library--><g id="cluster_gateway library"><rect fill="#D2691E" height="114" rx="2.5" ry="2.5" style="stroke:#181818;stroke-width:1.0;" width="170" x="2043" y="360.9375"/><path d="M2175,360.9375 L2175,370.2344 L2165,380.2344 L2043,380.2344 " fill="none" style="stroke:#181818;stroke-width:1.0;"/><text fill="#000000" font-family="sans-serif" font-size="14" font-weight="bold" lengthAdjust="spacing" textLength="122" x="2046" y="374.9326">gateway library</text></g><!--MD5=[d11aad145ca7e2c3ef6ec64753ab2f2b]
cluster config library--><g id="cluster_config library"><rect fill="#D2691E" height="114" rx="2.5" ry="2.5" style="stroke:#181818;stroke-width:1.0;" width="170" x="1849" y="360.9375"/><path d="M1963,360.9375 L1963,370.2344 L1953,380.2344 L1849,380.2344 " fill="none" style="stroke:#181818;stroke-width:1.0;"/><text fill="#000000" font-family="sans-serif" font-size="14" font-weight="bold" lengthAdjust="spacing" textLength="104" x="1852" y="374.9326">config library</text></g><!--MD5=[c694ed67aab4c45e63f5b674f5ebdacc]
cluster RouDi library--><g id="cluster_RouDi library"><rect fill="#D2691E" height="114" rx="2.5" ry="2.5" style="stroke:#181818;stroke-width:1.0;" width="170" x="1655" y="360.9375"/><path d="M1765,360.9375 L1765,370.2344 L1755,380.2344 L1655,380.2344 " fill="none" style="stroke:#181818;stroke-width:1.0;"/><text fill="#000000" font-family="sans-serif" font-size="14" font-weight="bold" lengthAdjust="spacing" textLength="100" x="1658" y="374.9326">RouDi library</text></g><!--MD5=[95dba68051f17ed836827d70d887a54a]
cluster iceoryx_dds--><g id="cluster_iceoryx_dds"><path d="M1457.5,106.9375 L1552.5,106.9375 A3.75,3.75 0 0 1 1555,109.4375 L1562,129.2344 L1830.5,129.2344 A2.5,2.5 0 0 1 1833,131.7344 L1833,234.4375 A2.5,2.5 0 0 1 1830.5,236.9375 L1457.5,236.9375 A2.5,2.5 0 0 1 1455,234.4375 L1455,109.4375 A2.5,2.5 0 0 1 1457.5,106.9375 " fill="#008000" style="stroke:#000000;stroke-width:1.5;"/><line style="stroke:#000000;stroke-width:1.5;" x1="1455" x2="1562" y1="129.2344" y2="129.2344"/><text fill="#000000" font-family="sans-serif" font-size="14" font-weight="bold" lengthAdjust="spacing" textLength="94" x="1459" y="121.9326">iceoryx_dds</text></g><!--MD5=[addeb03e3eb587838caeece846992337]
cluster iceoryx_binding_c--><g id="cluster_iceoryx_binding_c"><path d="M1875.5,106.9375 L2015.5,106.9375 A3.75,3.75 0 0 1 2018,109.4375 L2025,129.2344 L2248.5,129.2344 A2.5,2.5 0 0 1 2251,131.7344 L2251,234.4375 A2.5,2.5 0 0 1 2248.5,236.9375 L1875.5,236.9375 A2.5,2.5 0 0 1 1873,234.4375 L1873,109.4375 A2.5,2.5 0 0 1 1875.5,106.9375 " fill="#008000" style="stroke:#000000;stroke-width:1.5;"/><line style="stroke:#000000;stroke-width:1.5;" x1="1873" x2="2025" y1="129.2344" y2="129.2344"/><text fill="#000000" font-family="sans-serif" font-size="14" font-weight="bold" lengthAdjust="spacing" textLength="139" x="1877" y="121.9326">iceoryx_binding_c</text></g><!--MD5=[beec581614c18060e11082c458798f50]
cluster iceoryx_introspection--><g id="cluster_iceoryx_introspection"><path d="M2285.5,55.9375 L2456.5,55.9375 A3.75,3.75 0 0 1 2459,58.4375 L2466,78.2344 L2498.5,78.2344 A2.5,2.5 0 0 1 2501,80.7344 L2501,250.4375 A2.5,2.5 0 0 1 2498.5,252.9375 L2285.5,252.9375 A2.5,2.5 0 0 1 2283,250.4375 L2283,58.4375 A2.5,2.5 0 0 1 2285.5,55.9375 " fill="#008000" style="stroke:#000000;stroke-width:1.5;"/><line style="stroke:#000000;stroke-width:1.5;" x1="2283" x2="2466" y1="78.2344" y2="78.2344"/><text fill="#000000" font-family="sans-serif" font-size="14" font-weight="bold" lengthAdjust="spacing" textLength="170" x="2287" y="70.9326">iceoryx_introspection</text></g><!--MD5=[aa2f05b2676d7d34ffa7e771fb7634f3]
cluster client--><g id="cluster_client"><rect fill="#FFFF00" height="130" rx="2.5" ry="2.5" style="stroke:#181818;stroke-width:1.0;" width="170" x="2307" y="98.9375"/><rect fill="#FFFF00" height="10" style="stroke:#181818;stroke-width:1.0;" width="15" x="2457" y="103.9375"/><rect fill="#FFFF00" height="2" style="stroke:#181818;stroke-width:1.0;" width="4" x="2455" y="105.9375"/><rect fill="#FFFF00" height="2" style="stroke:#181818;stroke-width:1.0;" width="4" x="2455" y="109.9375"/><text fill="#000000" font-family="sans-serif" font-size="14" font-style="italic" lengthAdjust="spacing" textLength="98" x="2343" y="124.9326">«namespace»</text><text fill="#000000" font-family="sans-serif" font-size="14" font-weight="bold" lengthAdjust="spacing" textLength="43" x="2370.5" y="141.2295">client</text></g><!--MD5=[2ece5e0fc2ccad7903c426a67d203651]
entity Platform abstraction--><g id="elem_Platform abstraction"><rect fill="#FFF8DC" height="62.5938" rx="2.5" ry="2.5" style="stroke:#181818;stroke-width:0.5;" width="177" x="1260.5" y="1141.9375"/><rect fill="#FFF8DC" height="10" style="stroke:#181818;stroke-width:0.5;" width="15" x="1417.5" y="1146.9375"/><rect fill="#FFF8DC" height="2" style="stroke:#181818;stroke-width:0.5;" width="4" x="1415.5" y="1148.9375"/><rect fill="#FFF8DC" height="2" style="stroke:#181818;stroke-width:0.5;" width="4" x="1415.5" y="1152.9375"/><text fill="#000000" font-family="sans-serif" font-size="14" font-style="italic" lengthAdjust="spacing" textLength="70" x="1309" y="1174.9326">«module»</text><text fill="#000000" font-family="sans-serif" font-size="14" lengthAdjust="spacing" textLength="137" x="1275.5" y="1191.2295">Platform abstraction</text></g><!--MD5=[1c4db6a2e38ba8c7a11c2b17a573d314]
entity Memory & lifetime management--><g id="elem_Memory &amp; lifetime management"><rect fill="#FFF8DC" height="62.5938" rx="2.5" ry="2.5" style="stroke:#181818;stroke-width:0.5;" width="260" x="54" y="879.9375"/><rect fill="#FFF8DC" height="10" style="stroke:#181818;stroke-width:0.5;" width="15" x="294" y="884.9375"/><rect fill="#FFF8DC" height="2" style="stroke:#181818;stroke-width:0.5;" width="4" x="292" y="886.9375"/><rect fill="#FFF8DC" height="2" style="stroke:#181818;stroke-width:0.5;" width="4" x="292" y="890.9375"/><text fill="#000000" font-family="sans-serif" font-size="14" font-style="italic" lengthAdjust="spacing" textLength="70" x="144" y="912.9326">«module»</text><text fill="#000000" font-family="sans-serif" font-size="14" lengthAdjust="spacing" textLength="220" x="69" y="929.2295">Memory &amp; lifetime management</text></g><!--MD5=[bec63b5345253ac365421aeab3bf2f46]
entity Containers--><g id="elem_Containers"><rect fill="#FFF8DC" height="62.5938" rx="2.5" ry="2.5" style="stroke:#181818;stroke-width:0.5;" width="115" x="349.5" y="879.9375"/><rect fill="#FFF8DC" height="10" style="stroke:#181818;stroke-width:0.5;" width="15" x="444.5" y="884.9375"/><rect fill="#FFF8DC" height="2" style="stroke:#181818;stroke-width:0.5;" width="4" x="442.5" y="886.9375"/><rect fill="#FFF8DC" height="2" style="stroke:#181818;stroke-width:0.5;" width="4" x="442.5" y="890.9375"/><text fill="#000000" font-family="sans-serif" font-size="14" font-style="italic" lengthAdjust="spacing" textLength="70" x="367" y="912.9326">«module»</text><text fill="#000000" font-family="sans-serif" font-size="14" lengthAdjust="spacing" textLength="75" x="364.5" y="929.2295">Containers</text></g><!--MD5=[22b5799e419f54136e80d021747cb368]
entity Common vocabulary types--><g id="elem_Common vocabulary types"><rect fill="#FFF8DC" height="62.5938" rx="2.5" ry="2.5" style="stroke:#181818;stroke-width:0.5;" width="222" x="500" y="879.9375"/><rect fill="#FFF8DC" height="10" style="stroke:#181818;stroke-width:0.5;" width="15" x="702" y="884.9375"/><rect fill="#FFF8DC" height="2" style="stroke:#181818;stroke-width:0.5;" width="4" x="700" y="886.9375"/><rect fill="#FFF8DC" height="2" style="stroke:#181818;stroke-width:0.5;" width="4" x="700" y="890.9375"/><text fill="#000000" font-family="sans-serif" font-size="14" font-style="italic" lengthAdjust="spacing" textLength="70" x="571" y="912.9326">«module»</text><text fill="#000000" font-family="sans-serif" font-size="14" lengthAdjust="spacing" textLength="182" x="515" y="929.2295">Common vocabulary types</text></g><!--MD5=[5559a549b48cc6666d6052535e79a3d0]
entity Filesystem & OS--><g id="elem_Filesystem &amp; OS"><rect fill="#FFF8DC" height="62.5938" rx="2.5" ry="2.5" style="stroke:#181818;stroke-width:0.5;" width="153" x="757.5" y="879.9375"/><rect fill="#FFF8DC" height="10" style="stroke:#181818;stroke-width:0.5;" width="15" x="890.5" y="884.9375"/><rect fill="#FFF8DC" height="2" style="stroke:#181818;stroke-width:0.5;" width="4" x="888.5" y="886.9375"/><rect fill="#FFF8DC" height="2" style="stroke:#181818;stroke-width:0.5;" width="4" x="888.5" y="890.9375"/><text fill="#000000" font-family="sans-serif" font-size="14" font-style="italic" lengthAdjust="spacing" textLength="70" x="794" y="912.9326">«module»</text><text fill="#000000" font-family="sans-serif" font-size="14" lengthAdjust="spacing" textLength="113" x="772.5" y="929.2295">Filesystem &amp; OS</text></g><!--MD5=[f312b80a91c48809cfe79a9a70685dbb]
entity Functional--><g id="elem_Functional"><rect fill="#FFF8DC" height="62.5938" rx="2.5" ry="2.5" style="stroke:#181818;stroke-width:0.5;" width="111" x="128.5" y="1141.9375"/><rect fill="#FFF8DC" height="10" style="stroke:#181818;stroke-width:0.5;" width="15" x="219.5" y="1146.9375"/><rect fill="#FFF8DC" height="2" style="stroke:#181818;stroke-width:0.5;" width="4" x="217.5" y="1148.9375"/><rect fill="#FFF8DC" height="2" style="stroke:#181818;stroke-width:0.5;" width="4" x="217.5" y="1152.9375"/><text fill="#000000" font-family="sans-serif" font-size="14" font-style="italic" lengthAdjust="spacing" textLength="70" x="144" y="1174.9326">«module»</text><text fill="#000000" font-family="sans-serif" font-size="14" lengthAdjust="spacing" textLength="71" x="143.5" y="1191.2295">Functional</text></g><!--MD5=[e4225381f5989068811eb87c98ca5abf]
entity Utility--><g id="elem_Utility"><rect fill="#FFF8DC" height="62.5938" rx="2.5" ry="2.5" style="stroke:#181818;stroke-width:0.5;" width="110" x="275" y="1141.9375"/><rect fill="#FFF8DC" height="10" style="stroke:#181818;stroke-width:0.5;" width="15" x="365" y="1146.9375"/><rect fill="#FFF8DC" height="2" style="stroke:#181818;stroke-width:0.5;" width="4" x="363" y="1148.9375"/><rect fill="#FFF8DC" height="2" style="stroke:#181818;stroke-width:0.5;" width="4" x="363" y="1152.9375"/><text fill="#000000" font-family="sans-serif" font-size="14" font-style="italic" lengthAdjust="spacing" textLength="70" x="290" y="1174.9326">«module»</text><text fill="#000000" font-family="sans-serif" font-size="14" lengthAdjust="spacing" textLength="36" x="307" y="1191.2295">Utility</text></g><!--MD5=[619dd0bc8b5af2d655b90d0a89900cfc]
entity Strings--><g id="elem_Strings"><rect fill="#FFF8DC" height="62.5938" rx="2.5" ry="2.5" style="stroke:#181818;stroke-width:0.5;" width="110" x="420" y="1141.9375"/><rect fill="#FFF8DC" height="10" style="stroke:#181818;stroke-width:0.5;" width="15" x="510" y="1146.9375"/><rect fill="#FFF8DC" height="2" style="stroke:#181818;stroke-width:0.5;" width="4" x="508" y="1148.9375"/><rect fill="#FFF8DC" height="2" style="stroke:#181818;stroke-width:0.5;" width="4" x="508" y="1152.9375"/><text fill="#000000" font-family="sans-serif" font-size="14" font-style="italic" lengthAdjust="spacing" textLength="70" x="435" y="1174.9326">«module»</text><text fill="#000000" font-family="sans-serif" font-size="14" lengthAdjust="spacing" textLength="48" x="446" y="1191.2295">Strings</text></g><!--MD5=[83e6b0205965fcf6bcba419d3292a827]
entity Types--><g id="elem_Types"><rect fill="#FFF8DC" height="62.5938" rx="2.5" ry="2.5" style="stroke:#181818;stroke-width:0.5;" width="110" x="565" y="1141.9375"/><rect fill="#FFF8DC" height="10" style="stroke:#181818;stroke-width:0.5;" width="15" x="655" y="1146.9375"/><rect fill="#FFF8DC" height="2" style="stroke:#181818;stroke-width:0.5;" width="4" x="653" y="1148.9375"/><rect fill="#FFF8DC" height="2" style="stroke:#181818;stroke-width:0.5;" width="4" x="653" y="1152.9375"/><text fill="#000000" font-family="sans-serif" font-size="14" font-style="italic" lengthAdjust="spacing" textLength="70" x="580" y="1174.9326">«module»</text><text fill="#000000" font-family="sans-serif" font-size="14" lengthAdjust="spacing" textLength="42" x="594" y="1191.2295">Types</text></g><!--MD5=[8e94bfdc877641be43b2f9761b4bcf24]
entity Algorithms--><g id="elem_Algorithms"><rect fill="#FFF8DC" height="62.5938" rx="2.5" ry="2.5" style="stroke:#181818;stroke-width:0.5;" width="113" x="127.5" y="1307.9375"/><rect fill="#FFF8DC" height="10" style="stroke:#181818;stroke-width:0.5;" width="15" x="220.5" y="1312.9375"/><rect fill="#FFF8DC" height="2" style="stroke:#181818;stroke-width:0.5;" width="4" x="218.5" y="1314.9375"/><rect fill="#FFF8DC" height="2" style="stroke:#181818;stroke-width:0.5;" width="4" x="218.5" y="1318.9375"/><text fill="#000000" font-family="sans-serif" font-size="14" font-style="italic" lengthAdjust="spacing" textLength="70" x="144" y="1340.9326">«module»</text><text fill="#000000" font-family="sans-serif" font-size="14" lengthAdjust="spacing" textLength="73" x="142.5" y="1357.2295">Algorithms</text></g><!--MD5=[6423d9149d5cb7fdbda68a3eb7feed64]
entity Generalized design patterns--><g id="elem_Generalized design patterns"><rect fill="#FFF8DC" height="62.5938" rx="2.5" ry="2.5" style="stroke:#181818;stroke-width:0.5;" width="236" x="276" y="1307.9375"/><rect fill="#FFF8DC" height="10" style="stroke:#181818;stroke-width:0.5;" width="15" x="492" y="1312.9375"/><rect fill="#FFF8DC" height="2" style="stroke:#181818;stroke-width:0.5;" width="4" x="490" y="1314.9375"/><rect fill="#FFF8DC" height="2" style="stroke:#181818;stroke-width:0.5;" width="4" x="490" y="1318.9375"/><text fill="#000000" font-family="sans-serif" font-size="14" font-style="italic" lengthAdjust="spacing" textLength="70" x="354" y="1340.9326">«module»</text><text fill="#000000" font-family="sans-serif" font-size="14" lengthAdjust="spacing" textLength="196" x="291" y="1357.2295">Generalized design patterns</text></g><!--MD5=[0508a3e2038f5fb52b39cb0650cabce4]
entity Error handling & logging--><g id="elem_Error handling &amp; logging"><rect fill="#FFF8DC" height="62.5938" rx="2.5" ry="2.5" style="stroke:#181818;stroke-width:0.5;" width="207" x="547.5" y="1307.9375"/><rect fill="#FFF8DC" height="10" style="stroke:#181818;stroke-width:0.5;" width="15" x="734.5" y="1312.9375"/><rect fill="#FFF8DC" height="2" style="stroke:#181818;stroke-width:0.5;" width="4" x="732.5" y="1314.9375"/><rect fill="#FFF8DC" height="2" style="stroke:#181818;stroke-width:0.5;" width="4" x="732.5" y="1318.9375"/><text fill="#000000" font-family="sans-serif" font-size="14" font-style="italic" lengthAdjust="spacing" textLength="70" x="611" y="1340.9326">«module»</text><text fill="#000000" font-family="sans-serif" font-size="14" lengthAdjust="spacing" textLength="167" x="562.5" y="1357.2295">Error handling &amp; logging</text></g><!--MD5=[52244217770951987a130bd5b09c96eb]
entity Time--><g id="elem_Time"><rect fill="#FFF8DC" height="62.5938" rx="2.5" ry="2.5" style="stroke:#181818;stroke-width:0.5;" width="110" x="790" y="1307.9375"/><rect fill="#FFF8DC" height="10" style="stroke:#181818;stroke-width:0.5;" width="15" x="880" y="1312.9375"/><rect fill="#FFF8DC" height="2" style="stroke:#181818;stroke-width:0.5;" width="4" x="878" y="1314.9375"/><rect fill="#FFF8DC" height="2" style="stroke:#181818;stroke-width:0.5;" width="4" x="878" y="1318.9375"/><text fill="#000000" font-family="sans-serif" font-size="14" font-style="italic" lengthAdjust="spacing" textLength="70" x="805" y="1340.9326">«module»</text><text fill="#000000" font-family="sans-serif" font-size="14" lengthAdjust="spacing" textLength="34" x="823" y="1357.2295">Time</text></g><!--MD5=[fa45093b4ef297c1cb00a9bc1e5cfa7c]
entity Queues & communication--><g id="elem_Queues &amp; communication"><rect fill="#FFF8DC" height="62.5938" rx="2.5" ry="2.5" style="stroke:#181818;stroke-width:0.5;" width="221" x="73.5" y="1431.9375"/><rect fill="#FFF8DC" height="10" style="stroke:#181818;stroke-width:0.5;" width="15" x="274.5" y="1436.9375"/><rect fill="#FFF8DC" height="2" style="stroke:#181818;stroke-width:0.5;" width="4" x="272.5" y="1438.9375"/><rect fill="#FFF8DC" height="2" style="stroke:#181818;stroke-width:0.5;" width="4" x="272.5" y="1442.9375"/><text fill="#000000" font-family="sans-serif" font-size="14" font-style="italic" lengthAdjust="spacing" textLength="70" x="144" y="1464.9326">«module»</text><text fill="#000000" font-family="sans-serif" font-size="14" lengthAdjust="spacing" textLength="181" x="88.5" y="1481.2295">Queues &amp; communication</text></g><!--MD5=[a93357d13f90eb280e7389afdbc8b9ba]
entity Threads & Sychronisation--><g id="elem_Threads &amp; Sychronisation"><rect fill="#FFF8DC" height="62.5938" rx="2.5" ry="2.5" style="stroke:#181818;stroke-width:0.5;" width="218" x="330" y="1431.9375"/><rect fill="#FFF8DC" height="10" style="stroke:#181818;stroke-width:0.5;" width="15" x="528" y="1436.9375"/><rect fill="#FFF8DC" height="2" style="stroke:#181818;stroke-width:0.5;" width="4" x="526" y="1438.9375"/><rect fill="#FFF8DC" height="2" style="stroke:#181818;stroke-width:0.5;" width="4" x="526" y="1442.9375"/><text fill="#000000" font-family="sans-serif" font-size="14" font-style="italic" lengthAdjust="spacing" textLength="70" x="399" y="1464.9326">«module»</text><text fill="#000000" font-family="sans-serif" font-size="14" lengthAdjust="spacing" textLength="178" x="345" y="1481.2295">Threads &amp; Sychronisation</text></g><!--MD5=[2614a535bf40d1c428a76a860d8f6b73]
entity additional_containers--><g id="elem_additional_containers"><rect fill="#FFF8DC" height="62.5938" rx="2.5" ry="2.5" style="stroke:#181818;stroke-width:0.5;" width="115" x="1063.5" y="617.9375"/><rect fill="#FFF8DC" height="10" style="stroke:#181818;stroke-width:0.5;" width="15" x="1158.5" y="622.9375"/><rect fill="#FFF8DC" height="2" style="stroke:#181818;stroke-width:0.5;" width="4" x="1156.5" y="624.9375"/><rect fill="#FFF8DC" height="2" style="stroke:#181818;stroke-width:0.5;" width="4" x="1156.5" y="628.9375"/><text fill="#000000" font-family="sans-serif" font-size="14" font-style="italic" lengthAdjust="spacing" textLength="70" x="1081" y="650.9326">«module»</text><text fill="#000000" font-family="sans-serif" font-size="14" lengthAdjust="spacing" textLength="75" x="1078.5" y="667.2295">Containers</text></g><!--MD5=[6bec92763c9f66f17ed240113e7ada5e]
entity additional_filesystem--><g id="elem_additional_filesystem"><rect fill="#FFF8DC" height="62.5938" rx="2.5" ry="2.5" style="stroke:#181818;stroke-width:0.5;" width="153" x="1213.5" y="617.9375"/><rect fill="#FFF8DC" height="10" style="stroke:#181818;stroke-width:0.5;" width="15" x="1346.5" y="622.9375"/><rect fill="#FFF8DC" height="2" style="stroke:#181818;stroke-width:0.5;" width="4" x="1344.5" y="624.9375"/><rect fill="#FFF8DC" height="2" style="stroke:#181818;stroke-width:0.5;" width="4" x="1344.5" y="628.9375"/><text fill="#000000" font-family="sans-serif" font-size="14" font-style="italic" lengthAdjust="spacing" textLength="70" x="1250" y="650.9326">«module»</text><text fill="#000000" font-family="sans-serif" font-size="14" lengthAdjust="spacing" textLength="113" x="1228.5" y="667.2295">Filesystem &amp; OS</text></g><!--MD5=[2b9b853ecc023f60a99de3e1934dd068]
entity additional_queues--><g id="elem_additional_queues"><rect fill="#FFF8DC" height="62.5938" rx="2.5" ry="2.5" style="stroke:#181818;stroke-width:0.5;" width="221" x="1062.5" y="879.9375"/><rect fill="#FFF8DC" height="10" style="stroke:#181818;stroke-width:0.5;" width="15" x="1263.5" y="884.9375"/><rect fill="#FFF8DC" height="2" style="stroke:#181818;stroke-width:0.5;" width="4" x="1261.5" y="886.9375"/><rect fill="#FFF8DC" height="2" style="stroke:#181818;stroke-width:0.5;" width="4" x="1261.5" y="890.9375"/><text fill="#000000" font-family="sans-serif" font-size="14" font-style="italic" lengthAdjust="spacing" textLength="70" x="1133" y="912.9326">«module»</text><text fill="#000000" font-family="sans-serif" font-size="14" lengthAdjust="spacing" textLength="181" x="1077.5" y="929.2295">Queues &amp; communication</text></g><!--MD5=[ffd9c204d205bc9185ab1a43c6f1aff1]
entity errors--><g id="elem_errors"><rect fill="#FFFF00" height="62.5938" rx="2.5" ry="2.5" style="stroke:#181818;stroke-width:0.5;" width="138" x="1498" y="395.9375"/><rect fill="#FFFF00" height="10" style="stroke:#181818;stroke-width:0.5;" width="15" x="1616" y="400.9375"/><rect fill="#FFFF00" height="2" style="stroke:#181818;stroke-width:0.5;" width="4" x="1614" y="402.9375"/><rect fill="#FFFF00" height="2" style="stroke:#181818;stroke-width:0.5;" width="4" x="1614" y="406.9375"/><text fill="#000000" font-family="sans-serif" font-size="14" font-style="italic" lengthAdjust="spacing" textLength="98" x="1513" y="428.9326">«namespace»</text><text fill="#000000" font-family="sans-serif" font-size="14" lengthAdjust="spacing" textLength="41" x="1541.5" y="445.2295">errors</text></g><!--MD5=[477a64901edc741ec91a401c96bc08f2]
entity popo--><g id="elem_popo"><rect fill="#FFFF00" height="62.5938" rx="2.5" ry="2.5" style="stroke:#181818;stroke-width:0.5;" width="138" x="2447" y="395.9375"/><rect fill="#FFFF00" height="10" style="stroke:#181818;stroke-width:0.5;" width="15" x="2565" y="400.9375"/><rect fill="#FFFF00" height="2" style="stroke:#181818;stroke-width:0.5;" width="4" x="2563" y="402.9375"/><rect fill="#FFFF00" height="2" style="stroke:#181818;stroke-width:0.5;" width="4" x="2563" y="406.9375"/><text fill="#000000" font-family="sans-serif" font-size="14" font-style="italic" lengthAdjust="spacing" textLength="98" x="2462" y="428.9326">«namespace»</text><text fill="#000000" font-family="sans-serif" font-size="14" lengthAdjust="spacing" textLength="36" x="2493" y="445.2295">popo</text></g><!--MD5=[ba5cc415984907cdd9d4abcea172ca01]
entity capro--><g id="elem_capro"><rect fill="#FFFF00" height="62.5938" rx="2.5" ry="2.5" style="stroke:#181818;stroke-width:0.5;" width="138" x="2620" y="395.9375"/><rect fill="#FFFF00" height="10" style="stroke:#181818;stroke-width:0.5;" width="15" x="2738" y="400.9375"/><rect fill="#FFFF00" height="2" style="stroke:#181818;stroke-width:0.5;" width="4" x="2736" y="402.9375"/><rect fill="#FFFF00" height="2" style="stroke:#181818;stroke-width:0.5;" width="4" x="2736" y="406.9375"/><text fill="#000000" font-family="sans-serif" font-size="14" font-style="italic" lengthAdjust="spacing" textLength="98" x="2635" y="428.9326">«namespace»</text><text fill="#000000" font-family="sans-serif" font-size="14" lengthAdjust="spacing" textLength="39" x="2664.5" y="445.2295">capro</text></g><!--MD5=[09f98eabc58f714e0f010bacf40ca87c]
entity mepoo--><g id="elem_mepoo"><rect fill="#FFFF00" height="62.5938" rx="2.5" ry="2.5" style="stroke:#181818;stroke-width:0.5;" width="138" x="2793" y="395.9375"/><rect fill="#FFFF00" height="10" style="stroke:#181818;stroke-width:0.5;" width="15" x="2911" y="400.9375"/><rect fill="#FFFF00" height="2" style="stroke:#181818;stroke-width:0.5;" width="4" x="2909" y="402.9375"/><rect fill="#FFFF00" height="2" style="stroke:#181818;stroke-width:0.5;" width="4" x="2909" y="406.9375"/><text fill="#000000" font-family="sans-serif" font-size="14" font-style="italic" lengthAdjust="spacing" textLength="98" x="2808" y="428.9326">«namespace»</text><text fill="#000000" font-family="sans-serif" font-size="14" lengthAdjust="spacing" textLength="49" x="2832.5" y="445.2295">mepoo</text></g><!--MD5=[eed5921adeb5106d45e8647997b5fa68]
entity version--><g id="elem_version"><rect fill="#FFFF00" height="62.5938" rx="2.5" ry="2.5" style="stroke:#181818;stroke-width:0.5;" width="138" x="2447" y="617.9375"/><rect fill="#FFFF00" height="10" style="stroke:#181818;stroke-width:0.5;" width="15" x="2565" y="622.9375"/><rect fill="#FFFF00" height="2" style="stroke:#181818;stroke-width:0.5;" width="4" x="2563" y="624.9375"/><rect fill="#FFFF00" height="2" style="stroke:#181818;stroke-width:0.5;" width="4" x="2563" y="628.9375"/><text fill="#000000" font-family="sans-serif" font-size="14" font-style="italic" lengthAdjust="spacing" textLength="98" x="2462" y="650.9326">«namespace»</text><text fill="#000000" font-family="sans-serif" font-size="14" lengthAdjust="spacing" textLength="50" x="2486" y="667.2295">version</text></g><!--MD5=[11fa01443fe50a6a26e5f9d4ef816fb0]
entity build--><g id="elem_build"><rect fill="#FFFF00" height="62.5938" rx="2.5" ry="2.5" style="stroke:#181818;stroke-width:0.5;" width="138" x="2620" y="617.9375"/><rect fill="#FFFF00" height="10" style="stroke:#181818;stroke-width:0.5;" width="15" x="2738" y="622.9375"/><rect fill="#FFFF00" height="2" style="stroke:#181818;stroke-width:0.5;" width="4" x="2736" y="624.9375"/><rect fill="#FFFF00" height="2" style="stroke:#181818;stroke-width:0.5;" width="4" x="2736" y="628.9375"/><text fill="#000000" font-family="sans-serif" font-size="14" font-style="italic" lengthAdjust="spacing" textLength="98" x="2635" y="650.9326">«namespace»</text><text fill="#000000" font-family="sans-serif" font-size="14" lengthAdjust="spacing" textLength="33" x="2667.5" y="667.2295">build</text></g><!--MD5=[6857f13236cb144e56befd21da1781a5]
entity runtime--><g id="elem_runtime"><rect fill="#FFFF00" height="62.5938" rx="2.5" ry="2.5" style="stroke:#181818;stroke-width:0.5;" width="138" x="2253" y="395.9375"/><rect fill="#FFFF00" height="10" style="stroke:#181818;stroke-width:0.5;" width="15" x="2371" y="400.9375"/><rect fill="#FFFF00" height="2" style="stroke:#181818;stroke-width:0.5;" width="4" x="2369" y="402.9375"/><rect fill="#FFFF00" height="2" style="stroke:#181818;stroke-width:0.5;" width="4" x="2369" y="406.9375"/><text fill="#000000" font-family="sans-serif" font-size="14" font-style="italic" lengthAdjust="spacing" textLength="98" x="2268" y="428.9326">«namespace»</text><text fill="#000000" font-family="sans-serif" font-size="14" lengthAdjust="spacing" textLength="53" x="2290.5" y="445.2295">runtime</text></g><!--MD5=[5f97cdfbafef6a5cbddfbf6bdd3803d1]
entity gw--><g id="elem_gw"><rect fill="#FFFF00" height="62.5938" rx="2.5" ry="2.5" style="stroke:#181818;stroke-width:0.5;" width="138" x="2059" y="395.9375"/><rect fill="#FFFF00" height="10" style="stroke:#181818;stroke-width:0.5;" width="15" x="2177" y="400.9375"/><rect fill="#FFFF00" height="2" style="stroke:#181818;stroke-width:0.5;" width="4" x="2175" y="402.9375"/><rect fill="#FFFF00" height="2" style="stroke:#181818;stroke-width:0.5;" width="4" x="2175" y="406.9375"/><text fill="#000000" font-family="sans-serif" font-size="14" font-style="italic" lengthAdjust="spacing" textLength="98" x="2074" y="428.9326">«namespace»</text><text fill="#000000" font-family="sans-serif" font-size="14" lengthAdjust="spacing" textLength="20" x="2113" y="445.2295">gw</text></g><!--MD5=[caf660ac2a54b55a5c31b5515889e628]
entity config--><g id="elem_config"><rect fill="#FFFF00" height="62.5938" rx="2.5" ry="2.5" style="stroke:#181818;stroke-width:0.5;" width="138" x="1865" y="395.9375"/><rect fill="#FFFF00" height="10" style="stroke:#181818;stroke-width:0.5;" width="15" x="1983" y="400.9375"/><rect fill="#FFFF00" height="2" style="stroke:#181818;stroke-width:0.5;" width="4" x="1981" y="402.9375"/><rect fill="#FFFF00" height="2" style="stroke:#181818;stroke-width:0.5;" width="4" x="1981" y="406.9375"/><text fill="#000000" font-family="sans-serif" font-size="14" font-style="italic" lengthAdjust="spacing" textLength="98" x="1880" y="428.9326">«namespace»</text><text fill="#000000" font-family="sans-serif" font-size="14" lengthAdjust="spacing" textLength="42" x="1908" y="445.2295">config</text></g><!--MD5=[f73e6e01beb5fef5d3e1c08b5afdf415]
entity roudi--><g id="elem_roudi"><rect fill="#FFFF00" height="62.5938" rx="2.5" ry="2.5" style="stroke:#181818;stroke-width:0.5;" width="138" x="1671" y="395.9375"/><rect fill="#FFFF00" height="10" style="stroke:#181818;stroke-width:0.5;" width="15" x="1789" y="400.9375"/><rect fill="#FFFF00" height="2" style="stroke:#181818;stroke-width:0.5;" width="4" x="1787" y="402.9375"/><rect fill="#FFFF00" height="2" style="stroke:#181818;stroke-width:0.5;" width="4" x="1787" y="406.9375"/><text fill="#000000" font-family="sans-serif" font-size="14" font-style="italic" lengthAdjust="spacing" textLength="98" x="1686" y="428.9326">«namespace»</text><text fill="#000000" font-family="sans-serif" font-size="14" lengthAdjust="spacing" textLength="35" x="1717.5" y="445.2295">roudi</text></g><!--MD5=[4617e0b67180f9dd16cbedc18db55043]
entity dds--><g id="elem_dds"><rect fill="#FFFF00" height="62.5938" rx="2.5" ry="2.5" style="stroke:#181818;stroke-width:0.5;" width="138" x="1671" y="149.9375"/><rect fill="#FFFF00" height="10" style="stroke:#181818;stroke-width:0.5;" width="15" x="1789" y="154.9375"/><rect fill="#FFFF00" height="2" style="stroke:#181818;stroke-width:0.5;" width="4" x="1787" y="156.9375"/><rect fill="#FFFF00" height="2" style="stroke:#181818;stroke-width:0.5;" width="4" x="1787" y="160.9375"/><text fill="#000000" font-family="sans-serif" font-size="14" font-style="italic" lengthAdjust="spacing" textLength="98" x="1686" y="182.9326">«namespace»</text><text fill="#000000" font-family="sans-serif" font-size="14" lengthAdjust="spacing" textLength="26" x="1722" y="199.2295">dds</text></g><!--MD5=[b74312c72fa74392e6ee98a94ff43660]
entity gateway_dds--><g id="elem_gateway_dds"><rect fill="#FFFF00" height="62.5938" rx="2.5" ry="2.5" style="stroke:#181818;stroke-width:0.5;" width="138" x="1498" y="149.9375"/><rect fill="#FFFF00" height="10" style="stroke:#181818;stroke-width:0.5;" width="15" x="1616" y="154.9375"/><rect fill="#FFFF00" height="2" style="stroke:#181818;stroke-width:0.5;" width="4" x="1614" y="156.9375"/><rect fill="#FFFF00" height="2" style="stroke:#181818;stroke-width:0.5;" width="4" x="1614" y="160.9375"/><text fill="#000000" font-family="sans-serif" font-size="14" font-style="italic" lengthAdjust="spacing" textLength="98" x="1513" y="182.9326">«namespace»</text><text fill="#000000" font-family="sans-serif" font-size="14" lengthAdjust="spacing" textLength="20" x="1552" y="199.2295">gw</text></g><!--MD5=[2d0af3a111e79514759d6541bbe61f34]
entity automotive_soa--><g id="elem_automotive_soa"><path d="M1134,161.9375 L1256,161.9375 A3.75,3.75 0 0 1 1258.5,164.4375 L1265.5,184.2344 L1280,184.2344 A2.5,2.5 0 0 1 1282.5,186.7344 L1282.5,198.7344 A2.5,2.5 0 0 1 1280,201.2344 L1134,201.2344 A2.5,2.5 0 0 1 1131.5,198.7344 L1131.5,164.4375 A2.5,2.5 0 0 1 1134,161.9375 " fill="#008000" style="stroke:#181818;stroke-width:0.5;"/><line style="stroke:#181818;stroke-width:0.5;" x1="1131.5" x2="1265.5" y1="184.2344" y2="184.2344"/><text fill="#000000" font-family="sans-serif" font-size="14" lengthAdjust="spacing" textLength="109" x="1141.5" y="177.9326">automotive_soa</text></g><!--MD5=[7a0a0530b7442f566319cc1417466128]
entity iceoryx_rs--><g id="elem_iceoryx_rs"><path d="M1320.5,161.9375 L1401.5,161.9375 A3.75,3.75 0 0 1 1404,164.4375 L1411,184.2344 L1425.5,184.2344 A2.5,2.5 0 0 1 1428,186.7344 L1428,198.7344 A2.5,2.5 0 0 1 1425.5,201.2344 L1320.5,201.2344 A2.5,2.5 0 0 1 1318,198.7344 L1318,164.4375 A2.5,2.5 0 0 1 1320.5,161.9375 " fill="#008000" style="stroke:#181818;stroke-width:0.5;"/><line style="stroke:#181818;stroke-width:0.5;" x1="1318" x2="1411" y1="184.2344" y2="184.2344"/><text fill="#000000" font-family="sans-serif" font-size="14" lengthAdjust="spacing" textLength="68" x="1328" y="177.9326">iceoryx_rs</text></g><!--MD5=[fc4286d0b2a052e711aae933c9ad3727]
entity cpp2c--><g id="elem_cpp2c"><rect fill="#FFFF00" height="62.5938" rx="2.5" ry="2.5" style="stroke:#181818;stroke-width:0.5;" width="138" x="2089" y="149.9375"/><rect fill="#FFFF00" height="10" style="stroke:#181818;stroke-width:0.5;" width="15" x="2207" y="154.9375"/><rect fill="#FFFF00" height="2" style="stroke:#181818;stroke-width:0.5;" width="4" x="2205" y="156.9375"/><rect fill="#FFFF00" height="2" style="stroke:#181818;stroke-width:0.5;" width="4" x="2205" y="160.9375"/><text fill="#000000" font-family="sans-serif" font-size="14" font-style="italic" lengthAdjust="spacing" textLength="98" x="2104" y="182.9326">«namespace»</text><text fill="#000000" font-family="sans-serif" font-size="14" lengthAdjust="spacing" textLength="43" x="2131.5" y="199.2295">cpp2c</text></g><!--MD5=[e16426ebbb4af2a750e421465750c76a]
entity c2cpp--><g id="elem_c2cpp"><rect fill="#FFFF00" height="62.5938" rx="2.5" ry="2.5" style="stroke:#181818;stroke-width:0.5;" width="138" x="1916" y="149.9375"/><rect fill="#FFFF00" height="10" style="stroke:#181818;stroke-width:0.5;" width="15" x="2034" y="154.9375"/><rect fill="#FFFF00" height="2" style="stroke:#181818;stroke-width:0.5;" width="4" x="2032" y="156.9375"/><rect fill="#FFFF00" height="2" style="stroke:#181818;stroke-width:0.5;" width="4" x="2032" y="160.9375"/><text fill="#000000" font-family="sans-serif" font-size="14" font-style="italic" lengthAdjust="spacing" textLength="98" x="1931" y="182.9326">«namespace»</text><text fill="#000000" font-family="sans-serif" font-size="14" lengthAdjust="spacing" textLength="43" x="1958.5" y="199.2295">c2cpp</text></g><!--MD5=[38dbeb4b243ea6dae1c7e5b7ff87398b]
entity introspection--><g id="elem_introspection"><rect fill="#FFFF00" height="62.5938" rx="2.5" ry="2.5" style="stroke:#181818;stroke-width:0.5;" width="138" x="2323" y="149.9375"/><rect fill="#FFFF00" height="10" style="stroke:#181818;stroke-width:0.5;" width="15" x="2441" y="154.9375"/><rect fill="#FFFF00" height="2" style="stroke:#181818;stroke-width:0.5;" width="4" x="2439" y="156.9375"/><rect fill="#FFFF00" height="2" style="stroke:#181818;stroke-width:0.5;" width="4" x="2439" y="160.9375"/><text fill="#000000" font-family="sans-serif" font-size="14" font-style="italic" lengthAdjust="spacing" textLength="98" x="2338" y="182.9326">«namespace»</text><text fill="#000000" font-family="sans-serif" font-size="14" lengthAdjust="spacing" textLength="91" x="2341.5" y="199.2295">introspection</text></g><!--MD5=[e534a2baf33bb62d220c399ef5d1b7bd]
link iceoryx_hoofs to iceoryx_platform--><g id="link_iceoryx_hoofs_iceoryx_platform"><path d="M967.1869,921.4493 C967.3427,921.6203 967.5004,921.7935 967.6601,921.9687 C967.9794,922.3191 968.3064,922.6779 968.6409,923.0448 C973.9931,928.9153 981.2638,936.8619 989.6525,945.9588 C1006.43,964.1525 1027.68,986.9475 1047,1006.9375 C1082.635,1043.8075 1123.405,1084.475 1155.6225,1116.27 C1171.7313,1132.1675 1185.7019,1145.8469 1195.8234,1155.7244 C1198.3538,1158.1938 1200.6437,1160.4255 1202.6662,1162.3949 C1203.1718,1162.8873 1203.6607,1163.3632 1204.1325,1163.8224 C1204.3684,1164.052 1204.6001,1164.2773 1204.8273,1164.4985 " fill="none" id="iceoryx_hoofs-to-iceoryx_platform" style="stroke:#181818;stroke-width:1.0;stroke-dasharray:7.0,7.0;"/><polygon fill="#181818" points="1204.8273,1164.4985,1201.1662,1155.3554,1201.2437,1161.0117,1195.5874,1161.0892,1204.8273,1164.4985" style="stroke:#181818;stroke-width:1.0;"/><text fill="#000000" font-family="sans-serif" font-size="13" lengthAdjust="spacing" textLength="23" x="1070" y="1028.0044">use</text></g><!--MD5=[7b429863d1ba8281745b822104ea40c7]
link iceoryx_dust to iceoryx_platform--><g id="link_iceoryx_dust_iceoryx_platform"><path d="M1415.2103,822.8608 C1415.3651,823.1539 1415.5189,823.4471 1415.6716,823.7402 C1416.2823,824.9126 1416.8759,826.085 1417.4523,827.2574 C1418.6052,829.6022 1419.6895,831.9471 1420.7058,834.2922 C1428.8359,853.0531 1432.6106,871.8313 1432.2788,890.75 C1431.615,928.5875 1414.525,966.9875 1383,1006.9375 C1343.94,1056.4475 1289.64,995.3975 1245,1039.9375 C1242.3613,1042.57 1239.9261,1045.3801 1237.6794,1048.336 C1236.556,1049.814 1235.4798,1051.3284 1234.4488,1052.8753 C1233.9333,1053.6487 1233.4291,1054.4303 1232.936,1055.2194 C1232.8127,1055.4167 1232.6902,1055.6145 1232.5683,1055.8127 " fill="none" id="iceoryx_dust-to-iceoryx_platform" style="stroke:#181818;stroke-width:1.0;stroke-dasharray:7.0,7.0;"/><polygon fill="#181818" points="1232.5683,1055.8127,1240.6898,1050.2413,1235.1872,1051.5535,1233.875,1046.051,1232.5683,1055.8127" style="stroke:#181818;stroke-width:1.0;"/><text fill="#000000" font-family="sans-serif" font-size="13" lengthAdjust="spacing" textLength="23" x="1433" y="916.0044">use</text></g><!--MD5=[c6bc123b88581d7893511edbb3afda00]
link iceoryx_posh to iceoryx_hoofs--><g id="link_iceoryx_posh_iceoryx_hoofs"><path d="M1454.2644,428.4877 C1453.2358,428.4971 1452.1218,428.5083 1450.9252,428.5215 C1448.5319,428.5481 1445.8083,428.583 1442.7776,428.6289 C1430.6545,428.8125 1413.6165,429.1719 1393.1455,429.875 C1352.2034,431.2813 1297.5294,434.0625 1240.9788,439.5625 C1127.8775,450.5625 1007.27,472.4375 974,515.9375 C921.115,585.0775 917.01,682.7075 926.3013,763.5438 C927.4627,773.6483 928.8334,783.4904 930.3443,792.9817 " fill="none" id="iceoryx_posh-to-iceoryx_hoofs" style="stroke:#181818;stroke-width:1.0;stroke-dasharray:7.0,7.0;"/><polygon fill="#181818" points="930.3443,792.9817,932.8797,783.4648,929.5583,788.0439,924.9791,784.7225,930.3443,792.9817" style="stroke:#181818;stroke-width:1.0;"/><text fill="#000000" font-family="sans-serif" font-size="13" lengthAdjust="spacing" textLength="23" x="975" y="654.0044">use</text></g><!--MD5=[789bae7a0e1705160d5933b82c1d66fe]
link iceoryx_dust to iceoryx_hoofs--><g id="link_iceoryx_dust_iceoryx_hoofs"><path d="M1006.9631,687.7659 C1006.6502,689.2188 1006.3304,690.7038 1006.0041,692.2191 C1000.7825,716.4638 993.8913,748.4588 987,780.4525 C980.1088,812.4463 973.2175,844.4388 967.9959,868.6784 C967.6696,870.1934 967.3498,871.6781 967.0369,873.1306 " fill="none" id="iceoryx_dust-to-iceoryx_hoofs" style="stroke:#181818;stroke-width:1.0;stroke-dasharray:7.0,7.0;"/><polygon fill="#181818" points="967.0369,873.1306,972.8424,865.1748,968.0898,868.2428,965.0218,863.4901,967.0369,873.1306" style="stroke:#181818;stroke-width:1.0;"/><text fill="#000000" font-family="sans-serif" font-size="13" lengthAdjust="spacing" textLength="23" x="993" y="766.0044">use</text></g><!--MD5=[ba36a0802a862251e02220d024c46d0f]
link iceoryx_posh to iceoryx_dust--><g id="link_iceoryx_posh_iceoryx_dust"><path d="M1454.4599,429.0161 C1453.9996,429.0489 1453.5219,429.0831 1453.0271,429.1188 C1451.048,429.2616 1448.795,429.4275 1446.287,429.617 C1436.2547,430.375 1422.141,431.5123 1405.1452,433.0714 C1371.1534,436.1897 1325.6331,440.9956 1278.1788,447.8312 C1183.27,461.5025 1080.625,483.2925 1047,515.9375 C1044.3256,518.5338 1041.8592,521.3121 1039.5853,524.2402 C1038.4484,525.7043 1037.3595,527.2058 1036.3169,528.7408 C1035.7956,529.5083 1035.2858,530.2841 1034.7873,531.0678 C1034.6627,531.2638 1034.5388,531.4602 1034.4156,531.6571 " fill="none" id="iceoryx_posh-to-iceoryx_dust" style="stroke:#181818;stroke-width:1.0;stroke-dasharray:7.0,7.0;"/><polygon fill="#181818" points="1034.4156,531.6571,1042.5805,526.1494,1037.0679,527.4185,1035.7988,521.9058,1034.4156,531.6571" style="stroke:#181818;stroke-width:1.0;"/><text fill="#000000" font-family="sans-serif" font-size="13" lengthAdjust="spacing" textLength="23" x="1083" y="504.0044">use</text></g><!--MD5=[923ab2d2a35521c01aa04bd91104d3ef]
link iceoryx_dds to iceoryx_posh--><g id="link_iceoryx_dds_iceoryx_posh"><path d="M1463,237.5431 C1463,238.3427 1463,239.1478 1463,239.9583 C1463,246.4421 1463,253.2669 1463,260.3189 C1463,274.4229 1463,289.4359 1463,304.4488 C1463,305.3871 1463,306.3254 1463,307.2634 C1463,307.7325 1463,308.2014 1463,308.6703 C1463,308.9048 1463,309.1392 1463,309.3736 " fill="none" id="iceoryx_dds-to-iceoryx_posh" style="stroke:#181818;stroke-width:1.0;stroke-dasharray:7.0,7.0;"/><polygon fill="#181818" points="1463,309.3736,1467,300.3736,1463,304.3736,1459,300.3736,1463,309.3736" style="stroke:#181818;stroke-width:1.0;"/><text fill="#000000" font-family="sans-serif" font-size="13" lengthAdjust="spacing" textLength="23" x="1464" y="282.0044">use</text></g><!--MD5=[0849cf4ebcd2e43f7ea270bd3535bf86]
link iceoryx_rs to iceoryx_posh--><g id="link_iceoryx_rs_iceoryx_posh"><path d="M1379.91,201.1775 C1390.285,229.2975 1410.575,284.305 1428.5063,332.9213 C1437.4719,357.2294 1445.8478,379.9397 1452.0998,396.8923 C1452.8813,399.0114 1453.6297,401.0405 1454.3418,402.9716 C1454.5198,403.4543 1454.6956,403.931 1454.8691,404.4013 " fill="none" id="iceoryx_rs-to-iceoryx_posh" style="stroke:#181818;stroke-width:1.0;stroke-dasharray:7.0,7.0;"/><polygon fill="#181818" points="1454.8691,404.4013,1455.508,394.5732,1453.1391,399.7102,1448.0021,397.3412,1454.8691,404.4013" style="stroke:#181818;stroke-width:1.0;"/><text fill="#000000" font-family="sans-serif" font-size="13" lengthAdjust="spacing" textLength="23" x="1410" y="282.0044">use</text></g><!--MD5=[9eb138455fa2e3111a1139ef28cb7403]
link automotive_soa to iceoryx_posh--><g id="link_automotive_soa_iceoryx_posh"><path d="M1226.66,201.1775 C1256.165,229.2975 1313.88,284.305 1364.8875,332.9213 C1390.3913,357.2294 1414.2181,379.9397 1432.0034,396.8923 C1440.8961,405.3687 1448.2784,412.4056 1453.6046,417.4831 C1453.9375,417.8005 1454.2624,418.1101 1454.5791,418.4121 " fill="none" id="automotive_soa-to-iceoryx_posh" style="stroke:#181818;stroke-width:1.0;stroke-dasharray:7.0,7.0;"/><polygon fill="#181818" points="1454.5791,418.4121,1450.8249,409.3068,1450.9601,414.962,1445.3048,415.0972,1454.5791,418.4121" style="stroke:#181818;stroke-width:1.0;"/><text fill="#000000" font-family="sans-serif" font-size="13" lengthAdjust="spacing" textLength="23" x="1313" y="282.0044">use</text></g><!--MD5=[ef085833380be4e9d63cc0e4596daa95]
link iceoryx_binding_c to iceoryx_posh--><g id="link_iceoryx_binding_c_iceoryx_posh"><path d="M1872.88,202.0166 C1872.6646,202.4701 1872.4449,202.9287 1872.2209,203.3919 C1870.4292,207.0977 1868.3644,211.1041 1866.0275,215.2463 C1856.68,231.815 1842.98,250.5575 1825,260.9375 C1791.84,280.0775 1509.7,267.4975 1482,293.9375 C1479.3525,296.465 1476.9589,299.183 1474.7979,302.0586 C1473.7174,303.4964 1472.6951,304.9736 1471.7282,306.486 C1471.2448,307.2422 1470.7753,308.0073 1470.3193,308.7806 C1470.2053,308.9739 1470.0922,309.1678 1469.9799,309.3621 " fill="none" id="iceoryx_binding_c-to-iceoryx_posh" style="stroke:#181818;stroke-width:1.0;stroke-dasharray:7.0,7.0;"/><polygon fill="#181818" points="1469.9799,309.3621,1477.9461,303.5708,1472.4814,305.0329,1471.0193,299.5683,1469.9799,309.3621" style="stroke:#181818;stroke-width:1.0;"/><text fill="#000000" font-family="sans-serif" font-size="13" lengthAdjust="spacing" textLength="23" x="1780" y="282.0044">use</text></g><!--MD5=[4b8aab564a453d286cf375876300a066]
link introspection to iceoryx_posh--><g id="link_introspection_iceoryx_posh"><path d="M2346.51,212.9675 C2318.05,230.3575 2279.9,250.6675 2243,260.9375 C2058.15,312.3775 2003.72,278.0575 1812,285.9375 C1802.84,286.3175 1488.86,287.8475 1482,293.9375 C1479.2638,296.3681 1476.7923,299.0012 1474.5633,301.8026 C1473.4489,303.2034 1472.395,304.6462 1471.399,306.1268 C1470.9011,306.8671 1470.4175,307.6169 1469.9481,308.3756 C1469.7134,308.7549 1469.4823,309.1365 1469.2546,309.5202 " fill="none" id="introspection-to-iceoryx_posh" style="stroke:#181818;stroke-width:1.0;stroke-dasharray:7.0,7.0;"/><polygon fill="#181818" points="1469.2546,309.5202,1477.2871,303.8212,1471.8059,305.2202,1470.407,299.739,1469.2546,309.5202" style="stroke:#181818;stroke-width:1.0;"/><text fill="#000000" font-family="sans-serif" font-size="13" lengthAdjust="spacing" textLength="23" x="2212" y="282.0044">use</text></g></g></svg>