<?xml version="1.0" encoding="UTF-8" standalone="no"?><svg xmlns="http://www.w3.org/2000/svg" xmlns:xlink="http://www.w3.org/1999/xlink" contentScriptType="application/ecmascript" contentStyleType="text/css" height="967px" preserveAspectRatio="none" style="width:2622px;height:967px;background:#00000000;" version="1.1" viewBox="0 0 2622 967" width="2622px" zoomAndPan="magnify"><defs><filter height="300%" id="f1fides0ms7ao0" width="300%" x="-1" y="-1"><feGaussianBlur result="blurOut" stdDeviation="2.0"/><feColorMatrix in="blurOut" result="blurOut2" type="matrix" values="0 0 0 0 0 0 0 0 0 0 0 0 0 0 0 0 0 0 .4 0"/><feOffset dx="4.0" dy="4.0" in="blurOut2" result="blurOut3"/><feBlend in="SourceGraphic" in2="blurOut3" mode="normal"/></filter></defs><g><text fill="#888888" font-family="sans-serif" font-size="10" lengthAdjust="spacing" textLength="176" x="2433" y="9.2822">Eclipse iceoryx component overview</text><text fill="#000000" font-family="sans-serif" font-size="18" lengthAdjust="spacing" textLength="334" x="1137.5" y="28.3486">Eclipse iceoryx Component Overview</text><!--MD5=[415eaaaa2a07b50c6508c9baea7f95bd]
cluster iceoryx_hoofs--><polygon fill="#008000" filter="url(#f1fides0ms7ao0)" points="1420,514.5938,1536,514.5938,1543,536.8906,2605,536.8906,2605,960.5938,1420,960.5938,1420,514.5938" style="stroke:#000000;stroke-width:1.5;"/><line style="stroke:#000000;stroke-width:1.5;" x1="1420" x2="1543" y1="536.8906" y2="536.8906"/><text fill="#000000" font-family="sans-serif" font-size="14" font-weight="bold" lengthAdjust="spacing" textLength="110" x="1424" y="529.5889">iceoryx_hoofs</text><!--MD5=[b4465e90ffeb9984a7a126b6e59ae458]
cluster hoofs library--><rect fill="#D2691E" filter="url(#f1fides0ms7ao0)" height="363" style="stroke:#000000;stroke-width:1.5;" width="1113" x="1460" y="565.5938"/><path d="M1570,565.5938 L1570,574.8906 L1560,584.8906 L1460,584.8906 " fill="none" style="stroke:#000000;stroke-width:1.5;"/><text fill="#000000" font-family="sans-serif" font-size="14" font-weight="bold" lengthAdjust="spacing" textLength="100" x="1463" y="579.5889">hoofs library</text><!--MD5=[c7abec679f850aa996fa297d4bffb25c]
cluster cxx--><rect fill="#FFFF00" filter="url(#f1fides0ms7ao0)" height="296" style="stroke:#000000;stroke-width:1.5;" width="343" x="2206" y="608.5938"/><rect fill="#FFFF00" height="10" style="stroke:#000000;stroke-width:1.5;" width="15" x="2529" y="613.5938"/><rect fill="#FFFF00" height="2" style="stroke:#000000;stroke-width:1.5;" width="4" x="2527" y="615.5938"/><rect fill="#FFFF00" height="2" style="stroke:#000000;stroke-width:1.5;" width="4" x="2527" y="619.5938"/><text fill="#000000" font-family="sans-serif" font-size="14" font-style="italic" lengthAdjust="spacing" textLength="98" x="2328.5" y="634.5889">«namespace»</text><text fill="#000000" font-family="sans-serif" font-size="14" font-weight="bold" lengthAdjust="spacing" textLength="27" x="2364" y="650.8857">cxx</text><!--MD5=[4a0d858a1b32f3a888c29c8953eb9aab]
cluster log--><rect fill="#FFFF00" filter="url(#f1fides0ms7ao0)" height="130" style="stroke:#000000;stroke-width:1.5;" width="170" x="2012" y="608.5938"/><rect fill="#FFFF00" height="10" style="stroke:#000000;stroke-width:1.5;" width="15" x="2162" y="613.5938"/><rect fill="#FFFF00" height="2" style="stroke:#000000;stroke-width:1.5;" width="4" x="2160" y="615.5938"/><rect fill="#FFFF00" height="2" style="stroke:#000000;stroke-width:1.5;" width="4" x="2160" y="619.5938"/><text fill="#000000" font-family="sans-serif" font-size="14" font-style="italic" lengthAdjust="spacing" textLength="98" x="2048" y="634.5889">«namespace»</text><text fill="#000000" font-family="sans-serif" font-size="14" font-weight="bold" lengthAdjust="spacing" textLength="24" x="2085" y="650.8857">log</text><!--MD5=[f5f1b3651291938931aee825d03ea60b]
cluster units--><rect fill="#FFFF00" filter="url(#f1fides0ms7ao0)" height="130" style="stroke:#000000;stroke-width:1.5;" width="180" x="1808" y="608.5938"/><rect fill="#FFFF00" height="10" style="stroke:#000000;stroke-width:1.5;" width="15" x="1968" y="613.5938"/><rect fill="#FFFF00" height="2" style="stroke:#000000;stroke-width:1.5;" width="4" x="1966" y="615.5938"/><rect fill="#FFFF00" height="2" style="stroke:#000000;stroke-width:1.5;" width="4" x="1966" y="619.5938"/><text fill="#000000" font-family="sans-serif" font-size="14" font-style="italic" lengthAdjust="spacing" textLength="98" x="1849" y="634.5889">«namespace»</text><text fill="#000000" font-family="sans-serif" font-size="14" font-weight="bold" lengthAdjust="spacing" textLength="39" x="1878.5" y="650.8857">units</text><!--MD5=[ed7dc03aa8d539cfd7d57db110a68e55]
cluster iceoryx_posh--><polygon fill="#008000" filter="url(#f1fides0ms7ao0)" points="16,292.5938,126,292.5938,133,314.8906,1380,314.8906,1380,770.5938,16,770.5938,16,292.5938" style="stroke:#000000;stroke-width:1.5;"/><line style="stroke:#000000;stroke-width:1.5;" x1="16" x2="133" y1="314.8906" y2="314.8906"/><text fill="#000000" font-family="sans-serif" font-size="14" font-weight="bold" lengthAdjust="spacing" textLength="104" x="20" y="307.5889">iceoryx_posh</text><!--MD5=[38f2323d045ecacd4478f4c7d1e06b9d]
cluster core library--><rect fill="#D2691E" filter="url(#f1fides0ms7ao0)" height="395" style="stroke:#000000;stroke-width:1.5;" width="516" x="824" y="343.5938"/><path d="M925,343.5938 L925,352.8906 L915,362.8906 L824,362.8906 " fill="none" style="stroke:#000000;stroke-width:1.5;"/><text fill="#000000" font-family="sans-serif" font-size="14" font-weight="bold" lengthAdjust="spacing" textLength="91" x="827" y="357.5889">core library</text><!--MD5=[2882655244722af885eff964b671140f]
cluster runtime library--><rect fill="#D2691E" filter="url(#f1fides0ms7ao0)" height="114" style="stroke:#000000;stroke-width:1.5;" width="170" x="630" y="343.5938"/><path d="M756,343.5938 L756,352.8906 L746,362.8906 L630,362.8906 " fill="none" style="stroke:#000000;stroke-width:1.5;"/><text fill="#000000" font-family="sans-serif" font-size="14" font-weight="bold" lengthAdjust="spacing" textLength="116" x="633" y="357.5889">runtime library</text><!--MD5=[4997cf375c60d6f53c72389211135b42]
cluster gateway library--><rect fill="#D2691E" filter="url(#f1fides0ms7ao0)" height="114" style="stroke:#000000;stroke-width:1.5;" width="170" x="436" y="343.5938"/><path d="M568,343.5938 L568,352.8906 L558,362.8906 L436,362.8906 " fill="none" style="stroke:#000000;stroke-width:1.5;"/><text fill="#000000" font-family="sans-serif" font-size="14" font-weight="bold" lengthAdjust="spacing" textLength="122" x="439" y="357.5889">gateway library</text><!--MD5=[d11aad145ca7e2c3ef6ec64753ab2f2b]
cluster config library--><rect fill="#D2691E" filter="url(#f1fides0ms7ao0)" height="114" style="stroke:#000000;stroke-width:1.5;" width="170" x="242" y="343.5938"/><path d="M356,343.5938 L356,352.8906 L346,362.8906 L242,362.8906 " fill="none" style="stroke:#000000;stroke-width:1.5;"/><text fill="#000000" font-family="sans-serif" font-size="14" font-weight="bold" lengthAdjust="spacing" textLength="104" x="245" y="357.5889">config library</text><!--MD5=[c694ed67aab4c45e63f5b674f5ebdacc]
cluster RouDi library--><rect fill="#D2691E" filter="url(#f1fides0ms7ao0)" height="114" style="stroke:#000000;stroke-width:1.5;" width="170" x="48" y="343.5938"/><path d="M158,343.5938 L158,352.8906 L148,362.8906 L48,362.8906 " fill="none" style="stroke:#000000;stroke-width:1.5;"/><text fill="#000000" font-family="sans-serif" font-size="14" font-weight="bold" lengthAdjust="spacing" textLength="100" x="51" y="357.5889">RouDi library</text><!--MD5=[95dba68051f17ed836827d70d887a54a]
cluster iceoryx_dds--><polygon fill="#008000" filter="url(#f1fides0ms7ao0)" points="946,89.5938,1046,89.5938,1053,111.8906,1324,111.8906,1324,219.5938,946,219.5938,946,89.5938" style="stroke:#000000;stroke-width:1.5;"/><line style="stroke:#000000;stroke-width:1.5;" x1="946" x2="1053" y1="111.8906" y2="111.8906"/><text fill="#000000" font-family="sans-serif" font-size="14" font-weight="bold" lengthAdjust="spacing" textLength="94" x="950" y="104.5889">iceoryx_dds</text><!--MD5=[addeb03e3eb587838caeece846992337]
cluster iceoryx_binding_c--><polygon fill="#008000" filter="url(#f1fides0ms7ao0)" points="1364,89.5938,1509,89.5938,1516,111.8906,1742,111.8906,1742,219.5938,1364,219.5938,1364,89.5938" style="stroke:#000000;stroke-width:1.5;"/><line style="stroke:#000000;stroke-width:1.5;" x1="1364" x2="1516" y1="111.8906" y2="111.8906"/><text fill="#000000" font-family="sans-serif" font-size="14" font-weight="bold" lengthAdjust="spacing" textLength="139" x="1368" y="104.5889">iceoryx_binding_c</text><!--MD5=[beec581614c18060e11082c458798f50]
cluster iceoryx_introspection--><polygon fill="#008000" filter="url(#f1fides0ms7ao0)" points="1774,38.5938,1950,38.5938,1957,60.8906,1992,60.8906,1992,235.5938,1774,235.5938,1774,38.5938" style="stroke:#000000;stroke-width:1.5;"/><line style="stroke:#000000;stroke-width:1.5;" x1="1774" x2="1957" y1="60.8906" y2="60.8906"/><text fill="#000000" font-family="sans-serif" font-size="14" font-weight="bold" lengthAdjust="spacing" textLength="170" x="1778" y="53.5889">iceoryx_introspection</text><!--MD5=[aa2f05b2676d7d34ffa7e771fb7634f3]
cluster client--><rect fill="#FFFF00" filter="url(#f1fides0ms7ao0)" height="130" style="stroke:#000000;stroke-width:1.5;" width="170" x="1798" y="81.5938"/><rect fill="#FFFF00" height="10" style="stroke:#000000;stroke-width:1.5;" width="15" x="1948" y="86.5938"/><rect fill="#FFFF00" height="2" style="stroke:#000000;stroke-width:1.5;" width="4" x="1946" y="88.5938"/><rect fill="#FFFF00" height="2" style="stroke:#000000;stroke-width:1.5;" width="4" x="1946" y="92.5938"/><text fill="#000000" font-family="sans-serif" font-size="14" font-style="italic" lengthAdjust="spacing" textLength="98" x="1834" y="107.5889">«namespace»</text><text fill="#000000" font-family="sans-serif" font-size="14" font-weight="bold" lengthAdjust="spacing" textLength="43" x="1861.5" y="123.8857">client</text><!--MD5=[d91e39a99efde3d86d45b17502cf0b7a]
entity concurrent--><rect fill="#FFFF00" filter="url(#f1fides0ms7ao0)" height="62.5938" style="stroke:#A80036;stroke-width:1.5;" width="138" x="1476" y="659.5938"/><rect fill="#FFFF00" height="10" style="stroke:#A80036;stroke-width:1.5;" width="15" x="1594" y="664.5938"/><rect fill="#FFFF00" height="2" style="stroke:#A80036;stroke-width:1.5;" width="4" x="1592" y="666.5938"/><rect fill="#FFFF00" height="2" style="stroke:#A80036;stroke-width:1.5;" width="4" x="1592" y="670.5938"/><text fill="#000000" font-family="sans-serif" font-size="14" font-style="italic" lengthAdjust="spacing" textLength="98" x="1491" y="692.5889">«namespace»</text><text fill="#000000" font-family="sans-serif" font-size="14" lengthAdjust="spacing" textLength="76" x="1502" y="708.8857">concurrent</text><!--MD5=[ee73bf7a731da339678d59279e2ee62c]
entity DesignPattern--><rect fill="#FFFF00" filter="url(#f1fides0ms7ao0)" height="62.5938" style="stroke:#A80036;stroke-width:1.5;" width="139" x="1649.5" y="659.5938"/><rect fill="#FFFF00" height="10" style="stroke:#A80036;stroke-width:1.5;" width="15" x="1768.5" y="664.5938"/><rect fill="#FFFF00" height="2" style="stroke:#A80036;stroke-width:1.5;" width="4" x="1766.5" y="666.5938"/><rect fill="#FFFF00" height="2" style="stroke:#A80036;stroke-width:1.5;" width="4" x="1766.5" y="670.5938"/><text fill="#000000" font-family="sans-serif" font-size="14" font-style="italic" lengthAdjust="spacing" textLength="98" x="1665" y="692.5889">«namespace»</text><text fill="#000000" font-family="sans-serif" font-size="14" lengthAdjust="spacing" textLength="99" x="1664.5" y="708.8857">DesignPattern</text><!--MD5=[ffd9c204d205bc9185ab1a43c6f1aff1]
entity errors--><rect fill="#FFFF00" filter="url(#f1fides0ms7ao0)" height="62.5938" style="stroke:#A80036;stroke-width:1.5;" width="138" x="1476" y="825.5938"/><rect fill="#FFFF00" height="10" style="stroke:#A80036;stroke-width:1.5;" width="15" x="1594" y="830.5938"/><rect fill="#FFFF00" height="2" style="stroke:#A80036;stroke-width:1.5;" width="4" x="1592" y="832.5938"/><rect fill="#FFFF00" height="2" style="stroke:#A80036;stroke-width:1.5;" width="4" x="1592" y="836.5938"/><text fill="#000000" font-family="sans-serif" font-size="14" font-style="italic" lengthAdjust="spacing" textLength="98" x="1491" y="858.5889">«namespace»</text><text fill="#000000" font-family="sans-serif" font-size="14" lengthAdjust="spacing" textLength="41" x="1519.5" y="874.8857">errors</text><!--MD5=[4f40616c88d3689c25a72e321dd68143]
entity posix--><rect fill="#FFFF00" filter="url(#f1fides0ms7ao0)" height="62.5938" style="stroke:#A80036;stroke-width:1.5;" width="138" x="1649" y="825.5938"/><rect fill="#FFFF00" height="10" style="stroke:#A80036;stroke-width:1.5;" width="15" x="1767" y="830.5938"/><rect fill="#FFFF00" height="2" style="stroke:#A80036;stroke-width:1.5;" width="4" x="1765" y="832.5938"/><rect fill="#FFFF00" height="2" style="stroke:#A80036;stroke-width:1.5;" width="4" x="1765" y="836.5938"/><text fill="#000000" font-family="sans-serif" font-size="14" font-style="italic" lengthAdjust="spacing" textLength="98" x="1664" y="858.5889">«namespace»</text><text fill="#000000" font-family="sans-serif" font-size="14" lengthAdjust="spacing" textLength="36" x="1695" y="874.8857">posix</text><!--MD5=[6e04307d27c2c0e0e73f4ec182e43def]
entity newtype--><rect fill="#FFFF00" filter="url(#f1fides0ms7ao0)" height="62.5938" style="stroke:#A80036;stroke-width:1.5;" width="138" x="2222" y="659.5938"/><rect fill="#FFFF00" height="10" style="stroke:#A80036;stroke-width:1.5;" width="15" x="2340" y="664.5938"/><rect fill="#FFFF00" height="2" style="stroke:#A80036;stroke-width:1.5;" width="4" x="2338" y="666.5938"/><rect fill="#FFFF00" height="2" style="stroke:#A80036;stroke-width:1.5;" width="4" x="2338" y="670.5938"/><text fill="#000000" font-family="sans-serif" font-size="14" font-style="italic" lengthAdjust="spacing" textLength="98" x="2237" y="692.5889">«namespace»</text><text fill="#000000" font-family="sans-serif" font-size="14" lengthAdjust="spacing" textLength="59" x="2256.5" y="708.8857">newtype</text><!--MD5=[01dbf0ecbd7384941a03b03e119fcbdd]
entity set--><rect fill="#FFFF00" filter="url(#f1fides0ms7ao0)" height="62.5938" style="stroke:#A80036;stroke-width:1.5;" width="138" x="2395" y="659.5938"/><rect fill="#FFFF00" height="10" style="stroke:#A80036;stroke-width:1.5;" width="15" x="2513" y="664.5938"/><rect fill="#FFFF00" height="2" style="stroke:#A80036;stroke-width:1.5;" width="4" x="2511" y="666.5938"/><rect fill="#FFFF00" height="2" style="stroke:#A80036;stroke-width:1.5;" width="4" x="2511" y="670.5938"/><text fill="#000000" font-family="sans-serif" font-size="14" font-style="italic" lengthAdjust="spacing" textLength="98" x="2410" y="692.5889">«namespace»</text><text fill="#000000" font-family="sans-serif" font-size="14" lengthAdjust="spacing" textLength="22" x="2448" y="708.8857">set</text><!--MD5=[ad1b6dc57716247de80283970c4ee265]
entity algorithm--><rect fill="#FFFF00" filter="url(#f1fides0ms7ao0)" height="62.5938" style="stroke:#A80036;stroke-width:1.5;" width="138" x="2222" y="825.5938"/><rect fill="#FFFF00" height="10" style="stroke:#A80036;stroke-width:1.5;" width="15" x="2340" y="830.5938"/><rect fill="#FFFF00" height="2" style="stroke:#A80036;stroke-width:1.5;" width="4" x="2338" y="832.5938"/><rect fill="#FFFF00" height="2" style="stroke:#A80036;stroke-width:1.5;" width="4" x="2338" y="836.5938"/><text fill="#000000" font-family="sans-serif" font-size="14" font-style="italic" lengthAdjust="spacing" textLength="98" x="2237" y="858.5889">«namespace»</text><text fill="#000000" font-family="sans-serif" font-size="14" lengthAdjust="spacing" textLength="64" x="2254" y="874.8857">algorithm</text><!--MD5=[963fb1ac2687aab13b570b0cd76338eb]
entity ffbb--><rect fill="#FFFF00" filter="url(#f1fides0ms7ao0)" height="62.5938" style="stroke:#A80036;stroke-width:1.5;" width="138" x="2028" y="659.5938"/><rect fill="#FFFF00" height="10" style="stroke:#A80036;stroke-width:1.5;" width="15" x="2146" y="664.5938"/><rect fill="#FFFF00" height="2" style="stroke:#A80036;stroke-width:1.5;" width="4" x="2144" y="666.5938"/><rect fill="#FFFF00" height="2" style="stroke:#A80036;stroke-width:1.5;" width="4" x="2144" y="670.5938"/><text fill="#000000" font-family="sans-serif" font-size="14" font-style="italic" lengthAdjust="spacing" textLength="98" x="2043" y="692.5889">«namespace»</text><text fill="#000000" font-family="sans-serif" font-size="14" lengthAdjust="spacing" textLength="26" x="2079" y="708.8857">ffbb</text><!--MD5=[02615e27588e6842f1f6d6ca220ff1eb]
entity duration_literals--><rect fill="#FFFF00" filter="url(#f1fides0ms7ao0)" height="62.5938" style="stroke:#A80036;stroke-width:1.5;" width="148" x="1824" y="659.5938"/><rect fill="#FFFF00" height="10" style="stroke:#A80036;stroke-width:1.5;" width="15" x="1952" y="664.5938"/><rect fill="#FFFF00" height="2" style="stroke:#A80036;stroke-width:1.5;" width="4" x="1950" y="666.5938"/><rect fill="#FFFF00" height="2" style="stroke:#A80036;stroke-width:1.5;" width="4" x="1950" y="670.5938"/><text fill="#000000" font-family="sans-serif" font-size="14" font-style="italic" lengthAdjust="spacing" textLength="98" x="1844" y="692.5889">«namespace»</text><text fill="#000000" font-family="sans-serif" font-size="14" lengthAdjust="spacing" textLength="108" x="1839" y="708.8857">duration_literals</text><!--MD5=[477a64901edc741ec91a401c96bc08f2]
entity popo--><rect fill="#FFFF00" filter="url(#f1fides0ms7ao0)" height="62.5938" style="stroke:#A80036;stroke-width:1.5;" width="138" x="840" y="378.5938"/><rect fill="#FFFF00" height="10" style="stroke:#A80036;stroke-width:1.5;" width="15" x="958" y="383.5938"/><rect fill="#FFFF00" height="2" style="stroke:#A80036;stroke-width:1.5;" width="4" x="956" y="385.5938"/><rect fill="#FFFF00" height="2" style="stroke:#A80036;stroke-width:1.5;" width="4" x="956" y="389.5938"/><text fill="#000000" font-family="sans-serif" font-size="14" font-style="italic" lengthAdjust="spacing" textLength="98" x="855" y="411.5889">«namespace»</text><text fill="#000000" font-family="sans-serif" font-size="14" lengthAdjust="spacing" textLength="36" x="886" y="427.8857">popo</text><!--MD5=[ba5cc415984907cdd9d4abcea172ca01]
entity capro--><rect fill="#FFFF00" filter="url(#f1fides0ms7ao0)" height="62.5938" style="stroke:#A80036;stroke-width:1.5;" width="138" x="1013" y="378.5938"/><rect fill="#FFFF00" height="10" style="stroke:#A80036;stroke-width:1.5;" width="15" x="1131" y="383.5938"/><rect fill="#FFFF00" height="2" style="stroke:#A80036;stroke-width:1.5;" width="4" x="1129" y="385.5938"/><rect fill="#FFFF00" height="2" style="stroke:#A80036;stroke-width:1.5;" width="4" x="1129" y="389.5938"/><text fill="#000000" font-family="sans-serif" font-size="14" font-style="italic" lengthAdjust="spacing" textLength="98" x="1028" y="411.5889">«namespace»</text><text fill="#000000" font-family="sans-serif" font-size="14" lengthAdjust="spacing" textLength="39" x="1057.5" y="427.8857">capro</text><!--MD5=[09f98eabc58f714e0f010bacf40ca87c]
entity mepoo--><rect fill="#FFFF00" filter="url(#f1fides0ms7ao0)" height="62.5938" style="stroke:#A80036;stroke-width:1.5;" width="138" x="1186" y="378.5938"/><rect fill="#FFFF00" height="10" style="stroke:#A80036;stroke-width:1.5;" width="15" x="1304" y="383.5938"/><rect fill="#FFFF00" height="2" style="stroke:#A80036;stroke-width:1.5;" width="4" x="1302" y="385.5938"/><rect fill="#FFFF00" height="2" style="stroke:#A80036;stroke-width:1.5;" width="4" x="1302" y="389.5938"/><text fill="#000000" font-family="sans-serif" font-size="14" font-style="italic" lengthAdjust="spacing" textLength="98" x="1201" y="411.5889">«namespace»</text><text fill="#000000" font-family="sans-serif" font-size="14" lengthAdjust="spacing" textLength="49" x="1225.5" y="427.8857">mepoo</text><!--MD5=[eed5921adeb5106d45e8647997b5fa68]
entity version--><rect fill="#FFFF00" filter="url(#f1fides0ms7ao0)" height="62.5938" style="stroke:#A80036;stroke-width:1.5;" width="138" x="840" y="659.5938"/><rect fill="#FFFF00" height="10" style="stroke:#A80036;stroke-width:1.5;" width="15" x="958" y="664.5938"/><rect fill="#FFFF00" height="2" style="stroke:#A80036;stroke-width:1.5;" width="4" x="956" y="666.5938"/><rect fill="#FFFF00" height="2" style="stroke:#A80036;stroke-width:1.5;" width="4" x="956" y="670.5938"/><text fill="#000000" font-family="sans-serif" font-size="14" font-style="italic" lengthAdjust="spacing" textLength="98" x="855" y="692.5889">«namespace»</text><text fill="#000000" font-family="sans-serif" font-size="14" lengthAdjust="spacing" textLength="50" x="879" y="708.8857">version</text><!--MD5=[11fa01443fe50a6a26e5f9d4ef816fb0]
entity build--><rect fill="#FFFF00" filter="url(#f1fides0ms7ao0)" height="62.5938" style="stroke:#A80036;stroke-width:1.5;" width="138" x="1013" y="659.5938"/><rect fill="#FFFF00" height="10" style="stroke:#A80036;stroke-width:1.5;" width="15" x="1131" y="664.5938"/><rect fill="#FFFF00" height="2" style="stroke:#A80036;stroke-width:1.5;" width="4" x="1129" y="666.5938"/><rect fill="#FFFF00" height="2" style="stroke:#A80036;stroke-width:1.5;" width="4" x="1129" y="670.5938"/><text fill="#000000" font-family="sans-serif" font-size="14" font-style="italic" lengthAdjust="spacing" textLength="98" x="1028" y="692.5889">«namespace»</text><text fill="#000000" font-family="sans-serif" font-size="14" lengthAdjust="spacing" textLength="33" x="1060.5" y="708.8857">build</text><!--MD5=[6857f13236cb144e56befd21da1781a5]
entity runtime--><rect fill="#FFFF00" filter="url(#f1fides0ms7ao0)" height="62.5938" style="stroke:#A80036;stroke-width:1.5;" width="138" x="646" y="378.5938"/><rect fill="#FFFF00" height="10" style="stroke:#A80036;stroke-width:1.5;" width="15" x="764" y="383.5938"/><rect fill="#FFFF00" height="2" style="stroke:#A80036;stroke-width:1.5;" width="4" x="762" y="385.5938"/><rect fill="#FFFF00" height="2" style="stroke:#A80036;stroke-width:1.5;" width="4" x="762" y="389.5938"/><text fill="#000000" font-family="sans-serif" font-size="14" font-style="italic" lengthAdjust="spacing" textLength="98" x="661" y="411.5889">«namespace»</text><text fill="#000000" font-family="sans-serif" font-size="14" lengthAdjust="spacing" textLength="53" x="683.5" y="427.8857">runtime</text><!--MD5=[5f97cdfbafef6a5cbddfbf6bdd3803d1]
entity gw--><rect fill="#FFFF00" filter="url(#f1fides0ms7ao0)" height="62.5938" style="stroke:#A80036;stroke-width:1.5;" width="138" x="452" y="378.5938"/><rect fill="#FFFF00" height="10" style="stroke:#A80036;stroke-width:1.5;" width="15" x="570" y="383.5938"/><rect fill="#FFFF00" height="2" style="stroke:#A80036;stroke-width:1.5;" width="4" x="568" y="385.5938"/><rect fill="#FFFF00" height="2" style="stroke:#A80036;stroke-width:1.5;" width="4" x="568" y="389.5938"/><text fill="#000000" font-family="sans-serif" font-size="14" font-style="italic" lengthAdjust="spacing" textLength="98" x="467" y="411.5889">«namespace»</text><text fill="#000000" font-family="sans-serif" font-size="14" lengthAdjust="spacing" textLength="20" x="506" y="427.8857">gw</text><!--MD5=[caf660ac2a54b55a5c31b5515889e628]
entity config--><rect fill="#FFFF00" filter="url(#f1fides0ms7ao0)" height="62.5938" style="stroke:#A80036;stroke-width:1.5;" width="138" x="258" y="378.5938"/><rect fill="#FFFF00" height="10" style="stroke:#A80036;stroke-width:1.5;" width="15" x="376" y="383.5938"/><rect fill="#FFFF00" height="2" style="stroke:#A80036;stroke-width:1.5;" width="4" x="374" y="385.5938"/><rect fill="#FFFF00" height="2" style="stroke:#A80036;stroke-width:1.5;" width="4" x="374" y="389.5938"/><text fill="#000000" font-family="sans-serif" font-size="14" font-style="italic" lengthAdjust="spacing" textLength="98" x="273" y="411.5889">«namespace»</text><text fill="#000000" font-family="sans-serif" font-size="14" lengthAdjust="spacing" textLength="42" x="301" y="427.8857">config</text><!--MD5=[f73e6e01beb5fef5d3e1c08b5afdf415]
entity roudi--><rect fill="#FFFF00" filter="url(#f1fides0ms7ao0)" height="62.5938" style="stroke:#A80036;stroke-width:1.5;" width="138" x="64" y="378.5938"/><rect fill="#FFFF00" height="10" style="stroke:#A80036;stroke-width:1.5;" width="15" x="182" y="383.5938"/><rect fill="#FFFF00" height="2" style="stroke:#A80036;stroke-width:1.5;" width="4" x="180" y="385.5938"/><rect fill="#FFFF00" height="2" style="stroke:#A80036;stroke-width:1.5;" width="4" x="180" y="389.5938"/><text fill="#000000" font-family="sans-serif" font-size="14" font-style="italic" lengthAdjust="spacing" textLength="98" x="79" y="411.5889">«namespace»</text><text fill="#000000" font-family="sans-serif" font-size="14" lengthAdjust="spacing" textLength="35" x="110.5" y="427.8857">roudi</text><!--MD5=[4617e0b67180f9dd16cbedc18db55043]
entity dds--><rect fill="#FFFF00" filter="url(#f1fides0ms7ao0)" height="62.5938" style="stroke:#A80036;stroke-width:1.5;" width="138" x="1162" y="132.5938"/><rect fill="#FFFF00" height="10" style="stroke:#A80036;stroke-width:1.5;" width="15" x="1280" y="137.5938"/><rect fill="#FFFF00" height="2" style="stroke:#A80036;stroke-width:1.5;" width="4" x="1278" y="139.5938"/><rect fill="#FFFF00" height="2" style="stroke:#A80036;stroke-width:1.5;" width="4" x="1278" y="143.5938"/><text fill="#000000" font-family="sans-serif" font-size="14" font-style="italic" lengthAdjust="spacing" textLength="98" x="1177" y="165.5889">«namespace»</text><text fill="#000000" font-family="sans-serif" font-size="14" lengthAdjust="spacing" textLength="26" x="1213" y="181.8857">dds</text><!--MD5=[b74312c72fa74392e6ee98a94ff43660]
entity gateway_dds--><rect fill="#FFFF00" filter="url(#f1fides0ms7ao0)" height="62.5938" style="stroke:#A80036;stroke-width:1.5;" width="138" x="989" y="132.5938"/><rect fill="#FFFF00" height="10" style="stroke:#A80036;stroke-width:1.5;" width="15" x="1107" y="137.5938"/><rect fill="#FFFF00" height="2" style="stroke:#A80036;stroke-width:1.5;" width="4" x="1105" y="139.5938"/><rect fill="#FFFF00" height="2" style="stroke:#A80036;stroke-width:1.5;" width="4" x="1105" y="143.5938"/><text fill="#000000" font-family="sans-serif" font-size="14" font-style="italic" lengthAdjust="spacing" textLength="98" x="1004" y="165.5889">«namespace»</text><text fill="#000000" font-family="sans-serif" font-size="14" lengthAdjust="spacing" textLength="20" x="1043" y="181.8857">gw</text><!--MD5=[fc4286d0b2a052e711aae933c9ad3727]
entity cpp2c--><rect fill="#FFFF00" filter="url(#f1fides0ms7ao0)" height="62.5938" style="stroke:#A80036;stroke-width:1.5;" width="138" x="1580" y="132.5938"/><rect fill="#FFFF00" height="10" style="stroke:#A80036;stroke-width:1.5;" width="15" x="1698" y="137.5938"/><rect fill="#FFFF00" height="2" style="stroke:#A80036;stroke-width:1.5;" width="4" x="1696" y="139.5938"/><rect fill="#FFFF00" height="2" style="stroke:#A80036;stroke-width:1.5;" width="4" x="1696" y="143.5938"/><text fill="#000000" font-family="sans-serif" font-size="14" font-style="italic" lengthAdjust="spacing" textLength="98" x="1595" y="165.5889">«namespace»</text><text fill="#000000" font-family="sans-serif" font-size="14" lengthAdjust="spacing" textLength="43" x="1622.5" y="181.8857">cpp2c</text><!--MD5=[e16426ebbb4af2a750e421465750c76a]
entity c2cpp--><rect fill="#FFFF00" filter="url(#f1fides0ms7ao0)" height="62.5938" style="stroke:#A80036;stroke-width:1.5;" width="138" x="1407" y="132.5938"/><rect fill="#FFFF00" height="10" style="stroke:#A80036;stroke-width:1.5;" width="15" x="1525" y="137.5938"/><rect fill="#FFFF00" height="2" style="stroke:#A80036;stroke-width:1.5;" width="4" x="1523" y="139.5938"/><rect fill="#FFFF00" height="2" style="stroke:#A80036;stroke-width:1.5;" width="4" x="1523" y="143.5938"/><text fill="#000000" font-family="sans-serif" font-size="14" font-style="italic" lengthAdjust="spacing" textLength="98" x="1422" y="165.5889">«namespace»</text><text fill="#000000" font-family="sans-serif" font-size="14" lengthAdjust="spacing" textLength="43" x="1449.5" y="181.8857">c2cpp</text><!--MD5=[38dbeb4b243ea6dae1c7e5b7ff87398b]
entity introspection--><rect fill="#FFFF00" filter="url(#f1fides0ms7ao0)" height="62.5938" style="stroke:#A80036;stroke-width:1.5;" width="138" x="1814" y="132.5938"/><rect fill="#FFFF00" height="10" style="stroke:#A80036;stroke-width:1.5;" width="15" x="1932" y="137.5938"/><rect fill="#FFFF00" height="2" style="stroke:#A80036;stroke-width:1.5;" width="4" x="1930" y="139.5938"/><rect fill="#FFFF00" height="2" style="stroke:#A80036;stroke-width:1.5;" width="4" x="1930" y="143.5938"/><text fill="#000000" font-family="sans-serif" font-size="14" font-style="italic" lengthAdjust="spacing" textLength="98" x="1829" y="165.5889">«namespace»</text><text fill="#000000" font-family="sans-serif" font-size="14" lengthAdjust="spacing" textLength="91" x="1832.5" y="181.8857">introspection</text><!--MD5=[c6bc123b88581d7893511edbb3afda00]
link iceoryx_posh to iceoryx_hoofs--><path d="M1380.0369,451.1457 C1380.3498,452.7047 1380.6696,454.2982 1380.9959,455.9242 C1386.2175,481.9403 1393.1087,516.2731 1400,550.605 C1406.8913,584.9369 1413.7825,619.2678 1419.0041,645.2802 C1419.3304,646.9059 1419.6502,648.4992 1419.9631,650.058 " fill="none" id="iceoryx_posh-to-iceoryx_hoofs" style="stroke:#A80036;stroke-width:1.0;stroke-dasharray:7.0,7.0;"/><polygon fill="#A80036" points="1419.9631,650.058,1422.1136,640.4467,1418.9791,645.1557,1414.2701,642.0212,1419.9631,650.058" style="stroke:#A80036;stroke-width:1.0;"/><text fill="#000000" font-family="sans-serif" font-size="13" lengthAdjust="spacing" textLength="23" x="1388" y="486.6606">use</text><!--MD5=[923ab2d2a35521c01aa04bd91104d3ef]
link iceoryx_dds to iceoryx_posh--><path d="M958.0303,219.9204 C958.1173,220.1785 958.2058,220.4362 958.2956,220.6933 C958.4752,221.2076 958.6604,221.7197 958.8512,222.2294 C961.905,230.3844 966.415,237.9163 973,243.5938 C1035.02,297.0638 1278,223.1137 1340,276.5938 C1342.8225,279.0281 1345.4188,281.6645 1347.8061,284.4688 C1348.9998,285.8709 1350.1412,287.3151 1351.2325,288.7969 C1351.7781,289.5378 1352.3112,290.2882 1352.8321,291.0474 C1353.0925,291.4271 1353.3498,291.8089 1353.6042,292.1929 " fill="none" id="iceoryx_dds-to-iceoryx_posh" style="stroke:#A80036;stroke-width:1.0;stroke-dasharray:7.0,7.0;"/><polygon fill="#A80036" points="1353.6042,292.1929,1351.9695,282.4807,1350.8433,288.0243,1345.2997,286.8981,1353.6042,292.1929" style="stroke:#A80036;stroke-width:1.0;"/><text fill="#000000" font-family="sans-serif" font-size="13" lengthAdjust="spacing" textLength="23" x="1327" y="264.6606">use</text><!--MD5=[ef085833380be4e9d63cc0e4596daa95]
link iceoryx_binding_c to iceoryx_posh--><path d="M1372,220.1993 C1372,220.9989 1372,221.8041 1372,222.6146 C1372,229.0984 1372,235.9231 1372,242.9751 C1372,257.0791 1372,272.0922 1372,287.105 C1372,288.0433 1372,288.9816 1372,289.9197 C1372,290.3887 1372,290.8577 1372,291.3266 C1372,291.561 1372,291.7955 1372,292.0299 " fill="none" id="iceoryx_binding_c-to-iceoryx_posh" style="stroke:#A80036;stroke-width:1.0;stroke-dasharray:7.0,7.0;"/><polygon fill="#A80036" points="1372,292.0299,1376,283.0299,1372,287.0299,1368,283.0299,1372,292.0299" style="stroke:#A80036;stroke-width:1.0;"/><text fill="#000000" font-family="sans-serif" font-size="13" lengthAdjust="spacing" textLength="23" x="1373" y="264.6606">use</text><!--MD5=[4b8aab564a453d286cf375876300a066]
link introspection to iceoryx_posh--><path d="M1826.78,195.6638 C1799.04,210.5037 1764.96,228.3737 1734,243.5938 C1655.86,282.0038 1566.945,322.6963 1496.7913,354.12 C1461.7144,369.8319 1431.3278,383.2266 1409.3236,392.8602 C1398.3215,397.677 1389.415,401.5535 1383.0655,404.3092 C1382.2718,404.6537 1381.5181,404.9807 1380.8053,405.2898 C1380.627,405.367 1380.4514,405.4432 1380.2783,405.5182 " fill="none" id="introspection-to-iceoryx_posh" style="stroke:#A80036;stroke-width:1.0;stroke-dasharray:7.0,7.0;"/><polygon fill="#A80036" points="1380.2783,405.5182,1390.1267,405.6087,1384.8658,403.5296,1386.9449,398.2687,1380.2783,405.5182" style="stroke:#A80036;stroke-width:1.0;"/><text fill="#000000" font-family="sans-serif" font-size="13" lengthAdjust="spacing" textLength="23" x="1715" y="264.6606">use</text><!--MD5=[6ee88ec5bb08a8f80fef382bcd89ab2a]
link concurrent to DesignPattern--><!--MD5=[7145daca522e1efb54063cc7aa38c07a]
link concurrent to errors--><!--MD5=[4218ed6aaceaf698e1509a8b8c7331dd]
link errors to posix--><!--MD5=[ad6e6e5a7cf711b8afeea2c3ceffa3b6]
link newtype to set--><!--MD5=[a8e109713a8745e1bfd03a8f989edc95]
link newtype to algorithm--><!--MD5=[4f791f3a16e89c6f7a776d127bc56767]
link popo to capro--><!--MD5=[ba7497340c31a8eaf849912da58dc6c5]
link capro to mepoo--><!--MD5=[978295f2acd8e12b6cc29277143f7468]
link popo to version--><!--MD5=[bbfd15eccc194e184bc66a7fb4fec50c]
link version to build--></g></svg>