<?xml version="1.0" encoding="UTF-8" standalone="no"?><svg xmlns="http://www.w3.org/2000/svg" xmlns:xlink="http://www.w3.org/1999/xlink" contentStyleType="text/css" height="626px" preserveAspectRatio="none" style="width:929px;height:626px;background:#00000000;" version="1.1" viewBox="0 0 929 626" width="929px" zoomAndPan="magnify"><defs/><g><rect fill="none" height="26.2969" id="_title" style="stroke:none;stroke-width:1.0;" width="323" x="296" y="5"/><text fill="#000000" font-family="sans-serif" font-size="14" font-weight="bold" lengthAdjust="spacing" textLength="313" x="301" y="22.9951">Eclipse iceoryx software layers (v3.0.0)</text><!--MD5=[50bec286e8ce6e81079b29e9cf121d87]
entity iceoryx_platform--><g id="elem_iceoryx_platform"><rect fill="#F1F1F1" height="46.2969" rx="2.5" ry="2.5" style="stroke:#181818;stroke-width:0.5;" width="151" x="336" y="574.2969"/><rect fill="#F1F1F1" height="10" style="stroke:#181818;stroke-width:0.5;" width="15" x="467" y="579.2969"/><rect fill="#F1F1F1" height="2" style="stroke:#181818;stroke-width:0.5;" width="4" x="465" y="581.2969"/><rect fill="#F1F1F1" height="2" style="stroke:#181818;stroke-width:0.5;" width="4" x="465" y="585.2969"/><text fill="#000000" font-family="sans-serif" font-size="14" lengthAdjust="spacing" textLength="111" x="351" y="607.292">iceoryx_platform</text></g><!--MD5=[8b6e768d021bd6c381e73bf9af612be8]
entity iceoryx_dust--><g id="elem_iceoryx_dust"><rect fill="#F1F1F1" height="46.2969" rx="2.5" ry="2.5" style="stroke:#181818;stroke-width:0.5;" width="126" x="290.5" y="362.2969"/><rect fill="#F1F1F1" height="10" style="stroke:#181818;stroke-width:0.5;" width="15" x="396.5" y="367.2969"/><rect fill="#F1F1F1" height="2" style="stroke:#181818;stroke-width:0.5;" width="4" x="394.5" y="369.2969"/><rect fill="#F1F1F1" height="2" style="stroke:#181818;stroke-width:0.5;" width="4" x="394.5" y="373.2969"/><text fill="#000000" font-family="sans-serif" font-size="14" lengthAdjust="spacing" textLength="86" x="305.5" y="395.292">iceoryx_dust</text></g><!--MD5=[69661e9daaeafc3e7a24c4130266bf51]
entity iceoryx_hoofs--><g id="elem_iceoryx_hoofs"><rect fill="#F1F1F1" height="46.2969" rx="2.5" ry="2.5" style="stroke:#181818;stroke-width:0.5;" width="134" x="404.5" y="468.2969"/><rect fill="#F1F1F1" height="10" style="stroke:#181818;stroke-width:0.5;" width="15" x="518.5" y="473.2969"/><rect fill="#F1F1F1" height="2" style="stroke:#181818;stroke-width:0.5;" width="4" x="516.5" y="475.2969"/><rect fill="#F1F1F1" height="2" style="stroke:#181818;stroke-width:0.5;" width="4" x="516.5" y="479.2969"/><text fill="#000000" font-family="sans-serif" font-size="14" lengthAdjust="spacing" textLength="94" x="419.5" y="501.292">iceoryx_hoofs</text></g><!--MD5=[74ad152ab75a8d0e3a325b0b8906eb46]
entity iceoryx_posh--><g id="elem_iceoryx_posh"><rect fill="#F1F1F1" height="46.2969" rx="2.5" ry="2.5" style="stroke:#181818;stroke-width:0.5;" width="130" x="405.5" y="256.2969"/><rect fill="#F1F1F1" height="10" style="stroke:#181818;stroke-width:0.5;" width="15" x="515.5" y="261.2969"/><rect fill="#F1F1F1" height="2" style="stroke:#181818;stroke-width:0.5;" width="4" x="513.5" y="263.2969"/><rect fill="#F1F1F1" height="2" style="stroke:#181818;stroke-width:0.5;" width="4" x="513.5" y="267.2969"/><text fill="#000000" font-family="sans-serif" font-size="14" lengthAdjust="spacing" textLength="90" x="420.5" y="289.292">iceoryx_posh</text></g><!--MD5=[ec8cc9883d7ef7823ae7e8bd7cb942ac]
entity iceoryx_binding_c--><g id="elem_iceoryx_binding_c"><rect fill="#F1F1F1" height="46.2969" rx="2.5" ry="2.5" style="stroke:#181818;stroke-width:0.5;" width="161" x="7" y="150.2969"/><rect fill="#F1F1F1" height="10" style="stroke:#181818;stroke-width:0.5;" width="15" x="148" y="155.2969"/><rect fill="#F1F1F1" height="2" style="stroke:#181818;stroke-width:0.5;" width="4" x="146" y="157.2969"/><rect fill="#F1F1F1" height="2" style="stroke:#181818;stroke-width:0.5;" width="4" x="146" y="161.2969"/><text fill="#000000" font-family="sans-serif" font-size="14" lengthAdjust="spacing" textLength="121" x="22" y="183.292">iceoryx_binding_c</text></g><!--MD5=[9d947bea0ef7c87047352fe99a9cdbe8]
entity C user app--><g id="elem_C user app"><rect fill="#F1F1F1" height="46.2969" rx="2.5" ry="2.5" style="stroke:#181818;stroke-width:0.5;" width="115" x="30" y="44.2969"/><rect fill="#F1F1F1" height="10" style="stroke:#181818;stroke-width:0.5;" width="15" x="125" y="49.2969"/><rect fill="#F1F1F1" height="2" style="stroke:#181818;stroke-width:0.5;" width="4" x="123" y="51.2969"/><rect fill="#F1F1F1" height="2" style="stroke:#181818;stroke-width:0.5;" width="4" x="123" y="55.2969"/><text fill="#000000" font-family="sans-serif" font-size="14" lengthAdjust="spacing" textLength="75" x="45" y="77.292">C user app</text></g><!--MD5=[dce0206633e57a49e22c6fb2f97be890]
entity C++ user app--><g id="elem_C++ user app"><rect fill="#F1F1F1" height="46.2969" rx="2.5" ry="2.5" style="stroke:#181818;stroke-width:0.5;" width="139" x="401" y="150.2969"/><rect fill="#F1F1F1" height="10" style="stroke:#181818;stroke-width:0.5;" width="15" x="520" y="155.2969"/><rect fill="#F1F1F1" height="2" style="stroke:#181818;stroke-width:0.5;" width="4" x="518" y="157.2969"/><rect fill="#F1F1F1" height="2" style="stroke:#181818;stroke-width:0.5;" width="4" x="518" y="161.2969"/><text fill="#000000" font-family="sans-serif" font-size="14" lengthAdjust="spacing" textLength="99" x="416" y="183.292">C++ user app</text></g><g id="elem_GMN66"><path d="M522.5,584.7969 L522.5,593.2969 L487.24,597.2969 L522.5,601.2969 L522.5,609.9297 A0,0 0 0 0 522.5,609.9297 L862.5,609.9297 A0,0 0 0 0 862.5,609.9297 L862.5,594.7969 L852.5,584.7969 L522.5,584.7969 A0,0 0 0 0 522.5,584.7969 " fill="#FEFFDD" style="stroke:#181818;stroke-width:0.5;"/><path d="M852.5,584.7969 L852.5,594.7969 L862.5,594.7969 L852.5,584.7969 " fill="#FEFFDD" style="stroke:#181818;stroke-width:0.5;"/><text fill="#000000" font-family="sans-serif" font-size="13" lengthAdjust="spacing" textLength="319" x="528.5" y="601.8638">Basic platform support library with quality level 1+</text></g><g id="elem_GMN215"><path d="M524,372.7969 L524,397.9297 A0,0 0 0 0 524,397.9297 L656,397.9297 L516.59,468.1769 L664,397.9297 L843,397.9297 A0,0 0 0 0 843,397.9297 L843,382.7969 L833,372.7969 L524,372.7969 A0,0 0 0 0 524,372.7969 " fill="#FEFFDD" style="stroke:#181818;stroke-width:0.5;"/><path d="M833,372.7969 L833,382.7969 L843,382.7969 L833,372.7969 " fill="#FEFFDD" style="stroke:#181818;stroke-width:0.5;"/><text fill="#000000" font-family="sans-serif" font-size="13" lengthAdjust="spacing" textLength="298" x="530" y="389.8638">Basic building block library with quality level 1+</text></g><g id="elem_GMN227"><path d="M62.5,266.7969 L62.5,291.9297 A0,0 0 0 0 62.5,291.9297 L227.68,291.9297 L324.36,362.1769 L235.68,291.9297 L370.5,291.9297 A0,0 0 0 0 370.5,291.9297 L370.5,276.7969 L360.5,266.7969 L62.5,266.7969 A0,0 0 0 0 62.5,266.7969 " fill="#FEFFDD" style="stroke:#181818;stroke-width:0.5;"/><path d="M360.5,266.7969 L360.5,276.7969 L370.5,276.7969 L360.5,266.7969 " fill="#FEFFDD" style="stroke:#181818;stroke-width:0.5;"/><text fill="#000000" font-family="sans-serif" font-size="13" lengthAdjust="spacing" textLength="287" x="68.5" y="283.8638">Basic building block library with quality level 2</text></g><g id="elem_GMN237"><path d="M575,160.7969 L575,185.9297 A0,0 0 0 0 575,185.9297 L713.69,185.9297 L529.36,256.2769 L721.69,185.9297 L922,185.9297 A0,0 0 0 0 922,185.9297 L922,170.7969 L912,160.7969 L575,160.7969 A0,0 0 0 0 575,160.7969 " fill="#FEFFDD" style="stroke:#181818;stroke-width:0.5;"/><path d="M912,160.7969 L912,170.7969 L922,170.7969 L912,160.7969 " fill="#FEFFDD" style="stroke:#181818;stroke-width:0.5;"/><text fill="#000000" font-family="sans-serif" font-size="13" lengthAdjust="spacing" textLength="326" x="581" y="177.8638">Shared memory transport (POsix SHared memory)</text></g><g id="elem_GMN242"><path d="M203.5,160.7969 L203.5,169.2969 L168.3,173.2969 L203.5,177.2969 L203.5,185.9297 A0,0 0 0 0 203.5,185.9297 L365.5,185.9297 A0,0 0 0 0 365.5,185.9297 L365.5,170.7969 L355.5,160.7969 L203.5,160.7969 A0,0 0 0 0 203.5,160.7969 " fill="#FEFFDD" style="stroke:#181818;stroke-width:0.5;"/><path d="M355.5,160.7969 L355.5,170.7969 L365.5,170.7969 L355.5,160.7969 " fill="#FEFFDD" style="stroke:#181818;stroke-width:0.5;"/><text fill="#000000" font-family="sans-serif" font-size="13" lengthAdjust="spacing" textLength="141" x="209.5" y="177.8638">C API for iceoryx_posh</text></g><!--MD5=[e534a2baf33bb62d220c399ef5d1b7bd]
link iceoryx_hoofs to iceoryx_platform--><g id="link_iceoryx_hoofs_iceoryx_platform"><path d="M458.78,514.3569 C449.47,530.4869 436.8,552.4469 426.91,569.5769 " fill="none" id="iceoryx_hoofs-to-iceoryx_platform" style="stroke:#181818;stroke-width:1.0;stroke-dasharray:7.0,7.0;"/><polygon fill="#181818" points="424.21,574.2769,432.175,568.4839,426.7107,569.9471,425.2474,564.4828,424.21,574.2769" style="stroke:#181818;stroke-width:1.0;"/></g><!--MD5=[7b429863d1ba8281745b822104ea40c7]
link iceoryx_dust to iceoryx_platform--><g id="link_iceoryx_dust_iceoryx_platform"><path d="M359.23,408.5369 C365.85,434.1069 377.18,477.3169 387.5,514.2969 C392.63,532.6869 398.67,553.3069 403.4,569.2669 " fill="none" id="iceoryx_dust-to-iceoryx_platform" style="stroke:#181818;stroke-width:1.0;stroke-dasharray:7.0,7.0;"/><polygon fill="#181818" points="404.83,574.0669,406.1153,564.3023,403.413,569.2719,398.4433,566.5695,404.83,574.0669" style="stroke:#181818;stroke-width:1.0;"/></g><!--MD5=[c6bc123b88581d7893511edbb3afda00]
link iceoryx_posh to iceoryx_hoofs--><g id="link_iceoryx_posh_iceoryx_hoofs"><path d="M470.61,302.3769 C470.79,341.0469 471.17,420.9469 471.37,463.0169 " fill="none" id="iceoryx_posh-to-iceoryx_hoofs" style="stroke:#181818;stroke-width:1.0;stroke-dasharray:7.0,7.0;"/><polygon fill="#181818" points="471.39,468.1969,475.3643,459.1855,471.3757,463.1969,467.3643,459.2083,471.39,468.1969" style="stroke:#181818;stroke-width:1.0;"/></g><!--MD5=[789bae7a0e1705160d5933b82c1d66fe]
link iceoryx_dust to iceoryx_hoofs--><g id="link_iceoryx_dust_iceoryx_hoofs"><path d="M378.52,408.3569 C397.3,424.8969 423.03,447.5769 442.67,464.8869 " fill="none" id="iceoryx_dust-to-iceoryx_hoofs" style="stroke:#181818;stroke-width:1.0;stroke-dasharray:7.0,7.0;"/><polygon fill="#181818" points="446.51,468.2769,442.4238,459.3157,442.7667,464.9622,437.1202,465.3051,446.51,468.2769" style="stroke:#181818;stroke-width:1.0;"/></g><!--MD5=[ba36a0802a862251e02220d024c46d0f]
link iceoryx_posh to iceoryx_dust--><g id="link_iceoryx_posh_iceoryx_dust"><path d="M445.69,302.3569 C427.07,318.8969 401.56,341.5769 382.09,358.8869 " fill="none" id="iceoryx_posh-to-iceoryx_dust" style="stroke:#181818;stroke-width:1.0;stroke-dasharray:7.0,7.0;"/><polygon fill="#181818" points="378.28,362.2769,387.6577,359.2672,382.0099,358.9471,382.3301,353.2993,378.28,362.2769" style="stroke:#181818;stroke-width:1.0;"/></g><!--MD5=[ef085833380be4e9d63cc0e4596daa95]
link iceoryx_binding_c to iceoryx_posh--><g id="link_iceoryx_binding_c_iceoryx_posh"><path d="M168.26,196.2269 C237.02,214.8969 334.82,241.4569 400.36,259.2469 " fill="none" id="iceoryx_binding_c-to-iceoryx_posh" style="stroke:#181818;stroke-width:1.0;stroke-dasharray:7.0,7.0;"/><polygon fill="#181818" points="405.42,260.6269,397.7865,254.4036,400.5955,259.3137,395.6854,262.1227,405.42,260.6269" style="stroke:#181818;stroke-width:1.0;"/></g><!--MD5=[5734a6b3a3f946bad1ac4369bc2e3fa5]
link C user app to iceoryx_binding_c--><g id="link_C user app_iceoryx_binding_c"><path d="M87.5,90.3569 C87.5,106.3469 87.5,128.0769 87.5,145.1369 " fill="none" id="C user app-to-iceoryx_binding_c" style="stroke:#181818;stroke-width:1.0;stroke-dasharray:7.0,7.0;"/><polygon fill="#181818" points="87.5,150.2769,91.5,141.2769,87.5,145.2769,83.5,141.2769,87.5,150.2769" style="stroke:#181818;stroke-width:1.0;"/></g><!--MD5=[495abe35aab841eaeb614e3facd5fb18]
link C++ user app to iceoryx_posh--><g id="link_C++ user app_iceoryx_posh"><path d="M470.5,196.3569 C470.5,212.3469 470.5,234.0769 470.5,251.1369 " fill="none" id="C++ user app-to-iceoryx_posh" style="stroke:#181818;stroke-width:1.0;stroke-dasharray:7.0,7.0;"/><polygon fill="#181818" points="470.5,256.2769,474.5,247.2769,470.5,251.2769,466.5,247.2769,470.5,256.2769" style="stroke:#181818;stroke-width:1.0;"/></g></g></svg>