<?xml version="1.0" encoding="UTF-8" standalone="no"?><svg xmlns="http://www.w3.org/2000/svg" xmlns:xlink="http://www.w3.org/1999/xlink" contentScriptType="application/ecmascript" contentStyleType="text/css" height="967px" preserveAspectRatio="none" style="width:2618px;height:967px;background:#00000000;" version="1.1" viewBox="0 0 2618 967" width="2618px" zoomAndPan="magnify"><defs><filter height="300%" id="f1fides0ms7ao0" width="300%" x="-1" y="-1"><feGaussianBlur result="blurOut" stdDeviation="2.0"/><feColorMatrix in="blurOut" result="blurOut2" type="matrix" values="0 0 0 0 0 0 0 0 0 0 0 0 0 0 0 0 0 0 .4 0"/><feOffset dx="4.0" dy="4.0" in="blurOut2" result="blurOut3"/><feBlend in="SourceGraphic" in2="blurOut3" mode="normal"/></filter></defs><g><text fill="#888888" font-family="sans-serif" font-size="10" lengthAdjust="spacing" textLength="176" x="2429" y="9.2822">Eclipse iceoryx component overview</text><text fill="#000000" font-family="sans-serif" font-size="18" lengthAdjust="spacing" textLength="334" x="1135.5" y="28.3486">Eclipse iceoryx Component Overview</text><!--MD5=[415eaaaa2a07b50c6508c9baea7f95bd]
cluster iceoryx_hoofs--><polygon fill="#008000" filter="url(#f1fides0ms7ao0)" points="1418,514.5938,1534,514.5938,1541,536.8906,2601,536.8906,2601,960.5938,1418,960.5938,1418,514.5938" style="stroke:#000000;stroke-width:1.5;"/><line style="stroke:#000000;stroke-width:1.5;" x1="1418" x2="1541" y1="536.8906" y2="536.8906"/><text fill="#000000" font-family="sans-serif" font-size="14" font-weight="bold" lengthAdjust="spacing" textLength="110" x="1422" y="529.5889">iceoryx_hoofs</text><!--MD5=[b4465e90ffeb9984a7a126b6e59ae458]
cluster hoofs library--><rect fill="#D2691E" filter="url(#f1fides0ms7ao0)" height="363" style="stroke:#000000;stroke-width:1.5;" width="1111" x="1458" y="565.5938"/><path d="M1568,565.5938 L1568,574.8906 L1558,584.8906 L1458,584.8906 " fill="none" style="stroke:#000000;stroke-width:1.5;"/><text fill="#000000" font-family="sans-serif" font-size="14" font-weight="bold" lengthAdjust="spacing" textLength="100" x="1461" y="579.5889">hoofs library</text><!--MD5=[c7abec679f850aa996fa297d4bffb25c]
cluster cxx--><rect fill="#FFFF00" filter="url(#f1fides0ms7ao0)" height="296" style="stroke:#000000;stroke-width:1.5;" width="342" x="2203" y="608.5938"/><rect fill="#FFFF00" height="10" style="stroke:#000000;stroke-width:1.5;" width="15" x="2525" y="613.5938"/><rect fill="#FFFF00" height="2" style="stroke:#000000;stroke-width:1.5;" width="4" x="2523" y="615.5938"/><rect fill="#FFFF00" height="2" style="stroke:#000000;stroke-width:1.5;" width="4" x="2523" y="619.5938"/><text fill="#000000" font-family="sans-serif" font-size="14" font-style="italic" lengthAdjust="spacing" textLength="97" x="2325.5" y="634.5889">«namespace»</text><text fill="#000000" font-family="sans-serif" font-size="14" font-weight="bold" lengthAdjust="spacing" textLength="27" x="2360.5" y="650.8857">cxx</text><!--MD5=[4a0d858a1b32f3a888c29c8953eb9aab]
cluster log--><rect fill="#FFFF00" filter="url(#f1fides0ms7ao0)" height="130" style="stroke:#000000;stroke-width:1.5;" width="170" x="2009" y="608.5938"/><rect fill="#FFFF00" height="10" style="stroke:#000000;stroke-width:1.5;" width="15" x="2159" y="613.5938"/><rect fill="#FFFF00" height="2" style="stroke:#000000;stroke-width:1.5;" width="4" x="2157" y="615.5938"/><rect fill="#FFFF00" height="2" style="stroke:#000000;stroke-width:1.5;" width="4" x="2157" y="619.5938"/><text fill="#000000" font-family="sans-serif" font-size="14" font-style="italic" lengthAdjust="spacing" textLength="97" x="2045.5" y="634.5889">«namespace»</text><text fill="#000000" font-family="sans-serif" font-size="14" font-weight="bold" lengthAdjust="spacing" textLength="24" x="2082" y="650.8857">log</text><!--MD5=[f5f1b3651291938931aee825d03ea60b]
cluster units--><rect fill="#FFFF00" filter="url(#f1fides0ms7ao0)" height="130" style="stroke:#000000;stroke-width:1.5;" width="180" x="1805" y="608.5938"/><rect fill="#FFFF00" height="10" style="stroke:#000000;stroke-width:1.5;" width="15" x="1965" y="613.5938"/><rect fill="#FFFF00" height="2" style="stroke:#000000;stroke-width:1.5;" width="4" x="1963" y="615.5938"/><rect fill="#FFFF00" height="2" style="stroke:#000000;stroke-width:1.5;" width="4" x="1963" y="619.5938"/><text fill="#000000" font-family="sans-serif" font-size="14" font-style="italic" lengthAdjust="spacing" textLength="97" x="1846.5" y="634.5889">«namespace»</text><text fill="#000000" font-family="sans-serif" font-size="14" font-weight="bold" lengthAdjust="spacing" textLength="39" x="1875.5" y="650.8857">units</text><!--MD5=[ed7dc03aa8d539cfd7d57db110a68e55]
cluster iceoryx_posh--><polygon fill="#008000" filter="url(#f1fides0ms7ao0)" points="16,292.5938,126,292.5938,133,314.8906,1378,314.8906,1378,770.5938,16,770.5938,16,292.5938" style="stroke:#000000;stroke-width:1.5;"/><line style="stroke:#000000;stroke-width:1.5;" x1="16" x2="133" y1="314.8906" y2="314.8906"/><text fill="#000000" font-family="sans-serif" font-size="14" font-weight="bold" lengthAdjust="spacing" textLength="104" x="20" y="307.5889">iceoryx_posh</text><!--MD5=[38f2323d045ecacd4478f4c7d1e06b9d]
cluster core library--><rect fill="#D2691E" filter="url(#f1fides0ms7ao0)" height="395" style="stroke:#000000;stroke-width:1.5;" width="514" x="824" y="343.5938"/><path d="M925,343.5938 L925,352.8906 L915,362.8906 L824,362.8906 " fill="none" style="stroke:#000000;stroke-width:1.5;"/><text fill="#000000" font-family="sans-serif" font-size="14" font-weight="bold" lengthAdjust="spacing" textLength="91" x="827" y="357.5889">core library</text><!--MD5=[2882655244722af885eff964b671140f]
cluster runtime library--><rect fill="#D2691E" filter="url(#f1fides0ms7ao0)" height="114" style="stroke:#000000;stroke-width:1.5;" width="170" x="630" y="343.5938"/><path d="M756,343.5938 L756,352.8906 L746,362.8906 L630,362.8906 " fill="none" style="stroke:#000000;stroke-width:1.5;"/><text fill="#000000" font-family="sans-serif" font-size="14" font-weight="bold" lengthAdjust="spacing" textLength="116" x="633" y="357.5889">runtime library</text><!--MD5=[4997cf375c60d6f53c72389211135b42]
cluster gateway library--><rect fill="#D2691E" filter="url(#f1fides0ms7ao0)" height="114" style="stroke:#000000;stroke-width:1.5;" width="170" x="436" y="343.5938"/><path d="M568,343.5938 L568,352.8906 L558,362.8906 L436,362.8906 " fill="none" style="stroke:#000000;stroke-width:1.5;"/><text fill="#000000" font-family="sans-serif" font-size="14" font-weight="bold" lengthAdjust="spacing" textLength="122" x="439" y="357.5889">gateway library</text><!--MD5=[d11aad145ca7e2c3ef6ec64753ab2f2b]
cluster config library--><rect fill="#D2691E" filter="url(#f1fides0ms7ao0)" height="114" style="stroke:#000000;stroke-width:1.5;" width="170" x="242" y="343.5938"/><path d="M356,343.5938 L356,352.8906 L346,362.8906 L242,362.8906 " fill="none" style="stroke:#000000;stroke-width:1.5;"/><text fill="#000000" font-family="sans-serif" font-size="14" font-weight="bold" lengthAdjust="spacing" textLength="104" x="245" y="357.5889">config library</text><!--MD5=[c694ed67aab4c45e63f5b674f5ebdacc]
cluster RouDi library--><rect fill="#D2691E" filter="url(#f1fides0ms7ao0)" height="114" style="stroke:#000000;stroke-width:1.5;" width="170" x="48" y="343.5938"/><path d="M158,343.5938 L158,352.8906 L148,362.8906 L48,362.8906 " fill="none" style="stroke:#000000;stroke-width:1.5;"/><text fill="#000000" font-family="sans-serif" font-size="14" font-weight="bold" lengthAdjust="spacing" textLength="100" x="51" y="357.5889">RouDi library</text><!--MD5=[95dba68051f17ed836827d70d887a54a]
cluster iceoryx_dds--><polygon fill="#008000" filter="url(#f1fides0ms7ao0)" points="945,89.5938,1045,89.5938,1052,111.8906,1322,111.8906,1322,219.5938,945,219.5938,945,89.5938" style="stroke:#000000;stroke-width:1.5;"/><line style="stroke:#000000;stroke-width:1.5;" x1="945" x2="1052" y1="111.8906" y2="111.8906"/><text fill="#000000" font-family="sans-serif" font-size="14" font-weight="bold" lengthAdjust="spacing" textLength="94" x="949" y="104.5889">iceoryx_dds</text><!--MD5=[addeb03e3eb587838caeece846992337]
cluster iceoryx_binding_c--><polygon fill="#008000" filter="url(#f1fides0ms7ao0)" points="1362,89.5938,1507,89.5938,1514,111.8906,1739,111.8906,1739,219.5938,1362,219.5938,1362,89.5938" style="stroke:#000000;stroke-width:1.5;"/><line style="stroke:#000000;stroke-width:1.5;" x1="1362" x2="1514" y1="111.8906" y2="111.8906"/><text fill="#000000" font-family="sans-serif" font-size="14" font-weight="bold" lengthAdjust="spacing" textLength="139" x="1366" y="104.5889">iceoryx_binding_c</text><!--MD5=[beec581614c18060e11082c458798f50]
cluster iceoryx_introspection--><polygon fill="#008000" filter="url(#f1fides0ms7ao0)" points="1771,38.5938,1947,38.5938,1954,60.8906,1989,60.8906,1989,235.5938,1771,235.5938,1771,38.5938" style="stroke:#000000;stroke-width:1.5;"/><line style="stroke:#000000;stroke-width:1.5;" x1="1771" x2="1954" y1="60.8906" y2="60.8906"/><text fill="#000000" font-family="sans-serif" font-size="14" font-weight="bold" lengthAdjust="spacing" textLength="170" x="1775" y="53.5889">iceoryx_introspection</text><!--MD5=[aa2f05b2676d7d34ffa7e771fb7634f3]
cluster client--><rect fill="#FFFF00" filter="url(#f1fides0ms7ao0)" height="130" style="stroke:#000000;stroke-width:1.5;" width="170" x="1795" y="81.5938"/><rect fill="#FFFF00" height="10" style="stroke:#000000;stroke-width:1.5;" width="15" x="1945" y="86.5938"/><rect fill="#FFFF00" height="2" style="stroke:#000000;stroke-width:1.5;" width="4" x="1943" y="88.5938"/><rect fill="#FFFF00" height="2" style="stroke:#000000;stroke-width:1.5;" width="4" x="1943" y="92.5938"/><text fill="#000000" font-family="sans-serif" font-size="14" font-style="italic" lengthAdjust="spacing" textLength="97" x="1831.5" y="107.5889">«namespace»</text><text fill="#000000" font-family="sans-serif" font-size="14" font-weight="bold" lengthAdjust="spacing" textLength="43" x="1858.5" y="123.8857">client</text><!--MD5=[d91e39a99efde3d86d45b17502cf0b7a]
entity concurrent--><rect fill="#FFFF00" filter="url(#f1fides0ms7ao0)" height="62.5938" style="stroke:#A80036;stroke-width:1.5;" width="137" x="1474.5" y="659.5938"/><rect fill="#FFFF00" height="10" style="stroke:#A80036;stroke-width:1.5;" width="15" x="1591.5" y="664.5938"/><rect fill="#FFFF00" height="2" style="stroke:#A80036;stroke-width:1.5;" width="4" x="1589.5" y="666.5938"/><rect fill="#FFFF00" height="2" style="stroke:#A80036;stroke-width:1.5;" width="4" x="1589.5" y="670.5938"/><text fill="#000000" font-family="sans-serif" font-size="14" font-style="italic" lengthAdjust="spacing" textLength="97" x="1489.5" y="692.5889">«namespace»</text><text fill="#000000" font-family="sans-serif" font-size="14" lengthAdjust="spacing" textLength="76" x="1500" y="708.8857">concurrent</text><!--MD5=[ee73bf7a731da339678d59279e2ee62c]
entity DesignPattern--><rect fill="#FFFF00" filter="url(#f1fides0ms7ao0)" height="62.5938" style="stroke:#A80036;stroke-width:1.5;" width="139" x="1646.5" y="659.5938"/><rect fill="#FFFF00" height="10" style="stroke:#A80036;stroke-width:1.5;" width="15" x="1765.5" y="664.5938"/><rect fill="#FFFF00" height="2" style="stroke:#A80036;stroke-width:1.5;" width="4" x="1763.5" y="666.5938"/><rect fill="#FFFF00" height="2" style="stroke:#A80036;stroke-width:1.5;" width="4" x="1763.5" y="670.5938"/><text fill="#000000" font-family="sans-serif" font-size="14" font-style="italic" lengthAdjust="spacing" textLength="97" x="1662.5" y="692.5889">«namespace»</text><text fill="#000000" font-family="sans-serif" font-size="14" lengthAdjust="spacing" textLength="99" x="1661.5" y="708.8857">DesignPattern</text><!--MD5=[ffd9c204d205bc9185ab1a43c6f1aff1]
entity errors--><rect fill="#FFFF00" filter="url(#f1fides0ms7ao0)" height="62.5938" style="stroke:#A80036;stroke-width:1.5;" width="137" x="1474.5" y="825.5938"/><rect fill="#FFFF00" height="10" style="stroke:#A80036;stroke-width:1.5;" width="15" x="1591.5" y="830.5938"/><rect fill="#FFFF00" height="2" style="stroke:#A80036;stroke-width:1.5;" width="4" x="1589.5" y="832.5938"/><rect fill="#FFFF00" height="2" style="stroke:#A80036;stroke-width:1.5;" width="4" x="1589.5" y="836.5938"/><text fill="#000000" font-family="sans-serif" font-size="14" font-style="italic" lengthAdjust="spacing" textLength="97" x="1489.5" y="858.5889">«namespace»</text><text fill="#000000" font-family="sans-serif" font-size="14" lengthAdjust="spacing" textLength="41" x="1517.5" y="874.8857">errors</text><!--MD5=[4f40616c88d3689c25a72e321dd68143]
entity posix--><rect fill="#FFFF00" filter="url(#f1fides0ms7ao0)" height="62.5938" style="stroke:#A80036;stroke-width:1.5;" width="137" x="1646.5" y="825.5938"/><rect fill="#FFFF00" height="10" style="stroke:#A80036;stroke-width:1.5;" width="15" x="1763.5" y="830.5938"/><rect fill="#FFFF00" height="2" style="stroke:#A80036;stroke-width:1.5;" width="4" x="1761.5" y="832.5938"/><rect fill="#FFFF00" height="2" style="stroke:#A80036;stroke-width:1.5;" width="4" x="1761.5" y="836.5938"/><text fill="#000000" font-family="sans-serif" font-size="14" font-style="italic" lengthAdjust="spacing" textLength="97" x="1661.5" y="858.5889">«namespace»</text><text fill="#000000" font-family="sans-serif" font-size="14" lengthAdjust="spacing" textLength="36" x="1692" y="874.8857">posix</text><!--MD5=[6e04307d27c2c0e0e73f4ec182e43def]
entity newtype--><rect fill="#FFFF00" filter="url(#f1fides0ms7ao0)" height="62.5938" style="stroke:#A80036;stroke-width:1.5;" width="137" x="2219.5" y="659.5938"/><rect fill="#FFFF00" height="10" style="stroke:#A80036;stroke-width:1.5;" width="15" x="2336.5" y="664.5938"/><rect fill="#FFFF00" height="2" style="stroke:#A80036;stroke-width:1.5;" width="4" x="2334.5" y="666.5938"/><rect fill="#FFFF00" height="2" style="stroke:#A80036;stroke-width:1.5;" width="4" x="2334.5" y="670.5938"/><text fill="#000000" font-family="sans-serif" font-size="14" font-style="italic" lengthAdjust="spacing" textLength="97" x="2234.5" y="692.5889">«namespace»</text><text fill="#000000" font-family="sans-serif" font-size="14" lengthAdjust="spacing" textLength="59" x="2253.5" y="708.8857">newtype</text><!--MD5=[01dbf0ecbd7384941a03b03e119fcbdd]
entity set--><rect fill="#FFFF00" filter="url(#f1fides0ms7ao0)" height="62.5938" style="stroke:#A80036;stroke-width:1.5;" width="137" x="2391.5" y="659.5938"/><rect fill="#FFFF00" height="10" style="stroke:#A80036;stroke-width:1.5;" width="15" x="2508.5" y="664.5938"/><rect fill="#FFFF00" height="2" style="stroke:#A80036;stroke-width:1.5;" width="4" x="2506.5" y="666.5938"/><rect fill="#FFFF00" height="2" style="stroke:#A80036;stroke-width:1.5;" width="4" x="2506.5" y="670.5938"/><text fill="#000000" font-family="sans-serif" font-size="14" font-style="italic" lengthAdjust="spacing" textLength="97" x="2406.5" y="692.5889">«namespace»</text><text fill="#000000" font-family="sans-serif" font-size="14" lengthAdjust="spacing" textLength="22" x="2444" y="708.8857">set</text><!--MD5=[ad1b6dc57716247de80283970c4ee265]
entity algorithm--><rect fill="#FFFF00" filter="url(#f1fides0ms7ao0)" height="62.5938" style="stroke:#A80036;stroke-width:1.5;" width="137" x="2219.5" y="825.5938"/><rect fill="#FFFF00" height="10" style="stroke:#A80036;stroke-width:1.5;" width="15" x="2336.5" y="830.5938"/><rect fill="#FFFF00" height="2" style="stroke:#A80036;stroke-width:1.5;" width="4" x="2334.5" y="832.5938"/><rect fill="#FFFF00" height="2" style="stroke:#A80036;stroke-width:1.5;" width="4" x="2334.5" y="836.5938"/><text fill="#000000" font-family="sans-serif" font-size="14" font-style="italic" lengthAdjust="spacing" textLength="97" x="2234.5" y="858.5889">«namespace»</text><text fill="#000000" font-family="sans-serif" font-size="14" lengthAdjust="spacing" textLength="64" x="2251" y="874.8857">algorithm</text><!--MD5=[963fb1ac2687aab13b570b0cd76338eb]
entity ffbb--><rect fill="#FFFF00" filter="url(#f1fides0ms7ao0)" height="62.5938" style="stroke:#A80036;stroke-width:1.5;" width="137" x="2025.5" y="659.5938"/><rect fill="#FFFF00" height="10" style="stroke:#A80036;stroke-width:1.5;" width="15" x="2142.5" y="664.5938"/><rect fill="#FFFF00" height="2" style="stroke:#A80036;stroke-width:1.5;" width="4" x="2140.5" y="666.5938"/><rect fill="#FFFF00" height="2" style="stroke:#A80036;stroke-width:1.5;" width="4" x="2140.5" y="670.5938"/><text fill="#000000" font-family="sans-serif" font-size="14" font-style="italic" lengthAdjust="spacing" textLength="97" x="2040.5" y="692.5889">«namespace»</text><text fill="#000000" font-family="sans-serif" font-size="14" lengthAdjust="spacing" textLength="26" x="2076" y="708.8857">ffbb</text><!--MD5=[02615e27588e6842f1f6d6ca220ff1eb]
entity duration_literals--><rect fill="#FFFF00" filter="url(#f1fides0ms7ao0)" height="62.5938" style="stroke:#A80036;stroke-width:1.5;" width="148" x="1821" y="659.5938"/><rect fill="#FFFF00" height="10" style="stroke:#A80036;stroke-width:1.5;" width="15" x="1949" y="664.5938"/><rect fill="#FFFF00" height="2" style="stroke:#A80036;stroke-width:1.5;" width="4" x="1947" y="666.5938"/><rect fill="#FFFF00" height="2" style="stroke:#A80036;stroke-width:1.5;" width="4" x="1947" y="670.5938"/><text fill="#000000" font-family="sans-serif" font-size="14" font-style="italic" lengthAdjust="spacing" textLength="97" x="1841.5" y="692.5889">«namespace»</text><text fill="#000000" font-family="sans-serif" font-size="14" lengthAdjust="spacing" textLength="108" x="1836" y="708.8857">duration_literals</text><!--MD5=[477a64901edc741ec91a401c96bc08f2]
entity popo--><rect fill="#FFFF00" filter="url(#f1fides0ms7ao0)" height="62.5938" style="stroke:#A80036;stroke-width:1.5;" width="137" x="840.5" y="378.5938"/><rect fill="#FFFF00" height="10" style="stroke:#A80036;stroke-width:1.5;" width="15" x="957.5" y="383.5938"/><rect fill="#FFFF00" height="2" style="stroke:#A80036;stroke-width:1.5;" width="4" x="955.5" y="385.5938"/><rect fill="#FFFF00" height="2" style="stroke:#A80036;stroke-width:1.5;" width="4" x="955.5" y="389.5938"/><text fill="#000000" font-family="sans-serif" font-size="14" font-style="italic" lengthAdjust="spacing" textLength="97" x="855.5" y="411.5889">«namespace»</text><text fill="#000000" font-family="sans-serif" font-size="14" lengthAdjust="spacing" textLength="36" x="886" y="427.8857">popo</text><!--MD5=[ba5cc415984907cdd9d4abcea172ca01]
entity capro--><rect fill="#FFFF00" filter="url(#f1fides0ms7ao0)" height="62.5938" style="stroke:#A80036;stroke-width:1.5;" width="137" x="1012.5" y="378.5938"/><rect fill="#FFFF00" height="10" style="stroke:#A80036;stroke-width:1.5;" width="15" x="1129.5" y="383.5938"/><rect fill="#FFFF00" height="2" style="stroke:#A80036;stroke-width:1.5;" width="4" x="1127.5" y="385.5938"/><rect fill="#FFFF00" height="2" style="stroke:#A80036;stroke-width:1.5;" width="4" x="1127.5" y="389.5938"/><text fill="#000000" font-family="sans-serif" font-size="14" font-style="italic" lengthAdjust="spacing" textLength="97" x="1027.5" y="411.5889">«namespace»</text><text fill="#000000" font-family="sans-serif" font-size="14" lengthAdjust="spacing" textLength="39" x="1056.5" y="427.8857">capro</text><!--MD5=[09f98eabc58f714e0f010bacf40ca87c]
entity mepoo--><rect fill="#FFFF00" filter="url(#f1fides0ms7ao0)" height="62.5938" style="stroke:#A80036;stroke-width:1.5;" width="137" x="1184.5" y="378.5938"/><rect fill="#FFFF00" height="10" style="stroke:#A80036;stroke-width:1.5;" width="15" x="1301.5" y="383.5938"/><rect fill="#FFFF00" height="2" style="stroke:#A80036;stroke-width:1.5;" width="4" x="1299.5" y="385.5938"/><rect fill="#FFFF00" height="2" style="stroke:#A80036;stroke-width:1.5;" width="4" x="1299.5" y="389.5938"/><text fill="#000000" font-family="sans-serif" font-size="14" font-style="italic" lengthAdjust="spacing" textLength="97" x="1199.5" y="411.5889">«namespace»</text><text fill="#000000" font-family="sans-serif" font-size="14" lengthAdjust="spacing" textLength="49" x="1223.5" y="427.8857">mepoo</text><!--MD5=[eed5921adeb5106d45e8647997b5fa68]
entity version--><rect fill="#FFFF00" filter="url(#f1fides0ms7ao0)" height="62.5938" style="stroke:#A80036;stroke-width:1.5;" width="137" x="840.5" y="659.5938"/><rect fill="#FFFF00" height="10" style="stroke:#A80036;stroke-width:1.5;" width="15" x="957.5" y="664.5938"/><rect fill="#FFFF00" height="2" style="stroke:#A80036;stroke-width:1.5;" width="4" x="955.5" y="666.5938"/><rect fill="#FFFF00" height="2" style="stroke:#A80036;stroke-width:1.5;" width="4" x="955.5" y="670.5938"/><text fill="#000000" font-family="sans-serif" font-size="14" font-style="italic" lengthAdjust="spacing" textLength="97" x="855.5" y="692.5889">«namespace»</text><text fill="#000000" font-family="sans-serif" font-size="14" lengthAdjust="spacing" textLength="50" x="879" y="708.8857">version</text><!--MD5=[11fa01443fe50a6a26e5f9d4ef816fb0]
entity build--><rect fill="#FFFF00" filter="url(#f1fides0ms7ao0)" height="62.5938" style="stroke:#A80036;stroke-width:1.5;" width="137" x="1012.5" y="659.5938"/><rect fill="#FFFF00" height="10" style="stroke:#A80036;stroke-width:1.5;" width="15" x="1129.5" y="664.5938"/><rect fill="#FFFF00" height="2" style="stroke:#A80036;stroke-width:1.5;" width="4" x="1127.5" y="666.5938"/><rect fill="#FFFF00" height="2" style="stroke:#A80036;stroke-width:1.5;" width="4" x="1127.5" y="670.5938"/><text fill="#000000" font-family="sans-serif" font-size="14" font-style="italic" lengthAdjust="spacing" textLength="97" x="1027.5" y="692.5889">«namespace»</text><text fill="#000000" font-family="sans-serif" font-size="14" lengthAdjust="spacing" textLength="33" x="1059.5" y="708.8857">build</text><!--MD5=[6857f13236cb144e56befd21da1781a5]
entity runtime--><rect fill="#FFFF00" filter="url(#f1fides0ms7ao0)" height="62.5938" style="stroke:#A80036;stroke-width:1.5;" width="137" x="646.5" y="378.5938"/><rect fill="#FFFF00" height="10" style="stroke:#A80036;stroke-width:1.5;" width="15" x="763.5" y="383.5938"/><rect fill="#FFFF00" height="2" style="stroke:#A80036;stroke-width:1.5;" width="4" x="761.5" y="385.5938"/><rect fill="#FFFF00" height="2" style="stroke:#A80036;stroke-width:1.5;" width="4" x="761.5" y="389.5938"/><text fill="#000000" font-family="sans-serif" font-size="14" font-style="italic" lengthAdjust="spacing" textLength="97" x="661.5" y="411.5889">«namespace»</text><text fill="#000000" font-family="sans-serif" font-size="14" lengthAdjust="spacing" textLength="53" x="683.5" y="427.8857">runtime</text><!--MD5=[5f97cdfbafef6a5cbddfbf6bdd3803d1]
entity gw--><rect fill="#FFFF00" filter="url(#f1fides0ms7ao0)" height="62.5938" style="stroke:#A80036;stroke-width:1.5;" width="137" x="452.5" y="378.5938"/><rect fill="#FFFF00" height="10" style="stroke:#A80036;stroke-width:1.5;" width="15" x="569.5" y="383.5938"/><rect fill="#FFFF00" height="2" style="stroke:#A80036;stroke-width:1.5;" width="4" x="567.5" y="385.5938"/><rect fill="#FFFF00" height="2" style="stroke:#A80036;stroke-width:1.5;" width="4" x="567.5" y="389.5938"/><text fill="#000000" font-family="sans-serif" font-size="14" font-style="italic" lengthAdjust="spacing" textLength="97" x="467.5" y="411.5889">«namespace»</text><text fill="#000000" font-family="sans-serif" font-size="14" lengthAdjust="spacing" textLength="20" x="506" y="427.8857">gw</text><!--MD5=[caf660ac2a54b55a5c31b5515889e628]
entity config--><rect fill="#FFFF00" filter="url(#f1fides0ms7ao0)" height="62.5938" style="stroke:#A80036;stroke-width:1.5;" width="137" x="258.5" y="378.5938"/><rect fill="#FFFF00" height="10" style="stroke:#A80036;stroke-width:1.5;" width="15" x="375.5" y="383.5938"/><rect fill="#FFFF00" height="2" style="stroke:#A80036;stroke-width:1.5;" width="4" x="373.5" y="385.5938"/><rect fill="#FFFF00" height="2" style="stroke:#A80036;stroke-width:1.5;" width="4" x="373.5" y="389.5938"/><text fill="#000000" font-family="sans-serif" font-size="14" font-style="italic" lengthAdjust="spacing" textLength="97" x="273.5" y="411.5889">«namespace»</text><text fill="#000000" font-family="sans-serif" font-size="14" lengthAdjust="spacing" textLength="42" x="301" y="427.8857">config</text><!--MD5=[f73e6e01beb5fef5d3e1c08b5afdf415]
entity roudi--><rect fill="#FFFF00" filter="url(#f1fides0ms7ao0)" height="62.5938" style="stroke:#A80036;stroke-width:1.5;" width="137" x="64.5" y="378.5938"/><rect fill="#FFFF00" height="10" style="stroke:#A80036;stroke-width:1.5;" width="15" x="181.5" y="383.5938"/><rect fill="#FFFF00" height="2" style="stroke:#A80036;stroke-width:1.5;" width="4" x="179.5" y="385.5938"/><rect fill="#FFFF00" height="2" style="stroke:#A80036;stroke-width:1.5;" width="4" x="179.5" y="389.5938"/><text fill="#000000" font-family="sans-serif" font-size="14" font-style="italic" lengthAdjust="spacing" textLength="97" x="79.5" y="411.5889">«namespace»</text><text fill="#000000" font-family="sans-serif" font-size="14" lengthAdjust="spacing" textLength="35" x="110.5" y="427.8857">roudi</text><!--MD5=[4617e0b67180f9dd16cbedc18db55043]
entity dds--><rect fill="#FFFF00" filter="url(#f1fides0ms7ao0)" height="62.5938" style="stroke:#A80036;stroke-width:1.5;" width="137" x="1160.5" y="132.5938"/><rect fill="#FFFF00" height="10" style="stroke:#A80036;stroke-width:1.5;" width="15" x="1277.5" y="137.5938"/><rect fill="#FFFF00" height="2" style="stroke:#A80036;stroke-width:1.5;" width="4" x="1275.5" y="139.5938"/><rect fill="#FFFF00" height="2" style="stroke:#A80036;stroke-width:1.5;" width="4" x="1275.5" y="143.5938"/><text fill="#000000" font-family="sans-serif" font-size="14" font-style="italic" lengthAdjust="spacing" textLength="97" x="1175.5" y="165.5889">«namespace»</text><text fill="#000000" font-family="sans-serif" font-size="14" lengthAdjust="spacing" textLength="26" x="1211" y="181.8857">dds</text><!--MD5=[b74312c72fa74392e6ee98a94ff43660]
entity gateway_dds--><rect fill="#FFFF00" filter="url(#f1fides0ms7ao0)" height="62.5938" style="stroke:#A80036;stroke-width:1.5;" width="137" x="988.5" y="132.5938"/><rect fill="#FFFF00" height="10" style="stroke:#A80036;stroke-width:1.5;" width="15" x="1105.5" y="137.5938"/><rect fill="#FFFF00" height="2" style="stroke:#A80036;stroke-width:1.5;" width="4" x="1103.5" y="139.5938"/><rect fill="#FFFF00" height="2" style="stroke:#A80036;stroke-width:1.5;" width="4" x="1103.5" y="143.5938"/><text fill="#000000" font-family="sans-serif" font-size="14" font-style="italic" lengthAdjust="spacing" textLength="97" x="1003.5" y="165.5889">«namespace»</text><text fill="#000000" font-family="sans-serif" font-size="14" lengthAdjust="spacing" textLength="20" x="1042" y="181.8857">gw</text><!--MD5=[fc4286d0b2a052e711aae933c9ad3727]
entity cpp2c--><rect fill="#FFFF00" filter="url(#f1fides0ms7ao0)" height="62.5938" style="stroke:#A80036;stroke-width:1.5;" width="137" x="1577.5" y="132.5938"/><rect fill="#FFFF00" height="10" style="stroke:#A80036;stroke-width:1.5;" width="15" x="1694.5" y="137.5938"/><rect fill="#FFFF00" height="2" style="stroke:#A80036;stroke-width:1.5;" width="4" x="1692.5" y="139.5938"/><rect fill="#FFFF00" height="2" style="stroke:#A80036;stroke-width:1.5;" width="4" x="1692.5" y="143.5938"/><text fill="#000000" font-family="sans-serif" font-size="14" font-style="italic" lengthAdjust="spacing" textLength="97" x="1592.5" y="165.5889">«namespace»</text><text fill="#000000" font-family="sans-serif" font-size="14" lengthAdjust="spacing" textLength="43" x="1619.5" y="181.8857">cpp2c</text><!--MD5=[e16426ebbb4af2a750e421465750c76a]
entity c2cpp--><rect fill="#FFFF00" filter="url(#f1fides0ms7ao0)" height="62.5938" style="stroke:#A80036;stroke-width:1.5;" width="137" x="1405.5" y="132.5938"/><rect fill="#FFFF00" height="10" style="stroke:#A80036;stroke-width:1.5;" width="15" x="1522.5" y="137.5938"/><rect fill="#FFFF00" height="2" style="stroke:#A80036;stroke-width:1.5;" width="4" x="1520.5" y="139.5938"/><rect fill="#FFFF00" height="2" style="stroke:#A80036;stroke-width:1.5;" width="4" x="1520.5" y="143.5938"/><text fill="#000000" font-family="sans-serif" font-size="14" font-style="italic" lengthAdjust="spacing" textLength="97" x="1420.5" y="165.5889">«namespace»</text><text fill="#000000" font-family="sans-serif" font-size="14" lengthAdjust="spacing" textLength="43" x="1447.5" y="181.8857">c2cpp</text><!--MD5=[38dbeb4b243ea6dae1c7e5b7ff87398b]
entity introspection--><rect fill="#FFFF00" filter="url(#f1fides0ms7ao0)" height="62.5938" style="stroke:#A80036;stroke-width:1.5;" width="137" x="1811.5" y="132.5938"/><rect fill="#FFFF00" height="10" style="stroke:#A80036;stroke-width:1.5;" width="15" x="1928.5" y="137.5938"/><rect fill="#FFFF00" height="2" style="stroke:#A80036;stroke-width:1.5;" width="4" x="1926.5" y="139.5938"/><rect fill="#FFFF00" height="2" style="stroke:#A80036;stroke-width:1.5;" width="4" x="1926.5" y="143.5938"/><text fill="#000000" font-family="sans-serif" font-size="14" font-style="italic" lengthAdjust="spacing" textLength="97" x="1826.5" y="165.5889">«namespace»</text><text fill="#000000" font-family="sans-serif" font-size="14" lengthAdjust="spacing" textLength="91" x="1829.5" y="181.8857">introspection</text><!--MD5=[c6bc123b88581d7893511edbb3afda00]
link iceoryx_posh to iceoryx_hoofs--><path d="M1378.0369,451.1457 C1378.3498,452.7047 1378.6696,454.2982 1378.9959,455.9242 C1384.2175,481.9403 1391.1087,516.2731 1398,550.605 C1404.8913,584.9369 1411.7825,619.2678 1417.0041,645.2802 C1417.3304,646.9059 1417.6502,648.4992 1417.9631,650.058 " fill="none" id="iceoryx_posh-to-iceoryx_hoofs" style="stroke:#A80036;stroke-width:1.0;stroke-dasharray:7.0,7.0;"/><polygon fill="#A80036" points="1417.9631,650.058,1420.1136,640.4467,1416.9791,645.1557,1412.2701,642.0212,1417.9631,650.058" style="stroke:#A80036;stroke-width:1.0;"/><text fill="#000000" font-family="sans-serif" font-size="13" lengthAdjust="spacing" textLength="23" x="1386" y="486.6606">use</text><!--MD5=[923ab2d2a35521c01aa04bd91104d3ef]
link iceoryx_dds to iceoryx_posh--><path d="M957.0346,219.9204 C957.1217,220.1785 957.2101,220.4362 957.2999,220.6933 C957.4795,221.2076 957.6646,221.7197 957.8555,222.2294 C960.9088,230.3844 965.4175,237.9163 972,243.5938 C1033.84,296.9238 1276.17,223.2437 1338,276.5938 C1340.8219,279.0288 1343.4177,281.6657 1345.8045,284.4704 C1346.9979,285.8728 1348.1391,287.3172 1349.2301,288.7992 C1349.7757,289.5402 1350.3087,290.2907 1350.8295,291.05 C1351.0898,291.4297 1351.3472,291.8116 1351.6014,292.1957 " fill="none" id="iceoryx_dds-to-iceoryx_posh" style="stroke:#A80036;stroke-width:1.0;stroke-dasharray:7.0,7.0;"/><polygon fill="#A80036" points="1351.6014,292.1957,1349.9681,282.4832,1348.8411,288.0267,1343.2976,286.8997,1351.6014,292.1957" style="stroke:#A80036;stroke-width:1.0;"/><text fill="#000000" font-family="sans-serif" font-size="13" lengthAdjust="spacing" textLength="23" x="1325" y="264.6606">use</text><!--MD5=[ef085833380be4e9d63cc0e4596daa95]
link iceoryx_binding_c to iceoryx_posh--><path d="M1370,220.1993 C1370,220.9989 1370,221.8041 1370,222.6146 C1370,229.0984 1370,235.9231 1370,242.9751 C1370,257.0791 1370,272.0922 1370,287.105 C1370,288.0433 1370,288.9816 1370,289.9197 C1370,290.3887 1370,290.8577 1370,291.3266 C1370,291.561 1370,291.7955 1370,292.0299 " fill="none" id="iceoryx_binding_c-to-iceoryx_posh" style="stroke:#A80036;stroke-width:1.0;stroke-dasharray:7.0,7.0;"/><polygon fill="#A80036" points="1370,292.0299,1374,283.0299,1370,287.0299,1366,283.0299,1370,292.0299" style="stroke:#A80036;stroke-width:1.0;"/><text fill="#000000" font-family="sans-serif" font-size="13" lengthAdjust="spacing" textLength="23" x="1371" y="264.6606">use</text><!--MD5=[4b8aab564a453d286cf375876300a066]
link introspection to iceoryx_posh--><path d="M1823.77,195.6537 C1796.03,210.4937 1761.96,228.3538 1731,243.5938 C1653.055,281.9538 1564.385,322.6463 1494.43,354.0825 C1459.4525,369.8006 1429.1538,383.2047 1407.2138,392.8461 C1396.2438,397.6668 1387.3634,401.5468 1381.0328,404.3051 C1380.2415,404.6499 1379.49,404.9772 1378.7792,405.2866 C1378.6016,405.3639 1378.4264,405.4401 1378.2538,405.5152 " fill="none" id="introspection-to-iceoryx_posh" style="stroke:#A80036;stroke-width:1.0;stroke-dasharray:7.0,7.0;"/><polygon fill="#A80036" points="1378.2538,405.5152,1388.1024,405.5917,1382.8385,403.5201,1384.9101,398.2562,1378.2538,405.5152" style="stroke:#A80036;stroke-width:1.0;"/><text fill="#000000" font-family="sans-serif" font-size="13" lengthAdjust="spacing" textLength="23" x="1712" y="264.6606">use</text><!--MD5=[6ee88ec5bb08a8f80fef382bcd89ab2a]
link concurrent to DesignPattern--><!--MD5=[7145daca522e1efb54063cc7aa38c07a]
link concurrent to errors--><!--MD5=[4218ed6aaceaf698e1509a8b8c7331dd]
link errors to posix--><!--MD5=[ad6e6e5a7cf711b8afeea2c3ceffa3b6]
link newtype to set--><!--MD5=[a8e109713a8745e1bfd03a8f989edc95]
link newtype to algorithm--><!--MD5=[4f791f3a16e89c6f7a776d127bc56767]
link popo to capro--><!--MD5=[ba7497340c31a8eaf849912da58dc6c5]
link capro to mepoo--><!--MD5=[978295f2acd8e12b6cc29277143f7468]
link popo to version--><!--MD5=[bbfd15eccc194e184bc66a7fb4fec50c]
link version to build--></g></svg>