<?xml version="1.0" encoding="UTF-8" standalone="no"?><svg xmlns="http://www.w3.org/2000/svg" xmlns:xlink="http://www.w3.org/1999/xlink" contentScriptType="application/ecmascript" contentStyleType="text/css" height="1024px" preserveAspectRatio="none" style="width:2466px;height:1024px;background:#00000000;" version="1.1" viewBox="0 0 2466 1024" width="2466px" zoomAndPan="magnify"><defs><filter height="300%" id="f1fides0ms7ao0" width="300%" x="-1" y="-1"><feGaussianBlur result="blurOut" stdDeviation="2.0"/><feColorMatrix in="blurOut" result="blurOut2" type="matrix" values="0 0 0 0 0 0 0 0 0 0 0 0 0 0 0 0 0 0 .4 0"/><feOffset dx="4.0" dy="4.0" in="blurOut2" result="blurOut3"/><feBlend in="SourceGraphic" in2="blurOut3" mode="normal"/></filter></defs><g><text fill="#888888" font-family="sans-serif" font-size="10" lengthAdjust="spacing" textLength="174" x="2279" y="10.69">Eclipse iceoryx component overview</text><text fill="#000000" font-family="sans-serif" font-size="18" lengthAdjust="spacing" textLength="313" x="1070" y="32.8619">Eclipse iceoryx Component Overview</text><!--MD5=[415eaaaa2a07b50c6508c9baea7f95bd]
cluster iceoryx_hoofs--><polygon fill="#008000" filter="url(#f1fides0ms7ao0)" points="1322,549.7378,1423,549.7378,1430,574.8057,2449,574.8057,2449,1017.7378,1322,1017.7378,1322,549.7378" style="stroke:#000000;stroke-width:1.5;"/><line style="stroke:#000000;stroke-width:1.5;" x1="1322" x2="1430" y1="574.8057" y2="574.8057"/><text fill="#000000" font-family="sans-serif" font-size="14" font-weight="bold" lengthAdjust="spacing" textLength="95" x="1326" y="566.7038">iceoryx_hoofs</text><!--MD5=[b4465e90ffeb9984a7a126b6e59ae458]
cluster hoofs library--><rect fill="#D2691E" filter="url(#f1fides0ms7ao0)" height="382" style="stroke:#000000;stroke-width:1.5;" width="1055" x="1362" y="603.7378"/><path d="M1460,603.7378 L1460,615.8057 L1450,625.8057 L1362,625.8057 " fill="none" style="stroke:#000000;stroke-width:1.5;"/><text fill="#000000" font-family="sans-serif" font-size="14" font-weight="bold" lengthAdjust="spacing" textLength="88" x="1365" y="619.7038">hoofs library</text><!--MD5=[c7abec679f850aa996fa297d4bffb25c]
cluster cxx--><rect fill="#FFFF00" filter="url(#f1fides0ms7ao0)" height="312" style="stroke:#000000;stroke-width:1.5;" width="315" x="2078" y="649.7378"/><rect fill="#FFFF00" height="10" style="stroke:#000000;stroke-width:1.5;" width="15" x="2373" y="654.7378"/><rect fill="#FFFF00" height="2" style="stroke:#000000;stroke-width:1.5;" width="4" x="2371" y="656.7378"/><rect fill="#FFFF00" height="2" style="stroke:#000000;stroke-width:1.5;" width="4" x="2371" y="660.7378"/><text fill="#000000" font-family="sans-serif" font-size="14" font-style="italic" lengthAdjust="spacing" textLength="84" x="2193.5" y="677.7038">«namespace»</text><text fill="#000000" font-family="sans-serif" font-size="14" font-weight="bold" lengthAdjust="spacing" textLength="23" x="2224" y="696.7717">cxx</text><!--MD5=[4a0d858a1b32f3a888c29c8953eb9aab]
cluster log--><rect fill="#FFFF00" filter="url(#f1fides0ms7ao0)" height="141" style="stroke:#000000;stroke-width:1.5;" width="156" x="1898" y="649.7378"/><rect fill="#FFFF00" height="10" style="stroke:#000000;stroke-width:1.5;" width="15" x="2034" y="654.7378"/><rect fill="#FFFF00" height="2" style="stroke:#000000;stroke-width:1.5;" width="4" x="2032" y="656.7378"/><rect fill="#FFFF00" height="2" style="stroke:#000000;stroke-width:1.5;" width="4" x="2032" y="660.7378"/><text fill="#000000" font-family="sans-serif" font-size="14" font-style="italic" lengthAdjust="spacing" textLength="84" x="1934" y="677.7038">«namespace»</text><text fill="#000000" font-family="sans-serif" font-size="14" font-weight="bold" lengthAdjust="spacing" textLength="22" x="1965" y="696.7717">log</text><!--MD5=[f5f1b3651291938931aee825d03ea60b]
cluster units--><rect fill="#FFFF00" filter="url(#f1fides0ms7ao0)" height="141" style="stroke:#000000;stroke-width:1.5;" width="182" x="1692" y="649.7378"/><rect fill="#FFFF00" height="10" style="stroke:#000000;stroke-width:1.5;" width="15" x="1854" y="654.7378"/><rect fill="#FFFF00" height="2" style="stroke:#000000;stroke-width:1.5;" width="4" x="1852" y="656.7378"/><rect fill="#FFFF00" height="2" style="stroke:#000000;stroke-width:1.5;" width="4" x="1852" y="660.7378"/><text fill="#000000" font-family="sans-serif" font-size="14" font-style="italic" lengthAdjust="spacing" textLength="84" x="1741" y="677.7038">«namespace»</text><text fill="#000000" font-family="sans-serif" font-size="14" font-weight="bold" lengthAdjust="spacing" textLength="35" x="1765.5" y="696.7717">units</text><!--MD5=[ed7dc03aa8d539cfd7d57db110a68e55]
cluster iceoryx_posh--><polygon fill="#008000" filter="url(#f1fides0ms7ao0)" points="16,314.7378,112,314.7378,119,339.8057,1282,339.8057,1282,822.7378,16,822.7378,16,314.7378" style="stroke:#000000;stroke-width:1.5;"/><line style="stroke:#000000;stroke-width:1.5;" x1="16" x2="119" y1="339.8057" y2="339.8057"/><text fill="#000000" font-family="sans-serif" font-size="14" font-weight="bold" lengthAdjust="spacing" textLength="90" x="20" y="331.7038">iceoryx_posh</text><!--MD5=[38f2323d045ecacd4478f4c7d1e06b9d]
cluster core library--><rect fill="#D2691E" filter="url(#f1fides0ms7ao0)" height="422" style="stroke:#000000;stroke-width:1.5;" width="474" x="768" y="368.7378"/><path d="M857,368.7378 L857,380.8057 L847,390.8057 L768,390.8057 " fill="none" style="stroke:#000000;stroke-width:1.5;"/><text fill="#000000" font-family="sans-serif" font-size="14" font-weight="bold" lengthAdjust="spacing" textLength="79" x="771" y="384.7038">core library</text><!--MD5=[2882655244722af885eff964b671140f]
cluster runtime library--><rect fill="#D2691E" filter="url(#f1fides0ms7ao0)" height="122" style="stroke:#000000;stroke-width:1.5;" width="156" x="588" y="368.7378"/><path d="M703,368.7378 L703,380.8057 L693,390.8057 L588,390.8057 " fill="none" style="stroke:#000000;stroke-width:1.5;"/><text fill="#000000" font-family="sans-serif" font-size="14" font-weight="bold" lengthAdjust="spacing" textLength="105" x="591" y="384.7038">runtime library</text><!--MD5=[4997cf375c60d6f53c72389211135b42]
cluster gateway library--><rect fill="#D2691E" filter="url(#f1fides0ms7ao0)" height="122" style="stroke:#000000;stroke-width:1.5;" width="156" x="408" y="368.7378"/><path d="M526,368.7378 L526,380.8057 L516,390.8057 L408,390.8057 " fill="none" style="stroke:#000000;stroke-width:1.5;"/><text fill="#000000" font-family="sans-serif" font-size="14" font-weight="bold" lengthAdjust="spacing" textLength="108" x="411" y="384.7038">gateway library</text><!--MD5=[d11aad145ca7e2c3ef6ec64753ab2f2b]
cluster config library--><rect fill="#D2691E" filter="url(#f1fides0ms7ao0)" height="122" style="stroke:#000000;stroke-width:1.5;" width="156" x="228" y="368.7378"/><path d="M330,368.7378 L330,380.8057 L320,390.8057 L228,390.8057 " fill="none" style="stroke:#000000;stroke-width:1.5;"/><text fill="#000000" font-family="sans-serif" font-size="14" font-weight="bold" lengthAdjust="spacing" textLength="92" x="231" y="384.7038">config library</text><!--MD5=[c694ed67aab4c45e63f5b674f5ebdacc]
cluster RouDi library--><rect fill="#D2691E" filter="url(#f1fides0ms7ao0)" height="122" style="stroke:#000000;stroke-width:1.5;" width="156" x="48" y="368.7378"/><path d="M148,368.7378 L148,380.8057 L138,390.8057 L48,390.8057 " fill="none" style="stroke:#000000;stroke-width:1.5;"/><text fill="#000000" font-family="sans-serif" font-size="14" font-weight="bold" lengthAdjust="spacing" textLength="90" x="51" y="384.7038">RouDi library</text><!--MD5=[95dba68051f17ed836827d70d887a54a]
cluster iceoryx_dds--><polygon fill="#008000" filter="url(#f1fides0ms7ao0)" points="876,101.7378,963,101.7378,970,126.8057,1226,126.8057,1226,239.7378,876,239.7378,876,101.7378" style="stroke:#000000;stroke-width:1.5;"/><line style="stroke:#000000;stroke-width:1.5;" x1="876" x2="970" y1="126.8057" y2="126.8057"/><text fill="#000000" font-family="sans-serif" font-size="14" font-weight="bold" lengthAdjust="spacing" textLength="81" x="880" y="118.7038">iceoryx_dds</text><!--MD5=[addeb03e3eb587838caeece846992337]
cluster iceoryx_binding_c--><polygon fill="#008000" filter="url(#f1fides0ms7ao0)" points="1266,101.7378,1394,101.7378,1401,126.8057,1616,126.8057,1616,239.7378,1266,239.7378,1266,101.7378" style="stroke:#000000;stroke-width:1.5;"/><line style="stroke:#000000;stroke-width:1.5;" x1="1266" x2="1401" y1="126.8057" y2="126.8057"/><text fill="#000000" font-family="sans-serif" font-size="14" font-weight="bold" lengthAdjust="spacing" textLength="122" x="1270" y="118.7038">iceoryx_binding_c</text><!--MD5=[beec581614c18060e11082c458798f50]
cluster iceoryx_introspection--><polygon fill="#008000" filter="url(#f1fides0ms7ao0)" points="1648,44.7378,1803,44.7378,1810,69.8057,1858,69.8057,1858,255.7378,1648,255.7378,1648,44.7378" style="stroke:#000000;stroke-width:1.5;"/><line style="stroke:#000000;stroke-width:1.5;" x1="1648" x2="1810" y1="69.8057" y2="69.8057"/><text fill="#000000" font-family="sans-serif" font-size="14" font-weight="bold" lengthAdjust="spacing" textLength="149" x="1652" y="61.7038">iceoryx_introspection</text><!--MD5=[aa2f05b2676d7d34ffa7e771fb7634f3]
cluster client--><rect fill="#FFFF00" filter="url(#f1fides0ms7ao0)" height="141" style="stroke:#000000;stroke-width:1.5;" width="162" x="1672" y="90.7378"/><rect fill="#FFFF00" height="10" style="stroke:#000000;stroke-width:1.5;" width="15" x="1814" y="95.7378"/><rect fill="#FFFF00" height="2" style="stroke:#000000;stroke-width:1.5;" width="4" x="1812" y="97.7378"/><rect fill="#FFFF00" height="2" style="stroke:#000000;stroke-width:1.5;" width="4" x="1812" y="101.7378"/><text fill="#000000" font-family="sans-serif" font-size="14" font-style="italic" lengthAdjust="spacing" textLength="84" x="1711" y="118.7038">«namespace»</text><text fill="#000000" font-family="sans-serif" font-size="14" font-weight="bold" lengthAdjust="spacing" textLength="38" x="1734" y="137.7717">client</text><!--MD5=[d91e39a99efde3d86d45b17502cf0b7a]
entity concurrent--><rect fill="#FFFF00" filter="url(#f1fides0ms7ao0)" height="68.1358" style="stroke:#A80036;stroke-width:1.5;" width="124" x="1378" y="706.7378"/><rect fill="#FFFF00" height="10" style="stroke:#A80036;stroke-width:1.5;" width="15" x="1482" y="711.7378"/><rect fill="#FFFF00" height="2" style="stroke:#A80036;stroke-width:1.5;" width="4" x="1480" y="713.7378"/><rect fill="#FFFF00" height="2" style="stroke:#A80036;stroke-width:1.5;" width="4" x="1480" y="717.7378"/><text fill="#000000" font-family="sans-serif" font-size="14" font-style="italic" lengthAdjust="spacing" textLength="84" x="1393" y="741.7038">«namespace»</text><text fill="#000000" font-family="sans-serif" font-size="14" lengthAdjust="spacing" textLength="74" x="1398" y="760.7717">concurrent</text><!--MD5=[ee73bf7a731da339678d59279e2ee62c]
entity DesignPattern--><rect fill="#FFFF00" filter="url(#f1fides0ms7ao0)" height="68.1358" style="stroke:#A80036;stroke-width:1.5;" width="136" x="1537" y="706.7378"/><rect fill="#FFFF00" height="10" style="stroke:#A80036;stroke-width:1.5;" width="15" x="1653" y="711.7378"/><rect fill="#FFFF00" height="2" style="stroke:#A80036;stroke-width:1.5;" width="4" x="1651" y="713.7378"/><rect fill="#FFFF00" height="2" style="stroke:#A80036;stroke-width:1.5;" width="4" x="1651" y="717.7378"/><text fill="#000000" font-family="sans-serif" font-size="14" font-style="italic" lengthAdjust="spacing" textLength="84" x="1558" y="741.7038">«namespace»</text><text fill="#000000" font-family="sans-serif" font-size="14" lengthAdjust="spacing" textLength="96" x="1552" y="760.7717">DesignPattern</text><!--MD5=[ffd9c204d205bc9185ab1a43c6f1aff1]
entity errors--><rect fill="#FFFF00" filter="url(#f1fides0ms7ao0)" height="68.1358" style="stroke:#A80036;stroke-width:1.5;" width="124" x="1378" y="877.7378"/><rect fill="#FFFF00" height="10" style="stroke:#A80036;stroke-width:1.5;" width="15" x="1482" y="882.7378"/><rect fill="#FFFF00" height="2" style="stroke:#A80036;stroke-width:1.5;" width="4" x="1480" y="884.7378"/><rect fill="#FFFF00" height="2" style="stroke:#A80036;stroke-width:1.5;" width="4" x="1480" y="888.7378"/><text fill="#000000" font-family="sans-serif" font-size="14" font-style="italic" lengthAdjust="spacing" textLength="84" x="1393" y="912.7038">«namespace»</text><text fill="#000000" font-family="sans-serif" font-size="14" lengthAdjust="spacing" textLength="41" x="1414.5" y="931.7717">errors</text><!--MD5=[4f40616c88d3689c25a72e321dd68143]
entity posix--><rect fill="#FFFF00" filter="url(#f1fides0ms7ao0)" height="68.1358" style="stroke:#A80036;stroke-width:1.5;" width="124" x="1537" y="877.7378"/><rect fill="#FFFF00" height="10" style="stroke:#A80036;stroke-width:1.5;" width="15" x="1641" y="882.7378"/><rect fill="#FFFF00" height="2" style="stroke:#A80036;stroke-width:1.5;" width="4" x="1639" y="884.7378"/><rect fill="#FFFF00" height="2" style="stroke:#A80036;stroke-width:1.5;" width="4" x="1639" y="888.7378"/><text fill="#000000" font-family="sans-serif" font-size="14" font-style="italic" lengthAdjust="spacing" textLength="84" x="1552" y="912.7038">«namespace»</text><text fill="#000000" font-family="sans-serif" font-size="14" lengthAdjust="spacing" textLength="35" x="1576.5" y="931.7717">posix</text><!--MD5=[6e04307d27c2c0e0e73f4ec182e43def]
entity newtype--><rect fill="#FFFF00" filter="url(#f1fides0ms7ao0)" height="68.1358" style="stroke:#A80036;stroke-width:1.5;" width="124" x="2094" y="706.7378"/><rect fill="#FFFF00" height="10" style="stroke:#A80036;stroke-width:1.5;" width="15" x="2198" y="711.7378"/><rect fill="#FFFF00" height="2" style="stroke:#A80036;stroke-width:1.5;" width="4" x="2196" y="713.7378"/><rect fill="#FFFF00" height="2" style="stroke:#A80036;stroke-width:1.5;" width="4" x="2196" y="717.7378"/><text fill="#000000" font-family="sans-serif" font-size="14" font-style="italic" lengthAdjust="spacing" textLength="84" x="2109" y="741.7038">«namespace»</text><text fill="#000000" font-family="sans-serif" font-size="14" lengthAdjust="spacing" textLength="57" x="2122.5" y="760.7717">newtype</text><!--MD5=[01dbf0ecbd7384941a03b03e119fcbdd]
entity set--><rect fill="#FFFF00" filter="url(#f1fides0ms7ao0)" height="68.1358" style="stroke:#A80036;stroke-width:1.5;" width="124" x="2253" y="706.7378"/><rect fill="#FFFF00" height="10" style="stroke:#A80036;stroke-width:1.5;" width="15" x="2357" y="711.7378"/><rect fill="#FFFF00" height="2" style="stroke:#A80036;stroke-width:1.5;" width="4" x="2355" y="713.7378"/><rect fill="#FFFF00" height="2" style="stroke:#A80036;stroke-width:1.5;" width="4" x="2355" y="717.7378"/><text fill="#000000" font-family="sans-serif" font-size="14" font-style="italic" lengthAdjust="spacing" textLength="84" x="2268" y="741.7038">«namespace»</text><text fill="#000000" font-family="sans-serif" font-size="14" lengthAdjust="spacing" textLength="20" x="2300" y="760.7717">set</text><!--MD5=[ad1b6dc57716247de80283970c4ee265]
entity algorithm--><rect fill="#FFFF00" filter="url(#f1fides0ms7ao0)" height="68.1358" style="stroke:#A80036;stroke-width:1.5;" width="124" x="2094" y="877.7378"/><rect fill="#FFFF00" height="10" style="stroke:#A80036;stroke-width:1.5;" width="15" x="2198" y="882.7378"/><rect fill="#FFFF00" height="2" style="stroke:#A80036;stroke-width:1.5;" width="4" x="2196" y="884.7378"/><rect fill="#FFFF00" height="2" style="stroke:#A80036;stroke-width:1.5;" width="4" x="2196" y="888.7378"/><text fill="#000000" font-family="sans-serif" font-size="14" font-style="italic" lengthAdjust="spacing" textLength="84" x="2109" y="912.7038">«namespace»</text><text fill="#000000" font-family="sans-serif" font-size="14" lengthAdjust="spacing" textLength="66" x="2118" y="931.7717">algorithm</text><!--MD5=[963fb1ac2687aab13b570b0cd76338eb]
entity ffbb--><rect fill="#FFFF00" filter="url(#f1fides0ms7ao0)" height="68.1358" style="stroke:#A80036;stroke-width:1.5;" width="124" x="1914" y="706.7378"/><rect fill="#FFFF00" height="10" style="stroke:#A80036;stroke-width:1.5;" width="15" x="2018" y="711.7378"/><rect fill="#FFFF00" height="2" style="stroke:#A80036;stroke-width:1.5;" width="4" x="2016" y="713.7378"/><rect fill="#FFFF00" height="2" style="stroke:#A80036;stroke-width:1.5;" width="4" x="2016" y="717.7378"/><text fill="#000000" font-family="sans-serif" font-size="14" font-style="italic" lengthAdjust="spacing" textLength="84" x="1929" y="741.7038">«namespace»</text><text fill="#000000" font-family="sans-serif" font-size="14" lengthAdjust="spacing" textLength="28" x="1957" y="760.7717">ffbb</text><!--MD5=[02615e27588e6842f1f6d6ca220ff1eb]
entity duration_literals--><rect fill="#FFFF00" filter="url(#f1fides0ms7ao0)" height="68.1358" style="stroke:#A80036;stroke-width:1.5;" width="150" x="1708" y="706.7378"/><rect fill="#FFFF00" height="10" style="stroke:#A80036;stroke-width:1.5;" width="15" x="1838" y="711.7378"/><rect fill="#FFFF00" height="2" style="stroke:#A80036;stroke-width:1.5;" width="4" x="1836" y="713.7378"/><rect fill="#FFFF00" height="2" style="stroke:#A80036;stroke-width:1.5;" width="4" x="1836" y="717.7378"/><text fill="#000000" font-family="sans-serif" font-size="14" font-style="italic" lengthAdjust="spacing" textLength="84" x="1736" y="741.7038">«namespace»</text><text fill="#000000" font-family="sans-serif" font-size="14" lengthAdjust="spacing" textLength="110" x="1723" y="760.7717">duration_literals</text><!--MD5=[477a64901edc741ec91a401c96bc08f2]
entity popo--><rect fill="#FFFF00" filter="url(#f1fides0ms7ao0)" height="68.1358" style="stroke:#A80036;stroke-width:1.5;" width="124" x="784" y="406.7378"/><rect fill="#FFFF00" height="10" style="stroke:#A80036;stroke-width:1.5;" width="15" x="888" y="411.7378"/><rect fill="#FFFF00" height="2" style="stroke:#A80036;stroke-width:1.5;" width="4" x="886" y="413.7378"/><rect fill="#FFFF00" height="2" style="stroke:#A80036;stroke-width:1.5;" width="4" x="886" y="417.7378"/><text fill="#000000" font-family="sans-serif" font-size="14" font-style="italic" lengthAdjust="spacing" textLength="84" x="799" y="441.7038">«namespace»</text><text fill="#000000" font-family="sans-serif" font-size="14" lengthAdjust="spacing" textLength="34" x="824" y="460.7717">popo</text><!--MD5=[ba5cc415984907cdd9d4abcea172ca01]
entity capro--><rect fill="#FFFF00" filter="url(#f1fides0ms7ao0)" height="68.1358" style="stroke:#A80036;stroke-width:1.5;" width="124" x="943" y="406.7378"/><rect fill="#FFFF00" height="10" style="stroke:#A80036;stroke-width:1.5;" width="15" x="1047" y="411.7378"/><rect fill="#FFFF00" height="2" style="stroke:#A80036;stroke-width:1.5;" width="4" x="1045" y="413.7378"/><rect fill="#FFFF00" height="2" style="stroke:#A80036;stroke-width:1.5;" width="4" x="1045" y="417.7378"/><text fill="#000000" font-family="sans-serif" font-size="14" font-style="italic" lengthAdjust="spacing" textLength="84" x="958" y="441.7038">«namespace»</text><text fill="#000000" font-family="sans-serif" font-size="14" lengthAdjust="spacing" textLength="38" x="981" y="460.7717">capro</text><!--MD5=[09f98eabc58f714e0f010bacf40ca87c]
entity mepoo--><rect fill="#FFFF00" filter="url(#f1fides0ms7ao0)" height="68.1358" style="stroke:#A80036;stroke-width:1.5;" width="124" x="1102" y="406.7378"/><rect fill="#FFFF00" height="10" style="stroke:#A80036;stroke-width:1.5;" width="15" x="1206" y="411.7378"/><rect fill="#FFFF00" height="2" style="stroke:#A80036;stroke-width:1.5;" width="4" x="1204" y="413.7378"/><rect fill="#FFFF00" height="2" style="stroke:#A80036;stroke-width:1.5;" width="4" x="1204" y="417.7378"/><text fill="#000000" font-family="sans-serif" font-size="14" font-style="italic" lengthAdjust="spacing" textLength="84" x="1117" y="441.7038">«namespace»</text><text fill="#000000" font-family="sans-serif" font-size="14" lengthAdjust="spacing" textLength="46" x="1136" y="460.7717">mepoo</text><!--MD5=[eed5921adeb5106d45e8647997b5fa68]
entity version--><rect fill="#FFFF00" filter="url(#f1fides0ms7ao0)" height="68.1358" style="stroke:#A80036;stroke-width:1.5;" width="124" x="784" y="706.7378"/><rect fill="#FFFF00" height="10" style="stroke:#A80036;stroke-width:1.5;" width="15" x="888" y="711.7378"/><rect fill="#FFFF00" height="2" style="stroke:#A80036;stroke-width:1.5;" width="4" x="886" y="713.7378"/><rect fill="#FFFF00" height="2" style="stroke:#A80036;stroke-width:1.5;" width="4" x="886" y="717.7378"/><text fill="#000000" font-family="sans-serif" font-size="14" font-style="italic" lengthAdjust="spacing" textLength="84" x="799" y="741.7038">«namespace»</text><text fill="#000000" font-family="sans-serif" font-size="14" lengthAdjust="spacing" textLength="49" x="816.5" y="760.7717">version</text><!--MD5=[11fa01443fe50a6a26e5f9d4ef816fb0]
entity build--><rect fill="#FFFF00" filter="url(#f1fides0ms7ao0)" height="68.1358" style="stroke:#A80036;stroke-width:1.5;" width="124" x="943" y="706.7378"/><rect fill="#FFFF00" height="10" style="stroke:#A80036;stroke-width:1.5;" width="15" x="1047" y="711.7378"/><rect fill="#FFFF00" height="2" style="stroke:#A80036;stroke-width:1.5;" width="4" x="1045" y="713.7378"/><rect fill="#FFFF00" height="2" style="stroke:#A80036;stroke-width:1.5;" width="4" x="1045" y="717.7378"/><text fill="#000000" font-family="sans-serif" font-size="14" font-style="italic" lengthAdjust="spacing" textLength="84" x="958" y="741.7038">«namespace»</text><text fill="#000000" font-family="sans-serif" font-size="14" lengthAdjust="spacing" textLength="35" x="982.5" y="760.7717">build</text><!--MD5=[6857f13236cb144e56befd21da1781a5]
entity runtime--><rect fill="#FFFF00" filter="url(#f1fides0ms7ao0)" height="68.1358" style="stroke:#A80036;stroke-width:1.5;" width="124" x="604" y="406.7378"/><rect fill="#FFFF00" height="10" style="stroke:#A80036;stroke-width:1.5;" width="15" x="708" y="411.7378"/><rect fill="#FFFF00" height="2" style="stroke:#A80036;stroke-width:1.5;" width="4" x="706" y="413.7378"/><rect fill="#FFFF00" height="2" style="stroke:#A80036;stroke-width:1.5;" width="4" x="706" y="417.7378"/><text fill="#000000" font-family="sans-serif" font-size="14" font-style="italic" lengthAdjust="spacing" textLength="84" x="619" y="441.7038">«namespace»</text><text fill="#000000" font-family="sans-serif" font-size="14" lengthAdjust="spacing" textLength="54" x="634" y="460.7717">runtime</text><!--MD5=[5f97cdfbafef6a5cbddfbf6bdd3803d1]
entity gw--><rect fill="#FFFF00" filter="url(#f1fides0ms7ao0)" height="68.1358" style="stroke:#A80036;stroke-width:1.5;" width="124" x="424" y="406.7378"/><rect fill="#FFFF00" height="10" style="stroke:#A80036;stroke-width:1.5;" width="15" x="528" y="411.7378"/><rect fill="#FFFF00" height="2" style="stroke:#A80036;stroke-width:1.5;" width="4" x="526" y="413.7378"/><rect fill="#FFFF00" height="2" style="stroke:#A80036;stroke-width:1.5;" width="4" x="526" y="417.7378"/><text fill="#000000" font-family="sans-serif" font-size="14" font-style="italic" lengthAdjust="spacing" textLength="84" x="439" y="441.7038">«namespace»</text><text fill="#000000" font-family="sans-serif" font-size="14" lengthAdjust="spacing" textLength="20" x="471" y="460.7717">gw</text><!--MD5=[caf660ac2a54b55a5c31b5515889e628]
entity config--><rect fill="#FFFF00" filter="url(#f1fides0ms7ao0)" height="68.1358" style="stroke:#A80036;stroke-width:1.5;" width="124" x="244" y="406.7378"/><rect fill="#FFFF00" height="10" style="stroke:#A80036;stroke-width:1.5;" width="15" x="348" y="411.7378"/><rect fill="#FFFF00" height="2" style="stroke:#A80036;stroke-width:1.5;" width="4" x="346" y="413.7378"/><rect fill="#FFFF00" height="2" style="stroke:#A80036;stroke-width:1.5;" width="4" x="346" y="417.7378"/><text fill="#000000" font-family="sans-serif" font-size="14" font-style="italic" lengthAdjust="spacing" textLength="84" x="259" y="441.7038">«namespace»</text><text fill="#000000" font-family="sans-serif" font-size="14" lengthAdjust="spacing" textLength="42" x="280" y="460.7717">config</text><!--MD5=[f73e6e01beb5fef5d3e1c08b5afdf415]
entity roudi--><rect fill="#FFFF00" filter="url(#f1fides0ms7ao0)" height="68.1358" style="stroke:#A80036;stroke-width:1.5;" width="124" x="64" y="406.7378"/><rect fill="#FFFF00" height="10" style="stroke:#A80036;stroke-width:1.5;" width="15" x="168" y="411.7378"/><rect fill="#FFFF00" height="2" style="stroke:#A80036;stroke-width:1.5;" width="4" x="166" y="413.7378"/><rect fill="#FFFF00" height="2" style="stroke:#A80036;stroke-width:1.5;" width="4" x="166" y="417.7378"/><text fill="#000000" font-family="sans-serif" font-size="14" font-style="italic" lengthAdjust="spacing" textLength="84" x="79" y="441.7038">«namespace»</text><text fill="#000000" font-family="sans-serif" font-size="14" lengthAdjust="spacing" textLength="36" x="103" y="460.7717">roudi</text><!--MD5=[4617e0b67180f9dd16cbedc18db55043]
entity dds--><rect fill="#FFFF00" filter="url(#f1fides0ms7ao0)" height="68.1358" style="stroke:#A80036;stroke-width:1.5;" width="124" x="1078" y="147.7378"/><rect fill="#FFFF00" height="10" style="stroke:#A80036;stroke-width:1.5;" width="15" x="1182" y="152.7378"/><rect fill="#FFFF00" height="2" style="stroke:#A80036;stroke-width:1.5;" width="4" x="1180" y="154.7378"/><rect fill="#FFFF00" height="2" style="stroke:#A80036;stroke-width:1.5;" width="4" x="1180" y="158.7378"/><text fill="#000000" font-family="sans-serif" font-size="14" font-style="italic" lengthAdjust="spacing" textLength="84" x="1093" y="182.7038">«namespace»</text><text fill="#000000" font-family="sans-serif" font-size="14" lengthAdjust="spacing" textLength="25" x="1122.5" y="201.7717">dds</text><!--MD5=[b74312c72fa74392e6ee98a94ff43660]
entity gateway_dds--><rect fill="#FFFF00" filter="url(#f1fides0ms7ao0)" height="68.1358" style="stroke:#A80036;stroke-width:1.5;" width="124" x="919" y="147.7378"/><rect fill="#FFFF00" height="10" style="stroke:#A80036;stroke-width:1.5;" width="15" x="1023" y="152.7378"/><rect fill="#FFFF00" height="2" style="stroke:#A80036;stroke-width:1.5;" width="4" x="1021" y="154.7378"/><rect fill="#FFFF00" height="2" style="stroke:#A80036;stroke-width:1.5;" width="4" x="1021" y="158.7378"/><text fill="#000000" font-family="sans-serif" font-size="14" font-style="italic" lengthAdjust="spacing" textLength="84" x="934" y="182.7038">«namespace»</text><text fill="#000000" font-family="sans-serif" font-size="14" lengthAdjust="spacing" textLength="20" x="966" y="201.7717">gw</text><!--MD5=[fc4286d0b2a052e711aae933c9ad3727]
entity cpp2c--><rect fill="#FFFF00" filter="url(#f1fides0ms7ao0)" height="68.1358" style="stroke:#A80036;stroke-width:1.5;" width="124" x="1468" y="147.7378"/><rect fill="#FFFF00" height="10" style="stroke:#A80036;stroke-width:1.5;" width="15" x="1572" y="152.7378"/><rect fill="#FFFF00" height="2" style="stroke:#A80036;stroke-width:1.5;" width="4" x="1570" y="154.7378"/><rect fill="#FFFF00" height="2" style="stroke:#A80036;stroke-width:1.5;" width="4" x="1570" y="158.7378"/><text fill="#000000" font-family="sans-serif" font-size="14" font-style="italic" lengthAdjust="spacing" textLength="84" x="1483" y="182.7038">«namespace»</text><text fill="#000000" font-family="sans-serif" font-size="14" lengthAdjust="spacing" textLength="40" x="1505" y="201.7717">cpp2c</text><!--MD5=[e16426ebbb4af2a750e421465750c76a]
entity c2cpp--><rect fill="#FFFF00" filter="url(#f1fides0ms7ao0)" height="68.1358" style="stroke:#A80036;stroke-width:1.5;" width="124" x="1309" y="147.7378"/><rect fill="#FFFF00" height="10" style="stroke:#A80036;stroke-width:1.5;" width="15" x="1413" y="152.7378"/><rect fill="#FFFF00" height="2" style="stroke:#A80036;stroke-width:1.5;" width="4" x="1411" y="154.7378"/><rect fill="#FFFF00" height="2" style="stroke:#A80036;stroke-width:1.5;" width="4" x="1411" y="158.7378"/><text fill="#000000" font-family="sans-serif" font-size="14" font-style="italic" lengthAdjust="spacing" textLength="84" x="1324" y="182.7038">«namespace»</text><text fill="#000000" font-family="sans-serif" font-size="14" lengthAdjust="spacing" textLength="40" x="1346" y="201.7717">c2cpp</text><!--MD5=[38dbeb4b243ea6dae1c7e5b7ff87398b]
entity introspection--><rect fill="#FFFF00" filter="url(#f1fides0ms7ao0)" height="68.1358" style="stroke:#A80036;stroke-width:1.5;" width="129" x="1688.5" y="147.7378"/><rect fill="#FFFF00" height="10" style="stroke:#A80036;stroke-width:1.5;" width="15" x="1797.5" y="152.7378"/><rect fill="#FFFF00" height="2" style="stroke:#A80036;stroke-width:1.5;" width="4" x="1795.5" y="154.7378"/><rect fill="#FFFF00" height="2" style="stroke:#A80036;stroke-width:1.5;" width="4" x="1795.5" y="158.7378"/><text fill="#000000" font-family="sans-serif" font-size="14" font-style="italic" lengthAdjust="spacing" textLength="84" x="1706" y="182.7038">«namespace»</text><text fill="#000000" font-family="sans-serif" font-size="14" lengthAdjust="spacing" textLength="89" x="1703.5" y="201.7717">introspection</text><!--MD5=[c6bc123b88581d7893511edbb3afda00]
link iceoryx_posh to iceoryx_hoofs--><path d="M1282.0369,484.5146 C1282.3498,486.1798 1282.6696,487.8818 1282.9959,489.6186 C1288.2175,517.4069 1295.1087,554.0784 1302,590.7491 C1308.8913,627.4197 1315.7825,664.0894 1321.0041,691.8739 C1321.3304,693.6104 1321.6502,695.3123 1321.9631,696.9772 " fill="none" id="iceoryx_posh-to-iceoryx_hoofs" style="stroke:#A80036;stroke-width:1.0;stroke-dasharray:7.0,7.0;"/><polygon fill="#A80036" points="1321.9631,696.9772,1324.232,687.3933,1321.0396,692.0632,1316.3697,688.8708,1321.9631,696.9772" style="stroke:#A80036;stroke-width:1.0;"/><text fill="#000000" font-family="sans-serif" font-size="13" lengthAdjust="spacing" textLength="21" x="1290" y="521.6348">use</text><!--MD5=[923ab2d2a35521c01aa04bd91104d3ef]
link iceoryx_dds to iceoryx_posh--><path d="M888.0546,240.0076 C888.2356,240.5389 888.4224,241.068 888.615,241.5947 C891.6969,250.0216 896.2775,257.8228 903,263.7378 C1016.71,363.7978 1128.65,198.2678 1242,298.7378 C1244.9588,301.3603 1247.6746,304.1938 1250.1662,307.2025 C1251.4119,308.7068 1252.6017,310.2549 1253.7377,311.8423 C1254.3057,312.636 1254.8603,313.4395 1255.4017,314.2523 " fill="none" id="iceoryx_dds-to-iceoryx_posh" style="stroke:#A80036;stroke-width:1.0;stroke-dasharray:7.0,7.0;"/><polygon fill="#A80036" points="1255.4017,314.2523,1253.7411,304.5444,1252.6297,310.091,1247.0831,308.9797,1255.4017,314.2523" style="stroke:#A80036;stroke-width:1.0;"/><text fill="#000000" font-family="sans-serif" font-size="13" lengthAdjust="spacing" textLength="21" x="1229" y="286.6348">use</text><!--MD5=[ef085833380be4e9d63cc0e4596daa95]
link iceoryx_binding_c to iceoryx_posh--><path d="M1274,240.7813 C1274,241.6234 1274,242.4714 1274,243.3251 C1274,250.154 1274,257.3421 1274,264.7696 C1274,279.6245 1274,295.4369 1274,311.2491 C1274,312.2373 1274,313.2256 1274,314.2136 " fill="none" id="iceoryx_binding_c-to-iceoryx_posh" style="stroke:#A80036;stroke-width:1.0;stroke-dasharray:7.0,7.0;"/><polygon fill="#A80036" points="1274,314.2136,1278,305.2136,1274,309.2136,1270,305.2136,1274,314.2136" style="stroke:#A80036;stroke-width:1.0;"/><text fill="#000000" font-family="sans-serif" font-size="13" lengthAdjust="spacing" textLength="21" x="1275" y="286.6348">use</text><!--MD5=[4b8aab564a453d286cf375876300a066]
link introspection to iceoryx_posh--><path d="M1694.62,215.7778 C1668.25,230.5978 1636.64,248.1978 1608,263.7378 C1535.415,303.1278 1453.37,346.3778 1388.7613,380.1466 C1356.4569,397.0309 1328.5116,411.545 1308.2873,422.0211 C1298.1752,427.2591 1289.9934,431.4877 1284.1621,434.4983 C1283.4332,434.8746 1282.741,435.2319 1282.0864,435.5698 " fill="none" id="introspection-to-iceoryx_posh" style="stroke:#A80036;stroke-width:1.0;stroke-dasharray:7.0,7.0;"/><polygon fill="#A80036" points="1282.0864,435.5698,1291.9185,434.9967,1286.5295,433.2767,1288.2496,427.8877,1282.0864,435.5698" style="stroke:#A80036;stroke-width:1.0;"/><text fill="#000000" font-family="sans-serif" font-size="13" lengthAdjust="spacing" textLength="21" x="1591" y="286.6348">use</text><!--MD5=[6ee88ec5bb08a8f80fef382bcd89ab2a]
link concurrent to DesignPattern--><!--MD5=[7145daca522e1efb54063cc7aa38c07a]
link concurrent to errors--><!--MD5=[4218ed6aaceaf698e1509a8b8c7331dd]
link errors to posix--><!--MD5=[ad6e6e5a7cf711b8afeea2c3ceffa3b6]
link newtype to set--><!--MD5=[a8e109713a8745e1bfd03a8f989edc95]
link newtype to algorithm--><!--MD5=[4f791f3a16e89c6f7a776d127bc56767]
link popo to capro--><!--MD5=[ba7497340c31a8eaf849912da58dc6c5]
link capro to mepoo--><!--MD5=[978295f2acd8e12b6cc29277143f7468]
link popo to version--><!--MD5=[bbfd15eccc194e184bc66a7fb4fec50c]
link version to build--></g></svg>