<?xml version="1.0" encoding="UTF-8" standalone="no"?><svg xmlns="http://www.w3.org/2000/svg" xmlns:xlink="http://www.w3.org/1999/xlink" contentScriptType="application/ecmascript" contentStyleType="text/css" height="1339px" preserveAspectRatio="none" style="width:2892px;height:1339px;background:#00000000;" version="1.1" viewBox="0 0 2892 1339" width="2892px" zoomAndPan="magnify"><defs><filter height="300%" id="f1j9fgkesshi1g" width="300%" x="-1" y="-1"><feGaussianBlur result="blurOut" stdDeviation="2.0"/><feColorMatrix in="blurOut" result="blurOut2" type="matrix" values="0 0 0 0 0 0 0 0 0 0 0 0 0 0 0 0 0 0 .4 0"/><feOffset dx="4.0" dy="4.0" in="blurOut2" result="blurOut3"/><feBlend in="SourceGraphic" in2="blurOut3" mode="normal"/></filter></defs><g><text fill="#888888" font-family="sans-serif" font-size="10" lengthAdjust="spacing" textLength="174" x="2705" y="10.69">Eclipse iceoryx component overview</text><text fill="#000000" font-family="sans-serif" font-size="18" lengthAdjust="spacing" textLength="313" x="1283" y="32.8619">Eclipse iceoryx Component Overview</text><!--MD5=[236072d5b7a4fe7c6ddb917ba2c4b23f]
cluster iceoryx_platform--><polygon fill="#008000" filter="url(#f1j9fgkesshi1g)" points="2595,824.7378,2718,824.7378,2725,849.8057,2875,849.8057,2875,1032.7378,2595,1032.7378,2595,824.7378" style="stroke:#000000;stroke-width:1.5;"/><line style="stroke:#000000;stroke-width:1.5;" x1="2595" x2="2725" y1="849.8057" y2="849.8057"/><text fill="#000000" font-family="sans-serif" font-size="14" font-weight="bold" lengthAdjust="spacing" textLength="117" x="2599" y="841.7038">iceoryx_platform</text><!--MD5=[52d0f281a760e547a9e5bb4800864913]
cluster platform library--><rect fill="#D2691E" filter="url(#f1j9fgkesshi1g)" height="122" style="stroke:#000000;stroke-width:1.5;" width="208" x="2635" y="878.7378"/><path d="M2755,878.7378 L2755,890.8057 L2745,900.8057 L2635,900.8057 " fill="none" style="stroke:#000000;stroke-width:1.5;"/><text fill="#000000" font-family="sans-serif" font-size="14" font-weight="bold" lengthAdjust="spacing" textLength="110" x="2638" y="894.7038">platform library</text><!--MD5=[415eaaaa2a07b50c6508c9baea7f95bd]
cluster iceoryx_hoofs--><polygon fill="#008000" filter="url(#f1j9fgkesshi1g)" points="1457,549.7378,1558,549.7378,1565,574.8057,2555,574.8057,2555,1332.7378,1457,1332.7378,1457,549.7378" style="stroke:#000000;stroke-width:1.5;"/><line style="stroke:#000000;stroke-width:1.5;" x1="1457" x2="1565" y1="574.8057" y2="574.8057"/><text fill="#000000" font-family="sans-serif" font-size="14" font-weight="bold" lengthAdjust="spacing" textLength="95" x="1461" y="566.7038">iceoryx_hoofs</text><!--MD5=[b4465e90ffeb9984a7a126b6e59ae458]
cluster hoofs library--><rect fill="#D2691E" filter="url(#f1j9fgkesshi1g)" height="697" style="stroke:#000000;stroke-width:1.5;" width="1026" x="1489" y="603.7378"/><path d="M1587,603.7378 L1587,615.8057 L1577,625.8057 L1489,625.8057 " fill="none" style="stroke:#000000;stroke-width:1.5;"/><text fill="#000000" font-family="sans-serif" font-size="14" font-weight="bold" lengthAdjust="spacing" textLength="88" x="1492" y="619.7038">hoofs library</text><!--MD5=[ed7dc03aa8d539cfd7d57db110a68e55]
cluster iceoryx_posh--><polygon fill="#008000" filter="url(#f1j9fgkesshi1g)" points="16,314.7378,112,314.7378,119,339.8057,1417,339.8057,1417,757.7378,16,757.7378,16,314.7378" style="stroke:#000000;stroke-width:1.5;"/><line style="stroke:#000000;stroke-width:1.5;" x1="16" x2="119" y1="339.8057" y2="339.8057"/><text fill="#000000" font-family="sans-serif" font-size="14" font-weight="bold" lengthAdjust="spacing" textLength="90" x="20" y="331.7038">iceoryx_posh</text><!--MD5=[38f2323d045ecacd4478f4c7d1e06b9d]
cluster core library--><rect fill="#D2691E" filter="url(#f1j9fgkesshi1g)" height="357" style="stroke:#000000;stroke-width:1.5;" width="474" x="903" y="368.7378"/><path d="M992,368.7378 L992,380.8057 L982,390.8057 L903,390.8057 " fill="none" style="stroke:#000000;stroke-width:1.5;"/><text fill="#000000" font-family="sans-serif" font-size="14" font-weight="bold" lengthAdjust="spacing" textLength="79" x="906" y="384.7038">core library</text><!--MD5=[2882655244722af885eff964b671140f]
cluster runtime library--><rect fill="#D2691E" filter="url(#f1j9fgkesshi1g)" height="122" style="stroke:#000000;stroke-width:1.5;" width="156" x="723" y="368.7378"/><path d="M838,368.7378 L838,380.8057 L828,390.8057 L723,390.8057 " fill="none" style="stroke:#000000;stroke-width:1.5;"/><text fill="#000000" font-family="sans-serif" font-size="14" font-weight="bold" lengthAdjust="spacing" textLength="105" x="726" y="384.7038">runtime library</text><!--MD5=[4997cf375c60d6f53c72389211135b42]
cluster gateway library--><rect fill="#D2691E" filter="url(#f1j9fgkesshi1g)" height="122" style="stroke:#000000;stroke-width:1.5;" width="156" x="543" y="368.7378"/><path d="M661,368.7378 L661,380.8057 L651,390.8057 L543,390.8057 " fill="none" style="stroke:#000000;stroke-width:1.5;"/><text fill="#000000" font-family="sans-serif" font-size="14" font-weight="bold" lengthAdjust="spacing" textLength="108" x="546" y="384.7038">gateway library</text><!--MD5=[d11aad145ca7e2c3ef6ec64753ab2f2b]
cluster config library--><rect fill="#D2691E" filter="url(#f1j9fgkesshi1g)" height="122" style="stroke:#000000;stroke-width:1.5;" width="156" x="363" y="368.7378"/><path d="M465,368.7378 L465,380.8057 L455,390.8057 L363,390.8057 " fill="none" style="stroke:#000000;stroke-width:1.5;"/><text fill="#000000" font-family="sans-serif" font-size="14" font-weight="bold" lengthAdjust="spacing" textLength="92" x="366" y="384.7038">config library</text><!--MD5=[c694ed67aab4c45e63f5b674f5ebdacc]
cluster RouDi library--><rect fill="#D2691E" filter="url(#f1j9fgkesshi1g)" height="122" style="stroke:#000000;stroke-width:1.5;" width="156" x="183" y="368.7378"/><path d="M283,368.7378 L283,380.8057 L273,390.8057 L183,390.8057 " fill="none" style="stroke:#000000;stroke-width:1.5;"/><text fill="#000000" font-family="sans-serif" font-size="14" font-weight="bold" lengthAdjust="spacing" textLength="90" x="186" y="384.7038">RouDi library</text><!--MD5=[95dba68051f17ed836827d70d887a54a]
cluster iceoryx_dds--><polygon fill="#008000" filter="url(#f1j9fgkesshi1g)" points="1401,101.7378,1488,101.7378,1495,126.8057,1751,126.8057,1751,239.7378,1401,239.7378,1401,101.7378" style="stroke:#000000;stroke-width:1.5;"/><line style="stroke:#000000;stroke-width:1.5;" x1="1401" x2="1495" y1="126.8057" y2="126.8057"/><text fill="#000000" font-family="sans-serif" font-size="14" font-weight="bold" lengthAdjust="spacing" textLength="81" x="1405" y="118.7038">iceoryx_dds</text><!--MD5=[addeb03e3eb587838caeece846992337]
cluster iceoryx_binding_c--><polygon fill="#008000" filter="url(#f1j9fgkesshi1g)" points="1791,101.7378,1919,101.7378,1926,126.8057,2141,126.8057,2141,239.7378,1791,239.7378,1791,101.7378" style="stroke:#000000;stroke-width:1.5;"/><line style="stroke:#000000;stroke-width:1.5;" x1="1791" x2="1926" y1="126.8057" y2="126.8057"/><text fill="#000000" font-family="sans-serif" font-size="14" font-weight="bold" lengthAdjust="spacing" textLength="122" x="1795" y="118.7038">iceoryx_binding_c</text><!--MD5=[beec581614c18060e11082c458798f50]
cluster iceoryx_introspection--><polygon fill="#008000" filter="url(#f1j9fgkesshi1g)" points="2173,44.7378,2328,44.7378,2335,69.8057,2383,69.8057,2383,255.7378,2173,255.7378,2173,44.7378" style="stroke:#000000;stroke-width:1.5;"/><line style="stroke:#000000;stroke-width:1.5;" x1="2173" x2="2335" y1="69.8057" y2="69.8057"/><text fill="#000000" font-family="sans-serif" font-size="14" font-weight="bold" lengthAdjust="spacing" textLength="149" x="2177" y="61.7038">iceoryx_introspection</text><!--MD5=[aa2f05b2676d7d34ffa7e771fb7634f3]
cluster client--><rect fill="#FFFF00" filter="url(#f1j9fgkesshi1g)" height="141" style="stroke:#000000;stroke-width:1.5;" width="162" x="2197" y="90.7378"/><rect fill="#FFFF00" height="10" style="stroke:#000000;stroke-width:1.5;" width="15" x="2339" y="95.7378"/><rect fill="#FFFF00" height="2" style="stroke:#000000;stroke-width:1.5;" width="4" x="2337" y="97.7378"/><rect fill="#FFFF00" height="2" style="stroke:#000000;stroke-width:1.5;" width="4" x="2337" y="101.7378"/><text fill="#000000" font-family="sans-serif" font-size="14" font-style="italic" lengthAdjust="spacing" textLength="84" x="2236" y="118.7038">«namespace»</text><text fill="#000000" font-family="sans-serif" font-size="14" font-weight="bold" lengthAdjust="spacing" textLength="38" x="2259" y="137.7717">client</text><!--MD5=[2ece5e0fc2ccad7903c426a67d203651]
entity Platform abstraction--><rect fill="#FFF8DC" filter="url(#f1j9fgkesshi1g)" height="68.1358" style="stroke:#A80036;stroke-width:1.5;" width="177" x="2650.5" y="916.7378"/><rect fill="#FFF8DC" height="10" style="stroke:#A80036;stroke-width:1.5;" width="15" x="2807.5" y="921.7378"/><rect fill="#FFF8DC" height="2" style="stroke:#A80036;stroke-width:1.5;" width="4" x="2805.5" y="923.7378"/><rect fill="#FFF8DC" height="2" style="stroke:#A80036;stroke-width:1.5;" width="4" x="2805.5" y="927.7378"/><text fill="#000000" font-family="sans-serif" font-size="14" font-style="italic" lengthAdjust="spacing" textLength="61" x="2703.5" y="951.7038">«module»</text><text fill="#000000" font-family="sans-serif" font-size="14" lengthAdjust="spacing" textLength="137" x="2665.5" y="970.7717">Platform abstraction</text><!--MD5=[1c4db6a2e38ba8c7a11c2b17a573d314]
entity Memory & lifetime management--><rect fill="#FFF8DC" filter="url(#f1j9fgkesshi1g)" height="68.1358" style="stroke:#A80036;stroke-width:1.5;" width="258" x="1505" y="641.7378"/><rect fill="#FFF8DC" height="10" style="stroke:#A80036;stroke-width:1.5;" width="15" x="1743" y="646.7378"/><rect fill="#FFF8DC" height="2" style="stroke:#A80036;stroke-width:1.5;" width="4" x="1741" y="648.7378"/><rect fill="#FFF8DC" height="2" style="stroke:#A80036;stroke-width:1.5;" width="4" x="1741" y="652.7378"/><text fill="#000000" font-family="sans-serif" font-size="14" font-style="italic" lengthAdjust="spacing" textLength="61" x="1598.5" y="676.7038">«module»</text><text fill="#000000" font-family="sans-serif" font-size="14" lengthAdjust="spacing" textLength="218" x="1520" y="695.7717">Memory &amp; lifetime management</text><!--MD5=[bec63b5345253ac365421aeab3bf2f46]
entity Containers--><rect fill="#FFF8DC" filter="url(#f1j9fgkesshi1g)" height="68.1358" style="stroke:#A80036;stroke-width:1.5;" width="113" x="1798.5" y="641.7378"/><rect fill="#FFF8DC" height="10" style="stroke:#A80036;stroke-width:1.5;" width="15" x="1891.5" y="646.7378"/><rect fill="#FFF8DC" height="2" style="stroke:#A80036;stroke-width:1.5;" width="4" x="1889.5" y="648.7378"/><rect fill="#FFF8DC" height="2" style="stroke:#A80036;stroke-width:1.5;" width="4" x="1889.5" y="652.7378"/><text fill="#000000" font-family="sans-serif" font-size="14" font-style="italic" lengthAdjust="spacing" textLength="61" x="1819.5" y="676.7038">«module»</text><text fill="#000000" font-family="sans-serif" font-size="14" lengthAdjust="spacing" textLength="73" x="1813.5" y="695.7717">Containers</text><!--MD5=[320b9518da3fbf5ae3dd2e165a1e99f3]
entity Vocabulary types--><rect fill="#FFF8DC" filter="url(#f1j9fgkesshi1g)" height="68.1358" style="stroke:#A80036;stroke-width:1.5;" width="154" x="1947" y="641.7378"/><rect fill="#FFF8DC" height="10" style="stroke:#A80036;stroke-width:1.5;" width="15" x="2081" y="646.7378"/><rect fill="#FFF8DC" height="2" style="stroke:#A80036;stroke-width:1.5;" width="4" x="2079" y="648.7378"/><rect fill="#FFF8DC" height="2" style="stroke:#A80036;stroke-width:1.5;" width="4" x="2079" y="652.7378"/><text fill="#000000" font-family="sans-serif" font-size="14" font-style="italic" lengthAdjust="spacing" textLength="61" x="1988.5" y="676.7038">«module»</text><text fill="#000000" font-family="sans-serif" font-size="14" lengthAdjust="spacing" textLength="114" x="1962" y="695.7717">Vocabulary types</text><!--MD5=[66134357e496828e6d3e8eb8657d2618]
entity Filesystem--><rect fill="#FFF8DC" filter="url(#f1j9fgkesshi1g)" height="68.1358" style="stroke:#A80036;stroke-width:1.5;" width="110" x="2136" y="641.7378"/><rect fill="#FFF8DC" height="10" style="stroke:#A80036;stroke-width:1.5;" width="15" x="2226" y="646.7378"/><rect fill="#FFF8DC" height="2" style="stroke:#A80036;stroke-width:1.5;" width="4" x="2224" y="648.7378"/><rect fill="#FFF8DC" height="2" style="stroke:#A80036;stroke-width:1.5;" width="4" x="2224" y="652.7378"/><text fill="#000000" font-family="sans-serif" font-size="14" font-style="italic" lengthAdjust="spacing" textLength="61" x="2155.5" y="676.7038">«module»</text><text fill="#000000" font-family="sans-serif" font-size="14" lengthAdjust="spacing" textLength="70" x="2151" y="695.7717">Filesystem</text><!--MD5=[f312b80a91c48809cfe79a9a70685dbb]
entity Functional--><rect fill="#FFF8DC" filter="url(#f1j9fgkesshi1g)" height="68.1358" style="stroke:#A80036;stroke-width:1.5;" width="110" x="1576" y="916.7378"/><rect fill="#FFF8DC" height="10" style="stroke:#A80036;stroke-width:1.5;" width="15" x="1666" y="921.7378"/><rect fill="#FFF8DC" height="2" style="stroke:#A80036;stroke-width:1.5;" width="4" x="1664" y="923.7378"/><rect fill="#FFF8DC" height="2" style="stroke:#A80036;stroke-width:1.5;" width="4" x="1664" y="927.7378"/><text fill="#000000" font-family="sans-serif" font-size="14" font-style="italic" lengthAdjust="spacing" textLength="61" x="1595.5" y="951.7038">«module»</text><text fill="#000000" font-family="sans-serif" font-size="14" lengthAdjust="spacing" textLength="70" x="1591" y="970.7717">Functional</text><!--MD5=[e4225381f5989068811eb87c98ca5abf]
entity Utility--><rect fill="#FFF8DC" filter="url(#f1j9fgkesshi1g)" height="68.1358" style="stroke:#A80036;stroke-width:1.5;" width="101" x="1721.5" y="916.7378"/><rect fill="#FFF8DC" height="10" style="stroke:#A80036;stroke-width:1.5;" width="15" x="1802.5" y="921.7378"/><rect fill="#FFF8DC" height="2" style="stroke:#A80036;stroke-width:1.5;" width="4" x="1800.5" y="923.7378"/><rect fill="#FFF8DC" height="2" style="stroke:#A80036;stroke-width:1.5;" width="4" x="1800.5" y="927.7378"/><text fill="#000000" font-family="sans-serif" font-size="14" font-style="italic" lengthAdjust="spacing" textLength="61" x="1736.5" y="951.7038">«module»</text><text fill="#000000" font-family="sans-serif" font-size="14" lengthAdjust="spacing" textLength="39" x="1747.5" y="970.7717">Utility</text><!--MD5=[531e769360cbb288302c107463e42506]
entity Primitives--><rect fill="#FFF8DC" filter="url(#f1j9fgkesshi1g)" height="68.1358" style="stroke:#A80036;stroke-width:1.5;" width="106" x="1858" y="916.7378"/><rect fill="#FFF8DC" height="10" style="stroke:#A80036;stroke-width:1.5;" width="15" x="1944" y="921.7378"/><rect fill="#FFF8DC" height="2" style="stroke:#A80036;stroke-width:1.5;" width="4" x="1942" y="923.7378"/><rect fill="#FFF8DC" height="2" style="stroke:#A80036;stroke-width:1.5;" width="4" x="1942" y="927.7378"/><text fill="#000000" font-family="sans-serif" font-size="14" font-style="italic" lengthAdjust="spacing" textLength="61" x="1875.5" y="951.7038">«module»</text><text fill="#000000" font-family="sans-serif" font-size="14" lengthAdjust="spacing" textLength="66" x="1873" y="970.7717">Primitives</text><!--MD5=[04c56a7e4a1697c92585faae72cebc05]
entity Buffers--><rect fill="#FFF8DC" filter="url(#f1j9fgkesshi1g)" height="68.1358" style="stroke:#A80036;stroke-width:1.5;" width="101" x="1999.5" y="916.7378"/><rect fill="#FFF8DC" height="10" style="stroke:#A80036;stroke-width:1.5;" width="15" x="2080.5" y="921.7378"/><rect fill="#FFF8DC" height="2" style="stroke:#A80036;stroke-width:1.5;" width="4" x="2078.5" y="923.7378"/><rect fill="#FFF8DC" height="2" style="stroke:#A80036;stroke-width:1.5;" width="4" x="2078.5" y="927.7378"/><text fill="#000000" font-family="sans-serif" font-size="14" font-style="italic" lengthAdjust="spacing" textLength="61" x="2014.5" y="951.7038">«module»</text><text fill="#000000" font-family="sans-serif" font-size="14" lengthAdjust="spacing" textLength="49" x="2020.5" y="970.7717">Buffers</text><!--MD5=[ac741b4238ec47f4b7929caf957e28ed]
entity Inter-process communication--><rect fill="#FFF8DC" filter="url(#f1j9fgkesshi1g)" height="68.1358" style="stroke:#A80036;stroke-width:1.5;" width="238" x="1505" y="1087.7378"/><rect fill="#FFF8DC" height="10" style="stroke:#A80036;stroke-width:1.5;" width="15" x="1723" y="1092.7378"/><rect fill="#FFF8DC" height="2" style="stroke:#A80036;stroke-width:1.5;" width="4" x="1721" y="1094.7378"/><rect fill="#FFF8DC" height="2" style="stroke:#A80036;stroke-width:1.5;" width="4" x="1721" y="1098.7378"/><text fill="#000000" font-family="sans-serif" font-size="14" font-style="italic" lengthAdjust="spacing" textLength="61" x="1588.5" y="1122.7038">«module»</text><text fill="#000000" font-family="sans-serif" font-size="14" lengthAdjust="spacing" textLength="198" x="1520" y="1141.7717">Inter-process communication</text><!--MD5=[e6ae602b1184ac77008ab39cac1bf653]
entity Threads & sychronisation--><rect fill="#FFF8DC" filter="url(#f1j9fgkesshi1g)" height="68.1358" style="stroke:#A80036;stroke-width:1.5;" width="211" x="1778.5" y="1087.7378"/><rect fill="#FFF8DC" height="10" style="stroke:#A80036;stroke-width:1.5;" width="15" x="1969.5" y="1092.7378"/><rect fill="#FFF8DC" height="2" style="stroke:#A80036;stroke-width:1.5;" width="4" x="1967.5" y="1094.7378"/><rect fill="#FFF8DC" height="2" style="stroke:#A80036;stroke-width:1.5;" width="4" x="1967.5" y="1098.7378"/><text fill="#000000" font-family="sans-serif" font-size="14" font-style="italic" lengthAdjust="spacing" textLength="61" x="1848.5" y="1122.7038">«module»</text><text fill="#000000" font-family="sans-serif" font-size="14" lengthAdjust="spacing" textLength="171" x="1793.5" y="1141.7717">Threads &amp; sychronisation</text><!--MD5=[41e16957882cfdccf6ef5ff89ca4d31d]
entity Generalized design patterns & abstractions--><rect fill="#FFF8DC" filter="url(#f1j9fgkesshi1g)" height="68.1358" style="stroke:#A80036;stroke-width:1.5;" width="333" x="2024.5" y="1087.7378"/><rect fill="#FFF8DC" height="10" style="stroke:#A80036;stroke-width:1.5;" width="15" x="2337.5" y="1092.7378"/><rect fill="#FFF8DC" height="2" style="stroke:#A80036;stroke-width:1.5;" width="4" x="2335.5" y="1094.7378"/><rect fill="#FFF8DC" height="2" style="stroke:#A80036;stroke-width:1.5;" width="4" x="2335.5" y="1098.7378"/><text fill="#000000" font-family="sans-serif" font-size="14" font-style="italic" lengthAdjust="spacing" textLength="61" x="2155.5" y="1122.7038">«module»</text><text fill="#000000" font-family="sans-serif" font-size="14" lengthAdjust="spacing" textLength="293" x="2039.5" y="1141.7717">Generalized design patterns &amp; abstractions</text><!--MD5=[21f0274b17d5afdebd0633d213e2a0e3]
entity Reporting--><rect fill="#FFF8DC" filter="url(#f1j9fgkesshi1g)" height="68.1358" style="stroke:#A80036;stroke-width:1.5;" width="107" x="2392.5" y="1087.7378"/><rect fill="#FFF8DC" height="10" style="stroke:#A80036;stroke-width:1.5;" width="15" x="2479.5" y="1092.7378"/><rect fill="#FFF8DC" height="2" style="stroke:#A80036;stroke-width:1.5;" width="4" x="2477.5" y="1094.7378"/><rect fill="#FFF8DC" height="2" style="stroke:#A80036;stroke-width:1.5;" width="4" x="2477.5" y="1098.7378"/><text fill="#000000" font-family="sans-serif" font-size="14" font-style="italic" lengthAdjust="spacing" textLength="61" x="2410.5" y="1122.7038">«module»</text><text fill="#000000" font-family="sans-serif" font-size="14" lengthAdjust="spacing" textLength="67" x="2407.5" y="1141.7717">Reporting</text><!--MD5=[52244217770951987a130bd5b09c96eb]
entity Time--><rect fill="#FFF8DC" filter="url(#f1j9fgkesshi1g)" height="68.1358" style="stroke:#A80036;stroke-width:1.5;" width="101" x="1573.5" y="1216.7378"/><rect fill="#FFF8DC" height="10" style="stroke:#A80036;stroke-width:1.5;" width="15" x="1654.5" y="1221.7378"/><rect fill="#FFF8DC" height="2" style="stroke:#A80036;stroke-width:1.5;" width="4" x="1652.5" y="1223.7378"/><rect fill="#FFF8DC" height="2" style="stroke:#A80036;stroke-width:1.5;" width="4" x="1652.5" y="1227.7378"/><text fill="#000000" font-family="sans-serif" font-size="14" font-style="italic" lengthAdjust="spacing" textLength="61" x="1588.5" y="1251.7038">«module»</text><text fill="#000000" font-family="sans-serif" font-size="14" lengthAdjust="spacing" textLength="33" x="1602.5" y="1270.7717">Time</text><!--MD5=[ffd9c204d205bc9185ab1a43c6f1aff1]
entity errors--><rect fill="#FFFF00" filter="url(#f1j9fgkesshi1g)" height="68.1358" style="stroke:#A80036;stroke-width:1.5;" width="124" x="40" y="406.7378"/><rect fill="#FFFF00" height="10" style="stroke:#A80036;stroke-width:1.5;" width="15" x="144" y="411.7378"/><rect fill="#FFFF00" height="2" style="stroke:#A80036;stroke-width:1.5;" width="4" x="142" y="413.7378"/><rect fill="#FFFF00" height="2" style="stroke:#A80036;stroke-width:1.5;" width="4" x="142" y="417.7378"/><text fill="#000000" font-family="sans-serif" font-size="14" font-style="italic" lengthAdjust="spacing" textLength="84" x="55" y="441.7038">«namespace»</text><text fill="#000000" font-family="sans-serif" font-size="14" lengthAdjust="spacing" textLength="41" x="76.5" y="460.7717">errors</text><!--MD5=[477a64901edc741ec91a401c96bc08f2]
entity popo--><rect fill="#FFFF00" filter="url(#f1j9fgkesshi1g)" height="68.1358" style="stroke:#A80036;stroke-width:1.5;" width="124" x="919" y="406.7378"/><rect fill="#FFFF00" height="10" style="stroke:#A80036;stroke-width:1.5;" width="15" x="1023" y="411.7378"/><rect fill="#FFFF00" height="2" style="stroke:#A80036;stroke-width:1.5;" width="4" x="1021" y="413.7378"/><rect fill="#FFFF00" height="2" style="stroke:#A80036;stroke-width:1.5;" width="4" x="1021" y="417.7378"/><text fill="#000000" font-family="sans-serif" font-size="14" font-style="italic" lengthAdjust="spacing" textLength="84" x="934" y="441.7038">«namespace»</text><text fill="#000000" font-family="sans-serif" font-size="14" lengthAdjust="spacing" textLength="34" x="959" y="460.7717">popo</text><!--MD5=[ba5cc415984907cdd9d4abcea172ca01]
entity capro--><rect fill="#FFFF00" filter="url(#f1j9fgkesshi1g)" height="68.1358" style="stroke:#A80036;stroke-width:1.5;" width="124" x="1078" y="406.7378"/><rect fill="#FFFF00" height="10" style="stroke:#A80036;stroke-width:1.5;" width="15" x="1182" y="411.7378"/><rect fill="#FFFF00" height="2" style="stroke:#A80036;stroke-width:1.5;" width="4" x="1180" y="413.7378"/><rect fill="#FFFF00" height="2" style="stroke:#A80036;stroke-width:1.5;" width="4" x="1180" y="417.7378"/><text fill="#000000" font-family="sans-serif" font-size="14" font-style="italic" lengthAdjust="spacing" textLength="84" x="1093" y="441.7038">«namespace»</text><text fill="#000000" font-family="sans-serif" font-size="14" lengthAdjust="spacing" textLength="38" x="1116" y="460.7717">capro</text><!--MD5=[09f98eabc58f714e0f010bacf40ca87c]
entity mepoo--><rect fill="#FFFF00" filter="url(#f1j9fgkesshi1g)" height="68.1358" style="stroke:#A80036;stroke-width:1.5;" width="124" x="1237" y="406.7378"/><rect fill="#FFFF00" height="10" style="stroke:#A80036;stroke-width:1.5;" width="15" x="1341" y="411.7378"/><rect fill="#FFFF00" height="2" style="stroke:#A80036;stroke-width:1.5;" width="4" x="1339" y="413.7378"/><rect fill="#FFFF00" height="2" style="stroke:#A80036;stroke-width:1.5;" width="4" x="1339" y="417.7378"/><text fill="#000000" font-family="sans-serif" font-size="14" font-style="italic" lengthAdjust="spacing" textLength="84" x="1252" y="441.7038">«namespace»</text><text fill="#000000" font-family="sans-serif" font-size="14" lengthAdjust="spacing" textLength="46" x="1271" y="460.7717">mepoo</text><!--MD5=[eed5921adeb5106d45e8647997b5fa68]
entity version--><rect fill="#FFFF00" filter="url(#f1j9fgkesshi1g)" height="68.1358" style="stroke:#A80036;stroke-width:1.5;" width="124" x="919" y="641.7378"/><rect fill="#FFFF00" height="10" style="stroke:#A80036;stroke-width:1.5;" width="15" x="1023" y="646.7378"/><rect fill="#FFFF00" height="2" style="stroke:#A80036;stroke-width:1.5;" width="4" x="1021" y="648.7378"/><rect fill="#FFFF00" height="2" style="stroke:#A80036;stroke-width:1.5;" width="4" x="1021" y="652.7378"/><text fill="#000000" font-family="sans-serif" font-size="14" font-style="italic" lengthAdjust="spacing" textLength="84" x="934" y="676.7038">«namespace»</text><text fill="#000000" font-family="sans-serif" font-size="14" lengthAdjust="spacing" textLength="49" x="951.5" y="695.7717">version</text><!--MD5=[11fa01443fe50a6a26e5f9d4ef816fb0]
entity build--><rect fill="#FFFF00" filter="url(#f1j9fgkesshi1g)" height="68.1358" style="stroke:#A80036;stroke-width:1.5;" width="124" x="1078" y="641.7378"/><rect fill="#FFFF00" height="10" style="stroke:#A80036;stroke-width:1.5;" width="15" x="1182" y="646.7378"/><rect fill="#FFFF00" height="2" style="stroke:#A80036;stroke-width:1.5;" width="4" x="1180" y="648.7378"/><rect fill="#FFFF00" height="2" style="stroke:#A80036;stroke-width:1.5;" width="4" x="1180" y="652.7378"/><text fill="#000000" font-family="sans-serif" font-size="14" font-style="italic" lengthAdjust="spacing" textLength="84" x="1093" y="676.7038">«namespace»</text><text fill="#000000" font-family="sans-serif" font-size="14" lengthAdjust="spacing" textLength="35" x="1117.5" y="695.7717">build</text><!--MD5=[6857f13236cb144e56befd21da1781a5]
entity runtime--><rect fill="#FFFF00" filter="url(#f1j9fgkesshi1g)" height="68.1358" style="stroke:#A80036;stroke-width:1.5;" width="124" x="739" y="406.7378"/><rect fill="#FFFF00" height="10" style="stroke:#A80036;stroke-width:1.5;" width="15" x="843" y="411.7378"/><rect fill="#FFFF00" height="2" style="stroke:#A80036;stroke-width:1.5;" width="4" x="841" y="413.7378"/><rect fill="#FFFF00" height="2" style="stroke:#A80036;stroke-width:1.5;" width="4" x="841" y="417.7378"/><text fill="#000000" font-family="sans-serif" font-size="14" font-style="italic" lengthAdjust="spacing" textLength="84" x="754" y="441.7038">«namespace»</text><text fill="#000000" font-family="sans-serif" font-size="14" lengthAdjust="spacing" textLength="54" x="769" y="460.7717">runtime</text><!--MD5=[5f97cdfbafef6a5cbddfbf6bdd3803d1]
entity gw--><rect fill="#FFFF00" filter="url(#f1j9fgkesshi1g)" height="68.1358" style="stroke:#A80036;stroke-width:1.5;" width="124" x="559" y="406.7378"/><rect fill="#FFFF00" height="10" style="stroke:#A80036;stroke-width:1.5;" width="15" x="663" y="411.7378"/><rect fill="#FFFF00" height="2" style="stroke:#A80036;stroke-width:1.5;" width="4" x="661" y="413.7378"/><rect fill="#FFFF00" height="2" style="stroke:#A80036;stroke-width:1.5;" width="4" x="661" y="417.7378"/><text fill="#000000" font-family="sans-serif" font-size="14" font-style="italic" lengthAdjust="spacing" textLength="84" x="574" y="441.7038">«namespace»</text><text fill="#000000" font-family="sans-serif" font-size="14" lengthAdjust="spacing" textLength="20" x="606" y="460.7717">gw</text><!--MD5=[caf660ac2a54b55a5c31b5515889e628]
entity config--><rect fill="#FFFF00" filter="url(#f1j9fgkesshi1g)" height="68.1358" style="stroke:#A80036;stroke-width:1.5;" width="124" x="379" y="406.7378"/><rect fill="#FFFF00" height="10" style="stroke:#A80036;stroke-width:1.5;" width="15" x="483" y="411.7378"/><rect fill="#FFFF00" height="2" style="stroke:#A80036;stroke-width:1.5;" width="4" x="481" y="413.7378"/><rect fill="#FFFF00" height="2" style="stroke:#A80036;stroke-width:1.5;" width="4" x="481" y="417.7378"/><text fill="#000000" font-family="sans-serif" font-size="14" font-style="italic" lengthAdjust="spacing" textLength="84" x="394" y="441.7038">«namespace»</text><text fill="#000000" font-family="sans-serif" font-size="14" lengthAdjust="spacing" textLength="42" x="415" y="460.7717">config</text><!--MD5=[f73e6e01beb5fef5d3e1c08b5afdf415]
entity roudi--><rect fill="#FFFF00" filter="url(#f1j9fgkesshi1g)" height="68.1358" style="stroke:#A80036;stroke-width:1.5;" width="124" x="199" y="406.7378"/><rect fill="#FFFF00" height="10" style="stroke:#A80036;stroke-width:1.5;" width="15" x="303" y="411.7378"/><rect fill="#FFFF00" height="2" style="stroke:#A80036;stroke-width:1.5;" width="4" x="301" y="413.7378"/><rect fill="#FFFF00" height="2" style="stroke:#A80036;stroke-width:1.5;" width="4" x="301" y="417.7378"/><text fill="#000000" font-family="sans-serif" font-size="14" font-style="italic" lengthAdjust="spacing" textLength="84" x="214" y="441.7038">«namespace»</text><text fill="#000000" font-family="sans-serif" font-size="14" lengthAdjust="spacing" textLength="36" x="238" y="460.7717">roudi</text><!--MD5=[4617e0b67180f9dd16cbedc18db55043]
entity dds--><rect fill="#FFFF00" filter="url(#f1j9fgkesshi1g)" height="68.1358" style="stroke:#A80036;stroke-width:1.5;" width="124" x="1603" y="147.7378"/><rect fill="#FFFF00" height="10" style="stroke:#A80036;stroke-width:1.5;" width="15" x="1707" y="152.7378"/><rect fill="#FFFF00" height="2" style="stroke:#A80036;stroke-width:1.5;" width="4" x="1705" y="154.7378"/><rect fill="#FFFF00" height="2" style="stroke:#A80036;stroke-width:1.5;" width="4" x="1705" y="158.7378"/><text fill="#000000" font-family="sans-serif" font-size="14" font-style="italic" lengthAdjust="spacing" textLength="84" x="1618" y="182.7038">«namespace»</text><text fill="#000000" font-family="sans-serif" font-size="14" lengthAdjust="spacing" textLength="25" x="1647.5" y="201.7717">dds</text><!--MD5=[b74312c72fa74392e6ee98a94ff43660]
entity gateway_dds--><rect fill="#FFFF00" filter="url(#f1j9fgkesshi1g)" height="68.1358" style="stroke:#A80036;stroke-width:1.5;" width="124" x="1444" y="147.7378"/><rect fill="#FFFF00" height="10" style="stroke:#A80036;stroke-width:1.5;" width="15" x="1548" y="152.7378"/><rect fill="#FFFF00" height="2" style="stroke:#A80036;stroke-width:1.5;" width="4" x="1546" y="154.7378"/><rect fill="#FFFF00" height="2" style="stroke:#A80036;stroke-width:1.5;" width="4" x="1546" y="158.7378"/><text fill="#000000" font-family="sans-serif" font-size="14" font-style="italic" lengthAdjust="spacing" textLength="84" x="1459" y="182.7038">«namespace»</text><text fill="#000000" font-family="sans-serif" font-size="14" lengthAdjust="spacing" textLength="20" x="1491" y="201.7717">gw</text><!--MD5=[2d0af3a111e79514759d6541bbe61f34]
entity automotive_soa--><polygon fill="#008000" filter="url(#f1j9fgkesshi1g)" points="1074.5,160.7378,1203.5,160.7378,1210.5,185.8057,1227.5,185.8057,1227.5,202.8057,1074.5,202.8057,1074.5,160.7378" style="stroke:#000000;stroke-width:1.5;"/><line style="stroke:#000000;stroke-width:1.5;" x1="1074.5" x2="1210.5" y1="185.8057" y2="185.8057"/><text fill="#000000" font-family="sans-serif" font-size="14" font-weight="bold" lengthAdjust="spacing" textLength="111" x="1084.5" y="178.7038">automotive_soa</text><!--MD5=[7a0a0530b7442f566319cc1417466128]
entity iceoryx_rs--><polygon fill="#008000" filter="url(#f1j9fgkesshi1g)" points="1262.5,160.7378,1349.5,160.7378,1356.5,185.8057,1373.5,185.8057,1373.5,202.8057,1262.5,202.8057,1262.5,160.7378" style="stroke:#000000;stroke-width:1.5;"/><line style="stroke:#000000;stroke-width:1.5;" x1="1262.5" x2="1356.5" y1="185.8057" y2="185.8057"/><text fill="#000000" font-family="sans-serif" font-size="14" font-weight="bold" lengthAdjust="spacing" textLength="69" x="1272.5" y="178.7038">iceoryx_rs</text><!--MD5=[fc4286d0b2a052e711aae933c9ad3727]
entity cpp2c--><rect fill="#FFFF00" filter="url(#f1j9fgkesshi1g)" height="68.1358" style="stroke:#A80036;stroke-width:1.5;" width="124" x="1993" y="147.7378"/><rect fill="#FFFF00" height="10" style="stroke:#A80036;stroke-width:1.5;" width="15" x="2097" y="152.7378"/><rect fill="#FFFF00" height="2" style="stroke:#A80036;stroke-width:1.5;" width="4" x="2095" y="154.7378"/><rect fill="#FFFF00" height="2" style="stroke:#A80036;stroke-width:1.5;" width="4" x="2095" y="158.7378"/><text fill="#000000" font-family="sans-serif" font-size="14" font-style="italic" lengthAdjust="spacing" textLength="84" x="2008" y="182.7038">«namespace»</text><text fill="#000000" font-family="sans-serif" font-size="14" lengthAdjust="spacing" textLength="40" x="2030" y="201.7717">cpp2c</text><!--MD5=[e16426ebbb4af2a750e421465750c76a]
entity c2cpp--><rect fill="#FFFF00" filter="url(#f1j9fgkesshi1g)" height="68.1358" style="stroke:#A80036;stroke-width:1.5;" width="124" x="1834" y="147.7378"/><rect fill="#FFFF00" height="10" style="stroke:#A80036;stroke-width:1.5;" width="15" x="1938" y="152.7378"/><rect fill="#FFFF00" height="2" style="stroke:#A80036;stroke-width:1.5;" width="4" x="1936" y="154.7378"/><rect fill="#FFFF00" height="2" style="stroke:#A80036;stroke-width:1.5;" width="4" x="1936" y="158.7378"/><text fill="#000000" font-family="sans-serif" font-size="14" font-style="italic" lengthAdjust="spacing" textLength="84" x="1849" y="182.7038">«namespace»</text><text fill="#000000" font-family="sans-serif" font-size="14" lengthAdjust="spacing" textLength="40" x="1871" y="201.7717">c2cpp</text><!--MD5=[38dbeb4b243ea6dae1c7e5b7ff87398b]
entity introspection--><rect fill="#FFFF00" filter="url(#f1j9fgkesshi1g)" height="68.1358" style="stroke:#A80036;stroke-width:1.5;" width="129" x="2213.5" y="147.7378"/><rect fill="#FFFF00" height="10" style="stroke:#A80036;stroke-width:1.5;" width="15" x="2322.5" y="152.7378"/><rect fill="#FFFF00" height="2" style="stroke:#A80036;stroke-width:1.5;" width="4" x="2320.5" y="154.7378"/><rect fill="#FFFF00" height="2" style="stroke:#A80036;stroke-width:1.5;" width="4" x="2320.5" y="158.7378"/><text fill="#000000" font-family="sans-serif" font-size="14" font-style="italic" lengthAdjust="spacing" textLength="84" x="2231" y="182.7038">«namespace»</text><text fill="#000000" font-family="sans-serif" font-size="14" lengthAdjust="spacing" textLength="89" x="2228.5" y="201.7717">introspection</text><!--MD5=[e534a2baf33bb62d220c399ef5d1b7bd]
link iceoryx_hoofs to iceoryx_platform--><path d="M2555.0369,715.931 C2555.3498,717.4565 2555.6696,719.0158 2555.9959,720.6069 C2561.2175,746.0641 2568.1088,779.6591 2575,813.2528 C2581.8912,846.8466 2588.7825,880.4391 2594.0041,905.8913 C2594.3304,907.482 2594.6502,909.041 2594.9631,910.5662 " fill="none" id="iceoryx_hoofs-to-iceoryx_platform" style="stroke:#A80036;stroke-width:1.0;stroke-dasharray:7.0,7.0;"/><polygon fill="#A80036" points="2594.9631,910.5662,2597.0728,900.9459,2593.9583,905.6682,2589.236,902.5536,2594.9631,910.5662" style="stroke:#A80036;stroke-width:1.0;"/><text fill="#000000" font-family="sans-serif" font-size="13" lengthAdjust="spacing" textLength="21" x="2572" y="796.6348">use</text><!--MD5=[c6bc123b88581d7893511edbb3afda00]
link iceoryx_posh to iceoryx_hoofs--><path d="M1417.7129,441.8462 C1418.12,441.8516 1418.5409,441.8572 1418.9755,441.8631 C1419.8446,441.8748 1420.7681,441.8873 1421.7453,441.9008 C1429.5628,442.0085 1440.8105,442.1744 1455.0221,442.4126 C1483.4454,442.8889 1523.7241,443.6543 1572.1277,444.822 C1668.9347,447.1575 1798.2406,451.1022 1930.1988,457.5616 C2194.115,470.4803 2468.64,493.4578 2515,533.7378 C2517.9844,536.3309 2520.7227,539.1387 2523.2338,542.1248 C2524.4894,543.6179 2525.6882,545.1555 2526.8326,546.7332 C2527.4048,547.5221 2527.9634,548.321 2528.5087,549.1293 C2528.6451,549.3314 2528.7805,549.5341 2528.9152,549.7373 " fill="none" id="iceoryx_posh-to-iceoryx_hoofs" style="stroke:#A80036;stroke-width:1.0;stroke-dasharray:7.0,7.0;"/><polygon fill="#A80036" points="2528.9152,549.7373,2527.2789,540.0254,2526.1536,545.5692,2520.6098,544.4439,2528.9152,549.7373" style="stroke:#A80036;stroke-width:1.0;"/><text fill="#000000" font-family="sans-serif" font-size="13" lengthAdjust="spacing" textLength="21" x="2500" y="521.6348">use</text><!--MD5=[923ab2d2a35521c01aa04bd91104d3ef]
link iceoryx_dds to iceoryx_posh--><path d="M1409,240.7813 C1409,241.6234 1409,242.4714 1409,243.3251 C1409,250.154 1409,257.3421 1409,264.7696 C1409,279.6245 1409,295.4369 1409,311.2491 C1409,312.2373 1409,313.2256 1409,314.2136 " fill="none" id="iceoryx_dds-to-iceoryx_posh" style="stroke:#A80036;stroke-width:1.0;stroke-dasharray:7.0,7.0;"/><polygon fill="#A80036" points="1409,314.2136,1413,305.2136,1409,309.2136,1405,305.2136,1409,314.2136" style="stroke:#A80036;stroke-width:1.0;"/><text fill="#000000" font-family="sans-serif" font-size="13" lengthAdjust="spacing" textLength="21" x="1410" y="286.6348">use</text><!--MD5=[0849cf4ebcd2e43f7ea270bd3535bf86]
link iceoryx_rs to iceoryx_posh--><path d="M1330.26,202.9978 C1343.48,225.6278 1364.33,263.6778 1377,298.7378 C1378.3438,302.4559 1379.6433,306.2503 1380.8989,310.0974 C1381.2129,311.0591 1381.524,312.0242 1381.8325,312.9922 C1381.9867,313.4762 1382.1402,313.961 1382.2931,314.4464 " fill="none" id="iceoryx_rs-to-iceoryx_posh" style="stroke:#A80036;stroke-width:1.0;stroke-dasharray:7.0,7.0;"/><polygon fill="#A80036" points="1382.2931,314.4464,1383.4053,304.6605,1380.7913,309.6772,1375.7746,307.0633,1382.2931,314.4464" style="stroke:#A80036;stroke-width:1.0;"/><text fill="#000000" font-family="sans-serif" font-size="13" lengthAdjust="spacing" textLength="21" x="1374" y="286.6348">use</text><!--MD5=[9eb138455fa2e3111a1139ef28cb7403]
link automotive_soa to iceoryx_posh--><path d="M1169.33,202.7678 C1187.07,221.0378 1215.53,247.5878 1245,263.7378 C1281.62,283.8078 1294.43,280.8178 1335,290.7378 C1353.46,295.2478 1363.33,285.5378 1377,298.7378 C1379.8438,301.4841 1382.4587,304.4261 1384.8623,307.5294 C1386.0641,309.0811 1387.213,310.6731 1388.3112,312.3011 C1388.5858,312.7081 1388.8572,313.1173 1389.1255,313.5288 C1389.2596,313.7345 1389.3929,313.9407 1389.5255,314.1475 " fill="none" id="automotive_soa-to-iceoryx_posh" style="stroke:#A80036;stroke-width:1.0;stroke-dasharray:7.0,7.0;"/><polygon fill="#A80036" points="1389.5255,314.1475,1388.0359,304.412,1386.8271,309.9382,1381.3009,308.7294,1389.5255,314.1475" style="stroke:#A80036;stroke-width:1.0;"/><text fill="#000000" font-family="sans-serif" font-size="13" lengthAdjust="spacing" textLength="21" x="1336" y="286.6348">use</text><!--MD5=[ef085833380be4e9d63cc0e4596daa95]
link iceoryx_binding_c to iceoryx_posh--><path d="M1790.9165,198.8631 C1790.8608,198.9666 1790.8049,199.0704 1790.7488,199.1747 C1790.6365,199.3831 1790.5231,199.593 1790.4087,199.8043 C1789.9512,200.6495 1789.4769,201.5173 1788.9862,202.4057 C1787.0237,205.9591 1784.7997,209.8413 1782.3388,213.9191 C1772.495,230.2303 1758.86,249.6728 1743,263.7378 C1681.21,318.5278 1599.3325,362.0203 1532.11,392.0628 C1498.4988,407.0841 1468.5513,418.7428 1446.6103,426.77 C1435.6398,430.7836 1426.671,433.8893 1420.2467,436.0535 C1419.4436,436.324 1418.6804,436.5798 1417.9579,436.8208 C1417.7773,436.8811 1417.5992,436.9404 1417.4237,436.9989 " fill="none" id="iceoryx_binding_c-to-iceoryx_posh" style="stroke:#A80036;stroke-width:1.0;stroke-dasharray:7.0,7.0;"/><polygon fill="#A80036" points="1417.4237,436.9989,1427.2263,437.952,1422.1678,435.4199,1424.7,430.3614,1417.4237,436.9989" style="stroke:#A80036;stroke-width:1.0;"/><text fill="#000000" font-family="sans-serif" font-size="13" lengthAdjust="spacing" textLength="21" x="1728" y="286.6348">use</text><!--MD5=[4b8aab564a453d286cf375876300a066]
link introspection to iceoryx_posh--><path d="M2226.66,215.9278 C2199.65,232.1978 2165.48,250.9878 2133,263.7378 C1980.07,323.7478 1800.6925,367.5328 1658.7463,396.4216 C1587.7731,410.8659 1526.1578,421.5863 1481.8852,428.7486 C1459.7488,432.3298 1441.9482,435.0214 1429.4813,436.8444 C1426.3645,437.3001 1423.5812,437.7016 1421.1468,438.049 C1419.9296,438.2228 1418.7996,438.383 1417.7588,438.5298 " fill="none" id="introspection-to-iceoryx_posh" style="stroke:#A80036;stroke-width:1.0;stroke-dasharray:7.0,7.0;"/><polygon fill="#A80036" points="1417.7588,438.5298,1427.2293,441.2337,1422.7098,437.8315,1426.112,433.3121,1417.7588,438.5298" style="stroke:#A80036;stroke-width:1.0;"/><text fill="#000000" font-family="sans-serif" font-size="13" lengthAdjust="spacing" textLength="21" x="2096" y="286.6348">use</text><!--MD5=[e985f9fd1627e833653a4856cb7be700]
link Memory & lifetime management to Containers--><!--MD5=[014f19078612a32133aa4a17d332ad5d]
link Containers to Vocabulary types--><!--MD5=[81f1e65562cc8ab74a9d06e2789cbc7d]
link Vocabulary types to Filesystem--><!--MD5=[53514d2a48825c8d2318817c313b4ece]
link Memory & lifetime management to Functional--><!--MD5=[5814ba1528ed4b7b34979563cc20cdb2]
link Functional to Utility--><!--MD5=[fdf61ce746b12ae768b53b318964424b]
link Utility to Primitives--><!--MD5=[ef1035bb84826c9d2b389fab15cc63c2]
link Primitives to Buffers--><!--MD5=[a2ed41830cb0469e10d91e57436771fd]
link Functional to Inter-process communication--><!--MD5=[3cafb054b6f5fc847c9eb71f26ec1b2a]
link Inter-process communication to Threads & sychronisation--><!--MD5=[7384ddd8bf235e1c14cb9c1b177c63af]
link Threads & sychronisation to Generalized design patterns & abstractions--><!--MD5=[0daf0a69107a4b151dffe5b49fba2e30]
link Generalized design patterns & abstractions to Reporting--><!--MD5=[1b9c38072e28429ec21f79533d7c6778]
link Inter-process communication to Time--><!--MD5=[4f791f3a16e89c6f7a776d127bc56767]
link popo to capro--><!--MD5=[ba7497340c31a8eaf849912da58dc6c5]
link capro to mepoo--><!--MD5=[978295f2acd8e12b6cc29277143f7468]
link popo to version--><!--MD5=[bbfd15eccc194e184bc66a7fb4fec50c]
link version to build--></g></svg>