<?xml version="1.0" encoding="UTF-8" standalone="no"?><svg xmlns="http://www.w3.org/2000/svg" xmlns:xlink="http://www.w3.org/1999/xlink" contentScriptType="application/ecmascript" contentStyleType="text/css" height="530px" preserveAspectRatio="none" style="width:887px;height:530px;background:#00000000;" version="1.1" viewBox="0 0 887 530" width="887px" zoomAndPan="magnify"><defs><filter height="300%" id="fk20d2no65ph9" width="300%" x="-1" y="-1"><feGaussianBlur result="blurOut" stdDeviation="2.0"/><feColorMatrix in="blurOut" result="blurOut2" type="matrix" values="0 0 0 0 0 0 0 0 0 0 0 0 0 0 0 0 0 0 .4 0"/><feOffset dx="4.0" dy="4.0" in="blurOut2" result="blurOut3"/><feBlend in="SourceGraphic" in2="blurOut3" mode="normal"/></filter></defs><g><text fill="#000000" font-family="sans-serif" font-size="18" lengthAdjust="spacing" textLength="323" x="274.5" y="19.2419">Eclipse iceoryx software layers (v3.0.0)</text><!--MD5=[50bec286e8ce6e81079b29e9cf121d87]
entity iceoryx_platform--><rect fill="#FEFECE" filter="url(#fk20d2no65ph9)" height="49.0679" style="stroke:#A80036;stroke-width:1.5;" width="151" x="474" y="467.5158"/><rect fill="#FEFECE" height="10" style="stroke:#A80036;stroke-width:1.5;" width="15" x="605" y="472.5158"/><rect fill="#FEFECE" height="2" style="stroke:#A80036;stroke-width:1.5;" width="4" x="603" y="474.5158"/><rect fill="#FEFECE" height="2" style="stroke:#A80036;stroke-width:1.5;" width="4" x="603" y="478.5158"/><text fill="#000000" font-family="sans-serif" font-size="14" lengthAdjust="spacing" textLength="111" x="489" y="502.4818">iceoryx_platform</text><!--MD5=[69661e9daaeafc3e7a24c4130266bf51]
entity iceoryx_hoofs--><rect fill="#FEFECE" filter="url(#fk20d2no65ph9)" height="49.0679" style="stroke:#A80036;stroke-width:1.5;" width="130" x="484.5" y="358.5158"/><rect fill="#FEFECE" height="10" style="stroke:#A80036;stroke-width:1.5;" width="15" x="594.5" y="363.5158"/><rect fill="#FEFECE" height="2" style="stroke:#A80036;stroke-width:1.5;" width="4" x="592.5" y="365.5158"/><rect fill="#FEFECE" height="2" style="stroke:#A80036;stroke-width:1.5;" width="4" x="592.5" y="369.5158"/><text fill="#000000" font-family="sans-serif" font-size="14" lengthAdjust="spacing" textLength="90" x="499.5" y="393.4818">iceoryx_hoofs</text><!--MD5=[74ad152ab75a8d0e3a325b0b8906eb46]
entity iceoryx_posh--><rect fill="#FEFECE" filter="url(#fk20d2no65ph9)" height="49.0679" style="stroke:#A80036;stroke-width:1.5;" width="126" x="392.5" y="249.5158"/><rect fill="#FEFECE" height="10" style="stroke:#A80036;stroke-width:1.5;" width="15" x="498.5" y="254.5158"/><rect fill="#FEFECE" height="2" style="stroke:#A80036;stroke-width:1.5;" width="4" x="496.5" y="256.5158"/><rect fill="#FEFECE" height="2" style="stroke:#A80036;stroke-width:1.5;" width="4" x="496.5" y="260.5158"/><text fill="#000000" font-family="sans-serif" font-size="14" lengthAdjust="spacing" textLength="86" x="407.5" y="284.4818">iceoryx_posh</text><!--MD5=[ec8cc9883d7ef7823ae7e8bd7cb942ac]
entity iceoryx_binding_c--><rect fill="#FEFECE" filter="url(#fk20d2no65ph9)" height="49.0679" style="stroke:#A80036;stroke-width:1.5;" width="159" x="7" y="140.5158"/><rect fill="#FEFECE" height="10" style="stroke:#A80036;stroke-width:1.5;" width="15" x="146" y="145.5158"/><rect fill="#FEFECE" height="2" style="stroke:#A80036;stroke-width:1.5;" width="4" x="144" y="147.5158"/><rect fill="#FEFECE" height="2" style="stroke:#A80036;stroke-width:1.5;" width="4" x="144" y="151.5158"/><text fill="#000000" font-family="sans-serif" font-size="14" lengthAdjust="spacing" textLength="119" x="22" y="175.4818">iceoryx_binding_c</text><!--MD5=[9d947bea0ef7c87047352fe99a9cdbe8]
entity C user app--><rect fill="#FEFECE" filter="url(#fk20d2no65ph9)" height="49.0679" style="stroke:#A80036;stroke-width:1.5;" width="113" x="30" y="31.5158"/><rect fill="#FEFECE" height="10" style="stroke:#A80036;stroke-width:1.5;" width="15" x="123" y="36.5158"/><rect fill="#FEFECE" height="2" style="stroke:#A80036;stroke-width:1.5;" width="4" x="121" y="38.5158"/><rect fill="#FEFECE" height="2" style="stroke:#A80036;stroke-width:1.5;" width="4" x="121" y="42.5158"/><text fill="#000000" font-family="sans-serif" font-size="14" lengthAdjust="spacing" textLength="73" x="45" y="66.4818">C user app</text><!--MD5=[dce0206633e57a49e22c6fb2f97be890]
entity C++ user app--><rect fill="#FEFECE" filter="url(#fk20d2no65ph9)" height="49.0679" style="stroke:#A80036;stroke-width:1.5;" width="129" x="391" y="140.5158"/><rect fill="#FEFECE" height="10" style="stroke:#A80036;stroke-width:1.5;" width="15" x="500" y="145.5158"/><rect fill="#FEFECE" height="2" style="stroke:#A80036;stroke-width:1.5;" width="4" x="498" y="147.5158"/><rect fill="#FEFECE" height="2" style="stroke:#A80036;stroke-width:1.5;" width="4" x="498" y="151.5158"/><text fill="#000000" font-family="sans-serif" font-size="14" lengthAdjust="spacing" textLength="89" x="406" y="175.4818">C++ user app</text><path d="M660.5,478.0158 L660.5,488.0158 L625.38,492.0158 L660.5,496.0158 L660.5,505.7219 A0,0 0 0 0 660.5,505.7219 L858.5,505.7219 A0,0 0 0 0 858.5,505.7219 L858.5,488.0158 L848.5,478.0158 L660.5,478.0158 A0,0 0 0 0 660.5,478.0158 " fill="#FBFB77" filter="url(#fk20d2no65ph9)" style="stroke:#A80036;stroke-width:1.0;"/><path d="M848.5,478.0158 L848.5,488.0158 L858.5,488.0158 L848.5,478.0158 " fill="#FBFB77" style="stroke:#A80036;stroke-width:1.0;"/><text fill="#000000" font-family="sans-serif" font-size="13" lengthAdjust="spacing" textLength="177" x="666.5" y="496.9129">Basic platform support library</text><path d="M554,260.0158 L554,287.7219 A0,0 0 0 0 554,287.7219 L627.97,287.7219 L570.42,358.2058 L635.97,287.7219 L733,287.7219 A0,0 0 0 0 733,287.7219 L733,270.0158 L723,260.0158 L554,260.0158 A0,0 0 0 0 554,260.0158 " fill="#FBFB77" filter="url(#fk20d2no65ph9)" style="stroke:#A80036;stroke-width:1.0;"/><path d="M723,260.0158 L723,270.0158 L733,270.0158 L723,260.0158 " fill="#FBFB77" style="stroke:#A80036;stroke-width:1.0;"/><text fill="#000000" font-family="sans-serif" font-size="13" lengthAdjust="spacing" textLength="158" x="560" y="278.9129">Basic building block library</text><path d="M555,151.0158 L555,178.7219 A0,0 0 0 0 555,178.7219 L680.76,178.7219 L512.95,249.4658 L688.76,178.7219 L878,178.7219 A0,0 0 0 0 878,178.7219 L878,161.0158 L868,151.0158 L555,151.0158 A0,0 0 0 0 555,151.0158 " fill="#FBFB77" filter="url(#fk20d2no65ph9)" style="stroke:#A80036;stroke-width:1.0;"/><path d="M868,151.0158 L868,161.0158 L878,161.0158 L868,151.0158 " fill="#FBFB77" style="stroke:#A80036;stroke-width:1.0;"/><text fill="#000000" font-family="sans-serif" font-size="13" lengthAdjust="spacing" textLength="302" x="561" y="169.9129">Shared memory transport (POsix SHared memory)</text><path d="M201.5,151.0158 L201.5,161.0158 L166,165.0158 L201.5,169.0158 L201.5,178.7219 A0,0 0 0 0 201.5,178.7219 L355.5,178.7219 A0,0 0 0 0 355.5,178.7219 L355.5,161.0158 L345.5,151.0158 L201.5,151.0158 A0,0 0 0 0 201.5,151.0158 " fill="#FBFB77" filter="url(#fk20d2no65ph9)" style="stroke:#A80036;stroke-width:1.0;"/><path d="M345.5,151.0158 L345.5,161.0158 L355.5,161.0158 L345.5,151.0158 " fill="#FBFB77" style="stroke:#A80036;stroke-width:1.0;"/><text fill="#000000" font-family="sans-serif" font-size="13" lengthAdjust="spacing" textLength="133" x="207.5" y="169.9129">C API for iceoryx_posh</text><!--MD5=[e534a2baf33bb62d220c399ef5d1b7bd]
link iceoryx_hoofs to iceoryx_platform--><path d="M549.5,407.7658 C549.5,423.8358 549.5,445.1558 549.5,462.1958 " fill="none" id="iceoryx_hoofs-to-iceoryx_platform" style="stroke:#A80036;stroke-width:1.0;stroke-dasharray:7.0,7.0;"/><polygon fill="#A80036" points="549.5,467.3358,553.5,458.3358,549.5,462.3358,545.5,458.3358,549.5,467.3358" style="stroke:#A80036;stroke-width:1.0;"/><!--MD5=[c6bc123b88581d7893511edbb3afda00]
link iceoryx_posh to iceoryx_hoofs--><path d="M476.36,298.7658 C490.84,315.2458 510.18,337.2558 525.33,354.5058 " fill="none" id="iceoryx_posh-to-iceoryx_hoofs" style="stroke:#A80036;stroke-width:1.0;stroke-dasharray:7.0,7.0;"/><polygon fill="#A80036" points="528.7,358.3358,525.7661,348.9341,525.4004,354.5792,519.7554,354.2135,528.7,358.3358" style="stroke:#A80036;stroke-width:1.0;"/><!--MD5=[ef085833380be4e9d63cc0e4596daa95]
link iceoryx_binding_c to iceoryx_posh--><path d="M166.11,189.1058 C232.09,208.2358 324.85,235.1358 387.42,253.2758 " fill="none" id="iceoryx_binding_c-to-iceoryx_posh" style="stroke:#A80036;stroke-width:1.0;stroke-dasharray:7.0,7.0;"/><polygon fill="#A80036" points="392.24,254.6758,384.6976,248.3425,387.4351,253.2928,382.4847,256.0303,392.24,254.6758" style="stroke:#A80036;stroke-width:1.0;"/><!--MD5=[5734a6b3a3f946bad1ac4369bc2e3fa5]
link C user app to iceoryx_binding_c--><path d="M86.5,80.7658 C86.5,96.8358 86.5,118.1558 86.5,135.1958 " fill="none" id="C user app-to-iceoryx_binding_c" style="stroke:#A80036;stroke-width:1.0;stroke-dasharray:7.0,7.0;"/><polygon fill="#A80036" points="86.5,140.3358,90.5,131.3358,86.5,135.3358,82.5,131.3358,86.5,140.3358" style="stroke:#A80036;stroke-width:1.0;"/><!--MD5=[495abe35aab841eaeb614e3facd5fb18]
link C++ user app to iceoryx_posh--><path d="M455.5,189.7658 C455.5,205.8358 455.5,227.1558 455.5,244.1958 " fill="none" id="C++ user app-to-iceoryx_posh" style="stroke:#A80036;stroke-width:1.0;stroke-dasharray:7.0,7.0;"/><polygon fill="#A80036" points="455.5,249.3358,459.5,240.3358,455.5,244.3358,451.5,240.3358,455.5,249.3358" style="stroke:#A80036;stroke-width:1.0;"/></g></svg>