<?xml version="1.0" encoding="UTF-8" standalone="no"?>
<svg xmlns="http://www.w3.org/2000/svg" xmlns:xlink="http://www.w3.org/1999/xlink" contentStyleType="text/css" height="932px" preserveAspectRatio="none" style="width:2457px;height:932px;background:#00000000;" version="1.1" viewBox="0 0 2457 932" width="2457px" zoomAndPan="magnify"><defs/><g><rect height="26.2969" style="stroke:#00000000;stroke-width:1.0;fill:none;" width="358" x="1042.5" y="5"/><text fill="#000000" font-family="sans-serif" font-size="14" font-weight="bold" lengthAdjust="spacing" textLength="348" x="1047.5" y="22.9951">Eclipse iceoryx Component Overview v2.0.0</text><!--MD5=[415eaaaa2a07b50c6508c9baea7f95bd]
cluster iceoryx_hoofs--><g id="cluster_iceoryx_hoofs"><path d="M1240.5,519.2969 L1352.5,519.2969 A3.75,3.75 0 0 1 1355,521.7969 L1362,541.5938 L2447.5,541.5938 A2.5,2.5 0 0 1 2450,544.0938 L2450,922.7969 A2.5,2.5 0 0 1 2447.5,925.2969 L1240.5,925.2969 A2.5,2.5 0 0 1 1238,922.7969 L1238,521.7969 A2.5,2.5 0 0 1 1240.5,519.2969 " fill="#008000" style="stroke:#000000;stroke-width:1.5;"/><line style="stroke:#000000;stroke-width:1.5;" x1="1238" x2="1362" y1="541.5938" y2="541.5938"/><text fill="#000000" font-family="sans-serif" font-size="14" font-weight="bold" lengthAdjust="spacing" textLength="111" x="1242" y="534.292">iceoryx_hoofs</text></g><!--MD5=[b4465e90ffeb9984a7a126b6e59ae458]
cluster hoofs library--><g id="cluster_hoofs library"><rect fill="#D2691E" height="323" rx="2.5" ry="2.5" style="stroke:#181818;stroke-width:1.0;" width="1140" x="1278" y="570.2969"/><path d="M1392,570.2969 L1392,579.5938 L1382,589.5938 L1278,589.5938 " fill="none" style="stroke:#181818;stroke-width:1.0;"/><text fill="#000000" font-family="sans-serif" font-size="14" font-weight="bold" lengthAdjust="spacing" textLength="104" x="1281" y="584.292">hoofs library</text></g><!--MD5=[c7abec679f850aa996fa297d4bffb25c]
cluster cxx--><g id="cluster_cxx"><rect fill="#FFFF00" height="256" rx="2.5" ry="2.5" style="stroke:#181818;stroke-width:1.0;" width="350" x="2044" y="613.2969"/><rect fill="#FFFF00" height="10" style="stroke:#181818;stroke-width:1.0;" width="15" x="2374" y="618.2969"/><rect fill="#FFFF00" height="2" style="stroke:#181818;stroke-width:1.0;" width="4" x="2372" y="620.2969"/><rect fill="#FFFF00" height="2" style="stroke:#181818;stroke-width:1.0;" width="4" x="2372" y="624.2969"/><text fill="#000000" font-family="sans-serif" font-size="14" font-style="italic" lengthAdjust="spacing" textLength="101" x="2168.5" y="639.292">«namespace»</text><text fill="#000000" font-family="sans-serif" font-size="14" font-weight="bold" lengthAdjust="spacing" textLength="27" x="2205.5" y="655.5889">cxx</text></g><!--MD5=[4a0d858a1b32f3a888c29c8953eb9aab]
cluster log--><g id="cluster_log"><rect fill="#FFFF00" height="130" rx="2.5" ry="2.5" style="stroke:#181818;stroke-width:1.0;" width="174" x="1846" y="613.2969"/><rect fill="#FFFF00" height="10" style="stroke:#181818;stroke-width:1.0;" width="15" x="2000" y="618.2969"/><rect fill="#FFFF00" height="2" style="stroke:#181818;stroke-width:1.0;" width="4" x="1998" y="620.2969"/><rect fill="#FFFF00" height="2" style="stroke:#181818;stroke-width:1.0;" width="4" x="1998" y="624.2969"/><text fill="#000000" font-family="sans-serif" font-size="14" font-style="italic" lengthAdjust="spacing" textLength="101" x="1882.5" y="639.292">«namespace»</text><text fill="#000000" font-family="sans-serif" font-size="14" font-weight="bold" lengthAdjust="spacing" textLength="25" x="1920.5" y="655.5889">log</text></g><!--MD5=[f5f1b3651291938931aee825d03ea60b]
cluster units--><g id="cluster_units"><rect fill="#FFFF00" height="130" rx="2.5" ry="2.5" style="stroke:#181818;stroke-width:1.0;" width="188" x="1634" y="613.2969"/><rect fill="#FFFF00" height="10" style="stroke:#181818;stroke-width:1.0;" width="15" x="1802" y="618.2969"/><rect fill="#FFFF00" height="2" style="stroke:#181818;stroke-width:1.0;" width="4" x="1800" y="620.2969"/><rect fill="#FFFF00" height="2" style="stroke:#181818;stroke-width:1.0;" width="4" x="1800" y="624.2969"/><text fill="#000000" font-family="sans-serif" font-size="14" font-style="italic" lengthAdjust="spacing" textLength="101" x="1677.5" y="639.292">«namespace»</text><text fill="#000000" font-family="sans-serif" font-size="14" font-weight="bold" lengthAdjust="spacing" textLength="42" x="1707" y="655.5889">units</text></g><!--MD5=[ed7dc03aa8d539cfd7d57db110a68e55]
cluster iceoryx_posh--><g id="cluster_iceoryx_posh"><path d="M8.5,297.2969 L113.5,297.2969 A3.75,3.75 0 0 1 116,299.7969 L123,319.5938 L1195.5,319.5938 A2.5,2.5 0 0 1 1198,322.0938 L1198,898.7969 A2.5,2.5 0 0 1 1195.5,901.2969 L8.5,901.2969 A2.5,2.5 0 0 1 6,898.7969 L6,299.7969 A2.5,2.5 0 0 1 8.5,297.2969 " fill="#008000" style="stroke:#000000;stroke-width:1.5;"/><line style="stroke:#000000;stroke-width:1.5;" x1="6" x2="123" y1="319.5938" y2="319.5938"/><text fill="#000000" font-family="sans-serif" font-size="14" font-weight="bold" lengthAdjust="spacing" textLength="104" x="10" y="312.292">iceoryx_posh</text></g><!--MD5=[38f2323d045ecacd4478f4c7d1e06b9d]
cluster core library--><g id="cluster_core library"><rect fill="#D2691E" height="521" rx="2.5" ry="2.5" style="stroke:#181818;stroke-width:1.0;" width="526" x="632" y="348.2969"/><path d="M735,348.2969 L735,357.5938 L725,367.5938 L632,367.5938 " fill="none" style="stroke:#181818;stroke-width:1.0;"/><text fill="#000000" font-family="sans-serif" font-size="14" font-weight="bold" lengthAdjust="spacing" textLength="93" x="635" y="362.292">core library</text></g><!--MD5=[4997cf375c60d6f53c72389211135b42]
cluster gateway library--><g id="cluster_gateway library"><rect fill="#D2691E" height="114" rx="2.5" ry="2.5" style="stroke:#181818;stroke-width:1.0;" width="174" x="434" y="348.2969"/><path d="M571,348.2969 L571,357.5938 L561,367.5938 L434,367.5938 " fill="none" style="stroke:#181818;stroke-width:1.0;"/><text fill="#000000" font-family="sans-serif" font-size="14" font-weight="bold" lengthAdjust="spacing" textLength="127" x="437" y="362.292">gateway library</text></g><!--MD5=[c694ed67aab4c45e63f5b674f5ebdacc]
cluster RouDi library--><g id="cluster_RouDi library"><rect fill="#D2691E" height="114" rx="2.5" ry="2.5" style="stroke:#181818;stroke-width:1.0;" width="174" x="236" y="348.2969"/><path d="M351,348.2969 L351,357.5938 L341,367.5938 L236,367.5938 " fill="none" style="stroke:#181818;stroke-width:1.0;"/><text fill="#000000" font-family="sans-serif" font-size="14" font-weight="bold" lengthAdjust="spacing" textLength="105" x="239" y="362.292">RouDi library</text></g><!--MD5=[d11aad145ca7e2c3ef6ec64753ab2f2b]
cluster config library--><g id="cluster_config library"><rect fill="#D2691E" height="114" rx="2.5" ry="2.5" style="stroke:#181818;stroke-width:1.0;" width="174" x="38" y="348.2969"/><path d="M157,348.2969 L157,357.5938 L147,367.5938 L38,367.5938 " fill="none" style="stroke:#181818;stroke-width:1.0;"/><text fill="#000000" font-family="sans-serif" font-size="14" font-weight="bold" lengthAdjust="spacing" textLength="109" x="41" y="362.292">config library</text></g><!--MD5=[95dba68051f17ed836827d70d887a54a]
cluster iceoryx_dds--><g id="cluster_iceoryx_dds"><path d="M759.5,94.2969 L854.5,94.2969 A3.75,3.75 0 0 1 857,96.7969 L864,116.5938 L1139.5,116.5938 A2.5,2.5 0 0 1 1142,119.0938 L1142,221.7969 A2.5,2.5 0 0 1 1139.5,224.2969 L759.5,224.2969 A2.5,2.5 0 0 1 757,221.7969 L757,96.7969 A2.5,2.5 0 0 1 759.5,94.2969 " fill="#008000" style="stroke:#000000;stroke-width:1.5;"/><line style="stroke:#000000;stroke-width:1.5;" x1="757" x2="864" y1="116.5938" y2="116.5938"/><text fill="#000000" font-family="sans-serif" font-size="14" font-weight="bold" lengthAdjust="spacing" textLength="94" x="761" y="109.292">iceoryx_dds</text></g><!--MD5=[addeb03e3eb587838caeece846992337]
cluster iceoryx_binding_c--><g id="cluster_iceoryx_binding_c"><path d="M1184.5,94.2969 L1326.5,94.2969 A3.75,3.75 0 0 1 1329,96.7969 L1336,116.5938 L1564.5,116.5938 A2.5,2.5 0 0 1 1567,119.0938 L1567,221.7969 A2.5,2.5 0 0 1 1564.5,224.2969 L1184.5,224.2969 A2.5,2.5 0 0 1 1182,221.7969 L1182,96.7969 A2.5,2.5 0 0 1 1184.5,94.2969 " fill="#008000" style="stroke:#000000;stroke-width:1.5;"/><line style="stroke:#000000;stroke-width:1.5;" x1="1182" x2="1336" y1="116.5938" y2="116.5938"/><text fill="#000000" font-family="sans-serif" font-size="14" font-weight="bold" lengthAdjust="spacing" textLength="141" x="1186" y="109.292">iceoryx_binding_c</text></g><!--MD5=[beec581614c18060e11082c458798f50]
cluster iceoryx_introspection--><g id="cluster_iceoryx_introspection"><path d="M1601.5,43.2969 L1777.5,43.2969 A3.75,3.75 0 0 1 1780,45.7969 L1787,65.5938 L1818.5,65.5938 A2.5,2.5 0 0 1 1821,68.0938 L1821,237.7969 A2.5,2.5 0 0 1 1818.5,240.2969 L1601.5,240.2969 A2.5,2.5 0 0 1 1599,237.7969 L1599,45.7969 A2.5,2.5 0 0 1 1601.5,43.2969 " fill="#008000" style="stroke:#000000;stroke-width:1.5;"/><line style="stroke:#000000;stroke-width:1.5;" x1="1599" x2="1787" y1="65.5938" y2="65.5938"/><text fill="#000000" font-family="sans-serif" font-size="14" font-weight="bold" lengthAdjust="spacing" textLength="175" x="1603" y="58.292">iceoryx_introspection</text></g><!--MD5=[aa2f05b2676d7d34ffa7e771fb7634f3]
cluster client--><g id="cluster_client"><rect fill="#FFFF00" height="130" rx="2.5" ry="2.5" style="stroke:#181818;stroke-width:1.0;" width="174" x="1623" y="86.2969"/><rect fill="#FFFF00" height="10" style="stroke:#181818;stroke-width:1.0;" width="15" x="1777" y="91.2969"/><rect fill="#FFFF00" height="2" style="stroke:#181818;stroke-width:1.0;" width="4" x="1775" y="93.2969"/><rect fill="#FFFF00" height="2" style="stroke:#181818;stroke-width:1.0;" width="4" x="1775" y="97.2969"/><text fill="#000000" font-family="sans-serif" font-size="14" font-style="italic" lengthAdjust="spacing" textLength="101" x="1659.5" y="112.292">«namespace»</text><text fill="#000000" font-family="sans-serif" font-size="14" font-weight="bold" lengthAdjust="spacing" textLength="46" x="1687" y="128.5889">client</text></g><!--MD5=[d91e39a99efde3d86d45b17502cf0b7a]
entity concurrent--><g id="elem_concurrent"><rect fill="#FFFF00" height="62.5938" rx="2.5" ry="2.5" style="stroke:#181818;stroke-width:0.5;" width="141" x="1294.5" y="664.2969"/><rect fill="#FFFF00" height="10" style="stroke:#181818;stroke-width:0.5;" width="15" x="1415.5" y="669.2969"/><rect fill="#FFFF00" height="2" style="stroke:#181818;stroke-width:0.5;" width="4" x="1413.5" y="671.2969"/><rect fill="#FFFF00" height="2" style="stroke:#181818;stroke-width:0.5;" width="4" x="1413.5" y="675.2969"/><text fill="#000000" font-family="sans-serif" font-size="14" font-style="italic" lengthAdjust="spacing" textLength="101" x="1309.5" y="697.292">«namespace»</text><text fill="#000000" font-family="sans-serif" font-size="14" lengthAdjust="spacing" textLength="79" x="1320.5" y="713.5889">concurrent</text></g><!--MD5=[ee73bf7a731da339678d59279e2ee62c]
entity DesignPattern--><g id="elem_DesignPattern"><rect fill="#FFFF00" height="62.5938" rx="2.5" ry="2.5" style="stroke:#181818;stroke-width:0.5;" width="144" x="1471" y="664.2969"/><rect fill="#FFFF00" height="10" style="stroke:#181818;stroke-width:0.5;" width="15" x="1595" y="669.2969"/><rect fill="#FFFF00" height="2" style="stroke:#181818;stroke-width:0.5;" width="4" x="1593" y="671.2969"/><rect fill="#FFFF00" height="2" style="stroke:#181818;stroke-width:0.5;" width="4" x="1593" y="675.2969"/><text fill="#000000" font-family="sans-serif" font-size="14" font-style="italic" lengthAdjust="spacing" textLength="101" x="1487.5" y="697.292">«namespace»</text><text fill="#000000" font-family="sans-serif" font-size="14" lengthAdjust="spacing" textLength="104" x="1486" y="713.5889">DesignPattern</text></g><!--MD5=[4f40616c88d3689c25a72e321dd68143]
entity posix--><g id="elem_posix"><rect fill="#FFFF00" height="62.5938" rx="2.5" ry="2.5" style="stroke:#181818;stroke-width:0.5;" width="141" x="1294.5" y="790.2969"/><rect fill="#FFFF00" height="10" style="stroke:#181818;stroke-width:0.5;" width="15" x="1415.5" y="795.2969"/><rect fill="#FFFF00" height="2" style="stroke:#181818;stroke-width:0.5;" width="4" x="1413.5" y="797.2969"/><rect fill="#FFFF00" height="2" style="stroke:#181818;stroke-width:0.5;" width="4" x="1413.5" y="801.2969"/><text fill="#000000" font-family="sans-serif" font-size="14" font-style="italic" lengthAdjust="spacing" textLength="101" x="1309.5" y="823.292">«namespace»</text><text fill="#000000" font-family="sans-serif" font-size="14" lengthAdjust="spacing" textLength="38" x="1341" y="839.5889">posix</text></g><!--MD5=[ceed6297da295d19fb133ff92e8beba1]
entity rp--><g id="elem_rp"><rect fill="#FFFF00" height="62.5938" rx="2.5" ry="2.5" style="stroke:#181818;stroke-width:0.5;" width="141" x="1470.5" y="790.2969"/><rect fill="#FFFF00" height="10" style="stroke:#181818;stroke-width:0.5;" width="15" x="1591.5" y="795.2969"/><rect fill="#FFFF00" height="2" style="stroke:#181818;stroke-width:0.5;" width="4" x="1589.5" y="797.2969"/><rect fill="#FFFF00" height="2" style="stroke:#181818;stroke-width:0.5;" width="4" x="1589.5" y="801.2969"/><text fill="#000000" font-family="sans-serif" font-size="14" font-style="italic" lengthAdjust="spacing" textLength="101" x="1485.5" y="823.292">«namespace»</text><text fill="#000000" font-family="sans-serif" font-size="14" lengthAdjust="spacing" textLength="16" x="1528" y="839.5889">rp</text></g><!--MD5=[6e04307d27c2c0e0e73f4ec182e43def]
entity newtype--><g id="elem_newtype"><rect fill="#FFFF00" height="62.5938" rx="2.5" ry="2.5" style="stroke:#181818;stroke-width:0.5;" width="141" x="2060.5" y="664.2969"/><rect fill="#FFFF00" height="10" style="stroke:#181818;stroke-width:0.5;" width="15" x="2181.5" y="669.2969"/><rect fill="#FFFF00" height="2" style="stroke:#181818;stroke-width:0.5;" width="4" x="2179.5" y="671.2969"/><rect fill="#FFFF00" height="2" style="stroke:#181818;stroke-width:0.5;" width="4" x="2179.5" y="675.2969"/><text fill="#000000" font-family="sans-serif" font-size="14" font-style="italic" lengthAdjust="spacing" textLength="101" x="2075.5" y="697.292">«namespace»</text><text fill="#000000" font-family="sans-serif" font-size="14" lengthAdjust="spacing" textLength="63" x="2094.5" y="713.5889">newtype</text></g><!--MD5=[01dbf0ecbd7384941a03b03e119fcbdd]
entity set--><g id="elem_set"><rect fill="#FFFF00" height="62.5938" rx="2.5" ry="2.5" style="stroke:#181818;stroke-width:0.5;" width="141" x="2236.5" y="664.2969"/><rect fill="#FFFF00" height="10" style="stroke:#181818;stroke-width:0.5;" width="15" x="2357.5" y="669.2969"/><rect fill="#FFFF00" height="2" style="stroke:#181818;stroke-width:0.5;" width="4" x="2355.5" y="671.2969"/><rect fill="#FFFF00" height="2" style="stroke:#181818;stroke-width:0.5;" width="4" x="2355.5" y="675.2969"/><text fill="#000000" font-family="sans-serif" font-size="14" font-style="italic" lengthAdjust="spacing" textLength="101" x="2251.5" y="697.292">«namespace»</text><text fill="#000000" font-family="sans-serif" font-size="14" lengthAdjust="spacing" textLength="23" x="2290.5" y="713.5889">set</text></g><!--MD5=[ad1b6dc57716247de80283970c4ee265]
entity algorithm--><g id="elem_algorithm"><rect fill="#FFFF00" height="62.5938" rx="2.5" ry="2.5" style="stroke:#181818;stroke-width:0.5;" width="141" x="2060.5" y="790.2969"/><rect fill="#FFFF00" height="10" style="stroke:#181818;stroke-width:0.5;" width="15" x="2181.5" y="795.2969"/><rect fill="#FFFF00" height="2" style="stroke:#181818;stroke-width:0.5;" width="4" x="2179.5" y="797.2969"/><rect fill="#FFFF00" height="2" style="stroke:#181818;stroke-width:0.5;" width="4" x="2179.5" y="801.2969"/><text fill="#000000" font-family="sans-serif" font-size="14" font-style="italic" lengthAdjust="spacing" textLength="101" x="2075.5" y="823.292">«namespace»</text><text fill="#000000" font-family="sans-serif" font-size="14" lengthAdjust="spacing" textLength="70" x="2091" y="839.5889">algorithm</text></g><!--MD5=[963fb1ac2687aab13b570b0cd76338eb]
entity ffbb--><g id="elem_ffbb"><rect fill="#FFFF00" height="62.5938" rx="2.5" ry="2.5" style="stroke:#181818;stroke-width:0.5;" width="141" x="1862.5" y="664.2969"/><rect fill="#FFFF00" height="10" style="stroke:#181818;stroke-width:0.5;" width="15" x="1983.5" y="669.2969"/><rect fill="#FFFF00" height="2" style="stroke:#181818;stroke-width:0.5;" width="4" x="1981.5" y="671.2969"/><rect fill="#FFFF00" height="2" style="stroke:#181818;stroke-width:0.5;" width="4" x="1981.5" y="675.2969"/><text fill="#000000" font-family="sans-serif" font-size="14" font-style="italic" lengthAdjust="spacing" textLength="101" x="1877.5" y="697.292">«namespace»</text><text fill="#000000" font-family="sans-serif" font-size="14" lengthAdjust="spacing" textLength="32" x="1912" y="713.5889">ffbb</text></g><!--MD5=[02615e27588e6842f1f6d6ca220ff1eb]
entity duration_literals--><g id="elem_duration_literals"><rect fill="#FFFF00" height="62.5938" rx="2.5" ry="2.5" style="stroke:#181818;stroke-width:0.5;" width="156" x="1650" y="664.2969"/><rect fill="#FFFF00" height="10" style="stroke:#181818;stroke-width:0.5;" width="15" x="1786" y="669.2969"/><rect fill="#FFFF00" height="2" style="stroke:#181818;stroke-width:0.5;" width="4" x="1784" y="671.2969"/><rect fill="#FFFF00" height="2" style="stroke:#181818;stroke-width:0.5;" width="4" x="1784" y="675.2969"/><text fill="#000000" font-family="sans-serif" font-size="14" font-style="italic" lengthAdjust="spacing" textLength="101" x="1672.5" y="697.292">«namespace»</text><text fill="#000000" font-family="sans-serif" font-size="14" lengthAdjust="spacing" textLength="116" x="1665" y="713.5889">duration_literals</text></g><!--MD5=[477a64901edc741ec91a401c96bc08f2]
entity popo--><g id="elem_popo"><rect fill="#FFFF00" height="62.5938" rx="2.5" ry="2.5" style="stroke:#181818;stroke-width:0.5;" width="141" x="648.5" y="383.2969"/><rect fill="#FFFF00" height="10" style="stroke:#181818;stroke-width:0.5;" width="15" x="769.5" y="388.2969"/><rect fill="#FFFF00" height="2" style="stroke:#181818;stroke-width:0.5;" width="4" x="767.5" y="390.2969"/><rect fill="#FFFF00" height="2" style="stroke:#181818;stroke-width:0.5;" width="4" x="767.5" y="394.2969"/><text fill="#000000" font-family="sans-serif" font-size="14" font-style="italic" lengthAdjust="spacing" textLength="101" x="663.5" y="416.292">«namespace»</text><text fill="#000000" font-family="sans-serif" font-size="14" lengthAdjust="spacing" textLength="38" x="695" y="432.5889">popo</text></g><!--MD5=[ba5cc415984907cdd9d4abcea172ca01]
entity capro--><g id="elem_capro"><rect fill="#FFFF00" height="62.5938" rx="2.5" ry="2.5" style="stroke:#181818;stroke-width:0.5;" width="141" x="824.5" y="383.2969"/><rect fill="#FFFF00" height="10" style="stroke:#181818;stroke-width:0.5;" width="15" x="945.5" y="388.2969"/><rect fill="#FFFF00" height="2" style="stroke:#181818;stroke-width:0.5;" width="4" x="943.5" y="390.2969"/><rect fill="#FFFF00" height="2" style="stroke:#181818;stroke-width:0.5;" width="4" x="943.5" y="394.2969"/><text fill="#000000" font-family="sans-serif" font-size="14" font-style="italic" lengthAdjust="spacing" textLength="101" x="839.5" y="416.292">«namespace»</text><text fill="#000000" font-family="sans-serif" font-size="14" lengthAdjust="spacing" textLength="41" x="869.5" y="432.5889">capro</text></g><!--MD5=[09f98eabc58f714e0f010bacf40ca87c]
entity mepoo--><g id="elem_mepoo"><rect fill="#FFFF00" height="62.5938" rx="2.5" ry="2.5" style="stroke:#181818;stroke-width:0.5;" width="141" x="1000.5" y="383.2969"/><rect fill="#FFFF00" height="10" style="stroke:#181818;stroke-width:0.5;" width="15" x="1121.5" y="388.2969"/><rect fill="#FFFF00" height="2" style="stroke:#181818;stroke-width:0.5;" width="4" x="1119.5" y="390.2969"/><rect fill="#FFFF00" height="2" style="stroke:#181818;stroke-width:0.5;" width="4" x="1119.5" y="394.2969"/><text fill="#000000" font-family="sans-serif" font-size="14" font-style="italic" lengthAdjust="spacing" textLength="101" x="1015.5" y="416.292">«namespace»</text><text fill="#000000" font-family="sans-serif" font-size="14" lengthAdjust="spacing" textLength="51" x="1040.5" y="432.5889">mepoo</text></g><!--MD5=[eed5921adeb5106d45e8647997b5fa68]
entity version--><g id="elem_version"><rect fill="#FFFF00" height="62.5938" rx="2.5" ry="2.5" style="stroke:#181818;stroke-width:0.5;" width="141" x="648.5" y="664.2969"/><rect fill="#FFFF00" height="10" style="stroke:#181818;stroke-width:0.5;" width="15" x="769.5" y="669.2969"/><rect fill="#FFFF00" height="2" style="stroke:#181818;stroke-width:0.5;" width="4" x="767.5" y="671.2969"/><rect fill="#FFFF00" height="2" style="stroke:#181818;stroke-width:0.5;" width="4" x="767.5" y="675.2969"/><text fill="#000000" font-family="sans-serif" font-size="14" font-style="italic" lengthAdjust="spacing" textLength="101" x="663.5" y="697.292">«namespace»</text><text fill="#000000" font-family="sans-serif" font-size="14" lengthAdjust="spacing" textLength="52" x="688" y="713.5889">version</text></g><!--MD5=[11fa01443fe50a6a26e5f9d4ef816fb0]
entity build--><g id="elem_build"><rect fill="#FFFF00" height="62.5938" rx="2.5" ry="2.5" style="stroke:#181818;stroke-width:0.5;" width="141" x="824.5" y="664.2969"/><rect fill="#FFFF00" height="10" style="stroke:#181818;stroke-width:0.5;" width="15" x="945.5" y="669.2969"/><rect fill="#FFFF00" height="2" style="stroke:#181818;stroke-width:0.5;" width="4" x="943.5" y="671.2969"/><rect fill="#FFFF00" height="2" style="stroke:#181818;stroke-width:0.5;" width="4" x="943.5" y="675.2969"/><text fill="#000000" font-family="sans-serif" font-size="14" font-style="italic" lengthAdjust="spacing" textLength="101" x="839.5" y="697.292">«namespace»</text><text fill="#000000" font-family="sans-serif" font-size="14" lengthAdjust="spacing" textLength="35" x="872.5" y="713.5889">build</text></g><!--MD5=[6857f13236cb144e56befd21da1781a5]
entity runtime--><g id="elem_runtime"><rect fill="#FFFF00" height="62.5938" rx="2.5" ry="2.5" style="stroke:#181818;stroke-width:0.5;" width="141" x="1000.5" y="664.2969"/><rect fill="#FFFF00" height="10" style="stroke:#181818;stroke-width:0.5;" width="15" x="1121.5" y="669.2969"/><rect fill="#FFFF00" height="2" style="stroke:#181818;stroke-width:0.5;" width="4" x="1119.5" y="671.2969"/><rect fill="#FFFF00" height="2" style="stroke:#181818;stroke-width:0.5;" width="4" x="1119.5" y="675.2969"/><text fill="#000000" font-family="sans-serif" font-size="14" font-style="italic" lengthAdjust="spacing" textLength="101" x="1015.5" y="697.292">«namespace»</text><text fill="#000000" font-family="sans-serif" font-size="14" lengthAdjust="spacing" textLength="57" x="1037.5" y="713.5889">runtime</text></g><!--MD5=[41236b02c847786743686b4ddf809814]
entity helper--><g id="elem_helper"><rect fill="#FFFF00" height="62.5938" rx="2.5" ry="2.5" style="stroke:#181818;stroke-width:0.5;" width="141" x="648.5" y="790.2969"/><rect fill="#FFFF00" height="10" style="stroke:#181818;stroke-width:0.5;" width="15" x="769.5" y="795.2969"/><rect fill="#FFFF00" height="2" style="stroke:#181818;stroke-width:0.5;" width="4" x="767.5" y="797.2969"/><rect fill="#FFFF00" height="2" style="stroke:#181818;stroke-width:0.5;" width="4" x="767.5" y="801.2969"/><text fill="#000000" font-family="sans-serif" font-size="14" font-style="italic" lengthAdjust="spacing" textLength="101" x="663.5" y="823.292">«namespace»</text><text fill="#000000" font-family="sans-serif" font-size="14" lengthAdjust="spacing" textLength="47" x="690.5" y="839.5889">helper</text></g><!--MD5=[5f97cdfbafef6a5cbddfbf6bdd3803d1]
entity gw--><g id="elem_gw"><rect fill="#FFFF00" height="62.5938" rx="2.5" ry="2.5" style="stroke:#181818;stroke-width:0.5;" width="141" x="450.5" y="383.2969"/><rect fill="#FFFF00" height="10" style="stroke:#181818;stroke-width:0.5;" width="15" x="571.5" y="388.2969"/><rect fill="#FFFF00" height="2" style="stroke:#181818;stroke-width:0.5;" width="4" x="569.5" y="390.2969"/><rect fill="#FFFF00" height="2" style="stroke:#181818;stroke-width:0.5;" width="4" x="569.5" y="394.2969"/><text fill="#000000" font-family="sans-serif" font-size="14" font-style="italic" lengthAdjust="spacing" textLength="101" x="465.5" y="416.292">«namespace»</text><text fill="#000000" font-family="sans-serif" font-size="14" lengthAdjust="spacing" textLength="20" x="506" y="432.5889">gw</text></g><!--MD5=[f73e6e01beb5fef5d3e1c08b5afdf415]
entity roudi--><g id="elem_roudi"><rect fill="#FFFF00" height="62.5938" rx="2.5" ry="2.5" style="stroke:#181818;stroke-width:0.5;" width="141" x="252.5" y="383.2969"/><rect fill="#FFFF00" height="10" style="stroke:#181818;stroke-width:0.5;" width="15" x="373.5" y="388.2969"/><rect fill="#FFFF00" height="2" style="stroke:#181818;stroke-width:0.5;" width="4" x="371.5" y="390.2969"/><rect fill="#FFFF00" height="2" style="stroke:#181818;stroke-width:0.5;" width="4" x="371.5" y="394.2969"/><text fill="#000000" font-family="sans-serif" font-size="14" font-style="italic" lengthAdjust="spacing" textLength="101" x="267.5" y="416.292">«namespace»</text><text fill="#000000" font-family="sans-serif" font-size="14" lengthAdjust="spacing" textLength="36" x="300" y="432.5889">roudi</text></g><!--MD5=[caf660ac2a54b55a5c31b5515889e628]
entity config--><g id="elem_config"><rect fill="#FFFF00" height="62.5938" rx="2.5" ry="2.5" style="stroke:#181818;stroke-width:0.5;" width="141" x="54.5" y="383.2969"/><rect fill="#FFFF00" height="10" style="stroke:#181818;stroke-width:0.5;" width="15" x="175.5" y="388.2969"/><rect fill="#FFFF00" height="2" style="stroke:#181818;stroke-width:0.5;" width="4" x="173.5" y="390.2969"/><rect fill="#FFFF00" height="2" style="stroke:#181818;stroke-width:0.5;" width="4" x="173.5" y="394.2969"/><text fill="#000000" font-family="sans-serif" font-size="14" font-style="italic" lengthAdjust="spacing" textLength="101" x="69.5" y="416.292">«namespace»</text><text fill="#000000" font-family="sans-serif" font-size="14" lengthAdjust="spacing" textLength="45" x="97.5" y="432.5889">config</text></g><!--MD5=[4617e0b67180f9dd16cbedc18db55043]
entity dds--><g id="elem_dds"><rect fill="#FFFF00" height="62.5938" rx="2.5" ry="2.5" style="stroke:#181818;stroke-width:0.5;" width="141" x="976.5" y="137.2969"/><rect fill="#FFFF00" height="10" style="stroke:#181818;stroke-width:0.5;" width="15" x="1097.5" y="142.2969"/><rect fill="#FFFF00" height="2" style="stroke:#181818;stroke-width:0.5;" width="4" x="1095.5" y="144.2969"/><rect fill="#FFFF00" height="2" style="stroke:#181818;stroke-width:0.5;" width="4" x="1095.5" y="148.2969"/><text fill="#000000" font-family="sans-serif" font-size="14" font-style="italic" lengthAdjust="spacing" textLength="101" x="991.5" y="170.292">«namespace»</text><text fill="#000000" font-family="sans-serif" font-size="14" lengthAdjust="spacing" textLength="25" x="1029.5" y="186.5889">dds</text></g><!--MD5=[b74312c72fa74392e6ee98a94ff43660]
entity gateway_dds--><g id="elem_gateway_dds"><rect fill="#FFFF00" height="62.5938" rx="2.5" ry="2.5" style="stroke:#181818;stroke-width:0.5;" width="141" x="800.5" y="137.2969"/><rect fill="#FFFF00" height="10" style="stroke:#181818;stroke-width:0.5;" width="15" x="921.5" y="142.2969"/><rect fill="#FFFF00" height="2" style="stroke:#181818;stroke-width:0.5;" width="4" x="919.5" y="144.2969"/><rect fill="#FFFF00" height="2" style="stroke:#181818;stroke-width:0.5;" width="4" x="919.5" y="148.2969"/><text fill="#000000" font-family="sans-serif" font-size="14" font-style="italic" lengthAdjust="spacing" textLength="101" x="815.5" y="170.292">«namespace»</text><text fill="#000000" font-family="sans-serif" font-size="14" lengthAdjust="spacing" textLength="20" x="856" y="186.5889">gw</text></g><!--MD5=[fc4286d0b2a052e711aae933c9ad3727]
entity cpp2c--><g id="elem_cpp2c"><rect fill="#FFFF00" height="62.5938" rx="2.5" ry="2.5" style="stroke:#181818;stroke-width:0.5;" width="141" x="1401.5" y="137.2969"/><rect fill="#FFFF00" height="10" style="stroke:#181818;stroke-width:0.5;" width="15" x="1522.5" y="142.2969"/><rect fill="#FFFF00" height="2" style="stroke:#181818;stroke-width:0.5;" width="4" x="1520.5" y="144.2969"/><rect fill="#FFFF00" height="2" style="stroke:#181818;stroke-width:0.5;" width="4" x="1520.5" y="148.2969"/><text fill="#000000" font-family="sans-serif" font-size="14" font-style="italic" lengthAdjust="spacing" textLength="101" x="1416.5" y="170.292">«namespace»</text><text fill="#000000" font-family="sans-serif" font-size="14" lengthAdjust="spacing" textLength="44" x="1445" y="186.5889">cpp2c</text></g><!--MD5=[e16426ebbb4af2a750e421465750c76a]
entity c2cpp--><g id="elem_c2cpp"><rect fill="#FFFF00" height="62.5938" rx="2.5" ry="2.5" style="stroke:#181818;stroke-width:0.5;" width="141" x="1225.5" y="137.2969"/><rect fill="#FFFF00" height="10" style="stroke:#181818;stroke-width:0.5;" width="15" x="1346.5" y="142.2969"/><rect fill="#FFFF00" height="2" style="stroke:#181818;stroke-width:0.5;" width="4" x="1344.5" y="144.2969"/><rect fill="#FFFF00" height="2" style="stroke:#181818;stroke-width:0.5;" width="4" x="1344.5" y="148.2969"/><text fill="#000000" font-family="sans-serif" font-size="14" font-style="italic" lengthAdjust="spacing" textLength="101" x="1240.5" y="170.292">«namespace»</text><text fill="#000000" font-family="sans-serif" font-size="14" lengthAdjust="spacing" textLength="44" x="1269" y="186.5889">c2cpp</text></g><!--MD5=[38dbeb4b243ea6dae1c7e5b7ff87398b]
entity introspection--><g id="elem_introspection"><rect fill="#FFFF00" height="62.5938" rx="2.5" ry="2.5" style="stroke:#181818;stroke-width:0.5;" width="141" x="1639.5" y="137.2969"/><rect fill="#FFFF00" height="10" style="stroke:#181818;stroke-width:0.5;" width="15" x="1760.5" y="142.2969"/><rect fill="#FFFF00" height="2" style="stroke:#181818;stroke-width:0.5;" width="4" x="1758.5" y="144.2969"/><rect fill="#FFFF00" height="2" style="stroke:#181818;stroke-width:0.5;" width="4" x="1758.5" y="148.2969"/><text fill="#000000" font-family="sans-serif" font-size="14" font-style="italic" lengthAdjust="spacing" textLength="101" x="1654.5" y="170.292">«namespace»</text><text fill="#000000" font-family="sans-serif" font-size="14" lengthAdjust="spacing" textLength="98" x="1656" y="186.5889">introspection</text></g><!--MD5=[c6bc123b88581d7893511edbb3afda00]
link iceoryx_posh to iceoryx_hoofs--><g id="link_iceoryx_posh_iceoryx_hoofs"><path d="M1198.0369,455.8495 C1198.3498,457.4085 1198.6696,459.002 1198.9959,460.628 C1204.2175,486.6443 1211.1087,520.9776 1218,555.3098 C1224.8913,589.6419 1231.7825,623.9731 1237.0041,649.9853 C1237.3304,651.611 1237.6502,653.2043 1237.9631,654.763 " fill="none" id="iceoryx_posh-to-iceoryx_hoofs" style="stroke:#181818;stroke-width:1.0;stroke-dasharray:7.0,7.0;"/><polygon fill="#181818" points="1237.9631,654.763,1240.1136,645.1518,1236.9791,649.8608,1232.2701,646.7263,1237.9631,654.763" style="stroke:#181818;stroke-width:1.0;"/><text fill="#000000" font-family="sans-serif" font-size="13" lengthAdjust="spacing" textLength="23" x="1207" y="491.3638">use</text></g><!--MD5=[923ab2d2a35521c01aa04bd91104d3ef]
link iceoryx_dds to iceoryx_posh--><g id="link_iceoryx_dds_iceoryx_posh"><path d="M769.0232,224.6346 C769.1103,224.8927 769.1987,225.1504 769.2885,225.4075 C769.4682,225.9217 769.6534,226.4337 769.8443,226.9433 C772.8988,235.097 777.4108,242.6256 784,248.2969 C847.237,302.7239 1094.78,226.8539 1158,281.2969 C1160.8244,283.729 1163.4223,286.3634 1165.8111,289.166 C1167.0054,290.5672 1168.1475,292.0106 1169.2394,293.4917 C1169.7853,294.2322 1170.3187,294.9822 1170.8399,295.7411 C1171.1004,296.1206 1171.3579,296.5023 1171.6124,296.8861 " fill="none" id="iceoryx_dds-to-iceoryx_posh" style="stroke:#181818;stroke-width:1.0;stroke-dasharray:7.0,7.0;"/><polygon fill="#181818" points="1171.6124,296.8861,1169.9734,287.1746,1168.8497,292.7187,1163.3056,291.5949,1171.6124,296.8861" style="stroke:#181818;stroke-width:1.0;"/><text fill="#000000" font-family="sans-serif" font-size="13" lengthAdjust="spacing" textLength="23" x="1146" y="269.3638">use</text></g><!--MD5=[ef085833380be4e9d63cc0e4596daa95]
link iceoryx_binding_c to iceoryx_posh--><g id="link_iceoryx_binding_c_iceoryx_posh"><path d="M1190,224.903 C1190,225.7026 1190,226.5077 1190,227.3182 C1190,233.8019 1190,240.6265 1190,247.6784 C1190,261.7822 1190,276.7951 1190,291.8078 C1190,292.746 1190,293.6843 1190,294.6224 C1190,295.0914 1190,295.5604 1190,296.0293 C1190,296.2638 1190,296.4982 1190,296.7326 " fill="none" id="iceoryx_binding_c-to-iceoryx_posh" style="stroke:#181818;stroke-width:1.0;stroke-dasharray:7.0,7.0;"/><polygon fill="#181818" points="1190,296.7326,1194,287.7326,1190,291.7326,1186,287.7326,1190,296.7326" style="stroke:#181818;stroke-width:1.0;"/><text fill="#000000" font-family="sans-serif" font-size="13" lengthAdjust="spacing" textLength="23" x="1191" y="269.3638">use</text></g><!--MD5=[4b8aab564a453d286cf375876300a066]
link introspection to iceoryx_posh--><g id="link_introspection_iceoryx_posh"><path d="M1653.03,200.4029 C1624.92,215.2519 1590.39,233.1159 1559,248.2969 C1479.36,286.8174 1388.725,327.5114 1317.2113,358.9078 C1281.4544,374.6059 1250.4778,387.9797 1228.0461,397.5952 C1216.8302,402.4029 1207.7506,406.2711 1201.2777,409.0205 C1200.4686,409.3641 1199.7002,409.6903 1198.9735,409.9987 C1198.7918,410.0758 1198.6127,410.1517 1198.4363,410.2266 " fill="none" id="introspection-to-iceoryx_posh" style="stroke:#181818;stroke-width:1.0;stroke-dasharray:7.0,7.0;"/><polygon fill="#181818" points="1198.4363,410.2266,1208.2837,410.3943,1203.0393,408.274,1205.1596,403.0296,1198.4363,410.2266" style="stroke:#181818;stroke-width:1.0;"/><text fill="#000000" font-family="sans-serif" font-size="13" lengthAdjust="spacing" textLength="23" x="1541" y="269.3638">use</text></g><!--MD5=[6ee88ec5bb08a8f80fef382bcd89ab2a]
link concurrent to DesignPattern--></g></svg>