<?xml version="1.0" encoding="UTF-8" standalone="no"?><svg xmlns="http://www.w3.org/2000/svg" xmlns:xlink="http://www.w3.org/1999/xlink" contentScriptType="application/ecmascript" contentStyleType="text/css" height="559px" preserveAspectRatio="none" style="width:328px;height:559px;background:#EEEBDC;" version="1.1" viewBox="0 0 328 559" width="328px" zoomAndPan="magnify"><defs><filter height="300%" id="fc33ht4i20xza" width="300%" x="-1" y="-1"><feGaussianBlur result="blurOut" stdDeviation="2.0"/><feColorMatrix in="blurOut" result="blurOut2" type="matrix" values="0 0 0 0 0 0 0 0 0 0 0 0 0 0 0 0 0 0 .4 0"/><feOffset dx="4.0" dy="4.0" in="blurOut2" result="blurOut3"/><feBlend in="SourceGraphic" in2="blurOut3" mode="normal"/></filter></defs><g><rect fill="#FFFFFF" filter="url(#fc33ht4i20xza)" height="394.3594" style="stroke:#A80036;stroke-width:1.0;" width="10" x="96" y="87.7266"/><rect fill="#FFFFFF" filter="url(#fc33ht4i20xza)" height="223.9609" style="stroke:#A80036;stroke-width:1.0;" width="10" x="101" y="124.8594"/><rect fill="#FFFFFF" filter="url(#fc33ht4i20xza)" height="154.8281" style="stroke:#A80036;stroke-width:1.0;" width="10" x="106" y="166.9922"/><rect fill="#FFFFFF" filter="url(#fc33ht4i20xza)" height="83.1328" style="stroke:#A80036;stroke-width:1.0;" width="10" x="236" y="384.9531"/><rect fill="#FFFFFF" filter="url(#fc33ht4i20xza)" height="25" style="stroke:#A80036;stroke-width:1.0;" width="10" x="241" y="422.0859"/><line style="stroke:#A80036;stroke-width:1.0;stroke-dasharray:5.0,5.0;" x1="30" x2="30" y1="56.5938" y2="500.0859"/><line style="stroke:#A80036;stroke-width:1.0;stroke-dasharray:5.0,5.0;" x1="101" x2="101" y1="56.5938" y2="500.0859"/><line style="stroke:#A80036;stroke-width:1.0;stroke-dasharray:5.0,5.0;" x1="240.5" x2="240.5" y1="212.6406" y2="500.0859"/><rect fill="#FEFECE" filter="url(#fc33ht4i20xza)" height="30.2969" style="stroke:#A80036;stroke-width:1.5;" width="46" x="5" y="21.2969"/><text fill="#000000" font-family="sans-serif" font-size="14" lengthAdjust="spacing" textLength="32" x="12" y="41.292">User</text><rect fill="#FEFECE" filter="url(#fc33ht4i20xza)" height="30.2969" style="stroke:#A80036;stroke-width:1.5;" width="46" x="5" y="499.0859"/><text fill="#000000" font-family="sans-serif" font-size="14" lengthAdjust="spacing" textLength="32" x="12" y="519.0811">User</text><rect fill="#FEFECE" filter="url(#fc33ht4i20xza)" height="46.5938" style="stroke:#A80036;stroke-width:1.5;" width="68" x="65" y="5"/><text fill="#000000" font-family="sans-serif" font-size="14" font-style="italic" lengthAdjust="spacing" textLength="54" x="72" y="24.9951">«static»</text><text fill="#000000" font-family="sans-serif" font-size="14" lengthAdjust="spacing" textLength="48" x="75" y="41.292">Logger</text><rect fill="#FEFECE" filter="url(#fc33ht4i20xza)" height="46.5938" style="stroke:#A80036;stroke-width:1.5;" width="68" x="65" y="499.0859"/><text fill="#000000" font-family="sans-serif" font-size="14" font-style="italic" lengthAdjust="spacing" textLength="54" x="72" y="519.0811">«static»</text><text fill="#000000" font-family="sans-serif" font-size="14" lengthAdjust="spacing" textLength="48" x="75" y="535.3779">Logger</text><rect fill="#FEFECE" filter="url(#fc33ht4i20xza)" height="30.2969" style="stroke:#A80036;stroke-width:1.5;" width="119" x="179.5" y="499.0859"/><text fill="#000000" font-family="sans-serif" font-size="14" lengthAdjust="spacing" textLength="105" x="186.5" y="519.0811">logger : Logger</text><rect fill="#FFFFFF" filter="url(#fc33ht4i20xza)" height="394.3594" style="stroke:#A80036;stroke-width:1.0;" width="10" x="96" y="87.7266"/><rect fill="#FFFFFF" filter="url(#fc33ht4i20xza)" height="223.9609" style="stroke:#A80036;stroke-width:1.0;" width="10" x="101" y="124.8594"/><rect fill="#FFFFFF" filter="url(#fc33ht4i20xza)" height="154.8281" style="stroke:#A80036;stroke-width:1.0;" width="10" x="106" y="166.9922"/><rect fill="#FFFFFF" filter="url(#fc33ht4i20xza)" height="83.1328" style="stroke:#A80036;stroke-width:1.0;" width="10" x="236" y="384.9531"/><rect fill="#FFFFFF" filter="url(#fc33ht4i20xza)" height="25" style="stroke:#A80036;stroke-width:1.0;" width="10" x="241" y="422.0859"/><polygon fill="#A80036" points="84,83.7266,94,87.7266,84,91.7266,88,87.7266" style="stroke:#A80036;stroke-width:1.0;"/><line style="stroke:#A80036;stroke-width:1.0;" x1="30" x2="90" y1="87.7266" y2="87.7266"/><text fill="#000000" font-family="sans-serif" font-size="13" lengthAdjust="spacing" textLength="19" x="37" y="82.6606">init</text><line style="stroke:#A80036;stroke-width:1.0;" x1="106" x2="153" y1="111.8594" y2="111.8594"/><line style="stroke:#A80036;stroke-width:1.0;" x1="153" x2="153" y1="111.8594" y2="124.8594"/><line style="stroke:#A80036;stroke-width:1.0;" x1="112" x2="153" y1="124.8594" y2="124.8594"/><polygon fill="#A80036" points="122,120.8594,112,124.8594,122,128.8594,118,124.8594" style="stroke:#A80036;stroke-width:1.0;"/><text fill="#000000" font-family="sans-serif" font-size="13" lengthAdjust="spacing" textLength="21" x="118" y="106.7935">get</text><line style="stroke:#A80036;stroke-width:1.0;" x1="111" x2="158" y1="153.9922" y2="153.9922"/><line style="stroke:#A80036;stroke-width:1.0;" x1="158" x2="158" y1="153.9922" y2="166.9922"/><line style="stroke:#A80036;stroke-width:1.0;" x1="117" x2="158" y1="166.9922" y2="166.9922"/><polygon fill="#A80036" points="127,162.9922,117,166.9922,127,170.9922,123,166.9922" style="stroke:#A80036;stroke-width:1.0;"/><text fill="#000000" font-family="sans-serif" font-size="13" lengthAdjust="spacing" textLength="82" x="123" y="148.9263">activeLogger</text><polygon fill="#A80036" points="167.5,181.9922,177.5,185.9922,167.5,189.9922,171.5,185.9922" style="stroke:#A80036;stroke-width:1.0;"/><line style="stroke:#A80036;stroke-width:1.0;" x1="116" x2="173.5" y1="185.9922" y2="185.9922"/><rect fill="#FEFECE" filter="url(#fc33ht4i20xza)" height="30.2969" style="stroke:#A80036;stroke-width:1.5;" width="119" x="179.5" y="179.9922"/><text fill="#000000" font-family="sans-serif" font-size="14" lengthAdjust="spacing" textLength="105" x="186.5" y="199.9873">logger : Logger</text><path d="M172,230.2891 L172,300.2891 L306,300.2891 L306,240.2891 L296,230.2891 L172,230.2891 " fill="#FBFB77" filter="url(#fc33ht4i20xza)" style="stroke:#A80036;stroke-width:1.0;"/><path d="M296,230.2891 L296,240.2891 L306,240.2891 L296,230.2891 " fill="#FBFB77" style="stroke:#A80036;stroke-width:1.0;"/><text fill="#000000" font-family="sans-serif" font-size="13" lengthAdjust="spacing" textLength="113" x="178" y="247.356">the default logger</text><text fill="#000000" font-family="sans-serif" font-size="13" lengthAdjust="spacing" textLength="103" x="178" y="262.4888">is configured via</text><text fill="#000000" font-family="sans-serif" font-size="13" lengthAdjust="spacing" textLength="69" x="178" y="277.6216">the alias in</text><text fill="#000000" font-family="sans-serif" font-size="13" lengthAdjust="spacing" textLength="90" x="178" y="292.7544">iox/logger.hpp</text><line style="stroke:#A80036;stroke-width:1.0;stroke-dasharray:2.0,2.0;" x1="116" x2="158" y1="320.8203" y2="320.8203"/><line style="stroke:#A80036;stroke-width:1.0;stroke-dasharray:2.0,2.0;" x1="158" x2="158" y1="320.8203" y2="333.8203"/><line style="stroke:#A80036;stroke-width:1.0;stroke-dasharray:2.0,2.0;" x1="111" x2="158" y1="333.8203" y2="333.8203"/><polygon fill="#A80036" points="121,329.8203,111,333.8203,121,337.8203,117,333.8203" style="stroke:#A80036;stroke-width:1.0;"/><line style="stroke:#A80036;stroke-width:1.0;stroke-dasharray:2.0,2.0;" x1="111" x2="153" y1="347.8203" y2="347.8203"/><line style="stroke:#A80036;stroke-width:1.0;stroke-dasharray:2.0,2.0;" x1="153" x2="153" y1="347.8203" y2="360.8203"/><line style="stroke:#A80036;stroke-width:1.0;stroke-dasharray:2.0,2.0;" x1="106" x2="153" y1="360.8203" y2="360.8203"/><polygon fill="#A80036" points="116,356.8203,106,360.8203,116,364.8203,112,360.8203" style="stroke:#A80036;stroke-width:1.0;"/><polygon fill="#A80036" points="224,380.9531,234,384.9531,224,388.9531,228,384.9531" style="stroke:#A80036;stroke-width:1.0;"/><line style="stroke:#A80036;stroke-width:1.0;" x1="106" x2="230" y1="384.9531" y2="384.9531"/><text fill="#000000" font-family="sans-serif" font-size="13" lengthAdjust="spacing" textLength="111" x="113" y="379.8872">initLoggerInternal</text><line style="stroke:#A80036;stroke-width:1.0;" x1="246" x2="293" y1="409.0859" y2="409.0859"/><line style="stroke:#A80036;stroke-width:1.0;" x1="293" x2="293" y1="409.0859" y2="422.0859"/><line style="stroke:#A80036;stroke-width:1.0;" x1="252" x2="293" y1="422.0859" y2="422.0859"/><polygon fill="#A80036" points="262,418.0859,252,422.0859,262,426.0859,258,422.0859" style="stroke:#A80036;stroke-width:1.0;"/><text fill="#000000" font-family="sans-serif" font-size="13" lengthAdjust="spacing" textLength="63" x="258" y="404.02">initLogger</text><line style="stroke:#A80036;stroke-width:1.0;stroke-dasharray:2.0,2.0;" x1="251" x2="293" y1="446.0859" y2="446.0859"/><line style="stroke:#A80036;stroke-width:1.0;stroke-dasharray:2.0,2.0;" x1="293" x2="293" y1="446.0859" y2="459.0859"/><line style="stroke:#A80036;stroke-width:1.0;stroke-dasharray:2.0,2.0;" x1="246" x2="293" y1="459.0859" y2="459.0859"/><polygon fill="#A80036" points="256,455.0859,246,459.0859,256,463.0859,252,459.0859" style="stroke:#A80036;stroke-width:1.0;"/><polygon fill="#A80036" points="117,464.0859,107,468.0859,117,472.0859,113,468.0859" style="stroke:#A80036;stroke-width:1.0;"/><line style="stroke:#A80036;stroke-width:1.0;stroke-dasharray:2.0,2.0;" x1="111" x2="240" y1="468.0859" y2="468.0859"/><polygon fill="#A80036" points="41,478.0859,31,482.0859,41,486.0859,37,482.0859" style="stroke:#A80036;stroke-width:1.0;"/><line style="stroke:#A80036;stroke-width:1.0;stroke-dasharray:2.0,2.0;" x1="35" x2="100" y1="482.0859" y2="482.0859"/></g></svg>