<?xml version="1.0" encoding="UTF-8" standalone="no"?><svg xmlns="http://www.w3.org/2000/svg" xmlns:xlink="http://www.w3.org/1999/xlink" contentScriptType="application/ecmascript" contentStyleType="text/css" height="1181px" preserveAspectRatio="none" style="width:825px;height:1181px;background:#EEEBDC;" version="1.1" viewBox="0 0 825 1181" width="825px" zoomAndPan="magnify"><defs><filter height="300%" id="fjoyfh9i5895j" width="300%" x="-1" y="-1"><feGaussianBlur result="blurOut" stdDeviation="2.0"/><feColorMatrix in="blurOut" result="blurOut2" type="matrix" values="0 0 0 0 0 0 0 0 0 0 0 0 0 0 0 0 0 0 .4 0"/><feOffset dx="4.0" dy="4.0" in="blurOut2" result="blurOut3"/><feBlend in="SourceGraphic" in2="blurOut3" mode="normal"/></filter></defs><g><!--MD5=[fb392f40112ea3e9bc005b9c7a6e8f0e]
cluster platform_building_blocks--><polygon fill="#EEEBDC" filter="url(#fjoyfh9i5895j)" points="16,268.602,197,268.602,204,293.6699,659,293.6699,659,879.602,16,879.602,16,268.602" style="stroke:#000000;stroke-width:1.5;"/><line style="stroke:#000000;stroke-width:1.5;" x1="16" x2="204" y1="293.6699" y2="293.6699"/><text fill="#000000" font-family="sans-serif" font-size="14" font-weight="bold" lengthAdjust="spacing" textLength="175" x="20" y="285.5679">platform_building_blocks</text><!--MD5=[e7e221a7d8b4ea69412a441310905dd6]
cluster iceoryx_hoofs_testing--><polygon fill="#EEEBDC" filter="url(#fjoyfh9i5895j)" points="142,6.602,298,6.602,305,31.6699,416,31.6699,416,235.602,142,235.602,142,6.602" style="stroke:#000000;stroke-width:1.5;"/><line style="stroke:#000000;stroke-width:1.5;" x1="142" x2="305" y1="31.6699" y2="31.6699"/><text fill="#000000" font-family="sans-serif" font-size="14" font-weight="bold" lengthAdjust="spacing" textLength="150" x="146" y="23.5679">iceoryx_hoofs_testing</text><!--MD5=[415eaaaa2a07b50c6508c9baea7f95bd]
cluster iceoryx_hoofs--><polygon fill="#EEEBDC" filter="url(#fjoyfh9i5895j)" points="36,930.602,137,930.602,144,955.6699,808,955.6699,808,1174.602,36,1174.602,36,930.602" style="stroke:#000000;stroke-width:1.5;"/><line style="stroke:#000000;stroke-width:1.5;" x1="36" x2="144" y1="955.6699" y2="955.6699"/><text fill="#000000" font-family="sans-serif" font-size="14" font-weight="bold" lengthAdjust="spacing" textLength="95" x="40" y="947.5679">iceoryx_hoofs</text><!--MD5=[fde78261c83df273810042a88c770c4d]
class LogLevel--><rect codeLine="4" fill="#FEFECE" filter="url(#fjoyfh9i5895j)" height="152.8732" id="LogLevel" style="stroke:#A80036;stroke-width:1.5;" width="81" x="561.5" y="403.602"/><ellipse cx="576.5" cy="419.602" fill="#EB937F" rx="11" ry="11" style="stroke:#A80036;stroke-width:1.0;"/><path d="M572.8906,413.7114 L580.6094,413.7114 L580.6094,415.8676 L575.3438,415.8676 L575.3438,418.5395 L580.1094,418.5395 L580.1094,420.6957 L575.3438,420.6957 L575.3438,423.9457 L580.6094,423.9457 L580.6094,426.102 L572.8906,426.102 L572.8906,413.7114 Z " fill="#000000"/><text fill="#000000" font-family="sans-serif" font-size="12" lengthAdjust="spacing" textLength="49" x="590.5" y="424.258">LogLevel</text><line style="stroke:#A80036;stroke-width:1.5;" x1="562.5" x2="641.5" y1="435.602" y2="435.602"/><text fill="#000000" font-family="sans-serif" font-size="11" lengthAdjust="spacing" textLength="42" x="567.5" y="451.3609">OFF = 0,</text><text fill="#000000" font-family="sans-serif" font-size="11" lengthAdjust="spacing" textLength="35" x="567.5" y="466.3428">FATAL,</text><text fill="#000000" font-family="sans-serif" font-size="11" lengthAdjust="spacing" textLength="39" x="567.5" y="481.3247">ERROR,</text><text fill="#000000" font-family="sans-serif" font-size="11" lengthAdjust="spacing" textLength="35" x="567.5" y="496.3066">WARN,</text><text fill="#000000" font-family="sans-serif" font-size="11" lengthAdjust="spacing" textLength="30" x="567.5" y="511.2884">INFO,</text><text fill="#000000" font-family="sans-serif" font-size="11" lengthAdjust="spacing" textLength="40" x="567.5" y="526.2703">DEBUG,</text><text fill="#000000" font-family="sans-serif" font-size="11" lengthAdjust="spacing" textLength="36" x="567.5" y="541.2522">TRACE,</text><line style="stroke:#A80036;stroke-width:1.5;" x1="562.5" x2="641.5" y1="548.4752" y2="548.4752"/><!--MD5=[248f897e4bb16c2722904b15df30346f]
class Logger--><rect codeLine="14" fill="#FEFECE" filter="url(#fjoyfh9i5895j)" height="152.8732" id="Logger" style="stroke:#A80036;stroke-width:1.5;" width="398" x="80" y="710.602"/><ellipse cx="240.75" cy="726.602" fill="#ADD1B2" rx="11" ry="11" style="stroke:#A80036;stroke-width:1.0;"/><path d="M240.5469,733.3364 Q238.0625,733.3364 236.7344,731.6957 Q235.4219,730.0239 235.4219,726.9145 Q235.4219,723.7895 236.7344,722.1332 Q238.0625,720.477 240.5469,720.477 Q241.2656,720.477 241.9219,720.6332 Q242.5625,720.7895 243.125,721.0864 L243.125,723.8051 Q242.7656,723.4614 242.4688,723.2739 Q242.1719,723.0707 241.9063,722.9457 Q241.5938,722.8051 241.2813,722.7426 Q240.9844,722.6801 240.6719,722.6801 Q239.3438,722.6801 238.6563,723.7426 Q237.9688,724.8364 237.9688,726.9145 Q237.9688,729.0082 238.6563,730.0707 Q239.3438,731.1489 240.6719,731.1489 Q241.3125,731.1489 241.9063,730.8676 Q242.2031,730.7426 242.4844,730.5551 Q242.7813,730.352 243.125,730.0239 L243.125,732.7426 Q242.5469,733.0395 241.9063,733.1957 Q241.2813,733.3364 240.5469,733.3364 Z " fill="#000000"/><text fill="#000000" font-family="sans-serif" font-size="12" lengthAdjust="spacing" textLength="39" x="261.25" y="731.258">Logger</text><rect fill="#EEEBDC" height="18.3441" style="stroke:#000000;stroke-width:1.0;stroke-dasharray:2.0,2.0;" width="27" x="454" y="707.602"/><text fill="#000000" font-family="sans-serif" font-size="12" font-style="italic" lengthAdjust="spacing" textLength="25" x="455" y="721.4301">Impl</text><line style="stroke:#A80036;stroke-width:1.5;" x1="81" x2="477" y1="742.602" y2="742.602"/><line style="stroke:#A80036;stroke-width:1.5;" x1="81" x2="477" y1="750.602" y2="750.602"/><ellipse cx="91" cy="761.602" fill="#84BE84" rx="3" ry="3" style="stroke:#038048;stroke-width:1.0;"/><text fill="#000000" font-family="sans-serif" font-size="11" lengthAdjust="spacing" text-decoration="underline" textLength="372" x="100" y="766.3609">void init(constLogLevel logLevel = LogLevelFromEnvOr(LogLevel::Info))</text><ellipse cx="91" cy="776.5839" fill="#84BE84" rx="3" ry="3" style="stroke:#038048;stroke-width:1.0;"/><text fill="#000000" font-family="sans-serif" font-size="11" lengthAdjust="spacing" text-decoration="underline" textLength="72" x="100" y="781.3428">Logger&amp; get()</text><ellipse cx="91" cy="791.5658" fill="#84BE84" rx="3" ry="3" style="stroke:#038048;stroke-width:1.0;"/><text fill="#000000" font-family="sans-serif" font-size="11" lengthAdjust="spacing" text-decoration="underline" textLength="145" x="100" y="796.3247">LogLevel minimalLogLevel()</text><ellipse cx="91" cy="806.5476" fill="#84BE84" rx="3" ry="3" style="stroke:#038048;stroke-width:1.0;"/><text fill="#000000" font-family="sans-serif" font-size="11" lengthAdjust="spacing" text-decoration="underline" textLength="115" x="100" y="811.3066">bool ignoreLogLevel()</text><ellipse cx="91" cy="821.5295" fill="#84BE84" rx="3" ry="3" style="stroke:#038048;stroke-width:1.0;"/><text fill="#000000" font-family="sans-serif" font-size="11" lengthAdjust="spacing" text-decoration="underline" textLength="244" x="100" y="826.2884">Logger* setActiveLogger(Logger* newLogger)</text><rect fill="#F24D5C" height="6" style="stroke:#C82930;stroke-width:1.0;" width="6" x="88" y="833.5114"/><text fill="#000000" font-family="sans-serif" font-size="11" lengthAdjust="spacing" textLength="223" x="100" y="841.2703">void initLoggerInternal(LogLevel logLevel)</text><rect fill="#F24D5C" height="6" style="stroke:#C82930;stroke-width:1.0;" width="6" x="88" y="848.4933"/><text fill="#000000" font-family="sans-serif" font-size="11" lengthAdjust="spacing" text-decoration="underline" textLength="294" x="100" y="856.2522">Logger* activeLogger&lt;T&gt;(Logger* newLogger = nullptr)</text><!--MD5=[ef6e0fb57396685d3eab884a2ccd12ec]
class ConsoleLogger--><rect codeLine="24" fill="#FEFECE" filter="url(#fjoyfh9i5895j)" height="302.6921" id="ConsoleLogger" style="stroke:#A80036;stroke-width:1.5;" width="494" x="32" y="328.602"/><ellipse cx="232.75" cy="344.602" fill="#ADD1B2" rx="11" ry="11" style="stroke:#A80036;stroke-width:1.0;"/><path d="M232.5469,351.3364 Q230.0625,351.3364 228.7344,349.6957 Q227.4219,348.0239 227.4219,344.9145 Q227.4219,341.7895 228.7344,340.1332 Q230.0625,338.477 232.5469,338.477 Q233.2656,338.477 233.9219,338.6332 Q234.5625,338.7895 235.125,339.0864 L235.125,341.8051 Q234.7656,341.4614 234.4688,341.2739 Q234.1719,341.0707 233.9063,340.9457 Q233.5938,340.8051 233.2813,340.7426 Q232.9844,340.6801 232.6719,340.6801 Q231.3438,340.6801 230.6563,341.7426 Q229.9688,342.8364 229.9688,344.9145 Q229.9688,347.0082 230.6563,348.0707 Q231.3438,349.1489 232.6719,349.1489 Q233.3125,349.1489 233.9063,348.8676 Q234.2031,348.7426 234.4844,348.5551 Q234.7813,348.352 235.125,348.0239 L235.125,350.7426 Q234.5469,351.0395 233.9063,351.1957 Q233.2813,351.3364 232.5469,351.3364 Z " fill="#000000"/><text fill="#000000" font-family="sans-serif" font-size="12" lengthAdjust="spacing" textLength="84" x="253.25" y="349.258">ConsoleLogger</text><line style="stroke:#A80036;stroke-width:1.5;" x1="33" x2="525" y1="360.602" y2="360.602"/><line style="stroke:#A80036;stroke-width:1.5;" x1="33" x2="525" y1="368.602" y2="368.602"/><ellipse cx="43" cy="379.602" fill="#84BE84" rx="3" ry="3" style="stroke:#038048;stroke-width:1.0;"/><text fill="#000000" font-family="sans-serif" font-size="11" lengthAdjust="spacing" text-decoration="underline" textLength="120" x="52" y="384.3609">LogLevel getLogLevel()</text><ellipse cx="43" cy="394.5839" fill="#84BE84" rx="3" ry="3" style="stroke:#038048;stroke-width:1.0;"/><text fill="#000000" font-family="sans-serif" font-size="11" lengthAdjust="spacing" textLength="188" x="52" y="399.3428">void setLogLevel(LogLevel logLevel)</text><polygon fill="#FFFF44" points="43,404.5658,47,408.5658,43,412.5658,39,408.5658" style="stroke:#B38D22;stroke-width:1.0;"/><text fill="#000000" font-family="sans-serif" font-size="11" lengthAdjust="spacing" textLength="86" x="52" y="414.3247">ConsoleLogger()</text><polygon fill="#FFFF44" points="43,419.5476,47,423.5476,43,427.5476,39,423.5476" style="stroke:#B38D22;stroke-width:1.0;"/><text fill="#000000" font-family="sans-serif" font-size="11" font-style="italic" lengthAdjust="spacing" textLength="158" x="52" y="429.3066">void initLogger(LogLevel logLevel)</text><polygon fill="#FFFF44" points="43,434.5295,47,438.5295,43,442.5295,39,438.5295" style="stroke:#B38D22;stroke-width:1.0;"/><text fill="#000000" font-family="sans-serif" font-size="11" font-style="italic" lengthAdjust="spacing" textLength="468" x="52" y="444.2884">void setupNewLogMessage(const char* file, const int line, const char* function, LogLevel logLevel)</text><polygon fill="#FFFF44" points="43,449.5114,47,453.5114,43,457.5114,39,453.5114" style="stroke:#B38D22;stroke-width:1.0;"/><text fill="#000000" font-family="sans-serif" font-size="11" font-style="italic" lengthAdjust="spacing" textLength="53" x="52" y="459.2703">void flush()</text><polygon fill="#FFFF44" points="43,464.4933,47,468.4933,43,472.4933,39,468.4933" style="stroke:#B38D22;stroke-width:1.0;"/><text fill="#000000" font-family="sans-serif" font-size="11" lengthAdjust="spacing" textLength="279" x="52" y="474.2522">std::tuple&lt;const char*, uint64_t&gt; getLogBuffer() const</text><polygon fill="#FFFF44" points="43,479.4752,47,483.4752,43,487.4752,39,483.4752" style="stroke:#B38D22;stroke-width:1.0;"/><text fill="#000000" font-family="sans-serif" font-size="11" lengthAdjust="spacing" textLength="112" x="52" y="489.2341">void assumeFlushed()</text><polygon fill="#FFFF44" points="43,494.4571,47,498.4571,43,502.4571,39,498.4571" style="stroke:#B38D22;stroke-width:1.0;"/><text fill="#000000" font-family="sans-serif" font-size="11" lengthAdjust="spacing" textLength="192" x="52" y="504.216">void LogString(const char* message)</text><polygon fill="#FFFF44" points="43,509.439,47,513.439,43,517.439,39,513.439" style="stroke:#B38D22;stroke-width:1.0;"/><text fill="#000000" font-family="sans-serif" font-size="11" lengthAdjust="spacing" textLength="181" x="52" y="519.1979">void logI64Dec(const int64_t value)</text><polygon fill="#FFFF44" points="43,524.4209,47,528.4209,43,532.4209,39,528.4209" style="stroke:#B38D22;stroke-width:1.0;"/><text fill="#000000" font-family="sans-serif" font-size="11" lengthAdjust="spacing" textLength="192" x="52" y="534.1798">void logU64Dec(const uint64_t value)</text><polygon fill="#FFFF44" points="43,539.4027,47,543.4027,43,547.4027,39,543.4027" style="stroke:#B38D22;stroke-width:1.0;"/><text fill="#000000" font-family="sans-serif" font-size="11" lengthAdjust="spacing" textLength="193" x="52" y="549.1617">void logU64Hex(const uint64_t value)</text><polygon fill="#FFFF44" points="43,554.3846,47,558.3846,43,562.3846,39,558.3846" style="stroke:#B38D22;stroke-width:1.0;"/><text fill="#000000" font-family="sans-serif" font-size="11" lengthAdjust="spacing" textLength="191" x="52" y="564.1435">void logU64Oct(const uint64_t value)</text><polygon fill="#FFFF44" points="43,569.3665,47,573.3665,43,577.3665,39,573.3665" style="stroke:#B38D22;stroke-width:1.0;"/><text fill="#000000" font-family="sans-serif" font-size="11" lengthAdjust="spacing" textLength="159" x="52" y="579.1254">void logBool(const bool value)</text><polygon fill="#FFFF44" points="43,584.3484,47,588.3484,43,592.3484,39,588.3484" style="stroke:#B38D22;stroke-width:1.0;"/><text fill="#000000" font-family="sans-serif" font-size="11" lengthAdjust="spacing" textLength="161" x="52" y="594.1073">void logFloat(const float value)</text><polygon fill="#FFFF44" points="43,599.3303,47,603.3303,43,607.3303,39,603.3303" style="stroke:#B38D22;stroke-width:1.0;"/><text fill="#000000" font-family="sans-serif" font-size="11" lengthAdjust="spacing" textLength="186" x="52" y="609.0892">void logDouble(const double value)</text><polygon fill="#FFFF44" points="43,614.3122,47,618.3122,43,622.3122,39,618.3122" style="stroke:#B38D22;stroke-width:1.0;"/><text fill="#000000" font-family="sans-serif" font-size="11" lengthAdjust="spacing" textLength="240" x="52" y="624.0711">void logLongDouble(const long double value)</text><!--MD5=[3e060780261fb8a0ee240911acbc75b8]
class TestingLogger--><rect codeLine="48" fill="#FEFECE" filter="url(#fjoyfh9i5895j)" height="152.8732" id="TestingLogger" style="stroke:#A80036;stroke-width:1.5;" width="242" x="158" y="66.602"/><ellipse cx="234.75" cy="82.602" fill="#ADD1B2" rx="11" ry="11" style="stroke:#A80036;stroke-width:1.0;"/><path d="M234.5469,89.3364 Q232.0625,89.3364 230.7344,87.6957 Q229.4219,86.0239 229.4219,82.9145 Q229.4219,79.7895 230.7344,78.1332 Q232.0625,76.477 234.5469,76.477 Q235.2656,76.477 235.9219,76.6332 Q236.5625,76.7895 237.125,77.0864 L237.125,79.8051 Q236.7656,79.4614 236.4688,79.2739 Q236.1719,79.0707 235.9063,78.9457 Q235.5938,78.8051 235.2813,78.7426 Q234.9844,78.6801 234.6719,78.6801 Q233.3438,78.6801 232.6563,79.7426 Q231.9688,80.8364 231.9688,82.9145 Q231.9688,85.0082 232.6563,86.0707 Q233.3438,87.1489 234.6719,87.1489 Q235.3125,87.1489 235.9063,86.8676 Q236.2031,86.7426 236.4844,86.5551 Q236.7813,86.352 237.125,86.0239 L237.125,88.7426 Q236.5469,89.0395 235.9063,89.1957 Q235.2813,89.3364 234.5469,89.3364 Z " fill="#000000"/><text fill="#000000" font-family="sans-serif" font-size="12" lengthAdjust="spacing" textLength="80" x="255.25" y="87.258">TestingLogger</text><line style="stroke:#A80036;stroke-width:1.5;" x1="159" x2="399" y1="98.602" y2="98.602"/><line style="stroke:#A80036;stroke-width:1.5;" x1="159" x2="399" y1="106.602" y2="106.602"/><ellipse cx="169" cy="117.602" fill="#84BE84" rx="3" ry="3" style="stroke:#038048;stroke-width:1.0;"/><text fill="#000000" font-family="sans-serif" font-size="11" lengthAdjust="spacing" text-decoration="underline" textLength="49" x="178" y="122.3609">void init()</text><ellipse cx="169" cy="132.5839" fill="#84BE84" rx="3" ry="3" style="stroke:#038048;stroke-width:1.0;"/><text fill="#000000" font-family="sans-serif" font-size="11" lengthAdjust="spacing" text-decoration="underline" textLength="194" x="178" y="137.3428">uint64_t getNumberOfLogMessages()</text><ellipse cx="169" cy="147.5658" fill="#84BE84" rx="3" ry="3" style="stroke:#038048;stroke-width:1.0;"/><text fill="#000000" font-family="sans-serif" font-size="11" lengthAdjust="spacing" text-decoration="underline" textLength="216" x="178" y="152.3247">std::vector&lt;std::string&gt; getLogMessages()</text><ellipse cx="169" cy="162.5476" fill="#84BE84" rx="3" ry="3" style="stroke:#038048;stroke-width:1.0;"/><text fill="#000000" font-family="sans-serif" font-size="11" lengthAdjust="spacing" textLength="110" x="178" y="167.3066">void clearLogBuffer()</text><ellipse cx="169" cy="177.5295" fill="#84BE84" rx="3" ry="3" style="stroke:#038048;stroke-width:1.0;"/><text fill="#000000" font-family="sans-serif" font-size="11" lengthAdjust="spacing" textLength="111" x="178" y="182.2884">void printLogBuffer()</text><rect fill="#F24D5C" height="6" style="stroke:#C82930;stroke-width:1.0;" width="6" x="166" y="189.5114"/><text fill="#000000" font-family="sans-serif" font-size="11" lengthAdjust="spacing" textLength="108" x="178" y="197.2703">void TestingLogger()</text><rect fill="#F24D5C" height="6" style="stroke:#C82930;stroke-width:1.0;" width="6" x="166" y="204.4933"/><text fill="#000000" font-family="sans-serif" font-size="11" lengthAdjust="spacing" textLength="58" x="178" y="212.2522">void flush()</text><!--MD5=[f140418cf171f2c7428fce2c4800c365]
class LogHex--><rect codeLine="62" fill="#FEFECE" filter="url(#fjoyfh9i5895j)" height="48" id="LogHex" style="stroke:#A80036;stroke-width:1.5;" width="84" x="708" y="1050.602"/><ellipse cx="723" cy="1066.602" fill="#ADD1B2" rx="11" ry="11" style="stroke:#A80036;stroke-width:1.0;"/><path d="M722.7969,1073.3364 Q720.3125,1073.3364 718.9844,1071.6957 Q717.6719,1070.0239 717.6719,1066.9145 Q717.6719,1063.7895 718.9844,1062.1332 Q720.3125,1060.477 722.7969,1060.477 Q723.5156,1060.477 724.1719,1060.6332 Q724.8125,1060.7895 725.375,1061.0864 L725.375,1063.8051 Q725.0156,1063.4614 724.7188,1063.2739 Q724.4219,1063.0707 724.1563,1062.9457 Q723.8438,1062.8051 723.5313,1062.7426 Q723.2344,1062.6801 722.9219,1062.6801 Q721.5938,1062.6801 720.9063,1063.7426 Q720.2188,1064.8364 720.2188,1066.9145 Q720.2188,1069.0082 720.9063,1070.0707 Q721.5938,1071.1489 722.9219,1071.1489 Q723.5625,1071.1489 724.1563,1070.8676 Q724.4531,1070.7426 724.7344,1070.5551 Q725.0313,1070.352 725.375,1070.0239 L725.375,1072.7426 Q724.7969,1073.0395 724.1563,1073.1957 Q723.5313,1073.3364 722.7969,1073.3364 Z " fill="#000000"/><text fill="#000000" font-family="sans-serif" font-size="12" lengthAdjust="spacing" textLength="42" x="737" y="1071.258">LogHex</text><rect fill="#EEEBDC" height="18.3441" style="stroke:#000000;stroke-width:1.0;stroke-dasharray:2.0,2.0;" width="8" x="787" y="1047.602"/><text fill="#000000" font-family="sans-serif" font-size="12" font-style="italic" lengthAdjust="spacing" textLength="6" x="788" y="1061.4301">T</text><line style="stroke:#A80036;stroke-width:1.5;" x1="709" x2="791" y1="1082.602" y2="1082.602"/><line style="stroke:#A80036;stroke-width:1.5;" x1="709" x2="791" y1="1090.602" y2="1090.602"/><!--MD5=[695d6075a3a6e2de02d16b9ff239c01e]
class LogOct--><rect codeLine="64" fill="#FEFECE" filter="url(#fjoyfh9i5895j)" height="48" id="LogOct" style="stroke:#A80036;stroke-width:1.5;" width="81" x="591.5" y="1050.602"/><ellipse cx="606.5" cy="1066.602" fill="#ADD1B2" rx="11" ry="11" style="stroke:#A80036;stroke-width:1.0;"/><path d="M606.2969,1073.3364 Q603.8125,1073.3364 602.4844,1071.6957 Q601.1719,1070.0239 601.1719,1066.9145 Q601.1719,1063.7895 602.4844,1062.1332 Q603.8125,1060.477 606.2969,1060.477 Q607.0156,1060.477 607.6719,1060.6332 Q608.3125,1060.7895 608.875,1061.0864 L608.875,1063.8051 Q608.5156,1063.4614 608.2188,1063.2739 Q607.9219,1063.0707 607.6563,1062.9457 Q607.3438,1062.8051 607.0313,1062.7426 Q606.7344,1062.6801 606.4219,1062.6801 Q605.0938,1062.6801 604.4063,1063.7426 Q603.7188,1064.8364 603.7188,1066.9145 Q603.7188,1069.0082 604.4063,1070.0707 Q605.0938,1071.1489 606.4219,1071.1489 Q607.0625,1071.1489 607.6563,1070.8676 Q607.9531,1070.7426 608.2344,1070.5551 Q608.5313,1070.352 608.875,1070.0239 L608.875,1072.7426 Q608.2969,1073.0395 607.6563,1073.1957 Q607.0313,1073.3364 606.2969,1073.3364 Z " fill="#000000"/><text fill="#000000" font-family="sans-serif" font-size="12" lengthAdjust="spacing" textLength="39" x="620.5" y="1071.258">LogOct</text><rect fill="#EEEBDC" height="18.3441" style="stroke:#000000;stroke-width:1.0;stroke-dasharray:2.0,2.0;" width="8" x="667.5" y="1047.602"/><text fill="#000000" font-family="sans-serif" font-size="12" font-style="italic" lengthAdjust="spacing" textLength="6" x="668.5" y="1061.4301">T</text><line style="stroke:#A80036;stroke-width:1.5;" x1="592.5" x2="671.5" y1="1082.602" y2="1082.602"/><line style="stroke:#A80036;stroke-width:1.5;" x1="592.5" x2="671.5" y1="1090.602" y2="1090.602"/><!--MD5=[5d68a8d24c5e12d346c59c060771c23e]
class LogStream--><rect codeLine="66" fill="#FEFECE" filter="url(#fjoyfh9i5895j)" height="167.8551" id="LogStream" style="stroke:#A80036;stroke-width:1.5;" width="454" x="52" y="990.602"/><ellipse cx="244.25" cy="1006.602" fill="#ADD1B2" rx="11" ry="11" style="stroke:#A80036;stroke-width:1.0;"/><path d="M244.0469,1013.3364 Q241.5625,1013.3364 240.2344,1011.6957 Q238.9219,1010.0239 238.9219,1006.9145 Q238.9219,1003.7895 240.2344,1002.1332 Q241.5625,1000.477 244.0469,1000.477 Q244.7656,1000.477 245.4219,1000.6332 Q246.0625,1000.7895 246.625,1001.0864 L246.625,1003.8051 Q246.2656,1003.4614 245.9688,1003.2739 Q245.6719,1003.0707 245.4063,1002.9457 Q245.0938,1002.8051 244.7813,1002.7426 Q244.4844,1002.6801 244.1719,1002.6801 Q242.8438,1002.6801 242.1563,1003.7426 Q241.4688,1004.8364 241.4688,1006.9145 Q241.4688,1009.0082 242.1563,1010.0707 Q242.8438,1011.1489 244.1719,1011.1489 Q244.8125,1011.1489 245.4063,1010.8676 Q245.7031,1010.7426 245.9844,1010.5551 Q246.2813,1010.352 246.625,1010.0239 L246.625,1012.7426 Q246.0469,1013.0395 245.4063,1013.1957 Q244.7813,1013.3364 244.0469,1013.3364 Z " fill="#000000"/><text fill="#000000" font-family="sans-serif" font-size="12" lengthAdjust="spacing" textLength="61" x="264.75" y="1011.258">LogStream</text><line style="stroke:#A80036;stroke-width:1.5;" x1="53" x2="505" y1="1022.602" y2="1022.602"/><line style="stroke:#A80036;stroke-width:1.5;" x1="53" x2="505" y1="1030.602" y2="1030.602"/><ellipse cx="63" cy="1041.602" fill="#84BE84" rx="3" ry="3" style="stroke:#038048;stroke-width:1.0;"/><text fill="#000000" font-family="sans-serif" font-size="11" lengthAdjust="spacing" textLength="428" x="72" y="1046.3609">LogStream(const char* file, const int line, const char* function, LogLevel logLevel)</text><ellipse cx="63" cy="1056.5839" fill="#84BE84" rx="3" ry="3" style="stroke:#038048;stroke-width:1.0;"/><text fill="#000000" font-family="sans-serif" font-size="11" lengthAdjust="spacing" textLength="58" x="72" y="1061.3428">void flush()</text><ellipse cx="63" cy="1071.5658" fill="#84BE84" rx="3" ry="3" style="stroke:#038048;stroke-width:1.0;"/><text fill="#000000" font-family="sans-serif" font-size="11" lengthAdjust="spacing" textLength="92" x="72" y="1076.3247">LogStream&amp; self()</text><ellipse cx="63" cy="1086.5476" fill="#84BE84" rx="3" ry="3" style="stroke:#038048;stroke-width:1.0;"/><text fill="#000000" font-family="sans-serif" font-size="11" lengthAdjust="spacing" textLength="215" x="72" y="1091.3066">LogStream&amp; operator&lt;&lt;(const char* cstr)</text><ellipse cx="63" cy="1101.5295" fill="#84BE84" rx="3" ry="3" style="stroke:#038048;stroke-width:1.0;"/><text fill="#000000" font-family="sans-serif" font-size="11" lengthAdjust="spacing" textLength="201" x="72" y="1106.2884">LogStream&amp; operator&lt;&lt;(const T value)</text><ellipse cx="63" cy="1116.5114" fill="#84BE84" rx="3" ry="3" style="stroke:#038048;stroke-width:1.0;"/><text fill="#000000" font-family="sans-serif" font-size="11" lengthAdjust="spacing" textLength="269" x="72" y="1121.2703">LogStream&amp; operator&lt;&lt;(const LogHex&lt;T&gt;&amp;&amp; value)</text><ellipse cx="63" cy="1131.4933" fill="#84BE84" rx="3" ry="3" style="stroke:#038048;stroke-width:1.0;"/><text fill="#000000" font-family="sans-serif" font-size="11" lengthAdjust="spacing" textLength="267" x="72" y="1136.2522">LogStream&amp; operator&lt;&lt;(const LogOct&lt;T&gt;&amp;&amp; value)</text><ellipse cx="63" cy="1146.4752" fill="#84BE84" rx="3" ry="3" style="stroke:#038048;stroke-width:1.0;"/><text fill="#000000" font-family="sans-serif" font-size="11" lengthAdjust="spacing" textLength="229" x="72" y="1151.2341">LogStream&amp; operator&lt;&lt;(const Callable&amp;&amp; c)</text><!--MD5=[d2d2f88770c9b1d0c333ed82df88579a]
link TestingLogger to ConsoleLogger--><path codeLine="79" d="M279,219.702 C279,246.132 279,276.992 279,308.022 " fill="none" id="TestingLogger-to-ConsoleLogger" style="stroke:#A80036;stroke-width:1.0;"/><polygon fill="none" points="286,308.392,279,328.392,272,308.392,286,308.392" style="stroke:#A80036;stroke-width:1.0;"/><!--MD5=[21da91860576bc3b7151516d4b7bf168]
reverse link ConsoleLogger to Logger--><path codeLine="80" d="M279,651.942 C279,672.402 279,692.422 279,710.482 " fill="none" id="ConsoleLogger-backto-Logger" style="stroke:#A80036;stroke-width:1.0;"/><polygon fill="none" points="272,651.812,279,631.812,286,651.812,272,651.812" style="stroke:#A80036;stroke-width:1.0;"/><text fill="#000000" font-family="sans-serif" font-size="13" lengthAdjust="spacing" textLength="47" x="280" y="676.499">via Impl</text><!--MD5=[6c907600424efbd7a4ff3a07f2132e44]
reverse link Logger to LogStream--><path codeLine="81" d="M279,868.932 C279,906.922 279,952.172 279,990.452 " fill="none" id="Logger-backto-LogStream" style="stroke:#A80036;stroke-width:1.0;stroke-dasharray:7.0,7.0;"/><polygon fill="#A80036" points="279,863.862,275,872.862,279,868.862,283,872.862,279,863.862" style="stroke:#A80036;stroke-width:1.0;"/><text fill="#000000" font-family="sans-serif" font-size="13" lengthAdjust="spacing" textLength="49" x="280" y="910.499">«friend»</text><!--MD5=[2fb7a5e241c0e35b0278a2ff37c4a2d6]
link LogStream to LogHex--><path codeLine="82" d="M418.19,990.602 C465.88,966.252 520.69,942.922 574,930.602 C624.23,918.992 647.1,902.002 690,930.602 C728.18,956.052 742.11,1010.892 747.16,1045.072 " fill="none" id="LogStream-to-LogHex" style="stroke:#A80036;stroke-width:1.0;stroke-dasharray:7.0,7.0;"/><polygon fill="#A80036" points="747.89,1050.372,750.6191,1040.9088,747.2049,1045.4191,742.6945,1042.005,747.89,1050.372" style="stroke:#A80036;stroke-width:1.0;"/><text fill="#000000" font-family="sans-serif" font-size="13" lengthAdjust="spacing" textLength="49" x="582.5" y="910.499">«friend»</text><!--MD5=[2b8982e2d7fa604e14e3be9001eaf219]
link LogStream to LogOct--><path codeLine="83" d="M506.05,1074.602 C536.29,1074.602 564.36,1074.602 586.29,1074.602 " fill="none" id="LogStream-to-LogOct" style="stroke:#A80036;stroke-width:1.0;stroke-dasharray:7.0,7.0;"/><polygon fill="#A80036" points="591.44,1074.602,582.44,1070.602,586.44,1074.602,582.44,1078.602,591.44,1074.602" style="stroke:#A80036;stroke-width:1.0;"/><text fill="#000000" font-family="sans-serif" font-size="13" lengthAdjust="spacing" textLength="49" x="524.25" y="1067.499">«friend»</text></g></svg>