<?xml version="1.0" encoding="UTF-8" standalone="no"?><svg xmlns="http://www.w3.org/2000/svg" xmlns:xlink="http://www.w3.org/1999/xlink" contentScriptType="application/ecmascript" contentStyleType="text/css" height="743px" preserveAspectRatio="none" style="width:753px;height:743px;background:#EEEBDC;" version="1.1" viewBox="0 0 753 743" width="753px" zoomAndPan="magnify"><defs><filter height="300%" id="ffcp9kwpj7re7" width="300%" x="-1" y="-1"><feGaussianBlur result="blurOut" stdDeviation="2.0"/><feColorMatrix in="blurOut" result="blurOut2" type="matrix" values="0 0 0 0 0 0 0 0 0 0 0 0 0 0 0 0 0 0 .4 0"/><feOffset dx="4.0" dy="4.0" in="blurOut2" result="blurOut3"/><feBlend in="SourceGraphic" in2="blurOut3" mode="normal"/></filter></defs><g><rect fill="#FFFFFF" filter="url(#ffcp9kwpj7re7)" height="372.0779" style="stroke:#A80036;stroke-width:1.0;" width="10" x="188.5" y="105.8419"/><rect fill="#FFFFFF" filter="url(#ffcp9kwpj7re7)" height="59.706" style="stroke:#A80036;stroke-width:1.0;" width="10" x="188.5" y="509.6258"/><rect fill="#FFFFFF" filter="url(#ffcp9kwpj7re7)" height="59.706" style="stroke:#A80036;stroke-width:1.0;" width="10" x="188.5" y="601.0378"/><rect fill="#FFFFFF" filter="url(#ffcp9kwpj7re7)" height="274.304" style="stroke:#A80036;stroke-width:1.0;" width="10" x="299" y="143.9098"/><rect fill="#FFFFFF" filter="url(#ffcp9kwpj7re7)" height="228.598" style="stroke:#A80036;stroke-width:1.0;" width="10" x="421" y="175.6158"/><rect fill="#FFFFFF" filter="url(#ffcp9kwpj7re7)" height="142.833" style="stroke:#A80036;stroke-width:1.0;" width="10" x="426" y="240.3808"/><rect fill="#FFFFFF" filter="url(#ffcp9kwpj7re7)" height="14" style="stroke:#A80036;stroke-width:1.0;" width="10" x="549" y="449.9198"/><rect fill="#FFFFFF" filter="url(#ffcp9kwpj7re7)" height="14" style="stroke:#A80036;stroke-width:1.0;" width="10" x="549" y="541.3318"/><rect fill="#FFFFFF" filter="url(#ffcp9kwpj7re7)" height="14" style="stroke:#A80036;stroke-width:1.0;" width="10" x="549" y="632.7439"/><line style="stroke:#A80036;stroke-width:1.0;stroke-dasharray:5.0,5.0;" x1="29" x2="29" y1="62.1358" y2="678.7439"/><line style="stroke:#A80036;stroke-width:1.0;stroke-dasharray:5.0,5.0;" x1="193.5" x2="193.5" y1="106.1698" y2="678.7439"/><line style="stroke:#A80036;stroke-width:1.0;stroke-dasharray:5.0,5.0;" x1="303.5" x2="303.5" y1="62.1358" y2="678.7439"/><line style="stroke:#A80036;stroke-width:1.0;stroke-dasharray:5.0,5.0;" x1="426" x2="426" y1="62.1358" y2="678.7439"/><line style="stroke:#A80036;stroke-width:1.0;stroke-dasharray:5.0,5.0;" x1="554" x2="554" y1="357.1798" y2="678.7439"/><rect fill="#FEFECE" filter="url(#ffcp9kwpj7re7)" height="33.0679" style="stroke:#A80036;stroke-width:1.5;" width="45" x="5" y="24.0679"/><text fill="#000000" font-family="sans-serif" font-size="14" lengthAdjust="spacing" textLength="31" x="12" y="46.0339">User</text><rect fill="#FEFECE" filter="url(#ffcp9kwpj7re7)" height="33.0679" style="stroke:#A80036;stroke-width:1.5;" width="45" x="5" y="677.7439"/><text fill="#000000" font-family="sans-serif" font-size="14" lengthAdjust="spacing" textLength="31" x="12" y="699.7098">User</text><rect fill="#FEFECE" filter="url(#ffcp9kwpj7re7)" height="33.0679" style="stroke:#A80036;stroke-width:1.5;" width="86" x="148.5" y="677.7439"/><text fill="#000000" font-family="sans-serif" font-size="14" lengthAdjust="spacing" textLength="72" x="155.5" y="699.7098">LogStream</text><rect fill="#FEFECE" filter="url(#ffcp9kwpj7re7)" height="52.1358" style="stroke:#A80036;stroke-width:1.5;" width="107" x="248.5" y="5"/><text fill="#000000" font-family="sans-serif" font-size="14" font-style="italic" lengthAdjust="spacing" textLength="93" x="255.5" y="26.9659">«free function»</text><text fill="#000000" font-family="sans-serif" font-size="14" lengthAdjust="spacing" textLength="48" x="278" y="46.0339">iox::log</text><rect fill="#FEFECE" filter="url(#ffcp9kwpj7re7)" height="52.1358" style="stroke:#A80036;stroke-width:1.5;" width="107" x="248.5" y="677.7439"/><text fill="#000000" font-family="sans-serif" font-size="14" font-style="italic" lengthAdjust="spacing" textLength="93" x="255.5" y="699.7098">«free function»</text><text fill="#000000" font-family="sans-serif" font-size="14" lengthAdjust="spacing" textLength="48" x="278" y="718.7777">iox::log</text><rect fill="#FEFECE" filter="url(#ffcp9kwpj7re7)" height="52.1358" style="stroke:#A80036;stroke-width:1.5;" width="62" x="393" y="5"/><text fill="#000000" font-family="sans-serif" font-size="14" font-style="italic" lengthAdjust="spacing" textLength="48" x="400" y="26.9659">«static»</text><text fill="#000000" font-family="sans-serif" font-size="14" lengthAdjust="spacing" textLength="47" x="400.5" y="46.0339">Logger</text><rect fill="#FEFECE" filter="url(#ffcp9kwpj7re7)" height="52.1358" style="stroke:#A80036;stroke-width:1.5;" width="62" x="393" y="677.7439"/><text fill="#000000" font-family="sans-serif" font-size="14" font-style="italic" lengthAdjust="spacing" textLength="48" x="400" y="699.7098">«static»</text><text fill="#000000" font-family="sans-serif" font-size="14" lengthAdjust="spacing" textLength="47" x="400.5" y="718.7777">Logger</text><rect fill="#FEFECE" filter="url(#ffcp9kwpj7re7)" height="33.0679" style="stroke:#A80036;stroke-width:1.5;" width="166" x="469" y="677.7439"/><text fill="#000000" font-family="sans-serif" font-size="14" lengthAdjust="spacing" textLength="152" x="476" y="699.7098">logger : DefaultLogger</text><rect fill="#FFFFFF" filter="url(#ffcp9kwpj7re7)" height="372.0779" style="stroke:#A80036;stroke-width:1.0;" width="10" x="188.5" y="105.8419"/><rect fill="#FFFFFF" filter="url(#ffcp9kwpj7re7)" height="59.706" style="stroke:#A80036;stroke-width:1.0;" width="10" x="188.5" y="509.6258"/><rect fill="#FFFFFF" filter="url(#ffcp9kwpj7re7)" height="59.706" style="stroke:#A80036;stroke-width:1.0;" width="10" x="188.5" y="601.0378"/><rect fill="#FFFFFF" filter="url(#ffcp9kwpj7re7)" height="274.304" style="stroke:#A80036;stroke-width:1.0;" width="10" x="299" y="143.9098"/><rect fill="#FFFFFF" filter="url(#ffcp9kwpj7re7)" height="228.598" style="stroke:#A80036;stroke-width:1.0;" width="10" x="421" y="175.6158"/><rect fill="#FFFFFF" filter="url(#ffcp9kwpj7re7)" height="142.833" style="stroke:#A80036;stroke-width:1.0;" width="10" x="426" y="240.3808"/><rect fill="#FFFFFF" filter="url(#ffcp9kwpj7re7)" height="14" style="stroke:#A80036;stroke-width:1.0;" width="10" x="549" y="449.9198"/><rect fill="#FFFFFF" filter="url(#ffcp9kwpj7re7)" height="14" style="stroke:#A80036;stroke-width:1.0;" width="10" x="549" y="541.3318"/><rect fill="#FFFFFF" filter="url(#ffcp9kwpj7re7)" height="14" style="stroke:#A80036;stroke-width:1.0;" width="10" x="549" y="632.7439"/><polygon fill="#A80036" points="136.5,91.8419,146.5,95.8419,136.5,99.8419,140.5,95.8419" style="stroke:#A80036;stroke-width:1.0;"/><line style="stroke:#A80036;stroke-width:1.0;" x1="29.5" x2="142.5" y1="95.8419" y2="95.8419"/><text fill="#000000" font-family="sans-serif" font-size="13" lengthAdjust="spacing" textLength="71" x="36.5" y="90.0328">IOX_LOG(...)</text><rect fill="#FEFECE" filter="url(#ffcp9kwpj7re7)" height="33.0679" style="stroke:#A80036;stroke-width:1.5;" width="86" x="148.5" y="72.1358"/><text fill="#000000" font-family="sans-serif" font-size="14" lengthAdjust="spacing" textLength="72" x="155.5" y="94.1018">LogStream</text><polygon fill="#A80036" points="287,139.9098,297,143.9098,287,147.9098,291,143.9098" style="stroke:#A80036;stroke-width:1.0;"/><line style="stroke:#A80036;stroke-width:1.0;" x1="198.5" x2="293" y1="143.9098" y2="143.9098"/><text fill="#000000" font-family="sans-serif" font-size="13" lengthAdjust="spacing" textLength="63" x="205.5" y="138.1008">getLogger</text><polygon fill="#A80036" points="409,171.6158,419,175.6158,409,179.6158,413,175.6158" style="stroke:#A80036;stroke-width:1.0;"/><line style="stroke:#A80036;stroke-width:1.0;" x1="309" x2="415" y1="175.6158" y2="175.6158"/><text fill="#000000" font-family="sans-serif" font-size="13" lengthAdjust="spacing" textLength="93" x="316" y="169.8068">get &lt;&lt;private&gt;&gt;</text><line style="stroke:#A80036;stroke-width:1.0;" x1="431" x2="478" y1="227.3808" y2="227.3808"/><line style="stroke:#A80036;stroke-width:1.0;" x1="478" x2="478" y1="227.3808" y2="240.3808"/><line style="stroke:#A80036;stroke-width:1.0;" x1="437" x2="478" y1="240.3808" y2="240.3808"/><polygon fill="#A80036" points="447,236.3808,437,240.3808,447,244.3808,443,240.3808" style="stroke:#A80036;stroke-width:1.0;"/><text fill="#000000" font-family="sans-serif" font-size="13" lengthAdjust="spacing" textLength="86" x="443" y="221.5718">activeLogger()</text><path d="M541,188.6158 L541,268.6158 L744,268.6158 L744,198.6158 L734,188.6158 L541,188.6158 " fill="#FBFB77" filter="url(#ffcp9kwpj7re7)" style="stroke:#A80036;stroke-width:1.0;"/><path d="M734,188.6158 L734,198.6158 L744,198.6158 L734,188.6158 " fill="#FBFB77" style="stroke:#A80036;stroke-width:1.0;"/><text fill="#000000" font-family="sans-serif" font-size="13" lengthAdjust="spacing" textLength="156" x="547" y="207.5128">activeLogger is only called</text><text fill="#000000" font-family="sans-serif" font-size="13" lengthAdjust="spacing" textLength="160" x="547" y="225.2188">to initialize the thread local</text><text fill="#000000" font-family="sans-serif" font-size="13" lengthAdjust="spacing" textLength="161" x="547" y="242.9248">logger pointer or when the</text><text fill="#000000" font-family="sans-serif" font-size="13" lengthAdjust="spacing" textLength="182" x="547" y="260.6308">active flag of the logger is false</text><line style="stroke:#A80036;stroke-width:1.0;" x1="436" x2="478" y1="302.1459" y2="302.1459"/><line style="stroke:#A80036;stroke-width:1.0;" x1="478" x2="478" y1="302.1459" y2="315.1459"/><line style="stroke:#A80036;stroke-width:1.0;" x1="437" x2="478" y1="315.1459" y2="315.1459"/><polygon fill="#A80036" points="447,311.1459,437,315.1459,447,319.1459,443,315.1459" style="stroke:#A80036;stroke-width:1.0;"/><text fill="#000000" font-family="sans-serif" font-size="13" lengthAdjust="spacing" textLength="49" x="443" y="296.3369">std::lock</text><polygon fill="#A80036" points="457,325.1459,467,329.1459,457,333.1459,461,329.1459" style="stroke:#A80036;stroke-width:1.0;"/><line style="stroke:#A80036;stroke-width:1.0;" x1="436" x2="463" y1="329.1459" y2="329.1459"/><rect fill="#FEFECE" filter="url(#ffcp9kwpj7re7)" height="33.0679" style="stroke:#A80036;stroke-width:1.5;" width="166" x="469" y="323.1459"/><text fill="#000000" font-family="sans-serif" font-size="14" lengthAdjust="spacing" textLength="152" x="476" y="345.1118">logger : DefaultLogger</text><line style="stroke:#A80036;stroke-width:1.0;stroke-dasharray:2.0,2.0;" x1="436" x2="478" y1="382.2138" y2="382.2138"/><line style="stroke:#A80036;stroke-width:1.0;stroke-dasharray:2.0,2.0;" x1="478" x2="478" y1="382.2138" y2="395.2138"/><line style="stroke:#A80036;stroke-width:1.0;stroke-dasharray:2.0,2.0;" x1="431" x2="478" y1="395.2138" y2="395.2138"/><polygon fill="#A80036" points="441,391.2138,431,395.2138,441,399.2138,437,395.2138" style="stroke:#A80036;stroke-width:1.0;"/><polygon fill="#A80036" points="320,400.2138,310,404.2138,320,408.2138,316,404.2138" style="stroke:#A80036;stroke-width:1.0;"/><line style="stroke:#A80036;stroke-width:1.0;stroke-dasharray:2.0,2.0;" x1="314" x2="425" y1="404.2138" y2="404.2138"/><polygon fill="#A80036" points="209.5,414.2138,199.5,418.2138,209.5,422.2138,205.5,418.2138" style="stroke:#A80036;stroke-width:1.0;"/><line style="stroke:#A80036;stroke-width:1.0;stroke-dasharray:2.0,2.0;" x1="203.5" x2="303" y1="418.2138" y2="418.2138"/><polygon fill="#A80036" points="537,445.9198,547,449.9198,537,453.9198,541,449.9198" style="stroke:#A80036;stroke-width:1.0;"/><line style="stroke:#A80036;stroke-width:1.0;" x1="198.5" x2="543" y1="449.9198" y2="449.9198"/><text fill="#000000" font-family="sans-serif" font-size="13" lengthAdjust="spacing" textLength="137" x="205.5" y="444.1108">setupNewLogMessage</text><polygon fill="#A80036" points="209.5,459.9198,199.5,463.9198,209.5,467.9198,205.5,463.9198" style="stroke:#A80036;stroke-width:1.0;"/><line style="stroke:#A80036;stroke-width:1.0;stroke-dasharray:2.0,2.0;" x1="203.5" x2="553" y1="463.9198" y2="463.9198"/><polygon fill="#A80036" points="40.5,473.9198,30.5,477.9198,40.5,481.9198,36.5,477.9198" style="stroke:#A80036;stroke-width:1.0;"/><line style="stroke:#A80036;stroke-width:1.0;stroke-dasharray:2.0,2.0;" x1="34.5" x2="192.5" y1="477.9198" y2="477.9198"/><polygon fill="#A80036" points="176.5,505.6258,186.5,509.6258,176.5,513.6258,180.5,509.6258" style="stroke:#A80036;stroke-width:1.0;"/><line style="stroke:#A80036;stroke-width:1.0;" x1="29.5" x2="182.5" y1="509.6258" y2="509.6258"/><text fill="#000000" font-family="sans-serif" font-size="13" lengthAdjust="spacing" textLength="87" x="36.5" y="503.8168">&lt;&lt; Hello World</text><polygon fill="#A80036" points="537,537.3318,547,541.3318,537,545.3318,541,541.3318" style="stroke:#A80036;stroke-width:1.0;"/><line style="stroke:#A80036;stroke-width:1.0;" x1="198.5" x2="543" y1="541.3318" y2="541.3318"/><text fill="#000000" font-family="sans-serif" font-size="13" lengthAdjust="spacing" textLength="55" x="205.5" y="535.5228">logString</text><polygon fill="#A80036" points="209.5,551.3318,199.5,555.3318,209.5,559.3318,205.5,555.3318" style="stroke:#A80036;stroke-width:1.0;"/><line style="stroke:#A80036;stroke-width:1.0;stroke-dasharray:2.0,2.0;" x1="203.5" x2="553" y1="555.3318" y2="555.3318"/><polygon fill="#A80036" points="40.5,565.3318,30.5,569.3318,40.5,573.3318,36.5,569.3318" style="stroke:#A80036;stroke-width:1.0;"/><line style="stroke:#A80036;stroke-width:1.0;stroke-dasharray:2.0,2.0;" x1="34.5" x2="192.5" y1="569.3318" y2="569.3318"/><polygon fill="#A80036" points="176.5,597.0378,186.5,601.0378,176.5,605.0378,180.5,601.0378" style="stroke:#A80036;stroke-width:1.0;"/><line style="stroke:#A80036;stroke-width:1.0;" x1="29.5" x2="182.5" y1="601.0378" y2="601.0378"/><text fill="#000000" font-family="sans-serif" font-size="13" lengthAdjust="spacing" textLength="140" x="36.5" y="595.2288">dTor via ; on temporary</text><polygon fill="#A80036" points="537,628.7439,547,632.7439,537,636.7439,541,632.7439" style="stroke:#A80036;stroke-width:1.0;"/><line style="stroke:#A80036;stroke-width:1.0;" x1="198.5" x2="543" y1="632.7439" y2="632.7439"/><text fill="#000000" font-family="sans-serif" font-size="13" lengthAdjust="spacing" textLength="29" x="205.5" y="626.9349">flush</text><polygon fill="#A80036" points="209.5,642.7439,199.5,646.7439,209.5,650.7439,205.5,646.7439" style="stroke:#A80036;stroke-width:1.0;"/><line style="stroke:#A80036;stroke-width:1.0;stroke-dasharray:2.0,2.0;" x1="203.5" x2="553" y1="646.7439" y2="646.7439"/><polygon fill="#A80036" points="40.5,656.7439,30.5,660.7439,40.5,664.7439,36.5,660.7439" style="stroke:#A80036;stroke-width:1.0;"/><line style="stroke:#A80036;stroke-width:1.0;stroke-dasharray:2.0,2.0;" x1="34.5" x2="192.5" y1="660.7439" y2="660.7439"/><line style="stroke:#A80036;stroke-width:2.0;" x1="184.5" x2="202.5" y1="651.7439" y2="669.7439"/><line style="stroke:#A80036;stroke-width:2.0;" x1="184.5" x2="202.5" y1="669.7439" y2="651.7439"/></g></svg>