<?xml version="1.0" encoding="UTF-8" standalone="no"?><svg xmlns="http://www.w3.org/2000/svg" xmlns:xlink="http://www.w3.org/1999/xlink" contentScriptType="application/ecmascript" contentStyleType="text/css" height="596px" preserveAspectRatio="none" style="width:324px;height:596px;background:#EEEBDC;" version="1.1" viewBox="0 0 324 596" width="324px" zoomAndPan="magnify"><defs><filter height="300%" id="f1htm7vhepbvur" width="300%" x="-1" y="-1"><feGaussianBlur result="blurOut" stdDeviation="2.0"/><feColorMatrix in="blurOut" result="blurOut2" type="matrix" values="0 0 0 0 0 0 0 0 0 0 0 0 0 0 0 0 0 0 .4 0"/><feOffset dx="4.0" dy="4.0" in="blurOut2" result="blurOut3"/><feBlend in="SourceGraphic" in2="blurOut3" mode="normal"/></filter></defs><g><rect fill="#FFFFFF" filter="url(#f1htm7vhepbvur)" height="417.716" style="stroke:#A80036;stroke-width:1.0;" width="10" x="92" y="95.8419"/><rect fill="#FFFFFF" filter="url(#f1htm7vhepbvur)" height="239.598" style="stroke:#A80036;stroke-width:1.0;" width="10" x="97" y="135.5479"/><rect fill="#FFFFFF" filter="url(#f1htm7vhepbvur)" height="167.892" style="stroke:#A80036;stroke-width:1.0;" width="10" x="102" y="180.2539"/><rect fill="#FFFFFF" filter="url(#f1htm7vhepbvur)" height="85.706" style="stroke:#A80036;stroke-width:1.0;" width="10" x="230" y="413.8519"/><rect fill="#FFFFFF" filter="url(#f1htm7vhepbvur)" height="25" style="stroke:#A80036;stroke-width:1.0;" width="10" x="235" y="453.5579"/><line style="stroke:#A80036;stroke-width:1.0;stroke-dasharray:5.0,5.0;" x1="29" x2="29" y1="62.1358" y2="531.5579"/><line style="stroke:#A80036;stroke-width:1.0;stroke-dasharray:5.0,5.0;" x1="97" x2="97" y1="62.1358" y2="531.5579"/><line style="stroke:#A80036;stroke-width:1.0;stroke-dasharray:5.0,5.0;" x1="234.5" x2="234.5" y1="227.2878" y2="531.5579"/><rect fill="#FEFECE" filter="url(#f1htm7vhepbvur)" height="33.0679" style="stroke:#A80036;stroke-width:1.5;" width="45" x="5" y="24.0679"/><text fill="#000000" font-family="sans-serif" font-size="14" lengthAdjust="spacing" textLength="31" x="12" y="46.0339">User</text><rect fill="#FEFECE" filter="url(#f1htm7vhepbvur)" height="33.0679" style="stroke:#A80036;stroke-width:1.5;" width="45" x="5" y="530.5579"/><text fill="#000000" font-family="sans-serif" font-size="14" lengthAdjust="spacing" textLength="31" x="12" y="552.5238">User</text><rect fill="#FEFECE" filter="url(#f1htm7vhepbvur)" height="52.1358" style="stroke:#A80036;stroke-width:1.5;" width="62" x="64" y="5"/><text fill="#000000" font-family="sans-serif" font-size="14" font-style="italic" lengthAdjust="spacing" textLength="48" x="71" y="26.9659">«static»</text><text fill="#000000" font-family="sans-serif" font-size="14" lengthAdjust="spacing" textLength="47" x="71.5" y="46.0339">Logger</text><rect fill="#FEFECE" filter="url(#f1htm7vhepbvur)" height="52.1358" style="stroke:#A80036;stroke-width:1.5;" width="62" x="64" y="530.5579"/><text fill="#000000" font-family="sans-serif" font-size="14" font-style="italic" lengthAdjust="spacing" textLength="48" x="71" y="552.5238">«static»</text><text fill="#000000" font-family="sans-serif" font-size="14" lengthAdjust="spacing" textLength="47" x="71.5" y="571.5918">Logger</text><rect fill="#FEFECE" filter="url(#f1htm7vhepbvur)" height="33.0679" style="stroke:#A80036;stroke-width:1.5;" width="117" x="174.5" y="530.5579"/><text fill="#000000" font-family="sans-serif" font-size="14" lengthAdjust="spacing" textLength="103" x="181.5" y="552.5238">logger : Logger</text><rect fill="#FFFFFF" filter="url(#f1htm7vhepbvur)" height="417.716" style="stroke:#A80036;stroke-width:1.0;" width="10" x="92" y="95.8419"/><rect fill="#FFFFFF" filter="url(#f1htm7vhepbvur)" height="239.598" style="stroke:#A80036;stroke-width:1.0;" width="10" x="97" y="135.5479"/><rect fill="#FFFFFF" filter="url(#f1htm7vhepbvur)" height="167.892" style="stroke:#A80036;stroke-width:1.0;" width="10" x="102" y="180.2539"/><rect fill="#FFFFFF" filter="url(#f1htm7vhepbvur)" height="85.706" style="stroke:#A80036;stroke-width:1.0;" width="10" x="230" y="413.8519"/><rect fill="#FFFFFF" filter="url(#f1htm7vhepbvur)" height="25" style="stroke:#A80036;stroke-width:1.0;" width="10" x="235" y="453.5579"/><polygon fill="#A80036" points="80,91.8419,90,95.8419,80,99.8419,84,95.8419" style="stroke:#A80036;stroke-width:1.0;"/><line style="stroke:#A80036;stroke-width:1.0;" x1="29.5" x2="86" y1="95.8419" y2="95.8419"/><text fill="#000000" font-family="sans-serif" font-size="13" lengthAdjust="spacing" textLength="19" x="36.5" y="90.0328">init</text><line style="stroke:#A80036;stroke-width:1.0;" x1="102" x2="149" y1="122.5479" y2="122.5479"/><line style="stroke:#A80036;stroke-width:1.0;" x1="149" x2="149" y1="122.5479" y2="135.5479"/><line style="stroke:#A80036;stroke-width:1.0;" x1="108" x2="149" y1="135.5479" y2="135.5479"/><polygon fill="#A80036" points="118,131.5479,108,135.5479,118,139.5479,114,135.5479" style="stroke:#A80036;stroke-width:1.0;"/><text fill="#000000" font-family="sans-serif" font-size="13" lengthAdjust="spacing" textLength="20" x="114" y="116.7389">get</text><line style="stroke:#A80036;stroke-width:1.0;" x1="107" x2="154" y1="167.2539" y2="167.2539"/><line style="stroke:#A80036;stroke-width:1.0;" x1="154" x2="154" y1="167.2539" y2="180.2539"/><line style="stroke:#A80036;stroke-width:1.0;" x1="113" x2="154" y1="180.2539" y2="180.2539"/><polygon fill="#A80036" points="123,176.2539,113,180.2539,123,184.2539,119,180.2539" style="stroke:#A80036;stroke-width:1.0;"/><text fill="#000000" font-family="sans-serif" font-size="13" lengthAdjust="spacing" textLength="78" x="119" y="161.4449">activeLogger</text><polygon fill="#A80036" points="162.5,195.2539,172.5,199.2539,162.5,203.2539,166.5,199.2539" style="stroke:#A80036;stroke-width:1.0;"/><line style="stroke:#A80036;stroke-width:1.0;" x1="112" x2="168.5" y1="199.2539" y2="199.2539"/><rect fill="#FEFECE" filter="url(#f1htm7vhepbvur)" height="33.0679" style="stroke:#A80036;stroke-width:1.5;" width="117" x="174.5" y="193.2539"/><text fill="#000000" font-family="sans-serif" font-size="14" lengthAdjust="spacing" textLength="103" x="181.5" y="215.2198">logger : Logger</text><path d="M156,246.3218 L156,326.3218 L310,326.3218 L310,256.3218 L300,246.3218 L156,246.3218 " fill="#FBFB77" filter="url(#f1htm7vhepbvur)" style="stroke:#A80036;stroke-width:1.0;"/><path d="M300,246.3218 L300,256.3218 L310,256.3218 L300,246.3218 " fill="#FBFB77" style="stroke:#A80036;stroke-width:1.0;"/><text fill="#000000" font-family="sans-serif" font-size="13" lengthAdjust="spacing" textLength="107" x="162" y="265.2188">the default logger</text><text fill="#000000" font-family="sans-serif" font-size="13" lengthAdjust="spacing" textLength="97" x="162" y="282.9248">is configured via</text><text fill="#000000" font-family="sans-serif" font-size="13" lengthAdjust="spacing" textLength="63" x="162" y="300.6308">the alias in</text><text fill="#000000" font-family="sans-serif" font-size="13" lengthAdjust="spacing" textLength="133" x="162" y="318.3369">platform_settings.hpp</text><line style="stroke:#A80036;stroke-width:1.0;stroke-dasharray:2.0,2.0;" x1="112" x2="154" y1="347.1459" y2="347.1459"/><line style="stroke:#A80036;stroke-width:1.0;stroke-dasharray:2.0,2.0;" x1="154" x2="154" y1="347.1459" y2="360.1459"/><line style="stroke:#A80036;stroke-width:1.0;stroke-dasharray:2.0,2.0;" x1="107" x2="154" y1="360.1459" y2="360.1459"/><polygon fill="#A80036" points="117,356.1459,107,360.1459,117,364.1459,113,360.1459" style="stroke:#A80036;stroke-width:1.0;"/><line style="stroke:#A80036;stroke-width:1.0;stroke-dasharray:2.0,2.0;" x1="107" x2="149" y1="374.1459" y2="374.1459"/><line style="stroke:#A80036;stroke-width:1.0;stroke-dasharray:2.0,2.0;" x1="149" x2="149" y1="374.1459" y2="387.1459"/><line style="stroke:#A80036;stroke-width:1.0;stroke-dasharray:2.0,2.0;" x1="102" x2="149" y1="387.1459" y2="387.1459"/><polygon fill="#A80036" points="112,383.1459,102,387.1459,112,391.1459,108,387.1459" style="stroke:#A80036;stroke-width:1.0;"/><polygon fill="#A80036" points="218,409.8519,228,413.8519,218,417.8519,222,413.8519" style="stroke:#A80036;stroke-width:1.0;"/><line style="stroke:#A80036;stroke-width:1.0;" x1="102" x2="224" y1="413.8519" y2="413.8519"/><text fill="#000000" font-family="sans-serif" font-size="13" lengthAdjust="spacing" textLength="109" x="109" y="408.0429">initLoggerInternal</text><line style="stroke:#A80036;stroke-width:1.0;" x1="240" x2="287" y1="440.5579" y2="440.5579"/><line style="stroke:#A80036;stroke-width:1.0;" x1="287" x2="287" y1="440.5579" y2="453.5579"/><line style="stroke:#A80036;stroke-width:1.0;" x1="246" x2="287" y1="453.5579" y2="453.5579"/><polygon fill="#A80036" points="256,449.5579,246,453.5579,256,457.5579,252,453.5579" style="stroke:#A80036;stroke-width:1.0;"/><text fill="#000000" font-family="sans-serif" font-size="13" lengthAdjust="spacing" textLength="65" x="252" y="434.7489">initiLogger</text><line style="stroke:#A80036;stroke-width:1.0;stroke-dasharray:2.0,2.0;" x1="245" x2="287" y1="477.5579" y2="477.5579"/><line style="stroke:#A80036;stroke-width:1.0;stroke-dasharray:2.0,2.0;" x1="287" x2="287" y1="477.5579" y2="490.5579"/><line style="stroke:#A80036;stroke-width:1.0;stroke-dasharray:2.0,2.0;" x1="240" x2="287" y1="490.5579" y2="490.5579"/><polygon fill="#A80036" points="250,486.5579,240,490.5579,250,494.5579,246,490.5579" style="stroke:#A80036;stroke-width:1.0;"/><polygon fill="#A80036" points="113,495.5579,103,499.5579,113,503.5579,109,499.5579" style="stroke:#A80036;stroke-width:1.0;"/><line style="stroke:#A80036;stroke-width:1.0;stroke-dasharray:2.0,2.0;" x1="107" x2="234" y1="499.5579" y2="499.5579"/><polygon fill="#A80036" points="40.5,509.5579,30.5,513.5579,40.5,517.5579,36.5,513.5579" style="stroke:#A80036;stroke-width:1.0;"/><line style="stroke:#A80036;stroke-width:1.0;stroke-dasharray:2.0,2.0;" x1="34.5" x2="96" y1="513.5579" y2="513.5579"/></g></svg>