<?xml version="1.0" encoding="UTF-8" standalone="no"?><svg xmlns="http://www.w3.org/2000/svg" xmlns:xlink="http://www.w3.org/1999/xlink" contentScriptType="application/ecmascript" contentStyleType="text/css" height="1208px" preserveAspectRatio="none" style="width:848px;height:1208px;background:#EEEBDC;" version="1.1" viewBox="0 0 848 1208" width="848px" zoomAndPan="magnify"><defs><filter height="300%" id="fjrm3sb443bhb" width="300%" x="-1" y="-1"><feGaussianBlur result="blurOut" stdDeviation="2.0"/><feColorMatrix in="blurOut" result="blurOut2" type="matrix" values="0 0 0 0 0 0 0 0 0 0 0 0 0 0 0 0 0 0 .4 0"/><feOffset dx="4.0" dy="4.0" in="blurOut2" result="blurOut3"/><feBlend in="SourceGraphic" in2="blurOut3" mode="normal"/></filter></defs><g><!--MD5=[fb392f40112ea3e9bc005b9c7a6e8f0e]
cluster platform_building_blocks--><polygon fill="#EEEBDC" filter="url(#fjrm3sb443bhb)" points="16,268.602,197,268.602,204,293.6699,705,293.6699,705,906.602,16,906.602,16,268.602" style="stroke:#000000;stroke-width:1.5;"/><line style="stroke:#000000;stroke-width:1.5;" x1="16" x2="204" y1="293.6699" y2="293.6699"/><text fill="#000000" font-family="sans-serif" font-size="14" font-weight="bold" lengthAdjust="spacing" textLength="175" x="20" y="285.5679">platform_building_blocks</text><!--MD5=[e7e221a7d8b4ea69412a441310905dd6]
cluster iceoryx_hoofs_testing--><polygon fill="#EEEBDC" filter="url(#fjrm3sb443bhb)" points="165,6.602,321,6.602,328,31.6699,439,31.6699,439,235.602,165,235.602,165,6.602" style="stroke:#000000;stroke-width:1.5;"/><line style="stroke:#000000;stroke-width:1.5;" x1="165" x2="328" y1="31.6699" y2="31.6699"/><text fill="#000000" font-family="sans-serif" font-size="14" font-weight="bold" lengthAdjust="spacing" textLength="150" x="169" y="23.5679">iceoryx_hoofs_testing</text><!--MD5=[415eaaaa2a07b50c6508c9baea7f95bd]
cluster iceoryx_hoofs--><polygon fill="#EEEBDC" filter="url(#fjrm3sb443bhb)" points="59,957.602,160,957.602,167,982.6699,831,982.6699,831,1201.602,59,1201.602,59,957.602" style="stroke:#000000;stroke-width:1.5;"/><line style="stroke:#000000;stroke-width:1.5;" x1="59" x2="167" y1="982.6699" y2="982.6699"/><text fill="#000000" font-family="sans-serif" font-size="14" font-weight="bold" lengthAdjust="spacing" textLength="95" x="63" y="974.5679">iceoryx_hoofs</text><!--MD5=[fde78261c83df273810042a88c770c4d]
class LogLevel--><rect codeLine="4" fill="#FEFECE" filter="url(#fjrm3sb443bhb)" height="152.8732" id="LogLevel" style="stroke:#A80036;stroke-width:1.5;" width="81" x="607.5" y="328.602"/><ellipse cx="622.5" cy="344.602" fill="#EB937F" rx="11" ry="11" style="stroke:#A80036;stroke-width:1.0;"/><path d="M618.8906,338.7114 L626.6094,338.7114 L626.6094,340.8676 L621.3438,340.8676 L621.3438,343.5395 L626.1094,343.5395 L626.1094,345.6957 L621.3438,345.6957 L621.3438,348.9457 L626.6094,348.9457 L626.6094,351.102 L618.8906,351.102 L618.8906,338.7114 Z " fill="#000000"/><text fill="#000000" font-family="sans-serif" font-size="12" lengthAdjust="spacing" textLength="49" x="636.5" y="349.258">LogLevel</text><line style="stroke:#A80036;stroke-width:1.5;" x1="608.5" x2="687.5" y1="360.602" y2="360.602"/><text fill="#000000" font-family="sans-serif" font-size="11" lengthAdjust="spacing" textLength="42" x="613.5" y="376.3609">OFF = 0,</text><text fill="#000000" font-family="sans-serif" font-size="11" lengthAdjust="spacing" textLength="35" x="613.5" y="391.3428">FATAL,</text><text fill="#000000" font-family="sans-serif" font-size="11" lengthAdjust="spacing" textLength="39" x="613.5" y="406.3247">ERROR,</text><text fill="#000000" font-family="sans-serif" font-size="11" lengthAdjust="spacing" textLength="35" x="613.5" y="421.3066">WARN,</text><text fill="#000000" font-family="sans-serif" font-size="11" lengthAdjust="spacing" textLength="30" x="613.5" y="436.2884">INFO,</text><text fill="#000000" font-family="sans-serif" font-size="11" lengthAdjust="spacing" textLength="40" x="613.5" y="451.2703">DEBUG,</text><text fill="#000000" font-family="sans-serif" font-size="11" lengthAdjust="spacing" textLength="36" x="613.5" y="466.2522">TRACE,</text><line style="stroke:#A80036;stroke-width:1.5;" x1="608.5" x2="687.5" y1="473.4752" y2="473.4752"/><!--MD5=[248f897e4bb16c2722904b15df30346f]
class Logger--><rect codeLine="14" fill="#FEFECE" filter="url(#fjrm3sb443bhb)" height="347.6378" id="Logger" style="stroke:#A80036;stroke-width:1.5;" width="494" x="55" y="542.602"/><ellipse cx="278.25" cy="558.602" fill="#ADD1B2" rx="11" ry="11" style="stroke:#A80036;stroke-width:1.0;"/><path d="M278.0469,565.3364 Q275.5625,565.3364 274.2344,563.6957 Q272.9219,562.0239 272.9219,558.9145 Q272.9219,555.7895 274.2344,554.1332 Q275.5625,552.477 278.0469,552.477 Q278.7656,552.477 279.4219,552.6332 Q280.0625,552.7895 280.625,553.0864 L280.625,555.8051 Q280.2656,555.4614 279.9688,555.2739 Q279.6719,555.0707 279.4063,554.9457 Q279.0938,554.8051 278.7813,554.7426 Q278.4844,554.6801 278.1719,554.6801 Q276.8438,554.6801 276.1563,555.7426 Q275.4688,556.8364 275.4688,558.9145 Q275.4688,561.0082 276.1563,562.0707 Q276.8438,563.1489 278.1719,563.1489 Q278.8125,563.1489 279.4063,562.8676 Q279.7031,562.7426 279.9844,562.5551 Q280.2813,562.352 280.625,562.0239 L280.625,564.7426 Q280.0469,565.0395 279.4063,565.1957 Q278.7813,565.3364 278.0469,565.3364 Z " fill="#000000"/><text fill="#000000" font-family="sans-serif" font-size="12" lengthAdjust="spacing" textLength="39" x="298.75" y="563.258">Logger</text><line style="stroke:#A80036;stroke-width:1.5;" x1="56" x2="548" y1="574.602" y2="574.602"/><line style="stroke:#A80036;stroke-width:1.5;" x1="56" x2="548" y1="582.602" y2="582.602"/><ellipse cx="66" cy="593.602" fill="#84BE84" rx="3" ry="3" style="stroke:#038048;stroke-width:1.0;"/><text fill="#000000" font-family="sans-serif" font-size="11" lengthAdjust="spacing" text-decoration="underline" textLength="372" x="75" y="598.3609">void init(constLogLevel logLevel = LogLevelFromEnvOr(LogLevel::Info))</text><ellipse cx="66" cy="608.5839" fill="#84BE84" rx="3" ry="3" style="stroke:#038048;stroke-width:1.0;"/><text fill="#000000" font-family="sans-serif" font-size="11" lengthAdjust="spacing" text-decoration="underline" textLength="145" x="75" y="613.3428">LogLevel minimalLogLevel()</text><ellipse cx="66" cy="623.5658" fill="#84BE84" rx="3" ry="3" style="stroke:#038048;stroke-width:1.0;"/><text fill="#000000" font-family="sans-serif" font-size="11" lengthAdjust="spacing" text-decoration="underline" textLength="115" x="75" y="628.3247">bool ignoreLogLevel()</text><ellipse cx="66" cy="638.5476" fill="#84BE84" rx="3" ry="3" style="stroke:#038048;stroke-width:1.0;"/><text fill="#000000" font-family="sans-serif" font-size="11" lengthAdjust="spacing" text-decoration="underline" textLength="120" x="75" y="643.3066">LogLevel getLogLevel()</text><ellipse cx="66" cy="653.5295" fill="#84BE84" rx="3" ry="3" style="stroke:#038048;stroke-width:1.0;"/><text fill="#000000" font-family="sans-serif" font-size="11" lengthAdjust="spacing" textLength="188" x="75" y="658.2884">void setLogLevel(LogLevel logLevel)</text><polygon fill="#FFFF44" points="66,663.5114,70,667.5114,66,671.5114,62,667.5114" style="stroke:#B38D22;stroke-width:1.0;"/><text fill="#000000" font-family="sans-serif" font-size="11" font-style="italic" lengthAdjust="spacing" textLength="182" x="75" y="673.2703">void initLoggerHook(LogLevel logLevel)</text><polygon fill="#FFFF44" points="66,678.4933,70,682.4933,66,686.4933,62,682.4933" style="stroke:#B38D22;stroke-width:1.0;"/><text fill="#000000" font-family="sans-serif" font-size="11" font-style="italic" lengthAdjust="spacing" textLength="468" x="75" y="688.2522">void setupNewLogMessage(const char* file, const int line, const char* function, LogLevel logLevel)</text><polygon fill="#FFFF44" points="66,693.4752,70,697.4752,66,701.4752,62,697.4752" style="stroke:#B38D22;stroke-width:1.0;"/><text fill="#000000" font-family="sans-serif" font-size="11" font-style="italic" lengthAdjust="spacing" textLength="53" x="75" y="703.2341">void flush()</text><polygon fill="#FFFF44" points="66,708.4571,70,712.4571,66,716.4571,62,712.4571" style="stroke:#B38D22;stroke-width:1.0;"/><text fill="#000000" font-family="sans-serif" font-size="11" lengthAdjust="spacing" textLength="192" x="75" y="718.216">void LogString(const char* message)</text><polygon fill="#FFFF44" points="66,723.439,70,727.439,66,731.439,62,727.439" style="stroke:#B38D22;stroke-width:1.0;"/><text fill="#000000" font-family="sans-serif" font-size="11" lengthAdjust="spacing" textLength="181" x="75" y="733.1979">void logI64Dec(const int64_t value)</text><polygon fill="#FFFF44" points="66,738.4209,70,742.4209,66,746.4209,62,742.4209" style="stroke:#B38D22;stroke-width:1.0;"/><text fill="#000000" font-family="sans-serif" font-size="11" lengthAdjust="spacing" textLength="192" x="75" y="748.1798">void logU64Dec(const uint64_t value)</text><polygon fill="#FFFF44" points="66,753.4027,70,757.4027,66,761.4027,62,757.4027" style="stroke:#B38D22;stroke-width:1.0;"/><text fill="#000000" font-family="sans-serif" font-size="11" lengthAdjust="spacing" textLength="193" x="75" y="763.1617">void logU64Hex(const uint64_t value)</text><polygon fill="#FFFF44" points="66,768.3846,70,772.3846,66,776.3846,62,772.3846" style="stroke:#B38D22;stroke-width:1.0;"/><text fill="#000000" font-family="sans-serif" font-size="11" lengthAdjust="spacing" textLength="191" x="75" y="778.1435">void logU64Oct(const uint64_t value)</text><polygon fill="#FFFF44" points="66,783.3665,70,787.3665,66,791.3665,62,787.3665" style="stroke:#B38D22;stroke-width:1.0;"/><text fill="#000000" font-family="sans-serif" font-size="11" lengthAdjust="spacing" textLength="159" x="75" y="793.1254">void logBool(const bool value)</text><polygon fill="#FFFF44" points="66,798.3484,70,802.3484,66,806.3484,62,802.3484" style="stroke:#B38D22;stroke-width:1.0;"/><text fill="#000000" font-family="sans-serif" font-size="11" lengthAdjust="spacing" textLength="161" x="75" y="808.1073">void logFloat(const float value)</text><polygon fill="#FFFF44" points="66,813.3303,70,817.3303,66,821.3303,62,817.3303" style="stroke:#B38D22;stroke-width:1.0;"/><text fill="#000000" font-family="sans-serif" font-size="11" lengthAdjust="spacing" textLength="186" x="75" y="823.0892">void logDouble(const double value)</text><polygon fill="#FFFF44" points="66,828.3122,70,832.3122,66,836.3122,62,832.3122" style="stroke:#B38D22;stroke-width:1.0;"/><text fill="#000000" font-family="sans-serif" font-size="11" lengthAdjust="spacing" textLength="240" x="75" y="838.0711">void logLongDouble(const long double value)</text><rect fill="#F24D5C" height="6" style="stroke:#C82930;stroke-width:1.0;" width="6" x="63" y="845.2941"/><text fill="#000000" font-family="sans-serif" font-size="11" lengthAdjust="spacing" textLength="181" x="75" y="853.053">void initLogger(LogLevel logLevel)</text><rect fill="#F24D5C" height="6" style="stroke:#C82930;stroke-width:1.0;" width="6" x="63" y="860.276"/><text fill="#000000" font-family="sans-serif" font-size="11" lengthAdjust="spacing" text-decoration="underline" textLength="90" x="75" y="868.0349">Logger&amp; get&lt;T&gt;()</text><rect fill="#F24D5C" height="6" style="stroke:#C82930;stroke-width:1.0;" width="6" x="63" y="875.2579"/><text fill="#000000" font-family="sans-serif" font-size="11" lengthAdjust="spacing" text-decoration="underline" textLength="294" x="75" y="883.0168">Logger* activeLogger&lt;T&gt;(Logger* newLogger = nullptr)</text><!--MD5=[ef6e0fb57396685d3eab884a2ccd12ec]
class ConsoleLogger--><rect codeLine="37" fill="#FEFECE" filter="url(#fjrm3sb443bhb)" height="92.9457" id="ConsoleLogger" style="stroke:#A80036;stroke-width:1.5;" width="540" x="32" y="358.602"/><ellipse cx="255.75" cy="374.602" fill="#ADD1B2" rx="11" ry="11" style="stroke:#A80036;stroke-width:1.0;"/><path d="M255.5469,381.3364 Q253.0625,381.3364 251.7344,379.6957 Q250.4219,378.0239 250.4219,374.9145 Q250.4219,371.7895 251.7344,370.1332 Q253.0625,368.477 255.5469,368.477 Q256.2656,368.477 256.9219,368.6332 Q257.5625,368.7895 258.125,369.0864 L258.125,371.8051 Q257.7656,371.4614 257.4688,371.2739 Q257.1719,371.0707 256.9063,370.9457 Q256.5938,370.8051 256.2813,370.7426 Q255.9844,370.6801 255.6719,370.6801 Q254.3438,370.6801 253.6563,371.7426 Q252.9688,372.8364 252.9688,374.9145 Q252.9688,377.0082 253.6563,378.0707 Q254.3438,379.1489 255.6719,379.1489 Q256.3125,379.1489 256.9063,378.8676 Q257.2031,378.7426 257.4844,378.5551 Q257.7813,378.352 258.125,378.0239 L258.125,380.7426 Q257.5469,381.0395 256.9063,381.1957 Q256.2813,381.3364 255.5469,381.3364 Z " fill="#000000"/><text fill="#000000" font-family="sans-serif" font-size="12" lengthAdjust="spacing" textLength="84" x="276.25" y="379.258">ConsoleLogger</text><line style="stroke:#A80036;stroke-width:1.5;" x1="33" x2="571" y1="390.602" y2="390.602"/><line style="stroke:#A80036;stroke-width:1.5;" x1="33" x2="571" y1="398.602" y2="398.602"/><polygon fill="#FFFF44" points="43,404.602,47,408.602,43,412.602,39,408.602" style="stroke:#B38D22;stroke-width:1.0;"/><text fill="#000000" font-family="sans-serif" font-size="11" lengthAdjust="spacing" textLength="86" x="52" y="414.3609">ConsoleLogger()</text><polygon fill="#FFFF44" points="43,419.5839,47,423.5839,43,427.5839,39,423.5839" style="stroke:#B38D22;stroke-width:1.0;"/><text fill="#000000" font-family="sans-serif" font-size="11" lengthAdjust="spacing" textLength="514" x="52" y="429.3428">void setupNewLogMessage(const char* file, const int line, const char* function, LogLevel logLevel)</text><polygon fill="#FFFF44" points="43,434.5658,47,438.5658,43,442.5658,39,438.5658" style="stroke:#B38D22;stroke-width:1.0;"/><text fill="#000000" font-family="sans-serif" font-size="11" lengthAdjust="spacing" textLength="58" x="52" y="444.3247">void flush()</text><!--MD5=[3e060780261fb8a0ee240911acbc75b8]
class TestingLogger--><rect codeLine="47" fill="#FEFECE" filter="url(#fjrm3sb443bhb)" height="152.8732" id="TestingLogger" style="stroke:#A80036;stroke-width:1.5;" width="242" x="181" y="66.602"/><ellipse cx="257.75" cy="82.602" fill="#ADD1B2" rx="11" ry="11" style="stroke:#A80036;stroke-width:1.0;"/><path d="M257.5469,89.3364 Q255.0625,89.3364 253.7344,87.6957 Q252.4219,86.0239 252.4219,82.9145 Q252.4219,79.7895 253.7344,78.1332 Q255.0625,76.477 257.5469,76.477 Q258.2656,76.477 258.9219,76.6332 Q259.5625,76.7895 260.125,77.0864 L260.125,79.8051 Q259.7656,79.4614 259.4688,79.2739 Q259.1719,79.0707 258.9063,78.9457 Q258.5938,78.8051 258.2813,78.7426 Q257.9844,78.6801 257.6719,78.6801 Q256.3438,78.6801 255.6563,79.7426 Q254.9688,80.8364 254.9688,82.9145 Q254.9688,85.0082 255.6563,86.0707 Q256.3438,87.1489 257.6719,87.1489 Q258.3125,87.1489 258.9063,86.8676 Q259.2031,86.7426 259.4844,86.5551 Q259.7813,86.352 260.125,86.0239 L260.125,88.7426 Q259.5469,89.0395 258.9063,89.1957 Q258.2813,89.3364 257.5469,89.3364 Z " fill="#000000"/><text fill="#000000" font-family="sans-serif" font-size="12" lengthAdjust="spacing" textLength="80" x="278.25" y="87.258">TestingLogger</text><line style="stroke:#A80036;stroke-width:1.5;" x1="182" x2="422" y1="98.602" y2="98.602"/><line style="stroke:#A80036;stroke-width:1.5;" x1="182" x2="422" y1="106.602" y2="106.602"/><ellipse cx="192" cy="117.602" fill="#84BE84" rx="3" ry="3" style="stroke:#038048;stroke-width:1.0;"/><text fill="#000000" font-family="sans-serif" font-size="11" lengthAdjust="spacing" text-decoration="underline" textLength="49" x="201" y="122.3609">void init()</text><ellipse cx="192" cy="132.5839" fill="#84BE84" rx="3" ry="3" style="stroke:#038048;stroke-width:1.0;"/><text fill="#000000" font-family="sans-serif" font-size="11" lengthAdjust="spacing" text-decoration="underline" textLength="194" x="201" y="137.3428">uint64_t getNumberOfLogMessages()</text><ellipse cx="192" cy="147.5658" fill="#84BE84" rx="3" ry="3" style="stroke:#038048;stroke-width:1.0;"/><text fill="#000000" font-family="sans-serif" font-size="11" lengthAdjust="spacing" text-decoration="underline" textLength="216" x="201" y="152.3247">std::vector&lt;std::string&gt; getLogMessages()</text><ellipse cx="192" cy="162.5476" fill="#84BE84" rx="3" ry="3" style="stroke:#038048;stroke-width:1.0;"/><text fill="#000000" font-family="sans-serif" font-size="11" lengthAdjust="spacing" textLength="110" x="201" y="167.3066">void clearLogBuffer()</text><ellipse cx="192" cy="177.5295" fill="#84BE84" rx="3" ry="3" style="stroke:#038048;stroke-width:1.0;"/><text fill="#000000" font-family="sans-serif" font-size="11" lengthAdjust="spacing" textLength="111" x="201" y="182.2884">void printLogBuffer()</text><rect fill="#F24D5C" height="6" style="stroke:#C82930;stroke-width:1.0;" width="6" x="189" y="189.5114"/><text fill="#000000" font-family="sans-serif" font-size="11" lengthAdjust="spacing" textLength="108" x="201" y="197.2703">void TestingLogger()</text><rect fill="#F24D5C" height="6" style="stroke:#C82930;stroke-width:1.0;" width="6" x="189" y="204.4933"/><text fill="#000000" font-family="sans-serif" font-size="11" lengthAdjust="spacing" textLength="58" x="201" y="212.2522">void flush()</text><!--MD5=[f140418cf171f2c7428fce2c4800c365]
class LogHex--><rect codeLine="61" fill="#FEFECE" filter="url(#fjrm3sb443bhb)" height="48" id="LogHex" style="stroke:#A80036;stroke-width:1.5;" width="84" x="731" y="1077.602"/><ellipse cx="746" cy="1093.602" fill="#ADD1B2" rx="11" ry="11" style="stroke:#A80036;stroke-width:1.0;"/><path d="M745.7969,1100.3364 Q743.3125,1100.3364 741.9844,1098.6957 Q740.6719,1097.0239 740.6719,1093.9145 Q740.6719,1090.7895 741.9844,1089.1332 Q743.3125,1087.477 745.7969,1087.477 Q746.5156,1087.477 747.1719,1087.6332 Q747.8125,1087.7895 748.375,1088.0864 L748.375,1090.8051 Q748.0156,1090.4614 747.7188,1090.2739 Q747.4219,1090.0707 747.1563,1089.9457 Q746.8438,1089.8051 746.5313,1089.7426 Q746.2344,1089.6801 745.9219,1089.6801 Q744.5938,1089.6801 743.9063,1090.7426 Q743.2188,1091.8364 743.2188,1093.9145 Q743.2188,1096.0082 743.9063,1097.0707 Q744.5938,1098.1489 745.9219,1098.1489 Q746.5625,1098.1489 747.1563,1097.8676 Q747.4531,1097.7426 747.7344,1097.5551 Q748.0313,1097.352 748.375,1097.0239 L748.375,1099.7426 Q747.7969,1100.0395 747.1563,1100.1957 Q746.5313,1100.3364 745.7969,1100.3364 Z " fill="#000000"/><text fill="#000000" font-family="sans-serif" font-size="12" lengthAdjust="spacing" textLength="42" x="760" y="1098.258">LogHex</text><rect fill="#EEEBDC" height="18.3441" style="stroke:#000000;stroke-width:1.0;stroke-dasharray:2.0,2.0;" width="8" x="810" y="1074.602"/><text fill="#000000" font-family="sans-serif" font-size="12" font-style="italic" lengthAdjust="spacing" textLength="6" x="811" y="1088.4301">T</text><line style="stroke:#A80036;stroke-width:1.5;" x1="732" x2="814" y1="1109.602" y2="1109.602"/><line style="stroke:#A80036;stroke-width:1.5;" x1="732" x2="814" y1="1117.602" y2="1117.602"/><!--MD5=[695d6075a3a6e2de02d16b9ff239c01e]
class LogOct--><rect codeLine="63" fill="#FEFECE" filter="url(#fjrm3sb443bhb)" height="48" id="LogOct" style="stroke:#A80036;stroke-width:1.5;" width="81" x="614.5" y="1077.602"/><ellipse cx="629.5" cy="1093.602" fill="#ADD1B2" rx="11" ry="11" style="stroke:#A80036;stroke-width:1.0;"/><path d="M629.2969,1100.3364 Q626.8125,1100.3364 625.4844,1098.6957 Q624.1719,1097.0239 624.1719,1093.9145 Q624.1719,1090.7895 625.4844,1089.1332 Q626.8125,1087.477 629.2969,1087.477 Q630.0156,1087.477 630.6719,1087.6332 Q631.3125,1087.7895 631.875,1088.0864 L631.875,1090.8051 Q631.5156,1090.4614 631.2188,1090.2739 Q630.9219,1090.0707 630.6563,1089.9457 Q630.3438,1089.8051 630.0313,1089.7426 Q629.7344,1089.6801 629.4219,1089.6801 Q628.0938,1089.6801 627.4063,1090.7426 Q626.7188,1091.8364 626.7188,1093.9145 Q626.7188,1096.0082 627.4063,1097.0707 Q628.0938,1098.1489 629.4219,1098.1489 Q630.0625,1098.1489 630.6563,1097.8676 Q630.9531,1097.7426 631.2344,1097.5551 Q631.5313,1097.352 631.875,1097.0239 L631.875,1099.7426 Q631.2969,1100.0395 630.6563,1100.1957 Q630.0313,1100.3364 629.2969,1100.3364 Z " fill="#000000"/><text fill="#000000" font-family="sans-serif" font-size="12" lengthAdjust="spacing" textLength="39" x="643.5" y="1098.258">LogOct</text><rect fill="#EEEBDC" height="18.3441" style="stroke:#000000;stroke-width:1.0;stroke-dasharray:2.0,2.0;" width="8" x="690.5" y="1074.602"/><text fill="#000000" font-family="sans-serif" font-size="12" font-style="italic" lengthAdjust="spacing" textLength="6" x="691.5" y="1088.4301">T</text><line style="stroke:#A80036;stroke-width:1.5;" x1="615.5" x2="694.5" y1="1109.602" y2="1109.602"/><line style="stroke:#A80036;stroke-width:1.5;" x1="615.5" x2="694.5" y1="1117.602" y2="1117.602"/><!--MD5=[5d68a8d24c5e12d346c59c060771c23e]
class LogStream--><rect codeLine="65" fill="#FEFECE" filter="url(#fjrm3sb443bhb)" height="167.8551" id="LogStream" style="stroke:#A80036;stroke-width:1.5;" width="454" x="75" y="1017.602"/><ellipse cx="267.25" cy="1033.602" fill="#ADD1B2" rx="11" ry="11" style="stroke:#A80036;stroke-width:1.0;"/><path d="M267.0469,1040.3364 Q264.5625,1040.3364 263.2344,1038.6957 Q261.9219,1037.0239 261.9219,1033.9145 Q261.9219,1030.7895 263.2344,1029.1332 Q264.5625,1027.477 267.0469,1027.477 Q267.7656,1027.477 268.4219,1027.6332 Q269.0625,1027.7895 269.625,1028.0864 L269.625,1030.8051 Q269.2656,1030.4614 268.9688,1030.2739 Q268.6719,1030.0707 268.4063,1029.9457 Q268.0938,1029.8051 267.7813,1029.7426 Q267.4844,1029.6801 267.1719,1029.6801 Q265.8438,1029.6801 265.1563,1030.7426 Q264.4688,1031.8364 264.4688,1033.9145 Q264.4688,1036.0082 265.1563,1037.0707 Q265.8438,1038.1489 267.1719,1038.1489 Q267.8125,1038.1489 268.4063,1037.8676 Q268.7031,1037.7426 268.9844,1037.5551 Q269.2813,1037.352 269.625,1037.0239 L269.625,1039.7426 Q269.0469,1040.0395 268.4063,1040.1957 Q267.7813,1040.3364 267.0469,1040.3364 Z " fill="#000000"/><text fill="#000000" font-family="sans-serif" font-size="12" lengthAdjust="spacing" textLength="61" x="287.75" y="1038.258">LogStream</text><line style="stroke:#A80036;stroke-width:1.5;" x1="76" x2="528" y1="1049.602" y2="1049.602"/><line style="stroke:#A80036;stroke-width:1.5;" x1="76" x2="528" y1="1057.602" y2="1057.602"/><ellipse cx="86" cy="1068.602" fill="#84BE84" rx="3" ry="3" style="stroke:#038048;stroke-width:1.0;"/><text fill="#000000" font-family="sans-serif" font-size="11" lengthAdjust="spacing" textLength="428" x="95" y="1073.3609">LogStream(const char* file, const int line, const char* function, LogLevel logLevel)</text><ellipse cx="86" cy="1083.5839" fill="#84BE84" rx="3" ry="3" style="stroke:#038048;stroke-width:1.0;"/><text fill="#000000" font-family="sans-serif" font-size="11" lengthAdjust="spacing" textLength="58" x="95" y="1088.3428">void flush()</text><ellipse cx="86" cy="1098.5658" fill="#84BE84" rx="3" ry="3" style="stroke:#038048;stroke-width:1.0;"/><text fill="#000000" font-family="sans-serif" font-size="11" lengthAdjust="spacing" textLength="92" x="95" y="1103.3247">LogStream&amp; self()</text><ellipse cx="86" cy="1113.5476" fill="#84BE84" rx="3" ry="3" style="stroke:#038048;stroke-width:1.0;"/><text fill="#000000" font-family="sans-serif" font-size="11" lengthAdjust="spacing" textLength="215" x="95" y="1118.3066">LogStream&amp; operator&lt;&lt;(const char* cstr)</text><ellipse cx="86" cy="1128.5295" fill="#84BE84" rx="3" ry="3" style="stroke:#038048;stroke-width:1.0;"/><text fill="#000000" font-family="sans-serif" font-size="11" lengthAdjust="spacing" textLength="201" x="95" y="1133.2884">LogStream&amp; operator&lt;&lt;(const T value)</text><ellipse cx="86" cy="1143.5114" fill="#84BE84" rx="3" ry="3" style="stroke:#038048;stroke-width:1.0;"/><text fill="#000000" font-family="sans-serif" font-size="11" lengthAdjust="spacing" textLength="269" x="95" y="1148.2703">LogStream&amp; operator&lt;&lt;(const LogHex&lt;T&gt;&amp;&amp; value)</text><ellipse cx="86" cy="1158.4933" fill="#84BE84" rx="3" ry="3" style="stroke:#038048;stroke-width:1.0;"/><text fill="#000000" font-family="sans-serif" font-size="11" lengthAdjust="spacing" textLength="267" x="95" y="1163.2522">LogStream&amp; operator&lt;&lt;(const LogOct&lt;T&gt;&amp;&amp; value)</text><ellipse cx="86" cy="1173.4752" fill="#84BE84" rx="3" ry="3" style="stroke:#038048;stroke-width:1.0;"/><text fill="#000000" font-family="sans-serif" font-size="11" lengthAdjust="spacing" textLength="229" x="95" y="1178.2341">LogStream&amp; operator&lt;&lt;(const Callable&amp;&amp; c)</text><!--MD5=[0272843132662a3ea37186442453b16c]
link ConsoleLogger to Logger--><path codeLine="78" d="M302,451.772 C302,471.532 302,496.132 302,522.292 " fill="none" id="ConsoleLogger-to-Logger" style="stroke:#A80036;stroke-width:1.0;"/><polygon fill="none" points="309,522.552,302,542.552,295,522.552,309,522.552" style="stroke:#A80036;stroke-width:1.0;"/><!--MD5=[d2d2f88770c9b1d0c333ed82df88579a]
link TestingLogger to ConsoleLogger--><path codeLine="79" d="M302,219.652 C302,257.252 302,302.272 302,338.422 " fill="none" id="TestingLogger-to-ConsoleLogger" style="stroke:#A80036;stroke-width:1.0;"/><polygon fill="none" points="309,338.552,302,358.552,295,338.552,309,338.552" style="stroke:#A80036;stroke-width:1.0;"/><!--MD5=[6c907600424efbd7a4ff3a07f2132e44]
reverse link Logger to LogStream--><path codeLine="80" d="M302,895.792 C302,938.262 302,981.602 302,1017.422 " fill="none" id="Logger-backto-LogStream" style="stroke:#A80036;stroke-width:1.0;stroke-dasharray:7.0,7.0;"/><polygon fill="#A80036" points="302,890.612,298,899.612,302,895.612,306,899.612,302,890.612" style="stroke:#A80036;stroke-width:1.0;"/><text fill="#000000" font-family="sans-serif" font-size="13" lengthAdjust="spacing" textLength="49" x="303" y="937.499">«friend»</text><!--MD5=[2fb7a5e241c0e35b0278a2ff37c4a2d6]
link LogStream to LogHex--><path codeLine="81" d="M441.19,1017.602 C488.88,993.252 543.69,969.922 597,957.602 C647.23,945.992 670.1,929.002 713,957.602 C751.18,983.052 765.11,1037.892 770.16,1072.072 " fill="none" id="LogStream-to-LogHex" style="stroke:#A80036;stroke-width:1.0;stroke-dasharray:7.0,7.0;"/><polygon fill="#A80036" points="770.89,1077.372,773.6191,1067.9088,770.2049,1072.4191,765.6945,1069.005,770.89,1077.372" style="stroke:#A80036;stroke-width:1.0;"/><text fill="#000000" font-family="sans-serif" font-size="13" lengthAdjust="spacing" textLength="49" x="605.5" y="937.499">«friend»</text><!--MD5=[2b8982e2d7fa604e14e3be9001eaf219]
link LogStream to LogOct--><path codeLine="82" d="M529.05,1101.602 C559.29,1101.602 587.36,1101.602 609.29,1101.602 " fill="none" id="LogStream-to-LogOct" style="stroke:#A80036;stroke-width:1.0;stroke-dasharray:7.0,7.0;"/><polygon fill="#A80036" points="614.44,1101.602,605.44,1097.602,609.44,1101.602,605.44,1105.602,614.44,1101.602" style="stroke:#A80036;stroke-width:1.0;"/><text fill="#000000" font-family="sans-serif" font-size="13" lengthAdjust="spacing" textLength="49" x="547.25" y="1094.499">«friend»</text></g></svg>