<?xml version="1.0" encoding="UTF-8" standalone="no"?><svg xmlns="http://www.w3.org/2000/svg" xmlns:xlink="http://www.w3.org/1999/xlink" contentScriptType="application/ecmascript" contentStyleType="text/css" height="939px" preserveAspectRatio="none" style="width:896px;height:939px;background:#EEEBDC;" version="1.1" viewBox="0 0 896 939" width="896px" zoomAndPan="magnify"><defs><filter height="300%" id="fc2fjflvty7co" width="300%" x="-1" y="-1"><feGaussianBlur result="blurOut" stdDeviation="2.0"/><feColorMatrix in="blurOut" result="blurOut2" type="matrix" values="0 0 0 0 0 0 0 0 0 0 0 0 0 0 0 0 0 0 .4 0"/><feOffset dx="4.0" dy="4.0" in="blurOut2" result="blurOut3"/><feBlend in="SourceGraphic" in2="blurOut3" mode="normal"/></filter></defs><g><rect fill="#FFFFFF" filter="url(#fc2fjflvty7co)" height="760.2562" style="stroke:#A80036;stroke-width:1.0;" width="10" x="101.5" y="95.8419"/><rect fill="#FFFFFF" filter="url(#fc2fjflvty7co)" height="385.9521" style="stroke:#A80036;stroke-width:1.0;" width="10" x="307.5" y="175.6158"/><rect fill="#FFFFFF" filter="url(#fc2fjflvty7co)" height="248.8241" style="stroke:#A80036;stroke-width:1.0;" width="10" x="307.5" y="593.2739"/><rect fill="#FFFFFF" filter="url(#fc2fjflvty7co)" height="340.2461" style="stroke:#A80036;stroke-width:1.0;" width="10" x="494.5" y="207.3218"/><rect fill="#FFFFFF" filter="url(#fc2fjflvty7co)" height="85.706" style="stroke:#A80036;stroke-width:1.0;" width="10" x="494.5" y="624.98"/><rect fill="#FFFFFF" filter="url(#fc2fjflvty7co)" height="25" style="stroke:#A80036;stroke-width:1.0;" width="10" x="499.5" y="664.686"/><rect fill="#FFFFFF" filter="url(#fc2fjflvty7co)" height="85.706" style="stroke:#A80036;stroke-width:1.0;" width="10" x="619" y="742.392"/><rect fill="#FFFFFF" filter="url(#fc2fjflvty7co)" height="25" style="stroke:#A80036;stroke-width:1.0;" width="10" x="624" y="782.098"/><line style="stroke:#A80036;stroke-width:1.0;stroke-dasharray:5.0,5.0;" x1="29" x2="29" y1="62.1358" y2="874.098"/><line style="stroke:#A80036;stroke-width:1.0;stroke-dasharray:5.0,5.0;" x1="106" x2="106" y1="62.1358" y2="874.098"/><line style="stroke:#A80036;stroke-width:1.0;stroke-dasharray:5.0,5.0;" x1="312" x2="312" y1="62.1358" y2="874.098"/><line style="stroke:#A80036;stroke-width:1.0;stroke-dasharray:5.0,5.0;" x1="499" x2="499" y1="62.1358" y2="874.098"/><line style="stroke:#A80036;stroke-width:1.0;stroke-dasharray:5.0,5.0;" x1="624" x2="624" y1="137.8758" y2="874.098"/><line style="stroke:#A80036;stroke-width:1.0;stroke-dasharray:5.0,5.0;" x1="801" x2="801" y1="344.1798" y2="874.098"/><rect fill="#FEFECE" filter="url(#fc2fjflvty7co)" height="33.0679" style="stroke:#A80036;stroke-width:1.5;" width="45" x="5" y="24.0679"/><text fill="#000000" font-family="sans-serif" font-size="14" lengthAdjust="spacing" textLength="31" x="12" y="46.0339">User</text><rect fill="#FEFECE" filter="url(#fc2fjflvty7co)" height="33.0679" style="stroke:#A80036;stroke-width:1.5;" width="45" x="5" y="873.098"/><text fill="#000000" font-family="sans-serif" font-size="14" lengthAdjust="spacing" textLength="31" x="12" y="895.0639">User</text><rect fill="#FEFECE" filter="url(#fc2fjflvty7co)" height="52.1358" style="stroke:#A80036;stroke-width:1.5;" width="81" x="64" y="5"/><text fill="#000000" font-family="sans-serif" font-size="14" font-style="italic" lengthAdjust="spacing" textLength="48" x="80.5" y="26.9659">«static»</text><text fill="#000000" font-family="sans-serif" font-size="14" lengthAdjust="spacing" textLength="67" x="71" y="46.0339">MyLogger</text><rect fill="#FEFECE" filter="url(#fc2fjflvty7co)" height="52.1358" style="stroke:#A80036;stroke-width:1.5;" width="81" x="64" y="873.098"/><text fill="#000000" font-family="sans-serif" font-size="14" font-style="italic" lengthAdjust="spacing" textLength="48" x="80.5" y="895.0639">«static»</text><text fill="#000000" font-family="sans-serif" font-size="14" lengthAdjust="spacing" textLength="67" x="71" y="914.1319">MyLogger</text><rect fill="#FEFECE" filter="url(#fc2fjflvty7co)" height="52.1358" style="stroke:#A80036;stroke-width:1.5;" width="107" x="257" y="5"/><text fill="#000000" font-family="sans-serif" font-size="14" font-style="italic" lengthAdjust="spacing" textLength="93" x="264" y="26.9659">«free function»</text><text fill="#000000" font-family="sans-serif" font-size="14" lengthAdjust="spacing" textLength="48" x="286.5" y="46.0339">iox::log</text><rect fill="#FEFECE" filter="url(#fc2fjflvty7co)" height="52.1358" style="stroke:#A80036;stroke-width:1.5;" width="107" x="257" y="873.098"/><text fill="#000000" font-family="sans-serif" font-size="14" font-style="italic" lengthAdjust="spacing" textLength="93" x="264" y="895.0639">«free function»</text><text fill="#000000" font-family="sans-serif" font-size="14" lengthAdjust="spacing" textLength="48" x="286.5" y="914.1319">iox::log</text><rect fill="#FEFECE" filter="url(#fc2fjflvty7co)" height="33.0679" style="stroke:#A80036;stroke-width:1.5;" width="61" x="467" y="24.0679"/><text fill="#000000" font-family="sans-serif" font-size="14" lengthAdjust="spacing" textLength="47" x="474" y="46.0339">Logger</text><rect fill="#FEFECE" filter="url(#fc2fjflvty7co)" height="33.0679" style="stroke:#A80036;stroke-width:1.5;" width="61" x="467" y="873.098"/><text fill="#000000" font-family="sans-serif" font-size="14" lengthAdjust="spacing" textLength="47" x="474" y="895.0639">Logger</text><rect fill="#FEFECE" filter="url(#fc2fjflvty7co)" height="33.0679" style="stroke:#A80036;stroke-width:1.5;" width="160" x="542" y="873.098"/><text fill="#000000" font-family="sans-serif" font-size="14" lengthAdjust="spacing" textLength="146" x="549" y="895.0639">myLogger : MyLogger</text><rect fill="#FEFECE" filter="url(#fc2fjflvty7co)" height="33.0679" style="stroke:#A80036;stroke-width:1.5;" width="166" x="716" y="873.098"/><text fill="#000000" font-family="sans-serif" font-size="14" lengthAdjust="spacing" textLength="152" x="723" y="895.0639">logger : DefaultLogger</text><rect fill="#FFFFFF" filter="url(#fc2fjflvty7co)" height="760.2562" style="stroke:#A80036;stroke-width:1.0;" width="10" x="101.5" y="95.8419"/><rect fill="#FFFFFF" filter="url(#fc2fjflvty7co)" height="385.9521" style="stroke:#A80036;stroke-width:1.0;" width="10" x="307.5" y="175.6158"/><rect fill="#FFFFFF" filter="url(#fc2fjflvty7co)" height="248.8241" style="stroke:#A80036;stroke-width:1.0;" width="10" x="307.5" y="593.2739"/><rect fill="#FFFFFF" filter="url(#fc2fjflvty7co)" height="340.2461" style="stroke:#A80036;stroke-width:1.0;" width="10" x="494.5" y="207.3218"/><rect fill="#FFFFFF" filter="url(#fc2fjflvty7co)" height="85.706" style="stroke:#A80036;stroke-width:1.0;" width="10" x="494.5" y="624.98"/><rect fill="#FFFFFF" filter="url(#fc2fjflvty7co)" height="25" style="stroke:#A80036;stroke-width:1.0;" width="10" x="499.5" y="664.686"/><rect fill="#FFFFFF" filter="url(#fc2fjflvty7co)" height="85.706" style="stroke:#A80036;stroke-width:1.0;" width="10" x="619" y="742.392"/><rect fill="#FFFFFF" filter="url(#fc2fjflvty7co)" height="25" style="stroke:#A80036;stroke-width:1.0;" width="10" x="624" y="782.098"/><polygon fill="#A80036" points="89.5,91.8419,99.5,95.8419,89.5,99.8419,93.5,95.8419" style="stroke:#A80036;stroke-width:1.0;"/><line style="stroke:#A80036;stroke-width:1.0;" x1="29.5" x2="95.5" y1="95.8419" y2="95.8419"/><text fill="#000000" font-family="sans-serif" font-size="13" lengthAdjust="spacing" textLength="19" x="36.5" y="90.0328">init</text><polygon fill="#A80036" points="530,105.8419,540,109.8419,530,113.8419,534,109.8419" style="stroke:#A80036;stroke-width:1.0;"/><line style="stroke:#A80036;stroke-width:1.0;" x1="111.5" x2="536" y1="109.8419" y2="109.8419"/><rect fill="#FEFECE" filter="url(#fc2fjflvty7co)" height="33.0679" style="stroke:#A80036;stroke-width:1.5;" width="160" x="542" y="103.8419"/><text fill="#000000" font-family="sans-serif" font-size="14" lengthAdjust="spacing" textLength="146" x="549" y="125.8078">myLogger : MyLogger</text><polygon fill="#A80036" points="295.5,171.6158,305.5,175.6158,295.5,179.6158,299.5,175.6158" style="stroke:#A80036;stroke-width:1.0;"/><line style="stroke:#A80036;stroke-width:1.0;" x1="111.5" x2="301.5" y1="175.6158" y2="175.6158"/><text fill="#000000" font-family="sans-serif" font-size="13" lengthAdjust="spacing" textLength="177" x="118.5" y="169.8068">setActiveLogger(&amp;myLogger)</text><polygon fill="#A80036" points="482.5,203.3218,492.5,207.3218,482.5,211.3218,486.5,207.3218" style="stroke:#A80036;stroke-width:1.0;"/><line style="stroke:#A80036;stroke-width:1.0;" x1="317.5" x2="488.5" y1="207.3218" y2="207.3218"/><text fill="#000000" font-family="sans-serif" font-size="13" lengthAdjust="spacing" textLength="158" x="324.5" y="201.5128">activeLogger(&amp;myLogger)</text><path d="M348,220.3218 L348,300.3218 L485,300.3218 L485,230.3218 L475,220.3218 L348,220.3218 " fill="#FBFB77" filter="url(#fc2fjflvty7co)" style="stroke:#A80036;stroke-width:1.0;"/><path d="M475,220.3218 L475,230.3218 L485,230.3218 L475,220.3218 " fill="#FBFB77" style="stroke:#A80036;stroke-width:1.0;"/><text fill="#000000" font-family="sans-serif" font-size="13" lengthAdjust="spacing" textLength="102" x="354" y="239.2188">the static pointer</text><text fill="#000000" font-family="sans-serif" font-size="13" lengthAdjust="spacing" textLength="116" x="354" y="256.9248">to the active logger</text><text fill="#000000" font-family="sans-serif" font-size="13" lengthAdjust="spacing" textLength="74" x="354" y="274.6308">will be set to</text><text fill="#000000" font-family="sans-serif" font-size="13" lengthAdjust="spacing" textLength="62" x="354" y="292.3369">myLogger</text><polygon fill="#A80036" points="704,312.1459,714,316.1459,704,320.1459,708,316.1459" style="stroke:#A80036;stroke-width:1.0;"/><line style="stroke:#A80036;stroke-width:1.0;" x1="504.5" x2="710" y1="316.1459" y2="316.1459"/><rect fill="#FEFECE" filter="url(#fc2fjflvty7co)" height="33.0679" style="stroke:#A80036;stroke-width:1.5;" width="166" x="716" y="310.1459"/><text fill="#000000" font-family="sans-serif" font-size="14" lengthAdjust="spacing" textLength="152" x="723" y="332.1118">logger : DefaultLogger</text><path d="M721,363.2138 L721,532.2138 L876,532.2138 L876,373.2138 L866,363.2138 L721,363.2138 " fill="#FBFB77" filter="url(#fc2fjflvty7co)" style="stroke:#A80036;stroke-width:1.0;"/><path d="M866,363.2138 L866,373.2138 L876,373.2138 L866,363.2138 " fill="#FBFB77" style="stroke:#A80036;stroke-width:1.0;"/><text fill="#000000" font-family="sans-serif" font-size="13" lengthAdjust="spacing" textLength="119" x="727" y="382.1108">calling activeLogger</text><text fill="#000000" font-family="sans-serif" font-size="13" lengthAdjust="spacing" textLength="113" x="727" y="399.8168">without parameter</text><text fill="#000000" font-family="sans-serif" font-size="13" lengthAdjust="spacing" textLength="133" x="727" y="417.5228">will create this anyway</text><text fill="#000000" font-family="sans-serif" font-size="13" lengthAdjust="spacing" textLength="134" x="727" y="435.2288">(e.g. by logging before</text><text fill="#000000" font-family="sans-serif" font-size="13" lengthAdjust="spacing" textLength="107" x="727" y="452.9349">calling initLogger)</text><text fill="#000000" font-family="sans-serif" font-size="13" lengthAdjust="spacing" textLength="113" x="727" y="470.6409">so there is no need</text><text fill="#000000" font-family="sans-serif" font-size="13" lengthAdjust="spacing" textLength="111" x="727" y="488.3469">to to make it more</text><text fill="#000000" font-family="sans-serif" font-size="13" lengthAdjust="spacing" textLength="91" x="727" y="506.0529">complicated by</text><text fill="#000000" font-family="sans-serif" font-size="13" lengthAdjust="spacing" textLength="61" x="727" y="523.7589">branching</text><polygon fill="#A80036" points="328.5,543.5679,318.5,547.5679,328.5,551.5679,324.5,547.5679" style="stroke:#A80036;stroke-width:1.0;"/><line style="stroke:#A80036;stroke-width:1.0;stroke-dasharray:2.0,2.0;" x1="322.5" x2="498.5" y1="547.5679" y2="547.5679"/><polygon fill="#A80036" points="122.5,557.5679,112.5,561.5679,122.5,565.5679,118.5,561.5679" style="stroke:#A80036;stroke-width:1.0;"/><line style="stroke:#A80036;stroke-width:1.0;stroke-dasharray:2.0,2.0;" x1="116.5" x2="311.5" y1="561.5679" y2="561.5679"/><polygon fill="#A80036" points="295.5,589.2739,305.5,593.2739,295.5,597.2739,299.5,593.2739" style="stroke:#A80036;stroke-width:1.0;"/><line style="stroke:#A80036;stroke-width:1.0;" x1="111.5" x2="301.5" y1="593.2739" y2="593.2739"/><text fill="#000000" font-family="sans-serif" font-size="13" lengthAdjust="spacing" textLength="62" x="118.5" y="587.4649">initLogger</text><polygon fill="#A80036" points="482.5,620.98,492.5,624.98,482.5,628.98,486.5,624.98" style="stroke:#A80036;stroke-width:1.0;"/><line style="stroke:#A80036;stroke-width:1.0;" x1="317.5" x2="488.5" y1="624.98" y2="624.98"/><text fill="#000000" font-family="sans-serif" font-size="13" lengthAdjust="spacing" textLength="136" x="324.5" y="619.171">getLogger &lt;&lt;private&gt;&gt;</text><line style="stroke:#A80036;stroke-width:1.0;" x1="504.5" x2="551.5" y1="651.686" y2="651.686"/><line style="stroke:#A80036;stroke-width:1.0;" x1="551.5" x2="551.5" y1="651.686" y2="664.686"/><line style="stroke:#A80036;stroke-width:1.0;" x1="510.5" x2="551.5" y1="664.686" y2="664.686"/><polygon fill="#A80036" points="520.5,660.686,510.5,664.686,520.5,668.686,516.5,664.686" style="stroke:#A80036;stroke-width:1.0;"/><text fill="#000000" font-family="sans-serif" font-size="13" lengthAdjust="spacing" textLength="86" x="516.5" y="645.877">activeLogger()</text><line style="stroke:#A80036;stroke-width:1.0;stroke-dasharray:2.0,2.0;" x1="509.5" x2="551.5" y1="688.686" y2="688.686"/><line style="stroke:#A80036;stroke-width:1.0;stroke-dasharray:2.0,2.0;" x1="551.5" x2="551.5" y1="688.686" y2="701.686"/><line style="stroke:#A80036;stroke-width:1.0;stroke-dasharray:2.0,2.0;" x1="504.5" x2="551.5" y1="701.686" y2="701.686"/><polygon fill="#A80036" points="514.5,697.686,504.5,701.686,514.5,705.686,510.5,701.686" style="stroke:#A80036;stroke-width:1.0;"/><polygon fill="#A80036" points="328.5,706.686,318.5,710.686,328.5,714.686,324.5,710.686" style="stroke:#A80036;stroke-width:1.0;"/><line style="stroke:#A80036;stroke-width:1.0;stroke-dasharray:2.0,2.0;" x1="322.5" x2="498.5" y1="710.686" y2="710.686"/><polygon fill="#A80036" points="607,738.392,617,742.392,607,746.392,611,742.392" style="stroke:#A80036;stroke-width:1.0;"/><line style="stroke:#A80036;stroke-width:1.0;" x1="317.5" x2="613" y1="742.392" y2="742.392"/><text fill="#000000" font-family="sans-serif" font-size="13" lengthAdjust="spacing" textLength="184" x="324.5" y="736.583">Logger::initLogger &lt;&lt;private&gt;&gt;</text><line style="stroke:#A80036;stroke-width:1.0;" x1="629" x2="676" y1="769.098" y2="769.098"/><line style="stroke:#A80036;stroke-width:1.0;" x1="676" x2="676" y1="769.098" y2="782.098"/><line style="stroke:#A80036;stroke-width:1.0;" x1="635" x2="676" y1="782.098" y2="782.098"/><polygon fill="#A80036" points="645,778.098,635,782.098,645,786.098,641,782.098" style="stroke:#A80036;stroke-width:1.0;"/><text fill="#000000" font-family="sans-serif" font-size="13" lengthAdjust="spacing" textLength="98" x="641" y="763.289">initiLoggerHook</text><line style="stroke:#A80036;stroke-width:1.0;stroke-dasharray:2.0,2.0;" x1="634" x2="676" y1="806.098" y2="806.098"/><line style="stroke:#A80036;stroke-width:1.0;stroke-dasharray:2.0,2.0;" x1="676" x2="676" y1="806.098" y2="819.098"/><line style="stroke:#A80036;stroke-width:1.0;stroke-dasharray:2.0,2.0;" x1="629" x2="676" y1="819.098" y2="819.098"/><polygon fill="#A80036" points="639,815.098,629,819.098,639,823.098,635,819.098" style="stroke:#A80036;stroke-width:1.0;"/><polygon fill="#A80036" points="328.5,824.098,318.5,828.098,328.5,832.098,324.5,828.098" style="stroke:#A80036;stroke-width:1.0;"/><line style="stroke:#A80036;stroke-width:1.0;stroke-dasharray:2.0,2.0;" x1="322.5" x2="623" y1="828.098" y2="828.098"/><polygon fill="#A80036" points="122.5,838.098,112.5,842.098,122.5,846.098,118.5,842.098" style="stroke:#A80036;stroke-width:1.0;"/><line style="stroke:#A80036;stroke-width:1.0;stroke-dasharray:2.0,2.0;" x1="116.5" x2="311.5" y1="842.098" y2="842.098"/><polygon fill="#A80036" points="40.5,852.098,30.5,856.098,40.5,860.098,36.5,856.098" style="stroke:#A80036;stroke-width:1.0;"/><line style="stroke:#A80036;stroke-width:1.0;stroke-dasharray:2.0,2.0;" x1="34.5" x2="105.5" y1="856.098" y2="856.098"/></g></svg>