<?xml version="1.0" encoding="UTF-8" standalone="no"?><svg xmlns="http://www.w3.org/2000/svg" xmlns:xlink="http://www.w3.org/1999/xlink" contentScriptType="application/ecmascript" contentStyleType="text/css" height="570px" preserveAspectRatio="none" style="width:565px;height:570px;background:#EEEBDC;" version="1.1" viewBox="0 0 565 570" width="565px" zoomAndPan="magnify"><defs><filter height="300%" id="f6d9vamc6ob5r" width="300%" x="-1" y="-1"><feGaussianBlur result="blurOut" stdDeviation="2.0"/><feColorMatrix in="blurOut" result="blurOut2" type="matrix" values="0 0 0 0 0 0 0 0 0 0 0 0 0 0 0 0 0 0 .4 0"/><feOffset dx="4.0" dy="4.0" in="blurOut2" result="blurOut3"/><feBlend in="SourceGraphic" in2="blurOut3" mode="normal"/></filter></defs><g><rect fill="#FFFFFF" filter="url(#f6d9vamc6ob5r)" height="391.716" style="stroke:#A80036;stroke-width:1.0;" width="10" x="114.5" y="95.8419"/><rect fill="#FFFFFF" filter="url(#f6d9vamc6ob5r)" height="228.598" style="stroke:#A80036;stroke-width:1.0;" width="10" x="279.5" y="127.5479"/><rect fill="#FFFFFF" filter="url(#f6d9vamc6ob5r)" height="167.892" style="stroke:#A80036;stroke-width:1.0;" width="10" x="284.5" y="167.2539"/><rect fill="#FFFFFF" filter="url(#f6d9vamc6ob5r)" height="85.706" style="stroke:#A80036;stroke-width:1.0;" width="10" x="438" y="387.8519"/><rect fill="#FFFFFF" filter="url(#f6d9vamc6ob5r)" height="25" style="stroke:#A80036;stroke-width:1.0;" width="10" x="443" y="427.5579"/><line style="stroke:#A80036;stroke-width:1.0;stroke-dasharray:5.0,5.0;" x1="29" x2="29" y1="62.1358" y2="505.5579"/><line style="stroke:#A80036;stroke-width:1.0;stroke-dasharray:5.0,5.0;" x1="119" x2="119" y1="62.1358" y2="505.5579"/><line style="stroke:#A80036;stroke-width:1.0;stroke-dasharray:5.0,5.0;" x1="284" x2="284" y1="62.1358" y2="505.5579"/><line style="stroke:#A80036;stroke-width:1.0;stroke-dasharray:5.0,5.0;" x1="443" x2="443" y1="214.2878" y2="505.5579"/><rect fill="#FEFECE" filter="url(#f6d9vamc6ob5r)" height="33.0679" style="stroke:#A80036;stroke-width:1.5;" width="45" x="5" y="24.0679"/><text fill="#000000" font-family="sans-serif" font-size="14" lengthAdjust="spacing" textLength="31" x="12" y="46.0339">User</text><rect fill="#FEFECE" filter="url(#f6d9vamc6ob5r)" height="33.0679" style="stroke:#A80036;stroke-width:1.5;" width="45" x="5" y="504.5579"/><text fill="#000000" font-family="sans-serif" font-size="14" lengthAdjust="spacing" textLength="31" x="12" y="526.5238">User</text><rect fill="#FEFECE" filter="url(#f6d9vamc6ob5r)" height="52.1358" style="stroke:#A80036;stroke-width:1.5;" width="107" x="64" y="5"/><text fill="#000000" font-family="sans-serif" font-size="14" font-style="italic" lengthAdjust="spacing" textLength="93" x="71" y="26.9659">«free function»</text><text fill="#000000" font-family="sans-serif" font-size="14" lengthAdjust="spacing" textLength="48" x="93.5" y="46.0339">iox::log</text><rect fill="#FEFECE" filter="url(#f6d9vamc6ob5r)" height="52.1358" style="stroke:#A80036;stroke-width:1.5;" width="107" x="64" y="504.5579"/><text fill="#000000" font-family="sans-serif" font-size="14" font-style="italic" lengthAdjust="spacing" textLength="93" x="71" y="526.5238">«free function»</text><text fill="#000000" font-family="sans-serif" font-size="14" lengthAdjust="spacing" textLength="48" x="93.5" y="545.5918">iox::log</text><rect fill="#FEFECE" filter="url(#f6d9vamc6ob5r)" height="52.1358" style="stroke:#A80036;stroke-width:1.5;" width="123" x="221" y="5"/><text fill="#000000" font-family="sans-serif" font-size="14" font-style="italic" lengthAdjust="spacing" textLength="109" x="228" y="26.9659">«static functions»</text><text fill="#000000" font-family="sans-serif" font-size="14" lengthAdjust="spacing" textLength="47" x="259" y="46.0339">Logger</text><rect fill="#FEFECE" filter="url(#f6d9vamc6ob5r)" height="52.1358" style="stroke:#A80036;stroke-width:1.5;" width="123" x="221" y="504.5579"/><text fill="#000000" font-family="sans-serif" font-size="14" font-style="italic" lengthAdjust="spacing" textLength="109" x="228" y="526.5238">«static functions»</text><text fill="#000000" font-family="sans-serif" font-size="14" lengthAdjust="spacing" textLength="47" x="259" y="545.5918">Logger</text><rect fill="#FEFECE" filter="url(#f6d9vamc6ob5r)" height="33.0679" style="stroke:#A80036;stroke-width:1.5;" width="166" x="358" y="504.5579"/><text fill="#000000" font-family="sans-serif" font-size="14" lengthAdjust="spacing" textLength="152" x="365" y="526.5238">logger : DefaultLogger</text><rect fill="#FFFFFF" filter="url(#f6d9vamc6ob5r)" height="391.716" style="stroke:#A80036;stroke-width:1.0;" width="10" x="114.5" y="95.8419"/><rect fill="#FFFFFF" filter="url(#f6d9vamc6ob5r)" height="228.598" style="stroke:#A80036;stroke-width:1.0;" width="10" x="279.5" y="127.5479"/><rect fill="#FFFFFF" filter="url(#f6d9vamc6ob5r)" height="167.892" style="stroke:#A80036;stroke-width:1.0;" width="10" x="284.5" y="167.2539"/><rect fill="#FFFFFF" filter="url(#f6d9vamc6ob5r)" height="85.706" style="stroke:#A80036;stroke-width:1.0;" width="10" x="438" y="387.8519"/><rect fill="#FFFFFF" filter="url(#f6d9vamc6ob5r)" height="25" style="stroke:#A80036;stroke-width:1.0;" width="10" x="443" y="427.5579"/><polygon fill="#A80036" points="102.5,91.8419,112.5,95.8419,102.5,99.8419,106.5,95.8419" style="stroke:#A80036;stroke-width:1.0;"/><line style="stroke:#A80036;stroke-width:1.0;" x1="29.5" x2="108.5" y1="95.8419" y2="95.8419"/><text fill="#000000" font-family="sans-serif" font-size="13" lengthAdjust="spacing" textLength="62" x="36.5" y="90.0328">initLogger</text><polygon fill="#A80036" points="267.5,123.5479,277.5,127.5479,267.5,131.5479,271.5,127.5479" style="stroke:#A80036;stroke-width:1.0;"/><line style="stroke:#A80036;stroke-width:1.0;" x1="124.5" x2="273.5" y1="127.5479" y2="127.5479"/><text fill="#000000" font-family="sans-serif" font-size="13" lengthAdjust="spacing" textLength="136" x="131.5" y="121.7389">getLogger &lt;&lt;private&gt;&gt;</text><line style="stroke:#A80036;stroke-width:1.0;" x1="289.5" x2="336.5" y1="154.2539" y2="154.2539"/><line style="stroke:#A80036;stroke-width:1.0;" x1="336.5" x2="336.5" y1="154.2539" y2="167.2539"/><line style="stroke:#A80036;stroke-width:1.0;" x1="295.5" x2="336.5" y1="167.2539" y2="167.2539"/><polygon fill="#A80036" points="305.5,163.2539,295.5,167.2539,305.5,171.2539,301.5,167.2539" style="stroke:#A80036;stroke-width:1.0;"/><text fill="#000000" font-family="sans-serif" font-size="13" lengthAdjust="spacing" textLength="78" x="301.5" y="148.4449">activeLogger</text><polygon fill="#A80036" points="346,182.2539,356,186.2539,346,190.2539,350,186.2539" style="stroke:#A80036;stroke-width:1.0;"/><line style="stroke:#A80036;stroke-width:1.0;" x1="294.5" x2="352" y1="186.2539" y2="186.2539"/><rect fill="#FEFECE" filter="url(#f6d9vamc6ob5r)" height="33.0679" style="stroke:#A80036;stroke-width:1.5;" width="166" x="358" y="180.2539"/><text fill="#000000" font-family="sans-serif" font-size="14" lengthAdjust="spacing" textLength="152" x="365" y="202.2198">logger : DefaultLogger</text><path d="M364,233.3218 L364,313.3218 L518,313.3218 L518,243.3218 L508,233.3218 L364,233.3218 " fill="#FBFB77" filter="url(#f6d9vamc6ob5r)" style="stroke:#A80036;stroke-width:1.0;"/><path d="M508,233.3218 L508,243.3218 L518,243.3218 L508,233.3218 " fill="#FBFB77" style="stroke:#A80036;stroke-width:1.0;"/><text fill="#000000" font-family="sans-serif" font-size="13" lengthAdjust="spacing" textLength="107" x="370" y="252.2188">the default logger</text><text fill="#000000" font-family="sans-serif" font-size="13" lengthAdjust="spacing" textLength="97" x="370" y="269.9248">is configured via</text><text fill="#000000" font-family="sans-serif" font-size="13" lengthAdjust="spacing" textLength="63" x="370" y="287.6308">the alias in</text><text fill="#000000" font-family="sans-serif" font-size="13" lengthAdjust="spacing" textLength="133" x="370" y="305.3369">platform_settings.hpp</text><line style="stroke:#A80036;stroke-width:1.0;stroke-dasharray:2.0,2.0;" x1="294.5" x2="336.5" y1="334.1459" y2="334.1459"/><line style="stroke:#A80036;stroke-width:1.0;stroke-dasharray:2.0,2.0;" x1="336.5" x2="336.5" y1="334.1459" y2="347.1459"/><line style="stroke:#A80036;stroke-width:1.0;stroke-dasharray:2.0,2.0;" x1="289.5" x2="336.5" y1="347.1459" y2="347.1459"/><polygon fill="#A80036" points="299.5,343.1459,289.5,347.1459,299.5,351.1459,295.5,347.1459" style="stroke:#A80036;stroke-width:1.0;"/><polygon fill="#A80036" points="135.5,352.1459,125.5,356.1459,135.5,360.1459,131.5,356.1459" style="stroke:#A80036;stroke-width:1.0;"/><line style="stroke:#A80036;stroke-width:1.0;stroke-dasharray:2.0,2.0;" x1="129.5" x2="283.5" y1="356.1459" y2="356.1459"/><polygon fill="#A80036" points="426,383.8519,436,387.8519,426,391.8519,430,387.8519" style="stroke:#A80036;stroke-width:1.0;"/><line style="stroke:#A80036;stroke-width:1.0;" x1="124.5" x2="432" y1="387.8519" y2="387.8519"/><text fill="#000000" font-family="sans-serif" font-size="13" lengthAdjust="spacing" textLength="184" x="131.5" y="382.0429">Logger::initLogger &lt;&lt;private&gt;&gt;</text><line style="stroke:#A80036;stroke-width:1.0;" x1="448" x2="495" y1="414.5579" y2="414.5579"/><line style="stroke:#A80036;stroke-width:1.0;" x1="495" x2="495" y1="414.5579" y2="427.5579"/><line style="stroke:#A80036;stroke-width:1.0;" x1="454" x2="495" y1="427.5579" y2="427.5579"/><polygon fill="#A80036" points="464,423.5579,454,427.5579,464,431.5579,460,427.5579" style="stroke:#A80036;stroke-width:1.0;"/><text fill="#000000" font-family="sans-serif" font-size="13" lengthAdjust="spacing" textLength="98" x="460" y="408.7489">initiLoggerHook</text><line style="stroke:#A80036;stroke-width:1.0;stroke-dasharray:2.0,2.0;" x1="453" x2="495" y1="451.5579" y2="451.5579"/><line style="stroke:#A80036;stroke-width:1.0;stroke-dasharray:2.0,2.0;" x1="495" x2="495" y1="451.5579" y2="464.5579"/><line style="stroke:#A80036;stroke-width:1.0;stroke-dasharray:2.0,2.0;" x1="448" x2="495" y1="464.5579" y2="464.5579"/><polygon fill="#A80036" points="458,460.5579,448,464.5579,458,468.5579,454,464.5579" style="stroke:#A80036;stroke-width:1.0;"/><polygon fill="#A80036" points="135.5,469.5579,125.5,473.5579,135.5,477.5579,131.5,473.5579" style="stroke:#A80036;stroke-width:1.0;"/><line style="stroke:#A80036;stroke-width:1.0;stroke-dasharray:2.0,2.0;" x1="129.5" x2="442" y1="473.5579" y2="473.5579"/><polygon fill="#A80036" points="40.5,483.5579,30.5,487.5579,40.5,491.5579,36.5,487.5579" style="stroke:#A80036;stroke-width:1.0;"/><line style="stroke:#A80036;stroke-width:1.0;stroke-dasharray:2.0,2.0;" x1="34.5" x2="118.5" y1="487.5579" y2="487.5579"/></g></svg>