<?xml version="1.0" encoding="UTF-8" standalone="no"?><svg xmlns="http://www.w3.org/2000/svg" xmlns:xlink="http://www.w3.org/1999/xlink" contentScriptType="application/ecmascript" contentStyleType="text/css" height="698px" preserveAspectRatio="none" style="width:608px;height:698px;background:#EEEBDC;" version="1.1" viewBox="0 0 608 698" width="608px" zoomAndPan="magnify"><defs><filter height="300%" id="fskxn15dsuvy8" width="300%" x="-1" y="-1"><feGaussianBlur result="blurOut" stdDeviation="2.0"/><feColorMatrix in="blurOut" result="blurOut2" type="matrix" values="0 0 0 0 0 0 0 0 0 0 0 0 0 0 0 0 0 0 .4 0"/><feOffset dx="4.0" dy="4.0" in="blurOut2" result="blurOut3"/><feBlend in="SourceGraphic" in2="blurOut3" mode="normal"/></filter></defs><g><rect fill="#FFFFFF" filter="url(#fskxn15dsuvy8)" height="326.3719" style="stroke:#A80036;stroke-width:1.0;" width="10" x="188.5" y="105.8419"/><rect fill="#FFFFFF" filter="url(#fskxn15dsuvy8)" height="59.706" style="stroke:#A80036;stroke-width:1.0;" width="10" x="188.5" y="463.9198"/><rect fill="#FFFFFF" filter="url(#fskxn15dsuvy8)" height="59.706" style="stroke:#A80036;stroke-width:1.0;" width="10" x="188.5" y="555.3318"/><rect fill="#FFFFFF" filter="url(#fskxn15dsuvy8)" height="228.598" style="stroke:#A80036;stroke-width:1.0;" width="10" x="276.5" y="143.9098"/><rect fill="#FFFFFF" filter="url(#fskxn15dsuvy8)" height="142.833" style="stroke:#A80036;stroke-width:1.0;" width="10" x="281.5" y="208.6748"/><rect fill="#FFFFFF" filter="url(#fskxn15dsuvy8)" height="14" style="stroke:#A80036;stroke-width:1.0;" width="10" x="386.5" y="404.2138"/><rect fill="#FFFFFF" filter="url(#fskxn15dsuvy8)" height="14" style="stroke:#A80036;stroke-width:1.0;" width="10" x="386.5" y="495.6258"/><rect fill="#FFFFFF" filter="url(#fskxn15dsuvy8)" height="14" style="stroke:#A80036;stroke-width:1.0;" width="10" x="386.5" y="587.0378"/><line style="stroke:#A80036;stroke-width:1.0;stroke-dasharray:5.0,5.0;" x1="29" x2="29" y1="62.1358" y2="633.0378"/><line style="stroke:#A80036;stroke-width:1.0;stroke-dasharray:5.0,5.0;" x1="193.5" x2="193.5" y1="106.1698" y2="633.0378"/><line style="stroke:#A80036;stroke-width:1.0;stroke-dasharray:5.0,5.0;" x1="281.5" x2="281.5" y1="62.1358" y2="633.0378"/><line style="stroke:#A80036;stroke-width:1.0;stroke-dasharray:5.0,5.0;" x1="391" x2="391" y1="325.4738" y2="633.0378"/><rect fill="#FEFECE" filter="url(#fskxn15dsuvy8)" height="33.0679" style="stroke:#A80036;stroke-width:1.5;" width="45" x="5" y="24.0679"/><text fill="#000000" font-family="sans-serif" font-size="14" lengthAdjust="spacing" textLength="31" x="12" y="46.0339">User</text><rect fill="#FEFECE" filter="url(#fskxn15dsuvy8)" height="33.0679" style="stroke:#A80036;stroke-width:1.5;" width="45" x="5" y="632.0378"/><text fill="#000000" font-family="sans-serif" font-size="14" lengthAdjust="spacing" textLength="31" x="12" y="654.0038">User</text><rect fill="#FEFECE" filter="url(#fskxn15dsuvy8)" height="33.0679" style="stroke:#A80036;stroke-width:1.5;" width="86" x="148.5" y="632.0378"/><text fill="#000000" font-family="sans-serif" font-size="14" lengthAdjust="spacing" textLength="72" x="155.5" y="654.0038">LogStream</text><rect fill="#FEFECE" filter="url(#fskxn15dsuvy8)" height="52.1358" style="stroke:#A80036;stroke-width:1.5;" width="62" x="248.5" y="5"/><text fill="#000000" font-family="sans-serif" font-size="14" font-style="italic" lengthAdjust="spacing" textLength="48" x="255.5" y="26.9659">«static»</text><text fill="#000000" font-family="sans-serif" font-size="14" lengthAdjust="spacing" textLength="47" x="256" y="46.0339">Logger</text><rect fill="#FEFECE" filter="url(#fskxn15dsuvy8)" height="52.1358" style="stroke:#A80036;stroke-width:1.5;" width="62" x="248.5" y="632.0378"/><text fill="#000000" font-family="sans-serif" font-size="14" font-style="italic" lengthAdjust="spacing" textLength="48" x="255.5" y="654.0038">«static»</text><text fill="#000000" font-family="sans-serif" font-size="14" lengthAdjust="spacing" textLength="47" x="256" y="673.0717">Logger</text><rect fill="#FEFECE" filter="url(#fskxn15dsuvy8)" height="33.0679" style="stroke:#A80036;stroke-width:1.5;" width="117" x="331" y="632.0378"/><text fill="#000000" font-family="sans-serif" font-size="14" lengthAdjust="spacing" textLength="103" x="338" y="654.0038">logger : Logger</text><rect fill="#FFFFFF" filter="url(#fskxn15dsuvy8)" height="326.3719" style="stroke:#A80036;stroke-width:1.0;" width="10" x="188.5" y="105.8419"/><rect fill="#FFFFFF" filter="url(#fskxn15dsuvy8)" height="59.706" style="stroke:#A80036;stroke-width:1.0;" width="10" x="188.5" y="463.9198"/><rect fill="#FFFFFF" filter="url(#fskxn15dsuvy8)" height="59.706" style="stroke:#A80036;stroke-width:1.0;" width="10" x="188.5" y="555.3318"/><rect fill="#FFFFFF" filter="url(#fskxn15dsuvy8)" height="228.598" style="stroke:#A80036;stroke-width:1.0;" width="10" x="276.5" y="143.9098"/><rect fill="#FFFFFF" filter="url(#fskxn15dsuvy8)" height="142.833" style="stroke:#A80036;stroke-width:1.0;" width="10" x="281.5" y="208.6748"/><rect fill="#FFFFFF" filter="url(#fskxn15dsuvy8)" height="14" style="stroke:#A80036;stroke-width:1.0;" width="10" x="386.5" y="404.2138"/><rect fill="#FFFFFF" filter="url(#fskxn15dsuvy8)" height="14" style="stroke:#A80036;stroke-width:1.0;" width="10" x="386.5" y="495.6258"/><rect fill="#FFFFFF" filter="url(#fskxn15dsuvy8)" height="14" style="stroke:#A80036;stroke-width:1.0;" width="10" x="386.5" y="587.0378"/><polygon fill="#A80036" points="136.5,91.8419,146.5,95.8419,136.5,99.8419,140.5,95.8419" style="stroke:#A80036;stroke-width:1.0;"/><line style="stroke:#A80036;stroke-width:1.0;" x1="29.5" x2="142.5" y1="95.8419" y2="95.8419"/><text fill="#000000" font-family="sans-serif" font-size="13" lengthAdjust="spacing" textLength="71" x="36.5" y="90.0328">IOX_LOG(...)</text><rect fill="#FEFECE" filter="url(#fskxn15dsuvy8)" height="33.0679" style="stroke:#A80036;stroke-width:1.5;" width="86" x="148.5" y="72.1358"/><text fill="#000000" font-family="sans-serif" font-size="14" lengthAdjust="spacing" textLength="72" x="155.5" y="94.1018">LogStream</text><polygon fill="#A80036" points="264.5,139.9098,274.5,143.9098,264.5,147.9098,268.5,143.9098" style="stroke:#A80036;stroke-width:1.0;"/><line style="stroke:#A80036;stroke-width:1.0;" x1="198.5" x2="270.5" y1="143.9098" y2="143.9098"/><text fill="#000000" font-family="sans-serif" font-size="13" lengthAdjust="spacing" textLength="20" x="205.5" y="138.1008">get</text><line style="stroke:#A80036;stroke-width:1.0;" x1="286.5" x2="333.5" y1="195.6748" y2="195.6748"/><line style="stroke:#A80036;stroke-width:1.0;" x1="333.5" x2="333.5" y1="195.6748" y2="208.6748"/><line style="stroke:#A80036;stroke-width:1.0;" x1="292.5" x2="333.5" y1="208.6748" y2="208.6748"/><polygon fill="#A80036" points="302.5,204.6748,292.5,208.6748,302.5,212.6748,298.5,208.6748" style="stroke:#A80036;stroke-width:1.0;"/><text fill="#000000" font-family="sans-serif" font-size="13" lengthAdjust="spacing" textLength="86" x="298.5" y="189.8658">activeLogger()</text><path d="M396,156.9098 L396,236.9098 L599,236.9098 L599,166.9098 L589,156.9098 L396,156.9098 " fill="#FBFB77" filter="url(#fskxn15dsuvy8)" style="stroke:#A80036;stroke-width:1.0;"/><path d="M589,156.9098 L589,166.9098 L599,166.9098 L589,156.9098 " fill="#FBFB77" style="stroke:#A80036;stroke-width:1.0;"/><text fill="#000000" font-family="sans-serif" font-size="13" lengthAdjust="spacing" textLength="156" x="402" y="175.8068">activeLogger is only called</text><text fill="#000000" font-family="sans-serif" font-size="13" lengthAdjust="spacing" textLength="160" x="402" y="193.5128">to initialize the thread local</text><text fill="#000000" font-family="sans-serif" font-size="13" lengthAdjust="spacing" textLength="161" x="402" y="211.2188">logger pointer or when the</text><text fill="#000000" font-family="sans-serif" font-size="13" lengthAdjust="spacing" textLength="182" x="402" y="228.9248">active flag of the logger is false</text><line style="stroke:#A80036;stroke-width:1.0;" x1="291.5" x2="333.5" y1="270.4398" y2="270.4398"/><line style="stroke:#A80036;stroke-width:1.0;" x1="333.5" x2="333.5" y1="270.4398" y2="283.4398"/><line style="stroke:#A80036;stroke-width:1.0;" x1="292.5" x2="333.5" y1="283.4398" y2="283.4398"/><polygon fill="#A80036" points="302.5,279.4398,292.5,283.4398,302.5,287.4398,298.5,283.4398" style="stroke:#A80036;stroke-width:1.0;"/><text fill="#000000" font-family="sans-serif" font-size="13" lengthAdjust="spacing" textLength="49" x="298.5" y="264.6308">std::lock</text><polygon fill="#A80036" points="319,293.4398,329,297.4398,319,301.4398,323,297.4398" style="stroke:#A80036;stroke-width:1.0;"/><line style="stroke:#A80036;stroke-width:1.0;" x1="291.5" x2="325" y1="297.4398" y2="297.4398"/><rect fill="#FEFECE" filter="url(#fskxn15dsuvy8)" height="33.0679" style="stroke:#A80036;stroke-width:1.5;" width="117" x="331" y="291.4398"/><text fill="#000000" font-family="sans-serif" font-size="14" lengthAdjust="spacing" textLength="103" x="338" y="313.4058">logger : Logger</text><line style="stroke:#A80036;stroke-width:1.0;stroke-dasharray:2.0,2.0;" x1="291.5" x2="333.5" y1="350.5078" y2="350.5078"/><line style="stroke:#A80036;stroke-width:1.0;stroke-dasharray:2.0,2.0;" x1="333.5" x2="333.5" y1="350.5078" y2="363.5078"/><line style="stroke:#A80036;stroke-width:1.0;stroke-dasharray:2.0,2.0;" x1="286.5" x2="333.5" y1="363.5078" y2="363.5078"/><polygon fill="#A80036" points="296.5,359.5078,286.5,363.5078,296.5,367.5078,292.5,363.5078" style="stroke:#A80036;stroke-width:1.0;"/><polygon fill="#A80036" points="209.5,368.5078,199.5,372.5078,209.5,376.5078,205.5,372.5078" style="stroke:#A80036;stroke-width:1.0;"/><line style="stroke:#A80036;stroke-width:1.0;stroke-dasharray:2.0,2.0;" x1="203.5" x2="280.5" y1="372.5078" y2="372.5078"/><polygon fill="#A80036" points="374.5,400.2138,384.5,404.2138,374.5,408.2138,378.5,404.2138" style="stroke:#A80036;stroke-width:1.0;"/><line style="stroke:#A80036;stroke-width:1.0;" x1="198.5" x2="380.5" y1="404.2138" y2="404.2138"/><text fill="#000000" font-family="sans-serif" font-size="13" lengthAdjust="spacing" textLength="157" x="205.5" y="398.4048">createLogMessageHeader</text><polygon fill="#A80036" points="209.5,414.2138,199.5,418.2138,209.5,422.2138,205.5,418.2138" style="stroke:#A80036;stroke-width:1.0;"/><line style="stroke:#A80036;stroke-width:1.0;stroke-dasharray:2.0,2.0;" x1="203.5" x2="390.5" y1="418.2138" y2="418.2138"/><polygon fill="#A80036" points="40.5,428.2138,30.5,432.2138,40.5,436.2138,36.5,432.2138" style="stroke:#A80036;stroke-width:1.0;"/><line style="stroke:#A80036;stroke-width:1.0;stroke-dasharray:2.0,2.0;" x1="34.5" x2="192.5" y1="432.2138" y2="432.2138"/><polygon fill="#A80036" points="176.5,459.9198,186.5,463.9198,176.5,467.9198,180.5,463.9198" style="stroke:#A80036;stroke-width:1.0;"/><line style="stroke:#A80036;stroke-width:1.0;" x1="29.5" x2="182.5" y1="463.9198" y2="463.9198"/><text fill="#000000" font-family="sans-serif" font-size="13" lengthAdjust="spacing" textLength="87" x="36.5" y="458.1108">&lt;&lt; Hello World</text><polygon fill="#A80036" points="374.5,491.6258,384.5,495.6258,374.5,499.6258,378.5,495.6258" style="stroke:#A80036;stroke-width:1.0;"/><line style="stroke:#A80036;stroke-width:1.0;" x1="198.5" x2="380.5" y1="495.6258" y2="495.6258"/><text fill="#000000" font-family="sans-serif" font-size="13" lengthAdjust="spacing" textLength="55" x="205.5" y="489.8168">logString</text><polygon fill="#A80036" points="209.5,505.6258,199.5,509.6258,209.5,513.6258,205.5,509.6258" style="stroke:#A80036;stroke-width:1.0;"/><line style="stroke:#A80036;stroke-width:1.0;stroke-dasharray:2.0,2.0;" x1="203.5" x2="390.5" y1="509.6258" y2="509.6258"/><polygon fill="#A80036" points="40.5,519.6258,30.5,523.6258,40.5,527.6258,36.5,523.6258" style="stroke:#A80036;stroke-width:1.0;"/><line style="stroke:#A80036;stroke-width:1.0;stroke-dasharray:2.0,2.0;" x1="34.5" x2="192.5" y1="523.6258" y2="523.6258"/><polygon fill="#A80036" points="176.5,551.3318,186.5,555.3318,176.5,559.3318,180.5,555.3318" style="stroke:#A80036;stroke-width:1.0;"/><line style="stroke:#A80036;stroke-width:1.0;" x1="29.5" x2="182.5" y1="555.3318" y2="555.3318"/><text fill="#000000" font-family="sans-serif" font-size="13" lengthAdjust="spacing" textLength="140" x="36.5" y="549.5228">dTor via ; on temporary</text><polygon fill="#A80036" points="374.5,583.0378,384.5,587.0378,374.5,591.0378,378.5,587.0378" style="stroke:#A80036;stroke-width:1.0;"/><line style="stroke:#A80036;stroke-width:1.0;" x1="198.5" x2="380.5" y1="587.0378" y2="587.0378"/><text fill="#000000" font-family="sans-serif" font-size="13" lengthAdjust="spacing" textLength="29" x="205.5" y="581.2288">flush</text><polygon fill="#A80036" points="209.5,597.0378,199.5,601.0378,209.5,605.0378,205.5,601.0378" style="stroke:#A80036;stroke-width:1.0;"/><line style="stroke:#A80036;stroke-width:1.0;stroke-dasharray:2.0,2.0;" x1="203.5" x2="390.5" y1="601.0378" y2="601.0378"/><polygon fill="#A80036" points="40.5,611.0378,30.5,615.0378,40.5,619.0378,36.5,615.0378" style="stroke:#A80036;stroke-width:1.0;"/><line style="stroke:#A80036;stroke-width:1.0;stroke-dasharray:2.0,2.0;" x1="34.5" x2="192.5" y1="615.0378" y2="615.0378"/><line style="stroke:#A80036;stroke-width:2.0;" x1="184.5" x2="202.5" y1="606.0378" y2="624.0378"/><line style="stroke:#A80036;stroke-width:2.0;" x1="184.5" x2="202.5" y1="624.0378" y2="606.0378"/></g></svg>