<?xml version="1.0" encoding="UTF-8" standalone="no"?><svg xmlns="http://www.w3.org/2000/svg" xmlns:xlink="http://www.w3.org/1999/xlink" contentScriptType="application/ecmascript" contentStyleType="text/css" height="965px" preserveAspectRatio="none" style="width:739px;height:965px;background:#EEEBDC;" version="1.1" viewBox="0 0 739 965" width="739px" zoomAndPan="magnify"><defs><filter height="300%" id="fjemk3rxiv6ji" width="300%" x="-1" y="-1"><feGaussianBlur result="blurOut" stdDeviation="2.0"/><feColorMatrix in="blurOut" result="blurOut2" type="matrix" values="0 0 0 0 0 0 0 0 0 0 0 0 0 0 0 0 0 0 .4 0"/><feOffset dx="4.0" dy="4.0" in="blurOut2" result="blurOut3"/><feBlend in="SourceGraphic" in2="blurOut3" mode="normal"/></filter></defs><g><rect fill="#FFFFFF" filter="url(#fjemk3rxiv6ji)" height="786.2562" style="stroke:#A80036;stroke-width:1.0;" width="10" x="101.5" y="95.8419"/><rect fill="#FFFFFF" filter="url(#fjemk3rxiv6ji)" height="411.9521" style="stroke:#A80036;stroke-width:1.0;" width="10" x="307.5" y="175.6158"/><rect fill="#FFFFFF" filter="url(#fjemk3rxiv6ji)" height="351.2461" style="stroke:#A80036;stroke-width:1.0;" width="10" x="312.5" y="215.3218"/><rect fill="#FFFFFF" filter="url(#fjemk3rxiv6ji)" height="248.8241" style="stroke:#A80036;stroke-width:1.0;" width="10" x="307.5" y="619.2739"/><rect fill="#FFFFFF" filter="url(#fjemk3rxiv6ji)" height="96.706" style="stroke:#A80036;stroke-width:1.0;" width="10" x="312.5" y="658.98"/><rect fill="#FFFFFF" filter="url(#fjemk3rxiv6ji)" height="25" style="stroke:#A80036;stroke-width:1.0;" width="10" x="317.5" y="703.686"/><rect fill="#FFFFFF" filter="url(#fjemk3rxiv6ji)" height="59.706" style="stroke:#A80036;stroke-width:1.0;" width="10" x="489.5" y="794.392"/><rect fill="#FFFFFF" filter="url(#fjemk3rxiv6ji)" height="14" style="stroke:#A80036;stroke-width:1.0;" width="10" x="642" y="826.098"/><line style="stroke:#A80036;stroke-width:1.0;stroke-dasharray:5.0,5.0;" x1="29" x2="29" y1="62.1358" y2="900.098"/><line style="stroke:#A80036;stroke-width:1.0;stroke-dasharray:5.0,5.0;" x1="106" x2="106" y1="62.1358" y2="900.098"/><line style="stroke:#A80036;stroke-width:1.0;stroke-dasharray:5.0,5.0;" x1="312.5" x2="312.5" y1="62.1358" y2="900.098"/><line style="stroke:#A80036;stroke-width:1.0;stroke-dasharray:5.0,5.0;" x1="494" x2="494" y1="357.1798" y2="900.098"/><line style="stroke:#A80036;stroke-width:1.0;stroke-dasharray:5.0,5.0;" x1="647" x2="647" y1="137.8758" y2="900.098"/><rect fill="#FEFECE" filter="url(#fjemk3rxiv6ji)" height="33.0679" style="stroke:#A80036;stroke-width:1.5;" width="45" x="5" y="24.0679"/><text fill="#000000" font-family="sans-serif" font-size="14" lengthAdjust="spacing" textLength="31" x="12" y="46.0339">User</text><rect fill="#FEFECE" filter="url(#fjemk3rxiv6ji)" height="33.0679" style="stroke:#A80036;stroke-width:1.5;" width="45" x="5" y="899.098"/><text fill="#000000" font-family="sans-serif" font-size="14" lengthAdjust="spacing" textLength="31" x="12" y="921.0639">User</text><rect fill="#FEFECE" filter="url(#fjemk3rxiv6ji)" height="52.1358" style="stroke:#A80036;stroke-width:1.5;" width="81" x="64" y="5"/><text fill="#000000" font-family="sans-serif" font-size="14" font-style="italic" lengthAdjust="spacing" textLength="48" x="80.5" y="26.9659">«static»</text><text fill="#000000" font-family="sans-serif" font-size="14" lengthAdjust="spacing" textLength="67" x="71" y="46.0339">MyLogger</text><rect fill="#FEFECE" filter="url(#fjemk3rxiv6ji)" height="52.1358" style="stroke:#A80036;stroke-width:1.5;" width="81" x="64" y="899.098"/><text fill="#000000" font-family="sans-serif" font-size="14" font-style="italic" lengthAdjust="spacing" textLength="48" x="80.5" y="921.0639">«static»</text><text fill="#000000" font-family="sans-serif" font-size="14" lengthAdjust="spacing" textLength="67" x="71" y="940.1319">MyLogger</text><rect fill="#FEFECE" filter="url(#fjemk3rxiv6ji)" height="52.1358" style="stroke:#A80036;stroke-width:1.5;" width="62" x="279.5" y="5"/><text fill="#000000" font-family="sans-serif" font-size="14" font-style="italic" lengthAdjust="spacing" textLength="48" x="286.5" y="26.9659">«static»</text><text fill="#000000" font-family="sans-serif" font-size="14" lengthAdjust="spacing" textLength="47" x="287" y="46.0339">Logger</text><rect fill="#FEFECE" filter="url(#fjemk3rxiv6ji)" height="52.1358" style="stroke:#A80036;stroke-width:1.5;" width="62" x="279.5" y="899.098"/><text fill="#000000" font-family="sans-serif" font-size="14" font-style="italic" lengthAdjust="spacing" textLength="48" x="286.5" y="921.0639">«static»</text><text fill="#000000" font-family="sans-serif" font-size="14" lengthAdjust="spacing" textLength="47" x="287" y="940.1319">Logger</text><rect fill="#FEFECE" filter="url(#fjemk3rxiv6ji)" height="33.0679" style="stroke:#A80036;stroke-width:1.5;" width="117" x="434" y="899.098"/><text fill="#000000" font-family="sans-serif" font-size="14" lengthAdjust="spacing" textLength="103" x="441" y="921.0639">logger : Logger</text><rect fill="#FEFECE" filter="url(#fjemk3rxiv6ji)" height="33.0679" style="stroke:#A80036;stroke-width:1.5;" width="160" x="565" y="899.098"/><text fill="#000000" font-family="sans-serif" font-size="14" lengthAdjust="spacing" textLength="146" x="572" y="921.0639">myLogger : MyLogger</text><rect fill="#FFFFFF" filter="url(#fjemk3rxiv6ji)" height="786.2562" style="stroke:#A80036;stroke-width:1.0;" width="10" x="101.5" y="95.8419"/><rect fill="#FFFFFF" filter="url(#fjemk3rxiv6ji)" height="411.9521" style="stroke:#A80036;stroke-width:1.0;" width="10" x="307.5" y="175.6158"/><rect fill="#FFFFFF" filter="url(#fjemk3rxiv6ji)" height="351.2461" style="stroke:#A80036;stroke-width:1.0;" width="10" x="312.5" y="215.3218"/><rect fill="#FFFFFF" filter="url(#fjemk3rxiv6ji)" height="248.8241" style="stroke:#A80036;stroke-width:1.0;" width="10" x="307.5" y="619.2739"/><rect fill="#FFFFFF" filter="url(#fjemk3rxiv6ji)" height="96.706" style="stroke:#A80036;stroke-width:1.0;" width="10" x="312.5" y="658.98"/><rect fill="#FFFFFF" filter="url(#fjemk3rxiv6ji)" height="25" style="stroke:#A80036;stroke-width:1.0;" width="10" x="317.5" y="703.686"/><rect fill="#FFFFFF" filter="url(#fjemk3rxiv6ji)" height="59.706" style="stroke:#A80036;stroke-width:1.0;" width="10" x="489.5" y="794.392"/><rect fill="#FFFFFF" filter="url(#fjemk3rxiv6ji)" height="14" style="stroke:#A80036;stroke-width:1.0;" width="10" x="642" y="826.098"/><polygon fill="#A80036" points="89.5,91.8419,99.5,95.8419,89.5,99.8419,93.5,95.8419" style="stroke:#A80036;stroke-width:1.0;"/><line style="stroke:#A80036;stroke-width:1.0;" x1="29.5" x2="95.5" y1="95.8419" y2="95.8419"/><text fill="#000000" font-family="sans-serif" font-size="13" lengthAdjust="spacing" textLength="19" x="36.5" y="90.0328">init</text><polygon fill="#A80036" points="553,105.8419,563,109.8419,553,113.8419,557,109.8419" style="stroke:#A80036;stroke-width:1.0;"/><line style="stroke:#A80036;stroke-width:1.0;" x1="111.5" x2="559" y1="109.8419" y2="109.8419"/><rect fill="#FEFECE" filter="url(#fjemk3rxiv6ji)" height="33.0679" style="stroke:#A80036;stroke-width:1.5;" width="160" x="565" y="103.8419"/><text fill="#000000" font-family="sans-serif" font-size="14" lengthAdjust="spacing" textLength="146" x="572" y="125.8078">myLogger : MyLogger</text><polygon fill="#A80036" points="295.5,171.6158,305.5,175.6158,295.5,179.6158,299.5,175.6158" style="stroke:#A80036;stroke-width:1.0;"/><line style="stroke:#A80036;stroke-width:1.0;" x1="111.5" x2="301.5" y1="175.6158" y2="175.6158"/><text fill="#000000" font-family="sans-serif" font-size="13" lengthAdjust="spacing" textLength="177" x="118.5" y="169.8068">setActiveLogger(&amp;myLogger)</text><line style="stroke:#A80036;stroke-width:1.0;" x1="317.5" x2="364.5" y1="202.3218" y2="202.3218"/><line style="stroke:#A80036;stroke-width:1.0;" x1="364.5" x2="364.5" y1="202.3218" y2="215.3218"/><line style="stroke:#A80036;stroke-width:1.0;" x1="323.5" x2="364.5" y1="215.3218" y2="215.3218"/><polygon fill="#A80036" points="333.5,211.3218,323.5,215.3218,333.5,219.3218,329.5,215.3218" style="stroke:#A80036;stroke-width:1.0;"/><text fill="#000000" font-family="sans-serif" font-size="13" lengthAdjust="spacing" textLength="158" x="329.5" y="196.5128">activeLogger(&amp;myLogger)</text><path d="M161,233.3218 L161,313.3218 L298,313.3218 L298,243.3218 L288,233.3218 L161,233.3218 " fill="#FBFB77" filter="url(#fjemk3rxiv6ji)" style="stroke:#A80036;stroke-width:1.0;"/><path d="M288,233.3218 L288,243.3218 L298,243.3218 L288,233.3218 " fill="#FBFB77" style="stroke:#A80036;stroke-width:1.0;"/><text fill="#000000" font-family="sans-serif" font-size="13" lengthAdjust="spacing" textLength="102" x="167" y="252.2188">the static pointer</text><text fill="#000000" font-family="sans-serif" font-size="13" lengthAdjust="spacing" textLength="116" x="167" y="269.9248">to the active logger</text><text fill="#000000" font-family="sans-serif" font-size="13" lengthAdjust="spacing" textLength="74" x="167" y="287.6308">will be set to</text><text fill="#000000" font-family="sans-serif" font-size="13" lengthAdjust="spacing" textLength="62" x="167" y="305.3369">myLogger</text><polygon fill="#A80036" points="422,325.1459,432,329.1459,422,333.1459,426,329.1459" style="stroke:#A80036;stroke-width:1.0;"/><line style="stroke:#A80036;stroke-width:1.0;" x1="322.5" x2="428" y1="329.1459" y2="329.1459"/><rect fill="#FEFECE" filter="url(#fjemk3rxiv6ji)" height="33.0679" style="stroke:#A80036;stroke-width:1.5;" width="117" x="434" y="323.1459"/><text fill="#000000" font-family="sans-serif" font-size="14" lengthAdjust="spacing" textLength="103" x="441" y="345.1118">logger : Logger</text><path d="M415,376.2138 L415,545.2138 L570,545.2138 L570,386.2138 L560,376.2138 L415,376.2138 " fill="#FBFB77" filter="url(#fjemk3rxiv6ji)" style="stroke:#A80036;stroke-width:1.0;"/><path d="M560,376.2138 L560,386.2138 L570,386.2138 L560,376.2138 " fill="#FBFB77" style="stroke:#A80036;stroke-width:1.0;"/><text fill="#000000" font-family="sans-serif" font-size="13" lengthAdjust="spacing" textLength="119" x="421" y="395.1108">calling activeLogger</text><text fill="#000000" font-family="sans-serif" font-size="13" lengthAdjust="spacing" textLength="113" x="421" y="412.8168">without parameter</text><text fill="#000000" font-family="sans-serif" font-size="13" lengthAdjust="spacing" textLength="133" x="421" y="430.5228">will create this anyway</text><text fill="#000000" font-family="sans-serif" font-size="13" lengthAdjust="spacing" textLength="134" x="421" y="448.2288">(e.g. by logging before</text><text fill="#000000" font-family="sans-serif" font-size="13" lengthAdjust="spacing" textLength="107" x="421" y="465.9349">calling initLogger)</text><text fill="#000000" font-family="sans-serif" font-size="13" lengthAdjust="spacing" textLength="113" x="421" y="483.6409">so there is no need</text><text fill="#000000" font-family="sans-serif" font-size="13" lengthAdjust="spacing" textLength="111" x="421" y="501.3469">to to make it more</text><text fill="#000000" font-family="sans-serif" font-size="13" lengthAdjust="spacing" textLength="91" x="421" y="519.0529">complicated by</text><text fill="#000000" font-family="sans-serif" font-size="13" lengthAdjust="spacing" textLength="61" x="421" y="536.7589">branching</text><line style="stroke:#A80036;stroke-width:1.0;stroke-dasharray:2.0,2.0;" x1="322.5" x2="364.5" y1="565.5679" y2="565.5679"/><line style="stroke:#A80036;stroke-width:1.0;stroke-dasharray:2.0,2.0;" x1="364.5" x2="364.5" y1="565.5679" y2="578.5679"/><line style="stroke:#A80036;stroke-width:1.0;stroke-dasharray:2.0,2.0;" x1="317.5" x2="364.5" y1="578.5679" y2="578.5679"/><polygon fill="#A80036" points="327.5,574.5679,317.5,578.5679,327.5,582.5679,323.5,578.5679" style="stroke:#A80036;stroke-width:1.0;"/><polygon fill="#A80036" points="122.5,583.5679,112.5,587.5679,122.5,591.5679,118.5,587.5679" style="stroke:#A80036;stroke-width:1.0;"/><line style="stroke:#A80036;stroke-width:1.0;stroke-dasharray:2.0,2.0;" x1="116.5" x2="311.5" y1="587.5679" y2="587.5679"/><polygon fill="#A80036" points="295.5,615.2739,305.5,619.2739,295.5,623.2739,299.5,619.2739" style="stroke:#A80036;stroke-width:1.0;"/><line style="stroke:#A80036;stroke-width:1.0;" x1="111.5" x2="301.5" y1="619.2739" y2="619.2739"/><text fill="#000000" font-family="sans-serif" font-size="13" lengthAdjust="spacing" textLength="19" x="118.5" y="613.4649">init</text><line style="stroke:#A80036;stroke-width:1.0;" x1="317.5" x2="364.5" y1="645.98" y2="645.98"/><line style="stroke:#A80036;stroke-width:1.0;" x1="364.5" x2="364.5" y1="645.98" y2="658.98"/><line style="stroke:#A80036;stroke-width:1.0;" x1="323.5" x2="364.5" y1="658.98" y2="658.98"/><polygon fill="#A80036" points="333.5,654.98,323.5,658.98,333.5,662.98,329.5,658.98" style="stroke:#A80036;stroke-width:1.0;"/><text fill="#000000" font-family="sans-serif" font-size="13" lengthAdjust="spacing" textLength="20" x="329.5" y="640.171">get</text><line style="stroke:#A80036;stroke-width:1.0;" x1="322.5" x2="369.5" y1="690.686" y2="690.686"/><line style="stroke:#A80036;stroke-width:1.0;" x1="369.5" x2="369.5" y1="690.686" y2="703.686"/><line style="stroke:#A80036;stroke-width:1.0;" x1="328.5" x2="369.5" y1="703.686" y2="703.686"/><polygon fill="#A80036" points="338.5,699.686,328.5,703.686,338.5,707.686,334.5,703.686" style="stroke:#A80036;stroke-width:1.0;"/><text fill="#000000" font-family="sans-serif" font-size="13" lengthAdjust="spacing" textLength="86" x="334.5" y="684.877">activeLogger()</text><line style="stroke:#A80036;stroke-width:1.0;stroke-dasharray:2.0,2.0;" x1="327.5" x2="369.5" y1="727.686" y2="727.686"/><line style="stroke:#A80036;stroke-width:1.0;stroke-dasharray:2.0,2.0;" x1="369.5" x2="369.5" y1="727.686" y2="740.686"/><line style="stroke:#A80036;stroke-width:1.0;stroke-dasharray:2.0,2.0;" x1="322.5" x2="369.5" y1="740.686" y2="740.686"/><polygon fill="#A80036" points="332.5,736.686,322.5,740.686,332.5,744.686,328.5,740.686" style="stroke:#A80036;stroke-width:1.0;"/><line style="stroke:#A80036;stroke-width:1.0;stroke-dasharray:2.0,2.0;" x1="322.5" x2="364.5" y1="754.686" y2="754.686"/><line style="stroke:#A80036;stroke-width:1.0;stroke-dasharray:2.0,2.0;" x1="364.5" x2="364.5" y1="754.686" y2="767.686"/><line style="stroke:#A80036;stroke-width:1.0;stroke-dasharray:2.0,2.0;" x1="317.5" x2="364.5" y1="767.686" y2="767.686"/><polygon fill="#A80036" points="327.5,763.686,317.5,767.686,327.5,771.686,323.5,767.686" style="stroke:#A80036;stroke-width:1.0;"/><polygon fill="#A80036" points="477.5,790.392,487.5,794.392,477.5,798.392,481.5,794.392" style="stroke:#A80036;stroke-width:1.0;"/><line style="stroke:#A80036;stroke-width:1.0;" x1="317.5" x2="483.5" y1="794.392" y2="794.392"/><text fill="#000000" font-family="sans-serif" font-size="13" lengthAdjust="spacing" textLength="109" x="324.5" y="788.583">initLoggerInternal</text><polygon fill="#A80036" points="630,822.098,640,826.098,630,830.098,634,826.098" style="stroke:#A80036;stroke-width:1.0;"/><line style="stroke:#A80036;stroke-width:1.0;" x1="499.5" x2="636" y1="826.098" y2="826.098"/><text fill="#000000" font-family="sans-serif" font-size="13" lengthAdjust="spacing" textLength="62" x="506.5" y="820.289">initLogger</text><polygon fill="#A80036" points="510.5,836.098,500.5,840.098,510.5,844.098,506.5,840.098" style="stroke:#A80036;stroke-width:1.0;"/><line style="stroke:#A80036;stroke-width:1.0;stroke-dasharray:2.0,2.0;" x1="504.5" x2="646" y1="840.098" y2="840.098"/><polygon fill="#A80036" points="328.5,850.098,318.5,854.098,328.5,858.098,324.5,854.098" style="stroke:#A80036;stroke-width:1.0;"/><line style="stroke:#A80036;stroke-width:1.0;stroke-dasharray:2.0,2.0;" x1="322.5" x2="493.5" y1="854.098" y2="854.098"/><polygon fill="#A80036" points="122.5,864.098,112.5,868.098,122.5,872.098,118.5,868.098" style="stroke:#A80036;stroke-width:1.0;"/><line style="stroke:#A80036;stroke-width:1.0;stroke-dasharray:2.0,2.0;" x1="116.5" x2="311.5" y1="868.098" y2="868.098"/><polygon fill="#A80036" points="40.5,878.098,30.5,882.098,40.5,886.098,36.5,882.098" style="stroke:#A80036;stroke-width:1.0;"/><line style="stroke:#A80036;stroke-width:1.0;stroke-dasharray:2.0,2.0;" x1="34.5" x2="105.5" y1="882.098" y2="882.098"/></g></svg>