<?xml version="1.0" encoding="UTF-8" standalone="no"?><svg xmlns="http://www.w3.org/2000/svg" xmlns:xlink="http://www.w3.org/1999/xlink" contentScriptType="application/ecmascript" contentStyleType="text/css" height="955px" preserveAspectRatio="none" style="width:952px;height:955px;background:#EEEBDC;" version="1.1" viewBox="0 0 952 955" width="952px" zoomAndPan="magnify"><defs><filter height="300%" id="f19d53hv3000td" width="300%" x="-1" y="-1"><feGaussianBlur result="blurOut" stdDeviation="2.0"/><feColorMatrix in="blurOut" result="blurOut2" type="matrix" values="0 0 0 0 0 0 0 0 0 0 0 0 0 0 0 0 0 0 .4 0"/><feOffset dx="4.0" dy="4.0" in="blurOut2" result="blurOut3"/><feBlend in="SourceGraphic" in2="blurOut3" mode="normal"/></filter></defs><g><!--MD5=[597f01ae93dd2a57352dffadb9a79f25]
cluster building_blocks--><rect fill="#EEEBDC" filter="url(#f19d53hv3000td)" height="499" style="stroke:#000000;stroke-width:1.5;" width="658" x="170" y="7"/><path d="M288,7 L288,19.0679 L278,29.0679 L170,29.0679 " fill="none" style="stroke:#000000;stroke-width:1.5;"/><text fill="#000000" font-family="sans-serif" font-size="14" font-weight="bold" lengthAdjust="spacing" textLength="108" x="173" y="22.9659">building_blocks</text><!--MD5=[b87c9d4806067e80614bd4b0c4c07939]
cluster testing--><rect fill="#EEEBDC" filter="url(#f19d53hv3000td)" height="222" style="stroke:#000000;stroke-width:1.5;" width="370" x="570" y="570.5"/><path d="M629,570.5 L629,582.5679 L619,592.5679 L570,592.5679 " fill="none" style="stroke:#000000;stroke-width:1.5;"/><text fill="#000000" font-family="sans-serif" font-size="14" font-weight="bold" lengthAdjust="spacing" textLength="49" x="573" y="586.4659">testing</text><!--MD5=[fde78261c83df273810042a88c770c4d]
class LogLevel--><rect codeLine="4" fill="#FEFECE" filter="url(#f19d53hv3000td)" height="152.8732" id="LogLevel" style="stroke:#A80036;stroke-width:1.5;" width="81" x="730.5" y="90"/><ellipse cx="745.5" cy="106" fill="#EB937F" rx="11" ry="11" style="stroke:#A80036;stroke-width:1.0;"/><path d="M741.8594,112.5 L741.8594,100.3594 L749.5156,100.3594 L749.5156,102.4844 L744.2344,102.4844 L744.2344,105.1406 L749.25,105.1406 L749.25,107.2656 L744.2344,107.2656 L744.2344,110.375 L749.5156,110.375 L749.5156,112.5 L741.8594,112.5 Z " fill="#000000"/><text fill="#000000" font-family="sans-serif" font-size="12" lengthAdjust="spacing" textLength="49" x="759.5" y="110.656">LogLevel</text><line style="stroke:#A80036;stroke-width:1.5;" x1="731.5" x2="810.5" y1="122" y2="122"/><text fill="#000000" font-family="sans-serif" font-size="11" lengthAdjust="spacing" textLength="42" x="736.5" y="137.7589">OFF = 0,</text><text fill="#000000" font-family="sans-serif" font-size="11" lengthAdjust="spacing" textLength="35" x="736.5" y="152.7408">FATAL,</text><text fill="#000000" font-family="sans-serif" font-size="11" lengthAdjust="spacing" textLength="39" x="736.5" y="167.7227">ERROR,</text><text fill="#000000" font-family="sans-serif" font-size="11" lengthAdjust="spacing" textLength="35" x="736.5" y="182.7046">WARN,</text><text fill="#000000" font-family="sans-serif" font-size="11" lengthAdjust="spacing" textLength="30" x="736.5" y="197.6865">INFO,</text><text fill="#000000" font-family="sans-serif" font-size="11" lengthAdjust="spacing" textLength="40" x="736.5" y="212.6684">DEBUG,</text><text fill="#000000" font-family="sans-serif" font-size="11" lengthAdjust="spacing" textLength="36" x="736.5" y="227.6502">TRACE,</text><line style="stroke:#A80036;stroke-width:1.5;" x1="731.5" x2="810.5" y1="234.8732" y2="234.8732"/><!--MD5=[248f897e4bb16c2722904b15df30346f]
class Logger--><rect codeLine="14" fill="#FEFECE" filter="url(#f19d53hv3000td)" height="122.9094" id="Logger" style="stroke:#A80036;stroke-width:1.5;" width="401" x="240.5" y="367"/><ellipse cx="383.75" cy="383" fill="#ADD1B2" rx="11" ry="11" style="stroke:#A80036;stroke-width:1.0;"/><path d="M383.2188,389.9219 Q381.4688,389.9219 380.3281,389.1875 Q379.2031,388.4375 378.6406,387.0938 Q378.0938,385.7344 378.0938,383.9375 Q378.0938,381.9063 378.75,380.4531 Q379.4063,379 380.6875,378.2188 Q381.9688,377.4375 383.8438,377.4375 Q384.7344,377.4375 385.4063,377.625 Q386.0781,377.7969 386.7656,378.1406 L385.9531,380.1563 Q385.3281,379.8438 384.7813,379.7188 Q384.25,379.5938 383.7656,379.5938 Q382.5938,379.5938 381.8906,380.125 Q381.1875,380.6563 380.8906,381.6094 Q380.5938,382.5625 380.5938,383.8281 Q380.5938,385.8438 381.3125,386.8125 Q382.0313,387.7656 383.625,387.7656 Q384.2188,387.7656 384.8438,387.6094 Q385.4688,387.4531 386.2969,387.0781 L386.2969,389.2969 Q385.5625,389.6094 384.7656,389.7656 Q383.9844,389.9219 383.2188,389.9219 Z " fill="#000000"/><text fill="#000000" font-family="sans-serif" font-size="12" lengthAdjust="spacing" textLength="39" x="404.25" y="387.656">Logger</text><rect fill="#EEEBDC" height="18.3441" style="stroke:#000000;stroke-width:1.0;stroke-dasharray:2.0,2.0;" width="65" x="579.5" y="364"/><text fill="#000000" font-family="sans-serif" font-size="12" font-style="italic" lengthAdjust="spacing" textLength="63" x="580.5" y="377.8281">BaseLogger</text><line style="stroke:#A80036;stroke-width:1.5;" x1="241.5" x2="640.5" y1="399" y2="399"/><line style="stroke:#A80036;stroke-width:1.5;" x1="241.5" x2="640.5" y1="407" y2="407"/><ellipse cx="251.5" cy="418" fill="#84BE84" rx="3" ry="3" style="stroke:#038048;stroke-width:1.0;"/><text fill="#000000" font-family="sans-serif" font-size="11" lengthAdjust="spacing" text-decoration="underline" textLength="375" x="260.5" y="422.7589">void init(const LogLevel logLevel = LogLevelFromEnvOr(LogLevel::Info))</text><ellipse cx="251.5" cy="432.9819" fill="#84BE84" rx="3" ry="3" style="stroke:#038048;stroke-width:1.0;"/><text fill="#000000" font-family="sans-serif" font-size="11" lengthAdjust="spacing" text-decoration="underline" textLength="72" x="260.5" y="437.7408">Logger&amp; get()</text><ellipse cx="251.5" cy="447.9638" fill="#84BE84" rx="3" ry="3" style="stroke:#038048;stroke-width:1.0;"/><text fill="#000000" font-family="sans-serif" font-size="11" lengthAdjust="spacing" text-decoration="underline" textLength="223" x="260.5" y="452.7227">void setActiveLogger(Logger* newLogger)</text><rect fill="#F24D5C" height="6" style="stroke:#C82930;stroke-width:1.0;" width="6" x="248.5" y="459.9457"/><text fill="#000000" font-family="sans-serif" font-size="11" lengthAdjust="spacing" textLength="223" x="260.5" y="467.7046">void initLoggerInternal(LogLevel logLevel)</text><rect fill="#F24D5C" height="6" style="stroke:#C82930;stroke-width:1.0;" width="6" x="248.5" y="474.9276"/><text fill="#000000" font-family="sans-serif" font-size="11" lengthAdjust="spacing" text-decoration="underline" textLength="278" x="260.5" y="482.6865">Logger&amp; activeLogger(Logger* newLogger = nullptr)</text><!--MD5=[ef6e0fb57396685d3eab884a2ccd12ec]
class ConsoleLogger--><rect codeLine="22" fill="#FEFECE" filter="url(#f19d53hv3000td)" height="242.7645" id="ConsoleLogger" style="stroke:#A80036;stroke-width:1.5;" width="509" x="186.5" y="45"/><ellipse cx="394.75" cy="61" fill="#ADD1B2" rx="11" ry="11" style="stroke:#A80036;stroke-width:1.0;"/><path d="M394.2188,67.9219 Q392.4688,67.9219 391.3281,67.1875 Q390.2031,66.4375 389.6406,65.0938 Q389.0938,63.7344 389.0938,61.9375 Q389.0938,59.9063 389.75,58.4531 Q390.4063,57 391.6875,56.2188 Q392.9688,55.4375 394.8438,55.4375 Q395.7344,55.4375 396.4063,55.625 Q397.0781,55.7969 397.7656,56.1406 L396.9531,58.1563 Q396.3281,57.8438 395.7813,57.7188 Q395.25,57.5938 394.7656,57.5938 Q393.5938,57.5938 392.8906,58.125 Q392.1875,58.6563 391.8906,59.6094 Q391.5938,60.5625 391.5938,61.8281 Q391.5938,63.8438 392.3125,64.8125 Q393.0313,65.7656 394.625,65.7656 Q395.2188,65.7656 395.8438,65.6094 Q396.4688,65.4531 397.2969,65.0781 L397.2969,67.2969 Q396.5625,67.6094 395.7656,67.7656 Q394.9844,67.9219 394.2188,67.9219 Z " fill="#000000"/><text fill="#000000" font-family="sans-serif" font-size="12" lengthAdjust="spacing" textLength="84" x="415.25" y="65.656">ConsoleLogger</text><line style="stroke:#A80036;stroke-width:1.5;" x1="187.5" x2="694.5" y1="77" y2="77"/><line style="stroke:#A80036;stroke-width:1.5;" x1="187.5" x2="694.5" y1="85" y2="85"/><ellipse cx="197.5" cy="96" fill="#84BE84" rx="3" ry="3" style="stroke:#038048;stroke-width:1.0;"/><text fill="#000000" font-family="sans-serif" font-size="11" lengthAdjust="spacing" text-decoration="underline" textLength="120" x="206.5" y="100.7589">LogLevel getLogLevel()</text><ellipse cx="197.5" cy="110.9819" fill="#84BE84" rx="3" ry="3" style="stroke:#038048;stroke-width:1.0;"/><text fill="#000000" font-family="sans-serif" font-size="11" lengthAdjust="spacing" text-decoration="underline" textLength="188" x="206.5" y="115.7408">void setLogLevel(LogLevel logLevel)</text><polygon fill="#FFFF44" points="197.5,120.9638,201.5,124.9638,197.5,128.9638,193.5,124.9638" style="stroke:#B38D22;stroke-width:1.0;"/><text fill="#000000" font-family="sans-serif" font-size="11" lengthAdjust="spacing" textLength="86" x="206.5" y="130.7227">ConsoleLogger()</text><polygon fill="#FFFF44" points="197.5,135.9457,201.5,139.9457,197.5,143.9457,193.5,139.9457" style="stroke:#B38D22;stroke-width:1.0;"/><text fill="#000000" font-family="sans-serif" font-size="11" font-style="italic" lengthAdjust="spacing" textLength="158" x="206.5" y="145.7046">void initLogger(LogLevel logLevel)</text><polygon fill="#FFFF44" points="197.5,150.9276,201.5,154.9276,197.5,158.9276,193.5,154.9276" style="stroke:#B38D22;stroke-width:1.0;"/><text fill="#000000" font-family="sans-serif" font-size="11" font-style="italic" lengthAdjust="spacing" textLength="483" x="206.5" y="160.6865">void createLogMessageHeader(const char* file, const int line, const char* function, LogLevel logLevel)</text><polygon fill="#FFFF44" points="197.5,165.9094,201.5,169.9094,197.5,173.9094,193.5,169.9094" style="stroke:#B38D22;stroke-width:1.0;"/><text fill="#000000" font-family="sans-serif" font-size="11" font-style="italic" lengthAdjust="spacing" textLength="53" x="206.5" y="175.6684">void flush()</text><polygon fill="#FFFF44" points="197.5,180.8913,201.5,184.8913,197.5,188.8913,193.5,184.8913" style="stroke:#B38D22;stroke-width:1.0;"/><text fill="#000000" font-family="sans-serif" font-size="11" lengthAdjust="spacing" textLength="163" x="206.5" y="190.6502">LogBuffer getLogBuffer() const</text><polygon fill="#FFFF44" points="197.5,195.8732,201.5,199.8732,197.5,203.8732,193.5,199.8732" style="stroke:#B38D22;stroke-width:1.0;"/><text fill="#000000" font-family="sans-serif" font-size="11" lengthAdjust="spacing" textLength="112" x="206.5" y="205.6321">void assumeFlushed()</text><polygon fill="#FFFF44" points="197.5,210.8551,201.5,214.8551,197.5,218.8551,193.5,214.8551" style="stroke:#B38D22;stroke-width:1.0;"/><text fill="#000000" font-family="sans-serif" font-size="11" lengthAdjust="spacing" textLength="189" x="206.5" y="220.614">void logString(const char* message)</text><polygon fill="#FFFF44" points="197.5,225.837,201.5,229.837,197.5,233.837,193.5,229.837" style="stroke:#B38D22;stroke-width:1.0;"/><text fill="#000000" font-family="sans-serif" font-size="11" lengthAdjust="spacing" textLength="159" x="206.5" y="235.5959">void logBool(const bool value)</text><polygon fill="#FFFF44" points="197.5,240.8189,201.5,244.8189,197.5,248.8189,193.5,244.8189" style="stroke:#B38D22;stroke-width:1.0;"/><text fill="#000000" font-family="sans-serif" font-size="11" lengthAdjust="spacing" textLength="291" x="206.5" y="250.5778">void logDec(const T value) with T being arithmetic types</text><polygon fill="#FFFF44" points="197.5,255.8008,201.5,259.8008,197.5,263.8008,193.5,259.8008" style="stroke:#B38D22;stroke-width:1.0;"/><text fill="#000000" font-family="sans-serif" font-size="11" lengthAdjust="spacing" textLength="395" x="206.5" y="265.5597">void logHex(const T value) with T being unsigned integers, floats or pointer</text><polygon fill="#FFFF44" points="197.5,270.7827,201.5,274.7827,197.5,278.7827,193.5,274.7827" style="stroke:#B38D22;stroke-width:1.0;"/><text fill="#000000" font-family="sans-serif" font-size="11" lengthAdjust="spacing" textLength="301" x="206.5" y="280.5416">void logOct(const T value) with T being unsigned integers</text><!--MD5=[3e060780261fb8a0ee240911acbc75b8]
class TestingLogger--><rect codeLine="42" fill="#FEFECE" filter="url(#f19d53hv3000td)" height="167.8551" id="TestingLogger" style="stroke:#A80036;stroke-width:1.5;" width="337" x="586.5" y="608.5"/><ellipse cx="710.75" cy="624.5" fill="#ADD1B2" rx="11" ry="11" style="stroke:#A80036;stroke-width:1.0;"/><path d="M710.2188,631.4219 Q708.4688,631.4219 707.3281,630.6875 Q706.2031,629.9375 705.6406,628.5938 Q705.0938,627.2344 705.0938,625.4375 Q705.0938,623.4063 705.75,621.9531 Q706.4063,620.5 707.6875,619.7188 Q708.9688,618.9375 710.8438,618.9375 Q711.7344,618.9375 712.4063,619.125 Q713.0781,619.2969 713.7656,619.6406 L712.9531,621.6563 Q712.3281,621.3438 711.7813,621.2188 Q711.25,621.0938 710.7656,621.0938 Q709.5938,621.0938 708.8906,621.625 Q708.1875,622.1563 707.8906,623.1094 Q707.5938,624.0625 707.5938,625.3281 Q707.5938,627.3438 708.3125,628.3125 Q709.0313,629.2656 710.625,629.2656 Q711.2188,629.2656 711.8438,629.1094 Q712.4688,628.9531 713.2969,628.5781 L713.2969,630.7969 Q712.5625,631.1094 711.7656,631.2656 Q710.9844,631.4219 710.2188,631.4219 Z " fill="#000000"/><text fill="#000000" font-family="sans-serif" font-size="12" lengthAdjust="spacing" textLength="80" x="731.25" y="629.156">TestingLogger</text><line style="stroke:#A80036;stroke-width:1.5;" x1="587.5" x2="922.5" y1="640.5" y2="640.5"/><line style="stroke:#A80036;stroke-width:1.5;" x1="587.5" x2="922.5" y1="648.5" y2="648.5"/><ellipse cx="597.5" cy="659.5" fill="#84BE84" rx="3" ry="3" style="stroke:#038048;stroke-width:1.0;"/><text fill="#000000" font-family="sans-serif" font-size="11" lengthAdjust="spacing" text-decoration="underline" textLength="49" x="606.5" y="664.2589">void init()</text><ellipse cx="597.5" cy="674.4819" fill="#84BE84" rx="3" ry="3" style="stroke:#038048;stroke-width:1.0;"/><text fill="#000000" font-family="sans-serif" font-size="11" lengthAdjust="spacing" text-decoration="underline" textLength="194" x="606.5" y="679.2408">uint64_t getNumberOfLogMessages()</text><ellipse cx="597.5" cy="689.4638" fill="#84BE84" rx="3" ry="3" style="stroke:#038048;stroke-width:1.0;"/><text fill="#000000" font-family="sans-serif" font-size="11" lengthAdjust="spacing" text-decoration="underline" textLength="216" x="606.5" y="694.2227">std::vector&lt;std::string&gt; getLogMessages()</text><ellipse cx="597.5" cy="704.4457" fill="#84BE84" rx="3" ry="3" style="stroke:#038048;stroke-width:1.0;"/><text fill="#000000" font-family="sans-serif" font-size="11" lengthAdjust="spacing" text-decoration="underline" textLength="311" x="606.5" y="709.2046">bool doesLoggerSupportLogLevel(const LogLevel logLevel)</text><ellipse cx="597.5" cy="719.4276" fill="#84BE84" rx="3" ry="3" style="stroke:#038048;stroke-width:1.0;"/><text fill="#000000" font-family="sans-serif" font-size="11" lengthAdjust="spacing" textLength="110" x="606.5" y="724.1865">void clearLogBuffer()</text><ellipse cx="597.5" cy="734.4094" fill="#84BE84" rx="3" ry="3" style="stroke:#038048;stroke-width:1.0;"/><text fill="#000000" font-family="sans-serif" font-size="11" lengthAdjust="spacing" textLength="111" x="606.5" y="739.1684">void printLogBuffer()</text><rect fill="#F24D5C" height="6" style="stroke:#C82930;stroke-width:1.0;" width="6" x="594.5" y="746.3913"/><text fill="#000000" font-family="sans-serif" font-size="11" lengthAdjust="spacing" textLength="108" x="606.5" y="754.1502">void TestingLogger()</text><rect fill="#F24D5C" height="6" style="stroke:#C82930;stroke-width:1.0;" width="6" x="594.5" y="761.3732"/><text fill="#000000" font-family="sans-serif" font-size="11" lengthAdjust="spacing" textLength="58" x="606.5" y="769.1321">void flush()</text><!--MD5=[f140418cf171f2c7428fce2c4800c365]
class LogHex--><rect codeLine="55" fill="#FEFECE" filter="url(#f19d53hv3000td)" height="48" id="LogHex" style="stroke:#A80036;stroke-width:1.5;" width="84" x="178" y="893"/><ellipse cx="193" cy="909" fill="#ADD1B2" rx="11" ry="11" style="stroke:#A80036;stroke-width:1.0;"/><path d="M192.4688,915.9219 Q190.7188,915.9219 189.5781,915.1875 Q188.4531,914.4375 187.8906,913.0938 Q187.3438,911.7344 187.3438,909.9375 Q187.3438,907.9063 188,906.4531 Q188.6563,905 189.9375,904.2188 Q191.2188,903.4375 193.0938,903.4375 Q193.9844,903.4375 194.6563,903.625 Q195.3281,903.7969 196.0156,904.1406 L195.2031,906.1563 Q194.5781,905.8438 194.0313,905.7188 Q193.5,905.5938 193.0156,905.5938 Q191.8438,905.5938 191.1406,906.125 Q190.4375,906.6563 190.1406,907.6094 Q189.8438,908.5625 189.8438,909.8281 Q189.8438,911.8438 190.5625,912.8125 Q191.2813,913.7656 192.875,913.7656 Q193.4688,913.7656 194.0938,913.6094 Q194.7188,913.4531 195.5469,913.0781 L195.5469,915.2969 Q194.8125,915.6094 194.0156,915.7656 Q193.2344,915.9219 192.4688,915.9219 Z " fill="#000000"/><text fill="#000000" font-family="sans-serif" font-size="12" lengthAdjust="spacing" textLength="42" x="207" y="913.656">LogHex</text><rect fill="#EEEBDC" height="18.3441" style="stroke:#000000;stroke-width:1.0;stroke-dasharray:2.0,2.0;" width="8" x="257" y="890"/><text fill="#000000" font-family="sans-serif" font-size="12" font-style="italic" lengthAdjust="spacing" textLength="6" x="258" y="903.8281">T</text><line style="stroke:#A80036;stroke-width:1.5;" x1="179" x2="261" y1="925" y2="925"/><line style="stroke:#A80036;stroke-width:1.5;" x1="179" x2="261" y1="933" y2="933"/><!--MD5=[695d6075a3a6e2de02d16b9ff239c01e]
class LogOct--><rect codeLine="57" fill="#FEFECE" filter="url(#f19d53hv3000td)" height="48" id="LogOct" style="stroke:#A80036;stroke-width:1.5;" width="81" x="297.5" y="893"/><ellipse cx="312.5" cy="909" fill="#ADD1B2" rx="11" ry="11" style="stroke:#A80036;stroke-width:1.0;"/><path d="M311.9688,915.9219 Q310.2188,915.9219 309.0781,915.1875 Q307.9531,914.4375 307.3906,913.0938 Q306.8438,911.7344 306.8438,909.9375 Q306.8438,907.9063 307.5,906.4531 Q308.1563,905 309.4375,904.2188 Q310.7188,903.4375 312.5938,903.4375 Q313.4844,903.4375 314.1563,903.625 Q314.8281,903.7969 315.5156,904.1406 L314.7031,906.1563 Q314.0781,905.8438 313.5313,905.7188 Q313,905.5938 312.5156,905.5938 Q311.3438,905.5938 310.6406,906.125 Q309.9375,906.6563 309.6406,907.6094 Q309.3438,908.5625 309.3438,909.8281 Q309.3438,911.8438 310.0625,912.8125 Q310.7813,913.7656 312.375,913.7656 Q312.9688,913.7656 313.5938,913.6094 Q314.2188,913.4531 315.0469,913.0781 L315.0469,915.2969 Q314.3125,915.6094 313.5156,915.7656 Q312.7344,915.9219 311.9688,915.9219 Z " fill="#000000"/><text fill="#000000" font-family="sans-serif" font-size="12" lengthAdjust="spacing" textLength="39" x="326.5" y="913.656">LogOct</text><rect fill="#EEEBDC" height="18.3441" style="stroke:#000000;stroke-width:1.0;stroke-dasharray:2.0,2.0;" width="8" x="373.5" y="890"/><text fill="#000000" font-family="sans-serif" font-size="12" font-style="italic" lengthAdjust="spacing" textLength="6" x="374.5" y="903.8281">T</text><line style="stroke:#A80036;stroke-width:1.5;" x1="298.5" x2="377.5" y1="925" y2="925"/><line style="stroke:#A80036;stroke-width:1.5;" x1="298.5" x2="377.5" y1="933" y2="933"/><!--MD5=[5d68a8d24c5e12d346c59c060771c23e]
class LogStream--><rect codeLine="59" fill="#FEFECE" filter="url(#f19d53hv3000td)" height="242.7645" id="LogStream" style="stroke:#A80036;stroke-width:1.5;" width="544" x="7" y="571"/><ellipse cx="244.25" cy="587" fill="#ADD1B2" rx="11" ry="11" style="stroke:#A80036;stroke-width:1.0;"/><path d="M243.7188,593.9219 Q241.9688,593.9219 240.8281,593.1875 Q239.7031,592.4375 239.1406,591.0938 Q238.5938,589.7344 238.5938,587.9375 Q238.5938,585.9063 239.25,584.4531 Q239.9063,583 241.1875,582.2188 Q242.4688,581.4375 244.3438,581.4375 Q245.2344,581.4375 245.9063,581.625 Q246.5781,581.7969 247.2656,582.1406 L246.4531,584.1563 Q245.8281,583.8438 245.2813,583.7188 Q244.75,583.5938 244.2656,583.5938 Q243.0938,583.5938 242.3906,584.125 Q241.6875,584.6563 241.3906,585.6094 Q241.0938,586.5625 241.0938,587.8281 Q241.0938,589.8438 241.8125,590.8125 Q242.5313,591.7656 244.125,591.7656 Q244.7188,591.7656 245.3438,591.6094 Q245.9688,591.4531 246.7969,591.0781 L246.7969,593.2969 Q246.0625,593.6094 245.2656,593.7656 Q244.4844,593.9219 243.7188,593.9219 Z " fill="#000000"/><text fill="#000000" font-family="sans-serif" font-size="12" lengthAdjust="spacing" textLength="61" x="264.75" y="591.656">LogStream</text><line style="stroke:#A80036;stroke-width:1.5;" x1="8" x2="550" y1="603" y2="603"/><line style="stroke:#A80036;stroke-width:1.5;" x1="8" x2="550" y1="611" y2="611"/><ellipse cx="18" cy="622" fill="#84BE84" rx="3" ry="3" style="stroke:#038048;stroke-width:1.0;"/><text fill="#000000" font-family="sans-serif" font-size="11" lengthAdjust="spacing" textLength="428" x="27" y="626.7589">LogStream(const char* file, const int line, const char* function, LogLevel logLevel)</text><ellipse cx="18" cy="636.9819" fill="#84BE84" rx="3" ry="3" style="stroke:#038048;stroke-width:1.0;"/><text fill="#000000" font-family="sans-serif" font-size="11" lengthAdjust="spacing" textLength="518" x="27" y="641.7408">LogStream(Logger&amp; logger, const char* file, const int line, const char* function, LogLevel logLevel)</text><ellipse cx="18" cy="651.9638" fill="#84BE84" rx="3" ry="3" style="stroke:#038048;stroke-width:1.0;"/><text fill="#000000" font-family="sans-serif" font-size="11" lengthAdjust="spacing" textLength="503" x="27" y="656.7227">LogStream(const char* file, const int line, const char* function, LogLevel logLevel, bool doFlush)</text><ellipse cx="18" cy="666.9457" fill="#84BE84" rx="3" ry="3" style="stroke:#038048;stroke-width:1.0;"/><text fill="#000000" font-family="sans-serif" font-size="11" lengthAdjust="spacing" textLength="92" x="27" y="671.7046">LogStream&amp; self()</text><ellipse cx="18" cy="681.9276" fill="#84BE84" rx="3" ry="3" style="stroke:#038048;stroke-width:1.0;"/><text fill="#000000" font-family="sans-serif" font-size="11" lengthAdjust="spacing" textLength="215" x="27" y="686.6865">LogStream&amp; operator&lt;&lt;(const char* cstr)</text><ellipse cx="18" cy="696.9094" fill="#84BE84" rx="3" ry="3" style="stroke:#038048;stroke-width:1.0;"/><text fill="#000000" font-family="sans-serif" font-size="11" lengthAdjust="spacing" textLength="242" x="27" y="701.6684">LogStream&amp; operator&lt;&lt;(const std::string&amp; str)</text><ellipse cx="18" cy="711.8913" fill="#84BE84" rx="3" ry="3" style="stroke:#038048;stroke-width:1.0;"/><text fill="#000000" font-family="sans-serif" font-size="11" lengthAdjust="spacing" textLength="206" x="27" y="716.6502">LogStream&amp; operator&lt;&lt;(const bool val)</text><ellipse cx="18" cy="726.8732" fill="#84BE84" rx="3" ry="3" style="stroke:#038048;stroke-width:1.0;"/><text fill="#000000" font-family="sans-serif" font-size="11" lengthAdjust="spacing" textLength="356" x="27" y="731.6321">LogStream&amp; operator&lt;&lt;(const T value) with T being arithmetic types</text><ellipse cx="18" cy="741.8551" fill="#84BE84" rx="3" ry="3" style="stroke:#038048;stroke-width:1.0;"/><text fill="#000000" font-family="sans-serif" font-size="11" lengthAdjust="spacing" textLength="409" x="27" y="746.614">LogStream&amp; operator&lt;&lt;(const LogHex&lt;T&gt; val) with T being integers and floats</text><ellipse cx="18" cy="756.837" fill="#84BE84" rx="3" ry="3" style="stroke:#038048;stroke-width:1.0;"/><text fill="#000000" font-family="sans-serif" font-size="11" lengthAdjust="spacing" textLength="328" x="27" y="761.5959">LogStream&amp; operator&lt;&lt;(const LogHex&lt;const void * const&gt; val)</text><ellipse cx="18" cy="771.8189" fill="#84BE84" rx="3" ry="3" style="stroke:#038048;stroke-width:1.0;"/><text fill="#000000" font-family="sans-serif" font-size="11" lengthAdjust="spacing" textLength="352" x="27" y="776.5778">LogStream&amp; operator&lt;&lt;(const LogOct&lt;T&gt; val) with T being integers</text><ellipse cx="18" cy="786.8008" fill="#84BE84" rx="3" ry="3" style="stroke:#038048;stroke-width:1.0;"/><text fill="#000000" font-family="sans-serif" font-size="11" lengthAdjust="spacing" textLength="443" x="27" y="791.5597">LogStream&amp; operator&lt;&lt;(const Callable&amp; c) with signature 'LogStream&amp;(LogStream&amp;)'</text><rect fill="#F24D5C" height="6" style="stroke:#C82930;stroke-width:1.0;" width="6" x="15" y="798.7827"/><text fill="#000000" font-family="sans-serif" font-size="11" lengthAdjust="spacing" textLength="58" x="27" y="806.5416">void flush()</text><!--MD5=[21da91860576bc3b7151516d4b7bf168]
reverse link ConsoleLogger to Logger--><path codeLine="75" d="M441,308.46 C441,328.94 441,349.05 441,366.74 " fill="none" id="ConsoleLogger-backto-Logger" style="stroke:#A80036;stroke-width:1.0;"/><polygon fill="none" points="434,308.37,441,288.37,448,308.37,434,308.37" style="stroke:#A80036;stroke-width:1.0;"/><text fill="#000000" font-family="sans-serif" font-size="13" lengthAdjust="spacing" textLength="91" x="442" y="332.897">via BaseLogger</text><!--MD5=[d56c8410f4d335823911e95a16e86b25]
reverse link Logger to TestingLogger--><path codeLine="76" d="M529.34,503.21 C568.61,535.98 615.02,574.7 655.51,608.49 " fill="none" id="Logger-backto-TestingLogger" style="stroke:#A80036;stroke-width:1.0;"/><polygon fill="none" points="524.7,508.45,513.83,490.27,533.67,497.71,524.7,508.45" style="stroke:#A80036;stroke-width:1.0;"/><!--MD5=[6c907600424efbd7a4ff3a07f2132e44]
reverse link Logger to LogStream--><path codeLine="77" d="M400.78,494.55 C386.45,517.73 369.81,544.63 353.52,570.97 " fill="none" id="Logger-backto-LogStream" style="stroke:#A80036;stroke-width:1.0;stroke-dasharray:7.0,7.0;"/><polygon fill="#A80036" points="403.43,490.27,395.2982,495.8264,400.8031,494.5244,402.1052,500.0293,403.43,490.27" style="stroke:#A80036;stroke-width:1.0;"/><text fill="#000000" font-family="sans-serif" font-size="13" lengthAdjust="spacing" textLength="49" x="380" y="536.897">«friend»</text><!--MD5=[2fb7a5e241c0e35b0278a2ff37c4a2d6]
link LogStream to LogHex--><path codeLine="78" d="M247,814.19 C239.72,841.65 232.64,868.33 227.56,887.48 " fill="none" id="LogStream-to-LogHex" style="stroke:#A80036;stroke-width:1.0;stroke-dasharray:7.0,7.0;"/><polygon fill="#A80036" points="226.18,892.68,232.3555,885.0077,227.463,887.8474,224.6233,882.9549,226.18,892.68" style="stroke:#A80036;stroke-width:1.0;"/><text fill="#000000" font-family="sans-serif" font-size="13" lengthAdjust="spacing" textLength="49" x="241" y="858.897">«friend»</text><!--MD5=[2b8982e2d7fa604e14e3be9001eaf219]
link LogStream to LogOct--><path codeLine="79" d="M311,814.19 C318.28,841.65 325.36,868.33 330.44,887.48 " fill="none" id="LogStream-to-LogOct" style="stroke:#A80036;stroke-width:1.0;stroke-dasharray:7.0,7.0;"/><polygon fill="#A80036" points="331.82,892.68,333.3767,882.9549,330.537,887.8474,325.6445,885.0077,331.82,892.68" style="stroke:#A80036;stroke-width:1.0;"/><text fill="#000000" font-family="sans-serif" font-size="13" lengthAdjust="spacing" textLength="49" x="324" y="858.897">«friend»</text></g></svg>