<?xml version="1.0" encoding="UTF-8" standalone="no"?><svg xmlns="http://www.w3.org/2000/svg" xmlns:xlink="http://www.w3.org/1999/xlink" contentScriptType="application/ecmascript" contentStyleType="text/css" height="561px" preserveAspectRatio="none" style="width:971px;height:561px;background:#EEEBDC;" version="1.1" viewBox="0 0 971 561" width="971px" zoomAndPan="magnify"><defs><filter height="300%" id="f1x1akxmtm2wjw" width="300%" x="-1" y="-1"><feGaussianBlur result="blurOut" stdDeviation="2.0"/><feColorMatrix in="blurOut" result="blurOut2" type="matrix" values="0 0 0 0 0 0 0 0 0 0 0 0 0 0 0 0 0 0 .4 0"/><feOffset dx="4.0" dy="4.0" in="blurOut2" result="blurOut3"/><feBlend in="SourceGraphic" in2="blurOut3" mode="normal"/></filter></defs><g><text fill="#000000" font-family="sans-serif" font-size="18" lengthAdjust="spacing" textLength="741" x="108.5" y="19.2419">Alternative B: iceoryx-based ECU forwarding CaPro messages to Gateway and User App</text><!--MD5=[45a30aaa2590b6845ebacc5fda1fa0db]
cluster iceoryx instance e.g. electronic control unit--><polygon fill="#EEEBDC" filter="url(#f1x1akxmtm2wjw)" points="16,31.1178,321,31.1178,328,56.1857,637,56.1857,637,554.1178,16,554.1178,16,31.1178" style="stroke:#000000;stroke-width:1.5;"/><line style="stroke:#000000;stroke-width:1.5;" x1="16" x2="328" y1="56.1857" y2="56.1857"/><text fill="#000000" font-family="sans-serif" font-size="14" font-weight="bold" lengthAdjust="spacing" textLength="299" x="20" y="48.0838">iceoryx instance e.g. electronic control unit</text><!--MD5=[1cb72ea523dc46d231cf0e99f20e7c1a]
cluster RouDi--><rect fill="#EEEBDC" filter="url(#f1x1akxmtm2wjw)" height="96" style="stroke:#000000;stroke-width:1.5;" width="573" x="40" y="77.1178"/><rect fill="#EEEBDC" height="10" style="stroke:#000000;stroke-width:1.5;" width="15" x="593" y="82.1178"/><rect fill="#EEEBDC" height="2" style="stroke:#000000;stroke-width:1.5;" width="4" x="591" y="84.1178"/><rect fill="#EEEBDC" height="2" style="stroke:#000000;stroke-width:1.5;" width="4" x="591" y="88.1178"/><text fill="#000000" font-family="sans-serif" font-size="14" font-weight="bold" lengthAdjust="spacing" textLength="41" x="306" y="105.0838">RouDi</text><!--MD5=[fed0617503037837f4a985188ddc6133]
cluster User App--><rect fill="#EEEBDC" filter="url(#f1x1akxmtm2wjw)" height="306" style="stroke:#000000;stroke-width:1.5;" width="482" x="75" y="224.1178"/><rect fill="#EEEBDC" height="10" style="stroke:#000000;stroke-width:1.5;" width="15" x="537" y="229.1178"/><rect fill="#EEEBDC" height="2" style="stroke:#000000;stroke-width:1.5;" width="4" x="535" y="231.1178"/><rect fill="#EEEBDC" height="2" style="stroke:#000000;stroke-width:1.5;" width="4" x="535" y="235.1178"/><text fill="#000000" font-family="sans-serif" font-size="14" font-weight="bold" lengthAdjust="spacing" textLength="64" x="284" y="252.0838">User App</text><!--MD5=[dee5d70d0d533c7f2af877d0a4cbba83]
cluster ServiceDiscoveryListener--><rect fill="#EEEBDC" filter="url(#f1x1akxmtm2wjw)" height="236" style="stroke:#000000;stroke-width:1.5;" width="288" x="99" y="270.1178"/><rect fill="#EEEBDC" height="10" style="stroke:#000000;stroke-width:1.5;" width="15" x="367" y="275.1178"/><rect fill="#EEEBDC" height="2" style="stroke:#000000;stroke-width:1.5;" width="4" x="365" y="277.1178"/><rect fill="#EEEBDC" height="2" style="stroke:#000000;stroke-width:1.5;" width="4" x="365" y="281.1178"/><text fill="#000000" font-family="sans-serif" font-size="14" font-weight="bold" lengthAdjust="spacing" textLength="172" x="157" y="298.0838">ServiceDiscoveryListener</text><!--MD5=[2c9a12d02da8d331cac0c4b421f0347b]
cluster DDS instance e.g. electronic control unit--><polygon fill="#EEEBDC" filter="url(#f1x1akxmtm2wjw)" points="661,276.1178,944,276.1178,951,301.1857,954,301.1857,954,379.1178,661,379.1178,661,276.1178" style="stroke:#000000;stroke-width:1.5;"/><line style="stroke:#000000;stroke-width:1.5;" x1="661" x2="951" y1="301.1857" y2="301.1857"/><text fill="#000000" font-family="sans-serif" font-size="14" font-weight="bold" lengthAdjust="spacing" textLength="277" x="665" y="293.0838">DDS instance e.g. electronic control unit</text><!--MD5=[c497a0d15ec852c4fdb32ba44d3aa9da]
entity discoveryLoop--><rect fill="#FEFECE" filter="url(#f1x1akxmtm2wjw)" height="42.0679" style="stroke:#000000;stroke-width:1.5;" width="359" x="237.5" y="115.1178"/><polygon fill="#FEFECE" points="579.5,120.1178,579.5,134.1178,591.5,134.1178,591.5,126.1178,585.5,120.1178,579.5,120.1178" style="stroke:#000000;stroke-width:1.5;"/><line style="stroke:#000000;stroke-width:1.5;" x1="585.5" x2="585.5" y1="120.1178" y2="126.1178"/><line style="stroke:#000000;stroke-width:1.5;" x1="591.5" x2="585.5" y1="126.1178" y2="126.1178"/><text fill="#000000" font-family="sans-serif" font-size="14" lengthAdjust="spacing" textLength="329" x="247.5" y="143.0838">PortManager::sendToAllMatchingInterfacePorts()</text><!--MD5=[dd82451e1dd92fe3da01853750f49ff6]
entity server--><rect fill="#FEFECE" filter="url(#f1x1akxmtm2wjw)" height="42.0679" style="stroke:#000000;stroke-width:1.5;" width="146" x="56" y="115.1178"/><polygon fill="#FEFECE" points="185,120.1178,185,134.1178,197,134.1178,197,126.1178,191,120.1178,185,120.1178" style="stroke:#000000;stroke-width:1.5;"/><line style="stroke:#000000;stroke-width:1.5;" x1="191" x2="191" y1="120.1178" y2="126.1178"/><line style="stroke:#000000;stroke-width:1.5;" x1="197" x2="191" y1="126.1178" y2="126.1178"/><text fill="#000000" font-family="sans-serif" font-size="14" lengthAdjust="spacing" textLength="116" x="66" y="143.0838">m_server : Server</text><!--MD5=[4a65e84059005d12693a083370a06717]
entity client--><rect fill="#FEFECE" filter="url(#f1x1akxmtm2wjw)" height="42.0679" style="stroke:#000000;stroke-width:1.5;" width="137" x="403.5" y="317.6178"/><polygon fill="#FEFECE" points="523.5,322.6178,523.5,336.6178,535.5,336.6178,535.5,328.6178,529.5,322.6178,523.5,322.6178" style="stroke:#000000;stroke-width:1.5;"/><line style="stroke:#000000;stroke-width:1.5;" x1="529.5" x2="529.5" y1="322.6178" y2="328.6178"/><line style="stroke:#000000;stroke-width:1.5;" x1="535.5" x2="529.5" y1="328.6178" y2="328.6178"/><text fill="#000000" font-family="sans-serif" font-size="14" lengthAdjust="spacing" textLength="107" x="413.5" y="345.5838">m_client : Client</text><!--MD5=[b6a52640dd237eba0229356b811a0ca3]
entity serviceDiscoveryThread--><rect fill="#FEFECE" filter="url(#f1x1akxmtm2wjw)" height="61.1358" style="stroke:#000000;stroke-width:1.5;" width="240" x="126" y="308.1178"/><polygon fill="#FEFECE" points="349,313.1178,349,327.1178,361,327.1178,361,319.1178,355,313.1178,349,313.1178" style="stroke:#000000;stroke-width:1.5;"/><line style="stroke:#000000;stroke-width:1.5;" x1="355" x2="355" y1="313.1178" y2="319.1178"/><line style="stroke:#000000;stroke-width:1.5;" x1="361" x2="355" y1="319.1178" y2="319.1178"/><text fill="#000000" font-family="sans-serif" font-size="14" lengthAdjust="spacing" textLength="128" x="136" y="336.0838">m_thread  : Thread</text><text fill="#000000" font-family="sans-serif" font-size="14" lengthAdjust="spacing" textLength="210" x="136" y="355.1517">m_interfacePort  : InterfacePort</text><!--MD5=[e939ca035ac17cd9107982b10cc3bb97]
entity callback--><rect fill="#FEFECE" filter="url(#f1x1akxmtm2wjw)" height="42.0679" style="stroke:#000000;stroke-width:1.5;" width="256" x="115" y="448.1178"/><polygon fill="#FEFECE" points="354,453.1178,354,467.1178,366,467.1178,366,459.1178,360,453.1178,354,453.1178" style="stroke:#000000;stroke-width:1.5;"/><line style="stroke:#000000;stroke-width:1.5;" x1="360" x2="360" y1="453.1178" y2="459.1178"/><line style="stroke:#000000;stroke-width:1.5;" x1="366" x2="360" y1="459.1178" y2="459.1178"/><text fill="#000000" font-family="sans-serif" font-size="14" lengthAdjust="spacing" textLength="226" x="125" y="476.0838">m_callback  : std::function&lt;void()&gt;</text><!--MD5=[c66a602ab977f4b8b08ff7eda3b37678]
entity DCPSTopic--><rect fill="#FEFECE" filter="url(#f1x1akxmtm2wjw)" height="49.0679" style="stroke:#A80036;stroke-width:1.5;" width="111" x="676.5" y="314.1178"/><rect fill="#FEFECE" height="10" style="stroke:#A80036;stroke-width:1.5;" width="15" x="767.5" y="319.1178"/><rect fill="#FEFECE" height="2" style="stroke:#A80036;stroke-width:1.5;" width="4" x="765.5" y="321.1178"/><rect fill="#FEFECE" height="2" style="stroke:#A80036;stroke-width:1.5;" width="4" x="765.5" y="325.1178"/><text fill="#000000" font-family="sans-serif" font-size="14" lengthAdjust="spacing" textLength="71" x="691.5" y="349.0838">DCPSTopic</text><!--MD5=[cd0308ed3852805eb5f04a5726e08525]
link discoveryLoop to DCPSTopic--><path d="M443.53,157.3278 C465.24,173.0578 497.28,194.4378 528,208.1178 C540.21,213.5578 544.89,210.4478 557,216.1178 C611.23,241.5178 666.87,283.3978 700.44,310.7378 " fill="none" id="discoveryLoop-to-DCPSTopic" style="stroke:#A80036;stroke-width:1.0;stroke-dasharray:7.0,7.0;"/><polygon fill="#A80036" points="704.42,313.9978,699.9732,305.21,700.5451,310.8379,694.9173,311.4098,704.42,313.9978" style="stroke:#A80036;stroke-width:1.0;"/><text fill="#000000" font-family="sans-serif" font-size="13" lengthAdjust="spacing" textLength="148" x="529" y="204.0148">dispatchCaProMessage()</text><!--MD5=[f1a9208a3f30ce8195084af6a1a33f16]
link DCPSTopic to discoveryLoop--><path d="M731.09,314.1078 C728.47,281.0378 718.61,221.2178 682,189.1178 C667.03,175.9878 632.82,165.8478 593.79,158.1578 " fill="none" id="DCPSTopic-to-discoveryLoop" style="stroke:#A80036;stroke-width:1.0;stroke-dasharray:7.0,7.0;"/><polygon fill="#A80036" points="588.5,157.1378,596.5693,162.7846,593.4078,158.0937,598.0987,154.9322,588.5,157.1378" style="stroke:#A80036;stroke-width:1.0;"/><text fill="#000000" font-family="sans-serif" font-size="13" lengthAdjust="spacing" textLength="128" x="699" y="204.0148">Not yet implemented</text><!--MD5=[f192185aa3024139c6130928f11dc17e]
link discoveryLoop to serviceDiscoveryThread--><path d="M364.01,157.2278 C347.77,165.2878 330.83,175.8678 318,189.1178 C286.69,221.4578 266.69,270.0278 255.92,302.7278 " fill="none" id="discoveryLoop-to-serviceDiscoveryThread" style="stroke:#A80036;stroke-width:1.0;stroke-dasharray:7.0,7.0;"/><polygon fill="#A80036" points="254.27,307.8378,260.8514,300.5108,255.8125,303.0817,253.2417,298.0428,254.27,307.8378" style="stroke:#A80036;stroke-width:1.0;"/><text fill="#000000" font-family="sans-serif" font-size="13" lengthAdjust="spacing" textLength="148" x="319" y="204.0148">dispatchCaProMessage()</text><!--MD5=[709c8e59bb66e349e481c56c2feb03a9]
link server to client--><path d="M151.4,160.8478 C168.66,177.3878 194.07,198.2078 221,208.1178 C255.66,220.8778 354.66,198.2778 387,216.1178 C425.14,237.1678 450,283.4678 462.47,312.4478 " fill="none" id="server-client" style="stroke:#A80036;stroke-width:1.0;stroke-dasharray:7.0,7.0;"/><polygon fill="#A80036" points="464.51,317.2978,464.704,307.4509,462.5697,312.6897,457.3309,310.5553,464.51,317.2978" style="stroke:#A80036;stroke-width:1.0;"/><polygon fill="#A80036" points="147.63,157.1678,151.2769,166.3166,151.2082,160.6602,156.8646,160.5915,147.63,157.1678" style="stroke:#A80036;stroke-width:1.0;"/><text fill="#000000" font-family="sans-serif" font-size="13" lengthAdjust="spacing" textLength="73" x="222" y="204.0148">findService()</text><!--MD5=[b45b9338f8d912da03babe2c3557ba21]
link serviceDiscoveryThread to callback--><path d="M245.3,369.4178 C244.78,391.7078 244.08,421.8278 243.59,442.9178 " fill="none" id="serviceDiscoveryThread-to-callback" style="stroke:#A80036;stroke-width:1.0;stroke-dasharray:7.0,7.0;"/><polygon fill="#A80036" points="243.47,448.0778,247.6752,439.1719,243.5846,443.0791,239.6773,438.9885,243.47,448.0778" style="stroke:#A80036;stroke-width:1.0;"/><text fill="#000000" font-family="sans-serif" font-size="13" lengthAdjust="spacing" textLength="25" x="246" y="414.0148">calls</text></g></svg>