<?xml version="1.0" encoding="UTF-8" standalone="no"?><svg xmlns="http://www.w3.org/2000/svg" xmlns:xlink="http://www.w3.org/1999/xlink" contentScriptType="application/ecmascript" contentStyleType="text/css" height="716px" preserveAspectRatio="none" style="width:1688px;height:716px;background:#EEEBDC;" version="1.1" viewBox="0 0 1688 716" width="1688px" zoomAndPan="magnify"><defs><filter height="300%" id="f1kv2hyd0jjx82" width="300%" x="-1" y="-1"><feGaussianBlur result="blurOut" stdDeviation="2.0"/><feColorMatrix in="blurOut" result="blurOut2" type="matrix" values="0 0 0 0 0 0 0 0 0 0 0 0 0 0 0 0 0 0 .4 0"/><feOffset dx="4.0" dy="4.0" in="blurOut2" result="blurOut3"/><feBlend in="SourceGraphic" in2="blurOut3" mode="normal"/></filter></defs><g><text fill="#000000" font-family="sans-serif" font-size="18" lengthAdjust="spacing" textLength="784" x="445.5" y="16.708">Alternative D: iceoryx-based ECU forwarding CaPro messages to Gateway and User App</text><!--MD5=[45a30aaa2590b6845ebacc5fda1fa0db]
cluster iceoryx instance e.g. electronic control unit--><polygon fill="#EEEBDC" filter="url(#f1kv2hyd0jjx82)" points="16,26.9531,367,26.9531,374,49.25,1312,49.25,1312,709.4531,16,709.4531,16,26.9531" style="stroke:#000000;stroke-width:1.5;"/><line style="stroke:#000000;stroke-width:1.5;" x1="16" x2="374" y1="49.25" y2="49.25"/><text fill="#000000" font-family="sans-serif" font-size="14" font-weight="bold" lengthAdjust="spacing" textLength="345" x="20" y="41.9482">iceoryx instance e.g. electronic control unit</text><!--MD5=[1cb72ea523dc46d231cf0e99f20e7c1a]
cluster RouDi--><rect fill="#EEEBDC" filter="url(#f1kv2hyd0jjx82)" height="90" style="stroke:#000000;stroke-width:1.5;" width="396" x="352" y="69.9531"/><rect fill="#EEEBDC" height="10" style="stroke:#000000;stroke-width:1.5;" width="15" x="728" y="74.9531"/><rect fill="#EEEBDC" height="2" style="stroke:#000000;stroke-width:1.5;" width="4" x="726" y="76.9531"/><rect fill="#EEEBDC" height="2" style="stroke:#000000;stroke-width:1.5;" width="4" x="726" y="80.9531"/><text fill="#000000" font-family="sans-serif" font-size="14" font-weight="bold" lengthAdjust="spacing" textLength="45" x="527.5" y="95.9482">RouDi</text><!--MD5=[fed0617503037837f4a985188ddc6133]
cluster User App--><rect fill="#EEEBDC" filter="url(#f1kv2hyd0jjx82)" height="476.5" style="stroke:#000000;stroke-width:1.5;" width="588" x="40" y="208.9531"/><rect fill="#EEEBDC" height="10" style="stroke:#000000;stroke-width:1.5;" width="15" x="608" y="213.9531"/><rect fill="#EEEBDC" height="2" style="stroke:#000000;stroke-width:1.5;" width="4" x="606" y="215.9531"/><rect fill="#EEEBDC" height="2" style="stroke:#000000;stroke-width:1.5;" width="4" x="606" y="219.9531"/><text fill="#000000" font-family="sans-serif" font-size="14" font-weight="bold" lengthAdjust="spacing" textLength="73" x="297.5" y="234.9482">User App</text><!--MD5=[b0e862f2fa12308206ff7649c94050f6]
cluster DiscoveryInfoA--><rect fill="#EEEBDC" filter="url(#f1kv2hyd0jjx82)" height="139" style="stroke:#000000;stroke-width:1.5;" width="540" x="64" y="251.9531"/><rect fill="#EEEBDC" height="10" style="stroke:#000000;stroke-width:1.5;" width="15" x="584" y="256.9531"/><rect fill="#EEEBDC" height="2" style="stroke:#000000;stroke-width:1.5;" width="4" x="582" y="258.9531"/><rect fill="#EEEBDC" height="2" style="stroke:#000000;stroke-width:1.5;" width="4" x="582" y="262.9531"/><text fill="#000000" font-family="sans-serif" font-size="14" font-style="italic" lengthAdjust="spacing" textLength="60" x="304" y="277.9482">«object»</text><text fill="#000000" font-family="sans-serif" font-size="14" font-weight="bold" lengthAdjust="spacing" textLength="119" x="274.5" y="294.2451">DiscoveryInfoA</text><!--MD5=[a6604c5a36d609373a2d86f7dfafdcf0]
cluster DDS Gateway--><rect fill="#EEEBDC" filter="url(#f1kv2hyd0jjx82)" height="476.5" style="stroke:#000000;stroke-width:1.5;" width="636" x="652" y="208.9531"/><rect fill="#EEEBDC" height="10" style="stroke:#000000;stroke-width:1.5;" width="15" x="1268" y="213.9531"/><rect fill="#EEEBDC" height="2" style="stroke:#000000;stroke-width:1.5;" width="4" x="1266" y="215.9531"/><rect fill="#EEEBDC" height="2" style="stroke:#000000;stroke-width:1.5;" width="4" x="1266" y="219.9531"/><text fill="#000000" font-family="sans-serif" font-size="14" font-weight="bold" lengthAdjust="spacing" textLength="106" x="917" y="234.9482">DDS Gateway</text><!--MD5=[999a438fc98253d0944798e775e98dd1]
cluster DiscoveryInfoB--><rect fill="#EEEBDC" filter="url(#f1kv2hyd0jjx82)" height="139" style="stroke:#000000;stroke-width:1.5;" width="588" x="676" y="251.9531"/><rect fill="#EEEBDC" height="10" style="stroke:#000000;stroke-width:1.5;" width="15" x="1244" y="256.9531"/><rect fill="#EEEBDC" height="2" style="stroke:#000000;stroke-width:1.5;" width="4" x="1242" y="258.9531"/><rect fill="#EEEBDC" height="2" style="stroke:#000000;stroke-width:1.5;" width="4" x="1242" y="262.9531"/><text fill="#000000" font-family="sans-serif" font-size="14" font-style="italic" lengthAdjust="spacing" textLength="60" x="940" y="277.9482">«object»</text><text fill="#000000" font-family="sans-serif" font-size="14" font-weight="bold" lengthAdjust="spacing" textLength="118" x="911" y="294.2451">DiscoveryInfoB</text><!--MD5=[2c9a12d02da8d331cac0c4b421f0347b]
cluster DDS instance e.g. electronic control unit--><polygon fill="#EEEBDC" filter="url(#f1kv2hyd0jjx82)" points="1336,439.9531,1661,439.9531,1668,462.25,1671,462.25,1671,536.9531,1336,536.9531,1336,439.9531" style="stroke:#000000;stroke-width:1.5;"/><line style="stroke:#000000;stroke-width:1.5;" x1="1336" x2="1668" y1="462.25" y2="462.25"/><text fill="#000000" font-family="sans-serif" font-size="14" font-weight="bold" lengthAdjust="spacing" textLength="319" x="1340" y="454.9482">DDS instance e.g. electronic control unit</text><!--MD5=[c497a0d15ec852c4fdb32ba44d3aa9da]
entity discoveryLoop--><rect fill="#FEFECE" filter="url(#f1kv2hyd0jjx82)" height="39.2969" style="stroke:#000000;stroke-width:1.5;" width="365" x="367.5" y="104.9531"/><polygon fill="#FEFECE" points="715.5,109.9531,715.5,123.9531,727.5,123.9531,727.5,115.9531,721.5,109.9531,715.5,109.9531" style="stroke:#000000;stroke-width:1.5;"/><line style="stroke:#000000;stroke-width:1.5;" x1="721.5" x2="721.5" y1="109.9531" y2="115.9531"/><line style="stroke:#000000;stroke-width:1.5;" x1="727.5" x2="721.5" y1="115.9531" y2="115.9531"/><text fill="#000000" font-family="sans-serif" font-size="14" lengthAdjust="spacing" textLength="335" x="377.5" y="130.9482">PortManager::sendToAllMatchingInterfacePorts()</text><!--MD5=[0bf32b116301adbe8868233a3c70a795]
entity UserAppListener--><rect fill="#FEFECE" filter="url(#f1kv2hyd0jjx82)" height="62.5938" style="stroke:#A80036;stroke-width:1.5;" width="154" x="257" y="466.4531"/><rect fill="#FEFECE" height="10" style="stroke:#A80036;stroke-width:1.5;" width="15" x="391" y="471.4531"/><rect fill="#FEFECE" height="2" style="stroke:#A80036;stroke-width:1.5;" width="4" x="389" y="473.4531"/><rect fill="#FEFECE" height="2" style="stroke:#A80036;stroke-width:1.5;" width="4" x="389" y="477.4531"/><text fill="#000000" font-family="sans-serif" font-size="14" font-style="italic" lengthAdjust="spacing" textLength="60" x="299" y="499.4482">«object»</text><text fill="#000000" font-family="sans-serif" font-size="14" lengthAdjust="spacing" textLength="114" x="272" y="515.7451">UserAppListener</text><!--MD5=[56fa82e40671d6e5eb60822b7a755b6e]
entity UserDefinedCallback--><rect fill="#FEFECE" filter="url(#f1kv2hyd0jjx82)" height="62.5938" style="stroke:#A80036;stroke-width:1.5;" width="183" x="242.5" y="606.4531"/><rect fill="#FEFECE" height="10" style="stroke:#A80036;stroke-width:1.5;" width="15" x="405.5" y="611.4531"/><rect fill="#FEFECE" height="2" style="stroke:#A80036;stroke-width:1.5;" width="4" x="403.5" y="613.4531"/><rect fill="#FEFECE" height="2" style="stroke:#A80036;stroke-width:1.5;" width="4" x="403.5" y="617.4531"/><text fill="#000000" font-family="sans-serif" font-size="14" font-style="italic" lengthAdjust="spacing" textLength="60" x="299" y="639.4482">«object»</text><text fill="#000000" font-family="sans-serif" font-size="14" lengthAdjust="spacing" textLength="143" x="257.5" y="655.7451">UserDefinedCallback</text><!--MD5=[1aae650e69c23cee10853351b7ce6d4c]
entity DiscoveryInfoNoteA--><rect fill="#FEFECE" filter="url(#f1kv2hyd0jjx82)" height="71.8906" style="stroke:#000000;stroke-width:1.5;" width="507" x="80.5" y="302.9531"/><polygon fill="#FEFECE" points="570.5,307.9531,570.5,321.9531,582.5,321.9531,582.5,313.9531,576.5,307.9531,570.5,307.9531" style="stroke:#000000;stroke-width:1.5;"/><line style="stroke:#000000;stroke-width:1.5;" x1="576.5" x2="576.5" y1="307.9531" y2="313.9531"/><line style="stroke:#000000;stroke-width:1.5;" x1="582.5" x2="576.5" y1="313.9531" y2="313.9531"/><text fill="#000000" font-family="sans-serif" font-size="14" lengthAdjust="spacing" textLength="477" x="90.5" y="328.9482">+findService() : cxx::expected&lt;InstanceContainer, FindServiceError&gt;</text><text fill="#000000" font-family="sans-serif" font-size="14" lengthAdjust="spacing" textLength="353" x="90.5" y="345.2451">-m_subscriber : Subscriber&lt;ServiceRegistryTopic&gt;</text><text fill="#000000" font-family="sans-serif" font-size="14" lengthAdjust="spacing" textLength="312" x="90.5" y="361.542">-m_lastServiceRegistry : ServiceRegistryTopic</text><!--MD5=[fb192d9e9fa2e9f982e2ab2435fc2b57]
entity GatewayListener--><rect fill="#FEFECE" filter="url(#f1kv2hyd0jjx82)" height="62.5938" style="stroke:#A80036;stroke-width:1.5;" width="154" x="893" y="466.4531"/><rect fill="#FEFECE" height="10" style="stroke:#A80036;stroke-width:1.5;" width="15" x="1027" y="471.4531"/><rect fill="#FEFECE" height="2" style="stroke:#A80036;stroke-width:1.5;" width="4" x="1025" y="473.4531"/><rect fill="#FEFECE" height="2" style="stroke:#A80036;stroke-width:1.5;" width="4" x="1025" y="477.4531"/><text fill="#000000" font-family="sans-serif" font-size="14" font-style="italic" lengthAdjust="spacing" textLength="60" x="935" y="499.4482">«object»</text><text fill="#000000" font-family="sans-serif" font-size="14" lengthAdjust="spacing" textLength="114" x="908" y="515.7451">GatewayListener</text><!--MD5=[de17ccd87328d7fa0c8368d560b826cc]
entity GatewayUserDefinedCallback--><rect fill="#FEFECE" filter="url(#f1kv2hyd0jjx82)" height="62.5938" style="stroke:#A80036;stroke-width:1.5;" width="242" x="849" y="606.4531"/><rect fill="#FEFECE" height="10" style="stroke:#A80036;stroke-width:1.5;" width="15" x="1071" y="611.4531"/><rect fill="#FEFECE" height="2" style="stroke:#A80036;stroke-width:1.5;" width="4" x="1069" y="613.4531"/><rect fill="#FEFECE" height="2" style="stroke:#A80036;stroke-width:1.5;" width="4" x="1069" y="617.4531"/><text fill="#000000" font-family="sans-serif" font-size="14" font-style="italic" lengthAdjust="spacing" textLength="60" x="935" y="639.4482">«object»</text><text fill="#000000" font-family="sans-serif" font-size="14" lengthAdjust="spacing" textLength="202" x="864" y="655.7451">GatewayUserDefinedCallback</text><!--MD5=[b74f7c865a7d05be4ed710ee2ffd7ed2]
entity DiscoveryInfoNoteB--><rect fill="#FEFECE" filter="url(#f1kv2hyd0jjx82)" height="71.8906" style="stroke:#000000;stroke-width:1.5;" width="555" x="692.5" y="302.9531"/><polygon fill="#FEFECE" points="1230.5,307.9531,1230.5,321.9531,1242.5,321.9531,1242.5,313.9531,1236.5,307.9531,1230.5,307.9531" style="stroke:#000000;stroke-width:1.5;"/><line style="stroke:#000000;stroke-width:1.5;" x1="1236.5" x2="1236.5" y1="307.9531" y2="313.9531"/><line style="stroke:#000000;stroke-width:1.5;" x1="1242.5" x2="1236.5" y1="313.9531" y2="313.9531"/><text fill="#000000" font-family="sans-serif" font-size="14" lengthAdjust="spacing" textLength="477" x="702.5" y="328.9482">+findService() : cxx::expected&lt;InstanceContainer, FindServiceError&gt;</text><text fill="#000000" font-family="sans-serif" font-size="14" lengthAdjust="spacing" textLength="353" x="702.5" y="345.2451">-m_subscriber : Subscriber&lt;ServiceRegistryTopic&gt;</text><text fill="#000000" font-family="sans-serif" font-size="14" lengthAdjust="spacing" textLength="312" x="702.5" y="361.542">-m_lastServiceRegistry : ServiceRegistryTopic</text><!--MD5=[c66a602ab977f4b8b08ff7eda3b37678]
entity DCPSTopic--><rect fill="#FEFECE" filter="url(#f1kv2hyd0jjx82)" height="46.2969" style="stroke:#A80036;stroke-width:1.5;" width="117" x="1352.5" y="474.9531"/><rect fill="#FEFECE" height="10" style="stroke:#A80036;stroke-width:1.5;" width="15" x="1449.5" y="479.9531"/><rect fill="#FEFECE" height="2" style="stroke:#A80036;stroke-width:1.5;" width="4" x="1447.5" y="481.9531"/><rect fill="#FEFECE" height="2" style="stroke:#A80036;stroke-width:1.5;" width="4" x="1447.5" y="485.9531"/><text fill="#000000" font-family="sans-serif" font-size="14" lengthAdjust="spacing" textLength="77" x="1367.5" y="507.9482">DCPSTopic</text><!--MD5=[3184145f91f00fa02c4977d520143a3d]
link DiscoveryInfoNoteB to DCPSTopic--><path d="M1065.27,374.9731 C1114.24,391.8531 1175.21,411.1631 1231,423.9531 C1255.93,429.6731 1263.66,424.0831 1288,431.9531 C1317.96,441.6431 1349.31,458.3231 1372.86,472.3631 " fill="none" id="DiscoveryInfoNoteB-to-DCPSTopic" style="stroke:#A80036;stroke-width:1.0;stroke-dasharray:7.0,7.0;"/><polygon fill="#A80036" points="1377.17,474.9531,1371.5105,466.8927,1372.8825,472.3806,1367.3946,473.7526,1377.17,474.9531" style="stroke:#A80036;stroke-width:1.0;"/><text fill="#000000" font-family="sans-serif" font-size="13" lengthAdjust="spacing" textLength="85" x="1232" y="420.02">Implemented</text><!--MD5=[68c4eaed074140a0b68c7cd025675212]
link DCPSTopic to DiscoveryInfoNoteB--><path d="M1395.33,474.6631 C1379.36,453.7331 1352.64,423.2831 1322,406.9531 C1299.22,394.8231 1274.59,384.8531 1249.29,376.6831 " fill="none" id="DCPSTopic-to-DiscoveryInfoNoteB" style="stroke:#A80036;stroke-width:1.0;stroke-dasharray:7.0,7.0;"/><polygon fill="#A80036" points="1244.22,375.0731,1251.5827,381.6146,1248.9844,376.5897,1254.0093,373.9915,1244.22,375.0731" style="stroke:#A80036;stroke-width:1.0;"/><text fill="#000000" font-family="sans-serif" font-size="13" lengthAdjust="spacing" textLength="136" x="1345" y="420.02">Not yet implemented</text><!--MD5=[196ca125d13be3c56d306a77535d3894]
link discoveryLoop to DiscoveryInfoNoteA--><path d="M530.83,144.3131 C495.61,178.9631 419.95,253.3931 373.37,299.2131 " fill="none" id="discoveryLoop-to-DiscoveryInfoNoteA" style="stroke:#A80036;stroke-width:1.0;stroke-dasharray:7.0,7.0;"/><polygon fill="#A80036" points="369.79,302.7431,379.0176,299.3006,373.3611,299.2435,373.4182,293.5869,369.79,302.7431" style="stroke:#A80036;stroke-width:1.0;"/><text fill="#000000" font-family="sans-serif" font-size="13" lengthAdjust="spacing" textLength="186" x="499" y="189.02">publish(ServiceRegistryTopic)</text><!--MD5=[18ea7257aab994c0f82a3017e73979f8]
link discoveryLoop to DiscoveryInfoNoteB--><path d="M611.29,144.0331 C637.26,152.6531 667.56,163.6931 694,175.9531 C772.85,212.5031 858.39,264.8731 913,300.0831 " fill="none" id="discoveryLoop-to-DiscoveryInfoNoteB" style="stroke:#A80036;stroke-width:1.0;stroke-dasharray:7.0,7.0;"/><polygon fill="#A80036" points="917.21,302.7931,911.8222,294.5486,913.0106,300.0792,907.48,301.2676,917.21,302.7931" style="stroke:#A80036;stroke-width:1.0;"/><text fill="#000000" font-family="sans-serif" font-size="13" lengthAdjust="spacing" textLength="186" x="727" y="189.02">publish(ServiceRegistryTopic)</text><!--MD5=[d2e6d13f106a2dc3a8f4abeaffde97b5]
link GatewayListener to GatewayUserDefinedCallback--><path d="M970,529.5831 C970,550.7531 970,578.9931 970,601.1931 " fill="none" id="GatewayListener-to-GatewayUserDefinedCallback" style="stroke:#A80036;stroke-width:1.0;stroke-dasharray:7.0,7.0;"/><polygon fill="#A80036" points="970,606.4131,974,597.4131,970,601.4131,966,597.4131,970,606.4131" style="stroke:#A80036;stroke-width:1.0;"/><text fill="#000000" font-family="sans-serif" font-size="13" lengthAdjust="spacing" textLength="28" x="971" y="572.52">calls</text><!--MD5=[0b57767aa9dee5a0ffebc6a2180e4bea]
link UserAppListener to UserDefinedCallback--><path d="M334,529.5831 C334,550.7531 334,578.9931 334,601.1931 " fill="none" id="UserAppListener-to-UserDefinedCallback" style="stroke:#A80036;stroke-width:1.0;stroke-dasharray:7.0,7.0;"/><polygon fill="#A80036" points="334,606.4131,338,597.4131,334,601.4131,330,597.4131,334,606.4131" style="stroke:#A80036;stroke-width:1.0;"/><text fill="#000000" font-family="sans-serif" font-size="13" lengthAdjust="spacing" textLength="28" x="335" y="572.52">calls</text><!--MD5=[d02e2aa27c062619ce26c947788fa48d]
link DiscoveryInfoNoteA to UserAppListener--><path d="M334,375.1831 C334,400.8731 334,435.5331 334,461.3131 " fill="none" id="DiscoveryInfoNoteA-to-UserAppListener" style="stroke:#A80036;stroke-width:1.0;stroke-dasharray:7.0,7.0;"/><polygon fill="#A80036" points="334,466.3431,338,457.3431,334,461.3431,330,457.3431,334,466.3431" style="stroke:#A80036;stroke-width:1.0;"/><text fill="#000000" font-family="sans-serif" font-size="13" lengthAdjust="spacing" textLength="74" x="335" y="420.02">attached to</text><!--MD5=[0216d022979108926604880e5f9a8657]
link DiscoveryInfoNoteB to GatewayListener--><path d="M970,375.1831 C970,400.8731 970,435.5331 970,461.3131 " fill="none" id="DiscoveryInfoNoteB-to-GatewayListener" style="stroke:#A80036;stroke-width:1.0;stroke-dasharray:7.0,7.0;"/><polygon fill="#A80036" points="970,466.3431,974,457.3431,970,461.3431,966,457.3431,970,466.3431" style="stroke:#A80036;stroke-width:1.0;"/><text fill="#000000" font-family="sans-serif" font-size="13" lengthAdjust="spacing" textLength="74" x="971" y="420.02">attached to</text></g></svg>