<?xml version="1.0" encoding="UTF-8" standalone="no"?><svg xmlns="http://www.w3.org/2000/svg" xmlns:xlink="http://www.w3.org/1999/xlink" contentScriptType="application/ecmascript" contentStyleType="text/css" height="529px" preserveAspectRatio="none" style="width:1021px;height:529px;background:#EEEBDC;" version="1.1" viewBox="0 0 1021 529" width="1021px" zoomAndPan="magnify"><defs><filter height="300%" id="f1x1akxmtm2wjw" width="300%" x="-1" y="-1"><feGaussianBlur result="blurOut" stdDeviation="2.0"/><feColorMatrix in="blurOut" result="blurOut2" type="matrix" values="0 0 0 0 0 0 0 0 0 0 0 0 0 0 0 0 0 0 .4 0"/><feOffset dx="4.0" dy="4.0" in="blurOut2" result="blurOut3"/><feBlend in="SourceGraphic" in2="blurOut3" mode="normal"/></filter></defs><g><text fill="#000000" font-family="sans-serif" font-size="18" lengthAdjust="spacing" textLength="782" x="113" y="16.708">Alternative B: iceoryx-based ECU forwarding CaPro messages to Gateway and User App</text><!--MD5=[45a30aaa2590b6845ebacc5fda1fa0db]
cluster iceoryx instance e.g. electronic control unit--><polygon fill="#EEEBDC" filter="url(#f1x1akxmtm2wjw)" points="16,26.9531,367,26.9531,374,49.25,645,49.25,645,522.9531,16,522.9531,16,26.9531" style="stroke:#000000;stroke-width:1.5;"/><line style="stroke:#000000;stroke-width:1.5;" x1="16" x2="374" y1="49.25" y2="49.25"/><text fill="#000000" font-family="sans-serif" font-size="14" font-weight="bold" lengthAdjust="spacing" textLength="345" x="20" y="41.9482">iceoryx instance e.g. electronic control unit</text><!--MD5=[1cb72ea523dc46d231cf0e99f20e7c1a]
cluster RouDi--><rect fill="#EEEBDC" filter="url(#f1x1akxmtm2wjw)" height="90" style="stroke:#000000;stroke-width:1.5;" width="581" x="40" y="69.9531"/><rect fill="#EEEBDC" height="10" style="stroke:#000000;stroke-width:1.5;" width="15" x="601" y="74.9531"/><rect fill="#EEEBDC" height="2" style="stroke:#000000;stroke-width:1.5;" width="4" x="599" y="76.9531"/><rect fill="#EEEBDC" height="2" style="stroke:#000000;stroke-width:1.5;" width="4" x="599" y="80.9531"/><text fill="#000000" font-family="sans-serif" font-size="14" font-weight="bold" lengthAdjust="spacing" textLength="45" x="308" y="95.9482">RouDi</text><!--MD5=[fed0617503037837f4a985188ddc6133]
cluster User App--><rect fill="#EEEBDC" filter="url(#f1x1akxmtm2wjw)" height="290" style="stroke:#000000;stroke-width:1.5;" width="500" x="69" y="208.9531"/><rect fill="#EEEBDC" height="10" style="stroke:#000000;stroke-width:1.5;" width="15" x="549" y="213.9531"/><rect fill="#EEEBDC" height="2" style="stroke:#000000;stroke-width:1.5;" width="4" x="547" y="215.9531"/><rect fill="#EEEBDC" height="2" style="stroke:#000000;stroke-width:1.5;" width="4" x="547" y="219.9531"/><text fill="#000000" font-family="sans-serif" font-size="14" font-weight="bold" lengthAdjust="spacing" textLength="73" x="282.5" y="234.9482">User App</text><!--MD5=[dee5d70d0d533c7f2af877d0a4cbba83]
cluster ServiceDiscoveryListener--><rect fill="#EEEBDC" filter="url(#f1x1akxmtm2wjw)" height="223" style="stroke:#000000;stroke-width:1.5;" width="304" x="93" y="251.9531"/><rect fill="#EEEBDC" height="10" style="stroke:#000000;stroke-width:1.5;" width="15" x="377" y="256.9531"/><rect fill="#EEEBDC" height="2" style="stroke:#000000;stroke-width:1.5;" width="4" x="375" y="258.9531"/><rect fill="#EEEBDC" height="2" style="stroke:#000000;stroke-width:1.5;" width="4" x="375" y="262.9531"/><text fill="#000000" font-family="sans-serif" font-size="14" font-weight="bold" lengthAdjust="spacing" textLength="202" x="144" y="277.9482">ServiceDiscoveryListener</text><!--MD5=[2c9a12d02da8d331cac0c4b421f0347b]
cluster DDS instance e.g. electronic control unit--><polygon fill="#EEEBDC" filter="url(#f1x1akxmtm2wjw)" points="669,256.9531,994,256.9531,1001,279.25,1004,279.25,1004,353.9531,669,353.9531,669,256.9531" style="stroke:#000000;stroke-width:1.5;"/><line style="stroke:#000000;stroke-width:1.5;" x1="669" x2="1001" y1="279.25" y2="279.25"/><text fill="#000000" font-family="sans-serif" font-size="14" font-weight="bold" lengthAdjust="spacing" textLength="319" x="673" y="271.9482">DDS instance e.g. electronic control unit</text><!--MD5=[c497a0d15ec852c4fdb32ba44d3aa9da]
entity discoveryLoop--><rect fill="#FEFECE" filter="url(#f1x1akxmtm2wjw)" height="39.2969" style="stroke:#000000;stroke-width:1.5;" width="365" x="240.5" y="104.9531"/><polygon fill="#FEFECE" points="588.5,109.9531,588.5,123.9531,600.5,123.9531,600.5,115.9531,594.5,109.9531,588.5,109.9531" style="stroke:#000000;stroke-width:1.5;"/><line style="stroke:#000000;stroke-width:1.5;" x1="594.5" x2="594.5" y1="109.9531" y2="115.9531"/><line style="stroke:#000000;stroke-width:1.5;" x1="600.5" x2="594.5" y1="115.9531" y2="115.9531"/><text fill="#000000" font-family="sans-serif" font-size="14" lengthAdjust="spacing" textLength="335" x="250.5" y="130.9482">PortManager::sendToAllMatchingInterfacePorts()</text><!--MD5=[dd82451e1dd92fe3da01853750f49ff6]
entity server--><rect fill="#FEFECE" filter="url(#f1x1akxmtm2wjw)" height="39.2969" style="stroke:#000000;stroke-width:1.5;" width="150" x="56" y="104.9531"/><polygon fill="#FEFECE" points="189,109.9531,189,123.9531,201,123.9531,201,115.9531,195,109.9531,189,109.9531" style="stroke:#000000;stroke-width:1.5;"/><line style="stroke:#000000;stroke-width:1.5;" x1="195" x2="195" y1="109.9531" y2="115.9531"/><line style="stroke:#000000;stroke-width:1.5;" x1="201" x2="195" y1="115.9531" y2="115.9531"/><text fill="#000000" font-family="sans-serif" font-size="14" lengthAdjust="spacing" textLength="120" x="66" y="130.9482">m_server : Server</text><!--MD5=[4a65e84059005d12693a083370a06717]
entity client--><rect fill="#FEFECE" filter="url(#f1x1akxmtm2wjw)" height="39.2969" style="stroke:#000000;stroke-width:1.5;" width="139" x="413.5" y="295.4531"/><polygon fill="#FEFECE" points="535.5,300.4531,535.5,314.4531,547.5,314.4531,547.5,306.4531,541.5,300.4531,535.5,300.4531" style="stroke:#000000;stroke-width:1.5;"/><line style="stroke:#000000;stroke-width:1.5;" x1="541.5" x2="541.5" y1="300.4531" y2="306.4531"/><line style="stroke:#000000;stroke-width:1.5;" x1="547.5" x2="541.5" y1="306.4531" y2="306.4531"/><text fill="#000000" font-family="sans-serif" font-size="14" lengthAdjust="spacing" textLength="109" x="423.5" y="321.4482">m_client : Client</text><!--MD5=[b6a52640dd237eba0229356b811a0ca3]
entity serviceDiscoveryThread--><rect fill="#FEFECE" filter="url(#f1x1akxmtm2wjw)" height="55.5938" style="stroke:#000000;stroke-width:1.5;" width="243" x="132.5" y="286.9531"/><polygon fill="#FEFECE" points="358.5,291.9531,358.5,305.9531,370.5,305.9531,370.5,297.9531,364.5,291.9531,358.5,291.9531" style="stroke:#000000;stroke-width:1.5;"/><line style="stroke:#000000;stroke-width:1.5;" x1="364.5" x2="364.5" y1="291.9531" y2="297.9531"/><line style="stroke:#000000;stroke-width:1.5;" x1="370.5" x2="364.5" y1="297.9531" y2="297.9531"/><text fill="#000000" font-family="sans-serif" font-size="14" lengthAdjust="spacing" textLength="131" x="142.5" y="312.9482">m_thread  : Thread</text><text fill="#000000" font-family="sans-serif" font-size="14" lengthAdjust="spacing" textLength="213" x="142.5" y="329.2451">m_interfacePort  : InterfacePort</text><!--MD5=[e939ca035ac17cd9107982b10cc3bb97]
entity callback--><rect fill="#FEFECE" filter="url(#f1x1akxmtm2wjw)" height="39.2969" style="stroke:#000000;stroke-width:1.5;" width="272" x="109" y="419.9531"/><polygon fill="#FEFECE" points="364,424.9531,364,438.9531,376,438.9531,376,430.9531,370,424.9531,364,424.9531" style="stroke:#000000;stroke-width:1.5;"/><line style="stroke:#000000;stroke-width:1.5;" x1="370" x2="370" y1="424.9531" y2="430.9531"/><line style="stroke:#000000;stroke-width:1.5;" x1="376" x2="370" y1="430.9531" y2="430.9531"/><text fill="#000000" font-family="sans-serif" font-size="14" lengthAdjust="spacing" textLength="242" x="119" y="445.9482">m_callback  : std::function&lt;void()&gt;</text><!--MD5=[c66a602ab977f4b8b08ff7eda3b37678]
entity DCPSTopic--><rect fill="#FEFECE" filter="url(#f1x1akxmtm2wjw)" height="46.2969" style="stroke:#A80036;stroke-width:1.5;" width="117" x="685.5" y="291.9531"/><rect fill="#FEFECE" height="10" style="stroke:#A80036;stroke-width:1.5;" width="15" x="782.5" y="296.9531"/><rect fill="#FEFECE" height="2" style="stroke:#A80036;stroke-width:1.5;" width="4" x="780.5" y="298.9531"/><rect fill="#FEFECE" height="2" style="stroke:#A80036;stroke-width:1.5;" width="4" x="780.5" y="302.9531"/><text fill="#000000" font-family="sans-serif" font-size="14" lengthAdjust="spacing" textLength="77" x="700.5" y="324.9482">DCPSTopic</text><!--MD5=[cd0308ed3852805eb5f04a5726e08525]
link discoveryLoop to DCPSTopic--><path d="M447.39,144.2131 C468.45,159.5131 500.24,180.5531 531,192.9531 C547.01,199.4031 553.04,194.3831 569,200.9531 C623.31,223.3031 679.14,262.7731 712.71,288.6431 " fill="none" id="discoveryLoop-to-DCPSTopic" style="stroke:#A80036;stroke-width:1.0;stroke-dasharray:7.0,7.0;"/><polygon fill="#A80036" points="716.69,291.7331,712.0329,283.0549,712.7402,288.6674,707.1277,289.3746,716.69,291.7331" style="stroke:#A80036;stroke-width:1.0;"/><text fill="#000000" font-family="sans-serif" font-size="13" lengthAdjust="spacing" textLength="159" x="532" y="189.02">dispatchCaProMessage()</text><!--MD5=[f1a9208a3f30ce8195084af6a1a33f16]
link DCPSTopic to discoveryLoop--><path d="M742.91,291.7831 C740.14,260.9031 730.35,205.4531 696,175.9531 C680.32,162.4931 644.5,152.3731 603.81,144.8831 " fill="none" id="DCPSTopic-to-discoveryLoop" style="stroke:#A80036;stroke-width:1.0;stroke-dasharray:7.0,7.0;"/><polygon fill="#A80036" points="598.82,143.9831,606.9678,149.5161,603.7407,144.87,608.3868,141.6429,598.82,143.9831" style="stroke:#A80036;stroke-width:1.0;"/><text fill="#000000" font-family="sans-serif" font-size="13" lengthAdjust="spacing" textLength="136" x="710" y="189.02">Not yet implemented</text><!--MD5=[f192185aa3024139c6130928f11dc17e]
link discoveryLoop to serviceDiscoveryThread--><path d="M362.02,144.0231 C344.49,151.6831 326.49,162.1031 313,175.9531 C284.3,205.4231 268.56,251.0231 260.71,281.6531 " fill="none" id="discoveryLoop-to-serviceDiscoveryThread" style="stroke:#A80036;stroke-width:1.0;stroke-dasharray:7.0,7.0;"/><polygon fill="#A80036" points="259.43,286.8131,265.4772,279.0394,260.6326,281.9599,257.712,277.1153,259.43,286.8131" style="stroke:#A80036;stroke-width:1.0;"/><text fill="#000000" font-family="sans-serif" font-size="13" lengthAdjust="spacing" textLength="159" x="314" y="189.02">dispatchCaProMessage()</text><!--MD5=[709c8e59bb66e349e481c56c2feb03a9]
link server to client--><path d="M150.17,148.1231 C164.98,163.8431 186.96,183.5731 211,192.9531 C249.54,207.9831 360.33,181.7931 397,200.9531 C434.02,220.3031 459.71,263.5431 472.85,290.5731 " fill="none" id="server-client" style="stroke:#A80036;stroke-width:1.0;stroke-dasharray:7.0,7.0;"/><polygon fill="#A80036" points="475.16,295.4231,474.8887,285.578,473.0042,290.9117,467.6705,289.0272,475.16,295.4231" style="stroke:#A80036;stroke-width:1.0;"/><polygon fill="#A80036" points="146.56,144.2131,149.7208,153.541,149.9496,147.8888,155.6018,148.1176,146.56,144.2131" style="stroke:#A80036;stroke-width:1.0;"/><text fill="#000000" font-family="sans-serif" font-size="13" lengthAdjust="spacing" textLength="80" x="212" y="189.02">findService()</text><!--MD5=[b45b9338f8d912da03babe2c3557ba21]
link serviceDiscoveryThread to callback--><path d="M252,343.1431 C250.43,364.5831 248.25,394.1931 246.75,414.6931 " fill="none" id="serviceDiscoveryThread-to-callback" style="stroke:#A80036;stroke-width:1.0;stroke-dasharray:7.0,7.0;"/><polygon fill="#A80036" points="246.38,419.7031,251.0376,411.0252,246.7515,414.7169,243.0597,410.4308,246.38,419.7031" style="stroke:#A80036;stroke-width:1.0;"/><text fill="#000000" font-family="sans-serif" font-size="13" lengthAdjust="spacing" textLength="28" x="251" y="386.02">calls</text></g></svg>