<?xml version="1.0" encoding="UTF-8" standalone="no"?><svg xmlns="http://www.w3.org/2000/svg" xmlns:xlink="http://www.w3.org/1999/xlink" contentScriptType="application/ecmascript" contentStyleType="text/css" height="285px" preserveAspectRatio="none" style="width:305px;height:285px;background:#EEEBDC;" version="1.1" viewBox="0 0 305 285" width="305px" zoomAndPan="magnify"><defs><filter height="300%" id="f1m9fk30sg74lc" width="300%" x="-1" y="-1"><feGaussianBlur result="blurOut" stdDeviation="2.0"/><feColorMatrix in="blurOut" result="blurOut2" type="matrix" values="0 0 0 0 0 0 0 0 0 0 0 0 0 0 0 0 0 0 .4 0"/><feOffset dx="4.0" dy="4.0" in="blurOut2" result="blurOut3"/><feBlend in="SourceGraphic" in2="blurOut3" mode="normal"/></filter></defs><g><!--MD5=[ed6624c6556d5e7b1bd23032162d20b7]
class Client--><rect codeLine="2" fill="#FEFECE" filter="url(#f1m9fk30sg74lc)" height="48" id="Client" style="stroke:#A80036;stroke-width:1.5;" width="67" x="34.5" y="7"/><ellipse cx="49.5" cy="23" fill="#ADD1B2" rx="11" ry="11" style="stroke:#A80036;stroke-width:1.0;"/><path d="M52.4688,28.6406 Q51.8906,28.9375 51.25,29.0781 Q50.6094,29.2344 49.9063,29.2344 Q47.4063,29.2344 46.0781,27.5938 Q44.7656,25.9375 44.7656,22.8125 Q44.7656,19.6875 46.0781,18.0313 Q47.4063,16.375 49.9063,16.375 Q50.6094,16.375 51.25,16.5313 Q51.9063,16.6875 52.4688,16.9844 L52.4688,19.7031 Q51.8438,19.125 51.25,18.8594 Q50.6563,18.5781 50.0313,18.5781 Q48.6875,18.5781 48,19.6563 Q47.3125,20.7188 47.3125,22.8125 Q47.3125,24.9063 48,25.9844 Q48.6875,27.0469 50.0313,27.0469 Q50.6563,27.0469 51.25,26.7813 Q51.8438,26.5 52.4688,25.9219 L52.4688,28.6406 Z " fill="#000000"/><text fill="#000000" font-family="sans-serif" font-size="12" lengthAdjust="spacing" textLength="35" x="63.5" y="27.1543">Client</text><line style="stroke:#A80036;stroke-width:1.5;" x1="35.5" x2="100.5" y1="39" y2="39"/><line style="stroke:#A80036;stroke-width:1.5;" x1="35.5" x2="100.5" y1="47" y2="47"/><!--MD5=[c60af77fe5573b84a4aa4bce89659574]
class Server--><rect codeLine="5" fill="#FEFECE" filter="url(#f1m9fk30sg74lc)" height="48" id="Server" style="stroke:#A80036;stroke-width:1.5;" width="72" x="192" y="7"/><ellipse cx="207" cy="23" fill="#ADD1B2" rx="11" ry="11" style="stroke:#A80036;stroke-width:1.0;"/><path d="M209.9688,28.6406 Q209.3906,28.9375 208.75,29.0781 Q208.1094,29.2344 207.4063,29.2344 Q204.9063,29.2344 203.5781,27.5938 Q202.2656,25.9375 202.2656,22.8125 Q202.2656,19.6875 203.5781,18.0313 Q204.9063,16.375 207.4063,16.375 Q208.1094,16.375 208.75,16.5313 Q209.4063,16.6875 209.9688,16.9844 L209.9688,19.7031 Q209.3438,19.125 208.75,18.8594 Q208.1563,18.5781 207.5313,18.5781 Q206.1875,18.5781 205.5,19.6563 Q204.8125,20.7188 204.8125,22.8125 Q204.8125,24.9063 205.5,25.9844 Q206.1875,27.0469 207.5313,27.0469 Q208.1563,27.0469 208.75,26.7813 Q209.3438,26.5 209.9688,25.9219 L209.9688,28.6406 Z " fill="#000000"/><text fill="#000000" font-family="sans-serif" font-size="12" lengthAdjust="spacing" textLength="40" x="221" y="27.1543">Server</text><line style="stroke:#A80036;stroke-width:1.5;" x1="193" x2="263" y1="39" y2="39"/><line style="stroke:#A80036;stroke-width:1.5;" x1="193" x2="263" y1="47" y2="47"/><!--MD5=[7c99419aff5009fddfdcdd46e780beee]
class ClientPortUser--><rect codeLine="8" fill="#FEFECE" filter="url(#f1m9fk30sg74lc)" height="48" id="ClientPortUser" style="stroke:#A80036;stroke-width:1.5;" width="122" x="7" y="115"/><ellipse cx="22" cy="131" fill="#ADD1B2" rx="11" ry="11" style="stroke:#A80036;stroke-width:1.0;"/><path d="M24.9688,136.6406 Q24.3906,136.9375 23.75,137.0781 Q23.1094,137.2344 22.4063,137.2344 Q19.9063,137.2344 18.5781,135.5938 Q17.2656,133.9375 17.2656,130.8125 Q17.2656,127.6875 18.5781,126.0313 Q19.9063,124.375 22.4063,124.375 Q23.1094,124.375 23.75,124.5313 Q24.4063,124.6875 24.9688,124.9844 L24.9688,127.7031 Q24.3438,127.125 23.75,126.8594 Q23.1563,126.5781 22.5313,126.5781 Q21.1875,126.5781 20.5,127.6563 Q19.8125,128.7188 19.8125,130.8125 Q19.8125,132.9063 20.5,133.9844 Q21.1875,135.0469 22.5313,135.0469 Q23.1563,135.0469 23.75,134.7813 Q24.3438,134.5 24.9688,133.9219 L24.9688,136.6406 Z " fill="#000000"/><text fill="#000000" font-family="sans-serif" font-size="12" lengthAdjust="spacing" textLength="90" x="36" y="135.1543">ClientPortUser</text><line style="stroke:#A80036;stroke-width:1.5;" x1="8" x2="128" y1="147" y2="147"/><line style="stroke:#A80036;stroke-width:1.5;" x1="8" x2="128" y1="155" y2="155"/><!--MD5=[57d9931a6973ef884f15a41ba7bb7c60]
class ServerPortUser--><rect codeLine="11" fill="#FEFECE" filter="url(#f1m9fk30sg74lc)" height="48" id="ServerPortUser" style="stroke:#A80036;stroke-width:1.5;" width="127" x="164.5" y="115"/><ellipse cx="179.5" cy="131" fill="#ADD1B2" rx="11" ry="11" style="stroke:#A80036;stroke-width:1.0;"/><path d="M182.4688,136.6406 Q181.8906,136.9375 181.25,137.0781 Q180.6094,137.2344 179.9063,137.2344 Q177.4063,137.2344 176.0781,135.5938 Q174.7656,133.9375 174.7656,130.8125 Q174.7656,127.6875 176.0781,126.0313 Q177.4063,124.375 179.9063,124.375 Q180.6094,124.375 181.25,124.5313 Q181.9063,124.6875 182.4688,124.9844 L182.4688,127.7031 Q181.8438,127.125 181.25,126.8594 Q180.6563,126.5781 180.0313,126.5781 Q178.6875,126.5781 178,127.6563 Q177.3125,128.7188 177.3125,130.8125 Q177.3125,132.9063 178,133.9844 Q178.6875,135.0469 180.0313,135.0469 Q180.6563,135.0469 181.25,134.7813 Q181.8438,134.5 182.4688,133.9219 L182.4688,136.6406 Z " fill="#000000"/><text fill="#000000" font-family="sans-serif" font-size="12" lengthAdjust="spacing" textLength="95" x="193.5" y="135.1543">ServerPortUser</text><line style="stroke:#A80036;stroke-width:1.5;" x1="165.5" x2="290.5" y1="147" y2="147"/><line style="stroke:#A80036;stroke-width:1.5;" x1="165.5" x2="290.5" y1="155" y2="155"/><!--MD5=[5db7d3fb0705949d82e389f21f83438d]
class ChunkSender--><rect fill="#FEFECE" filter="url(#f1m9fk30sg74lc)" height="48" id="ChunkSender" style="stroke:#A80036;stroke-width:1.5;" width="116" x="12" y="223"/><ellipse cx="27" cy="239" fill="#ADD1B2" rx="11" ry="11" style="stroke:#A80036;stroke-width:1.0;"/><path d="M29.9688,244.6406 Q29.3906,244.9375 28.75,245.0781 Q28.1094,245.2344 27.4063,245.2344 Q24.9063,245.2344 23.5781,243.5938 Q22.2656,241.9375 22.2656,238.8125 Q22.2656,235.6875 23.5781,234.0313 Q24.9063,232.375 27.4063,232.375 Q28.1094,232.375 28.75,232.5313 Q29.4063,232.6875 29.9688,232.9844 L29.9688,235.7031 Q29.3438,235.125 28.75,234.8594 Q28.1563,234.5781 27.5313,234.5781 Q26.1875,234.5781 25.5,235.6563 Q24.8125,236.7188 24.8125,238.8125 Q24.8125,240.9063 25.5,241.9844 Q26.1875,243.0469 27.5313,243.0469 Q28.1563,243.0469 28.75,242.7813 Q29.3438,242.5 29.9688,241.9219 L29.9688,244.6406 Z " fill="#000000"/><text fill="#000000" font-family="sans-serif" font-size="12" lengthAdjust="spacing" textLength="84" x="41" y="243.1543">ChunkSender</text><line style="stroke:#A80036;stroke-width:1.5;" x1="13" x2="127" y1="255" y2="255"/><line style="stroke:#A80036;stroke-width:1.5;" x1="13" x2="127" y1="263" y2="263"/><!--MD5=[56725b2b8d7b861694d8392c37cfc44d]
class ChunkReceiver--><rect fill="#FEFECE" filter="url(#f1m9fk30sg74lc)" height="48" id="ChunkReceiver" style="stroke:#A80036;stroke-width:1.5;" width="124" x="164" y="223"/><ellipse cx="179" cy="239" fill="#ADD1B2" rx="11" ry="11" style="stroke:#A80036;stroke-width:1.0;"/><path d="M181.9688,244.6406 Q181.3906,244.9375 180.75,245.0781 Q180.1094,245.2344 179.4063,245.2344 Q176.9063,245.2344 175.5781,243.5938 Q174.2656,241.9375 174.2656,238.8125 Q174.2656,235.6875 175.5781,234.0313 Q176.9063,232.375 179.4063,232.375 Q180.1094,232.375 180.75,232.5313 Q181.4063,232.6875 181.9688,232.9844 L181.9688,235.7031 Q181.3438,235.125 180.75,234.8594 Q180.1563,234.5781 179.5313,234.5781 Q178.1875,234.5781 177.5,235.6563 Q176.8125,236.7188 176.8125,238.8125 Q176.8125,240.9063 177.5,241.9844 Q178.1875,243.0469 179.5313,243.0469 Q180.1563,243.0469 180.75,242.7813 Q181.3438,242.5 181.9688,241.9219 L181.9688,244.6406 Z " fill="#000000"/><text fill="#000000" font-family="sans-serif" font-size="12" lengthAdjust="spacing" textLength="92" x="193" y="243.1543">ChunkReceiver</text><line style="stroke:#A80036;stroke-width:1.5;" x1="165" x2="287" y1="255" y2="255"/><line style="stroke:#A80036;stroke-width:1.5;" x1="165" x2="287" y1="263" y2="263"/><!--MD5=[d7d92669a6c176c96fa91d3d853474b2]
reverse link Client to ClientPortUser--><path codeLine="14" d="M68,68.34 C68,83.68 68,101.1 68,114.68 " fill="none" id="Client-backto-ClientPortUser" style="stroke:#A80036;stroke-width:1.0;"/><polygon fill="#EEEBDC" points="68,55,64,61,68,67,72,61,68,55" style="stroke:#A80036;stroke-width:1.0;"/><!--MD5=[5ca044769eef536d584406bf742ecfce]
reverse link Server to ServerPortUser--><path codeLine="15" d="M228,68.34 C228,83.68 228,101.1 228,114.68 " fill="none" id="Server-backto-ServerPortUser" style="stroke:#A80036;stroke-width:1.0;"/><polygon fill="#EEEBDC" points="228,55,224,61,228,67,232,61,228,55" style="stroke:#A80036;stroke-width:1.0;"/><!--MD5=[986435fce3cac8788ab9e1e30341f016]
reverse link ClientPortUser to ChunkSender--><path codeLine="17" d="M68.69,176.34 C68.98,191.68 69.3,209.1 69.56,222.68 " fill="none" id="ClientPortUser-backto-ChunkSender" style="stroke:#A80036;stroke-width:1.0;"/><polygon fill="#EEEBDC" points="68.43,163,64.5428,169.0737,68.6541,174.9979,72.5414,168.9242,68.43,163" style="stroke:#A80036;stroke-width:1.0;"/><!--MD5=[e004a45bbcda25030c8bd819b12af5a9]
reverse link ClientPortUser to ChunkReceiver--><path codeLine="18" d="M113.29,170.38 C138.18,187.08 168.56,207.47 191.51,222.86 " fill="none" id="ClientPortUser-backto-ChunkReceiver" style="stroke:#A80036;stroke-width:1.0;"/><polygon fill="#EEEBDC" points="102.28,163,105.0352,169.664,112.2463,169.6838,109.4911,163.0198,102.28,163" style="stroke:#A80036;stroke-width:1.0;"/><!--MD5=[9ac31ad24446b9096af7568942b8f437]
reverse link ServerPortUser to ChunkSender--><path codeLine="20" d="M182.71,170.38 C157.82,187.08 127.44,207.47 104.49,222.86 " fill="none" id="ServerPortUser-backto-ChunkSender" style="stroke:#A80036;stroke-width:1.0;"/><polygon fill="#EEEBDC" points="193.72,163,186.5089,163.0198,183.7537,169.6838,190.9648,169.664,193.72,163" style="stroke:#A80036;stroke-width:1.0;"/><!--MD5=[6fedce80cf6adfd27af1484b794b1f92]
reverse link ServerPortUser to ChunkReceiver--><path codeLine="21" d="M227.31,176.34 C227.02,191.68 226.7,209.1 226.44,222.68 " fill="none" id="ServerPortUser-backto-ChunkReceiver" style="stroke:#A80036;stroke-width:1.0;"/><polygon fill="#EEEBDC" points="227.57,163,223.4586,168.9242,227.3459,174.9979,231.4572,169.0737,227.57,163" style="stroke:#A80036;stroke-width:1.0;"/></g></svg>