<?xml version="1.0" encoding="UTF-8" standalone="no"?><svg xmlns="http://www.w3.org/2000/svg" xmlns:xlink="http://www.w3.org/1999/xlink" contentScriptType="application/ecmascript" contentStyleType="text/css" height="764px" preserveAspectRatio="none" style="width:1594px;height:764px;background:#EEEBDC;" version="1.1" viewBox="0 0 1594 764" width="1594px" zoomAndPan="magnify"><defs><filter height="300%" id="f1kv2hyd0jjx82" width="300%" x="-1" y="-1"><feGaussianBlur result="blurOut" stdDeviation="2.0"/><feColorMatrix in="blurOut" result="blurOut2" type="matrix" values="0 0 0 0 0 0 0 0 0 0 0 0 0 0 0 0 0 0 .4 0"/><feOffset dx="4.0" dy="4.0" in="blurOut2" result="blurOut3"/><feBlend in="SourceGraphic" in2="blurOut3" mode="normal"/></filter></defs><g><text fill="#000000" font-family="sans-serif" font-size="18" lengthAdjust="spacing" textLength="742" x="419.5" y="19.2419">Alternative D: iceoryx-based ECU forwarding CaPro messages to Gateway and User App</text><!--MD5=[45a30aaa2590b6845ebacc5fda1fa0db]
cluster iceoryx instance e.g. electronic control unit--><polygon fill="#EEEBDC" filter="url(#f1kv2hyd0jjx82)" points="16,31.1178,321,31.1178,328,56.1857,1260,56.1857,1260,757.6178,16,757.6178,16,31.1178" style="stroke:#000000;stroke-width:1.5;"/><line style="stroke:#000000;stroke-width:1.5;" x1="16" x2="328" y1="56.1857" y2="56.1857"/><text fill="#000000" font-family="sans-serif" font-size="14" font-weight="bold" lengthAdjust="spacing" textLength="299" x="20" y="48.0838">iceoryx instance e.g. electronic control unit</text><!--MD5=[1cb72ea523dc46d231cf0e99f20e7c1a]
cluster RouDi--><rect fill="#EEEBDC" filter="url(#f1kv2hyd0jjx82)" height="96" style="stroke:#000000;stroke-width:1.5;" width="392" x="331" y="77.1178"/><rect fill="#EEEBDC" height="10" style="stroke:#000000;stroke-width:1.5;" width="15" x="703" y="82.1178"/><rect fill="#EEEBDC" height="2" style="stroke:#000000;stroke-width:1.5;" width="4" x="701" y="84.1178"/><rect fill="#EEEBDC" height="2" style="stroke:#000000;stroke-width:1.5;" width="4" x="701" y="88.1178"/><text fill="#000000" font-family="sans-serif" font-size="14" font-weight="bold" lengthAdjust="spacing" textLength="41" x="506.5" y="105.0838">RouDi</text><!--MD5=[fed0617503037837f4a985188ddc6133]
cluster User App--><rect fill="#EEEBDC" filter="url(#f1kv2hyd0jjx82)" height="509.5" style="stroke:#000000;stroke-width:1.5;" width="562" x="40" y="224.1178"/><rect fill="#EEEBDC" height="10" style="stroke:#000000;stroke-width:1.5;" width="15" x="582" y="229.1178"/><rect fill="#EEEBDC" height="2" style="stroke:#000000;stroke-width:1.5;" width="4" x="580" y="231.1178"/><rect fill="#EEEBDC" height="2" style="stroke:#000000;stroke-width:1.5;" width="4" x="580" y="235.1178"/><text fill="#000000" font-family="sans-serif" font-size="14" font-weight="bold" lengthAdjust="spacing" textLength="64" x="289" y="252.0838">User App</text><!--MD5=[b0e862f2fa12308206ff7649c94050f6]
cluster DiscoveryInfoA--><rect fill="#EEEBDC" filter="url(#f1kv2hyd0jjx82)" height="153" style="stroke:#000000;stroke-width:1.5;" width="514" x="64" y="270.1178"/><rect fill="#EEEBDC" height="10" style="stroke:#000000;stroke-width:1.5;" width="15" x="558" y="275.1178"/><rect fill="#EEEBDC" height="2" style="stroke:#000000;stroke-width:1.5;" width="4" x="556" y="277.1178"/><rect fill="#EEEBDC" height="2" style="stroke:#000000;stroke-width:1.5;" width="4" x="556" y="281.1178"/><text fill="#000000" font-family="sans-serif" font-size="14" font-style="italic" lengthAdjust="spacing" textLength="52" x="295" y="298.0838">«object»</text><text fill="#000000" font-family="sans-serif" font-size="14" font-weight="bold" lengthAdjust="spacing" textLength="105" x="268.5" y="317.1517">DiscoveryInfoA</text><!--MD5=[a6604c5a36d609373a2d86f7dfafdcf0]
cluster DDS Gateway--><rect fill="#EEEBDC" filter="url(#f1kv2hyd0jjx82)" height="509.5" style="stroke:#000000;stroke-width:1.5;" width="610" x="626" y="224.1178"/><rect fill="#EEEBDC" height="10" style="stroke:#000000;stroke-width:1.5;" width="15" x="1216" y="229.1178"/><rect fill="#EEEBDC" height="2" style="stroke:#000000;stroke-width:1.5;" width="4" x="1214" y="231.1178"/><rect fill="#EEEBDC" height="2" style="stroke:#000000;stroke-width:1.5;" width="4" x="1214" y="235.1178"/><text fill="#000000" font-family="sans-serif" font-size="14" font-weight="bold" lengthAdjust="spacing" textLength="92" x="885" y="252.0838">DDS Gateway</text><!--MD5=[999a438fc98253d0944798e775e98dd1]
cluster DiscoveryInfoB--><rect fill="#EEEBDC" filter="url(#f1kv2hyd0jjx82)" height="153" style="stroke:#000000;stroke-width:1.5;" width="562" x="650" y="270.1178"/><rect fill="#EEEBDC" height="10" style="stroke:#000000;stroke-width:1.5;" width="15" x="1192" y="275.1178"/><rect fill="#EEEBDC" height="2" style="stroke:#000000;stroke-width:1.5;" width="4" x="1190" y="277.1178"/><rect fill="#EEEBDC" height="2" style="stroke:#000000;stroke-width:1.5;" width="4" x="1190" y="281.1178"/><text fill="#000000" font-family="sans-serif" font-size="14" font-style="italic" lengthAdjust="spacing" textLength="52" x="905" y="298.0838">«object»</text><text fill="#000000" font-family="sans-serif" font-size="14" font-weight="bold" lengthAdjust="spacing" textLength="104" x="879" y="317.1517">DiscoveryInfoB</text><!--MD5=[2c9a12d02da8d331cac0c4b421f0347b]
cluster DDS instance e.g. electronic control unit--><polygon fill="#EEEBDC" filter="url(#f1kv2hyd0jjx82)" points="1284,474.1178,1567,474.1178,1574,499.1857,1577,499.1857,1577,577.1178,1284,577.1178,1284,474.1178" style="stroke:#000000;stroke-width:1.5;"/><line style="stroke:#000000;stroke-width:1.5;" x1="1284" x2="1574" y1="499.1857" y2="499.1857"/><text fill="#000000" font-family="sans-serif" font-size="14" font-weight="bold" lengthAdjust="spacing" textLength="277" x="1288" y="491.0838">DDS instance e.g. electronic control unit</text><!--MD5=[c497a0d15ec852c4fdb32ba44d3aa9da]
entity discoveryLoop--><rect fill="#FEFECE" filter="url(#f1kv2hyd0jjx82)" height="42.0679" style="stroke:#000000;stroke-width:1.5;" width="359" x="347.5" y="115.1178"/><polygon fill="#FEFECE" points="689.5,120.1178,689.5,134.1178,701.5,134.1178,701.5,126.1178,695.5,120.1178,689.5,120.1178" style="stroke:#000000;stroke-width:1.5;"/><line style="stroke:#000000;stroke-width:1.5;" x1="695.5" x2="695.5" y1="120.1178" y2="126.1178"/><line style="stroke:#000000;stroke-width:1.5;" x1="701.5" x2="695.5" y1="126.1178" y2="126.1178"/><text fill="#000000" font-family="sans-serif" font-size="14" lengthAdjust="spacing" textLength="329" x="357.5" y="143.0838">PortManager::sendToAllMatchingInterfacePorts()</text><!--MD5=[0bf32b116301adbe8868233a3c70a795]
entity UserAppListener--><rect fill="#FEFECE" filter="url(#f1kv2hyd0jjx82)" height="68.1358" style="stroke:#A80036;stroke-width:1.5;" width="152" x="245" y="502.6178"/><rect fill="#FEFECE" height="10" style="stroke:#A80036;stroke-width:1.5;" width="15" x="377" y="507.6178"/><rect fill="#FEFECE" height="2" style="stroke:#A80036;stroke-width:1.5;" width="4" x="375" y="509.6178"/><rect fill="#FEFECE" height="2" style="stroke:#A80036;stroke-width:1.5;" width="4" x="375" y="513.6178"/><text fill="#000000" font-family="sans-serif" font-size="14" font-style="italic" lengthAdjust="spacing" textLength="52" x="290" y="537.5838">«object»</text><text fill="#000000" font-family="sans-serif" font-size="14" lengthAdjust="spacing" textLength="112" x="260" y="556.6517">UserAppListener</text><!--MD5=[56fa82e40671d6e5eb60822b7a755b6e]
entity UserDefinedCallback--><rect fill="#FEFECE" filter="url(#f1kv2hyd0jjx82)" height="68.1358" style="stroke:#A80036;stroke-width:1.5;" width="180" x="231" y="649.6178"/><rect fill="#FEFECE" height="10" style="stroke:#A80036;stroke-width:1.5;" width="15" x="391" y="654.6178"/><rect fill="#FEFECE" height="2" style="stroke:#A80036;stroke-width:1.5;" width="4" x="389" y="656.6178"/><rect fill="#FEFECE" height="2" style="stroke:#A80036;stroke-width:1.5;" width="4" x="389" y="660.6178"/><text fill="#000000" font-family="sans-serif" font-size="14" font-style="italic" lengthAdjust="spacing" textLength="52" x="290" y="684.5838">«object»</text><text fill="#000000" font-family="sans-serif" font-size="14" lengthAdjust="spacing" textLength="140" x="246" y="703.6517">UserDefinedCallback</text><!--MD5=[1aae650e69c23cee10853351b7ce6d4c]
entity DiscoveryInfoNoteA--><rect fill="#FEFECE" filter="url(#f1kv2hyd0jjx82)" height="80.2038" style="stroke:#000000;stroke-width:1.5;" width="482" x="80" y="327.1178"/><polygon fill="#FEFECE" points="545,332.1178,545,346.1178,557,346.1178,557,338.1178,551,332.1178,545,332.1178" style="stroke:#000000;stroke-width:1.5;"/><line style="stroke:#000000;stroke-width:1.5;" x1="551" x2="551" y1="332.1178" y2="338.1178"/><line style="stroke:#000000;stroke-width:1.5;" x1="557" x2="551" y1="338.1178" y2="338.1178"/><text fill="#000000" font-family="sans-serif" font-size="14" lengthAdjust="spacing" textLength="452" x="90" y="355.0838">+findService() : cxx::expected&lt;InstanceContainer, FindServiceError&gt;</text><text fill="#000000" font-family="sans-serif" font-size="14" lengthAdjust="spacing" textLength="336" x="90" y="374.1517">-m_subscriber : Subscriber&lt;ServiceRegistryTopic&gt;</text><text fill="#000000" font-family="sans-serif" font-size="14" lengthAdjust="spacing" textLength="302" x="90" y="393.2196">-m_lastServiceRegistry : ServiceRegistryTopic</text><!--MD5=[fb192d9e9fa2e9f982e2ab2435fc2b57]
entity GatewayListener--><rect fill="#FEFECE" filter="url(#f1kv2hyd0jjx82)" height="68.1358" style="stroke:#A80036;stroke-width:1.5;" width="151" x="855.5" y="502.6178"/><rect fill="#FEFECE" height="10" style="stroke:#A80036;stroke-width:1.5;" width="15" x="986.5" y="507.6178"/><rect fill="#FEFECE" height="2" style="stroke:#A80036;stroke-width:1.5;" width="4" x="984.5" y="509.6178"/><rect fill="#FEFECE" height="2" style="stroke:#A80036;stroke-width:1.5;" width="4" x="984.5" y="513.6178"/><text fill="#000000" font-family="sans-serif" font-size="14" font-style="italic" lengthAdjust="spacing" textLength="52" x="900" y="537.5838">«object»</text><text fill="#000000" font-family="sans-serif" font-size="14" lengthAdjust="spacing" textLength="111" x="870.5" y="556.6517">GatewayListener</text><!--MD5=[de17ccd87328d7fa0c8368d560b826cc]
entity GatewayUserDefinedCallback--><rect fill="#FEFECE" filter="url(#f1kv2hyd0jjx82)" height="68.1358" style="stroke:#A80036;stroke-width:1.5;" width="237" x="812.5" y="649.6178"/><rect fill="#FEFECE" height="10" style="stroke:#A80036;stroke-width:1.5;" width="15" x="1029.5" y="654.6178"/><rect fill="#FEFECE" height="2" style="stroke:#A80036;stroke-width:1.5;" width="4" x="1027.5" y="656.6178"/><rect fill="#FEFECE" height="2" style="stroke:#A80036;stroke-width:1.5;" width="4" x="1027.5" y="660.6178"/><text fill="#000000" font-family="sans-serif" font-size="14" font-style="italic" lengthAdjust="spacing" textLength="52" x="900" y="684.5838">«object»</text><text fill="#000000" font-family="sans-serif" font-size="14" lengthAdjust="spacing" textLength="197" x="827.5" y="703.6517">GatewayUserDefinedCallback</text><!--MD5=[b74f7c865a7d05be4ed710ee2ffd7ed2]
entity DiscoveryInfoNoteB--><rect fill="#FEFECE" filter="url(#f1kv2hyd0jjx82)" height="80.2038" style="stroke:#000000;stroke-width:1.5;" width="530" x="666" y="327.1178"/><polygon fill="#FEFECE" points="1179,332.1178,1179,346.1178,1191,346.1178,1191,338.1178,1185,332.1178,1179,332.1178" style="stroke:#000000;stroke-width:1.5;"/><line style="stroke:#000000;stroke-width:1.5;" x1="1185" x2="1185" y1="332.1178" y2="338.1178"/><line style="stroke:#000000;stroke-width:1.5;" x1="1191" x2="1185" y1="338.1178" y2="338.1178"/><text fill="#000000" font-family="sans-serif" font-size="14" lengthAdjust="spacing" textLength="452" x="676" y="355.0838">+findService() : cxx::expected&lt;InstanceContainer, FindServiceError&gt;</text><text fill="#000000" font-family="sans-serif" font-size="14" lengthAdjust="spacing" textLength="336" x="676" y="374.1517">-m_subscriber : Subscriber&lt;ServiceRegistryTopic&gt;</text><text fill="#000000" font-family="sans-serif" font-size="14" lengthAdjust="spacing" textLength="302" x="676" y="393.2196">-m_lastServiceRegistry : ServiceRegistryTopic</text><!--MD5=[c66a602ab977f4b8b08ff7eda3b37678]
entity DCPSTopic--><rect fill="#FEFECE" filter="url(#f1kv2hyd0jjx82)" height="49.0679" style="stroke:#A80036;stroke-width:1.5;" width="111" x="1299.5" y="512.1178"/><rect fill="#FEFECE" height="10" style="stroke:#A80036;stroke-width:1.5;" width="15" x="1390.5" y="517.1178"/><rect fill="#FEFECE" height="2" style="stroke:#A80036;stroke-width:1.5;" width="4" x="1388.5" y="519.1178"/><rect fill="#FEFECE" height="2" style="stroke:#A80036;stroke-width:1.5;" width="4" x="1388.5" y="523.1178"/><text fill="#000000" font-family="sans-serif" font-size="14" lengthAdjust="spacing" textLength="71" x="1314.5" y="547.0838">DCPSTopic</text><!--MD5=[3184145f91f00fa02c4977d520143a3d]
link DiscoveryInfoNoteB to DCPSTopic--><path d="M1025.47,407.2078 C1071.68,425.0178 1128.53,444.9978 1181,458.1178 C1204.96,464.1078 1212.68,457.9578 1236,466.1178 C1265.22,476.3378 1295.3,493.9778 1317.9,508.9278 " fill="none" id="DiscoveryInfoNoteB-to-DCPSTopic" style="stroke:#A80036;stroke-width:1.0;stroke-dasharray:7.0,7.0;"/><polygon fill="#A80036" points="1322.32,511.8778,1317.0701,503.5448,1318.1663,509.0945,1312.6167,510.1907,1322.32,511.8778" style="stroke:#A80036;stroke-width:1.0;"/><text fill="#000000" font-family="sans-serif" font-size="13" lengthAdjust="spacing" textLength="81" x="1182" y="454.0148">Implemented</text><!--MD5=[68c4eaed074140a0b68c7cd025675212]
link DCPSTopic to DiscoveryInfoNoteB--><path d="M1340.09,511.8378 C1324.79,489.4878 1298.89,456.8978 1268,439.1178 C1247.2,427.1378 1224.63,417.1778 1201.37,408.8878 " fill="none" id="DCPSTopic-to-DiscoveryInfoNoteB" style="stroke:#A80036;stroke-width:1.0;stroke-dasharray:7.0,7.0;"/><polygon fill="#A80036" points="1196.4,407.1378,1203.5888,413.87,1201.1231,408.7788,1206.2143,406.3131,1196.4,407.1378" style="stroke:#A80036;stroke-width:1.0;"/><text fill="#000000" font-family="sans-serif" font-size="13" lengthAdjust="spacing" textLength="128" x="1294" y="454.0148">Not yet implemented</text><!--MD5=[196ca125d13be3c56d306a77535d3894]
link discoveryLoop to DiscoveryInfoNoteA--><path d="M508.72,157.4378 C475.42,194.4578 404.21,273.6178 359.7,323.0978 " fill="none" id="discoveryLoop-to-DiscoveryInfoNoteA" style="stroke:#A80036;stroke-width:1.0;stroke-dasharray:7.0,7.0;"/><polygon fill="#A80036" points="356.28,326.9078,365.2739,322.894,359.6248,323.1914,359.3275,317.5423,356.28,326.9078" style="stroke:#A80036;stroke-width:1.0;"/><text fill="#000000" font-family="sans-serif" font-size="13" lengthAdjust="spacing" textLength="175" x="479" y="204.0148">publish(ServiceRegistryTopic)</text><!--MD5=[18ea7257aab994c0f82a3017e73979f8]
link discoveryLoop to DiscoveryInfoNoteB--><path d="M587.81,157.1478 C611.75,165.8578 639.16,176.8778 663,189.1178 C740.1,228.7178 822.39,285.4878 875.13,323.9778 " fill="none" id="discoveryLoop-to-DiscoveryInfoNoteB" style="stroke:#A80036;stroke-width:1.0;stroke-dasharray:7.0,7.0;"/><polygon fill="#A80036" points="879.19,326.9478,874.3018,318.3977,875.1593,323.9892,869.5679,324.8467,879.19,326.9478" style="stroke:#A80036;stroke-width:1.0;"/><text fill="#000000" font-family="sans-serif" font-size="13" lengthAdjust="spacing" textLength="175" x="695" y="204.0148">publish(ServiceRegistryTopic)</text><!--MD5=[d2e6d13f106a2dc3a8f4abeaffde97b5]
link GatewayListener to GatewayUserDefinedCallback--><path d="M931,570.8878 C931,592.8078 931,621.5678 931,644.4278 " fill="none" id="GatewayListener-to-GatewayUserDefinedCallback" style="stroke:#A80036;stroke-width:1.0;stroke-dasharray:7.0,7.0;"/><polygon fill="#A80036" points="931,649.5078,935,640.5078,931,644.5078,927,640.5078,931,649.5078" style="stroke:#A80036;stroke-width:1.0;"/><text fill="#000000" font-family="sans-serif" font-size="13" lengthAdjust="spacing" textLength="25" x="932" y="615.5148">calls</text><!--MD5=[0b57767aa9dee5a0ffebc6a2180e4bea]
link UserAppListener to UserDefinedCallback--><path d="M321,570.8878 C321,592.8078 321,621.5678 321,644.4278 " fill="none" id="UserAppListener-to-UserDefinedCallback" style="stroke:#A80036;stroke-width:1.0;stroke-dasharray:7.0,7.0;"/><polygon fill="#A80036" points="321,649.5078,325,640.5078,321,644.5078,317,640.5078,321,649.5078" style="stroke:#A80036;stroke-width:1.0;"/><text fill="#000000" font-family="sans-serif" font-size="13" lengthAdjust="spacing" textLength="25" x="322" y="615.5148">calls</text><!--MD5=[d02e2aa27c062619ce26c947788fa48d]
link DiscoveryInfoNoteA to UserAppListener--><path d="M321,407.3878 C321,434.4978 321,470.3578 321,497.2578 " fill="none" id="DiscoveryInfoNoteA-to-UserAppListener" style="stroke:#A80036;stroke-width:1.0;stroke-dasharray:7.0,7.0;"/><polygon fill="#A80036" points="321,502.5178,325,493.5178,321,497.5178,317,493.5178,321,502.5178" style="stroke:#A80036;stroke-width:1.0;"/><text fill="#000000" font-family="sans-serif" font-size="13" lengthAdjust="spacing" textLength="69" x="322" y="454.0148">attached to</text><!--MD5=[0216d022979108926604880e5f9a8657]
link DiscoveryInfoNoteB to GatewayListener--><path d="M931,407.3878 C931,434.4978 931,470.3578 931,497.2578 " fill="none" id="DiscoveryInfoNoteB-to-GatewayListener" style="stroke:#A80036;stroke-width:1.0;stroke-dasharray:7.0,7.0;"/><polygon fill="#A80036" points="931,502.5178,935,493.5178,931,497.5178,927,493.5178,931,502.5178" style="stroke:#A80036;stroke-width:1.0;"/><text fill="#000000" font-family="sans-serif" font-size="13" lengthAdjust="spacing" textLength="69" x="932" y="454.0148">attached to</text></g></svg>