<?xml version="1.0" encoding="UTF-8" standalone="no"?><svg xmlns="http://www.w3.org/2000/svg" xmlns:xlink="http://www.w3.org/1999/xlink" contentScriptType="application/ecmascript" contentStyleType="text/css" height="406px" preserveAspectRatio="none" style="width:1007px;height:406px;background:#EEEBDC;" version="1.1" viewBox="0 0 1007 406" width="1007px" zoomAndPan="magnify"><defs><filter height="300%" id="f178mbr5kfr2qf" width="300%" x="-1" y="-1"><feGaussianBlur result="blurOut" stdDeviation="2.0"/><feColorMatrix in="blurOut" result="blurOut2" type="matrix" values="0 0 0 0 0 0 0 0 0 0 0 0 0 0 0 0 0 0 .4 0"/><feOffset dx="4.0" dy="4.0" in="blurOut2" result="blurOut3"/><feBlend in="SourceGraphic" in2="blurOut3" mode="normal"/></filter></defs><g><!--MD5=[81da3b3e20e7b00bc69cac0acd70a916]
entity Iceoryx_Contributor--><ellipse cx="272.5" cy="171.5" fill="#FEFECE" filter="url(#f178mbr5kfr2qf)" rx="8" ry="8" style="stroke:#A80036;stroke-width:1.5;"/><path d="M272.5,179.5 L272.5,206.5 M259.5,187.5 L285.5,187.5 M272.5,206.5 L259.5,221.5 M272.5,206.5 L285.5,221.5 " fill="none" filter="url(#f178mbr5kfr2qf)" style="stroke:#A80036;stroke-width:1.5;"/><text fill="#000000" font-family="sans-serif" font-size="14" lengthAdjust="spacing" textLength="133" x="206" y="239.9951">Iceoryx_Contributor</text><ellipse cx="797.6669" cy="36.5334" fill="#FEFECE" filter="url(#f178mbr5kfr2qf)" rx="140.6669" ry="30.5334" style="stroke:#A80036;stroke-width:1.5;"/><text fill="#000000" font-family="sans-serif" font-size="14" lengthAdjust="spacing" textLength="251" x="672.1669" y="39.3801">1. Create Diagram in PlantUML Editor</text><ellipse cx="797.297" cy="144.5594" fill="#FEFECE" filter="url(#f178mbr5kfr2qf)" rx="198.297" ry="42.0594" style="stroke:#A80036;stroke-width:1.5;"/><text fill="#000000" font-family="sans-serif" font-size="14" lengthAdjust="spacing" textLength="370" x="612.297" y="147.4061">2. Save it as new .puml file in iceoryx/doc/design/puml</text><ellipse cx="797.6671" cy="260.5334" fill="#FEFECE" filter="url(#f178mbr5kfr2qf)" rx="183.1671" ry="39.0334" style="stroke:#A80036;stroke-width:1.5;"/><text fill="#000000" font-family="sans-serif" font-size="14" lengthAdjust="spacing" textLength="339" x="628.1671" y="263.3801">3. Export svg files via script in iceoryx/tools/ folder</text><ellipse cx="797.2578" cy="364.6516" fill="#FEFECE" filter="url(#f178mbr5kfr2qf)" rx="138.7578" ry="30.1516" style="stroke:#A80036;stroke-width:1.5;"/><text fill="#000000" font-family="sans-serif" font-size="14" lengthAdjust="spacing" textLength="247" x="673.7578" y="367.4982">4. Create a Link in the Markdown file</text><path d="M6,344.5 L6,384.7656 A0,0 0 0 0 6,384.7656 L539,384.7656 A0,0 0 0 0 539,384.7656 L539,368.5 L658.23,364.5 L539,360.5 L539,354.5 L529,344.5 L6,344.5 A0,0 0 0 0 6,344.5 " fill="#FBFB77" filter="url(#f178mbr5kfr2qf)" style="stroke:#A80036;stroke-width:1.0;"/><path d="M529,344.5 L529,354.5 L539,354.5 L529,344.5 " fill="#FBFB77" style="stroke:#A80036;stroke-width:1.0;"/><text fill="#000000" font-family="sans-serif" font-size="13" lengthAdjust="spacing" textLength="456" x="12" y="361.5669">The following snippet can be used to link against a svg file in markdown:</text><text fill="#000000" font-family="monospace" font-size="13" lengthAdjust="spacing" textLength="512" x="12" y="376.6997">![your image description](puml/your_exported_vector_graphic.svg)</text><!--MD5=[37e9297b1c28da29a116a925beadc54c]
link Iceoryx_Contributor to 1. Create Diagram in PlantUML Editor--><path d="M339.18,176.29 C404.42,150.82 507.65,112.07 599,84.5 C629.38,75.33 662.79,66.68 693.36,59.31 " fill="none" id="Iceoryx_Contributor-to-1. Create Diagram in PlantUML Editor" style="stroke:#A80036;stroke-width:1.0;"/><polygon fill="#A80036" points="698.24,58.14,688.558,56.3346,693.3761,59.2987,690.412,64.1168,698.24,58.14" style="stroke:#A80036;stroke-width:1.0;"/><!--MD5=[66be488fc23afe3f548d0b8c15b84b21]
link Iceoryx_Contributor to 2. Save it as new .puml file in iceoryx/doc/design/puml--><path d="M339.21,195.21 C408.41,187.54 520.41,175.12 616.25,164.49 " fill="none" id="Iceoryx_Contributor-to-2. Save it as new .puml file in iceoryx/doc/design/puml" style="stroke:#A80036;stroke-width:1.0;"/><polygon fill="#A80036" points="621.38,163.92,611.999,160.9206,616.4095,164.4628,612.8674,168.8733,621.38,163.92" style="stroke:#A80036;stroke-width:1.0;"/><!--MD5=[1ac9b40cf3804c630c51fcdb01346d0e]
link Iceoryx_Contributor to 3. Export svg files via script in iceoryx/tools/ folder--><path d="M339.21,209.79 C411.72,217.83 531.21,231.08 629.87,242.02 " fill="none" id="Iceoryx_Contributor-to-3. Export svg files via script in iceoryx/tools/ folder" style="stroke:#A80036;stroke-width:1.0;"/><polygon fill="#A80036" points="634.85,242.57,626.3374,237.6167,629.8795,242.0272,625.469,245.5694,634.85,242.57" style="stroke:#A80036;stroke-width:1.0;"/><!--MD5=[e154aaa7bd506ad5aa98a2cb54109de2]
link Iceoryx_Contributor to 4. Create a Link in the Markdown file--><path d="M339.22,228.03 C404.49,252.84 507.74,290.6 599,317.5 C629.49,326.49 663,334.97 693.63,342.2 " fill="none" id="Iceoryx_Contributor-to-4. Create a Link in the Markdown file" style="stroke:#A80036;stroke-width:1.0;"/><polygon fill="#A80036" points="698.52,343.35,690.6715,337.4001,693.6522,342.208,688.8443,345.1886,698.52,343.35" style="stroke:#A80036;stroke-width:1.0;"/></g></svg>