<?xml version="1.0" encoding="UTF-8" standalone="no"?><svg xmlns="http://www.w3.org/2000/svg" xmlns:xlink="http://www.w3.org/1999/xlink" contentScriptType="application/ecmascript" contentStyleType="text/css" height="356px" preserveAspectRatio="none" style="width:1174px;height:356px;background:#EEEBDC;" version="1.1" viewBox="0 0 1174 356" width="1174px" zoomAndPan="magnify"><defs><filter height="300%" id="fpmlpsh2p28zp" width="300%" x="-1" y="-1"><feGaussianBlur result="blurOut" stdDeviation="2.0"/><feColorMatrix in="blurOut" result="blurOut2" type="matrix" values="0 0 0 0 0 0 0 0 0 0 0 0 0 0 0 0 0 0 .4 0"/><feOffset dx="4.0" dy="4.0" in="blurOut2" result="blurOut3"/><feBlend in="SourceGraphic" in2="blurOut3" mode="normal"/></filter></defs><g><!--MD5=[0d14460b0789ede061c4aebafd984493]
class RpcBaseHeader--><rect codeLine="2" fill="#FEFECE" filter="url(#fpmlpsh2p28zp)" height="163.2422" id="RpcBaseHeader" style="stroke:#A80036;stroke-width:1.5;" width="776" x="161.5" y="179"/><ellipse cx="495.25" cy="195" fill="#ADD1B2" rx="11" ry="11" style="stroke:#A80036;stroke-width:1.0;"/><path d="M498.2188,200.6406 Q497.6406,200.9375 497,201.0781 Q496.3594,201.2344 495.6563,201.2344 Q493.1563,201.2344 491.8281,199.5938 Q490.5156,197.9375 490.5156,194.8125 Q490.5156,191.6875 491.8281,190.0313 Q493.1563,188.375 495.6563,188.375 Q496.3594,188.375 497,188.5313 Q497.6563,188.6875 498.2188,188.9844 L498.2188,191.7031 Q497.5938,191.125 497,190.8594 Q496.4063,190.5781 495.7813,190.5781 Q494.4375,190.5781 493.75,191.6563 Q493.0625,192.7188 493.0625,194.8125 Q493.0625,196.9063 493.75,197.9844 Q494.4375,199.0469 495.7813,199.0469 Q496.4063,199.0469 497,198.7813 Q497.5938,198.5 498.2188,197.9219 L498.2188,200.6406 Z " fill="#000000"/><text fill="#000000" font-family="sans-serif" font-size="12" lengthAdjust="spacing" textLength="100" x="515.75" y="199.1543">RpcBaseHeader</text><line style="stroke:#A80036;stroke-width:1.5;" x1="162.5" x2="936.5" y1="211" y2="211"/><polygon fill="none" points="172.5,217,176.5,221,172.5,225,168.5,221" style="stroke:#B38D22;stroke-width:1.0;"/><text fill="#000000" font-family="sans-serif" font-size="11" lengthAdjust="spacing" textLength="165" x="181.5" y="225.2104">m_rpcHeaderVersion: uint8_t</text><polygon fill="none" points="172.5,229.8047,176.5,233.8047,172.5,237.8047,168.5,233.8047" style="stroke:#B38D22;stroke-width:1.0;"/><text fill="#000000" font-family="sans-serif" font-size="11" lengthAdjust="spacing" textLength="227" x="181.5" y="238.0151">m_lastKnownClientQueueIndex: uint32_t</text><polygon fill="none" points="172.5,242.6094,176.5,246.6094,172.5,250.6094,168.5,246.6094" style="stroke:#B38D22;stroke-width:1.0;"/><text fill="#000000" font-family="sans-serif" font-size="11" lengthAdjust="spacing" textLength="191" x="181.5" y="250.8198">m_uniqueClientQueueId: UniqueId</text><polygon fill="none" points="172.5,255.4141,176.5,259.4141,172.5,263.4141,168.5,259.4141" style="stroke:#B38D22;stroke-width:1.0;"/><text fill="#000000" font-family="sans-serif" font-size="11" lengthAdjust="spacing" textLength="128" x="181.5" y="263.6245">m_sequenceId: int64_t</text><line style="stroke:#A80036;stroke-width:1.5;" x1="162.5" x2="936.5" y1="270.2188" y2="270.2188"/><ellipse cx="172.5" cy="281.2188" fill="#84BE84" rx="3" ry="3" style="stroke:#038048;stroke-width:1.0;"/><text fill="#000000" font-family="sans-serif" font-size="11" lengthAdjust="spacing" textLength="750" x="181.5" y="284.4292">RpcBaseHeader(uniqueClientQueueId: UniqueId&amp;, lastKnownQueueIndex: uint32_t, sequenceId: uint64_t, rpcHeaderVersion: uint8_t)</text><ellipse cx="172.5" cy="294.0234" fill="#84BE84" rx="3" ry="3" style="stroke:#038048;stroke-width:1.0;"/><text fill="#000000" font-family="sans-serif" font-size="11" lengthAdjust="spacing" textLength="176" x="181.5" y="297.2339">getRpcHeaderVersion(): uint8_t</text><ellipse cx="172.5" cy="306.8281" fill="#84BE84" rx="3" ry="3" style="stroke:#038048;stroke-width:1.0;"/><text fill="#000000" font-family="sans-serif" font-size="11" lengthAdjust="spacing" textLength="138" x="181.5" y="310.0386">getSequenceId(): int64_t</text><ellipse cx="172.5" cy="319.6328" fill="#84BE84" rx="3" ry="3" style="stroke:#038048;stroke-width:1.0;"/><text fill="#000000" font-family="sans-serif" font-size="11" lengthAdjust="spacing" textLength="192" x="181.5" y="322.8433">getChunkHeader(): ChunkHeader*</text><ellipse cx="172.5" cy="332.4375" fill="#84BE84" rx="3" ry="3" style="stroke:#038048;stroke-width:1.0;"/><text fill="#000000" font-family="sans-serif" font-size="11" lengthAdjust="spacing" textLength="134" x="181.5" y="335.6479">getUserPayload(): void*</text><!--MD5=[6cc62d088b7a142a0ad16d78c666be36]
class RequestHeader--><rect codeLine="14" fill="#FEFECE" filter="url(#fpmlpsh2p28zp)" height="86.4141" id="RequestHeader" style="stroke:#A80036;stroke-width:1.5;" width="491" x="7" y="20"/><ellipse cx="199.25" cy="36" fill="#ADD1B2" rx="11" ry="11" style="stroke:#A80036;stroke-width:1.0;"/><path d="M202.2188,41.6406 Q201.6406,41.9375 201,42.0781 Q200.3594,42.2344 199.6563,42.2344 Q197.1563,42.2344 195.8281,40.5938 Q194.5156,38.9375 194.5156,35.8125 Q194.5156,32.6875 195.8281,31.0313 Q197.1563,29.375 199.6563,29.375 Q200.3594,29.375 201,29.5313 Q201.6563,29.6875 202.2188,29.9844 L202.2188,32.7031 Q201.5938,32.125 201,31.8594 Q200.4063,31.5781 199.7813,31.5781 Q198.4375,31.5781 197.75,32.6563 Q197.0625,33.7188 197.0625,35.8125 Q197.0625,37.9063 197.75,38.9844 Q198.4375,40.0469 199.7813,40.0469 Q200.4063,40.0469 201,39.7813 Q201.5938,39.5 202.2188,38.9219 L202.2188,41.6406 Z " fill="#000000"/><text fill="#000000" font-family="sans-serif" font-size="12" lengthAdjust="spacing" textLength="98" x="219.75" y="40.1543">RequestHeader</text><line style="stroke:#A80036;stroke-width:1.5;" x1="8" x2="497" y1="52" y2="52"/><line style="stroke:#A80036;stroke-width:1.5;" x1="8" x2="497" y1="60" y2="60"/><ellipse cx="18" cy="71" fill="#84BE84" rx="3" ry="3" style="stroke:#038048;stroke-width:1.0;"/><text fill="#000000" font-family="sans-serif" font-size="11" lengthAdjust="spacing" textLength="465" x="27" y="74.2104">RequestHeader(uniqueClientQueueId: UniqueId&amp;, lastKnownQueueIndex: uint32_t)</text><ellipse cx="18" cy="83.8047" fill="#84BE84" rx="3" ry="3" style="stroke:#038048;stroke-width:1.0;"/><text fill="#000000" font-family="sans-serif" font-size="11" lengthAdjust="spacing" textLength="234" x="27" y="87.0151">setSequenceId(sequenceId: int64_t): void</text><text fill="#000000" font-family="sans-serif" font-size="11" lengthAdjust="spacing" text-decoration="underline" textLength="261" x="27" y="99.8198">fromPayload(payload: void*): RequestHeader*</text><!--MD5=[5e52833216ce84db46124975cdba11dc]
class ResponseHeader--><rect codeLine="20" fill="#FEFECE" filter="url(#fpmlpsh2p28zp)" height="112.0234" id="ResponseHeader" style="stroke:#A80036;stroke-width:1.5;" width="627" x="533" y="7"/><ellipse cx="788.25" cy="23" fill="#ADD1B2" rx="11" ry="11" style="stroke:#A80036;stroke-width:1.0;"/><path d="M791.2188,28.6406 Q790.6406,28.9375 790,29.0781 Q789.3594,29.2344 788.6563,29.2344 Q786.1563,29.2344 784.8281,27.5938 Q783.5156,25.9375 783.5156,22.8125 Q783.5156,19.6875 784.8281,18.0313 Q786.1563,16.375 788.6563,16.375 Q789.3594,16.375 790,16.5313 Q790.6563,16.6875 791.2188,16.9844 L791.2188,19.7031 Q790.5938,19.125 790,18.8594 Q789.4063,18.5781 788.7813,18.5781 Q787.4375,18.5781 786.75,19.6563 Q786.0625,20.7188 786.0625,22.8125 Q786.0625,24.9063 786.75,25.9844 Q787.4375,27.0469 788.7813,27.0469 Q789.4063,27.0469 790,26.7813 Q790.5938,26.5 791.2188,25.9219 L791.2188,28.6406 Z " fill="#000000"/><text fill="#000000" font-family="sans-serif" font-size="12" lengthAdjust="spacing" textLength="108" x="808.75" y="27.1543">ResponseHeader</text><line style="stroke:#A80036;stroke-width:1.5;" x1="534" x2="1159" y1="39" y2="39"/><rect fill="none" height="6" style="stroke:#C82930;stroke-width:1.0;" width="6" x="541" y="47"/><text fill="#000000" font-family="sans-serif" font-size="11" lengthAdjust="spacing" textLength="137" x="553" y="53.2104">m_hasServerError: bool</text><line style="stroke:#A80036;stroke-width:1.5;" x1="534" x2="1159" y1="59.8047" y2="59.8047"/><ellipse cx="544" cy="70.8047" fill="#84BE84" rx="3" ry="3" style="stroke:#038048;stroke-width:1.0;"/><text fill="#000000" font-family="sans-serif" font-size="11" lengthAdjust="spacing" textLength="601" x="553" y="74.0151">ResponseHeader(uniqueClientQueueId: UniqueId&amp;, lastKnownQueueIndex: uint32_t, sequenceId: uint64_t)</text><ellipse cx="544" cy="83.6094" fill="#84BE84" rx="3" ry="3" style="stroke:#038048;stroke-width:1.0;"/><text fill="#000000" font-family="sans-serif" font-size="11" lengthAdjust="spacing" textLength="124" x="553" y="86.8198">setServerError(): void</text><ellipse cx="544" cy="96.4141" fill="#84BE84" rx="3" ry="3" style="stroke:#038048;stroke-width:1.0;"/><text fill="#000000" font-family="sans-serif" font-size="11" lengthAdjust="spacing" textLength="128" x="553" y="99.6245">hasServerError(): bool</text><text fill="#000000" font-family="sans-serif" font-size="11" lengthAdjust="spacing" text-decoration="underline" textLength="261" x="553" y="112.4292">fromPayload(payload: void*): RequestHeader*</text><!--MD5=[1211e87899b0264a6108ab139b773bf5]
link RequestHeader to RpcBaseHeader--><path codeLine="28" d="M316.58,106.18 C347.63,126.62 386.06,151.91 422.69,176.03 " fill="none" id="RequestHeader-to-RpcBaseHeader" style="stroke:#A80036;stroke-width:1.0;"/><polygon fill="#A80036" points="427.14,178.96,421.8176,170.6731,422.9622,176.213,417.4224,177.3576,427.14,178.96" style="stroke:#A80036;stroke-width:1.0;"/><!--MD5=[9d409bceee22cd6842596723dd5b07a3]
link ResponseHeader to RpcBaseHeader--><path codeLine="29" d="M762.58,119.24 C735.77,136.89 705.47,156.83 676.31,176.03 " fill="none" id="ResponseHeader-to-RpcBaseHeader" style="stroke:#A80036;stroke-width:1.0;"/><polygon fill="#A80036" points="672.01,178.86,681.7276,177.2576,676.1878,176.113,677.3324,170.5731,672.01,178.86" style="stroke:#A80036;stroke-width:1.0;"/></g></svg>