<?xml version="1.0" encoding="UTF-8" standalone="no"?><svg xmlns="http://www.w3.org/2000/svg" xmlns:xlink="http://www.w3.org/1999/xlink" contentScriptType="application/ecmascript" contentStyleType="text/css" height="371px" preserveAspectRatio="none" style="width:1132px;height:371px;background:#EEEBDC;" version="1.1" viewBox="0 0 1132 371" width="1132px" zoomAndPan="magnify"><defs><filter height="300%" id="fzrqu107bds4d" width="300%" x="-1" y="-1"><feGaussianBlur result="blurOut" stdDeviation="2.0"/><feColorMatrix in="blurOut" result="blurOut2" type="matrix" values="0 0 0 0 0 0 0 0 0 0 0 0 0 0 0 0 0 0 .4 0"/><feOffset dx="4.0" dy="4.0" in="blurOut2" result="blurOut3"/><feBlend in="SourceGraphic" in2="blurOut3" mode="normal"/></filter></defs><g><!--MD5=[0d14460b0789ede061c4aebafd984493]
class RpcBaseHeader--><rect codeLine="2" fill="#FEFECE" filter="url(#fzrqu107bds4d)" height="182.837" id="RpcBaseHeader" style="stroke:#A80036;stroke-width:1.5;" width="735" x="164" y="175"/><ellipse cx="482.25" cy="191" fill="#ADD1B2" rx="11" ry="11" style="stroke:#A80036;stroke-width:1.0;"/><path d="M482.0469,197.7344 Q479.5625,197.7344 478.2344,196.0938 Q476.9219,194.4219 476.9219,191.3125 Q476.9219,188.1875 478.2344,186.5313 Q479.5625,184.875 482.0469,184.875 Q482.7656,184.875 483.4219,185.0313 Q484.0625,185.1875 484.625,185.4844 L484.625,188.2031 Q484.2656,187.8594 483.9688,187.6719 Q483.6719,187.4688 483.4063,187.3438 Q483.0938,187.2031 482.7813,187.1406 Q482.4844,187.0781 482.1719,187.0781 Q480.8438,187.0781 480.1563,188.1406 Q479.4688,189.2344 479.4688,191.3125 Q479.4688,193.4063 480.1563,194.4688 Q480.8438,195.5469 482.1719,195.5469 Q482.8125,195.5469 483.4063,195.2656 Q483.7031,195.1406 483.9844,194.9531 Q484.2813,194.75 484.625,194.4219 L484.625,197.1406 Q484.0469,197.4375 483.4063,197.5938 Q482.7813,197.7344 482.0469,197.7344 Z " fill="#000000"/><text fill="#000000" font-family="sans-serif" font-size="12" lengthAdjust="spacing" textLength="90" x="502.75" y="195.656">RpcBaseHeader</text><line style="stroke:#A80036;stroke-width:1.5;" x1="165" x2="898" y1="207" y2="207"/><polygon fill="none" points="175,213,179,217,175,221,171,217" style="stroke:#B38D22;stroke-width:1.0;"/><text fill="#000000" font-family="sans-serif" font-size="11" lengthAdjust="spacing" textLength="152" x="184" y="222.7589">m_rpcHeaderVersion: uint8_t</text><polygon fill="none" points="175,227.9819,179,231.9819,175,235.9819,171,231.9819" style="stroke:#B38D22;stroke-width:1.0;"/><text fill="#000000" font-family="sans-serif" font-size="11" lengthAdjust="spacing" textLength="213" x="184" y="237.7408">m_lastKnownClientQueueIndex: uint32_t</text><polygon fill="none" points="175,242.9638,179,246.9638,175,250.9638,171,246.9638" style="stroke:#B38D22;stroke-width:1.0;"/><text fill="#000000" font-family="sans-serif" font-size="11" lengthAdjust="spacing" textLength="206" x="184" y="252.7227">m_uniqueClientQueueId: cxx::UniqueId</text><polygon fill="none" points="175,257.9457,179,261.9457,175,265.9457,171,261.9457" style="stroke:#B38D22;stroke-width:1.0;"/><text fill="#000000" font-family="sans-serif" font-size="11" lengthAdjust="spacing" textLength="116" x="184" y="267.7046">m_sequenceId: int64_t</text><line style="stroke:#A80036;stroke-width:1.5;" x1="165" x2="898" y1="274.9276" y2="274.9276"/><ellipse cx="175" cy="285.9276" fill="#84BE84" rx="3" ry="3" style="stroke:#038048;stroke-width:1.0;"/><text fill="#000000" font-family="sans-serif" font-size="11" lengthAdjust="spacing" textLength="709" x="184" y="290.6865">RpcBaseHeader(uniqueClientQueueId: cxx::UniqueId, lastKnownQueueIndex: uint32_t, sequenceId: uint64_t, rpcHeaderVersion: uint8_t)</text><ellipse cx="175" cy="300.9094" fill="#84BE84" rx="3" ry="3" style="stroke:#038048;stroke-width:1.0;"/><text fill="#000000" font-family="sans-serif" font-size="11" lengthAdjust="spacing" textLength="162" x="184" y="305.6684">getRpcHeaderVersion(): uint8_t</text><ellipse cx="175" cy="315.8913" fill="#84BE84" rx="3" ry="3" style="stroke:#038048;stroke-width:1.0;"/><text fill="#000000" font-family="sans-serif" font-size="11" lengthAdjust="spacing" textLength="125" x="184" y="320.6502">getSequenceId(): int64_t</text><ellipse cx="175" cy="330.8732" fill="#84BE84" rx="3" ry="3" style="stroke:#038048;stroke-width:1.0;"/><text fill="#000000" font-family="sans-serif" font-size="11" lengthAdjust="spacing" textLength="179" x="184" y="335.6321">getChunkHeader(): ChunkHeader*</text><ellipse cx="175" cy="345.8551" fill="#84BE84" rx="3" ry="3" style="stroke:#038048;stroke-width:1.0;"/><text fill="#000000" font-family="sans-serif" font-size="11" lengthAdjust="spacing" textLength="124" x="184" y="350.614">getUserPayload(): void*</text><!--MD5=[6cc62d088b7a142a0ad16d78c666be36]
class RequestHeader--><rect codeLine="14" fill="#FEFECE" filter="url(#fzrqu107bds4d)" height="77.9638" id="RequestHeader" style="stroke:#A80036;stroke-width:1.5;" width="477" x="7" y="22"/><ellipse cx="197.75" cy="38" fill="#ADD1B2" rx="11" ry="11" style="stroke:#A80036;stroke-width:1.0;"/><path d="M197.5469,44.7344 Q195.0625,44.7344 193.7344,43.0938 Q192.4219,41.4219 192.4219,38.3125 Q192.4219,35.1875 193.7344,33.5313 Q195.0625,31.875 197.5469,31.875 Q198.2656,31.875 198.9219,32.0313 Q199.5625,32.1875 200.125,32.4844 L200.125,35.2031 Q199.7656,34.8594 199.4688,34.6719 Q199.1719,34.4688 198.9063,34.3438 Q198.5938,34.2031 198.2813,34.1406 Q197.9844,34.0781 197.6719,34.0781 Q196.3438,34.0781 195.6563,35.1406 Q194.9688,36.2344 194.9688,38.3125 Q194.9688,40.4063 195.6563,41.4688 Q196.3438,42.5469 197.6719,42.5469 Q198.3125,42.5469 198.9063,42.2656 Q199.2031,42.1406 199.4844,41.9531 Q199.7813,41.75 200.125,41.4219 L200.125,44.1406 Q199.5469,44.4375 198.9063,44.5938 Q198.2813,44.7344 197.5469,44.7344 Z " fill="#000000"/><text fill="#000000" font-family="sans-serif" font-size="12" lengthAdjust="spacing" textLength="87" x="218.25" y="42.656">RequestHeader</text><line style="stroke:#A80036;stroke-width:1.5;" x1="8" x2="483" y1="54" y2="54"/><line style="stroke:#A80036;stroke-width:1.5;" x1="8" x2="483" y1="62" y2="62"/><ellipse cx="18" cy="73" fill="#84BE84" rx="3" ry="3" style="stroke:#038048;stroke-width:1.0;"/><text fill="#000000" font-family="sans-serif" font-size="11" lengthAdjust="spacing" textLength="451" x="27" y="77.7589">RequestHeader(uniqueClientQueueId: cxx::UniqueId, lastKnownQueueIndex: uint32_t)</text><ellipse cx="18" cy="87.9819" fill="#84BE84" rx="3" ry="3" style="stroke:#038048;stroke-width:1.0;"/><text fill="#000000" font-family="sans-serif" font-size="11" lengthAdjust="spacing" textLength="212" x="27" y="92.7408">setSequenceId(sequenceId: int64_t): void</text><!--MD5=[5e52833216ce84db46124975cdba11dc]
class ResponseHeader--><rect codeLine="19" fill="#FEFECE" filter="url(#fzrqu107bds4d)" height="107.9276" id="ResponseHeader" style="stroke:#A80036;stroke-width:1.5;" width="599" x="519" y="7"/><ellipse cx="766.25" cy="23" fill="#ADD1B2" rx="11" ry="11" style="stroke:#A80036;stroke-width:1.0;"/><path d="M766.0469,29.7344 Q763.5625,29.7344 762.2344,28.0938 Q760.9219,26.4219 760.9219,23.3125 Q760.9219,20.1875 762.2344,18.5313 Q763.5625,16.875 766.0469,16.875 Q766.7656,16.875 767.4219,17.0313 Q768.0625,17.1875 768.625,17.4844 L768.625,20.2031 Q768.2656,19.8594 767.9688,19.6719 Q767.6719,19.4688 767.4063,19.3438 Q767.0938,19.2031 766.7813,19.1406 Q766.4844,19.0781 766.1719,19.0781 Q764.8438,19.0781 764.1563,20.1406 Q763.4688,21.2344 763.4688,23.3125 Q763.4688,25.4063 764.1563,26.4688 Q764.8438,27.5469 766.1719,27.5469 Q766.8125,27.5469 767.4063,27.2656 Q767.7031,27.1406 767.9844,26.9531 Q768.2813,26.75 768.625,26.4219 L768.625,29.1406 Q768.0469,29.4375 767.4063,29.5938 Q766.7813,29.7344 766.0469,29.7344 Z " fill="#000000"/><text fill="#000000" font-family="sans-serif" font-size="12" lengthAdjust="spacing" textLength="96" x="786.75" y="27.656">ResponseHeader</text><line style="stroke:#A80036;stroke-width:1.5;" x1="520" x2="1117" y1="39" y2="39"/><rect fill="none" height="6" style="stroke:#C82930;stroke-width:1.0;" width="6" x="527" y="47"/><text fill="#000000" font-family="sans-serif" font-size="11" lengthAdjust="spacing" textLength="125" x="539" y="54.7589">m_hasServerError: bool</text><line style="stroke:#A80036;stroke-width:1.5;" x1="520" x2="1117" y1="61.9819" y2="61.9819"/><ellipse cx="530" cy="72.9819" fill="#84BE84" rx="3" ry="3" style="stroke:#038048;stroke-width:1.0;"/><text fill="#000000" font-family="sans-serif" font-size="11" lengthAdjust="spacing" textLength="573" x="539" y="77.7408">ResponseHeader(uniqueClientQueueId: cxx::UniqueId, lastKnownQueueIndex: uint32_t, sequenceId: uint64_t)</text><ellipse cx="530" cy="87.9638" fill="#84BE84" rx="3" ry="3" style="stroke:#038048;stroke-width:1.0;"/><text fill="#000000" font-family="sans-serif" font-size="11" lengthAdjust="spacing" textLength="112" x="539" y="92.7227">setServerError(): void</text><ellipse cx="530" cy="102.9457" fill="#84BE84" rx="3" ry="3" style="stroke:#038048;stroke-width:1.0;"/><text fill="#000000" font-family="sans-serif" font-size="11" lengthAdjust="spacing" textLength="116" x="539" y="107.7046">hasServerError(): bool</text><!--MD5=[1211e87899b0264a6108ab139b773bf5]
link RequestHeader to RpcBaseHeader--><path codeLine="26" d="M298.96,100.04 C327.55,120.38 364.12,146.4 399.76,171.76 " fill="none" id="RequestHeader-to-RpcBaseHeader" style="stroke:#A80036;stroke-width:1.0;"/><polygon fill="#A80036" points="404.1,174.85,399.0761,166.3789,400.0227,171.956,394.4456,172.9026,404.1,174.85" style="stroke:#A80036;stroke-width:1.0;"/><!--MD5=[9d409bceee22cd6842596723dd5b07a3]
link ResponseHeader to RpcBaseHeader--><path codeLine="27" d="M743.47,115.2 C719.03,132.53 691.14,152.31 663.79,171.7 " fill="none" id="ResponseHeader-to-RpcBaseHeader" style="stroke:#A80036;stroke-width:1.0;"/><polygon fill="#A80036" points="659.4,174.81,669.0512,172.8466,663.4725,171.9092,664.4099,166.3306,659.4,174.81" style="stroke:#A80036;stroke-width:1.0;"/></g></svg>