<?xml version="1.0" encoding="UTF-8" standalone="no"?><svg xmlns="http://www.w3.org/2000/svg" xmlns:xlink="http://www.w3.org/1999/xlink" contentScriptType="application/ecmascript" contentStyleType="text/css" height="356px" preserveAspectRatio="none" style="width:1226px;height:356px;background:#EEEBDC;" version="1.1" viewBox="0 0 1226 356" width="1226px" zoomAndPan="magnify"><defs><filter height="300%" id="f7dqw4qvvncgl" width="300%" x="-1" y="-1"><feGaussianBlur result="blurOut" stdDeviation="2.0"/><feColorMatrix in="blurOut" result="blurOut2" type="matrix" values="0 0 0 0 0 0 0 0 0 0 0 0 0 0 0 0 0 0 .4 0"/><feOffset dx="4.0" dy="4.0" in="blurOut2" result="blurOut3"/><feBlend in="SourceGraphic" in2="blurOut3" mode="normal"/></filter></defs><g><!--MD5=[0d14460b0789ede061c4aebafd984493]
class RpcBaseHeader--><rect codeLine="2" fill="#FEFECE" filter="url(#f7dqw4qvvncgl)" height="163.2422" id="RpcBaseHeader" style="stroke:#A80036;stroke-width:1.5;" width="802" x="174.5" y="179"/><ellipse cx="521.25" cy="195" fill="#ADD1B2" rx="11" ry="11" style="stroke:#A80036;stroke-width:1.0;"/><path d="M524.2188,200.6406 Q523.6406,200.9375 523,201.0781 Q522.3594,201.2344 521.6563,201.2344 Q519.1563,201.2344 517.8281,199.5938 Q516.5156,197.9375 516.5156,194.8125 Q516.5156,191.6875 517.8281,190.0313 Q519.1563,188.375 521.6563,188.375 Q522.3594,188.375 523,188.5313 Q523.6563,188.6875 524.2188,188.9844 L524.2188,191.7031 Q523.5938,191.125 523,190.8594 Q522.4063,190.5781 521.7813,190.5781 Q520.4375,190.5781 519.75,191.6563 Q519.0625,192.7188 519.0625,194.8125 Q519.0625,196.9063 519.75,197.9844 Q520.4375,199.0469 521.7813,199.0469 Q522.4063,199.0469 523,198.7813 Q523.5938,198.5 524.2188,197.9219 L524.2188,200.6406 Z " fill="#000000"/><text fill="#000000" font-family="sans-serif" font-size="12" lengthAdjust="spacing" textLength="100" x="541.75" y="199.1543">RpcBaseHeader</text><line style="stroke:#A80036;stroke-width:1.5;" x1="175.5" x2="975.5" y1="211" y2="211"/><polygon fill="none" points="185.5,217,189.5,221,185.5,225,181.5,221" style="stroke:#B38D22;stroke-width:1.0;"/><text fill="#000000" font-family="sans-serif" font-size="11" lengthAdjust="spacing" textLength="165" x="194.5" y="225.2104">m_rpcHeaderVersion: uint8_t</text><polygon fill="none" points="185.5,229.8047,189.5,233.8047,185.5,237.8047,181.5,233.8047" style="stroke:#B38D22;stroke-width:1.0;"/><text fill="#000000" font-family="sans-serif" font-size="11" lengthAdjust="spacing" textLength="227" x="194.5" y="238.0151">m_lastKnownClientQueueIndex: uint32_t</text><polygon fill="none" points="185.5,242.6094,189.5,246.6094,185.5,250.6094,181.5,246.6094" style="stroke:#B38D22;stroke-width:1.0;"/><text fill="#000000" font-family="sans-serif" font-size="11" lengthAdjust="spacing" textLength="217" x="194.5" y="250.8198">m_uniqueClientQueueId: cxx::UniqueId</text><polygon fill="none" points="185.5,255.4141,189.5,259.4141,185.5,263.4141,181.5,259.4141" style="stroke:#B38D22;stroke-width:1.0;"/><text fill="#000000" font-family="sans-serif" font-size="11" lengthAdjust="spacing" textLength="128" x="194.5" y="263.6245">m_sequenceId: int64_t</text><line style="stroke:#A80036;stroke-width:1.5;" x1="175.5" x2="975.5" y1="270.2188" y2="270.2188"/><ellipse cx="185.5" cy="281.2188" fill="#84BE84" rx="3" ry="3" style="stroke:#038048;stroke-width:1.0;"/><text fill="#000000" font-family="sans-serif" font-size="11" lengthAdjust="spacing" textLength="776" x="194.5" y="284.4292">RpcBaseHeader(uniqueClientQueueId: cxx::UniqueId&amp;, lastKnownQueueIndex: uint32_t, sequenceId: uint64_t, rpcHeaderVersion: uint8_t)</text><ellipse cx="185.5" cy="294.0234" fill="#84BE84" rx="3" ry="3" style="stroke:#038048;stroke-width:1.0;"/><text fill="#000000" font-family="sans-serif" font-size="11" lengthAdjust="spacing" textLength="176" x="194.5" y="297.2339">getRpcHeaderVersion(): uint8_t</text><ellipse cx="185.5" cy="306.8281" fill="#84BE84" rx="3" ry="3" style="stroke:#038048;stroke-width:1.0;"/><text fill="#000000" font-family="sans-serif" font-size="11" lengthAdjust="spacing" textLength="138" x="194.5" y="310.0386">getSequenceId(): int64_t</text><ellipse cx="185.5" cy="319.6328" fill="#84BE84" rx="3" ry="3" style="stroke:#038048;stroke-width:1.0;"/><text fill="#000000" font-family="sans-serif" font-size="11" lengthAdjust="spacing" textLength="192" x="194.5" y="322.8433">getChunkHeader(): ChunkHeader*</text><ellipse cx="185.5" cy="332.4375" fill="#84BE84" rx="3" ry="3" style="stroke:#038048;stroke-width:1.0;"/><text fill="#000000" font-family="sans-serif" font-size="11" lengthAdjust="spacing" textLength="134" x="194.5" y="335.6479">getUserPayload(): void*</text><!--MD5=[6cc62d088b7a142a0ad16d78c666be36]
class RequestHeader--><rect codeLine="14" fill="#FEFECE" filter="url(#f7dqw4qvvncgl)" height="86.4141" id="RequestHeader" style="stroke:#A80036;stroke-width:1.5;" width="517" x="7" y="20"/><ellipse cx="212.25" cy="36" fill="#ADD1B2" rx="11" ry="11" style="stroke:#A80036;stroke-width:1.0;"/><path d="M215.2188,41.6406 Q214.6406,41.9375 214,42.0781 Q213.3594,42.2344 212.6563,42.2344 Q210.1563,42.2344 208.8281,40.5938 Q207.5156,38.9375 207.5156,35.8125 Q207.5156,32.6875 208.8281,31.0313 Q210.1563,29.375 212.6563,29.375 Q213.3594,29.375 214,29.5313 Q214.6563,29.6875 215.2188,29.9844 L215.2188,32.7031 Q214.5938,32.125 214,31.8594 Q213.4063,31.5781 212.7813,31.5781 Q211.4375,31.5781 210.75,32.6563 Q210.0625,33.7188 210.0625,35.8125 Q210.0625,37.9063 210.75,38.9844 Q211.4375,40.0469 212.7813,40.0469 Q213.4063,40.0469 214,39.7813 Q214.5938,39.5 215.2188,38.9219 L215.2188,41.6406 Z " fill="#000000"/><text fill="#000000" font-family="sans-serif" font-size="12" lengthAdjust="spacing" textLength="98" x="232.75" y="40.1543">RequestHeader</text><line style="stroke:#A80036;stroke-width:1.5;" x1="8" x2="523" y1="52" y2="52"/><line style="stroke:#A80036;stroke-width:1.5;" x1="8" x2="523" y1="60" y2="60"/><ellipse cx="18" cy="71" fill="#84BE84" rx="3" ry="3" style="stroke:#038048;stroke-width:1.0;"/><text fill="#000000" font-family="sans-serif" font-size="11" lengthAdjust="spacing" textLength="491" x="27" y="74.2104">RequestHeader(uniqueClientQueueId: cxx::UniqueId&amp;, lastKnownQueueIndex: uint32_t)</text><ellipse cx="18" cy="83.8047" fill="#84BE84" rx="3" ry="3" style="stroke:#038048;stroke-width:1.0;"/><text fill="#000000" font-family="sans-serif" font-size="11" lengthAdjust="spacing" textLength="234" x="27" y="87.0151">setSequenceId(sequenceId: int64_t): void</text><text fill="#000000" font-family="sans-serif" font-size="11" lengthAdjust="spacing" text-decoration="underline" textLength="261" x="27" y="99.8198">fromPayload(payload: void*): RequestHeader*</text><!--MD5=[5e52833216ce84db46124975cdba11dc]
class ResponseHeader--><rect codeLine="20" fill="#FEFECE" filter="url(#f7dqw4qvvncgl)" height="112.0234" id="ResponseHeader" style="stroke:#A80036;stroke-width:1.5;" width="653" x="559" y="7"/><ellipse cx="827.25" cy="23" fill="#ADD1B2" rx="11" ry="11" style="stroke:#A80036;stroke-width:1.0;"/><path d="M830.2188,28.6406 Q829.6406,28.9375 829,29.0781 Q828.3594,29.2344 827.6563,29.2344 Q825.1563,29.2344 823.8281,27.5938 Q822.5156,25.9375 822.5156,22.8125 Q822.5156,19.6875 823.8281,18.0313 Q825.1563,16.375 827.6563,16.375 Q828.3594,16.375 829,16.5313 Q829.6563,16.6875 830.2188,16.9844 L830.2188,19.7031 Q829.5938,19.125 829,18.8594 Q828.4063,18.5781 827.7813,18.5781 Q826.4375,18.5781 825.75,19.6563 Q825.0625,20.7188 825.0625,22.8125 Q825.0625,24.9063 825.75,25.9844 Q826.4375,27.0469 827.7813,27.0469 Q828.4063,27.0469 829,26.7813 Q829.5938,26.5 830.2188,25.9219 L830.2188,28.6406 Z " fill="#000000"/><text fill="#000000" font-family="sans-serif" font-size="12" lengthAdjust="spacing" textLength="108" x="847.75" y="27.1543">ResponseHeader</text><line style="stroke:#A80036;stroke-width:1.5;" x1="560" x2="1211" y1="39" y2="39"/><rect fill="none" height="6" style="stroke:#C82930;stroke-width:1.0;" width="6" x="567" y="47"/><text fill="#000000" font-family="sans-serif" font-size="11" lengthAdjust="spacing" textLength="137" x="579" y="53.2104">m_hasServerError: bool</text><line style="stroke:#A80036;stroke-width:1.5;" x1="560" x2="1211" y1="59.8047" y2="59.8047"/><ellipse cx="570" cy="70.8047" fill="#84BE84" rx="3" ry="3" style="stroke:#038048;stroke-width:1.0;"/><text fill="#000000" font-family="sans-serif" font-size="11" lengthAdjust="spacing" textLength="627" x="579" y="74.0151">ResponseHeader(uniqueClientQueueId: cxx::UniqueId&amp;, lastKnownQueueIndex: uint32_t, sequenceId: uint64_t)</text><ellipse cx="570" cy="83.6094" fill="#84BE84" rx="3" ry="3" style="stroke:#038048;stroke-width:1.0;"/><text fill="#000000" font-family="sans-serif" font-size="11" lengthAdjust="spacing" textLength="124" x="579" y="86.8198">setServerError(): void</text><ellipse cx="570" cy="96.4141" fill="#84BE84" rx="3" ry="3" style="stroke:#038048;stroke-width:1.0;"/><text fill="#000000" font-family="sans-serif" font-size="11" lengthAdjust="spacing" textLength="128" x="579" y="99.6245">hasServerError(): bool</text><text fill="#000000" font-family="sans-serif" font-size="11" lengthAdjust="spacing" text-decoration="underline" textLength="261" x="579" y="112.4292">fromPayload(payload: void*): RequestHeader*</text><!--MD5=[1211e87899b0264a6108ab139b773bf5]
link RequestHeader to RpcBaseHeader--><path codeLine="28" d="M332.38,106.18 C364.8,126.62 404.9,151.91 443.14,176.03 " fill="none" id="RequestHeader-to-RpcBaseHeader" style="stroke:#A80036;stroke-width:1.0;"/><polygon fill="#A80036" points="447.79,178.96,442.2978,170.7847,443.5564,176.2997,438.0414,177.5584,447.79,178.96" style="stroke:#A80036;stroke-width:1.0;"/><!--MD5=[9d409bceee22cd6842596723dd5b07a3]
link ResponseHeader to RpcBaseHeader--><path codeLine="29" d="M797.91,119.24 C769.92,136.89 738.29,156.83 707.86,176.03 " fill="none" id="ResponseHeader-to-RpcBaseHeader" style="stroke:#A80036;stroke-width:1.0;"/><polygon fill="#A80036" points="703.38,178.86,713.1252,177.4348,707.6071,176.1895,708.8524,170.6714,703.38,178.86" style="stroke:#A80036;stroke-width:1.0;"/></g></svg>