<?xml version="1.0" encoding="UTF-8" standalone="no"?><svg xmlns="http://www.w3.org/2000/svg" xmlns:xlink="http://www.w3.org/1999/xlink" contentScriptType="application/ecmascript" contentStyleType="text/css" height="386px" preserveAspectRatio="none" style="width:1148px;height:386px;background:#EEEBDC;" version="1.1" viewBox="0 0 1148 386" width="1148px" zoomAndPan="magnify"><defs><filter height="300%" id="f7dqw4qvvncgl" width="300%" x="-1" y="-1"><feGaussianBlur result="blurOut" stdDeviation="2.0"/><feColorMatrix in="blurOut" result="blurOut2" type="matrix" values="0 0 0 0 0 0 0 0 0 0 0 0 0 0 0 0 0 0 .4 0"/><feOffset dx="4.0" dy="4.0" in="blurOut2" result="blurOut3"/><feBlend in="SourceGraphic" in2="blurOut3" mode="normal"/></filter></defs><g><!--MD5=[0d14460b0789ede061c4aebafd984493]
class RpcBaseHeader--><rect codeLine="2" fill="#FEFECE" filter="url(#f7dqw4qvvncgl)" height="182.837" id="RpcBaseHeader" style="stroke:#A80036;stroke-width:1.5;" width="743" x="168" y="190"/><ellipse cx="490.25" cy="206" fill="#ADD1B2" rx="11" ry="11" style="stroke:#A80036;stroke-width:1.0;"/><path d="M490.0469,212.7344 Q487.5625,212.7344 486.2344,211.0938 Q484.9219,209.4219 484.9219,206.3125 Q484.9219,203.1875 486.2344,201.5313 Q487.5625,199.875 490.0469,199.875 Q490.7656,199.875 491.4219,200.0313 Q492.0625,200.1875 492.625,200.4844 L492.625,203.2031 Q492.2656,202.8594 491.9688,202.6719 Q491.6719,202.4688 491.4063,202.3438 Q491.0938,202.2031 490.7813,202.1406 Q490.4844,202.0781 490.1719,202.0781 Q488.8438,202.0781 488.1563,203.1406 Q487.4688,204.2344 487.4688,206.3125 Q487.4688,208.4063 488.1563,209.4688 Q488.8438,210.5469 490.1719,210.5469 Q490.8125,210.5469 491.4063,210.2656 Q491.7031,210.1406 491.9844,209.9531 Q492.2813,209.75 492.625,209.4219 L492.625,212.1406 Q492.0469,212.4375 491.4063,212.5938 Q490.7813,212.7344 490.0469,212.7344 Z " fill="#000000"/><text fill="#000000" font-family="sans-serif" font-size="12" lengthAdjust="spacing" textLength="90" x="510.75" y="210.656">RpcBaseHeader</text><line style="stroke:#A80036;stroke-width:1.5;" x1="169" x2="910" y1="222" y2="222"/><polygon fill="none" points="179,228,183,232,179,236,175,232" style="stroke:#B38D22;stroke-width:1.0;"/><text fill="#000000" font-family="sans-serif" font-size="11" lengthAdjust="spacing" textLength="152" x="188" y="237.7589">m_rpcHeaderVersion: uint8_t</text><polygon fill="none" points="179,242.9819,183,246.9819,179,250.9819,175,246.9819" style="stroke:#B38D22;stroke-width:1.0;"/><text fill="#000000" font-family="sans-serif" font-size="11" lengthAdjust="spacing" textLength="213" x="188" y="252.7408">m_lastKnownClientQueueIndex: uint32_t</text><polygon fill="none" points="179,257.9638,183,261.9638,179,265.9638,175,261.9638" style="stroke:#B38D22;stroke-width:1.0;"/><text fill="#000000" font-family="sans-serif" font-size="11" lengthAdjust="spacing" textLength="206" x="188" y="267.7227">m_uniqueClientQueueId: cxx::UniqueId</text><polygon fill="none" points="179,272.9457,183,276.9457,179,280.9457,175,276.9457" style="stroke:#B38D22;stroke-width:1.0;"/><text fill="#000000" font-family="sans-serif" font-size="11" lengthAdjust="spacing" textLength="116" x="188" y="282.7046">m_sequenceId: int64_t</text><line style="stroke:#A80036;stroke-width:1.5;" x1="169" x2="910" y1="289.9276" y2="289.9276"/><ellipse cx="179" cy="300.9276" fill="#84BE84" rx="3" ry="3" style="stroke:#038048;stroke-width:1.0;"/><text fill="#000000" font-family="sans-serif" font-size="11" lengthAdjust="spacing" textLength="717" x="188" y="305.6865">RpcBaseHeader(uniqueClientQueueId: cxx::UniqueId&amp;, lastKnownQueueIndex: uint32_t, sequenceId: uint64_t, rpcHeaderVersion: uint8_t)</text><ellipse cx="179" cy="315.9094" fill="#84BE84" rx="3" ry="3" style="stroke:#038048;stroke-width:1.0;"/><text fill="#000000" font-family="sans-serif" font-size="11" lengthAdjust="spacing" textLength="162" x="188" y="320.6684">getRpcHeaderVersion(): uint8_t</text><ellipse cx="179" cy="330.8913" fill="#84BE84" rx="3" ry="3" style="stroke:#038048;stroke-width:1.0;"/><text fill="#000000" font-family="sans-serif" font-size="11" lengthAdjust="spacing" textLength="125" x="188" y="335.6502">getSequenceId(): int64_t</text><ellipse cx="179" cy="345.8732" fill="#84BE84" rx="3" ry="3" style="stroke:#038048;stroke-width:1.0;"/><text fill="#000000" font-family="sans-serif" font-size="11" lengthAdjust="spacing" textLength="179" x="188" y="350.6321">getChunkHeader(): ChunkHeader*</text><ellipse cx="179" cy="360.8551" fill="#84BE84" rx="3" ry="3" style="stroke:#038048;stroke-width:1.0;"/><text fill="#000000" font-family="sans-serif" font-size="11" lengthAdjust="spacing" textLength="124" x="188" y="365.614">getUserPayload(): void*</text><!--MD5=[6cc62d088b7a142a0ad16d78c666be36]
class RequestHeader--><rect codeLine="14" fill="#FEFECE" filter="url(#f7dqw4qvvncgl)" height="92.9457" id="RequestHeader" style="stroke:#A80036;stroke-width:1.5;" width="485" x="7" y="22"/><ellipse cx="201.75" cy="38" fill="#ADD1B2" rx="11" ry="11" style="stroke:#A80036;stroke-width:1.0;"/><path d="M201.5469,44.7344 Q199.0625,44.7344 197.7344,43.0938 Q196.4219,41.4219 196.4219,38.3125 Q196.4219,35.1875 197.7344,33.5313 Q199.0625,31.875 201.5469,31.875 Q202.2656,31.875 202.9219,32.0313 Q203.5625,32.1875 204.125,32.4844 L204.125,35.2031 Q203.7656,34.8594 203.4688,34.6719 Q203.1719,34.4688 202.9063,34.3438 Q202.5938,34.2031 202.2813,34.1406 Q201.9844,34.0781 201.6719,34.0781 Q200.3438,34.0781 199.6563,35.1406 Q198.9688,36.2344 198.9688,38.3125 Q198.9688,40.4063 199.6563,41.4688 Q200.3438,42.5469 201.6719,42.5469 Q202.3125,42.5469 202.9063,42.2656 Q203.2031,42.1406 203.4844,41.9531 Q203.7813,41.75 204.125,41.4219 L204.125,44.1406 Q203.5469,44.4375 202.9063,44.5938 Q202.2813,44.7344 201.5469,44.7344 Z " fill="#000000"/><text fill="#000000" font-family="sans-serif" font-size="12" lengthAdjust="spacing" textLength="87" x="222.25" y="42.656">RequestHeader</text><line style="stroke:#A80036;stroke-width:1.5;" x1="8" x2="491" y1="54" y2="54"/><line style="stroke:#A80036;stroke-width:1.5;" x1="8" x2="491" y1="62" y2="62"/><ellipse cx="18" cy="73" fill="#84BE84" rx="3" ry="3" style="stroke:#038048;stroke-width:1.0;"/><text fill="#000000" font-family="sans-serif" font-size="11" lengthAdjust="spacing" textLength="459" x="27" y="77.7589">RequestHeader(uniqueClientQueueId: cxx::UniqueId&amp;, lastKnownQueueIndex: uint32_t)</text><ellipse cx="18" cy="87.9819" fill="#84BE84" rx="3" ry="3" style="stroke:#038048;stroke-width:1.0;"/><text fill="#000000" font-family="sans-serif" font-size="11" lengthAdjust="spacing" textLength="212" x="27" y="92.7408">setSequenceId(sequenceId: int64_t): void</text><text fill="#000000" font-family="sans-serif" font-size="11" lengthAdjust="spacing" text-decoration="underline" textLength="243" x="27" y="107.7227">fromPayload(payload: void*): RequestHeader*</text><!--MD5=[5e52833216ce84db46124975cdba11dc]
class ResponseHeader--><rect codeLine="20" fill="#FEFECE" filter="url(#f7dqw4qvvncgl)" height="122.9094" id="ResponseHeader" style="stroke:#A80036;stroke-width:1.5;" width="607" x="527" y="7"/><ellipse cx="778.25" cy="23" fill="#ADD1B2" rx="11" ry="11" style="stroke:#A80036;stroke-width:1.0;"/><path d="M778.0469,29.7344 Q775.5625,29.7344 774.2344,28.0938 Q772.9219,26.4219 772.9219,23.3125 Q772.9219,20.1875 774.2344,18.5313 Q775.5625,16.875 778.0469,16.875 Q778.7656,16.875 779.4219,17.0313 Q780.0625,17.1875 780.625,17.4844 L780.625,20.2031 Q780.2656,19.8594 779.9688,19.6719 Q779.6719,19.4688 779.4063,19.3438 Q779.0938,19.2031 778.7813,19.1406 Q778.4844,19.0781 778.1719,19.0781 Q776.8438,19.0781 776.1563,20.1406 Q775.4688,21.2344 775.4688,23.3125 Q775.4688,25.4063 776.1563,26.4688 Q776.8438,27.5469 778.1719,27.5469 Q778.8125,27.5469 779.4063,27.2656 Q779.7031,27.1406 779.9844,26.9531 Q780.2813,26.75 780.625,26.4219 L780.625,29.1406 Q780.0469,29.4375 779.4063,29.5938 Q778.7813,29.7344 778.0469,29.7344 Z " fill="#000000"/><text fill="#000000" font-family="sans-serif" font-size="12" lengthAdjust="spacing" textLength="96" x="798.75" y="27.656">ResponseHeader</text><line style="stroke:#A80036;stroke-width:1.5;" x1="528" x2="1133" y1="39" y2="39"/><rect fill="none" height="6" style="stroke:#C82930;stroke-width:1.0;" width="6" x="535" y="47"/><text fill="#000000" font-family="sans-serif" font-size="11" lengthAdjust="spacing" textLength="125" x="547" y="54.7589">m_hasServerError: bool</text><line style="stroke:#A80036;stroke-width:1.5;" x1="528" x2="1133" y1="61.9819" y2="61.9819"/><ellipse cx="538" cy="72.9819" fill="#84BE84" rx="3" ry="3" style="stroke:#038048;stroke-width:1.0;"/><text fill="#000000" font-family="sans-serif" font-size="11" lengthAdjust="spacing" textLength="581" x="547" y="77.7408">ResponseHeader(uniqueClientQueueId: cxx::UniqueId&amp;, lastKnownQueueIndex: uint32_t, sequenceId: uint64_t)</text><ellipse cx="538" cy="87.9638" fill="#84BE84" rx="3" ry="3" style="stroke:#038048;stroke-width:1.0;"/><text fill="#000000" font-family="sans-serif" font-size="11" lengthAdjust="spacing" textLength="112" x="547" y="92.7227">setServerError(): void</text><ellipse cx="538" cy="102.9457" fill="#84BE84" rx="3" ry="3" style="stroke:#038048;stroke-width:1.0;"/><text fill="#000000" font-family="sans-serif" font-size="11" lengthAdjust="spacing" textLength="116" x="547" y="107.7046">hasServerError(): bool</text><text fill="#000000" font-family="sans-serif" font-size="11" lengthAdjust="spacing" text-decoration="underline" textLength="243" x="547" y="122.6865">fromPayload(payload: void*): RequestHeader*</text><!--MD5=[1211e87899b0264a6108ab139b773bf5]
link RequestHeader to RpcBaseHeader--><path codeLine="28" d="M312.07,115.02 C341.03,136.1 376.56,161.95 410.85,186.9 " fill="none" id="RequestHeader-to-RpcBaseHeader" style="stroke:#A80036;stroke-width:1.0;"/><polygon fill="#A80036" points="415.03,189.94,410.1076,181.4094,410.9876,186.9974,405.3996,187.8774,415.03,189.94" style="stroke:#A80036;stroke-width:1.0;"/><!--MD5=[9d409bceee22cd6842596723dd5b07a3]
link ResponseHeader to RpcBaseHeader--><path codeLine="29" d="M746.72,130.25 C722.34,147.93 695.11,167.67 668.62,186.88 " fill="none" id="ResponseHeader-to-RpcBaseHeader" style="stroke:#A80036;stroke-width:1.0;"/><polygon fill="#A80036" points="664.38,189.95,674.0186,187.9258,668.4341,187.0236,669.3363,181.4391,664.38,189.95" style="stroke:#A80036;stroke-width:1.0;"/></g></svg>