<?xml version="1.0" encoding="UTF-8" standalone="no"?><svg xmlns="http://www.w3.org/2000/svg" xmlns:xlink="http://www.w3.org/1999/xlink" contentScriptType="application/ecmascript" contentStyleType="text/css" height="356px" preserveAspectRatio="none" style="width:1206px;height:356px;background:#EEEBDC;" version="1.1" viewBox="0 0 1206 356" width="1206px" zoomAndPan="magnify"><defs><filter height="300%" id="f1gmq1zuk317zh" width="300%" x="-1" y="-1"><feGaussianBlur result="blurOut" stdDeviation="2.0"/><feColorMatrix in="blurOut" result="blurOut2" type="matrix" values="0 0 0 0 0 0 0 0 0 0 0 0 0 0 0 0 0 0 .4 0"/><feOffset dx="4.0" dy="4.0" in="blurOut2" result="blurOut3"/><feBlend in="SourceGraphic" in2="blurOut3" mode="normal"/></filter></defs><g><!--MD5=[0d14460b0789ede061c4aebafd984493]
class RpcBaseHeader--><rect codeLine="2" fill="#FEFECE" filter="url(#f1gmq1zuk317zh)" height="163.2422" id="RpcBaseHeader" style="stroke:#A80036;stroke-width:1.5;" width="792" x="169.5" y="179"/><ellipse cx="511.25" cy="195" fill="#ADD1B2" rx="11" ry="11" style="stroke:#A80036;stroke-width:1.0;"/><path d="M514.2188,200.6406 Q513.6406,200.9375 513,201.0781 Q512.3594,201.2344 511.6563,201.2344 Q509.1563,201.2344 507.8281,199.5938 Q506.5156,197.9375 506.5156,194.8125 Q506.5156,191.6875 507.8281,190.0313 Q509.1563,188.375 511.6563,188.375 Q512.3594,188.375 513,188.5313 Q513.6563,188.6875 514.2188,188.9844 L514.2188,191.7031 Q513.5938,191.125 513,190.8594 Q512.4063,190.5781 511.7813,190.5781 Q510.4375,190.5781 509.75,191.6563 Q509.0625,192.7188 509.0625,194.8125 Q509.0625,196.9063 509.75,197.9844 Q510.4375,199.0469 511.7813,199.0469 Q512.4063,199.0469 513,198.7813 Q513.5938,198.5 514.2188,197.9219 L514.2188,200.6406 Z " fill="#000000"/><text fill="#000000" font-family="sans-serif" font-size="12" lengthAdjust="spacing" textLength="100" x="531.75" y="199.1543">RpcBaseHeader</text><line style="stroke:#A80036;stroke-width:1.5;" x1="170.5" x2="960.5" y1="211" y2="211"/><polygon fill="none" points="180.5,217,184.5,221,180.5,225,176.5,221" style="stroke:#B38D22;stroke-width:1.0;"/><text fill="#000000" font-family="sans-serif" font-size="11" lengthAdjust="spacing" textLength="165" x="189.5" y="225.2104">m_rpcHeaderVersion: uint8_t</text><polygon fill="none" points="180.5,229.8047,184.5,233.8047,180.5,237.8047,176.5,233.8047" style="stroke:#B38D22;stroke-width:1.0;"/><text fill="#000000" font-family="sans-serif" font-size="11" lengthAdjust="spacing" textLength="227" x="189.5" y="238.0151">m_lastKnownClientQueueIndex: uint32_t</text><polygon fill="none" points="180.5,242.6094,184.5,246.6094,180.5,250.6094,176.5,246.6094" style="stroke:#B38D22;stroke-width:1.0;"/><text fill="#000000" font-family="sans-serif" font-size="11" lengthAdjust="spacing" textLength="217" x="189.5" y="250.8198">m_uniqueClientQueueId: cxx::UniqueId</text><polygon fill="none" points="180.5,255.4141,184.5,259.4141,180.5,263.4141,176.5,259.4141" style="stroke:#B38D22;stroke-width:1.0;"/><text fill="#000000" font-family="sans-serif" font-size="11" lengthAdjust="spacing" textLength="128" x="189.5" y="263.6245">m_sequenceId: int64_t</text><line style="stroke:#A80036;stroke-width:1.5;" x1="170.5" x2="960.5" y1="270.2188" y2="270.2188"/><ellipse cx="180.5" cy="281.2188" fill="#84BE84" rx="3" ry="3" style="stroke:#038048;stroke-width:1.0;"/><text fill="#000000" font-family="sans-serif" font-size="11" lengthAdjust="spacing" textLength="766" x="189.5" y="284.4292">RpcBaseHeader(uniqueClientQueueId: cxx::UniqueId, lastKnownQueueIndex: uint32_t, sequenceId: uint64_t, rpcHeaderVersion: uint8_t)</text><ellipse cx="180.5" cy="294.0234" fill="#84BE84" rx="3" ry="3" style="stroke:#038048;stroke-width:1.0;"/><text fill="#000000" font-family="sans-serif" font-size="11" lengthAdjust="spacing" textLength="176" x="189.5" y="297.2339">getRpcHeaderVersion(): uint8_t</text><ellipse cx="180.5" cy="306.8281" fill="#84BE84" rx="3" ry="3" style="stroke:#038048;stroke-width:1.0;"/><text fill="#000000" font-family="sans-serif" font-size="11" lengthAdjust="spacing" textLength="138" x="189.5" y="310.0386">getSequenceId(): int64_t</text><ellipse cx="180.5" cy="319.6328" fill="#84BE84" rx="3" ry="3" style="stroke:#038048;stroke-width:1.0;"/><text fill="#000000" font-family="sans-serif" font-size="11" lengthAdjust="spacing" textLength="192" x="189.5" y="322.8433">getChunkHeader(): ChunkHeader*</text><ellipse cx="180.5" cy="332.4375" fill="#84BE84" rx="3" ry="3" style="stroke:#038048;stroke-width:1.0;"/><text fill="#000000" font-family="sans-serif" font-size="11" lengthAdjust="spacing" textLength="134" x="189.5" y="335.6479">getUserPayload(): void*</text><!--MD5=[6cc62d088b7a142a0ad16d78c666be36]
class RequestHeader--><rect codeLine="14" fill="#FEFECE" filter="url(#f1gmq1zuk317zh)" height="86.4141" id="RequestHeader" style="stroke:#A80036;stroke-width:1.5;" width="507" x="7" y="20"/><ellipse cx="207.25" cy="36" fill="#ADD1B2" rx="11" ry="11" style="stroke:#A80036;stroke-width:1.0;"/><path d="M210.2188,41.6406 Q209.6406,41.9375 209,42.0781 Q208.3594,42.2344 207.6563,42.2344 Q205.1563,42.2344 203.8281,40.5938 Q202.5156,38.9375 202.5156,35.8125 Q202.5156,32.6875 203.8281,31.0313 Q205.1563,29.375 207.6563,29.375 Q208.3594,29.375 209,29.5313 Q209.6563,29.6875 210.2188,29.9844 L210.2188,32.7031 Q209.5938,32.125 209,31.8594 Q208.4063,31.5781 207.7813,31.5781 Q206.4375,31.5781 205.75,32.6563 Q205.0625,33.7188 205.0625,35.8125 Q205.0625,37.9063 205.75,38.9844 Q206.4375,40.0469 207.7813,40.0469 Q208.4063,40.0469 209,39.7813 Q209.5938,39.5 210.2188,38.9219 L210.2188,41.6406 Z " fill="#000000"/><text fill="#000000" font-family="sans-serif" font-size="12" lengthAdjust="spacing" textLength="98" x="227.75" y="40.1543">RequestHeader</text><line style="stroke:#A80036;stroke-width:1.5;" x1="8" x2="513" y1="52" y2="52"/><line style="stroke:#A80036;stroke-width:1.5;" x1="8" x2="513" y1="60" y2="60"/><ellipse cx="18" cy="71" fill="#84BE84" rx="3" ry="3" style="stroke:#038048;stroke-width:1.0;"/><text fill="#000000" font-family="sans-serif" font-size="11" lengthAdjust="spacing" textLength="481" x="27" y="74.2104">RequestHeader(uniqueClientQueueId: cxx::UniqueId, lastKnownQueueIndex: uint32_t)</text><ellipse cx="18" cy="83.8047" fill="#84BE84" rx="3" ry="3" style="stroke:#038048;stroke-width:1.0;"/><text fill="#000000" font-family="sans-serif" font-size="11" lengthAdjust="spacing" textLength="234" x="27" y="87.0151">setSequenceId(sequenceId: int64_t): void</text><text fill="#000000" font-family="sans-serif" font-size="11" lengthAdjust="spacing" text-decoration="underline" textLength="261" x="27" y="99.8198">fromPayload(payload: void*): RequestHeader*</text><!--MD5=[5e52833216ce84db46124975cdba11dc]
class ResponseHeader--><rect codeLine="20" fill="#FEFECE" filter="url(#f1gmq1zuk317zh)" height="112.0234" id="ResponseHeader" style="stroke:#A80036;stroke-width:1.5;" width="643" x="549" y="7"/><ellipse cx="812.25" cy="23" fill="#ADD1B2" rx="11" ry="11" style="stroke:#A80036;stroke-width:1.0;"/><path d="M815.2188,28.6406 Q814.6406,28.9375 814,29.0781 Q813.3594,29.2344 812.6563,29.2344 Q810.1563,29.2344 808.8281,27.5938 Q807.5156,25.9375 807.5156,22.8125 Q807.5156,19.6875 808.8281,18.0313 Q810.1563,16.375 812.6563,16.375 Q813.3594,16.375 814,16.5313 Q814.6563,16.6875 815.2188,16.9844 L815.2188,19.7031 Q814.5938,19.125 814,18.8594 Q813.4063,18.5781 812.7813,18.5781 Q811.4375,18.5781 810.75,19.6563 Q810.0625,20.7188 810.0625,22.8125 Q810.0625,24.9063 810.75,25.9844 Q811.4375,27.0469 812.7813,27.0469 Q813.4063,27.0469 814,26.7813 Q814.5938,26.5 815.2188,25.9219 L815.2188,28.6406 Z " fill="#000000"/><text fill="#000000" font-family="sans-serif" font-size="12" lengthAdjust="spacing" textLength="108" x="832.75" y="27.1543">ResponseHeader</text><line style="stroke:#A80036;stroke-width:1.5;" x1="550" x2="1191" y1="39" y2="39"/><rect fill="none" height="6" style="stroke:#C82930;stroke-width:1.0;" width="6" x="557" y="47"/><text fill="#000000" font-family="sans-serif" font-size="11" lengthAdjust="spacing" textLength="137" x="569" y="53.2104">m_hasServerError: bool</text><line style="stroke:#A80036;stroke-width:1.5;" x1="550" x2="1191" y1="59.8047" y2="59.8047"/><ellipse cx="560" cy="70.8047" fill="#84BE84" rx="3" ry="3" style="stroke:#038048;stroke-width:1.0;"/><text fill="#000000" font-family="sans-serif" font-size="11" lengthAdjust="spacing" textLength="617" x="569" y="74.0151">ResponseHeader(uniqueClientQueueId: cxx::UniqueId, lastKnownQueueIndex: uint32_t, sequenceId: uint64_t)</text><ellipse cx="560" cy="83.6094" fill="#84BE84" rx="3" ry="3" style="stroke:#038048;stroke-width:1.0;"/><text fill="#000000" font-family="sans-serif" font-size="11" lengthAdjust="spacing" textLength="124" x="569" y="86.8198">setServerError(): void</text><ellipse cx="560" cy="96.4141" fill="#84BE84" rx="3" ry="3" style="stroke:#038048;stroke-width:1.0;"/><text fill="#000000" font-family="sans-serif" font-size="11" lengthAdjust="spacing" textLength="128" x="569" y="99.6245">hasServerError(): bool</text><text fill="#000000" font-family="sans-serif" font-size="11" lengthAdjust="spacing" text-decoration="underline" textLength="261" x="569" y="112.4292">fromPayload(payload: void*): RequestHeader*</text><!--MD5=[1211e87899b0264a6108ab139b773bf5]
link RequestHeader to RpcBaseHeader--><path codeLine="28" d="M326.3,106.18 C358.19,126.62 397.66,151.91 435.27,176.03 " fill="none" id="RequestHeader-to-RpcBaseHeader" style="stroke:#A80036;stroke-width:1.0;"/><polygon fill="#A80036" points="439.85,178.96,434.4424,170.7285,435.6441,176.2562,430.1164,177.4579,439.85,178.96" style="stroke:#A80036;stroke-width:1.0;"/><!--MD5=[9d409bceee22cd6842596723dd5b07a3]
link ResponseHeader to RpcBaseHeader--><path codeLine="29" d="M784.32,119.24 C756.79,136.89 725.67,156.83 695.72,176.03 " fill="none" id="ResponseHeader-to-RpcBaseHeader" style="stroke:#A80036;stroke-width:1.0;"/><polygon fill="#A80036" points="691.31,178.86,701.0459,177.3729,695.5201,176.1627,696.7303,170.6368,691.31,178.86" style="stroke:#A80036;stroke-width:1.0;"/></g></svg>