<?xml version="1.0" encoding="UTF-8" standalone="no"?><svg xmlns="http://www.w3.org/2000/svg" xmlns:xlink="http://www.w3.org/1999/xlink" contentScriptType="application/ecmascript" contentStyleType="text/css" height="386px" preserveAspectRatio="none" style="width:1132px;height:386px;background:#EEEBDC;" version="1.1" viewBox="0 0 1132 386" width="1132px" zoomAndPan="magnify"><defs><filter height="300%" id="fp9dstwa0lof9" width="300%" x="-1" y="-1"><feGaussianBlur result="blurOut" stdDeviation="2.0"/><feColorMatrix in="blurOut" result="blurOut2" type="matrix" values="0 0 0 0 0 0 0 0 0 0 0 0 0 0 0 0 0 0 .4 0"/><feOffset dx="4.0" dy="4.0" in="blurOut2" result="blurOut3"/><feBlend in="SourceGraphic" in2="blurOut3" mode="normal"/></filter></defs><g><!--MD5=[0d14460b0789ede061c4aebafd984493]
class RpcBaseHeader--><rect codeLine="2" fill="#FEFECE" filter="url(#fp9dstwa0lof9)" height="182.837" id="RpcBaseHeader" style="stroke:#A80036;stroke-width:1.5;" width="735" x="164" y="190"/><ellipse cx="482.25" cy="206" fill="#ADD1B2" rx="11" ry="11" style="stroke:#A80036;stroke-width:1.0;"/><path d="M482.0469,212.7344 Q479.5625,212.7344 478.2344,211.0938 Q476.9219,209.4219 476.9219,206.3125 Q476.9219,203.1875 478.2344,201.5313 Q479.5625,199.875 482.0469,199.875 Q482.7656,199.875 483.4219,200.0313 Q484.0625,200.1875 484.625,200.4844 L484.625,203.2031 Q484.2656,202.8594 483.9688,202.6719 Q483.6719,202.4688 483.4063,202.3438 Q483.0938,202.2031 482.7813,202.1406 Q482.4844,202.0781 482.1719,202.0781 Q480.8438,202.0781 480.1563,203.1406 Q479.4688,204.2344 479.4688,206.3125 Q479.4688,208.4063 480.1563,209.4688 Q480.8438,210.5469 482.1719,210.5469 Q482.8125,210.5469 483.4063,210.2656 Q483.7031,210.1406 483.9844,209.9531 Q484.2813,209.75 484.625,209.4219 L484.625,212.1406 Q484.0469,212.4375 483.4063,212.5938 Q482.7813,212.7344 482.0469,212.7344 Z " fill="#000000"/><text fill="#000000" font-family="sans-serif" font-size="12" lengthAdjust="spacing" textLength="90" x="502.75" y="210.656">RpcBaseHeader</text><line style="stroke:#A80036;stroke-width:1.5;" x1="165" x2="898" y1="222" y2="222"/><polygon fill="none" points="175,228,179,232,175,236,171,232" style="stroke:#B38D22;stroke-width:1.0;"/><text fill="#000000" font-family="sans-serif" font-size="11" lengthAdjust="spacing" textLength="152" x="184" y="237.7589">m_rpcHeaderVersion: uint8_t</text><polygon fill="none" points="175,242.9819,179,246.9819,175,250.9819,171,246.9819" style="stroke:#B38D22;stroke-width:1.0;"/><text fill="#000000" font-family="sans-serif" font-size="11" lengthAdjust="spacing" textLength="213" x="184" y="252.7408">m_lastKnownClientQueueIndex: uint32_t</text><polygon fill="none" points="175,257.9638,179,261.9638,175,265.9638,171,261.9638" style="stroke:#B38D22;stroke-width:1.0;"/><text fill="#000000" font-family="sans-serif" font-size="11" lengthAdjust="spacing" textLength="206" x="184" y="267.7227">m_uniqueClientQueueId: cxx::UniqueId</text><polygon fill="none" points="175,272.9457,179,276.9457,175,280.9457,171,276.9457" style="stroke:#B38D22;stroke-width:1.0;"/><text fill="#000000" font-family="sans-serif" font-size="11" lengthAdjust="spacing" textLength="116" x="184" y="282.7046">m_sequenceId: int64_t</text><line style="stroke:#A80036;stroke-width:1.5;" x1="165" x2="898" y1="289.9276" y2="289.9276"/><ellipse cx="175" cy="300.9276" fill="#84BE84" rx="3" ry="3" style="stroke:#038048;stroke-width:1.0;"/><text fill="#000000" font-family="sans-serif" font-size="11" lengthAdjust="spacing" textLength="709" x="184" y="305.6865">RpcBaseHeader(uniqueClientQueueId: cxx::UniqueId, lastKnownQueueIndex: uint32_t, sequenceId: uint64_t, rpcHeaderVersion: uint8_t)</text><ellipse cx="175" cy="315.9094" fill="#84BE84" rx="3" ry="3" style="stroke:#038048;stroke-width:1.0;"/><text fill="#000000" font-family="sans-serif" font-size="11" lengthAdjust="spacing" textLength="162" x="184" y="320.6684">getRpcHeaderVersion(): uint8_t</text><ellipse cx="175" cy="330.8913" fill="#84BE84" rx="3" ry="3" style="stroke:#038048;stroke-width:1.0;"/><text fill="#000000" font-family="sans-serif" font-size="11" lengthAdjust="spacing" textLength="125" x="184" y="335.6502">getSequenceId(): int64_t</text><ellipse cx="175" cy="345.8732" fill="#84BE84" rx="3" ry="3" style="stroke:#038048;stroke-width:1.0;"/><text fill="#000000" font-family="sans-serif" font-size="11" lengthAdjust="spacing" textLength="179" x="184" y="350.6321">getChunkHeader(): ChunkHeader*</text><ellipse cx="175" cy="360.8551" fill="#84BE84" rx="3" ry="3" style="stroke:#038048;stroke-width:1.0;"/><text fill="#000000" font-family="sans-serif" font-size="11" lengthAdjust="spacing" textLength="124" x="184" y="365.614">getUserPayload(): void*</text><!--MD5=[6cc62d088b7a142a0ad16d78c666be36]
class RequestHeader--><rect codeLine="14" fill="#FEFECE" filter="url(#fp9dstwa0lof9)" height="122.9094" id="RequestHeader" style="stroke:#A80036;stroke-width:1.5;" width="477" x="7" y="7"/><ellipse cx="197.75" cy="23" fill="#ADD1B2" rx="11" ry="11" style="stroke:#A80036;stroke-width:1.0;"/><path d="M197.5469,29.7344 Q195.0625,29.7344 193.7344,28.0938 Q192.4219,26.4219 192.4219,23.3125 Q192.4219,20.1875 193.7344,18.5313 Q195.0625,16.875 197.5469,16.875 Q198.2656,16.875 198.9219,17.0313 Q199.5625,17.1875 200.125,17.4844 L200.125,20.2031 Q199.7656,19.8594 199.4688,19.6719 Q199.1719,19.4688 198.9063,19.3438 Q198.5938,19.2031 198.2813,19.1406 Q197.9844,19.0781 197.6719,19.0781 Q196.3438,19.0781 195.6563,20.1406 Q194.9688,21.2344 194.9688,23.3125 Q194.9688,25.4063 195.6563,26.4688 Q196.3438,27.5469 197.6719,27.5469 Q198.3125,27.5469 198.9063,27.2656 Q199.2031,27.1406 199.4844,26.9531 Q199.7813,26.75 200.125,26.4219 L200.125,29.1406 Q199.5469,29.4375 198.9063,29.5938 Q198.2813,29.7344 197.5469,29.7344 Z " fill="#000000"/><text fill="#000000" font-family="sans-serif" font-size="12" lengthAdjust="spacing" textLength="87" x="218.25" y="27.656">RequestHeader</text><line style="stroke:#A80036;stroke-width:1.5;" x1="8" x2="483" y1="39" y2="39"/><rect fill="none" height="6" style="stroke:#C82930;stroke-width:1.0;" width="6" x="15" y="47"/><text fill="#000000" font-family="sans-serif" font-size="11" lengthAdjust="spacing" textLength="129" x="27" y="54.7589">m_isFireAndForget: bool</text><line style="stroke:#A80036;stroke-width:1.5;" x1="8" x2="483" y1="61.9819" y2="61.9819"/><ellipse cx="18" cy="72.9819" fill="#84BE84" rx="3" ry="3" style="stroke:#038048;stroke-width:1.0;"/><text fill="#000000" font-family="sans-serif" font-size="11" lengthAdjust="spacing" textLength="451" x="27" y="77.7408">RequestHeader(uniqueClientQueueId: cxx::UniqueId, lastKnownQueueIndex: uint32_t)</text><ellipse cx="18" cy="87.9638" fill="#84BE84" rx="3" ry="3" style="stroke:#038048;stroke-width:1.0;"/><text fill="#000000" font-family="sans-serif" font-size="11" lengthAdjust="spacing" textLength="212" x="27" y="92.7227">setSequenceId(sequenceId: int64_t): void</text><ellipse cx="18" cy="102.9457" fill="#84BE84" rx="3" ry="3" style="stroke:#038048;stroke-width:1.0;"/><text fill="#000000" font-family="sans-serif" font-size="11" lengthAdjust="spacing" textLength="126" x="27" y="107.7046">setFireAndForget(): void</text><ellipse cx="18" cy="117.9276" fill="#84BE84" rx="3" ry="3" style="stroke:#038048;stroke-width:1.0;"/><text fill="#000000" font-family="sans-serif" font-size="11" lengthAdjust="spacing" textLength="120" x="27" y="122.6865">isFireAndForget(): bool</text><!--MD5=[5e52833216ce84db46124975cdba11dc]
class ResponseHeader--><rect codeLine="22" fill="#FEFECE" filter="url(#fp9dstwa0lof9)" height="107.9276" id="ResponseHeader" style="stroke:#A80036;stroke-width:1.5;" width="599" x="519" y="14.5"/><ellipse cx="766.25" cy="30.5" fill="#ADD1B2" rx="11" ry="11" style="stroke:#A80036;stroke-width:1.0;"/><path d="M766.0469,37.2344 Q763.5625,37.2344 762.2344,35.5938 Q760.9219,33.9219 760.9219,30.8125 Q760.9219,27.6875 762.2344,26.0313 Q763.5625,24.375 766.0469,24.375 Q766.7656,24.375 767.4219,24.5313 Q768.0625,24.6875 768.625,24.9844 L768.625,27.7031 Q768.2656,27.3594 767.9688,27.1719 Q767.6719,26.9688 767.4063,26.8438 Q767.0938,26.7031 766.7813,26.6406 Q766.4844,26.5781 766.1719,26.5781 Q764.8438,26.5781 764.1563,27.6406 Q763.4688,28.7344 763.4688,30.8125 Q763.4688,32.9063 764.1563,33.9688 Q764.8438,35.0469 766.1719,35.0469 Q766.8125,35.0469 767.4063,34.7656 Q767.7031,34.6406 767.9844,34.4531 Q768.2813,34.25 768.625,33.9219 L768.625,36.6406 Q768.0469,36.9375 767.4063,37.0938 Q766.7813,37.2344 766.0469,37.2344 Z " fill="#000000"/><text fill="#000000" font-family="sans-serif" font-size="12" lengthAdjust="spacing" textLength="96" x="786.75" y="35.156">ResponseHeader</text><line style="stroke:#A80036;stroke-width:1.5;" x1="520" x2="1117" y1="46.5" y2="46.5"/><rect fill="none" height="6" style="stroke:#C82930;stroke-width:1.0;" width="6" x="527" y="54.5"/><text fill="#000000" font-family="sans-serif" font-size="11" lengthAdjust="spacing" textLength="125" x="539" y="62.2589">m_hasServerError: bool</text><line style="stroke:#A80036;stroke-width:1.5;" x1="520" x2="1117" y1="69.4819" y2="69.4819"/><ellipse cx="530" cy="80.4819" fill="#84BE84" rx="3" ry="3" style="stroke:#038048;stroke-width:1.0;"/><text fill="#000000" font-family="sans-serif" font-size="11" lengthAdjust="spacing" textLength="573" x="539" y="85.2408">ResponseHeader(uniqueClientQueueId: cxx::UniqueId, lastKnownQueueIndex: uint32_t, sequenceId: uint64_t)</text><ellipse cx="530" cy="95.4638" fill="#84BE84" rx="3" ry="3" style="stroke:#038048;stroke-width:1.0;"/><text fill="#000000" font-family="sans-serif" font-size="11" lengthAdjust="spacing" textLength="112" x="539" y="100.2227">setServerError(): void</text><ellipse cx="530" cy="110.4457" fill="#84BE84" rx="3" ry="3" style="stroke:#038048;stroke-width:1.0;"/><text fill="#000000" font-family="sans-serif" font-size="11" lengthAdjust="spacing" textLength="116" x="539" y="115.2046">hasServerError(): bool</text><!--MD5=[1211e87899b0264a6108ab139b773bf5]
link RequestHeader to RpcBaseHeader--><path codeLine="29" d="M327.84,130.25 C351.81,147.93 378.56,167.67 404.6,186.88 " fill="none" id="RequestHeader-to-RpcBaseHeader" style="stroke:#A80036;stroke-width:1.0;"/><polygon fill="#A80036" points="408.77,189.95,403.8963,181.3916,404.7444,186.9845,399.1514,187.8326,408.77,189.95" style="stroke:#A80036;stroke-width:1.0;"/><!--MD5=[9d409bceee22cd6842596723dd5b07a3]
link ResponseHeader to RpcBaseHeader--><path codeLine="30" d="M746.08,122.74 C719.65,142.18 688.91,164.77 659.1,186.69 " fill="none" id="ResponseHeader-to-RpcBaseHeader" style="stroke:#A80036;stroke-width:1.0;"/><polygon fill="#A80036" points="654.71,189.92,664.3273,187.7968,658.7338,186.9521,659.5786,181.3586,654.71,189.92" style="stroke:#A80036;stroke-width:1.0;"/></g></svg>