<?xml version="1.0" encoding="UTF-8" standalone="no"?><svg xmlns="http://www.w3.org/2000/svg" xmlns:xlink="http://www.w3.org/1999/xlink" contentScriptType="application/ecmascript" contentStyleType="text/css" height="654px" preserveAspectRatio="none" style="width:794px;height:654px;background:#EEEBDC;" version="1.1" viewBox="0 0 794 654" width="794px" zoomAndPan="magnify"><defs><filter height="300%" id="fj19efss1tn3o" width="300%" x="-1" y="-1"><feGaussianBlur result="blurOut" stdDeviation="2.0"/><feColorMatrix in="blurOut" result="blurOut2" type="matrix" values="0 0 0 0 0 0 0 0 0 0 0 0 0 0 0 0 0 0 .4 0"/><feOffset dx="4.0" dy="4.0" in="blurOut2" result="blurOut3"/><feBlend in="SourceGraphic" in2="blurOut3" mode="normal"/></filter></defs><g><text fill="#000000" font-family="sans-serif" font-size="18" lengthAdjust="spacing" textLength="582" x="108.5" y="31.2419">Alternative D: Event-based notification between RouDi and User App</text><rect fill="#FFFFFF" filter="url(#fj19efss1tn3o)" height="174.8241" style="stroke:#A80036;stroke-width:1.0;" width="10" x="54" y="379.2319"/><rect fill="#FFFFFF" filter="url(#fj19efss1tn3o)" height="100.118" style="stroke:#A80036;stroke-width:1.0;" width="10" x="369" y="91.5838"/><rect fill="#FFFFFF" filter="url(#fj19efss1tn3o)" height="307.6481" style="stroke:#A80036;stroke-width:1.0;" width="10" x="369" y="276.1138"/><rect fill="#EEEBDC" filter="url(#fj19efss1tn3o)" height="219.2361" style="stroke:#000000;stroke-width:2.0;" width="426.5" x="10" y="327.8199"/><rect fill="#EEEBDC" filter="url(#fj19efss1tn3o)" height="96.118" style="stroke:#000000;stroke-width:2.0;" width="406.5" x="20" y="443.9379"/><line style="stroke:#A80036;stroke-width:1.0;stroke-dasharray:5.0,5.0;" x1="59" x2="59" y1="81.5838" y2="608.762"/><line style="stroke:#A80036;stroke-width:1.0;stroke-dasharray:5.0,5.0;" x1="373.5" x2="373.5" y1="81.5838" y2="608.762"/><line style="stroke:#A80036;stroke-width:1.0;stroke-dasharray:5.0,5.0;" x1="602.5" x2="602.5" y1="81.5838" y2="608.762"/><rect fill="#FEFECE" filter="url(#fj19efss1tn3o)" height="33.0679" style="stroke:#A80036;stroke-width:1.5;" width="54" x="30" y="43.5158"/><text fill="#000000" font-family="sans-serif" font-size="14" lengthAdjust="spacing" textLength="40" x="37" y="65.4818">RouDi</text><rect fill="#FEFECE" filter="url(#fj19efss1tn3o)" height="33.0679" style="stroke:#A80036;stroke-width:1.5;" width="54" x="30" y="607.762"/><text fill="#000000" font-family="sans-serif" font-size="14" lengthAdjust="spacing" textLength="40" x="37" y="629.7279">RouDi</text><rect fill="#FEFECE" filter="url(#fj19efss1tn3o)" height="33.0679" style="stroke:#A80036;stroke-width:1.5;" width="81" x="331.5" y="43.5158"/><text fill="#000000" font-family="sans-serif" font-size="14" lengthAdjust="spacing" textLength="67" x="338.5" y="65.4818">UserAppA</text><rect fill="#FEFECE" filter="url(#fj19efss1tn3o)" height="33.0679" style="stroke:#A80036;stroke-width:1.5;" width="81" x="331.5" y="607.762"/><text fill="#000000" font-family="sans-serif" font-size="14" lengthAdjust="spacing" textLength="67" x="338.5" y="629.7279">UserAppA</text><rect fill="#FEFECE" filter="url(#fj19efss1tn3o)" height="33.0679" style="stroke:#A80036;stroke-width:1.5;" width="81" x="560.5" y="43.5158"/><text fill="#000000" font-family="sans-serif" font-size="14" lengthAdjust="spacing" textLength="67" x="567.5" y="65.4818">UserAppB</text><rect fill="#FEFECE" filter="url(#fj19efss1tn3o)" height="33.0679" style="stroke:#A80036;stroke-width:1.5;" width="81" x="560.5" y="607.762"/><text fill="#000000" font-family="sans-serif" font-size="14" lengthAdjust="spacing" textLength="67" x="567.5" y="629.7279">UserAppB</text><rect fill="#FFFFFF" filter="url(#fj19efss1tn3o)" height="174.8241" style="stroke:#A80036;stroke-width:1.0;" width="10" x="54" y="379.2319"/><rect fill="#FFFFFF" filter="url(#fj19efss1tn3o)" height="100.118" style="stroke:#A80036;stroke-width:1.0;" width="10" x="369" y="91.5838"/><rect fill="#FFFFFF" filter="url(#fj19efss1tn3o)" height="307.6481" style="stroke:#A80036;stroke-width:1.0;" width="10" x="369" y="276.1138"/><line style="stroke:#A80036;stroke-width:1.0;" x1="379" x2="421" y1="115.2898" y2="115.2898"/><line style="stroke:#A80036;stroke-width:1.0;" x1="421" x2="421" y1="115.2898" y2="128.2898"/><line style="stroke:#A80036;stroke-width:1.0;" x1="380" x2="421" y1="128.2898" y2="128.2898"/><polygon fill="#A80036" points="390,124.2898,380,128.2898,390,132.2898,386,128.2898" style="stroke:#A80036;stroke-width:1.0;"/><text fill="#000000" font-family="sans-serif" font-size="13" lengthAdjust="spacing" textLength="178" x="386" y="109.4808">DiscoveryInfo::DiscoveryInfo()</text><polygon fill="#A80036" points="70,155.9958,60,159.9958,70,163.9958,66,159.9958" style="stroke:#A80036;stroke-width:1.0;"/><line style="stroke:#A80036;stroke-width:1.0;" x1="64" x2="368" y1="159.9958" y2="159.9958"/><text fill="#000000" font-family="sans-serif" font-size="13" lengthAdjust="spacing" textLength="286" x="76" y="154.1868">getMiddlewareSubscriber() / CREATE_Subscriber</text><polygon fill="#A80036" points="362,187.7018,372,191.7018,362,195.7018,366,191.7018" style="stroke:#A80036;stroke-width:1.0;"/><line style="stroke:#A80036;stroke-width:1.0;" x1="59" x2="368" y1="191.7018" y2="191.7018"/><text fill="#000000" font-family="sans-serif" font-size="13" lengthAdjust="spacing" textLength="156" x="66" y="185.8928">CREATE_SUBSCRIBER_ACK</text><line style="stroke:#A80036;stroke-width:1.0;" x1="374" x2="416" y1="223.4078" y2="223.4078"/><line style="stroke:#A80036;stroke-width:1.0;" x1="416" x2="416" y1="223.4078" y2="236.4078"/><line style="stroke:#A80036;stroke-width:1.0;" x1="375" x2="416" y1="236.4078" y2="236.4078"/><polygon fill="#A80036" points="385,232.4078,375,236.4078,385,240.4078,381,236.4078" style="stroke:#A80036;stroke-width:1.0;"/><text fill="#000000" font-family="sans-serif" font-size="13" lengthAdjust="spacing" textLength="215" x="381" y="217.5988">Listener::attachEvent(discoveryInfo)</text><line style="stroke:#A80036;stroke-width:1.0;" x1="374" x2="421" y1="263.1138" y2="263.1138"/><line style="stroke:#A80036;stroke-width:1.0;" x1="421" x2="421" y1="263.1138" y2="276.1138"/><line style="stroke:#A80036;stroke-width:1.0;" x1="380" x2="421" y1="276.1138" y2="276.1138"/><polygon fill="#A80036" points="390,272.1138,380,276.1138,390,280.1138,386,276.1138" style="stroke:#A80036;stroke-width:1.0;"/><text fill="#000000" font-family="sans-serif" font-size="13" lengthAdjust="spacing" textLength="87" x="386" y="257.3048">Listener::wait()</text><path d="M485,250.9078 L485,277.9078 L785,277.9078 L785,260.9078 L775,250.9078 L485,250.9078 " fill="#FBFB77" filter="url(#fj19efss1tn3o)" style="stroke:#A80036;stroke-width:1.0;"/><path d="M775,250.9078 L775,260.9078 L785,260.9078 L775,250.9078 " fill="#FBFB77" style="stroke:#A80036;stroke-width:1.0;"/><text fill="#000000" font-family="sans-serif" font-size="13" lengthAdjust="spacing" textLength="279" x="491" y="269.8048">Only react on CaproMessageSubType::SERVICE</text><polygon fill="#A80036" points="70,308.8199,60,312.8199,70,316.8199,66,312.8199" style="stroke:#A80036;stroke-width:1.0;"/><line style="stroke:#A80036;stroke-width:1.0;" x1="64" x2="602" y1="312.8199" y2="312.8199"/><text fill="#000000" font-family="sans-serif" font-size="13" lengthAdjust="spacing" textLength="36" x="76" y="307.0109">offer()</text><path d="M10,327.8199 L83,327.8199 L83,336.8199 L73,346.8199 L10,346.8199 L10,327.8199 " fill="#EEEEEE" style="stroke:#000000;stroke-width:1.0;"/><rect fill="none" height="219.2361" style="stroke:#000000;stroke-width:2.0;" width="426.5" x="10" y="327.8199"/><text fill="#000000" font-family="sans-serif" font-size="13" font-weight="bold" lengthAdjust="spacing" textLength="28" x="25" y="342.7169">loop</text><text fill="#000000" font-family="sans-serif" font-size="11" font-weight="bold" lengthAdjust="spacing" textLength="76" x="98" y="341.5788">[every 100ms]</text><line style="stroke:#A80036;stroke-width:1.0;" x1="59" x2="106" y1="366.2319" y2="366.2319"/><line style="stroke:#A80036;stroke-width:1.0;" x1="106" x2="106" y1="366.2319" y2="379.2319"/><line style="stroke:#A80036;stroke-width:1.0;" x1="65" x2="106" y1="379.2319" y2="379.2319"/><polygon fill="#A80036" points="75,375.2319,65,379.2319,75,383.2319,71,379.2319" style="stroke:#A80036;stroke-width:1.0;"/><text fill="#000000" font-family="sans-serif" font-size="13" lengthAdjust="spacing" textLength="82" x="71" y="360.4229">doDiscovery()</text><line style="stroke:#A80036;stroke-width:1.0;" x1="64" x2="106" y1="415.9379" y2="415.9379"/><line style="stroke:#A80036;stroke-width:1.0;" x1="106" x2="106" y1="415.9379" y2="428.9379"/><line style="stroke:#A80036;stroke-width:1.0;" x1="65" x2="106" y1="428.9379" y2="428.9379"/><polygon fill="#A80036" points="75,424.9379,65,428.9379,75,432.9379,71,428.9379" style="stroke:#A80036;stroke-width:1.0;"/><text fill="#000000" font-family="sans-serif" font-size="13" lengthAdjust="spacing" textLength="190" x="71" y="410.1289">doDiscoveryForPublisherPorts()</text><path d="M20,443.9379 L83,443.9379 L83,452.9379 L73,462.9379 L20,462.9379 L20,443.9379 " fill="#EEEEEE" style="stroke:#000000;stroke-width:1.0;"/><rect fill="none" height="96.118" style="stroke:#000000;stroke-width:2.0;" width="406.5" x="20" y="443.9379"/><text fill="#000000" font-family="sans-serif" font-size="13" font-weight="bold" lengthAdjust="spacing" textLength="18" x="35" y="458.8349">alt</text><text fill="#000000" font-family="sans-serif" font-size="11" font-weight="bold" lengthAdjust="spacing" textLength="140" x="98" y="457.6968">[CaproMessage received]</text><line style="stroke:#A80036;stroke-width:1.0;" x1="64" x2="106" y1="487.3499" y2="487.3499"/><line style="stroke:#A80036;stroke-width:1.0;" x1="106" x2="106" y1="487.3499" y2="500.3499"/><line style="stroke:#A80036;stroke-width:1.0;" x1="65" x2="106" y1="500.3499" y2="500.3499"/><polygon fill="#A80036" points="75,496.3499,65,500.3499,75,504.3499,71,500.3499" style="stroke:#A80036;stroke-width:1.0;"/><text fill="#000000" font-family="sans-serif" font-size="13" lengthAdjust="spacing" textLength="182" x="71" y="481.5409">sendToAllMatchingInterfaces()</text><polygon fill="#A80036" points="357,528.056,367,532.056,357,536.056,361,532.056" style="stroke:#A80036;stroke-width:1.0;"/><line style="stroke:#A80036;stroke-width:1.0;" x1="64" x2="363" y1="532.056" y2="532.056"/><text fill="#000000" font-family="sans-serif" font-size="13" lengthAdjust="spacing" textLength="175" x="71" y="526.247">publish(ServiceRegistryTopic)</text><line style="stroke:#A80036;stroke-width:1.0;" x1="379" x2="421" y1="582.762" y2="582.762"/><line style="stroke:#A80036;stroke-width:1.0;" x1="421" x2="421" y1="582.762" y2="595.762"/><line style="stroke:#A80036;stroke-width:1.0;" x1="374" x2="421" y1="595.762" y2="595.762"/><polygon fill="#A80036" points="384,591.762,374,595.762,384,599.762,380,595.762" style="stroke:#A80036;stroke-width:1.0;"/><text fill="#000000" font-family="sans-serif" font-size="13" lengthAdjust="spacing" textLength="172" x="386" y="576.953">wake up from Listener::wait()</text></g></svg>