<?xml version="1.0" encoding="UTF-8" standalone="no"?><svg xmlns="http://www.w3.org/2000/svg" xmlns:xlink="http://www.w3.org/1999/xlink" contentScriptType="application/ecmascript" contentStyleType="text/css" height="592px" preserveAspectRatio="none" style="width:1501px;height:592px;background:#EEEBDC;" version="1.1" viewBox="0 0 1501 592" width="1501px" zoomAndPan="magnify"><defs><filter height="300%" id="f1xu0k012stta6" width="300%" x="-1" y="-1"><feGaussianBlur result="blurOut" stdDeviation="2.0"/><feColorMatrix in="blurOut" result="blurOut2" type="matrix" values="0 0 0 0 0 0 0 0 0 0 0 0 0 0 0 0 0 0 .4 0"/><feOffset dx="4.0" dy="4.0" in="blurOut2" result="blurOut3"/><feBlend in="SourceGraphic" in2="blurOut3" mode="normal"/></filter></defs><g><!--MD5=[daf4dc8478f5ff517faba916b57c658d]
class ServerPortData--><rect codeLine="2" fill="#FEFECE" filter="url(#f1xu0k012stta6)" height="99.2188" id="ServerPortData" style="stroke:#A80036;stroke-width:1.5;" width="284" x="324" y="307"/><ellipse cx="413.75" cy="323" fill="#ADD1B2" rx="11" ry="11" style="stroke:#A80036;stroke-width:1.0;"/><path d="M416.7188,328.6406 Q416.1406,328.9375 415.5,329.0781 Q414.8594,329.2344 414.1563,329.2344 Q411.6563,329.2344 410.3281,327.5938 Q409.0156,325.9375 409.0156,322.8125 Q409.0156,319.6875 410.3281,318.0313 Q411.6563,316.375 414.1563,316.375 Q414.8594,316.375 415.5,316.5313 Q416.1563,316.6875 416.7188,316.9844 L416.7188,319.7031 Q416.0938,319.125 415.5,318.8594 Q414.9063,318.5781 414.2813,318.5781 Q412.9375,318.5781 412.25,319.6563 Q411.5625,320.7188 411.5625,322.8125 Q411.5625,324.9063 412.25,325.9844 Q412.9375,327.0469 414.2813,327.0469 Q414.9063,327.0469 415.5,326.7813 Q416.0938,326.5 416.7188,325.9219 L416.7188,328.6406 Z " fill="#000000"/><text fill="#000000" font-family="sans-serif" font-size="12" lengthAdjust="spacing" textLength="96" x="434.25" y="327.1543">ServerPortData</text><line style="stroke:#A80036;stroke-width:1.5;" x1="325" x2="607" y1="339" y2="339"/><text fill="#000000" font-family="sans-serif" font-size="11" lengthAdjust="spacing" textLength="258" x="330" y="353.2104">chunkSenderData: ServerChunkSenderData_t</text><text fill="#000000" font-family="sans-serif" font-size="11" lengthAdjust="spacing" textLength="272" x="330" y="366.0151">chunkReceiverData: ServerChunkReceiverData_t</text><text fill="#000000" font-family="sans-serif" font-size="11" lengthAdjust="spacing" textLength="192" x="330" y="378.8198">offeringRequested: atomic&lt;bool&gt;</text><text fill="#000000" font-family="sans-serif" font-size="11" lengthAdjust="spacing" textLength="129" x="330" y="391.6245">offered: atomic&lt;bool&gt;</text><line style="stroke:#A80036;stroke-width:1.5;" x1="325" x2="607" y1="398.2188" y2="398.2188"/><!--MD5=[a977e2280ecd61b001cea53511f34d4a]
class ServerRequestResult--><rect codeLine="10" fill="#FEFECE" filter="url(#f1xu0k012stta6)" height="99.2188" id="ServerRequestResult" style="stroke:#A80036;stroke-width:1.5;" width="343" x="960.5" y="77.5"/><ellipse cx="1062.25" cy="93.5" fill="#EB937F" rx="11" ry="11" style="stroke:#A80036;stroke-width:1.0;"/><path d="M1066.3594,99.5 L1058.6406,99.5 L1058.6406,87.1094 L1066.3594,87.1094 L1066.3594,89.2656 L1061.0938,89.2656 L1061.0938,91.9375 L1065.8594,91.9375 L1065.8594,94.0938 L1061.0938,94.0938 L1061.0938,97.3438 L1066.3594,97.3438 L1066.3594,99.5 Z " fill="#000000"/><text fill="#000000" font-family="sans-serif" font-size="12" lengthAdjust="spacing" textLength="131" x="1082.75" y="97.6543">ServerRequestResult</text><line style="stroke:#A80036;stroke-width:1.5;" x1="961.5" x2="1302.5" y1="109.5" y2="109.5"/><text fill="#000000" font-family="sans-serif" font-size="11" lengthAdjust="spacing" textLength="244" x="966.5" y="123.7104">TOO_MANY_REQUESTS_HELD_IN_PARALLEL,</text><text fill="#000000" font-family="sans-serif" font-size="11" lengthAdjust="spacing" textLength="144" x="966.5" y="136.5151">NO_PENDING_REQUESTS,</text><text fill="#000000" font-family="sans-serif" font-size="11" lengthAdjust="spacing" textLength="207" x="966.5" y="149.3198">UNDEFINED_CHUNK_RECEIVE_ERROR,</text><text fill="#000000" font-family="sans-serif" font-size="11" lengthAdjust="spacing" textLength="331" x="966.5" y="162.1245">NO_PENDING_REQUESTS_AND_SERVER_DOES_NOT_OFFER,</text><line style="stroke:#A80036;stroke-width:1.5;" x1="961.5" x2="1302.5" y1="168.7188" y2="168.7188"/><!--MD5=[2d524728b54e596a5e415e4258faf93a]
class ServerSendError--><rect codeLine="17" fill="#FEFECE" filter="url(#f1xu0k012stta6)" height="86.4141" id="ServerSendError" style="stroke:#A80036;stroke-width:1.5;" width="149" x="1338.5" y="84"/><ellipse cx="1359.8" cy="100" fill="#EB937F" rx="11" ry="11" style="stroke:#A80036;stroke-width:1.0;"/><path d="M1363.9094,106 L1356.1906,106 L1356.1906,93.6094 L1363.9094,93.6094 L1363.9094,95.7656 L1358.6438,95.7656 L1358.6438,98.4375 L1363.4094,98.4375 L1363.4094,100.5938 L1358.6438,100.5938 L1358.6438,103.8438 L1363.9094,103.8438 L1363.9094,106 Z " fill="#000000"/><text fill="#000000" font-family="sans-serif" font-size="12" lengthAdjust="spacing" textLength="103" x="1375.2" y="104.1543">ServerSendError</text><line style="stroke:#A80036;stroke-width:1.5;" x1="1339.5" x2="1486.5" y1="116" y2="116"/><text fill="#000000" font-family="sans-serif" font-size="11" lengthAdjust="spacing" textLength="84" x="1344.5" y="130.2104">NOT_OFFERED,</text><text fill="#000000" font-family="sans-serif" font-size="11" lengthAdjust="spacing" textLength="137" x="1344.5" y="143.0151">CLIENT_NOT_AVAILABLE,</text><text fill="#000000" font-family="sans-serif" font-size="11" lengthAdjust="spacing" textLength="113" x="1344.5" y="155.8198">INVALID_RESPONSE,</text><line style="stroke:#A80036;stroke-width:1.5;" x1="1339.5" x2="1486.5" y1="162.4141" y2="162.4141"/><!--MD5=[57d9931a6973ef884f15a41ba7bb7c60]
class ServerPortUser--><rect codeLine="23" fill="#FEFECE" filter="url(#f1xu0k012stta6)" height="240.0703" id="ServerPortUser" style="stroke:#A80036;stroke-width:1.5;" width="918" x="7" y="7"/><ellipse cx="414.25" cy="23" fill="#ADD1B2" rx="11" ry="11" style="stroke:#A80036;stroke-width:1.0;"/><path d="M417.2188,28.6406 Q416.6406,28.9375 416,29.0781 Q415.3594,29.2344 414.6563,29.2344 Q412.1563,29.2344 410.8281,27.5938 Q409.5156,25.9375 409.5156,22.8125 Q409.5156,19.6875 410.8281,18.0313 Q412.1563,16.375 414.6563,16.375 Q415.3594,16.375 416,16.5313 Q416.6563,16.6875 417.2188,16.9844 L417.2188,19.7031 Q416.5938,19.125 416,18.8594 Q415.4063,18.5781 414.7813,18.5781 Q413.4375,18.5781 412.75,19.6563 Q412.0625,20.7188 412.0625,22.8125 Q412.0625,24.9063 412.75,25.9844 Q413.4375,27.0469 414.7813,27.0469 Q415.4063,27.0469 416,26.7813 Q416.5938,26.5 417.2188,25.9219 L417.2188,28.6406 Z " fill="#000000"/><text fill="#000000" font-family="sans-serif" font-size="12" lengthAdjust="spacing" textLength="95" x="434.75" y="27.1543">ServerPortUser</text><line style="stroke:#A80036;stroke-width:1.5;" x1="8" x2="924" y1="39" y2="39"/><text fill="#000000" font-family="sans-serif" font-size="11" lengthAdjust="spacing" textLength="162" x="13" y="53.2104">unsetConditionVariable: void</text><line style="stroke:#A80036;stroke-width:1.5;" x1="8" x2="924" y1="59.8047" y2="59.8047"/><text fill="#000000" font-family="sans-serif" font-size="11" lengthAdjust="spacing" textLength="66" x="13" y="74.0151">offer(): void</text><text fill="#000000" font-family="sans-serif" font-size="11" lengthAdjust="spacing" textLength="93" x="13" y="86.8198">stopOffer(): void</text><text fill="#000000" font-family="sans-serif" font-size="11" lengthAdjust="spacing" textLength="93" x="13" y="99.6245">isOffered(): bool</text><text fill="#000000" font-family="sans-serif" font-size="11" lengthAdjust="spacing" textLength="100" x="13" y="112.4292">hasClients(): bool</text><text fill="#000000" font-family="sans-serif" font-size="11" lengthAdjust="spacing" textLength="404" x="13" y="125.2339">getRequest(): expected&lt;const RequestHeader*, ServerRequestResult&gt;</text><text fill="#000000" font-family="sans-serif" font-size="11" lengthAdjust="spacing" textLength="349" x="13" y="138.0386">releaseRequest(requestHeader: const RequestHeader*): void</text><text fill="#000000" font-family="sans-serif" font-size="11" lengthAdjust="spacing" textLength="179" x="13" y="150.8433">releaseQueuedRequests(): void</text><text fill="#000000" font-family="sans-serif" font-size="11" lengthAdjust="spacing" textLength="138" x="13" y="163.6479">hasNewRequests(): bool</text><text fill="#000000" font-family="sans-serif" font-size="11" lengthAdjust="spacing" textLength="214" x="13" y="176.4526">hasLostRequestsSinceLastCall(): bool</text><text fill="#000000" font-family="sans-serif" font-size="11" lengthAdjust="spacing" textLength="906" x="13" y="189.2573">allocateResponse(requestHeader: RequestHeader*, userPayloadSize: uint32_t, userPayloadAlignment: uint32_t): expected&lt;ResponseHeader*, AllocationError&gt;</text><text fill="#000000" font-family="sans-serif" font-size="11" lengthAdjust="spacing" textLength="471" x="13" y="202.062">sendResponse(responseHeader: ResponseHeader*): expected&lt;ServerSendError&gt;</text><text fill="#000000" font-family="sans-serif" font-size="11" lengthAdjust="spacing" textLength="379" x="13" y="214.8667">releaseResponse(responseHeader: const ResponseHeader*): void</text><text fill="#000000" font-family="sans-serif" font-size="11" lengthAdjust="spacing" textLength="575" x="13" y="227.6714">setConditionVariable(conditionVariableData: ConditionVariableData&amp;, notificationIndex: uint64_t): void</text><text fill="#000000" font-family="sans-serif" font-size="11" lengthAdjust="spacing" textLength="168" x="13" y="240.4761">isConditionVariableSet(): bool</text><!--MD5=[99e70ca6bb6308bc6f0b9f96d720bf14]
class ServerPortRouDi--><rect codeLine="41" fill="#FEFECE" filter="url(#f1xu0k012stta6)" height="112.0234" id="ServerPortRouDi" style="stroke:#A80036;stroke-width:1.5;" width="679" x="126.5" y="466"/><ellipse cx="410.75" cy="482" fill="#ADD1B2" rx="11" ry="11" style="stroke:#A80036;stroke-width:1.0;"/><path d="M413.7188,487.6406 Q413.1406,487.9375 412.5,488.0781 Q411.8594,488.2344 411.1563,488.2344 Q408.6563,488.2344 407.3281,486.5938 Q406.0156,484.9375 406.0156,481.8125 Q406.0156,478.6875 407.3281,477.0313 Q408.6563,475.375 411.1563,475.375 Q411.8594,475.375 412.5,475.5313 Q413.1563,475.6875 413.7188,475.9844 L413.7188,478.7031 Q413.0938,478.125 412.5,477.8594 Q411.9063,477.5781 411.2813,477.5781 Q409.9375,477.5781 409.25,478.6563 Q408.5625,479.7188 408.5625,481.8125 Q408.5625,483.9063 409.25,484.9844 Q409.9375,486.0469 411.2813,486.0469 Q411.9063,486.0469 412.5,485.7813 Q413.0938,485.5 413.7188,484.9219 L413.7188,487.6406 Z " fill="#000000"/><text fill="#000000" font-family="sans-serif" font-size="12" lengthAdjust="spacing" textLength="102" x="431.25" y="486.1543">ServerPortRouDi</text><line style="stroke:#A80036;stroke-width:1.5;" x1="127.5" x2="804.5" y1="498" y2="498"/><line style="stroke:#A80036;stroke-width:1.5;" x1="127.5" x2="804.5" y1="506" y2="506"/><text fill="#000000" font-family="sans-serif" font-size="11" lengthAdjust="spacing" textLength="284" x="132.5" y="520.2104">tryGetCaProMessage(): optional&lt;CaProMessage&gt;</text><text fill="#000000" font-family="sans-serif" font-size="11" lengthAdjust="spacing" textLength="667" x="132.5" y="533.0151">dispatchCaProMessageAndGetPossibleResponse(caProMessage: const CaProMessage &amp;): optional&lt;CaProMessage&gt;</text><text fill="#000000" font-family="sans-serif" font-size="11" lengthAdjust="spacing" textLength="137" x="132.5" y="545.8198">releaseAllChunks(): void</text><text fill="#000000" font-family="sans-serif" font-size="11" lengthAdjust="spacing" textLength="256" x="132.5" y="558.6245">getRequestQueueFullPolicy(): QueueFullPolicy</text><text fill="#000000" font-family="sans-serif" font-size="11" lengthAdjust="spacing" textLength="285" x="132.5" y="571.4292">getClientTooSlowPolicy(): ConsumerTooSlowPolicy</text><!--MD5=[150dbe2ea2c87a40d47eb3f59f3cc076]
reverse link ServerPortUser to ServerPortData--><path codeLine="49" d="M466,260.42 C466,276.95 466,292.93 466,306.93 " fill="none" id="ServerPortUser-backto-ServerPortData" style="stroke:#A80036;stroke-width:1.0;"/><polygon fill="#EEEBDC" points="466,247.08,462,253.08,466,259.08,470,253.08,466,247.08" style="stroke:#A80036;stroke-width:1.0;"/><!--MD5=[77f2c4f822f9a02acd697a117f190e81]
link ServerPortData to ServerPortRouDi--><path codeLine="50" d="M466,406.11 C466,420.67 466,436.92 466,452.51 " fill="none" id="ServerPortData-to-ServerPortRouDi" style="stroke:#A80036;stroke-width:1.0;"/><polygon fill="#EEEBDC" points="466,465.98,470,459.98,466,453.98,462,459.98,466,465.98" style="stroke:#A80036;stroke-width:1.0;"/></g></svg>