<?xml version="1.0" encoding="UTF-8" standalone="no"?><svg xmlns="http://www.w3.org/2000/svg" xmlns:xlink="http://www.w3.org/1999/xlink" contentScriptType="application/ecmascript" contentStyleType="text/css" height="644px" preserveAspectRatio="none" style="width:1386px;height:644px;background:#EEEBDC;" version="1.1" viewBox="0 0 1386 644" width="1386px" zoomAndPan="magnify"><defs><filter height="300%" id="f1xu0k012stta6" width="300%" x="-1" y="-1"><feGaussianBlur result="blurOut" stdDeviation="2.0"/><feColorMatrix in="blurOut" result="blurOut2" type="matrix" values="0 0 0 0 0 0 0 0 0 0 0 0 0 0 0 0 0 0 .4 0"/><feOffset dx="4.0" dy="4.0" in="blurOut2" result="blurOut3"/><feBlend in="SourceGraphic" in2="blurOut3" mode="normal"/></filter></defs><g><!--MD5=[daf4dc8478f5ff517faba916b57c658d]
class ServerPortData--><rect codeLine="2" fill="#FEFECE" filter="url(#f1xu0k012stta6)" height="107.9276" id="ServerPortData" style="stroke:#A80036;stroke-width:1.5;" width="263" x="293" y="340"/><ellipse cx="376.75" cy="356" fill="#ADD1B2" rx="11" ry="11" style="stroke:#A80036;stroke-width:1.0;"/><path d="M376.5469,362.7344 Q374.0625,362.7344 372.7344,361.0938 Q371.4219,359.4219 371.4219,356.3125 Q371.4219,353.1875 372.7344,351.5313 Q374.0625,349.875 376.5469,349.875 Q377.2656,349.875 377.9219,350.0313 Q378.5625,350.1875 379.125,350.4844 L379.125,353.2031 Q378.7656,352.8594 378.4688,352.6719 Q378.1719,352.4688 377.9063,352.3438 Q377.5938,352.2031 377.2813,352.1406 Q376.9844,352.0781 376.6719,352.0781 Q375.3438,352.0781 374.6563,353.1406 Q373.9688,354.2344 373.9688,356.3125 Q373.9688,358.4063 374.6563,359.4688 Q375.3438,360.5469 376.6719,360.5469 Q377.3125,360.5469 377.9063,360.2656 Q378.2031,360.1406 378.4844,359.9531 Q378.7813,359.75 379.125,359.4219 L379.125,362.1406 Q378.5469,362.4375 377.9063,362.5938 Q377.2813,362.7344 376.5469,362.7344 Z " fill="#000000"/><text fill="#000000" font-family="sans-serif" font-size="12" lengthAdjust="spacing" textLength="87" x="397.25" y="360.656">ServerPortData</text><line style="stroke:#A80036;stroke-width:1.5;" x1="294" x2="555" y1="372" y2="372"/><text fill="#000000" font-family="sans-serif" font-size="11" lengthAdjust="spacing" textLength="237" x="299" y="387.7589">chunkSenderData: ServerChunkSenderData_t</text><text fill="#000000" font-family="sans-serif" font-size="11" lengthAdjust="spacing" textLength="251" x="299" y="402.7408">chunkReceiverData: ServerChunkReceiverData_t</text><text fill="#000000" font-family="sans-serif" font-size="11" lengthAdjust="spacing" textLength="175" x="299" y="417.7227">offeringRequested: atomic&lt;bool&gt;</text><text fill="#000000" font-family="sans-serif" font-size="11" lengthAdjust="spacing" textLength="116" x="299" y="432.7046">offered: atomic&lt;bool&gt;</text><line style="stroke:#A80036;stroke-width:1.5;" x1="294" x2="555" y1="439.9276" y2="439.9276"/><!--MD5=[a977e2280ecd61b001cea53511f34d4a]
class ServerRequestResult--><rect codeLine="10" fill="#FEFECE" filter="url(#f1xu0k012stta6)" height="107.9276" id="ServerRequestResult" style="stroke:#A80036;stroke-width:1.5;" width="318" x="877.5" y="89.5"/><ellipse cx="974.25" cy="105.5" fill="#EB937F" rx="11" ry="11" style="stroke:#A80036;stroke-width:1.0;"/><path d="M970.6406,99.6094 L978.3594,99.6094 L978.3594,101.7656 L973.0938,101.7656 L973.0938,104.4375 L977.8594,104.4375 L977.8594,106.5938 L973.0938,106.5938 L973.0938,109.8438 L978.3594,109.8438 L978.3594,112 L970.6406,112 L970.6406,99.6094 Z " fill="#000000"/><text fill="#000000" font-family="sans-serif" font-size="12" lengthAdjust="spacing" textLength="116" x="994.75" y="110.156">ServerRequestResult</text><line style="stroke:#A80036;stroke-width:1.5;" x1="878.5" x2="1194.5" y1="121.5" y2="121.5"/><text fill="#000000" font-family="sans-serif" font-size="11" lengthAdjust="spacing" textLength="229" x="883.5" y="137.2589">TOO_MANY_REQUESTS_HELD_IN_PARALLEL,</text><text fill="#000000" font-family="sans-serif" font-size="11" lengthAdjust="spacing" textLength="133" x="883.5" y="152.2408">NO_PENDING_REQUESTS,</text><text fill="#000000" font-family="sans-serif" font-size="11" lengthAdjust="spacing" textLength="197" x="883.5" y="167.2227">UNDEFINED_CHUNK_RECEIVE_ERROR,</text><text fill="#000000" font-family="sans-serif" font-size="11" lengthAdjust="spacing" textLength="306" x="883.5" y="182.2046">NO_PENDING_REQUESTS_AND_SERVER_DOES_NOT_OFFER,</text><line style="stroke:#A80036;stroke-width:1.5;" x1="878.5" x2="1194.5" y1="189.4276" y2="189.4276"/><!--MD5=[2d524728b54e596a5e415e4258faf93a]
class ServerSendError--><rect codeLine="17" fill="#FEFECE" filter="url(#f1xu0k012stta6)" height="92.9457" id="ServerSendError" style="stroke:#A80036;stroke-width:1.5;" width="142" x="1230.5" y="97"/><ellipse cx="1252.7" cy="113" fill="#EB937F" rx="11" ry="11" style="stroke:#A80036;stroke-width:1.0;"/><path d="M1249.0906,107.1094 L1256.8094,107.1094 L1256.8094,109.2656 L1251.5438,109.2656 L1251.5438,111.9375 L1256.3094,111.9375 L1256.3094,114.0938 L1251.5438,114.0938 L1251.5438,117.3438 L1256.8094,117.3438 L1256.8094,119.5 L1249.0906,119.5 L1249.0906,107.1094 Z " fill="#000000"/><text fill="#000000" font-family="sans-serif" font-size="12" lengthAdjust="spacing" textLength="94" x="1268.3" y="117.656">ServerSendError</text><line style="stroke:#A80036;stroke-width:1.5;" x1="1231.5" x2="1371.5" y1="129" y2="129"/><text fill="#000000" font-family="sans-serif" font-size="11" lengthAdjust="spacing" textLength="79" x="1236.5" y="144.7589">NOT_OFFERED,</text><text fill="#000000" font-family="sans-serif" font-size="11" lengthAdjust="spacing" textLength="130" x="1236.5" y="159.7408">CLIENT_NOT_AVAILABLE,</text><text fill="#000000" font-family="sans-serif" font-size="11" lengthAdjust="spacing" textLength="107" x="1236.5" y="174.7227">INVALID_RESPONSE,</text><line style="stroke:#A80036;stroke-width:1.5;" x1="1231.5" x2="1371.5" y1="181.9457" y2="181.9457"/><!--MD5=[57d9931a6973ef884f15a41ba7bb7c60]
class ServerPortUser--><rect codeLine="23" fill="#FEFECE" filter="url(#f1xu0k012stta6)" height="272.7283" id="ServerPortUser" style="stroke:#A80036;stroke-width:1.5;" width="835" x="7" y="7"/><ellipse cx="376.75" cy="23" fill="#ADD1B2" rx="11" ry="11" style="stroke:#A80036;stroke-width:1.0;"/><path d="M376.5469,29.7344 Q374.0625,29.7344 372.7344,28.0938 Q371.4219,26.4219 371.4219,23.3125 Q371.4219,20.1875 372.7344,18.5313 Q374.0625,16.875 376.5469,16.875 Q377.2656,16.875 377.9219,17.0313 Q378.5625,17.1875 379.125,17.4844 L379.125,20.2031 Q378.7656,19.8594 378.4688,19.6719 Q378.1719,19.4688 377.9063,19.3438 Q377.5938,19.2031 377.2813,19.1406 Q376.9844,19.0781 376.6719,19.0781 Q375.3438,19.0781 374.6563,20.1406 Q373.9688,21.2344 373.9688,23.3125 Q373.9688,25.4063 374.6563,26.4688 Q375.3438,27.5469 376.6719,27.5469 Q377.3125,27.5469 377.9063,27.2656 Q378.2031,27.1406 378.4844,26.9531 Q378.7813,26.75 379.125,26.4219 L379.125,29.1406 Q378.5469,29.4375 377.9063,29.5938 Q377.2813,29.7344 376.5469,29.7344 Z " fill="#000000"/><text fill="#000000" font-family="sans-serif" font-size="12" lengthAdjust="spacing" textLength="87" x="397.25" y="27.656">ServerPortUser</text><line style="stroke:#A80036;stroke-width:1.5;" x1="8" x2="841" y1="39" y2="39"/><text fill="#000000" font-family="sans-serif" font-size="11" lengthAdjust="spacing" textLength="153" x="13" y="54.7589">unsetConditionVariable: void</text><line style="stroke:#A80036;stroke-width:1.5;" x1="8" x2="841" y1="61.9819" y2="61.9819"/><text fill="#000000" font-family="sans-serif" font-size="11" lengthAdjust="spacing" textLength="61" x="13" y="77.7408">offer(): void</text><text fill="#000000" font-family="sans-serif" font-size="11" lengthAdjust="spacing" textLength="86" x="13" y="92.7227">stopOffer(): void</text><text fill="#000000" font-family="sans-serif" font-size="11" lengthAdjust="spacing" textLength="85" x="13" y="107.7046">isOffered(): bool</text><text fill="#000000" font-family="sans-serif" font-size="11" lengthAdjust="spacing" textLength="89" x="13" y="122.6865">hasClients(): bool</text><text fill="#000000" font-family="sans-serif" font-size="11" lengthAdjust="spacing" textLength="361" x="13" y="137.6684">getRequest(): expected&lt;const RequestHeader*, ServerRequestResult&gt;</text><text fill="#000000" font-family="sans-serif" font-size="11" lengthAdjust="spacing" textLength="315" x="13" y="152.6502">releaseRequest(requestHeader: const RequestHeader*): void</text><text fill="#000000" font-family="sans-serif" font-size="11" lengthAdjust="spacing" textLength="161" x="13" y="167.6321">releaseQueuedRequests(): void</text><text fill="#000000" font-family="sans-serif" font-size="11" lengthAdjust="spacing" textLength="124" x="13" y="182.614">hasNewRequests(): bool</text><text fill="#000000" font-family="sans-serif" font-size="11" lengthAdjust="spacing" textLength="190" x="13" y="197.5959">hasLostRequestsSinceLastCall(): bool</text><text fill="#000000" font-family="sans-serif" font-size="11" lengthAdjust="spacing" textLength="823" x="13" y="212.5778">allocateResponse(requestHeader: RequestHeader*, userPayloadSize: uint32_t, userPayloadAlignment: uint32_t): expected&lt;ResponseHeader*, AllocationError&gt;</text><text fill="#000000" font-family="sans-serif" font-size="11" lengthAdjust="spacing" textLength="420" x="13" y="227.5597">sendResponse(responseHeader: ResponseHeader*): expected&lt;ServerSendError&gt;</text><text fill="#000000" font-family="sans-serif" font-size="11" lengthAdjust="spacing" textLength="339" x="13" y="242.5416">releaseResponse(responseHeader: const ResponseHeader*): void</text><text fill="#000000" font-family="sans-serif" font-size="11" lengthAdjust="spacing" textLength="539" x="13" y="257.5235">setConditionVariable(conditionVariableData: ConditionVariableData&amp;, notificationIndex: uint64_t): void</text><text fill="#000000" font-family="sans-serif" font-size="11" lengthAdjust="spacing" textLength="155" x="13" y="272.5053">isConditionVariableSet(): bool</text><!--MD5=[99e70ca6bb6308bc6f0b9f96d720bf14]
class ServerPortRouDi--><rect codeLine="41" fill="#FEFECE" filter="url(#f1xu0k012stta6)" height="122.9094" id="ServerPortRouDi" style="stroke:#A80036;stroke-width:1.5;" width="610" x="119.5" y="508"/><ellipse cx="373.75" cy="524" fill="#ADD1B2" rx="11" ry="11" style="stroke:#A80036;stroke-width:1.0;"/><path d="M373.5469,530.7344 Q371.0625,530.7344 369.7344,529.0938 Q368.4219,527.4219 368.4219,524.3125 Q368.4219,521.1875 369.7344,519.5313 Q371.0625,517.875 373.5469,517.875 Q374.2656,517.875 374.9219,518.0313 Q375.5625,518.1875 376.125,518.4844 L376.125,521.2031 Q375.7656,520.8594 375.4688,520.6719 Q375.1719,520.4688 374.9063,520.3438 Q374.5938,520.2031 374.2813,520.1406 Q373.9844,520.0781 373.6719,520.0781 Q372.3438,520.0781 371.6563,521.1406 Q370.9688,522.2344 370.9688,524.3125 Q370.9688,526.4063 371.6563,527.4688 Q372.3438,528.5469 373.6719,528.5469 Q374.3125,528.5469 374.9063,528.2656 Q375.2031,528.1406 375.4844,527.9531 Q375.7813,527.75 376.125,527.4219 L376.125,530.1406 Q375.5469,530.4375 374.9063,530.5938 Q374.2813,530.7344 373.5469,530.7344 Z " fill="#000000"/><text fill="#000000" font-family="sans-serif" font-size="12" lengthAdjust="spacing" textLength="93" x="394.25" y="528.656">ServerPortRouDi</text><line style="stroke:#A80036;stroke-width:1.5;" x1="120.5" x2="728.5" y1="540" y2="540"/><line style="stroke:#A80036;stroke-width:1.5;" x1="120.5" x2="728.5" y1="548" y2="548"/><text fill="#000000" font-family="sans-serif" font-size="11" lengthAdjust="spacing" textLength="255" x="125.5" y="563.7589">tryGetCaProMessage(): optional&lt;CaProMessage&gt;</text><text fill="#000000" font-family="sans-serif" font-size="11" lengthAdjust="spacing" textLength="598" x="125.5" y="578.7408">dispatchCaProMessageAndGetPossibleResponse(caProMessage: const CaProMessage &amp;): optional&lt;CaProMessage&gt;</text><text fill="#000000" font-family="sans-serif" font-size="11" lengthAdjust="spacing" textLength="124" x="125.5" y="593.7227">releaseAllChunks(): void</text><text fill="#000000" font-family="sans-serif" font-size="11" lengthAdjust="spacing" textLength="241" x="125.5" y="608.7046">getRequestQueueFullPolicy(): QueueFullPolicy</text><text fill="#000000" font-family="sans-serif" font-size="11" lengthAdjust="spacing" textLength="265" x="125.5" y="623.6865">getClientTooSlowPolicy(): ConsumerTooSlowPolicy</text><!--MD5=[150dbe2ea2c87a40d47eb3f59f3cc076]
reverse link ServerPortUser to ServerPortData--><path codeLine="49" d="M424.5,293.38 C424.5,309.9 424.5,325.82 424.5,339.9 " fill="none" id="ServerPortUser-backto-ServerPortData" style="stroke:#A80036;stroke-width:1.0;"/><polygon fill="#EEEBDC" points="424.5,280.02,420.5,286.02,424.5,292.02,428.5,286.02,424.5,280.02" style="stroke:#A80036;stroke-width:1.0;"/><!--MD5=[77f2c4f822f9a02acd697a117f190e81]
link ServerPortData to ServerPortRouDi--><path codeLine="50" d="M424.5,448.47 C424.5,463.03 424.5,479.05 424.5,494.53 " fill="none" id="ServerPortData-to-ServerPortRouDi" style="stroke:#A80036;stroke-width:1.0;"/><polygon fill="#EEEBDC" points="424.5,507.93,428.5,501.93,424.5,495.93,420.5,501.93,424.5,507.93" style="stroke:#A80036;stroke-width:1.0;"/></g></svg>