<?xml version="1.0" encoding="UTF-8" standalone="no"?><svg xmlns="http://www.w3.org/2000/svg" xmlns:xlink="http://www.w3.org/1999/xlink" contentScriptType="application/ecmascript" contentStyleType="text/css" height="599px" preserveAspectRatio="none" style="width:1209px;height:599px;background:#EEEBDC;" version="1.1" viewBox="0 0 1209 599" width="1209px" zoomAndPan="magnify"><defs><filter height="300%" id="f1rmy4q7rk7t4s" width="300%" x="-1" y="-1"><feGaussianBlur result="blurOut" stdDeviation="2.0"/><feColorMatrix in="blurOut" result="blurOut2" type="matrix" values="0 0 0 0 0 0 0 0 0 0 0 0 0 0 0 0 0 0 .4 0"/><feOffset dx="4.0" dy="4.0" in="blurOut2" result="blurOut3"/><feBlend in="SourceGraphic" in2="blurOut3" mode="normal"/></filter></defs><g><!--MD5=[daf4dc8478f5ff517faba916b57c658d]
class ServerPortData--><rect codeLine="2" fill="#FEFECE" filter="url(#f1rmy4q7rk7t4s)" height="107.9276" id="ServerPortData" style="stroke:#A80036;stroke-width:1.5;" width="220" x="314.5" y="325"/><ellipse cx="376.75" cy="341" fill="#ADD1B2" rx="11" ry="11" style="stroke:#A80036;stroke-width:1.0;"/><path d="M376.5469,347.7344 Q374.0625,347.7344 372.7344,346.0938 Q371.4219,344.4219 371.4219,341.3125 Q371.4219,338.1875 372.7344,336.5313 Q374.0625,334.875 376.5469,334.875 Q377.2656,334.875 377.9219,335.0313 Q378.5625,335.1875 379.125,335.4844 L379.125,338.2031 Q378.7656,337.8594 378.4688,337.6719 Q378.1719,337.4688 377.9063,337.3438 Q377.5938,337.2031 377.2813,337.1406 Q376.9844,337.0781 376.6719,337.0781 Q375.3438,337.0781 374.6563,338.1406 Q373.9688,339.2344 373.9688,341.3125 Q373.9688,343.4063 374.6563,344.4688 Q375.3438,345.5469 376.6719,345.5469 Q377.3125,345.5469 377.9063,345.2656 Q378.2031,345.1406 378.4844,344.9531 Q378.7813,344.75 379.125,344.4219 L379.125,347.1406 Q378.5469,347.4375 377.9063,347.5938 Q377.2813,347.7344 376.5469,347.7344 Z " fill="#000000"/><text fill="#000000" font-family="sans-serif" font-size="12" lengthAdjust="spacing" textLength="87" x="397.25" y="345.656">ServerPortData</text><line style="stroke:#A80036;stroke-width:1.5;" x1="315.5" x2="533.5" y1="357" y2="357"/><text fill="#000000" font-family="sans-serif" font-size="11" lengthAdjust="spacing" textLength="194" x="320.5" y="372.7589">chunkSenderData: ChunkSenderData</text><text fill="#000000" font-family="sans-serif" font-size="11" lengthAdjust="spacing" textLength="208" x="320.5" y="387.7408">chunkReceiverData: ChunkReceiverData</text><text fill="#000000" font-family="sans-serif" font-size="11" lengthAdjust="spacing" textLength="175" x="320.5" y="402.7227">offeringRequested: atomic&lt;bool&gt;</text><text fill="#000000" font-family="sans-serif" font-size="11" lengthAdjust="spacing" textLength="116" x="320.5" y="417.7046">offered: atomic&lt;bool&gt;</text><line style="stroke:#A80036;stroke-width:1.5;" x1="315.5" x2="533.5" y1="424.9276" y2="424.9276"/><!--MD5=[a977e2280ecd61b001cea53511f34d4a]
class ServerRequestResult--><rect codeLine="10" fill="#FEFECE" filter="url(#f1rmy4q7rk7t4s)" height="107.9276" id="ServerRequestResult" style="stroke:#A80036;stroke-width:1.5;" width="318" x="877.5" y="82"/><ellipse cx="974.25" cy="98" fill="#EB937F" rx="11" ry="11" style="stroke:#A80036;stroke-width:1.0;"/><path d="M970.6406,92.1094 L978.3594,92.1094 L978.3594,94.2656 L973.0938,94.2656 L973.0938,96.9375 L977.8594,96.9375 L977.8594,99.0938 L973.0938,99.0938 L973.0938,102.3438 L978.3594,102.3438 L978.3594,104.5 L970.6406,104.5 L970.6406,92.1094 Z " fill="#000000"/><text fill="#000000" font-family="sans-serif" font-size="12" lengthAdjust="spacing" textLength="116" x="994.75" y="102.656">ServerRequestResult</text><line style="stroke:#A80036;stroke-width:1.5;" x1="878.5" x2="1194.5" y1="114" y2="114"/><text fill="#000000" font-family="sans-serif" font-size="11" lengthAdjust="spacing" textLength="229" x="883.5" y="129.7589">TOO_MANY_REQUESTS_HELD_IN_PARALLEL,</text><text fill="#000000" font-family="sans-serif" font-size="11" lengthAdjust="spacing" textLength="133" x="883.5" y="144.7408">NO_PENDING_REQUESTS,</text><text fill="#000000" font-family="sans-serif" font-size="11" lengthAdjust="spacing" textLength="197" x="883.5" y="159.7227">UNDEFINED_CHUNK_RECEIVE_ERROR,</text><text fill="#000000" font-family="sans-serif" font-size="11" lengthAdjust="spacing" textLength="306" x="883.5" y="174.7046">NO_PENDING_REQUESTS_AND_SERVER_DOES_NOT_OFFER,</text><line style="stroke:#A80036;stroke-width:1.5;" x1="878.5" x2="1194.5" y1="181.9276" y2="181.9276"/><!--MD5=[57d9931a6973ef884f15a41ba7bb7c60]
class ServerPortUser--><rect codeLine="17" fill="#FEFECE" filter="url(#f1rmy4q7rk7t4s)" height="257.7464" id="ServerPortUser" style="stroke:#A80036;stroke-width:1.5;" width="835" x="7" y="7"/><ellipse cx="376.75" cy="23" fill="#ADD1B2" rx="11" ry="11" style="stroke:#A80036;stroke-width:1.0;"/><path d="M376.5469,29.7344 Q374.0625,29.7344 372.7344,28.0938 Q371.4219,26.4219 371.4219,23.3125 Q371.4219,20.1875 372.7344,18.5313 Q374.0625,16.875 376.5469,16.875 Q377.2656,16.875 377.9219,17.0313 Q378.5625,17.1875 379.125,17.4844 L379.125,20.2031 Q378.7656,19.8594 378.4688,19.6719 Q378.1719,19.4688 377.9063,19.3438 Q377.5938,19.2031 377.2813,19.1406 Q376.9844,19.0781 376.6719,19.0781 Q375.3438,19.0781 374.6563,20.1406 Q373.9688,21.2344 373.9688,23.3125 Q373.9688,25.4063 374.6563,26.4688 Q375.3438,27.5469 376.6719,27.5469 Q377.3125,27.5469 377.9063,27.2656 Q378.2031,27.1406 378.4844,26.9531 Q378.7813,26.75 379.125,26.4219 L379.125,29.1406 Q378.5469,29.4375 377.9063,29.5938 Q377.2813,29.7344 376.5469,29.7344 Z " fill="#000000"/><text fill="#000000" font-family="sans-serif" font-size="12" lengthAdjust="spacing" textLength="87" x="397.25" y="27.656">ServerPortUser</text><line style="stroke:#A80036;stroke-width:1.5;" x1="8" x2="841" y1="39" y2="39"/><text fill="#000000" font-family="sans-serif" font-size="11" lengthAdjust="spacing" textLength="153" x="13" y="54.7589">unsetConditionVariable: void</text><line style="stroke:#A80036;stroke-width:1.5;" x1="8" x2="841" y1="61.9819" y2="61.9819"/><text fill="#000000" font-family="sans-serif" font-size="11" lengthAdjust="spacing" textLength="61" x="13" y="77.7408">offer(): void</text><text fill="#000000" font-family="sans-serif" font-size="11" lengthAdjust="spacing" textLength="86" x="13" y="92.7227">stopOffer(): void</text><text fill="#000000" font-family="sans-serif" font-size="11" lengthAdjust="spacing" textLength="85" x="13" y="107.7046">isOffered(): bool</text><text fill="#000000" font-family="sans-serif" font-size="11" lengthAdjust="spacing" textLength="89" x="13" y="122.6865">hasClients(): bool</text><text fill="#000000" font-family="sans-serif" font-size="11" lengthAdjust="spacing" textLength="361" x="13" y="137.6684">getRequest(): expected&lt;const RequestHeader*, ServerRequestResult&gt;</text><text fill="#000000" font-family="sans-serif" font-size="11" lengthAdjust="spacing" textLength="315" x="13" y="152.6502">releaseRequest(requestHeader: const RequestHeader*): void</text><text fill="#000000" font-family="sans-serif" font-size="11" lengthAdjust="spacing" textLength="123" x="13" y="167.6321">hasNewRequests(): void</text><text fill="#000000" font-family="sans-serif" font-size="11" lengthAdjust="spacing" textLength="190" x="13" y="182.614">hasLostRequestsSinceLastCall(): bool</text><text fill="#000000" font-family="sans-serif" font-size="11" lengthAdjust="spacing" textLength="823" x="13" y="197.5959">allocateResponse(requestHeader: RequestHeader*, userPayloadSize: uint32_t, userPayloadAlignment: uint32_t): expected&lt;ResponseHeader*, AllocationError&gt;</text><text fill="#000000" font-family="sans-serif" font-size="11" lengthAdjust="spacing" textLength="296" x="13" y="212.5778">sendResponse(responseHeader: ResponseHeader*): void</text><text fill="#000000" font-family="sans-serif" font-size="11" lengthAdjust="spacing" textLength="339" x="13" y="227.5597">releaseResponse(responseHeader: const ResponseHeader*): void</text><text fill="#000000" font-family="sans-serif" font-size="11" lengthAdjust="spacing" textLength="515" x="13" y="242.5416">setConditionVariable(conditionVariable: ConditionVariableData&amp;, notificationIndex: uint64_t): void</text><text fill="#000000" font-family="sans-serif" font-size="11" lengthAdjust="spacing" textLength="155" x="13" y="257.5235">isConditionVariableSet(): bool</text><!--MD5=[99e70ca6bb6308bc6f0b9f96d720bf14]
class ServerPortRouDi--><rect codeLine="34" fill="#FEFECE" filter="url(#f1rmy4q7rk7t4s)" height="92.9457" id="ServerPortRouDi" style="stroke:#A80036;stroke-width:1.5;" width="599" x="125" y="493"/><ellipse cx="373.75" cy="509" fill="#ADD1B2" rx="11" ry="11" style="stroke:#A80036;stroke-width:1.0;"/><path d="M373.5469,515.7344 Q371.0625,515.7344 369.7344,514.0938 Q368.4219,512.4219 368.4219,509.3125 Q368.4219,506.1875 369.7344,504.5313 Q371.0625,502.875 373.5469,502.875 Q374.2656,502.875 374.9219,503.0313 Q375.5625,503.1875 376.125,503.4844 L376.125,506.2031 Q375.7656,505.8594 375.4688,505.6719 Q375.1719,505.4688 374.9063,505.3438 Q374.5938,505.2031 374.2813,505.1406 Q373.9844,505.0781 373.6719,505.0781 Q372.3438,505.0781 371.6563,506.1406 Q370.9688,507.2344 370.9688,509.3125 Q370.9688,511.4063 371.6563,512.4688 Q372.3438,513.5469 373.6719,513.5469 Q374.3125,513.5469 374.9063,513.2656 Q375.2031,513.1406 375.4844,512.9531 Q375.7813,512.75 376.125,512.4219 L376.125,515.1406 Q375.5469,515.4375 374.9063,515.5938 Q374.2813,515.7344 373.5469,515.7344 Z " fill="#000000"/><text fill="#000000" font-family="sans-serif" font-size="12" lengthAdjust="spacing" textLength="93" x="394.25" y="513.656">ServerPortRouDi</text><line style="stroke:#A80036;stroke-width:1.5;" x1="126" x2="723" y1="525" y2="525"/><line style="stroke:#A80036;stroke-width:1.5;" x1="126" x2="723" y1="533" y2="533"/><text fill="#000000" font-family="sans-serif" font-size="11" lengthAdjust="spacing" textLength="255" x="131" y="548.7589">tryGetCaProMessage(): optional&lt;CaProMessage&gt;</text><text fill="#000000" font-family="sans-serif" font-size="11" lengthAdjust="spacing" textLength="587" x="131" y="563.7408">dispatchCaProMessageAndGetPossibleResponse(caProMessage: const CaProMessage): optional&lt;CaProMessage&gt;</text><text fill="#000000" font-family="sans-serif" font-size="11" lengthAdjust="spacing" textLength="124" x="131" y="578.7227">releaseAllChunks(): void</text><!--MD5=[150dbe2ea2c87a40d47eb3f59f3cc076]
reverse link ServerPortUser to ServerPortData--><path codeLine="40" d="M424.5,278.5 C424.5,294.89 424.5,310.75 424.5,324.8 " fill="none" id="ServerPortUser-backto-ServerPortData" style="stroke:#A80036;stroke-width:1.0;"/><polygon fill="#EEEBDC" points="424.5,265.26,420.5,271.26,424.5,277.26,428.5,271.26,424.5,265.26" style="stroke:#A80036;stroke-width:1.0;"/><!--MD5=[77f2c4f822f9a02acd697a117f190e81]
link ServerPortData to ServerPortRouDi--><path codeLine="41" d="M424.5,433.22 C424.5,448.17 424.5,464.52 424.5,479.78 " fill="none" id="ServerPortData-to-ServerPortRouDi" style="stroke:#A80036;stroke-width:1.0;"/><polygon fill="#EEEBDC" points="424.5,492.84,428.5,486.84,424.5,480.84,420.5,486.84,424.5,492.84" style="stroke:#A80036;stroke-width:1.0;"/></g></svg>