<?xml version="1.0" encoding="UTF-8" standalone="no"?><svg xmlns="http://www.w3.org/2000/svg" xmlns:xlink="http://www.w3.org/1999/xlink" contentScriptType="application/ecmascript" contentStyleType="text/css" height="950px" preserveAspectRatio="none" style="width:1701px;height:950px;background:#EEEBDC;" version="1.1" viewBox="0 0 1701 950" width="1701px" zoomAndPan="magnify"><defs><filter height="300%" id="ffb2v00iwf67v" width="300%" x="-1" y="-1"><feGaussianBlur result="blurOut" stdDeviation="2.0"/><feColorMatrix in="blurOut" result="blurOut2" type="matrix" values="0 0 0 0 0 0 0 0 0 0 0 0 0 0 0 0 0 0 .4 0"/><feOffset dx="4.0" dy="4.0" in="blurOut2" result="blurOut3"/><feBlend in="SourceGraphic" in2="blurOut3" mode="normal"/></filter></defs><g><!--MD5=[cec590fdcedb7e6e9851d53d8e00960d]
cluster Group1--><!--MD5=[b22bc57c0d09f8caf1ed524d630ae0a2]
cluster Group2--><!--MD5=[ed6624c6556d5e7b1bd23032162d20b7]
class Client--><rect codeLine="3" fill="#FEFECE" filter="url(#ffb2v00iwf67v)" height="201.6563" id="Client" style="stroke:#A80036;stroke-width:1.5;" width="457" x="552.5" y="119"/><ellipse cx="730.25" cy="135" fill="#ADD1B2" rx="11" ry="11" style="stroke:#A80036;stroke-width:1.0;"/><path d="M733.2188,140.6406 Q732.6406,140.9375 732,141.0781 Q731.3594,141.2344 730.6563,141.2344 Q728.1563,141.2344 726.8281,139.5938 Q725.5156,137.9375 725.5156,134.8125 Q725.5156,131.6875 726.8281,130.0313 Q728.1563,128.375 730.6563,128.375 Q731.3594,128.375 732,128.5313 Q732.6563,128.6875 733.2188,128.9844 L733.2188,131.7031 Q732.5938,131.125 732,130.8594 Q731.4063,130.5781 730.7813,130.5781 Q729.4375,130.5781 728.75,131.6563 Q728.0625,132.7188 728.0625,134.8125 Q728.0625,136.9063 728.75,137.9844 Q729.4375,139.0469 730.7813,139.0469 Q731.4063,139.0469 732,138.7813 Q732.5938,138.5 733.2188,137.9219 L733.2188,140.6406 Z " fill="#000000"/><text fill="#000000" font-family="sans-serif" font-size="12" lengthAdjust="spacing" textLength="35" x="750.75" y="139.1543">Client</text><rect fill="#EEEBDC" height="15.9688" style="stroke:#000000;stroke-width:1.0;stroke-dasharray:2.0,2.0;" width="56" x="956.5" y="116"/><text fill="#000000" font-family="sans-serif" font-size="12" font-style="italic" lengthAdjust="spacing" textLength="54" x="957.5" y="128.1387">Req, Res</text><line style="stroke:#A80036;stroke-width:1.5;" x1="553.5" x2="1008.5" y1="151" y2="151"/><line style="stroke:#A80036;stroke-width:1.5;" x1="553.5" x2="1008.5" y1="159" y2="159"/><text fill="#000000" font-family="sans-serif" font-size="11" lengthAdjust="spacing" textLength="445" x="558.5" y="173.2104">Client(serviceDescription: ServiceDescription&amp;, clientOptions: ClientOptions&amp;)</text><text fill="#000000" font-family="sans-serif" font-size="11" lengthAdjust="spacing" textLength="124" x="558.5" y="186.0151">getUid(): UniquePortId</text><text fill="#000000" font-family="sans-serif" font-size="11" lengthAdjust="spacing" textLength="246" x="558.5" y="198.8198">getServiceDescription(): ServiceDescription</text><text fill="#000000" font-family="sans-serif" font-size="11" lengthAdjust="spacing" textLength="83" x="558.5" y="211.6245">connect(): void</text><text fill="#000000" font-family="sans-serif" font-size="11" lengthAdjust="spacing" textLength="100" x="558.5" y="224.4292">disconnect(): void</text><text fill="#000000" font-family="sans-serif" font-size="11" lengthAdjust="spacing" textLength="220" x="558.5" y="237.2339">getConnectionState(): ConnectionState</text><text fill="#000000" font-family="sans-serif" font-size="11" lengthAdjust="spacing" textLength="269" x="558.5" y="250.0386">loan(Args...): expected&lt;Request&lt;Req&gt;, Error&gt;</text><text fill="#000000" font-family="sans-serif" font-size="11" lengthAdjust="spacing" textLength="340" x="558.5" y="262.8433">send(request: Request&lt;Req&gt;): expected&lt;ClientSendError&gt;</text><text fill="#000000" font-family="sans-serif" font-size="11" lengthAdjust="spacing" textLength="124" x="558.5" y="275.6479">hasResponses(): bool</text><text fill="#000000" font-family="sans-serif" font-size="11" lengthAdjust="spacing" textLength="241" x="558.5" y="288.4526">take(): expected&lt;Response&lt;Res&gt;, Error&gt;</text><text fill="#000000" font-family="sans-serif" font-size="11" lengthAdjust="spacing" textLength="189" x="558.5" y="301.2573">releaseQueuedResponses(): void</text><text fill="#000000" font-family="sans-serif" font-size="11" lengthAdjust="spacing" textLength="164" x="558.5" y="314.062">hasMissedResponses(): bool</text><!--MD5=[c60af77fe5573b84a4aa4bce89659574]
class Server--><rect codeLine="18" fill="#FEFECE" filter="url(#ffb2v00iwf67v)" height="214.4609" id="Server" style="stroke:#A80036;stroke-width:1.5;" width="476" x="41" y="113"/><ellipse cx="225.75" cy="129" fill="#ADD1B2" rx="11" ry="11" style="stroke:#A80036;stroke-width:1.0;"/><path d="M228.7188,134.6406 Q228.1406,134.9375 227.5,135.0781 Q226.8594,135.2344 226.1563,135.2344 Q223.6563,135.2344 222.3281,133.5938 Q221.0156,131.9375 221.0156,128.8125 Q221.0156,125.6875 222.3281,124.0313 Q223.6563,122.375 226.1563,122.375 Q226.8594,122.375 227.5,122.5313 Q228.1563,122.6875 228.7188,122.9844 L228.7188,125.7031 Q228.0938,125.125 227.5,124.8594 Q226.9063,124.5781 226.2813,124.5781 Q224.9375,124.5781 224.25,125.6563 Q223.5625,126.7188 223.5625,128.8125 Q223.5625,130.9063 224.25,131.9844 Q224.9375,133.0469 226.2813,133.0469 Q226.9063,133.0469 227.5,132.7813 Q228.0938,132.5 228.7188,131.9219 L228.7188,134.6406 Z " fill="#000000"/><text fill="#000000" font-family="sans-serif" font-size="12" lengthAdjust="spacing" textLength="40" x="246.25" y="133.1543">Server</text><rect fill="#EEEBDC" height="15.9688" style="stroke:#000000;stroke-width:1.0;stroke-dasharray:2.0,2.0;" width="56" x="464" y="110"/><text fill="#000000" font-family="sans-serif" font-size="12" font-style="italic" lengthAdjust="spacing" textLength="54" x="465" y="122.1387">Req, Res</text><line style="stroke:#A80036;stroke-width:1.5;" x1="42" x2="516" y1="145" y2="145"/><line style="stroke:#A80036;stroke-width:1.5;" x1="42" x2="516" y1="153" y2="153"/><text fill="#000000" font-family="sans-serif" font-size="11" lengthAdjust="spacing" textLength="464" x="47" y="167.2104">Server(serviceDescription: ServiceDescription&amp;, serverOptions: ServerOptions&amp;)</text><text fill="#000000" font-family="sans-serif" font-size="11" lengthAdjust="spacing" textLength="124" x="47" y="180.0151">getUid(): UniquePortId</text><text fill="#000000" font-family="sans-serif" font-size="11" lengthAdjust="spacing" textLength="246" x="47" y="192.8198">getServiceDescription(): ServiceDescription</text><text fill="#000000" font-family="sans-serif" font-size="11" lengthAdjust="spacing" textLength="66" x="47" y="205.6245">offer(): void</text><text fill="#000000" font-family="sans-serif" font-size="11" lengthAdjust="spacing" textLength="93" x="47" y="218.4292">stopOffer(): void</text><text fill="#000000" font-family="sans-serif" font-size="11" lengthAdjust="spacing" textLength="93" x="47" y="231.2339">isOffered(): bool</text><text fill="#000000" font-family="sans-serif" font-size="11" lengthAdjust="spacing" textLength="100" x="47" y="244.0386">hasClients(): bool</text><text fill="#000000" font-family="sans-serif" font-size="11" lengthAdjust="spacing" textLength="114" x="47" y="256.8433">hasRequests(): bool</text><text fill="#000000" font-family="sans-serif" font-size="11" lengthAdjust="spacing" textLength="231" x="47" y="269.6479">take(): expected&lt;Request&lt;Req&gt;, Error&gt;</text><text fill="#000000" font-family="sans-serif" font-size="11" lengthAdjust="spacing" textLength="179" x="47" y="282.4526">releaseQueuedRequests(): void</text><text fill="#000000" font-family="sans-serif" font-size="11" lengthAdjust="spacing" textLength="154" x="47" y="295.2573">hasMissedRequests(): bool</text><text fill="#000000" font-family="sans-serif" font-size="11" lengthAdjust="spacing" textLength="434" x="47" y="308.062">loan(request: Request&lt;Req&gt;&amp;, Args...): expected&lt;Response&lt;Res&gt;, Error&gt;</text><text fill="#000000" font-family="sans-serif" font-size="11" lengthAdjust="spacing" textLength="366" x="47" y="320.8667">send(response: Response&lt;Res&gt;): expected&lt;ServerSendError&gt;</text><!--MD5=[13fb849c6dfc9273db4c5b2c7ac96a10]
class Publisher--><rect codeLine="34" fill="#FEFECE" filter="url(#ffb2v00iwf67v)" height="48" id="Publisher" style="stroke:#A80036;stroke-width:1.5;" width="90" x="1045" y="196"/><ellipse cx="1060" cy="212" fill="#ADD1B2" rx="11" ry="11" style="stroke:#A80036;stroke-width:1.0;"/><path d="M1062.9688,217.6406 Q1062.3906,217.9375 1061.75,218.0781 Q1061.1094,218.2344 1060.4063,218.2344 Q1057.9063,218.2344 1056.5781,216.5938 Q1055.2656,214.9375 1055.2656,211.8125 Q1055.2656,208.6875 1056.5781,207.0313 Q1057.9063,205.375 1060.4063,205.375 Q1061.1094,205.375 1061.75,205.5313 Q1062.4063,205.6875 1062.9688,205.9844 L1062.9688,208.7031 Q1062.3438,208.125 1061.75,207.8594 Q1061.1563,207.5781 1060.5313,207.5781 Q1059.1875,207.5781 1058.5,208.6563 Q1057.8125,209.7188 1057.8125,211.8125 Q1057.8125,213.9063 1058.5,214.9844 Q1059.1875,216.0469 1060.5313,216.0469 Q1061.1563,216.0469 1061.75,215.7813 Q1062.3438,215.5 1062.9688,214.9219 L1062.9688,217.6406 Z " fill="#000000"/><text fill="#000000" font-family="sans-serif" font-size="12" lengthAdjust="spacing" textLength="58" x="1074" y="216.1543">Publisher</text><line style="stroke:#A80036;stroke-width:1.5;" x1="1046" x2="1134" y1="228" y2="228"/><line style="stroke:#A80036;stroke-width:1.5;" x1="1046" x2="1134" y1="236" y2="236"/><!--MD5=[9681492165142af2a4a3a169d90ee8d4]
class Sample--><rect codeLine="63" fill="#FEFECE" filter="url(#ffb2v00iwf67v)" height="112.0234" id="Sample" style="stroke:#A80036;stroke-width:1.5;" width="496" x="1191" y="576"/><ellipse cx="1397.75" cy="592" fill="#ADD1B2" rx="11" ry="11" style="stroke:#A80036;stroke-width:1.0;"/><path d="M1400.7188,597.6406 Q1400.1406,597.9375 1399.5,598.0781 Q1398.8594,598.2344 1398.1563,598.2344 Q1395.6563,598.2344 1394.3281,596.5938 Q1393.0156,594.9375 1393.0156,591.8125 Q1393.0156,588.6875 1394.3281,587.0313 Q1395.6563,585.375 1398.1563,585.375 Q1398.8594,585.375 1399.5,585.5313 Q1400.1563,585.6875 1400.7188,585.9844 L1400.7188,588.7031 Q1400.0938,588.125 1399.5,587.8594 Q1398.9063,587.5781 1398.2813,587.5781 Q1396.9375,587.5781 1396.25,588.6563 Q1395.5625,589.7188 1395.5625,591.8125 Q1395.5625,593.9063 1396.25,594.9844 Q1396.9375,596.0469 1398.2813,596.0469 Q1398.9063,596.0469 1399.5,595.7813 Q1400.0938,595.5 1400.7188,594.9219 L1400.7188,597.6406 Z " fill="#000000"/><text fill="#000000" font-family="sans-serif" font-size="12" lengthAdjust="spacing" textLength="46" x="1418.25" y="596.1543">Sample</text><rect fill="#EEEBDC" height="15.9688" style="stroke:#000000;stroke-width:1.0;stroke-dasharray:2.0,2.0;" width="26" x="1664" y="573"/><text fill="#000000" font-family="sans-serif" font-size="12" font-style="italic" lengthAdjust="spacing" textLength="24" x="1665" y="585.1387">T, H</text><line style="stroke:#A80036;stroke-width:1.5;" x1="1192" x2="1686" y1="608" y2="608"/><line style="stroke:#A80036;stroke-width:1.5;" x1="1192" x2="1686" y1="616" y2="616"/><text fill="#000000" font-family="sans-serif" font-size="11" lengthAdjust="spacing" textLength="484" x="1197" y="630.2104">Sample(sampleUniquePtr: unique_ptr&lt;T&gt;&amp;&amp;, publisher: PublisherInterface&lt;T, H&gt;&amp;)</text><text fill="#000000" font-family="sans-serif" font-size="11" lengthAdjust="spacing" textLength="296" x="1197" y="643.0151">Sample(sampleUniquePtr: unique_ptr&lt;const T&gt;&amp;&amp;)</text><text fill="#000000" font-family="sans-serif" font-size="11" lengthAdjust="spacing" textLength="116" x="1197" y="655.8198">getUserHeader(): H*</text><text fill="#000000" font-family="sans-serif" font-size="11" lengthAdjust="spacing" textLength="186" x="1197" y="668.6245">getUserHeader() const: const H*</text><text fill="#000000" font-family="sans-serif" font-size="11" lengthAdjust="spacing" textLength="80" x="1197" y="681.4292">publish(): void</text><!--MD5=[0851f84a889f989e7bb0bebc385d0f09]
class Request--><rect codeLine="71" fill="#FEFECE" filter="url(#ffb2v00iwf67v)" height="112.0234" id="Request" style="stroke:#A80036;stroke-width:1.5;" width="521" x="634.5" y="576"/><ellipse cx="850.75" cy="592" fill="#ADD1B2" rx="11" ry="11" style="stroke:#A80036;stroke-width:1.0;"/><path d="M853.7188,597.6406 Q853.1406,597.9375 852.5,598.0781 Q851.8594,598.2344 851.1563,598.2344 Q848.6563,598.2344 847.3281,596.5938 Q846.0156,594.9375 846.0156,591.8125 Q846.0156,588.6875 847.3281,587.0313 Q848.6563,585.375 851.1563,585.375 Q851.8594,585.375 852.5,585.5313 Q853.1563,585.6875 853.7188,585.9844 L853.7188,588.7031 Q853.0938,588.125 852.5,587.8594 Q851.9063,587.5781 851.2813,587.5781 Q849.9375,587.5781 849.25,588.6563 Q848.5625,589.7188 848.5625,591.8125 Q848.5625,593.9063 849.25,594.9844 Q849.9375,596.0469 851.2813,596.0469 Q851.9063,596.0469 852.5,595.7813 Q853.0938,595.5 853.7188,594.9219 L853.7188,597.6406 Z " fill="#000000"/><text fill="#000000" font-family="sans-serif" font-size="12" lengthAdjust="spacing" textLength="52" x="871.25" y="596.1543">Request</text><rect fill="#EEEBDC" height="15.9688" style="stroke:#000000;stroke-width:1.0;stroke-dasharray:2.0,2.0;" width="26" x="1132.5" y="573"/><text fill="#000000" font-family="sans-serif" font-size="12" font-style="italic" lengthAdjust="spacing" textLength="24" x="1133.5" y="585.1387">Req</text><line style="stroke:#A80036;stroke-width:1.5;" x1="635.5" x2="1154.5" y1="608" y2="608"/><line style="stroke:#A80036;stroke-width:1.5;" x1="635.5" x2="1154.5" y1="616" y2="616"/><text fill="#000000" font-family="sans-serif" font-size="11" lengthAdjust="spacing" textLength="509" x="640.5" y="630.2104">Request(requestUniquePtr: unique_ptr&lt;Req&gt;&amp;&amp;, client: RpcInterface&lt;Request&lt;Req&gt;&gt;&amp;)</text><text fill="#000000" font-family="sans-serif" font-size="11" lengthAdjust="spacing" textLength="315" x="640.5" y="643.0151">Request(requestUniquePtr: unique_ptr&lt;const Req&gt;&amp;&amp;)</text><text fill="#000000" font-family="sans-serif" font-size="11" lengthAdjust="spacing" textLength="214" x="640.5" y="655.8198">getRequestHeader(): RequestHeader*</text><text fill="#000000" font-family="sans-serif" font-size="11" lengthAdjust="spacing" textLength="284" x="640.5" y="668.6245">getRequestHeader() const: const RequestHeader*</text><text fill="#000000" font-family="sans-serif" font-size="11" lengthAdjust="spacing" textLength="203" x="640.5" y="681.4292">send(): expected&lt;ClientSendError&gt;</text><!--MD5=[62ba8ad8b61caf20139235a169a8c31d]
class Response--><rect codeLine="79" fill="#FEFECE" filter="url(#ffb2v00iwf67v)" height="112.0234" id="Response" style="stroke:#A80036;stroke-width:1.5;" width="558" x="41" y="576"/><ellipse cx="271.75" cy="592" fill="#ADD1B2" rx="11" ry="11" style="stroke:#A80036;stroke-width:1.0;"/><path d="M274.7188,597.6406 Q274.1406,597.9375 273.5,598.0781 Q272.8594,598.2344 272.1563,598.2344 Q269.6563,598.2344 268.3281,596.5938 Q267.0156,594.9375 267.0156,591.8125 Q267.0156,588.6875 268.3281,587.0313 Q269.6563,585.375 272.1563,585.375 Q272.8594,585.375 273.5,585.5313 Q274.1563,585.6875 274.7188,585.9844 L274.7188,588.7031 Q274.0938,588.125 273.5,587.8594 Q272.9063,587.5781 272.2813,587.5781 Q270.9375,587.5781 270.25,588.6563 Q269.5625,589.7188 269.5625,591.8125 Q269.5625,593.9063 270.25,594.9844 Q270.9375,596.0469 272.2813,596.0469 Q272.9063,596.0469 273.5,595.7813 Q274.0938,595.5 274.7188,594.9219 L274.7188,597.6406 Z " fill="#000000"/><text fill="#000000" font-family="sans-serif" font-size="12" lengthAdjust="spacing" textLength="62" x="292.25" y="596.1543">Response</text><rect fill="#EEEBDC" height="15.9688" style="stroke:#000000;stroke-width:1.0;stroke-dasharray:2.0,2.0;" width="24" x="578" y="573"/><text fill="#000000" font-family="sans-serif" font-size="12" font-style="italic" lengthAdjust="spacing" textLength="22" x="579" y="585.1387">Res</text><line style="stroke:#A80036;stroke-width:1.5;" x1="42" x2="598" y1="608" y2="608"/><line style="stroke:#A80036;stroke-width:1.5;" x1="42" x2="598" y1="616" y2="616"/><text fill="#000000" font-family="sans-serif" font-size="11" lengthAdjust="spacing" textLength="546" x="47" y="630.2104">Response(responseUniquePtr: unique_ptr&lt;Res&gt;&amp;&amp;, server: RpcInterface&lt;Response&lt;Res&gt;&gt;&amp;)</text><text fill="#000000" font-family="sans-serif" font-size="11" lengthAdjust="spacing" textLength="335" x="47" y="643.0151">Response(responseUniquePtr: unique_ptr&lt;const Res&gt;&amp;&amp;)</text><text fill="#000000" font-family="sans-serif" font-size="11" lengthAdjust="spacing" textLength="234" x="47" y="655.8198">getResponseHeader(): ResponseHeader*</text><text fill="#000000" font-family="sans-serif" font-size="11" lengthAdjust="spacing" textLength="304" x="47" y="668.6245">getResponseHeader() const: const ResponseHeader*</text><text fill="#000000" font-family="sans-serif" font-size="11" lengthAdjust="spacing" textLength="209" x="47" y="681.4292">send(): expected&lt;ServerSendError&gt;</text><!--MD5=[2fa57c88a2a661e4d0f335e26d4f1a7f]
class SmartChunk--><rect codeLine="38" fill="#FEFECE" filter="url(#ffb2v00iwf67v)" height="188.8516" id="SmartChunk" style="stroke:#A80036;stroke-width:1.5;" width="485" x="652.5" y="748"/><ellipse cx="766.75" cy="764" fill="#ADD1B2" rx="11" ry="11" style="stroke:#A80036;stroke-width:1.0;"/><path d="M769.7188,769.6406 Q769.1406,769.9375 768.5,770.0781 Q767.8594,770.2344 767.1563,770.2344 Q764.6563,770.2344 763.3281,768.5938 Q762.0156,766.9375 762.0156,763.8125 Q762.0156,760.6875 763.3281,759.0313 Q764.6563,757.375 767.1563,757.375 Q767.8594,757.375 768.5,757.5313 Q769.1563,757.6875 769.7188,757.9844 L769.7188,760.7031 Q769.0938,760.125 768.5,759.8594 Q767.9063,759.5781 767.2813,759.5781 Q765.9375,759.5781 765.25,760.6563 Q764.5625,761.7188 764.5625,763.8125 Q764.5625,765.9063 765.25,766.9844 Q765.9375,768.0469 767.2813,768.0469 Q767.9063,768.0469 768.5,767.7813 Q769.0938,767.5 769.7188,766.9219 L769.7188,769.6406 Z " fill="#000000"/><text fill="#000000" font-family="sans-serif" font-size="12" lengthAdjust="spacing" textLength="76" x="787.25" y="768.1543">SmartChunk</text><rect fill="#EEEBDC" height="15.9688" style="stroke:#000000;stroke-width:1.0;stroke-dasharray:2.0,2.0;" width="170" x="970.5" y="745"/><text fill="#000000" font-family="sans-serif" font-size="12" font-style="italic" lengthAdjust="spacing" textLength="168" x="971.5" y="757.1387">TransmissionInterface, T, H</text><line style="stroke:#A80036;stroke-width:1.5;" x1="653.5" x2="1136.5" y1="780" y2="780"/><line style="stroke:#A80036;stroke-width:1.5;" x1="653.5" x2="1136.5" y1="788" y2="788"/><text fill="#000000" font-family="sans-serif" font-size="11" lengthAdjust="spacing" textLength="473" x="658.5" y="802.2104">SmartChunk(chunkUniquePtr: unique_ptr&lt;T&gt;&amp;&amp;, sender: TransmissionInterface&amp;)</text><text fill="#000000" font-family="sans-serif" font-size="11" lengthAdjust="spacing" textLength="314" x="658.5" y="815.0151">SmartChunk(chunkUniquePtr: unique_ptr&lt;const T&gt;&amp;&amp;)</text><text fill="#000000" font-family="sans-serif" font-size="11" lengthAdjust="spacing" textLength="91" x="658.5" y="827.8198">operator-&gt;(): T*</text><text fill="#000000" font-family="sans-serif" font-size="11" lengthAdjust="spacing" textLength="161" x="658.5" y="840.6245">operator-&gt;() const: const T*</text><text fill="#000000" font-family="sans-serif" font-size="11" lengthAdjust="spacing" textLength="88" x="658.5" y="853.4292">operator*(): T&amp;</text><text fill="#000000" font-family="sans-serif" font-size="11" lengthAdjust="spacing" textLength="158" x="658.5" y="866.2339">operator*() const: const T&amp;</text><text fill="#000000" font-family="sans-serif" font-size="11" lengthAdjust="spacing" textLength="120" x="658.5" y="879.0386">operator bool() const</text><text fill="#000000" font-family="sans-serif" font-size="11" lengthAdjust="spacing" textLength="47" x="658.5" y="891.8433">get(): T*</text><text fill="#000000" font-family="sans-serif" font-size="11" lengthAdjust="spacing" textLength="117" x="658.5" y="904.6479">get() const: const T*</text><text fill="#000000" font-family="sans-serif" font-size="11" lengthAdjust="spacing" textLength="192" x="658.5" y="917.4526">getChunkHeader(): ChunkHeader*</text><text fill="#000000" font-family="sans-serif" font-size="11" lengthAdjust="spacing" textLength="262" x="658.5" y="930.2573">getChunkHeader() const: const ChunkHeader*</text><path d="M1172.5,815 L1172.5,838.5 L1137.81,842.5 L1172.5,846.5 L1172.5,870.3984 A0,0 0 0 0 1172.5,870.3984 L1513.5,870.3984 A0,0 0 0 0 1513.5,870.3984 L1513.5,825 L1503.5,815 L1172.5,815 A0,0 0 0 0 1172.5,815 " fill="#FBFB77" filter="url(#ffb2v00iwf67v)" style="stroke:#A80036;stroke-width:1.0;"/><path d="M1503.5,815 L1503.5,825 L1513.5,825 L1503.5,815 " fill="#FBFB77" style="stroke:#A80036;stroke-width:1.0;"/><text fill="#000000" font-family="sans-serif" font-size="13" lengthAdjust="spacing" textLength="320" x="1178.5" y="832.0669">ForProducerOnly and ForConsumerOnly type traits</text><text fill="#000000" font-family="sans-serif" font-size="13" lengthAdjust="spacing" textLength="279" x="1178.5" y="847.1997">restrict access to some ctors and methods,</text><text fill="#000000" font-family="sans-serif" font-size="13" lengthAdjust="spacing" textLength="228" x="1178.5" y="862.3325">like no non-const access to payload</text><!--MD5=[1a4e3e2f3ff35c5025a142ebd7418a60]
class PublisherInterface--><rect codeLine="54" fill="#FEFECE" filter="url(#ffb2v00iwf67v)" height="60.8047" id="PublisherInterface" style="stroke:#A80036;stroke-width:1.5;" width="226" x="977" y="387"/><ellipse cx="1015.85" cy="403" fill="#B4A7E5" rx="11" ry="11" style="stroke:#A80036;stroke-width:1.0;"/><path d="M1011.7719,398.7656 L1011.7719,396.6094 L1019.1625,396.6094 L1019.1625,398.7656 L1016.6938,398.7656 L1016.6938,406.8438 L1019.1625,406.8438 L1019.1625,409 L1011.7719,409 L1011.7719,406.8438 L1014.2406,406.8438 L1014.2406,398.7656 L1011.7719,398.7656 Z " fill="#000000"/><text fill="#000000" font-family="sans-serif" font-size="12" font-style="italic" lengthAdjust="spacing" textLength="113" x="1035.15" y="407.1543">PublisherInterface</text><rect fill="#EEEBDC" height="15.9688" style="stroke:#000000;stroke-width:1.0;stroke-dasharray:2.0,2.0;" width="26" x="1180" y="384"/><text fill="#000000" font-family="sans-serif" font-size="12" font-style="italic" lengthAdjust="spacing" textLength="24" x="1181" y="396.1387">T, H</text><line style="stroke:#A80036;stroke-width:1.5;" x1="978" x2="1202" y1="419" y2="419"/><line style="stroke:#A80036;stroke-width:1.5;" x1="978" x2="1202" y1="427" y2="427"/><text fill="#000000" font-family="sans-serif" font-size="11" lengthAdjust="spacing" textLength="214" x="983" y="441.2104">publish(sample: Sample&lt;T, H&gt;): void</text><!--MD5=[486175ef964b0839dd18eb8a9ee30ed8]
class RpcInterface--><rect codeLine="58" fill="#FEFECE" filter="url(#ffb2v00iwf67v)" height="60.8047" id="RpcInterface" style="stroke:#A80036;stroke-width:1.5;" width="169" x="445.5" y="387"/><ellipse cx="460.5" cy="403" fill="#B4A7E5" rx="11" ry="11" style="stroke:#A80036;stroke-width:1.0;"/><path d="M456.4219,398.7656 L456.4219,396.6094 L463.8125,396.6094 L463.8125,398.7656 L461.3438,398.7656 L461.3438,406.8438 L463.8125,406.8438 L463.8125,409 L456.4219,409 L456.4219,406.8438 L458.8906,406.8438 L458.8906,398.7656 L456.4219,398.7656 Z " fill="#000000"/><text fill="#000000" font-family="sans-serif" font-size="12" font-style="italic" lengthAdjust="spacing" textLength="80" x="474.5" y="407.1543">RpcInterface</text><rect fill="#EEEBDC" height="15.9688" style="stroke:#000000;stroke-width:1.0;stroke-dasharray:2.0,2.0;" width="55" x="562.5" y="384"/><text fill="#000000" font-family="sans-serif" font-size="12" font-style="italic" lengthAdjust="spacing" textLength="53" x="563.5" y="396.1387">RpcType</text><line style="stroke:#A80036;stroke-width:1.5;" x1="446.5" x2="613.5" y1="419" y2="419"/><line style="stroke:#A80036;stroke-width:1.5;" x1="446.5" x2="613.5" y1="427" y2="427"/><text fill="#000000" font-family="sans-serif" font-size="11" lengthAdjust="spacing" textLength="140" x="451.5" y="441.2104">send(rpc: RpcType): void</text><path d="M905,6 L905,46.2656 A0,0 0 0 0 905,46.2656 L1086,46.2656 L1090,195.82 L1094,46.2656 L1275,46.2656 A0,0 0 0 0 1275,46.2656 L1275,16 L1265,6 L905,6 A0,0 0 0 0 905,6 " fill="#FBFB77" filter="url(#ffb2v00iwf67v)" style="stroke:#A80036;stroke-width:1.0;"/><path d="M1265,6 L1265,16 L1275,16 L1265,6 " fill="#FBFB77" style="stroke:#A80036;stroke-width:1.0;"/><text fill="#000000" font-family="sans-serif" font-size="13" lengthAdjust="spacing" textLength="235" x="911" y="23.0669">This is not used by request-response</text><text fill="#000000" font-family="sans-serif" font-size="13" lengthAdjust="spacing" textLength="349" x="911" y="38.1997">and just added to show the similar concepts in the API.</text><!--MD5=[4162ef892c3a2ccf7a6e7265be918e65]
link Publisher to PublisherInterface--><path codeLine="90" d="M1090,244.19 C1090,278.27 1090,342.1 1090,381.77 " fill="none" id="Publisher-to-PublisherInterface" style="stroke:#A80036;stroke-width:1.0;"/><polygon fill="#A80036" points="1090,386.97,1094,377.97,1090,381.97,1086,377.97,1090,386.97" style="stroke:#A80036;stroke-width:1.0;"/><!--MD5=[c7a3ccbf4722a82088835254a27868b0]
link Client to RpcInterface--><path codeLine="91" d="M652.56,321.04 C623.49,343.68 594.63,366.16 572.23,383.61 " fill="none" id="Client-to-RpcInterface" style="stroke:#A80036;stroke-width:1.0;"/><polygon fill="#A80036" points="568.12,386.81,577.6823,384.4515,572.0698,383.7442,572.7771,378.1318,568.12,386.81" style="stroke:#A80036;stroke-width:1.0;"/><!--MD5=[eed270aeaf549aa49deb0636758ea025]
link Server to RpcInterface--><path codeLine="92" d="M415.15,327.05 C441.62,347.66 467.46,367.79 487.9,383.71 " fill="none" id="Server-to-RpcInterface" style="stroke:#A80036;stroke-width:1.0;"/><polygon fill="#A80036" points="491.91,386.83,487.2681,378.1436,487.9655,383.7573,482.3519,384.4548,491.91,386.83" style="stroke:#A80036;stroke-width:1.0;"/><!--MD5=[0f93a8b029fbd230747008e1e14fce4e]
link Group1 to Group2--><!--MD5=[99418a084cf9cc4b3b139951cbe4cee6]
link Sample to SmartChunk--><path codeLine="96" d="M1295.36,688.05 C1248.38,706.06 1194.77,726.61 1142.39,746.68 " fill="none" id="Sample-to-SmartChunk" style="stroke:#A80036;stroke-width:1.0;"/><polygon fill="#A80036" points="1137.65,748.5,1147.4855,749.0127,1142.3186,746.7099,1144.6214,741.543,1137.65,748.5" style="stroke:#A80036;stroke-width:1.0;"/><!--MD5=[d5b8d6b9d0b23d26b69c35dea68f1a5d]
link Request to SmartChunk--><path codeLine="97" d="M895,688.05 C895,704.82 895,723.78 895,742.52 " fill="none" id="Request-to-SmartChunk" style="stroke:#A80036;stroke-width:1.0;"/><polygon fill="#A80036" points="895,747.79,899,738.79,895,742.79,891,738.79,895,747.79" style="stroke:#A80036;stroke-width:1.0;"/><!--MD5=[a43eb62d00420a404fe3a3defbc4a436]
link Response to SmartChunk--><path codeLine="98" d="M471.83,688.05 C525.63,707.56 587.66,730.06 647.35,751.7 " fill="none" id="Response-to-SmartChunk" style="stroke:#A80036;stroke-width:1.0;"/><polygon fill="#A80036" points="652.38,753.52,645.2772,746.6973,647.6781,751.8193,642.5561,754.2203,652.38,753.52" style="stroke:#A80036;stroke-width:1.0;"/></g></svg>