<?xml version="1.0" encoding="UTF-8" standalone="no"?><svg xmlns="http://www.w3.org/2000/svg" xmlns:xlink="http://www.w3.org/1999/xlink" contentScriptType="application/ecmascript" contentStyleType="text/css" height="1027px" preserveAspectRatio="none" style="width:1527px;height:1027px;background:#EEEBDC;" version="1.1" viewBox="0 0 1527 1027" width="1527px" zoomAndPan="magnify"><defs><filter height="300%" id="f7k70izyfqtd5" width="300%" x="-1" y="-1"><feGaussianBlur result="blurOut" stdDeviation="2.0"/><feColorMatrix in="blurOut" result="blurOut2" type="matrix" values="0 0 0 0 0 0 0 0 0 0 0 0 0 0 0 0 0 0 .4 0"/><feOffset dx="4.0" dy="4.0" in="blurOut2" result="blurOut3"/><feBlend in="SourceGraphic" in2="blurOut3" mode="normal"/></filter></defs><g><!--MD5=[cec590fdcedb7e6e9851d53d8e00960d]
cluster Group1--><!--MD5=[b22bc57c0d09f8caf1ed524d630ae0a2]
cluster Group2--><!--MD5=[ed6624c6556d5e7b1bd23032162d20b7]
class Client--><rect codeLine="3" fill="#FEFECE" filter="url(#f7k70izyfqtd5)" height="227.7827" id="Client" style="stroke:#A80036;stroke-width:1.5;" width="417" x="515.5" y="128.5"/><ellipse cx="679.75" cy="144.5" fill="#ADD1B2" rx="11" ry="11" style="stroke:#A80036;stroke-width:1.0;"/><path d="M679.5469,151.2344 Q677.0625,151.2344 675.7344,149.5938 Q674.4219,147.9219 674.4219,144.8125 Q674.4219,141.6875 675.7344,140.0313 Q677.0625,138.375 679.5469,138.375 Q680.2656,138.375 680.9219,138.5313 Q681.5625,138.6875 682.125,138.9844 L682.125,141.7031 Q681.7656,141.3594 681.4688,141.1719 Q681.1719,140.9688 680.9063,140.8438 Q680.5938,140.7031 680.2813,140.6406 Q679.9844,140.5781 679.6719,140.5781 Q678.3438,140.5781 677.6563,141.6406 Q676.9688,142.7344 676.9688,144.8125 Q676.9688,146.9063 677.6563,147.9688 Q678.3438,149.0469 679.6719,149.0469 Q680.3125,149.0469 680.9063,148.7656 Q681.2031,148.6406 681.4844,148.4531 Q681.7813,148.25 682.125,147.9219 L682.125,150.6406 Q681.5469,150.9375 680.9063,151.0938 Q680.2813,151.2344 679.5469,151.2344 Z " fill="#000000"/><text fill="#000000" font-family="sans-serif" font-size="12" lengthAdjust="spacing" textLength="32" x="700.25" y="149.156">Client</text><rect fill="#EEEBDC" height="18.3441" style="stroke:#000000;stroke-width:1.0;stroke-dasharray:2.0,2.0;" width="46" x="889.5" y="125.5"/><text fill="#000000" font-family="sans-serif" font-size="12" font-style="italic" lengthAdjust="spacing" textLength="44" x="890.5" y="139.3281">Req, Res</text><line style="stroke:#A80036;stroke-width:1.5;" x1="516.5" x2="931.5" y1="160.5" y2="160.5"/><line style="stroke:#A80036;stroke-width:1.5;" x1="516.5" x2="931.5" y1="168.5" y2="168.5"/><text fill="#000000" font-family="sans-serif" font-size="11" lengthAdjust="spacing" textLength="405" x="521.5" y="184.2589">Client(serviceDescription: ServiceDescription&amp;, clientOptions: ClientOptions&amp;)</text><text fill="#000000" font-family="sans-serif" font-size="11" lengthAdjust="spacing" textLength="119" x="521.5" y="199.2408">getUid(): UniquePortId</text><text fill="#000000" font-family="sans-serif" font-size="11" lengthAdjust="spacing" textLength="231" x="521.5" y="214.2227">getServiceDescription(): ServiceDescription&amp;</text><text fill="#000000" font-family="sans-serif" font-size="11" lengthAdjust="spacing" textLength="76" x="521.5" y="229.2046">connect(): void</text><text fill="#000000" font-family="sans-serif" font-size="11" lengthAdjust="spacing" textLength="91" x="521.5" y="244.1865">disconnect(): void</text><text fill="#000000" font-family="sans-serif" font-size="11" lengthAdjust="spacing" textLength="201" x="521.5" y="259.1684">getConnectionState(): ConnectionState</text><text fill="#000000" font-family="sans-serif" font-size="11" lengthAdjust="spacing" textLength="287" x="521.5" y="274.1502">loan(Args...): expected&lt;Request&lt;Req&gt;, AllocationError&gt;</text><text fill="#000000" font-family="sans-serif" font-size="11" lengthAdjust="spacing" textLength="300" x="521.5" y="289.1321">send(request: Request&lt;Req&gt;): expected&lt;ClientSendError&gt;</text><text fill="#000000" font-family="sans-serif" font-size="11" lengthAdjust="spacing" textLength="109" x="521.5" y="304.114">hasResponses(): bool</text><text fill="#000000" font-family="sans-serif" font-size="11" lengthAdjust="spacing" textLength="284" x="521.5" y="319.0959">take(): expected&lt;Response&lt;Res&gt;, ChunkReceiveResult&gt;</text><text fill="#000000" font-family="sans-serif" font-size="11" lengthAdjust="spacing" textLength="169" x="521.5" y="334.0778">releaseQueuedResponses(): void</text><text fill="#000000" font-family="sans-serif" font-size="11" lengthAdjust="spacing" textLength="145" x="521.5" y="349.0597">hasMissedResponses(): bool</text><!--MD5=[c60af77fe5573b84a4aa4bce89659574]
class Server--><rect codeLine="18" fill="#FEFECE" filter="url(#f7k70izyfqtd5)" height="242.7645" id="Server" style="stroke:#A80036;stroke-width:1.5;" width="439" x="41.5" y="121"/><ellipse cx="214.25" cy="137" fill="#ADD1B2" rx="11" ry="11" style="stroke:#A80036;stroke-width:1.0;"/><path d="M214.0469,143.7344 Q211.5625,143.7344 210.2344,142.0938 Q208.9219,140.4219 208.9219,137.3125 Q208.9219,134.1875 210.2344,132.5313 Q211.5625,130.875 214.0469,130.875 Q214.7656,130.875 215.4219,131.0313 Q216.0625,131.1875 216.625,131.4844 L216.625,134.2031 Q216.2656,133.8594 215.9688,133.6719 Q215.6719,133.4688 215.4063,133.3438 Q215.0938,133.2031 214.7813,133.1406 Q214.4844,133.0781 214.1719,133.0781 Q212.8438,133.0781 212.1563,134.1406 Q211.4688,135.2344 211.4688,137.3125 Q211.4688,139.4063 212.1563,140.4688 Q212.8438,141.5469 214.1719,141.5469 Q214.8125,141.5469 215.4063,141.2656 Q215.7031,141.1406 215.9844,140.9531 Q216.2813,140.75 216.625,140.4219 L216.625,143.1406 Q216.0469,143.4375 215.4063,143.5938 Q214.7813,143.7344 214.0469,143.7344 Z " fill="#000000"/><text fill="#000000" font-family="sans-serif" font-size="12" lengthAdjust="spacing" textLength="37" x="234.75" y="141.656">Server</text><rect fill="#EEEBDC" height="18.3441" style="stroke:#000000;stroke-width:1.0;stroke-dasharray:2.0,2.0;" width="46" x="437.5" y="118"/><text fill="#000000" font-family="sans-serif" font-size="12" font-style="italic" lengthAdjust="spacing" textLength="44" x="438.5" y="131.8281">Req, Res</text><line style="stroke:#A80036;stroke-width:1.5;" x1="42.5" x2="479.5" y1="153" y2="153"/><line style="stroke:#A80036;stroke-width:1.5;" x1="42.5" x2="479.5" y1="161" y2="161"/><text fill="#000000" font-family="sans-serif" font-size="11" lengthAdjust="spacing" textLength="418" x="47.5" y="176.7589">Server(serviceDescription: ServiceDescription&amp;, serverOptions: ServerOptions&amp;)</text><text fill="#000000" font-family="sans-serif" font-size="11" lengthAdjust="spacing" textLength="119" x="47.5" y="191.7408">getUid(): UniquePortId</text><text fill="#000000" font-family="sans-serif" font-size="11" lengthAdjust="spacing" textLength="231" x="47.5" y="206.7227">getServiceDescription(): ServiceDescription&amp;</text><text fill="#000000" font-family="sans-serif" font-size="11" lengthAdjust="spacing" textLength="61" x="47.5" y="221.7046">offer(): void</text><text fill="#000000" font-family="sans-serif" font-size="11" lengthAdjust="spacing" textLength="86" x="47.5" y="236.6865">stopOffer(): void</text><text fill="#000000" font-family="sans-serif" font-size="11" lengthAdjust="spacing" textLength="85" x="47.5" y="251.6684">isOffered(): bool</text><text fill="#000000" font-family="sans-serif" font-size="11" lengthAdjust="spacing" textLength="89" x="47.5" y="266.6502">hasClients(): bool</text><text fill="#000000" font-family="sans-serif" font-size="11" lengthAdjust="spacing" textLength="101" x="47.5" y="281.6321">hasRequests(): bool</text><text fill="#000000" font-family="sans-serif" font-size="11" lengthAdjust="spacing" textLength="281" x="47.5" y="296.614">take(): expected&lt;Request&lt;Req&gt;, ServerRequestResult&gt;</text><text fill="#000000" font-family="sans-serif" font-size="11" lengthAdjust="spacing" textLength="161" x="47.5" y="311.5959">releaseQueuedRequests(): void</text><text fill="#000000" font-family="sans-serif" font-size="11" lengthAdjust="spacing" textLength="137" x="47.5" y="326.5778">hasMissedRequests(): bool</text><text fill="#000000" font-family="sans-serif" font-size="11" lengthAdjust="spacing" textLength="427" x="47.5" y="341.5597">loan(request: Request&lt;Req&gt;&amp;, Args...): expected&lt;Response&lt;Res&gt;, AllocationError&gt;</text><text fill="#000000" font-family="sans-serif" font-size="11" lengthAdjust="spacing" textLength="318" x="47.5" y="356.5416">send(response: Response&lt;Res&gt;): expected&lt;ServerSendError&gt;</text><!--MD5=[13fb849c6dfc9273db4c5b2c7ac96a10]
class Publisher--><rect codeLine="34" fill="#FEFECE" filter="url(#f7k70izyfqtd5)" height="48" id="Publisher" style="stroke:#A80036;stroke-width:1.5;" width="84" x="967" y="218.5"/><ellipse cx="982" cy="234.5" fill="#ADD1B2" rx="11" ry="11" style="stroke:#A80036;stroke-width:1.0;"/><path d="M981.7969,241.2344 Q979.3125,241.2344 977.9844,239.5938 Q976.6719,237.9219 976.6719,234.8125 Q976.6719,231.6875 977.9844,230.0313 Q979.3125,228.375 981.7969,228.375 Q982.5156,228.375 983.1719,228.5313 Q983.8125,228.6875 984.375,228.9844 L984.375,231.7031 Q984.0156,231.3594 983.7188,231.1719 Q983.4219,230.9688 983.1563,230.8438 Q982.8438,230.7031 982.5313,230.6406 Q982.2344,230.5781 981.9219,230.5781 Q980.5938,230.5781 979.9063,231.6406 Q979.2188,232.7344 979.2188,234.8125 Q979.2188,236.9063 979.9063,237.9688 Q980.5938,239.0469 981.9219,239.0469 Q982.5625,239.0469 983.1563,238.7656 Q983.4531,238.6406 983.7344,238.4531 Q984.0313,238.25 984.375,237.9219 L984.375,240.6406 Q983.7969,240.9375 983.1563,241.0938 Q982.5313,241.2344 981.7969,241.2344 Z " fill="#000000"/><text fill="#000000" font-family="sans-serif" font-size="12" lengthAdjust="spacing" textLength="52" x="996" y="239.156">Publisher</text><line style="stroke:#A80036;stroke-width:1.5;" x1="968" x2="1050" y1="250.5" y2="250.5"/><line style="stroke:#A80036;stroke-width:1.5;" x1="968" x2="1050" y1="258.5" y2="258.5"/><!--MD5=[9681492165142af2a4a3a169d90ee8d4]
class Sample--><rect codeLine="63" fill="#FEFECE" filter="url(#f7k70izyfqtd5)" height="122.9094" id="Sample" style="stroke:#A80036;stroke-width:1.5;" width="444" x="1069" y="618"/><ellipse cx="1253.75" cy="634" fill="#ADD1B2" rx="11" ry="11" style="stroke:#A80036;stroke-width:1.0;"/><path d="M1253.5469,640.7344 Q1251.0625,640.7344 1249.7344,639.0938 Q1248.4219,637.4219 1248.4219,634.3125 Q1248.4219,631.1875 1249.7344,629.5313 Q1251.0625,627.875 1253.5469,627.875 Q1254.2656,627.875 1254.9219,628.0313 Q1255.5625,628.1875 1256.125,628.4844 L1256.125,631.2031 Q1255.7656,630.8594 1255.4688,630.6719 Q1255.1719,630.4688 1254.9063,630.3438 Q1254.5938,630.2031 1254.2813,630.1406 Q1253.9844,630.0781 1253.6719,630.0781 Q1252.3438,630.0781 1251.6563,631.1406 Q1250.9688,632.2344 1250.9688,634.3125 Q1250.9688,636.4063 1251.6563,637.4688 Q1252.3438,638.5469 1253.6719,638.5469 Q1254.3125,638.5469 1254.9063,638.2656 Q1255.2031,638.1406 1255.4844,637.9531 Q1255.7813,637.75 1256.125,637.4219 L1256.125,640.1406 Q1255.5469,640.4375 1254.9063,640.5938 Q1254.2813,640.7344 1253.5469,640.7344 Z " fill="#000000"/><text fill="#000000" font-family="sans-serif" font-size="12" lengthAdjust="spacing" textLength="42" x="1274.25" y="638.656">Sample</text><rect fill="#EEEBDC" height="18.3441" style="stroke:#000000;stroke-width:1.0;stroke-dasharray:2.0,2.0;" width="22" x="1494" y="615"/><text fill="#000000" font-family="sans-serif" font-size="12" font-style="italic" lengthAdjust="spacing" textLength="20" x="1495" y="628.8281">T, H</text><line style="stroke:#A80036;stroke-width:1.5;" x1="1070" x2="1512" y1="650" y2="650"/><line style="stroke:#A80036;stroke-width:1.5;" x1="1070" x2="1512" y1="658" y2="658"/><text fill="#000000" font-family="sans-serif" font-size="11" lengthAdjust="spacing" textLength="432" x="1075" y="673.7589">Sample(sampleUniquePtr: unique_ptr&lt;T&gt;&amp;&amp;, publisher: PublisherInterface&lt;T, H&gt;&amp;)</text><text fill="#000000" font-family="sans-serif" font-size="11" lengthAdjust="spacing" textLength="264" x="1075" y="688.7408">Sample(sampleUniquePtr: unique_ptr&lt;const T&gt;&amp;&amp;)</text><text fill="#000000" font-family="sans-serif" font-size="11" lengthAdjust="spacing" textLength="105" x="1075" y="703.7227">getUserHeader(): H*</text><text fill="#000000" font-family="sans-serif" font-size="11" lengthAdjust="spacing" textLength="167" x="1075" y="718.7046">getUserHeader() const: const H*</text><text fill="#000000" font-family="sans-serif" font-size="11" lengthAdjust="spacing" textLength="74" x="1075" y="733.6865">publish(): void</text><!--MD5=[0851f84a889f989e7bb0bebc385d0f09]
class Request--><rect codeLine="71" fill="#FEFECE" filter="url(#f7k70izyfqtd5)" height="122.9094" id="Request" style="stroke:#A80036;stroke-width:1.5;" width="466" x="568" y="618"/><ellipse cx="762.25" cy="634" fill="#ADD1B2" rx="11" ry="11" style="stroke:#A80036;stroke-width:1.0;"/><path d="M762.0469,640.7344 Q759.5625,640.7344 758.2344,639.0938 Q756.9219,637.4219 756.9219,634.3125 Q756.9219,631.1875 758.2344,629.5313 Q759.5625,627.875 762.0469,627.875 Q762.7656,627.875 763.4219,628.0313 Q764.0625,628.1875 764.625,628.4844 L764.625,631.2031 Q764.2656,630.8594 763.9688,630.6719 Q763.6719,630.4688 763.4063,630.3438 Q763.0938,630.2031 762.7813,630.1406 Q762.4844,630.0781 762.1719,630.0781 Q760.8438,630.0781 760.1563,631.1406 Q759.4688,632.2344 759.4688,634.3125 Q759.4688,636.4063 760.1563,637.4688 Q760.8438,638.5469 762.1719,638.5469 Q762.8125,638.5469 763.4063,638.2656 Q763.7031,638.1406 763.9844,637.9531 Q764.2813,637.75 764.625,637.4219 L764.625,640.1406 Q764.0469,640.4375 763.4063,640.5938 Q762.7813,640.7344 762.0469,640.7344 Z " fill="#000000"/><text fill="#000000" font-family="sans-serif" font-size="12" lengthAdjust="spacing" textLength="45" x="782.75" y="638.656">Request</text><rect fill="#EEEBDC" height="18.3441" style="stroke:#000000;stroke-width:1.0;stroke-dasharray:2.0,2.0;" width="22" x="1015" y="615"/><text fill="#000000" font-family="sans-serif" font-size="12" font-style="italic" lengthAdjust="spacing" textLength="20" x="1016" y="628.8281">Req</text><line style="stroke:#A80036;stroke-width:1.5;" x1="569" x2="1033" y1="650" y2="650"/><line style="stroke:#A80036;stroke-width:1.5;" x1="569" x2="1033" y1="658" y2="658"/><text fill="#000000" font-family="sans-serif" font-size="11" lengthAdjust="spacing" textLength="454" x="574" y="673.7589">Request(requestUniquePtr: unique_ptr&lt;Req&gt;&amp;&amp;, client: RpcInterface&lt;Request&lt;Req&gt;&gt;&amp;)</text><text fill="#000000" font-family="sans-serif" font-size="11" lengthAdjust="spacing" textLength="285" x="574" y="688.7408">Request(requestUniquePtr: unique_ptr&lt;const Req&gt;&amp;&amp;)</text><text fill="#000000" font-family="sans-serif" font-size="11" lengthAdjust="spacing" textLength="197" x="574" y="703.7227">getRequestHeader(): RequestHeader&amp;</text><text fill="#000000" font-family="sans-serif" font-size="11" lengthAdjust="spacing" textLength="259" x="574" y="718.7046">getRequestHeader() const: const RequestHeader&amp;</text><text fill="#000000" font-family="sans-serif" font-size="11" lengthAdjust="spacing" textLength="180" x="574" y="733.6865">send(): expected&lt;ClientSendError&gt;</text><!--MD5=[62ba8ad8b61caf20139235a169a8c31d]
class Response--><rect codeLine="79" fill="#FEFECE" filter="url(#f7k70izyfqtd5)" height="122.9094" id="Response" style="stroke:#A80036;stroke-width:1.5;" width="491" x="41.5" y="618"/><ellipse cx="244.75" cy="634" fill="#ADD1B2" rx="11" ry="11" style="stroke:#A80036;stroke-width:1.0;"/><path d="M244.5469,640.7344 Q242.0625,640.7344 240.7344,639.0938 Q239.4219,637.4219 239.4219,634.3125 Q239.4219,631.1875 240.7344,629.5313 Q242.0625,627.875 244.5469,627.875 Q245.2656,627.875 245.9219,628.0313 Q246.5625,628.1875 247.125,628.4844 L247.125,631.2031 Q246.7656,630.8594 246.4688,630.6719 Q246.1719,630.4688 245.9063,630.3438 Q245.5938,630.2031 245.2813,630.1406 Q244.9844,630.0781 244.6719,630.0781 Q243.3438,630.0781 242.6563,631.1406 Q241.9688,632.2344 241.9688,634.3125 Q241.9688,636.4063 242.6563,637.4688 Q243.3438,638.5469 244.6719,638.5469 Q245.3125,638.5469 245.9063,638.2656 Q246.2031,638.1406 246.4844,637.9531 Q246.7813,637.75 247.125,637.4219 L247.125,640.1406 Q246.5469,640.4375 245.9063,640.5938 Q245.2813,640.7344 244.5469,640.7344 Z " fill="#000000"/><text fill="#000000" font-family="sans-serif" font-size="12" lengthAdjust="spacing" textLength="54" x="265.25" y="638.656">Response</text><rect fill="#EEEBDC" height="18.3441" style="stroke:#000000;stroke-width:1.0;stroke-dasharray:2.0,2.0;" width="20" x="515.5" y="615"/><text fill="#000000" font-family="sans-serif" font-size="12" font-style="italic" lengthAdjust="spacing" textLength="18" x="516.5" y="628.8281">Res</text><line style="stroke:#A80036;stroke-width:1.5;" x1="42.5" x2="531.5" y1="650" y2="650"/><line style="stroke:#A80036;stroke-width:1.5;" x1="42.5" x2="531.5" y1="658" y2="658"/><text fill="#000000" font-family="sans-serif" font-size="11" lengthAdjust="spacing" textLength="479" x="47.5" y="673.7589">Response(responseUniquePtr: unique_ptr&lt;Res&gt;&amp;&amp;, server: RpcInterface&lt;Response&lt;Res&gt;&gt;&amp;)</text><text fill="#000000" font-family="sans-serif" font-size="11" lengthAdjust="spacing" textLength="299" x="47.5" y="688.7408">Response(responseUniquePtr: unique_ptr&lt;const Res&gt;&amp;&amp;)</text><text fill="#000000" font-family="sans-serif" font-size="11" lengthAdjust="spacing" textLength="213" x="47.5" y="703.7227">getResponseHeader(): ResponseHeader&amp;</text><text fill="#000000" font-family="sans-serif" font-size="11" lengthAdjust="spacing" textLength="275" x="47.5" y="718.7046">getResponseHeader() const: const ResponseHeader&amp;</text><text fill="#000000" font-family="sans-serif" font-size="11" lengthAdjust="spacing" textLength="184" x="47.5" y="733.6865">send(): expected&lt;ServerSendError&gt;</text><!--MD5=[2fa57c88a2a661e4d0f335e26d4f1a7f]
class SmartChunk--><rect codeLine="38" fill="#FEFECE" filter="url(#f7k70izyfqtd5)" height="212.8008" id="SmartChunk" style="stroke:#A80036;stroke-width:1.5;" width="439" x="581.5" y="801"/><ellipse cx="687.75" cy="817" fill="#ADD1B2" rx="11" ry="11" style="stroke:#A80036;stroke-width:1.0;"/><path d="M687.5469,823.7344 Q685.0625,823.7344 683.7344,822.0938 Q682.4219,820.4219 682.4219,817.3125 Q682.4219,814.1875 683.7344,812.5313 Q685.0625,810.875 687.5469,810.875 Q688.2656,810.875 688.9219,811.0313 Q689.5625,811.1875 690.125,811.4844 L690.125,814.2031 Q689.7656,813.8594 689.4688,813.6719 Q689.1719,813.4688 688.9063,813.3438 Q688.5938,813.2031 688.2813,813.1406 Q687.9844,813.0781 687.6719,813.0781 Q686.3438,813.0781 685.6563,814.1406 Q684.9688,815.2344 684.9688,817.3125 Q684.9688,819.4063 685.6563,820.4688 Q686.3438,821.5469 687.6719,821.5469 Q688.3125,821.5469 688.9063,821.2656 Q689.2031,821.1406 689.4844,820.9531 Q689.7813,820.75 690.125,820.4219 L690.125,823.1406 Q689.5469,823.4375 688.9063,823.5938 Q688.2813,823.7344 687.5469,823.7344 Z " fill="#000000"/><text fill="#000000" font-family="sans-serif" font-size="12" lengthAdjust="spacing" textLength="69" x="708.25" y="821.656">SmartChunk</text><rect fill="#EEEBDC" height="18.3441" style="stroke:#000000;stroke-width:1.0;stroke-dasharray:2.0,2.0;" width="147" x="876.5" y="798"/><text fill="#000000" font-family="sans-serif" font-size="12" font-style="italic" lengthAdjust="spacing" textLength="145" x="877.5" y="811.8281">TransmissionInterface, T, H</text><line style="stroke:#A80036;stroke-width:1.5;" x1="582.5" x2="1019.5" y1="833" y2="833"/><line style="stroke:#A80036;stroke-width:1.5;" x1="582.5" x2="1019.5" y1="841" y2="841"/><text fill="#000000" font-family="sans-serif" font-size="11" lengthAdjust="spacing" textLength="427" x="587.5" y="856.7589">SmartChunk(chunkUniquePtr: unique_ptr&lt;T&gt;&amp;&amp;, sender: TransmissionInterface&amp;)</text><text fill="#000000" font-family="sans-serif" font-size="11" lengthAdjust="spacing" textLength="286" x="587.5" y="871.7408">SmartChunk(chunkUniquePtr: unique_ptr&lt;const T&gt;&amp;&amp;)</text><text fill="#000000" font-family="sans-serif" font-size="11" lengthAdjust="spacing" textLength="81" x="587.5" y="886.7227">operator-&gt;(): T*</text><text fill="#000000" font-family="sans-serif" font-size="11" lengthAdjust="spacing" textLength="143" x="587.5" y="901.7046">operator-&gt;() const: const T*</text><text fill="#000000" font-family="sans-serif" font-size="11" lengthAdjust="spacing" textLength="79" x="587.5" y="916.6865">operator*(): T&amp;</text><text fill="#000000" font-family="sans-serif" font-size="11" lengthAdjust="spacing" textLength="141" x="587.5" y="931.6684">operator*() const: const T&amp;</text><text fill="#000000" font-family="sans-serif" font-size="11" lengthAdjust="spacing" textLength="111" x="587.5" y="946.6502">operator bool() const</text><text fill="#000000" font-family="sans-serif" font-size="11" lengthAdjust="spacing" textLength="41" x="587.5" y="961.6321">get(): T*</text><text fill="#000000" font-family="sans-serif" font-size="11" lengthAdjust="spacing" textLength="103" x="587.5" y="976.614">get() const: const T*</text><text fill="#000000" font-family="sans-serif" font-size="11" lengthAdjust="spacing" textLength="179" x="587.5" y="991.5959">getChunkHeader(): ChunkHeader*</text><text fill="#000000" font-family="sans-serif" font-size="11" lengthAdjust="spacing" textLength="241" x="587.5" y="1006.5778">getChunkHeader() const: const ChunkHeader*</text><path d="M1055.5,876 L1055.5,903.5 L1020.61,907.5 L1055.5,911.5 L1055.5,939.118 A0,0 0 0 0 1055.5,939.118 L1382.5,939.118 A0,0 0 0 0 1382.5,939.118 L1382.5,886 L1372.5,876 L1055.5,876 A0,0 0 0 0 1055.5,876 " fill="#FBFB77" filter="url(#f7k70izyfqtd5)" style="stroke:#A80036;stroke-width:1.0;"/><path d="M1372.5,876 L1372.5,886 L1382.5,886 L1372.5,876 " fill="#FBFB77" style="stroke:#A80036;stroke-width:1.0;"/><text fill="#000000" font-family="sans-serif" font-size="13" lengthAdjust="spacing" textLength="306" x="1061.5" y="894.897">ForProducerOnly and ForConsumerOnly type traits</text><text fill="#000000" font-family="sans-serif" font-size="13" lengthAdjust="spacing" textLength="254" x="1061.5" y="912.603">restrict access to some ctors and methods,</text><text fill="#000000" font-family="sans-serif" font-size="13" lengthAdjust="spacing" textLength="211" x="1061.5" y="930.309">like no non-const access to payload</text><!--MD5=[1a4e3e2f3ff35c5025a142ebd7418a60]
class PublisherInterface--><rect codeLine="54" fill="#FEFECE" filter="url(#f7k70izyfqtd5)" height="62.9819" id="PublisherInterface" style="stroke:#A80036;stroke-width:1.5;" width="199" x="909.5" y="424"/><ellipse cx="944.75" cy="440" fill="#B4A7E5" rx="11" ry="11" style="stroke:#A80036;stroke-width:1.0;"/><path d="M941.1719,444.3438 L943.6406,444.3438 L943.6406,436.2656 L941.1719,436.2656 L941.1719,434.1094 L948.5625,434.1094 L948.5625,436.2656 L946.0938,436.2656 L946.0938,444.3438 L948.5625,444.3438 L948.5625,446.5 L941.1719,446.5 L941.1719,444.3438 Z " fill="#000000"/><text fill="#000000" font-family="sans-serif" font-size="12" font-style="italic" lengthAdjust="spacing" textLength="98" x="963.25" y="444.656">PublisherInterface</text><rect fill="#EEEBDC" height="18.3441" style="stroke:#000000;stroke-width:1.0;stroke-dasharray:2.0,2.0;" width="22" x="1089.5" y="421"/><text fill="#000000" font-family="sans-serif" font-size="12" font-style="italic" lengthAdjust="spacing" textLength="20" x="1090.5" y="434.8281">T, H</text><line style="stroke:#A80036;stroke-width:1.5;" x1="910.5" x2="1107.5" y1="456" y2="456"/><line style="stroke:#A80036;stroke-width:1.5;" x1="910.5" x2="1107.5" y1="464" y2="464"/><text fill="#000000" font-family="sans-serif" font-size="11" lengthAdjust="spacing" textLength="187" x="915.5" y="479.7589">publish(sample: Sample&lt;T, H&gt;): void</text><!--MD5=[486175ef964b0839dd18eb8a9ee30ed8]
class RpcInterface--><rect codeLine="58" fill="#FEFECE" filter="url(#f7k70izyfqtd5)" height="62.9819" id="RpcInterface" style="stroke:#A80036;stroke-width:1.5;" width="147" x="418.5" y="424"/><ellipse cx="433.5" cy="440" fill="#B4A7E5" rx="11" ry="11" style="stroke:#A80036;stroke-width:1.0;"/><path d="M429.9219,444.3438 L432.3906,444.3438 L432.3906,436.2656 L429.9219,436.2656 L429.9219,434.1094 L437.3125,434.1094 L437.3125,436.2656 L434.8438,436.2656 L434.8438,444.3438 L437.3125,444.3438 L437.3125,446.5 L429.9219,446.5 L429.9219,444.3438 Z " fill="#000000"/><text fill="#000000" font-family="sans-serif" font-size="12" font-style="italic" lengthAdjust="spacing" textLength="67" x="447.5" y="444.656">RpcInterface</text><rect fill="#EEEBDC" height="18.3441" style="stroke:#000000;stroke-width:1.0;stroke-dasharray:2.0,2.0;" width="46" x="522.5" y="421"/><text fill="#000000" font-family="sans-serif" font-size="12" font-style="italic" lengthAdjust="spacing" textLength="44" x="523.5" y="434.8281">RpcType</text><line style="stroke:#A80036;stroke-width:1.5;" x1="419.5" x2="564.5" y1="456" y2="456"/><line style="stroke:#A80036;stroke-width:1.5;" x1="419.5" x2="564.5" y1="464" y2="464"/><text fill="#000000" font-family="sans-serif" font-size="11" lengthAdjust="spacing" textLength="127" x="424.5" y="479.7589">send(rpc: RpcType): void</text><path d="M836,6 L836,51.412 A0,0 0 0 0 836,51.412 L1005,51.412 L1009,218.45 L1013,51.412 L1182,51.412 A0,0 0 0 0 1182,51.412 L1182,16 L1172,6 L836,6 A0,0 0 0 0 836,6 " fill="#FBFB77" filter="url(#f7k70izyfqtd5)" style="stroke:#A80036;stroke-width:1.0;"/><path d="M1172,6 L1172,16 L1182,16 L1172,6 " fill="#FBFB77" style="stroke:#A80036;stroke-width:1.0;"/><text fill="#000000" font-family="sans-serif" font-size="13" lengthAdjust="spacing" textLength="218" x="842" y="24.897">This is not used by request-response</text><text fill="#000000" font-family="sans-serif" font-size="13" lengthAdjust="spacing" textLength="325" x="842" y="42.603">and just added to show the similar concepts in the API.</text><!--MD5=[4162ef892c3a2ccf7a6e7265be918e65]
link Publisher to PublisherInterface--><path codeLine="90" d="M1009,266.89 C1009,303.7 1009,375.41 1009,418.72 " fill="none" id="Publisher-to-PublisherInterface" style="stroke:#A80036;stroke-width:1.0;"/><polygon fill="#A80036" points="1009,423.86,1013,414.86,1009,418.86,1005,414.86,1009,423.86" style="stroke:#A80036;stroke-width:1.0;"/><!--MD5=[c7a3ccbf4722a82088835254a27868b0]
link Client to RpcInterface--><path codeLine="91" d="M599.51,356.72 C573.91,380 548.87,402.78 529.4,420.48 " fill="none" id="Client-to-RpcInterface" style="stroke:#A80036;stroke-width:1.0;"/><polygon fill="#A80036" points="525.59,423.95,534.9431,420.8647,529.2929,420.5902,529.5674,414.94,525.59,423.95" style="stroke:#A80036;stroke-width:1.0;"/><!--MD5=[eed270aeaf549aa49deb0636758ea025]
link Server to RpcInterface--><path codeLine="92" d="M393.03,364.1 C415.58,384.7 437.27,404.51 454.57,420.31 " fill="none" id="Server-to-RpcInterface" style="stroke:#A80036;stroke-width:1.0;"/><polygon fill="#A80036" points="458.42,423.83,454.4616,414.8116,454.7242,420.4624,449.0734,420.7249,458.42,423.83" style="stroke:#A80036;stroke-width:1.0;"/><!--MD5=[0f93a8b029fbd230747008e1e14fce4e]
link Group1 to Group2--><!--MD5=[99418a084cf9cc4b3b139951cbe4cee6]
link Sample to SmartChunk--><path codeLine="96" d="M1159.69,741.06 C1118.3,760.15 1071.36,781.8 1025.39,803.01 " fill="none" id="Sample-to-SmartChunk" style="stroke:#A80036;stroke-width:1.0;"/><polygon fill="#A80036" points="1020.65,805.19,1030.4976,805.0326,1025.186,803.0865,1027.1321,797.775,1020.65,805.19" style="stroke:#A80036;stroke-width:1.0;"/><!--MD5=[d5b8d6b9d0b23d26b69c35dea68f1a5d]
link Request to SmartChunk--><path codeLine="97" d="M801,741.06 C801,757.92 801,776.77 801,795.54 " fill="none" id="Request-to-SmartChunk" style="stroke:#A80036;stroke-width:1.0;"/><polygon fill="#A80036" points="801,800.83,805,791.83,801,795.83,797,791.83,801,800.83" style="stroke:#A80036;stroke-width:1.0;"/><!--MD5=[a43eb62d00420a404fe3a3defbc4a436]
link Response to SmartChunk--><path codeLine="98" d="M424.74,741.06 C471.51,761.62 525.04,785.16 576.77,807.91 " fill="none" id="Response-to-SmartChunk" style="stroke:#A80036;stroke-width:1.0;"/><polygon fill="#A80036" points="581.45,809.96,574.8269,802.6706,576.8745,807.9439,571.6012,809.9915,581.45,809.96" style="stroke:#A80036;stroke-width:1.0;"/></g></svg>