<?xml version="1.0" encoding="UTF-8" standalone="no"?><svg xmlns="http://www.w3.org/2000/svg" xmlns:xlink="http://www.w3.org/1999/xlink" contentScriptType="application/ecmascript" contentStyleType="text/css" height="293px" preserveAspectRatio="none" style="width:1194px;height:293px;background:#EEEBDC;" version="1.1" viewBox="0 0 1194 293" width="1194px" zoomAndPan="magnify"><defs><filter height="300%" id="ftc35b56b85sf" width="300%" x="-1" y="-1"><feGaussianBlur result="blurOut" stdDeviation="2.0"/><feColorMatrix in="blurOut" result="blurOut2" type="matrix" values="0 0 0 0 0 0 0 0 0 0 0 0 0 0 0 0 0 0 .4 0"/><feOffset dx="4.0" dy="4.0" in="blurOut2" result="blurOut3"/><feBlend in="SourceGraphic" in2="blurOut3" mode="normal"/></filter></defs><g><!--MD5=[7c46b07ee330a5ac83506660f79e9eba]
class UntypedClient--><rect codeLine="2" fill="#FEFECE" filter="url(#ftc35b56b85sf)" height="257.7464" id="UntypedClient" style="stroke:#A80036;stroke-width:1.5;" width="481" x="7" y="14.5"/><ellipse cx="203.75" cy="30.5" fill="#ADD1B2" rx="11" ry="11" style="stroke:#A80036;stroke-width:1.0;"/><path d="M203.5469,37.2344 Q201.0625,37.2344 199.7344,35.5938 Q198.4219,33.9219 198.4219,30.8125 Q198.4219,27.6875 199.7344,26.0313 Q201.0625,24.375 203.5469,24.375 Q204.2656,24.375 204.9219,24.5313 Q205.5625,24.6875 206.125,24.9844 L206.125,27.7031 Q205.7656,27.3594 205.4688,27.1719 Q205.1719,26.9688 204.9063,26.8438 Q204.5938,26.7031 204.2813,26.6406 Q203.9844,26.5781 203.6719,26.5781 Q202.3438,26.5781 201.6563,27.6406 Q200.9688,28.7344 200.9688,30.8125 Q200.9688,32.9063 201.6563,33.9688 Q202.3438,35.0469 203.6719,35.0469 Q204.3125,35.0469 204.9063,34.7656 Q205.2031,34.6406 205.4844,34.4531 Q205.7813,34.25 206.125,33.9219 L206.125,36.6406 Q205.5469,36.9375 204.9063,37.0938 Q204.2813,37.2344 203.5469,37.2344 Z " fill="#000000"/><text fill="#000000" font-family="sans-serif" font-size="12" lengthAdjust="spacing" textLength="79" x="224.25" y="35.156">UntypedClient</text><line style="stroke:#A80036;stroke-width:1.5;" x1="8" x2="487" y1="46.5" y2="46.5"/><line style="stroke:#A80036;stroke-width:1.5;" x1="8" x2="487" y1="54.5" y2="54.5"/><text fill="#000000" font-family="sans-serif" font-size="11" lengthAdjust="spacing" textLength="450" x="13" y="70.2589">UntypedClient(serviceDescription: ServiceDescription&amp;, clientOptions: ClientOptions&amp;)</text><text fill="#000000" font-family="sans-serif" font-size="11" lengthAdjust="spacing" textLength="119" x="13" y="85.2408">getUid(): UniquePortId</text><text fill="#000000" font-family="sans-serif" font-size="11" lengthAdjust="spacing" textLength="231" x="13" y="100.2227">getServiceDescription(): ServiceDescription&amp;</text><text fill="#000000" font-family="sans-serif" font-size="11" lengthAdjust="spacing" textLength="76" x="13" y="115.2046">connect(): void</text><text fill="#000000" font-family="sans-serif" font-size="11" lengthAdjust="spacing" textLength="91" x="13" y="130.1865">disconnect(): void</text><text fill="#000000" font-family="sans-serif" font-size="11" lengthAdjust="spacing" textLength="201" x="13" y="145.1684">getConnectionState(): ConnectionState</text><text fill="#000000" font-family="sans-serif" font-size="11" lengthAdjust="spacing" textLength="469" x="13" y="160.1502">loan(payloadSize: uint32_t, payloadAlignment: uint32_t): expected&lt;void*, AllocationError&gt;</text><text fill="#000000" font-family="sans-serif" font-size="11" lengthAdjust="spacing" textLength="297" x="13" y="175.1321">send(requestPayload: void*): expected&lt;ClientSendError&gt;</text><text fill="#000000" font-family="sans-serif" font-size="11" lengthAdjust="spacing" textLength="231" x="13" y="190.114">releaseRequest(requestPayload: void*): void</text><text fill="#000000" font-family="sans-serif" font-size="11" lengthAdjust="spacing" textLength="109" x="13" y="205.0959">hasResponses(): bool</text><text fill="#000000" font-family="sans-serif" font-size="11" lengthAdjust="spacing" textLength="208" x="13" y="220.0778">take(): expected&lt;void*, AllocationError&gt;</text><text fill="#000000" font-family="sans-serif" font-size="11" lengthAdjust="spacing" textLength="247" x="13" y="235.0597">releaseResponse(responsePayload: void*): void</text><text fill="#000000" font-family="sans-serif" font-size="11" lengthAdjust="spacing" textLength="169" x="13" y="250.0416">releaseQueuedResponses(): void</text><text fill="#000000" font-family="sans-serif" font-size="11" lengthAdjust="spacing" textLength="145" x="13" y="265.0235">hasMissedResponses(): bool</text><!--MD5=[44227b1ab5d0bc37f306ef65b6104f3a]
class UntypedServer--><rect codeLine="19" fill="#FEFECE" filter="url(#ftc35b56b85sf)" height="272.7283" id="UntypedServer" style="stroke:#A80036;stroke-width:1.5;" width="657" x="523" y="7"/><ellipse cx="805.25" cy="23" fill="#ADD1B2" rx="11" ry="11" style="stroke:#A80036;stroke-width:1.0;"/><path d="M805.0469,29.7344 Q802.5625,29.7344 801.2344,28.0938 Q799.9219,26.4219 799.9219,23.3125 Q799.9219,20.1875 801.2344,18.5313 Q802.5625,16.875 805.0469,16.875 Q805.7656,16.875 806.4219,17.0313 Q807.0625,17.1875 807.625,17.4844 L807.625,20.2031 Q807.2656,19.8594 806.9688,19.6719 Q806.6719,19.4688 806.4063,19.3438 Q806.0938,19.2031 805.7813,19.1406 Q805.4844,19.0781 805.1719,19.0781 Q803.8438,19.0781 803.1563,20.1406 Q802.4688,21.2344 802.4688,23.3125 Q802.4688,25.4063 803.1563,26.4688 Q803.8438,27.5469 805.1719,27.5469 Q805.8125,27.5469 806.4063,27.2656 Q806.7031,27.1406 806.9844,26.9531 Q807.2813,26.75 807.625,26.4219 L807.625,29.1406 Q807.0469,29.4375 806.4063,29.5938 Q805.7813,29.7344 805.0469,29.7344 Z " fill="#000000"/><text fill="#000000" font-family="sans-serif" font-size="12" lengthAdjust="spacing" textLength="84" x="825.75" y="27.656">UntypedServer</text><line style="stroke:#A80036;stroke-width:1.5;" x1="524" x2="1179" y1="39" y2="39"/><line style="stroke:#A80036;stroke-width:1.5;" x1="524" x2="1179" y1="47" y2="47"/><text fill="#000000" font-family="sans-serif" font-size="11" lengthAdjust="spacing" textLength="463" x="529" y="62.7589">UntypedServer(serviceDescription: ServiceDescription&amp;, serverOptions: ServerOptions&amp;)</text><text fill="#000000" font-family="sans-serif" font-size="11" lengthAdjust="spacing" textLength="119" x="529" y="77.7408">getUid(): UniquePortId</text><text fill="#000000" font-family="sans-serif" font-size="11" lengthAdjust="spacing" textLength="231" x="529" y="92.7227">getServiceDescription(): ServiceDescription&amp;</text><text fill="#000000" font-family="sans-serif" font-size="11" lengthAdjust="spacing" textLength="61" x="529" y="107.7046">offer(): void</text><text fill="#000000" font-family="sans-serif" font-size="11" lengthAdjust="spacing" textLength="83" x="529" y="122.6865">stopOffer():void</text><text fill="#000000" font-family="sans-serif" font-size="11" lengthAdjust="spacing" textLength="85" x="529" y="137.6684">isOffered(): bool</text><text fill="#000000" font-family="sans-serif" font-size="11" lengthAdjust="spacing" textLength="89" x="529" y="152.6502">hasClients(): bool</text><text fill="#000000" font-family="sans-serif" font-size="11" lengthAdjust="spacing" textLength="101" x="529" y="167.6321">hasRequests(): bool</text><text fill="#000000" font-family="sans-serif" font-size="11" lengthAdjust="spacing" textLength="236" x="529" y="182.614">take(): expected&lt;void*, ServerRequestResult&gt;</text><text fill="#000000" font-family="sans-serif" font-size="11" lengthAdjust="spacing" textLength="231" x="529" y="197.5959">releaseRequest(requestPayload: void*): void</text><text fill="#000000" font-family="sans-serif" font-size="11" lengthAdjust="spacing" textLength="161" x="529" y="212.5778">releaseQueuedRequests(): void</text><text fill="#000000" font-family="sans-serif" font-size="11" lengthAdjust="spacing" textLength="137" x="529" y="227.5597">hasMissedRequests(): bool</text><text fill="#000000" font-family="sans-serif" font-size="11" lengthAdjust="spacing" textLength="645" x="529" y="242.5416">loan(requestHeader: RequestHeader*, payloadSize: uint32_t, payloadAlignment: uint32_t): expected&lt;void*, AllocationError&gt;</text><text fill="#000000" font-family="sans-serif" font-size="11" lengthAdjust="spacing" textLength="309" x="529" y="257.5235">send(responsePayload: void*): expected&lt;ServerSendError&gt;</text><text fill="#000000" font-family="sans-serif" font-size="11" lengthAdjust="spacing" textLength="247" x="529" y="272.5053">releaseResponse(responsePayload: void*): void</text></g></svg>