<?xml version="1.0" encoding="UTF-8" standalone="no"?><svg xmlns="http://www.w3.org/2000/svg" xmlns:xlink="http://www.w3.org/1999/xlink" contentScriptType="application/ecmascript" contentStyleType="text/css" height="263px" preserveAspectRatio="none" style="width:1182px;height:263px;background:#EEEBDC;" version="1.1" viewBox="0 0 1182 263" width="1182px" zoomAndPan="magnify"><defs><filter height="300%" id="f1h9ct4q06vfy8" width="300%" x="-1" y="-1"><feGaussianBlur result="blurOut" stdDeviation="2.0"/><feColorMatrix in="blurOut" result="blurOut2" type="matrix" values="0 0 0 0 0 0 0 0 0 0 0 0 0 0 0 0 0 0 .4 0"/><feOffset dx="4.0" dy="4.0" in="blurOut2" result="blurOut3"/><feBlend in="SourceGraphic" in2="blurOut3" mode="normal"/></filter></defs><g><!--MD5=[7c46b07ee330a5ac83506660f79e9eba]
class UntypedClient--><rect codeLine="2" fill="#FEFECE" filter="url(#f1h9ct4q06vfy8)" height="227.7827" id="UntypedClient" style="stroke:#A80036;stroke-width:1.5;" width="475" x="7" y="14.5"/><ellipse cx="200.75" cy="30.5" fill="#ADD1B2" rx="11" ry="11" style="stroke:#A80036;stroke-width:1.0;"/><path d="M200.5469,37.2344 Q198.0625,37.2344 196.7344,35.5938 Q195.4219,33.9219 195.4219,30.8125 Q195.4219,27.6875 196.7344,26.0313 Q198.0625,24.375 200.5469,24.375 Q201.2656,24.375 201.9219,24.5313 Q202.5625,24.6875 203.125,24.9844 L203.125,27.7031 Q202.7656,27.3594 202.4688,27.1719 Q202.1719,26.9688 201.9063,26.8438 Q201.5938,26.7031 201.2813,26.6406 Q200.9844,26.5781 200.6719,26.5781 Q199.3438,26.5781 198.6563,27.6406 Q197.9688,28.7344 197.9688,30.8125 Q197.9688,32.9063 198.6563,33.9688 Q199.3438,35.0469 200.6719,35.0469 Q201.3125,35.0469 201.9063,34.7656 Q202.2031,34.6406 202.4844,34.4531 Q202.7813,34.25 203.125,33.9219 L203.125,36.6406 Q202.5469,36.9375 201.9063,37.0938 Q201.2813,37.2344 200.5469,37.2344 Z " fill="#000000"/><text fill="#000000" font-family="sans-serif" font-size="12" lengthAdjust="spacing" textLength="79" x="221.25" y="35.156">UntypedClient</text><line style="stroke:#A80036;stroke-width:1.5;" x1="8" x2="481" y1="46.5" y2="46.5"/><line style="stroke:#A80036;stroke-width:1.5;" x1="8" x2="481" y1="54.5" y2="54.5"/><text fill="#000000" font-family="sans-serif" font-size="11" lengthAdjust="spacing" textLength="405" x="13" y="70.2589">Client(serviceDescription: ServiceDescription&amp;, clientOptions: ClientOptions&amp;)</text><text fill="#000000" font-family="sans-serif" font-size="11" lengthAdjust="spacing" textLength="76" x="13" y="85.2408">connect(): void</text><text fill="#000000" font-family="sans-serif" font-size="11" lengthAdjust="spacing" textLength="91" x="13" y="100.2227">disconnect(): void</text><text fill="#000000" font-family="sans-serif" font-size="11" lengthAdjust="spacing" textLength="201" x="13" y="115.2046">getConnectionState(): ConnectionState</text><text fill="#000000" font-family="sans-serif" font-size="11" lengthAdjust="spacing" textLength="463" x="13" y="130.1865">loan(userPayloadSize: uint32_t, userPayloadAlignment: uint32_t): expected&lt;void*, Error&gt;</text><text fill="#000000" font-family="sans-serif" font-size="11" lengthAdjust="spacing" textLength="177" x="13" y="145.1684">send(requestPayload: void*): void</text><text fill="#000000" font-family="sans-serif" font-size="11" lengthAdjust="spacing" textLength="262" x="13" y="160.1502">releaseRequest(requestPayload: const void*): void</text><text fill="#000000" font-family="sans-serif" font-size="11" lengthAdjust="spacing" textLength="109" x="13" y="175.1321">hasResponses(): bool</text><text fill="#000000" font-family="sans-serif" font-size="11" lengthAdjust="spacing" textLength="156" x="13" y="190.114">take(): expected&lt;void*, Error&gt;</text><text fill="#000000" font-family="sans-serif" font-size="11" lengthAdjust="spacing" textLength="247" x="13" y="205.0959">releaseResponse(responsePayload: void*): void</text><text fill="#000000" font-family="sans-serif" font-size="11" lengthAdjust="spacing" textLength="169" x="13" y="220.0778">releaseQueuedResponses(): void</text><text fill="#000000" font-family="sans-serif" font-size="11" lengthAdjust="spacing" textLength="145" x="13" y="235.0597">hasMissedResponses(): bool</text><!--MD5=[44227b1ab5d0bc37f306ef65b6104f3a]
class UntypedServer--><rect codeLine="17" fill="#FEFECE" filter="url(#f1h9ct4q06vfy8)" height="242.7645" id="UntypedServer" style="stroke:#A80036;stroke-width:1.5;" width="651" x="517" y="7"/><ellipse cx="796.25" cy="23" fill="#ADD1B2" rx="11" ry="11" style="stroke:#A80036;stroke-width:1.0;"/><path d="M796.0469,29.7344 Q793.5625,29.7344 792.2344,28.0938 Q790.9219,26.4219 790.9219,23.3125 Q790.9219,20.1875 792.2344,18.5313 Q793.5625,16.875 796.0469,16.875 Q796.7656,16.875 797.4219,17.0313 Q798.0625,17.1875 798.625,17.4844 L798.625,20.2031 Q798.2656,19.8594 797.9688,19.6719 Q797.6719,19.4688 797.4063,19.3438 Q797.0938,19.2031 796.7813,19.1406 Q796.4844,19.0781 796.1719,19.0781 Q794.8438,19.0781 794.1563,20.1406 Q793.4688,21.2344 793.4688,23.3125 Q793.4688,25.4063 794.1563,26.4688 Q794.8438,27.5469 796.1719,27.5469 Q796.8125,27.5469 797.4063,27.2656 Q797.7031,27.1406 797.9844,26.9531 Q798.2813,26.75 798.625,26.4219 L798.625,29.1406 Q798.0469,29.4375 797.4063,29.5938 Q796.7813,29.7344 796.0469,29.7344 Z " fill="#000000"/><text fill="#000000" font-family="sans-serif" font-size="12" lengthAdjust="spacing" textLength="84" x="816.75" y="27.656">UntypedServer</text><line style="stroke:#A80036;stroke-width:1.5;" x1="518" x2="1167" y1="39" y2="39"/><line style="stroke:#A80036;stroke-width:1.5;" x1="518" x2="1167" y1="47" y2="47"/><text fill="#000000" font-family="sans-serif" font-size="11" lengthAdjust="spacing" textLength="418" x="523" y="62.7589">Server(serviceDescription: ServiceDescription&amp;, serverOptions: ServerOptions&amp;)</text><text fill="#000000" font-family="sans-serif" font-size="11" lengthAdjust="spacing" textLength="61" x="523" y="77.7408">offer(): void</text><text fill="#000000" font-family="sans-serif" font-size="11" lengthAdjust="spacing" textLength="83" x="523" y="92.7227">stopOffer():void</text><text fill="#000000" font-family="sans-serif" font-size="11" lengthAdjust="spacing" textLength="85" x="523" y="107.7046">isOffered(): bool</text><text fill="#000000" font-family="sans-serif" font-size="11" lengthAdjust="spacing" textLength="89" x="523" y="122.6865">hasClients(): bool</text><text fill="#000000" font-family="sans-serif" font-size="11" lengthAdjust="spacing" textLength="101" x="523" y="137.6684">hasRequests(): bool</text><text fill="#000000" font-family="sans-serif" font-size="11" lengthAdjust="spacing" textLength="156" x="523" y="152.6502">take(): expected&lt;void*, Error&gt;</text><text fill="#000000" font-family="sans-serif" font-size="11" lengthAdjust="spacing" textLength="231" x="523" y="167.6321">releaseRequest(requestPayload: void*): void</text><text fill="#000000" font-family="sans-serif" font-size="11" lengthAdjust="spacing" textLength="161" x="523" y="182.614">releaseQueuedRequests(): void</text><text fill="#000000" font-family="sans-serif" font-size="11" lengthAdjust="spacing" textLength="137" x="523" y="197.5959">hasMissedRequests(): bool</text><text fill="#000000" font-family="sans-serif" font-size="11" lengthAdjust="spacing" textLength="639" x="523" y="212.5778">loan(requestHeader: RequestHeader*, userPayloadSize: uint32_t, userPayloadAlignment: uint32_t): expected&lt;void*, Error&gt;</text><text fill="#000000" font-family="sans-serif" font-size="11" lengthAdjust="spacing" textLength="185" x="523" y="227.5597">send(responsePayload: void*): void</text><text fill="#000000" font-family="sans-serif" font-size="11" lengthAdjust="spacing" textLength="278" x="523" y="242.5416">releaseResponse(responsePayload: const void*): void</text></g></svg>