<?xml version="1.0" encoding="UTF-8" standalone="no"?><svg xmlns="http://www.w3.org/2000/svg" xmlns:xlink="http://www.w3.org/1999/xlink" contentScriptType="application/ecmascript" contentStyleType="text/css" height="977px" preserveAspectRatio="none" style="width:957px;height:977px;" version="1.1" viewBox="0 0 957 977" width="957px" zoomAndPan="magnify"><defs><filter height="300%" id="fpizquwr6qwv8" width="300%" x="-1" y="-1"><feGaussianBlur result="blurOut" stdDeviation="2.0"/><feColorMatrix in="blurOut" result="blurOut2" type="matrix" values="0 0 0 0 0 0 0 0 0 0 0 0 0 0 0 0 0 0 .4 0"/><feOffset dx="4.0" dy="4.0" in="blurOut2" result="blurOut3"/><feBlend in="SourceGraphic" in2="blurOut3" mode="normal"/></filter></defs><g><text fill="#000000" font-family="sans-serif" font-size="18" lengthAdjust="spacing" textLength="782" x="81" y="16.708">Alternative B: iceoryx-based ECU forwarding CaPro messages to Gateway and User App</text><!--MD5=[45a30aaa2590b6845ebacc5fda1fa0db]
cluster iceoryx instance e.g. electronic control unit--><polygon fill="#FFFFFF" filter="url(#fpizquwr6qwv8)" points="16,26.9531,367,26.9531,374,49.25,597,49.25,597,970.9531,16,970.9531,16,26.9531" style="stroke:#000000;stroke-width:1.5;"/><line style="stroke:#000000;stroke-width:1.5;" x1="16" x2="374" y1="49.25" y2="49.25"/><text fill="#000000" font-family="sans-serif" font-size="14" font-weight="bold" lengthAdjust="spacing" textLength="345" x="20" y="41.9482">iceoryx instance e.g. electronic control unit</text><!--MD5=[1cb72ea523dc46d231cf0e99f20e7c1a]
cluster RouDi--><rect fill="#FFFFFF" filter="url(#fpizquwr6qwv8)" height="74" style="stroke:#000000;stroke-width:1.5;" width="565" x="24" y="53.9531"/><rect fill="#FFFFFF" height="10" style="stroke:#000000;stroke-width:1.5;" width="15" x="569" y="58.9531"/><rect fill="#FFFFFF" height="2" style="stroke:#000000;stroke-width:1.5;" width="4" x="567" y="60.9531"/><rect fill="#FFFFFF" height="2" style="stroke:#000000;stroke-width:1.5;" width="4" x="567" y="64.9531"/><text fill="#000000" font-family="sans-serif" font-size="14" font-weight="bold" lengthAdjust="spacing" textLength="45" x="284" y="79.9482">RouDi</text><!--MD5=[fed0617503037837f4a985188ddc6133]
cluster User App--><rect fill="#FFFFFF" filter="url(#fpizquwr6qwv8)" height="676" style="stroke:#000000;stroke-width:1.5;" width="452" x="77" y="286.9531"/><rect fill="#FFFFFF" height="10" style="stroke:#000000;stroke-width:1.5;" width="15" x="509" y="291.9531"/><rect fill="#FFFFFF" height="2" style="stroke:#000000;stroke-width:1.5;" width="4" x="507" y="293.9531"/><rect fill="#FFFFFF" height="2" style="stroke:#000000;stroke-width:1.5;" width="4" x="507" y="297.9531"/><text fill="#000000" font-family="sans-serif" font-size="14" font-weight="bold" lengthAdjust="spacing" textLength="73" x="266.5" y="312.9482">User App</text><!--MD5=[dee5d70d0d533c7f2af877d0a4cbba83]
cluster ServiceDiscoveryListener--><rect fill="#FFFFFF" filter="url(#fpizquwr6qwv8)" height="641" style="stroke:#000000;stroke-width:1.5;" width="288" x="85" y="313.9531"/><rect fill="#FFFFFF" height="10" style="stroke:#000000;stroke-width:1.5;" width="15" x="353" y="318.9531"/><rect fill="#FFFFFF" height="2" style="stroke:#000000;stroke-width:1.5;" width="4" x="351" y="320.9531"/><rect fill="#FFFFFF" height="2" style="stroke:#000000;stroke-width:1.5;" width="4" x="351" y="324.9531"/><text fill="#000000" font-family="sans-serif" font-size="14" font-weight="bold" lengthAdjust="spacing" textLength="202" x="128" y="339.9482">ServiceDiscoveryListener</text><!--MD5=[2c9a12d02da8d331cac0c4b421f0347b]
cluster DDS instance e.g. electronic control unit--><polygon fill="#FFFFFF" filter="url(#fpizquwr6qwv8)" points="605,174.9531,930,174.9531,937,197.25,940,197.25,940,255.9531,605,255.9531,605,174.9531" style="stroke:#000000;stroke-width:1.5;"/><line style="stroke:#000000;stroke-width:1.5;" x1="605" x2="937" y1="197.25" y2="197.25"/><text fill="#000000" font-family="sans-serif" font-size="14" font-weight="bold" lengthAdjust="spacing" textLength="319" x="609" y="189.9482">DDS instance e.g. electronic control unit</text><!--MD5=[c497a0d15ec852c4fdb32ba44d3aa9da]
entity discoveryLoop--><rect fill="#FEFECE" filter="url(#fpizquwr6qwv8)" height="39.2969" style="stroke:#000000;stroke-width:1.5;" width="365" x="216.5" y="80.9531"/><polygon fill="#FEFECE" points="564.5,85.9531,564.5,99.9531,576.5,99.9531,576.5,91.9531,570.5,85.9531,564.5,85.9531" style="stroke:#000000;stroke-width:1.5;"/><line style="stroke:#000000;stroke-width:1.5;" x1="570.5" x2="570.5" y1="85.9531" y2="91.9531"/><line style="stroke:#000000;stroke-width:1.5;" x1="576.5" x2="570.5" y1="91.9531" y2="91.9531"/><text fill="#000000" font-family="sans-serif" font-size="14" lengthAdjust="spacing" textLength="335" x="226.5" y="106.9482">PortManager::sendToAllMatchingInterfacePorts()</text><!--MD5=[dd82451e1dd92fe3da01853750f49ff6]
entity server--><rect fill="#FEFECE" filter="url(#fpizquwr6qwv8)" height="39.2969" style="stroke:#000000;stroke-width:1.5;" width="150" x="32" y="80.9531"/><polygon fill="#FEFECE" points="165,85.9531,165,99.9531,177,99.9531,177,91.9531,171,85.9531,165,85.9531" style="stroke:#000000;stroke-width:1.5;"/><line style="stroke:#000000;stroke-width:1.5;" x1="171" x2="171" y1="85.9531" y2="91.9531"/><line style="stroke:#000000;stroke-width:1.5;" x1="177" x2="171" y1="91.9531" y2="91.9531"/><text fill="#000000" font-family="sans-serif" font-size="14" lengthAdjust="spacing" textLength="120" x="42" y="106.9482">m_server : Server</text><!--MD5=[4a65e84059005d12693a083370a06717]
entity client--><rect fill="#FEFECE" filter="url(#fpizquwr6qwv8)" height="39.2969" style="stroke:#000000;stroke-width:1.5;" width="139" x="381.5" y="349.4531"/><polygon fill="#FEFECE" points="503.5,354.4531,503.5,368.4531,515.5,368.4531,515.5,360.4531,509.5,354.4531,503.5,354.4531" style="stroke:#000000;stroke-width:1.5;"/><line style="stroke:#000000;stroke-width:1.5;" x1="509.5" x2="509.5" y1="354.4531" y2="360.4531"/><line style="stroke:#000000;stroke-width:1.5;" x1="515.5" x2="509.5" y1="360.4531" y2="360.4531"/><text fill="#000000" font-family="sans-serif" font-size="14" lengthAdjust="spacing" textLength="109" x="391.5" y="375.4482">m_client : Client</text><!--MD5=[b6a52640dd237eba0229356b811a0ca3]
entity serviceDiscoveryThread--><rect fill="#FEFECE" filter="url(#fpizquwr6qwv8)" height="55.5938" style="stroke:#000000;stroke-width:1.5;" width="243" x="103.5" y="340.9531"/><polygon fill="#FEFECE" points="329.5,345.9531,329.5,359.9531,341.5,359.9531,341.5,351.9531,335.5,345.9531,329.5,345.9531" style="stroke:#000000;stroke-width:1.5;"/><line style="stroke:#000000;stroke-width:1.5;" x1="335.5" x2="335.5" y1="345.9531" y2="351.9531"/><line style="stroke:#000000;stroke-width:1.5;" x1="341.5" x2="335.5" y1="351.9531" y2="351.9531"/><text fill="#000000" font-family="sans-serif" font-size="14" lengthAdjust="spacing" textLength="131" x="113.5" y="366.9482">m_thread  : Thread</text><text fill="#000000" font-family="sans-serif" font-size="14" lengthAdjust="spacing" textLength="213" x="113.5" y="383.2451">m_interfacePort  : InterfacePort</text><!--MD5=[e939ca035ac17cd9107982b10cc3bb97]
entity callback--><rect fill="#FEFECE" filter="url(#fpizquwr6qwv8)" height="39.2969" style="stroke:#000000;stroke-width:1.5;" width="272" x="93" y="907.9531"/><polygon fill="#FEFECE" points="348,912.9531,348,926.9531,360,926.9531,360,918.9531,354,912.9531,348,912.9531" style="stroke:#000000;stroke-width:1.5;"/><line style="stroke:#000000;stroke-width:1.5;" x1="354" x2="354" y1="912.9531" y2="918.9531"/><line style="stroke:#000000;stroke-width:1.5;" x1="360" x2="354" y1="918.9531" y2="918.9531"/><text fill="#000000" font-family="sans-serif" font-size="14" lengthAdjust="spacing" textLength="242" x="103" y="933.9482">m_callback  : std::function&lt;void()&gt;</text><!--MD5=[c66a602ab977f4b8b08ff7eda3b37678]
entity DCPSTopic--><rect fill="#FEFECE" filter="url(#fpizquwr6qwv8)" height="46.2969" style="stroke:#A80036;stroke-width:1.5;" width="117" x="613.5" y="201.9531"/><rect fill="#FEFECE" height="10" style="stroke:#A80036;stroke-width:1.5;" width="15" x="710.5" y="206.9531"/><rect fill="#FEFECE" height="2" style="stroke:#A80036;stroke-width:1.5;" width="4" x="708.5" y="208.9531"/><rect fill="#FEFECE" height="2" style="stroke:#A80036;stroke-width:1.5;" width="4" x="708.5" y="212.9531"/><text fill="#000000" font-family="sans-serif" font-size="14" lengthAdjust="spacing" textLength="77" x="628.5" y="234.9482">DCPSTopic</text><!--MD5=[cd0308ed3852805eb5f04a5726e08525]
link discoveryLoop to DCPSTopic--><path d="M409.354,120.2282 C418.2031,135.2271 432.3025,155.2045 450,166.9531 C497.3915,198.4141 560.9863,212.8234 607.9626,219.415 " fill="none" id="discoveryLoop-to-DCPSTopic" style="stroke:#A80036;stroke-width:1.0;stroke-dasharray:7.0,7.0;"/><polygon fill="#A80036" points="613.0299,220.1049,604.6518,214.9273,608.0756,219.4304,603.5725,222.8541,613.0299,220.1049" style="stroke:#A80036;stroke-width:1.0;"/><text fill="#000000" font-family="sans-serif" font-size="13" lengthAdjust="spacing" textLength="159" x="451" y="163.02">dispatchCaProMessage()</text><!--MD5=[f1a9208a3f30ce8195084af6a1a33f16]
link DCPSTopic to discoveryLoop--><path d="M660.1784,201.7805 C650.3494,184.8573 634.7877,162.7231 615,149.9531 C598.4878,139.2969 560.7545,129.2626 521.3675,121.0508 " fill="none" id="DCPSTopic-to-discoveryLoop" style="stroke:#A80036;stroke-width:1.0;stroke-dasharray:7.0,7.0;"/><polygon fill="#A80036" points="516.0541,119.9559,524.0616,125.6901,520.9512,120.9651,525.6762,117.8547,516.0541,119.9559" style="stroke:#A80036;stroke-width:1.0;"/><text fill="#000000" font-family="sans-serif" font-size="13" lengthAdjust="spacing" textLength="136" x="635" y="163.02">Not yet implemented</text><!--MD5=[f192185aa3024139c6130928f11dc17e]
link discoveryLoop to serviceDiscoveryThread--><path d="M386.2054,120.1965 C356.4508,166.111 282.3719,280.4224 245.9252,336.6633 " fill="none" id="discoveryLoop-to-serviceDiscoveryThread" style="stroke:#A80036;stroke-width:1.0;stroke-dasharray:7.0,7.0;"/><polygon fill="#A80036" points="243.1548,340.9384,251.406,335.561,245.8739,336.7424,244.6925,331.2103,243.1548,340.9384" style="stroke:#A80036;stroke-width:1.0;"/><text fill="#000000" font-family="sans-serif" font-size="13" lengthAdjust="spacing" textLength="159" x="349" y="229.52">dispatchCaProMessage()</text><!--MD5=[709c8e59bb66e349e481c56c2feb03a9]
link server to client--><path d="M116.0673,125.1284 C130.3249,160.2293 161.4678,223.8698 210,255.9531 C273.3383,297.8243 311.844,249.6929 378,286.9531 C402.7032,300.8664 423.3452,326.2961 436.3051,345.1615 " fill="none" id="server-client" style="stroke:#A80036;stroke-width:1.0;stroke-dasharray:7.0,7.0;"/><polygon fill="#A80036" points="439.1122,349.3214,437.3935,339.6237,436.3153,345.1768,430.7622,344.0987,439.1122,349.3214" style="stroke:#A80036;stroke-width:1.0;"/><polygon fill="#A80036" points="114.0862,120.1638,113.7069,130.0054,115.9394,124.8077,121.1371,127.0402,114.0862,120.1638" style="stroke:#A80036;stroke-width:1.0;"/><text fill="#000000" font-family="sans-serif" font-size="13" lengthAdjust="spacing" textLength="80" x="211" y="229.52">findService()</text><!--MD5=[b45b9338f8d912da03babe2c3557ba21]
link serviceDiscoveryThread to callback--><path d="M225.9531,397.1661 C226.4683,414.7834 227,437.9376 227,458.4531 C227,458.4531 227,458.4531 227,846.4531 C227,865.2839 227.5469,886.5697 228.0687,902.5938 " fill="none" id="serviceDiscoveryThread-to-callback" style="stroke:#A80036;stroke-width:1.0;stroke-dasharray:7.0,7.0;"/><polygon fill="#A80036" points="228.2439,907.8152,231.9398,898.6861,228.0762,902.818,223.9443,898.9545,228.2439,907.8152" style="stroke:#A80036;stroke-width:1.0;"/><text fill="#000000" font-family="sans-serif" font-size="13" lengthAdjust="spacing" textLength="28" x="228" y="657.02">calls</text></g></svg>