<?xml version="1.0" encoding="UTF-8" standalone="no"?><svg xmlns="http://www.w3.org/2000/svg" xmlns:xlink="http://www.w3.org/1999/xlink" contentScriptType="application/ecmascript" contentStyleType="text/css" height="1119px" preserveAspectRatio="none" style="width:1528px;height:1119px;" version="1.1" viewBox="0 0 1528 1119" width="1528px" zoomAndPan="magnify"><defs><filter height="300%" id="fkphpfe05u726" width="300%" x="-1" y="-1"><feGaussianBlur result="blurOut" stdDeviation="2.0"/><feColorMatrix in="blurOut" result="blurOut2" type="matrix" values="0 0 0 0 0 0 0 0 0 0 0 0 0 0 0 0 0 0 .4 0"/><feOffset dx="4.0" dy="4.0" in="blurOut2" result="blurOut3"/><feBlend in="SourceGraphic" in2="blurOut3" mode="normal"/></filter></defs><g><text fill="#000000" font-family="sans-serif" font-size="18" lengthAdjust="spacing" textLength="784" x="365.5" y="16.708">Alternative D: iceoryx-based ECU forwarding CaPro messages to Gateway and User App</text><!--MD5=[45a30aaa2590b6845ebacc5fda1fa0db]
cluster iceoryx instance e.g. electronic control unit--><polygon fill="#FFFFFF" filter="url(#fkphpfe05u726)" points="16,26.9531,367,26.9531,374,49.25,1168,49.25,1168,1112.9531,16,1112.9531,16,26.9531" style="stroke:#000000;stroke-width:1.5;"/><line style="stroke:#000000;stroke-width:1.5;" x1="16" x2="374" y1="49.25" y2="49.25"/><text fill="#000000" font-family="sans-serif" font-size="14" font-weight="bold" lengthAdjust="spacing" textLength="345" x="20" y="41.9482">iceoryx instance e.g. electronic control unit</text><!--MD5=[1cb72ea523dc46d231cf0e99f20e7c1a]
cluster RouDi--><rect fill="#FFFFFF" filter="url(#fkphpfe05u726)" height="74" style="stroke:#000000;stroke-width:1.5;" width="380" x="390" y="53.9531"/><rect fill="#FFFFFF" height="10" style="stroke:#000000;stroke-width:1.5;" width="15" x="750" y="58.9531"/><rect fill="#FFFFFF" height="2" style="stroke:#000000;stroke-width:1.5;" width="4" x="748" y="60.9531"/><rect fill="#FFFFFF" height="2" style="stroke:#000000;stroke-width:1.5;" width="4" x="748" y="64.9531"/><text fill="#000000" font-family="sans-serif" font-size="14" font-weight="bold" lengthAdjust="spacing" textLength="45" x="557.5" y="79.9482">RouDi</text><!--MD5=[fed0617503037837f4a985188ddc6133]
cluster User App--><rect fill="#FFFFFF" filter="url(#fkphpfe05u726)" height="868" style="stroke:#000000;stroke-width:1.5;" width="540" x="24" y="236.9531"/><rect fill="#FFFFFF" height="10" style="stroke:#000000;stroke-width:1.5;" width="15" x="544" y="241.9531"/><rect fill="#FFFFFF" height="2" style="stroke:#000000;stroke-width:1.5;" width="4" x="542" y="243.9531"/><rect fill="#FFFFFF" height="2" style="stroke:#000000;stroke-width:1.5;" width="4" x="542" y="247.9531"/><text fill="#000000" font-family="sans-serif" font-size="14" font-weight="bold" lengthAdjust="spacing" textLength="73" x="257.5" y="262.9482">User App</text><!--MD5=[b0e862f2fa12308206ff7649c94050f6]
cluster DiscoveryInfoA--><rect fill="#FFFFFF" filter="url(#fkphpfe05u726)" height="123" style="stroke:#000000;stroke-width:1.5;" width="524" x="32" y="263.9531"/><rect fill="#FFFFFF" height="10" style="stroke:#000000;stroke-width:1.5;" width="15" x="536" y="268.9531"/><rect fill="#FFFFFF" height="2" style="stroke:#000000;stroke-width:1.5;" width="4" x="534" y="270.9531"/><rect fill="#FFFFFF" height="2" style="stroke:#000000;stroke-width:1.5;" width="4" x="534" y="274.9531"/><text fill="#000000" font-family="sans-serif" font-size="14" font-style="italic" lengthAdjust="spacing" textLength="61" x="263.5" y="289.9482">«object»</text><text fill="#000000" font-family="sans-serif" font-size="14" font-weight="bold" lengthAdjust="spacing" textLength="119" x="234.5" y="306.2451">DiscoveryInfoA</text><!--MD5=[a6604c5a36d609373a2d86f7dfafdcf0]
cluster DDS Gateway--><rect fill="#FFFFFF" filter="url(#fkphpfe05u726)" height="868" style="stroke:#000000;stroke-width:1.5;" width="588" x="572" y="236.9531"/><rect fill="#FFFFFF" height="10" style="stroke:#000000;stroke-width:1.5;" width="15" x="1140" y="241.9531"/><rect fill="#FFFFFF" height="2" style="stroke:#000000;stroke-width:1.5;" width="4" x="1138" y="243.9531"/><rect fill="#FFFFFF" height="2" style="stroke:#000000;stroke-width:1.5;" width="4" x="1138" y="247.9531"/><text fill="#000000" font-family="sans-serif" font-size="14" font-weight="bold" lengthAdjust="spacing" textLength="106" x="813" y="262.9482">DDS Gateway</text><!--MD5=[999a438fc98253d0944798e775e98dd1]
cluster DiscoveryInfoB--><rect fill="#FFFFFF" filter="url(#fkphpfe05u726)" height="123" style="stroke:#000000;stroke-width:1.5;" width="572" x="580" y="263.9531"/><rect fill="#FFFFFF" height="10" style="stroke:#000000;stroke-width:1.5;" width="15" x="1132" y="268.9531"/><rect fill="#FFFFFF" height="2" style="stroke:#000000;stroke-width:1.5;" width="4" x="1130" y="270.9531"/><rect fill="#FFFFFF" height="2" style="stroke:#000000;stroke-width:1.5;" width="4" x="1130" y="274.9531"/><text fill="#000000" font-family="sans-serif" font-size="14" font-style="italic" lengthAdjust="spacing" textLength="61" x="835.5" y="289.9482">«object»</text><text fill="#000000" font-family="sans-serif" font-size="14" font-weight="bold" lengthAdjust="spacing" textLength="118" x="807" y="306.2451">DiscoveryInfoB</text><!--MD5=[2c9a12d02da8d331cac0c4b421f0347b]
cluster DDS instance e.g. electronic control unit--><polygon fill="#FFFFFF" filter="url(#fkphpfe05u726)" points="1176,433.9531,1501,433.9531,1508,456.25,1511,456.25,1511,514.9531,1176,514.9531,1176,433.9531" style="stroke:#000000;stroke-width:1.5;"/><line style="stroke:#000000;stroke-width:1.5;" x1="1176" x2="1508" y1="456.25" y2="456.25"/><text fill="#000000" font-family="sans-serif" font-size="14" font-weight="bold" lengthAdjust="spacing" textLength="319" x="1180" y="448.9482">DDS instance e.g. electronic control unit</text><!--MD5=[c497a0d15ec852c4fdb32ba44d3aa9da]
entity discoveryLoop--><rect fill="#FEFECE" filter="url(#fkphpfe05u726)" height="39.2969" style="stroke:#000000;stroke-width:1.5;" width="365" x="397.5" y="80.9531"/><polygon fill="#FEFECE" points="745.5,85.9531,745.5,99.9531,757.5,99.9531,757.5,91.9531,751.5,85.9531,745.5,85.9531" style="stroke:#000000;stroke-width:1.5;"/><line style="stroke:#000000;stroke-width:1.5;" x1="751.5" x2="751.5" y1="85.9531" y2="91.9531"/><line style="stroke:#000000;stroke-width:1.5;" x1="757.5" x2="751.5" y1="91.9531" y2="91.9531"/><text fill="#000000" font-family="sans-serif" font-size="14" lengthAdjust="spacing" textLength="335" x="407.5" y="106.9482">PortManager::sendToAllMatchingInterfacePorts()</text><!--MD5=[0bf32b116301adbe8868233a3c70a795]
entity UserAppListener--><rect fill="#FEFECE" filter="url(#fkphpfe05u726)" height="62.5938" style="stroke:#A80036;stroke-width:1.5;" width="154" x="217" y="707.9531"/><rect fill="#FEFECE" height="10" style="stroke:#A80036;stroke-width:1.5;" width="15" x="351" y="712.9531"/><rect fill="#FEFECE" height="2" style="stroke:#A80036;stroke-width:1.5;" width="4" x="349" y="714.9531"/><rect fill="#FEFECE" height="2" style="stroke:#A80036;stroke-width:1.5;" width="4" x="349" y="718.9531"/><text fill="#000000" font-family="sans-serif" font-size="14" font-style="italic" lengthAdjust="spacing" textLength="61" x="258.5" y="740.9482">«object»</text><text fill="#000000" font-family="sans-serif" font-size="14" lengthAdjust="spacing" textLength="114" x="232" y="757.2451">UserAppListener</text><!--MD5=[56fa82e40671d6e5eb60822b7a755b6e]
entity UserDefinedCallback--><rect fill="#FEFECE" filter="url(#fkphpfe05u726)" height="62.5938" style="stroke:#A80036;stroke-width:1.5;" width="183" x="202.5" y="1033.9531"/><rect fill="#FEFECE" height="10" style="stroke:#A80036;stroke-width:1.5;" width="15" x="365.5" y="1038.9531"/><rect fill="#FEFECE" height="2" style="stroke:#A80036;stroke-width:1.5;" width="4" x="363.5" y="1040.9531"/><rect fill="#FEFECE" height="2" style="stroke:#A80036;stroke-width:1.5;" width="4" x="363.5" y="1044.9531"/><text fill="#000000" font-family="sans-serif" font-size="14" font-style="italic" lengthAdjust="spacing" textLength="61" x="258.5" y="1066.9482">«object»</text><text fill="#000000" font-family="sans-serif" font-size="14" lengthAdjust="spacing" textLength="143" x="217.5" y="1083.2451">UserDefinedCallback</text><!--MD5=[1aae650e69c23cee10853351b7ce6d4c]
entity DiscoveryInfoNoteA--><rect fill="#FEFECE" filter="url(#fkphpfe05u726)" height="71.8906" style="stroke:#000000;stroke-width:1.5;" width="507" x="40.5" y="306.9531"/><polygon fill="#FEFECE" points="530.5,311.9531,530.5,325.9531,542.5,325.9531,542.5,317.9531,536.5,311.9531,530.5,311.9531" style="stroke:#000000;stroke-width:1.5;"/><line style="stroke:#000000;stroke-width:1.5;" x1="536.5" x2="536.5" y1="311.9531" y2="317.9531"/><line style="stroke:#000000;stroke-width:1.5;" x1="542.5" x2="536.5" y1="317.9531" y2="317.9531"/><text fill="#000000" font-family="sans-serif" font-size="14" lengthAdjust="spacing" textLength="477" x="50.5" y="332.9482">+findService() : cxx::expected&lt;InstanceContainer, FindServiceError&gt;</text><text fill="#000000" font-family="sans-serif" font-size="14" lengthAdjust="spacing" textLength="353" x="50.5" y="349.2451">-m_subscriber : Subscriber&lt;ServiceRegistryTopic&gt;</text><text fill="#000000" font-family="sans-serif" font-size="14" lengthAdjust="spacing" textLength="312" x="50.5" y="365.542">-m_lastServiceRegistry : ServiceRegistryTopic</text><!--MD5=[fb192d9e9fa2e9f982e2ab2435fc2b57]
entity GatewayListener--><rect fill="#FEFECE" filter="url(#fkphpfe05u726)" height="62.5938" style="stroke:#A80036;stroke-width:1.5;" width="154" x="789" y="707.9531"/><rect fill="#FEFECE" height="10" style="stroke:#A80036;stroke-width:1.5;" width="15" x="923" y="712.9531"/><rect fill="#FEFECE" height="2" style="stroke:#A80036;stroke-width:1.5;" width="4" x="921" y="714.9531"/><rect fill="#FEFECE" height="2" style="stroke:#A80036;stroke-width:1.5;" width="4" x="921" y="718.9531"/><text fill="#000000" font-family="sans-serif" font-size="14" font-style="italic" lengthAdjust="spacing" textLength="61" x="830.5" y="740.9482">«object»</text><text fill="#000000" font-family="sans-serif" font-size="14" lengthAdjust="spacing" textLength="114" x="804" y="757.2451">GatewayListener</text><!--MD5=[de17ccd87328d7fa0c8368d560b826cc]
entity GatewayUserDefinedCallback--><rect fill="#FEFECE" filter="url(#fkphpfe05u726)" height="62.5938" style="stroke:#A80036;stroke-width:1.5;" width="242" x="745" y="1033.9531"/><rect fill="#FEFECE" height="10" style="stroke:#A80036;stroke-width:1.5;" width="15" x="967" y="1038.9531"/><rect fill="#FEFECE" height="2" style="stroke:#A80036;stroke-width:1.5;" width="4" x="965" y="1040.9531"/><rect fill="#FEFECE" height="2" style="stroke:#A80036;stroke-width:1.5;" width="4" x="965" y="1044.9531"/><text fill="#000000" font-family="sans-serif" font-size="14" font-style="italic" lengthAdjust="spacing" textLength="61" x="830.5" y="1066.9482">«object»</text><text fill="#000000" font-family="sans-serif" font-size="14" lengthAdjust="spacing" textLength="202" x="760" y="1083.2451">GatewayUserDefinedCallback</text><!--MD5=[b74f7c865a7d05be4ed710ee2ffd7ed2]
entity DiscoveryInfoNoteB--><rect fill="#FEFECE" filter="url(#fkphpfe05u726)" height="71.8906" style="stroke:#000000;stroke-width:1.5;" width="555" x="588.5" y="306.9531"/><polygon fill="#FEFECE" points="1126.5,311.9531,1126.5,325.9531,1138.5,325.9531,1138.5,317.9531,1132.5,311.9531,1126.5,311.9531" style="stroke:#000000;stroke-width:1.5;"/><line style="stroke:#000000;stroke-width:1.5;" x1="1132.5" x2="1132.5" y1="311.9531" y2="317.9531"/><line style="stroke:#000000;stroke-width:1.5;" x1="1138.5" x2="1132.5" y1="317.9531" y2="317.9531"/><text fill="#000000" font-family="sans-serif" font-size="14" lengthAdjust="spacing" textLength="477" x="598.5" y="332.9482">+findService() : cxx::expected&lt;InstanceContainer, FindServiceError&gt;</text><text fill="#000000" font-family="sans-serif" font-size="14" lengthAdjust="spacing" textLength="353" x="598.5" y="349.2451">-m_subscriber : Subscriber&lt;ServiceRegistryTopic&gt;</text><text fill="#000000" font-family="sans-serif" font-size="14" lengthAdjust="spacing" textLength="312" x="598.5" y="365.542">-m_lastServiceRegistry : ServiceRegistryTopic</text><!--MD5=[c66a602ab977f4b8b08ff7eda3b37678]
entity DCPSTopic--><rect fill="#FEFECE" filter="url(#fkphpfe05u726)" height="46.2969" style="stroke:#A80036;stroke-width:1.5;" width="117" x="1184.5" y="460.9531"/><rect fill="#FEFECE" height="10" style="stroke:#A80036;stroke-width:1.5;" width="15" x="1281.5" y="465.9531"/><rect fill="#FEFECE" height="2" style="stroke:#A80036;stroke-width:1.5;" width="4" x="1279.5" y="467.9531"/><rect fill="#FEFECE" height="2" style="stroke:#A80036;stroke-width:1.5;" width="4" x="1279.5" y="471.9531"/><text fill="#000000" font-family="sans-serif" font-size="14" lengthAdjust="spacing" textLength="77" x="1199.5" y="493.9482">DCPSTopic</text><!--MD5=[3184145f91f00fa02c4977d520143a3d]
link DiscoveryInfoNoteB to DCPSTopic--><path d="M935.0206,379.0958 C971.2389,396.3385 1016.9344,415.4551 1060,425.9531 C1106.7622,437.3522 1122.4807,418.3122 1168,433.9531 C1183.4241,439.253 1198.7199,448.5244 1211.4354,457.6552 " fill="none" id="DiscoveryInfoNoteB-to-DCPSTopic" style="stroke:#A80036;stroke-width:1.0;stroke-dasharray:7.0,7.0;"/><polygon fill="#A80036" points="1215.6452,460.7405,1210.7504,452.1941,1211.6123,457.7849,1206.0215,458.6468,1215.6452,460.7405" style="stroke:#A80036;stroke-width:1.0;"/><text fill="#000000" font-family="sans-serif" font-size="13" lengthAdjust="spacing" textLength="85" x="1061" y="422.02">Implemented</text><!--MD5=[68c4eaed074140a0b68c7cd025675212]
link DCPSTopic to DiscoveryInfoNoteB--><path d="M1220.8803,460.9476 C1203.424,444.1119 1177.6453,422.0141 1151,408.9531 C1128.1265,397.741 1103.276,388.3889 1078.1011,380.5983 " fill="none" id="DCPSTopic-to-DiscoveryInfoNoteB" style="stroke:#A80036;stroke-width:1.0;stroke-dasharray:7.0,7.0;"/><polygon fill="#A80036" points="1073.0623,379.0609,1080.5032,385.5133,1077.8446,380.5201,1082.8379,377.8615,1073.0623,379.0609" style="stroke:#A80036;stroke-width:1.0;"/><text fill="#000000" font-family="sans-serif" font-size="13" lengthAdjust="spacing" textLength="136" x="1179" y="422.02">Not yet implemented</text><!--MD5=[196ca125d13be3c56d306a77535d3894]
link discoveryLoop to DiscoveryInfoNoteA--><path d="M556.5954,120.2979 C509.4696,160.2559 402.3745,251.0621 340.4914,303.5329 " fill="none" id="discoveryLoop-to-DiscoveryInfoNoteA" style="stroke:#A80036;stroke-width:1.0;stroke-dasharray:7.0,7.0;"/><polygon fill="#A80036" points="336.4818,306.9327,345.9333,304.1633,340.2955,303.6992,340.7596,298.0614,336.4818,306.9327" style="stroke:#A80036;stroke-width:1.0;"/><text fill="#000000" font-family="sans-serif" font-size="13" lengthAdjust="spacing" textLength="186" x="487" y="194.02">publish(ServiceRegistryTopic)</text><!--MD5=[18ea7257aab994c0f82a3017e73979f8]
link discoveryLoop to DiscoveryInfoNoteB--><path d="M605.8758,120.2571 C626.6789,136.3258 656.5304,159.7165 682,180.9531 C730.8866,221.7148 785.4493,270.1376 822.3729,303.3598 " fill="none" id="discoveryLoop-to-DiscoveryInfoNoteB" style="stroke:#A80036;stroke-width:1.0;stroke-dasharray:7.0,7.0;"/><polygon fill="#A80036" points="826.3377,306.9297,822.3258,297.935,822.6219,303.5841,816.9728,303.8802,826.3377,306.9297" style="stroke:#A80036;stroke-width:1.0;"/><text fill="#000000" font-family="sans-serif" font-size="13" lengthAdjust="spacing" textLength="186" x="703" y="194.02">publish(ServiceRegistryTopic)</text><!--MD5=[d2e6d13f106a2dc3a8f4abeaffde97b5]
link GatewayListener to GatewayUserDefinedCallback--><path d="M866,771.3045 C866,789.2624 866,812.1093 866,832.4531 C866,832.4531 866,832.4531 866,972.4531 C866,990.8896 866,1011.382 866,1028.4282 " fill="none" id="GatewayListener-to-GatewayUserDefinedCallback" style="stroke:#A80036;stroke-width:1.0;stroke-dasharray:7.0,7.0;"/><polygon fill="#A80036" points="866,1033.6017,870,1024.6017,866,1028.6017,862,1024.6017,866,1033.6017" style="stroke:#A80036;stroke-width:1.0;"/><text fill="#000000" font-family="sans-serif" font-size="13" lengthAdjust="spacing" textLength="28" x="867" y="907.02">calls</text><!--MD5=[0b57767aa9dee5a0ffebc6a2180e4bea]
link UserAppListener to UserDefinedCallback--><path d="M294,771.3045 C294,789.2624 294,812.1093 294,832.4531 C294,832.4531 294,832.4531 294,972.4531 C294,990.8896 294,1011.382 294,1028.4282 " fill="none" id="UserAppListener-to-UserDefinedCallback" style="stroke:#A80036;stroke-width:1.0;stroke-dasharray:7.0,7.0;"/><polygon fill="#A80036" points="294,1033.6017,298,1024.6017,294,1028.6017,290,1024.6017,294,1033.6017" style="stroke:#A80036;stroke-width:1.0;"/><text fill="#000000" font-family="sans-serif" font-size="13" lengthAdjust="spacing" textLength="28" x="295" y="907.02">calls</text><!--MD5=[d02e2aa27c062619ce26c947788fa48d]
link DiscoveryInfoNoteA to UserAppListener--><path d="M294,379.1773 C294,407.6579 294,448.3359 294,483.9531 C294,483.9531 294,483.9531 294,646.4531 C294,664.8896 294,685.382 294,702.4282 " fill="none" id="DiscoveryInfoNoteA-to-UserAppListener" style="stroke:#A80036;stroke-width:1.0;stroke-dasharray:7.0,7.0;"/><polygon fill="#A80036" points="294,707.6017,298,698.6017,294,702.6017,290,698.6017,294,707.6017" style="stroke:#A80036;stroke-width:1.0;"/><text fill="#000000" font-family="sans-serif" font-size="13" lengthAdjust="spacing" textLength="74" x="295" y="581.02">attached to</text><!--MD5=[0216d022979108926604880e5f9a8657]
link DiscoveryInfoNoteB to GatewayListener--><path d="M866,379.1773 C866,407.6579 866,448.3359 866,483.9531 C866,483.9531 866,483.9531 866,646.4531 C866,664.8896 866,685.382 866,702.4282 " fill="none" id="DiscoveryInfoNoteB-to-GatewayListener" style="stroke:#A80036;stroke-width:1.0;stroke-dasharray:7.0,7.0;"/><polygon fill="#A80036" points="866,707.6017,870,698.6017,866,702.6017,862,698.6017,866,707.6017" style="stroke:#A80036;stroke-width:1.0;"/><text fill="#000000" font-family="sans-serif" font-size="13" lengthAdjust="spacing" textLength="74" x="867" y="581.02">attached to</text></g></svg>