<?xml version="1.0" encoding="UTF-8" standalone="no"?><svg xmlns="http://www.w3.org/2000/svg" xmlns:xlink="http://www.w3.org/1999/xlink" contentScriptType="application/ecmascript" contentStyleType="text/css" height="562px" preserveAspectRatio="none" style="width:700px;height:562px;background:#EEEBDC;" version="1.1" viewBox="0 0 700 562" width="700px" zoomAndPan="magnify"><defs><filter height="300%" id="f1vj4n721o8uqw" width="300%" x="-1" y="-1"><feGaussianBlur result="blurOut" stdDeviation="2.0"/><feColorMatrix in="blurOut" result="blurOut2" type="matrix" values="0 0 0 0 0 0 0 0 0 0 0 0 0 0 0 0 0 0 .4 0"/><feOffset dx="4.0" dy="4.0" in="blurOut2" result="blurOut3"/><feBlend in="SourceGraphic" in2="blurOut3" mode="normal"/></filter></defs><g><text fill="#000000" font-family="sans-serif" font-size="18" lengthAdjust="spacing" textLength="581" x="59.5" y="31.2419">Alternative B: Event-based notification between RouDi and User App</text><rect fill="#FFFFFF" filter="url(#f1vj4n721o8uqw)" height="174.8241" style="stroke:#A80036;stroke-width:1.0;" width="10" x="54" y="286.8199"/><rect fill="#FFFFFF" filter="url(#f1vj4n721o8uqw)" height="31.706" style="stroke:#A80036;stroke-width:1.0;" width="10" x="376" y="115.2898"/><rect fill="#FFFFFF" filter="url(#f1vj4n721o8uqw)" height="307.6481" style="stroke:#A80036;stroke-width:1.0;" width="10" x="376" y="183.7018"/><rect fill="#EEEBDC" filter="url(#f1vj4n721o8uqw)" height="219.2361" style="stroke:#000000;stroke-width:2.0;" width="433.5" x="10" y="235.4078"/><rect fill="#EEEBDC" filter="url(#f1vj4n721o8uqw)" height="96.118" style="stroke:#000000;stroke-width:2.0;" width="413.5" x="20" y="351.5259"/><line style="stroke:#A80036;stroke-width:1.0;stroke-dasharray:5.0,5.0;" x1="59" x2="59" y1="81.5838" y2="516.3499"/><line style="stroke:#A80036;stroke-width:1.0;stroke-dasharray:5.0,5.0;" x1="380.5" x2="380.5" y1="81.5838" y2="516.3499"/><line style="stroke:#A80036;stroke-width:1.0;stroke-dasharray:5.0,5.0;" x1="522.5" x2="522.5" y1="81.5838" y2="516.3499"/><rect fill="#FEFECE" filter="url(#f1vj4n721o8uqw)" height="33.0679" style="stroke:#A80036;stroke-width:1.5;" width="54" x="30" y="43.5158"/><text fill="#000000" font-family="sans-serif" font-size="14" lengthAdjust="spacing" textLength="40" x="37" y="65.4818">RouDi</text><rect fill="#FEFECE" filter="url(#f1vj4n721o8uqw)" height="33.0679" style="stroke:#A80036;stroke-width:1.5;" width="54" x="30" y="515.3499"/><text fill="#000000" font-family="sans-serif" font-size="14" lengthAdjust="spacing" textLength="40" x="37" y="537.3159">RouDi</text><rect fill="#FEFECE" filter="url(#f1vj4n721o8uqw)" height="33.0679" style="stroke:#A80036;stroke-width:1.5;" width="81" x="338.5" y="43.5158"/><text fill="#000000" font-family="sans-serif" font-size="14" lengthAdjust="spacing" textLength="67" x="345.5" y="65.4818">UserAppA</text><rect fill="#FEFECE" filter="url(#f1vj4n721o8uqw)" height="33.0679" style="stroke:#A80036;stroke-width:1.5;" width="81" x="338.5" y="515.3499"/><text fill="#000000" font-family="sans-serif" font-size="14" lengthAdjust="spacing" textLength="67" x="345.5" y="537.3159">UserAppA</text><rect fill="#FEFECE" filter="url(#f1vj4n721o8uqw)" height="33.0679" style="stroke:#A80036;stroke-width:1.5;" width="81" x="480.5" y="43.5158"/><text fill="#000000" font-family="sans-serif" font-size="14" lengthAdjust="spacing" textLength="67" x="487.5" y="65.4818">UserAppB</text><rect fill="#FEFECE" filter="url(#f1vj4n721o8uqw)" height="33.0679" style="stroke:#A80036;stroke-width:1.5;" width="81" x="480.5" y="515.3499"/><text fill="#000000" font-family="sans-serif" font-size="14" lengthAdjust="spacing" textLength="67" x="487.5" y="537.3159">UserAppB</text><rect fill="#FFFFFF" filter="url(#f1vj4n721o8uqw)" height="174.8241" style="stroke:#A80036;stroke-width:1.0;" width="10" x="54" y="286.8199"/><rect fill="#FFFFFF" filter="url(#f1vj4n721o8uqw)" height="31.706" style="stroke:#A80036;stroke-width:1.0;" width="10" x="376" y="115.2898"/><rect fill="#FFFFFF" filter="url(#f1vj4n721o8uqw)" height="307.6481" style="stroke:#A80036;stroke-width:1.0;" width="10" x="376" y="183.7018"/><polygon fill="#A80036" points="70,111.2898,60,115.2898,70,119.2898,66,115.2898" style="stroke:#A80036;stroke-width:1.0;"/><line style="stroke:#A80036;stroke-width:1.0;" x1="64" x2="375" y1="115.2898" y2="115.2898"/><text fill="#000000" font-family="sans-serif" font-size="13" lengthAdjust="spacing" textLength="279" x="76" y="109.4808">getMiddlewareInterface() / CREATE_INTERFACE</text><polygon fill="#A80036" points="369,142.9958,379,146.9958,369,150.9958,373,146.9958" style="stroke:#A80036;stroke-width:1.0;"/><line style="stroke:#A80036;stroke-width:1.0;" x1="59" x2="375" y1="146.9958" y2="146.9958"/><text fill="#000000" font-family="sans-serif" font-size="13" lengthAdjust="spacing" textLength="147" x="66" y="141.1868">CREATE_INTERFACE_ACK</text><polygon fill="#A80036" points="364,179.7018,374,183.7018,364,187.7018,368,183.7018" style="stroke:#A80036;stroke-width:1.0;"/><line style="stroke:#A80036;stroke-width:1.0;" x1="59" x2="370" y1="183.7018" y2="183.7018"/><text fill="#000000" font-family="sans-serif" font-size="13" lengthAdjust="spacing" textLength="298" x="66" y="177.8928">handleInterfaces() sends complete service registry</text><path d="M391,159.9958 L391,186.9958 L691,186.9958 L691,169.9958 L681,159.9958 L391,159.9958 " fill="#FBFB77" filter="url(#f1vj4n721o8uqw)" style="stroke:#A80036;stroke-width:1.0;"/><path d="M681,159.9958 L681,169.9958 L691,169.9958 L681,159.9958 " fill="#FBFB77" style="stroke:#A80036;stroke-width:1.0;"/><text fill="#000000" font-family="sans-serif" font-size="13" lengthAdjust="spacing" textLength="279" x="397" y="178.8928">Only react on CaproMessageSubType::SERVICE</text><polygon fill="#A80036" points="70,216.4078,60,220.4078,70,224.4078,66,220.4078" style="stroke:#A80036;stroke-width:1.0;"/><line style="stroke:#A80036;stroke-width:1.0;" x1="64" x2="522" y1="220.4078" y2="220.4078"/><text fill="#000000" font-family="sans-serif" font-size="13" lengthAdjust="spacing" textLength="36" x="76" y="214.5988">offer()</text><path d="M10,235.4078 L83,235.4078 L83,244.4078 L73,254.4078 L10,254.4078 L10,235.4078 " fill="#EEEEEE" style="stroke:#000000;stroke-width:1.0;"/><rect fill="none" height="219.2361" style="stroke:#000000;stroke-width:2.0;" width="433.5" x="10" y="235.4078"/><text fill="#000000" font-family="sans-serif" font-size="13" font-weight="bold" lengthAdjust="spacing" textLength="28" x="25" y="250.3048">loop</text><text fill="#000000" font-family="sans-serif" font-size="11" font-weight="bold" lengthAdjust="spacing" textLength="76" x="98" y="249.1667">[every 100ms]</text><line style="stroke:#A80036;stroke-width:1.0;" x1="59" x2="106" y1="273.8199" y2="273.8199"/><line style="stroke:#A80036;stroke-width:1.0;" x1="106" x2="106" y1="273.8199" y2="286.8199"/><line style="stroke:#A80036;stroke-width:1.0;" x1="65" x2="106" y1="286.8199" y2="286.8199"/><polygon fill="#A80036" points="75,282.8199,65,286.8199,75,290.8199,71,286.8199" style="stroke:#A80036;stroke-width:1.0;"/><text fill="#000000" font-family="sans-serif" font-size="13" lengthAdjust="spacing" textLength="82" x="71" y="268.0109">doDiscovery()</text><line style="stroke:#A80036;stroke-width:1.0;" x1="64" x2="106" y1="323.5259" y2="323.5259"/><line style="stroke:#A80036;stroke-width:1.0;" x1="106" x2="106" y1="323.5259" y2="336.5259"/><line style="stroke:#A80036;stroke-width:1.0;" x1="65" x2="106" y1="336.5259" y2="336.5259"/><polygon fill="#A80036" points="75,332.5259,65,336.5259,75,340.5259,71,336.5259" style="stroke:#A80036;stroke-width:1.0;"/><text fill="#000000" font-family="sans-serif" font-size="13" lengthAdjust="spacing" textLength="190" x="71" y="317.7169">doDiscoveryForPublisherPorts()</text><path d="M20,351.5259 L83,351.5259 L83,360.5259 L73,370.5259 L20,370.5259 L20,351.5259 " fill="#EEEEEE" style="stroke:#000000;stroke-width:1.0;"/><rect fill="none" height="96.118" style="stroke:#000000;stroke-width:2.0;" width="413.5" x="20" y="351.5259"/><text fill="#000000" font-family="sans-serif" font-size="13" font-weight="bold" lengthAdjust="spacing" textLength="18" x="35" y="366.4229">alt</text><text fill="#000000" font-family="sans-serif" font-size="11" font-weight="bold" lengthAdjust="spacing" textLength="140" x="98" y="365.2848">[CaproMessage received]</text><line style="stroke:#A80036;stroke-width:1.0;" x1="64" x2="106" y1="394.9379" y2="394.9379"/><line style="stroke:#A80036;stroke-width:1.0;" x1="106" x2="106" y1="394.9379" y2="407.9379"/><line style="stroke:#A80036;stroke-width:1.0;" x1="65" x2="106" y1="407.9379" y2="407.9379"/><polygon fill="#A80036" points="75,403.9379,65,407.9379,75,411.9379,71,407.9379" style="stroke:#A80036;stroke-width:1.0;"/><text fill="#000000" font-family="sans-serif" font-size="13" lengthAdjust="spacing" textLength="182" x="71" y="389.1289">sendToAllMatchingInterfaces()</text><polygon fill="#A80036" points="364,435.6439,374,439.6439,364,443.6439,368,439.6439" style="stroke:#A80036;stroke-width:1.0;"/><line style="stroke:#A80036;stroke-width:1.0;" x1="64" x2="370" y1="439.6439" y2="439.6439"/><text fill="#000000" font-family="sans-serif" font-size="13" lengthAdjust="spacing" textLength="148" x="71" y="433.8349">dispatchCaProMessage()</text><line style="stroke:#A80036;stroke-width:1.0;" x1="386" x2="428" y1="490.3499" y2="490.3499"/><line style="stroke:#A80036;stroke-width:1.0;" x1="428" x2="428" y1="490.3499" y2="503.3499"/><line style="stroke:#A80036;stroke-width:1.0;" x1="381" x2="428" y1="503.3499" y2="503.3499"/><polygon fill="#A80036" points="391,499.3499,381,503.3499,391,507.3499,387,503.3499" style="stroke:#A80036;stroke-width:1.0;"/><text fill="#000000" font-family="sans-serif" font-size="13" lengthAdjust="spacing" textLength="118" x="393" y="484.5409">wake up from wait()</text></g></svg>