<?xml version="1.0" encoding="UTF-8" standalone="no"?><svg xmlns="http://www.w3.org/2000/svg" xmlns:xlink="http://www.w3.org/1999/xlink" contentScriptType="application/ecmascript" contentStyleType="text/css" height="281px" preserveAspectRatio="none" style="width:779px;height:281px;background:#EEEBDC;" version="1.1" viewBox="0 0 779 281" width="779px" zoomAndPan="magnify"><defs><filter height="300%" id="focshf375ysc4" width="300%" x="-1" y="-1"><feGaussianBlur result="blurOut" stdDeviation="2.0"/><feColorMatrix in="blurOut" result="blurOut2" type="matrix" values="0 0 0 0 0 0 0 0 0 0 0 0 0 0 0 0 0 0 .4 0"/><feOffset dx="4.0" dy="4.0" in="blurOut2" result="blurOut3"/><feBlend in="SourceGraphic" in2="blurOut3" mode="normal"/></filter></defs><g><!--MD5=[5efe5b76f74dafc2107a81786d6eaf75]
class ClientOptions--><rect codeLine="3" fill="#FEFECE" filter="url(#focshf375ysc4)" height="122.9094" id="ClientOptions" style="stroke:#A80036;stroke-width:1.5;" width="286" x="7" y="7"/><ellipse cx="108.25" cy="23" fill="#ADD1B2" rx="11" ry="11" style="stroke:#A80036;stroke-width:1.0;"/><path d="M108.0469,29.7344 Q105.5625,29.7344 104.2344,28.0938 Q102.9219,26.4219 102.9219,23.3125 Q102.9219,20.1875 104.2344,18.5313 Q105.5625,16.875 108.0469,16.875 Q108.7656,16.875 109.4219,17.0313 Q110.0625,17.1875 110.625,17.4844 L110.625,20.2031 Q110.2656,19.8594 109.9688,19.6719 Q109.6719,19.4688 109.4063,19.3438 Q109.0938,19.2031 108.7813,19.1406 Q108.4844,19.0781 108.1719,19.0781 Q106.8438,19.0781 106.1563,20.1406 Q105.4688,21.2344 105.4688,23.3125 Q105.4688,25.4063 106.1563,26.4688 Q106.8438,27.5469 108.1719,27.5469 Q108.8125,27.5469 109.4063,27.2656 Q109.7031,27.1406 109.9844,26.9531 Q110.2813,26.75 110.625,26.4219 L110.625,29.1406 Q110.0469,29.4375 109.4063,29.5938 Q108.7813,29.7344 108.0469,29.7344 Z " fill="#000000"/><text fill="#000000" font-family="sans-serif" font-size="12" lengthAdjust="spacing" textLength="75" x="128.75" y="27.656">ClientOptions</text><line style="stroke:#A80036;stroke-width:1.5;" x1="8" x2="292" y1="39" y2="39"/><text fill="#000000" font-family="sans-serif" font-size="11" lengthAdjust="spacing" textLength="175" x="13" y="54.7589">responseQueueCapacity: uint64_t</text><text fill="#000000" font-family="sans-serif" font-size="11" lengthAdjust="spacing" textLength="130" x="13" y="69.7408">nodeName: NodeName_t</text><text fill="#000000" font-family="sans-serif" font-size="11" lengthAdjust="spacing" textLength="121" x="13" y="84.7227">connectOnCreate: bool</text><text fill="#000000" font-family="sans-serif" font-size="11" lengthAdjust="spacing" textLength="274" x="13" y="99.7046">responseQueueFullPolicy: ResponseQueueFullPolicy</text><text fill="#000000" font-family="sans-serif" font-size="11" lengthAdjust="spacing" textLength="225" x="13" y="114.6865">serverTooSlowPolicy: ServerTooSlowPolicy</text><line style="stroke:#A80036;stroke-width:1.5;" x1="8" x2="292" y1="121.9094" y2="121.9094"/><!--MD5=[482ee631cb97eb42770676ae6adca92a]
class ServerOptions--><rect codeLine="11" fill="#FEFECE" filter="url(#focshf375ysc4)" height="107.9276" id="ServerOptions" style="stroke:#A80036;stroke-width:1.5;" width="228" x="328" y="14.5"/><ellipse cx="397.75" cy="30.5" fill="#ADD1B2" rx="11" ry="11" style="stroke:#A80036;stroke-width:1.0;"/><path d="M397.5469,37.2344 Q395.0625,37.2344 393.7344,35.5938 Q392.4219,33.9219 392.4219,30.8125 Q392.4219,27.6875 393.7344,26.0313 Q395.0625,24.375 397.5469,24.375 Q398.2656,24.375 398.9219,24.5313 Q399.5625,24.6875 400.125,24.9844 L400.125,27.7031 Q399.7656,27.3594 399.4688,27.1719 Q399.1719,26.9688 398.9063,26.8438 Q398.5938,26.7031 398.2813,26.6406 Q397.9844,26.5781 397.6719,26.5781 Q396.3438,26.5781 395.6563,27.6406 Q394.9688,28.7344 394.9688,30.8125 Q394.9688,32.9063 395.6563,33.9688 Q396.3438,35.0469 397.6719,35.0469 Q398.3125,35.0469 398.9063,34.7656 Q399.2031,34.6406 399.4844,34.4531 Q399.7813,34.25 400.125,33.9219 L400.125,36.6406 Q399.5469,36.9375 398.9063,37.0938 Q398.2813,37.2344 397.5469,37.2344 Z " fill="#000000"/><text fill="#000000" font-family="sans-serif" font-size="12" lengthAdjust="spacing" textLength="80" x="418.25" y="35.156">ServerOptions</text><line style="stroke:#A80036;stroke-width:1.5;" x1="329" x2="555" y1="46.5" y2="46.5"/><text fill="#000000" font-family="sans-serif" font-size="11" lengthAdjust="spacing" textLength="167" x="334" y="62.2589">requestQueueCapacity: uint64_t</text><text fill="#000000" font-family="sans-serif" font-size="11" lengthAdjust="spacing" textLength="130" x="334" y="77.2408">nodeName: NodeName_t</text><text fill="#000000" font-family="sans-serif" font-size="11" lengthAdjust="spacing" textLength="106" x="334" y="92.2227">offerOnCreate: bool</text><text fill="#000000" font-family="sans-serif" font-size="11" lengthAdjust="spacing" textLength="216" x="334" y="107.2046">clientTooSlowPolicy: ClientTooSlowPolicy</text><line style="stroke:#A80036;stroke-width:1.5;" x1="329" x2="555" y1="114.4276" y2="114.4276"/><!--MD5=[b2a1e31c88f67b4e446e30ab64820a9c]
class ResponseQueueFullPolicy--><rect codeLine="18" fill="#FEFECE" filter="url(#focshf375ysc4)" height="77.9638" id="ResponseQueueFullPolicy" style="stroke:#A80036;stroke-width:1.5;" width="174" x="591" y="29.5"/><ellipse cx="606" cy="45.5" fill="#EB937F" rx="11" ry="11" style="stroke:#A80036;stroke-width:1.0;"/><path d="M602.3906,39.6094 L610.1094,39.6094 L610.1094,41.7656 L604.8438,41.7656 L604.8438,44.4375 L609.6094,44.4375 L609.6094,46.5938 L604.8438,46.5938 L604.8438,49.8438 L610.1094,49.8438 L610.1094,52 L602.3906,52 L602.3906,39.6094 Z " fill="#000000"/><text fill="#000000" font-family="sans-serif" font-size="12" lengthAdjust="spacing" textLength="142" x="620" y="50.156">ResponseQueueFullPolicy</text><line style="stroke:#A80036;stroke-width:1.5;" x1="592" x2="764" y1="61.5" y2="61.5"/><text fill="#000000" font-family="sans-serif" font-size="11" lengthAdjust="spacing" textLength="83" x="597" y="77.2589">BLOCK_SERVER,</text><text fill="#000000" font-family="sans-serif" font-size="11" lengthAdjust="spacing" textLength="126" x="597" y="92.2408">DISCARD_OLDEST_DATA</text><line style="stroke:#A80036;stroke-width:1.5;" x1="592" x2="764" y1="99.4638" y2="99.4638"/><!--MD5=[b7bcd9988dc5d7e3e7647572e407661c]
class ClientTooSlowPolicy--><rect codeLine="23" fill="#FEFECE" filter="url(#focshf375ysc4)" height="77.9638" id="ClientTooSlowPolicy" style="stroke:#A80036;stroke-width:1.5;" width="143" x="78.5" y="190"/><ellipse cx="93.5" cy="206" fill="#EB937F" rx="11" ry="11" style="stroke:#A80036;stroke-width:1.0;"/><path d="M89.8906,200.1094 L97.6094,200.1094 L97.6094,202.2656 L92.3438,202.2656 L92.3438,204.9375 L97.1094,204.9375 L97.1094,207.0938 L92.3438,207.0938 L92.3438,210.3438 L97.6094,210.3438 L97.6094,212.5 L89.8906,212.5 L89.8906,200.1094 Z " fill="#000000"/><text fill="#000000" font-family="sans-serif" font-size="12" lengthAdjust="spacing" textLength="111" x="107.5" y="210.656">ClientTooSlowPolicy</text><line style="stroke:#A80036;stroke-width:1.5;" x1="79.5" x2="220.5" y1="222" y2="222"/><text fill="#000000" font-family="sans-serif" font-size="11" lengthAdjust="spacing" textLength="99" x="84.5" y="237.7589">WAIT_FOR_CLIENT,</text><text fill="#000000" font-family="sans-serif" font-size="11" lengthAdjust="spacing" textLength="126" x="84.5" y="252.7408">DISCARD_OLDEST_DATA</text><line style="stroke:#A80036;stroke-width:1.5;" x1="79.5" x2="220.5" y1="259.9638" y2="259.9638"/><!--MD5=[8b943a9e3054ac5506744b4c236671b2]
class ServerTooSlowPolicy--><rect codeLine="28" fill="#FEFECE" filter="url(#focshf375ysc4)" height="77.9638" id="ServerTooSlowPolicy" style="stroke:#A80036;stroke-width:1.5;" width="148" x="257" y="190"/><ellipse cx="272" cy="206" fill="#EB937F" rx="11" ry="11" style="stroke:#A80036;stroke-width:1.0;"/><path d="M268.3906,200.1094 L276.1094,200.1094 L276.1094,202.2656 L270.8438,202.2656 L270.8438,204.9375 L275.6094,204.9375 L275.6094,207.0938 L270.8438,207.0938 L270.8438,210.3438 L276.1094,210.3438 L276.1094,212.5 L268.3906,212.5 L268.3906,200.1094 Z " fill="#000000"/><text fill="#000000" font-family="sans-serif" font-size="12" lengthAdjust="spacing" textLength="116" x="286" y="210.656">ServerTooSlowPolicy</text><line style="stroke:#A80036;stroke-width:1.5;" x1="258" x2="404" y1="222" y2="222"/><text fill="#000000" font-family="sans-serif" font-size="11" lengthAdjust="spacing" textLength="101" x="263" y="237.7589">WAIT_FOR_SERVER,</text><text fill="#000000" font-family="sans-serif" font-size="11" lengthAdjust="spacing" textLength="126" x="263" y="252.7408">DISCARD_OLDEST_DATA</text><line style="stroke:#A80036;stroke-width:1.5;" x1="258" x2="404" y1="259.9638" y2="259.9638"/><!--MD5=[1381ee83662079026c8389903ca9656e]
link ClientOptions to ServerOptions--><!--MD5=[576995d1986f1fccb4a04b19a64bc9e9]
link ServerOptions to ResponseQueueFullPolicy--><!--MD5=[6150beeccd1a912c082890569b1c02b1]
link ClientOptions to ClientTooSlowPolicy--><!--MD5=[af0762d6926ee2bcbc85ccb37f2a9e73]
link ClientTooSlowPolicy to ServerTooSlowPolicy--></g></svg>