<?xml version="1.0" encoding="UTF-8" standalone="no"?><svg xmlns="http://www.w3.org/2000/svg" xmlns:xlink="http://www.w3.org/1999/xlink" contentScriptType="application/ecmascript" contentStyleType="text/css" height="1324px" preserveAspectRatio="none" style="width:762px;height:1324px;background:#EEEBDC;" version="1.1" viewBox="0 0 762 1324" width="762px" zoomAndPan="magnify"><defs><filter height="300%" id="f8ut1sqkfwyyd" width="300%" x="-1" y="-1"><feGaussianBlur result="blurOut" stdDeviation="2.0"/><feColorMatrix in="blurOut" result="blurOut2" type="matrix" values="0 0 0 0 0 0 0 0 0 0 0 0 0 0 0 0 0 0 .4 0"/><feOffset dx="4.0" dy="4.0" in="blurOut2" result="blurOut3"/><feBlend in="SourceGraphic" in2="blurOut3" mode="normal"/></filter></defs><g><rect fill="#FFFFFF" filter="url(#f8ut1sqkfwyyd)" height="88.412" style="stroke:#A80036;stroke-width:1.0;" width="10" x="53" y="193.892"/><rect fill="#FFFFFF" filter="url(#f8ut1sqkfwyyd)" height="25" style="stroke:#A80036;stroke-width:1.0;" width="10" x="53" y="466.1281"/><rect fill="#FFFFFF" filter="url(#f8ut1sqkfwyyd)" height="151.8241" style="stroke:#A80036;stroke-width:1.0;" width="10" x="53" y="674.9521"/><rect fill="#FFFFFF" filter="url(#f8ut1sqkfwyyd)" height="215.2361" style="stroke:#A80036;stroke-width:1.0;" width="10" x="53" y="1010.6003"/><rect fill="#FFFFFF" filter="url(#f8ut1sqkfwyyd)" height="31.706" style="stroke:#A80036;stroke-width:1.0;" width="10" x="545" y="122.4799"/><rect fill="#FFFFFF" filter="url(#f8ut1sqkfwyyd)" height="31.706" style="stroke:#A80036;stroke-width:1.0;" width="10" x="545" y="230.598"/><rect fill="#FFFFFF" filter="url(#f8ut1sqkfwyyd)" height="31.706" style="stroke:#A80036;stroke-width:1.0;" width="10" x="545" y="603.5401"/><rect fill="#FFFFFF" filter="url(#f8ut1sqkfwyyd)" height="31.706" style="stroke:#A80036;stroke-width:1.0;" width="10" x="545" y="775.0702"/><rect fill="#FFFFFF" filter="url(#f8ut1sqkfwyyd)" height="31.706" style="stroke:#A80036;stroke-width:1.0;" width="10" x="545" y="1047.3063"/><rect fill="#FFFFFF" filter="url(#f8ut1sqkfwyyd)" height="31.706" style="stroke:#A80036;stroke-width:1.0;" width="10" x="545" y="1174.1304"/><rect fill="#FFFFFF" filter="url(#f8ut1sqkfwyyd)" height="31.706" style="stroke:#A80036;stroke-width:1.0;" width="10" x="681" y="394.716"/><rect fill="#FFFFFF" filter="url(#f8ut1sqkfwyyd)" height="31.706" style="stroke:#A80036;stroke-width:1.0;" width="10" x="681" y="711.6582"/><rect fill="#FFFFFF" filter="url(#f8ut1sqkfwyyd)" height="31.706" style="stroke:#A80036;stroke-width:1.0;" width="10" x="681" y="939.1882"/><rect fill="#FFFFFF" filter="url(#f8ut1sqkfwyyd)" height="31.706" style="stroke:#A80036;stroke-width:1.0;" width="10" x="681" y="1110.7183"/><line style="stroke:#A80036;stroke-width:1.0;" x1="58" x2="58" y1="43.0679" y2="297.304"/><line style="stroke:#A80036;stroke-width:1.0;stroke-dasharray:1.0,4.0;" x1="58" x2="58" y1="297.304" y2="325.304"/><line style="stroke:#A80036;stroke-width:1.0;" x1="58" x2="58" y1="325.304" y2="506.1281"/><line style="stroke:#A80036;stroke-width:1.0;stroke-dasharray:1.0,4.0;" x1="58" x2="58" y1="506.1281" y2="534.1281"/><line style="stroke:#A80036;stroke-width:1.0;" x1="58" x2="58" y1="534.1281" y2="841.7762"/><line style="stroke:#A80036;stroke-width:1.0;stroke-dasharray:1.0,4.0;" x1="58" x2="58" y1="841.7762" y2="869.7762"/><line style="stroke:#A80036;stroke-width:1.0;" x1="58" x2="58" y1="869.7762" y2="1240.8364"/><line style="stroke:#A80036;stroke-width:1.0;stroke-dasharray:1.0,4.0;" x1="58" x2="58" y1="1240.8364" y2="1268.8364"/><line style="stroke:#A80036;stroke-width:1.0;" x1="58" x2="58" y1="1268.8364" y2="1278.8364"/><line style="stroke:#A80036;stroke-width:1.0;" x1="550" x2="550" y1="43.0679" y2="297.304"/><line style="stroke:#A80036;stroke-width:1.0;stroke-dasharray:1.0,4.0;" x1="550" x2="550" y1="297.304" y2="325.304"/><line style="stroke:#A80036;stroke-width:1.0;" x1="550" x2="550" y1="325.304" y2="506.1281"/><line style="stroke:#A80036;stroke-width:1.0;stroke-dasharray:1.0,4.0;" x1="550" x2="550" y1="506.1281" y2="534.1281"/><line style="stroke:#A80036;stroke-width:1.0;" x1="550" x2="550" y1="534.1281" y2="841.7762"/><line style="stroke:#A80036;stroke-width:1.0;stroke-dasharray:1.0,4.0;" x1="550" x2="550" y1="841.7762" y2="869.7762"/><line style="stroke:#A80036;stroke-width:1.0;" x1="550" x2="550" y1="869.7762" y2="1240.8364"/><line style="stroke:#A80036;stroke-width:1.0;stroke-dasharray:1.0,4.0;" x1="550" x2="550" y1="1240.8364" y2="1268.8364"/><line style="stroke:#A80036;stroke-width:1.0;" x1="550" x2="550" y1="1268.8364" y2="1278.8364"/><line style="stroke:#A80036;stroke-width:1.0;" x1="686" x2="686" y1="43.0679" y2="297.304"/><line style="stroke:#A80036;stroke-width:1.0;stroke-dasharray:1.0,4.0;" x1="686" x2="686" y1="297.304" y2="325.304"/><line style="stroke:#A80036;stroke-width:1.0;" x1="686" x2="686" y1="325.304" y2="506.1281"/><line style="stroke:#A80036;stroke-width:1.0;stroke-dasharray:1.0,4.0;" x1="686" x2="686" y1="506.1281" y2="534.1281"/><line style="stroke:#A80036;stroke-width:1.0;" x1="686" x2="686" y1="534.1281" y2="841.7762"/><line style="stroke:#A80036;stroke-width:1.0;stroke-dasharray:1.0,4.0;" x1="686" x2="686" y1="841.7762" y2="869.7762"/><line style="stroke:#A80036;stroke-width:1.0;" x1="686" x2="686" y1="869.7762" y2="1240.8364"/><line style="stroke:#A80036;stroke-width:1.0;stroke-dasharray:1.0,4.0;" x1="686" x2="686" y1="1240.8364" y2="1268.8364"/><line style="stroke:#A80036;stroke-width:1.0;" x1="686" x2="686" y1="1268.8364" y2="1278.8364"/><rect fill="#FEFECE" filter="url(#f8ut1sqkfwyyd)" height="33.0679" style="stroke:#A80036;stroke-width:1.5;" width="102" x="5" y="5"/><text fill="#000000" font-family="sans-serif" font-size="14" lengthAdjust="spacing" textLength="88" x="12" y="26.9659">PortManager</text><rect fill="#FEFECE" filter="url(#f8ut1sqkfwyyd)" height="33.0679" style="stroke:#A80036;stroke-width:1.5;" width="102" x="5" y="1277.8364"/><text fill="#000000" font-family="sans-serif" font-size="14" lengthAdjust="spacing" textLength="88" x="12" y="1299.8023">PortManager</text><rect fill="#FEFECE" filter="url(#f8ut1sqkfwyyd)" height="33.0679" style="stroke:#A80036;stroke-width:1.5;" width="120" x="488" y="5"/><text fill="#000000" font-family="sans-serif" font-size="14" lengthAdjust="spacing" textLength="106" x="495" y="26.9659">ClientPortRouDi</text><rect fill="#FEFECE" filter="url(#f8ut1sqkfwyyd)" height="33.0679" style="stroke:#A80036;stroke-width:1.5;" width="120" x="488" y="1277.8364"/><text fill="#000000" font-family="sans-serif" font-size="14" lengthAdjust="spacing" textLength="106" x="495" y="1299.8023">ClientPortRouDi</text><rect fill="#FEFECE" filter="url(#f8ut1sqkfwyyd)" height="33.0679" style="stroke:#A80036;stroke-width:1.5;" width="124" x="622" y="5"/><text fill="#000000" font-family="sans-serif" font-size="14" lengthAdjust="spacing" textLength="110" x="629" y="26.9659">ServerPortRouDi</text><rect fill="#FEFECE" filter="url(#f8ut1sqkfwyyd)" height="33.0679" style="stroke:#A80036;stroke-width:1.5;" width="124" x="622" y="1277.8364"/><text fill="#000000" font-family="sans-serif" font-size="14" lengthAdjust="spacing" textLength="110" x="629" y="1299.8023">ServerPortRouDi</text><rect fill="#FFFFFF" filter="url(#f8ut1sqkfwyyd)" height="88.412" style="stroke:#A80036;stroke-width:1.0;" width="10" x="53" y="193.892"/><rect fill="#FFFFFF" filter="url(#f8ut1sqkfwyyd)" height="25" style="stroke:#A80036;stroke-width:1.0;" width="10" x="53" y="466.1281"/><rect fill="#FFFFFF" filter="url(#f8ut1sqkfwyyd)" height="151.8241" style="stroke:#A80036;stroke-width:1.0;" width="10" x="53" y="674.9521"/><rect fill="#FFFFFF" filter="url(#f8ut1sqkfwyyd)" height="215.2361" style="stroke:#A80036;stroke-width:1.0;" width="10" x="53" y="1010.6003"/><rect fill="#FFFFFF" filter="url(#f8ut1sqkfwyyd)" height="31.706" style="stroke:#A80036;stroke-width:1.0;" width="10" x="545" y="122.4799"/><rect fill="#FFFFFF" filter="url(#f8ut1sqkfwyyd)" height="31.706" style="stroke:#A80036;stroke-width:1.0;" width="10" x="545" y="230.598"/><rect fill="#FFFFFF" filter="url(#f8ut1sqkfwyyd)" height="31.706" style="stroke:#A80036;stroke-width:1.0;" width="10" x="545" y="603.5401"/><rect fill="#FFFFFF" filter="url(#f8ut1sqkfwyyd)" height="31.706" style="stroke:#A80036;stroke-width:1.0;" width="10" x="545" y="775.0702"/><rect fill="#FFFFFF" filter="url(#f8ut1sqkfwyyd)" height="31.706" style="stroke:#A80036;stroke-width:1.0;" width="10" x="545" y="1047.3063"/><rect fill="#FFFFFF" filter="url(#f8ut1sqkfwyyd)" height="31.706" style="stroke:#A80036;stroke-width:1.0;" width="10" x="545" y="1174.1304"/><rect fill="#FFFFFF" filter="url(#f8ut1sqkfwyyd)" height="31.706" style="stroke:#A80036;stroke-width:1.0;" width="10" x="681" y="394.716"/><rect fill="#FFFFFF" filter="url(#f8ut1sqkfwyyd)" height="31.706" style="stroke:#A80036;stroke-width:1.0;" width="10" x="681" y="711.6582"/><rect fill="#FFFFFF" filter="url(#f8ut1sqkfwyyd)" height="31.706" style="stroke:#A80036;stroke-width:1.0;" width="10" x="681" y="939.1882"/><rect fill="#FFFFFF" filter="url(#f8ut1sqkfwyyd)" height="31.706" style="stroke:#A80036;stroke-width:1.0;" width="10" x="681" y="1110.7183"/><rect fill="#EEEEEE" filter="url(#f8ut1sqkfwyyd)" height="3" style="stroke:#EEEEEE;stroke-width:1.0;" width="755" x="0" y="74.9209"/><line style="stroke:#000000;stroke-width:1.0;" x1="0" x2="755" y1="74.9209" y2="74.9209"/><line style="stroke:#000000;stroke-width:1.0;" x1="0" x2="755" y1="77.9209" y2="77.9209"/><rect fill="#EEEEEE" filter="url(#f8ut1sqkfwyyd)" height="25.706" style="stroke:#000000;stroke-width:2.0;" width="296" x="229.5" y="63.0679"/><text fill="#000000" font-family="sans-serif" font-size="13" font-weight="bold" lengthAdjust="spacing" textLength="279" x="235.5" y="80.9649">Client tries to connect (Server not present)</text><polygon fill="#A80036" points="533,118.4799,543,122.4799,533,126.4799,537,122.4799" style="stroke:#A80036;stroke-width:1.0;"/><line style="stroke:#A80036;stroke-width:1.0;" x1="58" x2="539" y1="122.4799" y2="122.4799"/><text fill="#000000" font-family="sans-serif" font-size="13" lengthAdjust="spacing" textLength="127" x="65" y="116.6709">tryGetCaProMessage</text><polygon fill="#A80036" points="69,150.186,59,154.186,69,158.186,65,154.186" style="stroke:#A80036;stroke-width:1.0;"/><line style="stroke:#A80036;stroke-width:1.0;stroke-dasharray:2.0,2.0;" x1="63" x2="549" y1="154.186" y2="154.186"/><text fill="#000000" font-family="sans-serif" font-size="13" lengthAdjust="spacing" textLength="184" x="75" y="148.377">CaproMessageType::CONNECT</text><line style="stroke:#A80036;stroke-width:1.0;" x1="58" x2="105" y1="180.892" y2="180.892"/><line style="stroke:#A80036;stroke-width:1.0;" x1="105" x2="105" y1="180.892" y2="193.892"/><line style="stroke:#A80036;stroke-width:1.0;" x1="64" x2="105" y1="193.892" y2="193.892"/><polygon fill="#A80036" points="74,189.892,64,193.892,74,197.892,70,193.892" style="stroke:#A80036;stroke-width:1.0;"/><text fill="#000000" font-family="sans-serif" font-size="13" lengthAdjust="spacing" textLength="185" x="70" y="175.083">sendToAllMatchingServerPorts</text><polygon fill="#A80036" points="533,226.598,543,230.598,533,234.598,537,230.598" style="stroke:#A80036;stroke-width:1.0;"/><line style="stroke:#A80036;stroke-width:1.0;" x1="63" x2="539" y1="230.598" y2="230.598"/><text fill="#000000" font-family="sans-serif" font-size="13" lengthAdjust="spacing" textLength="458" x="70" y="224.789">dispatchCaProMessageAndGetPossibleResponse(CaproMessageType::NACK)</text><polygon fill="#A80036" points="74,258.304,64,262.304,74,266.304,70,262.304" style="stroke:#A80036;stroke-width:1.0;"/><line style="stroke:#A80036;stroke-width:1.0;stroke-dasharray:2.0,2.0;" x1="68" x2="549" y1="262.304" y2="262.304"/><text fill="#000000" font-family="sans-serif" font-size="13" lengthAdjust="spacing" textLength="69" x="80" y="256.495">cxx::nullopt</text><line style="stroke:#A80036;stroke-width:1.0;stroke-dasharray:2.0,2.0;" x1="63" x2="105" y1="281.304" y2="281.304"/><line style="stroke:#A80036;stroke-width:1.0;stroke-dasharray:2.0,2.0;" x1="105" x2="105" y1="281.304" y2="294.304"/><line style="stroke:#A80036;stroke-width:1.0;stroke-dasharray:2.0,2.0;" x1="58" x2="105" y1="294.304" y2="294.304"/><polygon fill="#A80036" points="68,290.304,58,294.304,68,298.304,64,294.304" style="stroke:#A80036;stroke-width:1.0;"/><rect fill="#EEEEEE" filter="url(#f8ut1sqkfwyyd)" height="3" style="stroke:#EEEEEE;stroke-width:1.0;" width="755" x="0" y="347.157"/><line style="stroke:#000000;stroke-width:1.0;" x1="0" x2="755" y1="347.157" y2="347.157"/><line style="stroke:#000000;stroke-width:1.0;" x1="0" x2="755" y1="350.157" y2="350.157"/><rect fill="#EEEEEE" filter="url(#f8ut1sqkfwyyd)" height="25.706" style="stroke:#000000;stroke-width:2.0;" width="279" x="238" y="335.304"/><text fill="#000000" font-family="sans-serif" font-size="13" font-weight="bold" lengthAdjust="spacing" textLength="262" x="244" y="353.201">Server offers service (Client not present)</text><polygon fill="#A80036" points="669,390.716,679,394.716,669,398.716,673,394.716" style="stroke:#A80036;stroke-width:1.0;"/><line style="stroke:#A80036;stroke-width:1.0;" x1="58" x2="675" y1="394.716" y2="394.716"/><text fill="#000000" font-family="sans-serif" font-size="13" lengthAdjust="spacing" textLength="127" x="65" y="388.907">tryGetCaProMessage</text><polygon fill="#A80036" points="69,422.4221,59,426.4221,69,430.4221,65,426.4221" style="stroke:#A80036;stroke-width:1.0;"/><line style="stroke:#A80036;stroke-width:1.0;stroke-dasharray:2.0,2.0;" x1="63" x2="685" y1="426.4221" y2="426.4221"/><text fill="#000000" font-family="sans-serif" font-size="13" lengthAdjust="spacing" textLength="163" x="75" y="420.6131">CaproMessageType::OFFER</text><line style="stroke:#A80036;stroke-width:1.0;" x1="58" x2="105" y1="453.1281" y2="453.1281"/><line style="stroke:#A80036;stroke-width:1.0;" x1="105" x2="105" y1="453.1281" y2="466.1281"/><line style="stroke:#A80036;stroke-width:1.0;" x1="64" x2="105" y1="466.1281" y2="466.1281"/><polygon fill="#A80036" points="74,462.1281,64,466.1281,74,470.1281,70,466.1281" style="stroke:#A80036;stroke-width:1.0;"/><text fill="#000000" font-family="sans-serif" font-size="13" lengthAdjust="spacing" textLength="181" x="70" y="447.3191">sendToAllMatchingClientPorts</text><line style="stroke:#A80036;stroke-width:1.0;stroke-dasharray:2.0,2.0;" x1="63" x2="105" y1="490.1281" y2="490.1281"/><line style="stroke:#A80036;stroke-width:1.0;stroke-dasharray:2.0,2.0;" x1="105" x2="105" y1="490.1281" y2="503.1281"/><line style="stroke:#A80036;stroke-width:1.0;stroke-dasharray:2.0,2.0;" x1="58" x2="105" y1="503.1281" y2="503.1281"/><polygon fill="#A80036" points="68,499.1281,58,503.1281,68,507.1281,64,503.1281" style="stroke:#A80036;stroke-width:1.0;"/><rect fill="#EEEEEE" filter="url(#f8ut1sqkfwyyd)" height="3" style="stroke:#EEEEEE;stroke-width:1.0;" width="755" x="0" y="555.9811"/><line style="stroke:#000000;stroke-width:1.0;" x1="0" x2="755" y1="555.9811" y2="555.9811"/><line style="stroke:#000000;stroke-width:1.0;" x1="0" x2="755" y1="558.9811" y2="558.9811"/><rect fill="#EEEEEE" filter="url(#f8ut1sqkfwyyd)" height="25.706" style="stroke:#000000;stroke-width:2.0;" width="270" x="242.5" y="544.1281"/><text fill="#000000" font-family="sans-serif" font-size="13" font-weight="bold" lengthAdjust="spacing" textLength="253" x="248.5" y="562.0251">Client tries to connect (Server present)</text><polygon fill="#A80036" points="533,599.5401,543,603.5401,533,607.5401,537,603.5401" style="stroke:#A80036;stroke-width:1.0;"/><line style="stroke:#A80036;stroke-width:1.0;" x1="58" x2="539" y1="603.5401" y2="603.5401"/><text fill="#000000" font-family="sans-serif" font-size="13" lengthAdjust="spacing" textLength="127" x="65" y="597.7311">tryGetCaProMessage</text><polygon fill="#A80036" points="69,631.2461,59,635.2461,69,639.2461,65,635.2461" style="stroke:#A80036;stroke-width:1.0;"/><line style="stroke:#A80036;stroke-width:1.0;stroke-dasharray:2.0,2.0;" x1="63" x2="549" y1="635.2461" y2="635.2461"/><text fill="#000000" font-family="sans-serif" font-size="13" lengthAdjust="spacing" textLength="184" x="75" y="629.4371">CaproMessageType::CONNECT</text><line style="stroke:#A80036;stroke-width:1.0;" x1="58" x2="105" y1="661.9521" y2="661.9521"/><line style="stroke:#A80036;stroke-width:1.0;" x1="105" x2="105" y1="661.9521" y2="674.9521"/><line style="stroke:#A80036;stroke-width:1.0;" x1="64" x2="105" y1="674.9521" y2="674.9521"/><polygon fill="#A80036" points="74,670.9521,64,674.9521,74,678.9521,70,674.9521" style="stroke:#A80036;stroke-width:1.0;"/><text fill="#000000" font-family="sans-serif" font-size="13" lengthAdjust="spacing" textLength="185" x="70" y="656.1431">sendToAllMatchingServerPorts</text><polygon fill="#A80036" points="669,707.6582,679,711.6582,669,715.6582,673,711.6582" style="stroke:#A80036;stroke-width:1.0;"/><line style="stroke:#A80036;stroke-width:1.0;" x1="63" x2="675" y1="711.6582" y2="711.6582"/><text fill="#000000" font-family="sans-serif" font-size="13" lengthAdjust="spacing" textLength="484" x="70" y="705.8492">dispatchCaProMessageAndGetPossibleResponse(CaproMessageType::CONNECT)</text><polygon fill="#A80036" points="74,739.3642,64,743.3642,74,747.3642,70,743.3642" style="stroke:#A80036;stroke-width:1.0;"/><line style="stroke:#A80036;stroke-width:1.0;stroke-dasharray:2.0,2.0;" x1="68" x2="685" y1="743.3642" y2="743.3642"/><text fill="#000000" font-family="sans-serif" font-size="13" lengthAdjust="spacing" textLength="148" x="80" y="737.5552">CaproMessageType::ACK</text><polygon fill="#A80036" points="533,771.0702,543,775.0702,533,779.0702,537,775.0702" style="stroke:#A80036;stroke-width:1.0;"/><line style="stroke:#A80036;stroke-width:1.0;" x1="63" x2="539" y1="775.0702" y2="775.0702"/><text fill="#000000" font-family="sans-serif" font-size="13" lengthAdjust="spacing" textLength="448" x="70" y="769.2612">dispatchCaProMessageAndGetPossibleResponse(CaproMessageType::ACK)</text><polygon fill="#A80036" points="74,802.7762,64,806.7762,74,810.7762,70,806.7762" style="stroke:#A80036;stroke-width:1.0;"/><line style="stroke:#A80036;stroke-width:1.0;stroke-dasharray:2.0,2.0;" x1="68" x2="549" y1="806.7762" y2="806.7762"/><text fill="#000000" font-family="sans-serif" font-size="13" lengthAdjust="spacing" textLength="69" x="80" y="800.9672">cxx::nullopt</text><line style="stroke:#A80036;stroke-width:1.0;stroke-dasharray:2.0,2.0;" x1="63" x2="105" y1="825.7762" y2="825.7762"/><line style="stroke:#A80036;stroke-width:1.0;stroke-dasharray:2.0,2.0;" x1="105" x2="105" y1="825.7762" y2="838.7762"/><line style="stroke:#A80036;stroke-width:1.0;stroke-dasharray:2.0,2.0;" x1="58" x2="105" y1="838.7762" y2="838.7762"/><polygon fill="#A80036" points="68,834.7762,58,838.7762,68,842.7762,64,838.7762" style="stroke:#A80036;stroke-width:1.0;"/><rect fill="#EEEEEE" filter="url(#f8ut1sqkfwyyd)" height="3" style="stroke:#EEEEEE;stroke-width:1.0;" width="755" x="0" y="891.6292"/><line style="stroke:#000000;stroke-width:1.0;" x1="0" x2="755" y1="891.6292" y2="891.6292"/><line style="stroke:#000000;stroke-width:1.0;" x1="0" x2="755" y1="894.6292" y2="894.6292"/><rect fill="#EEEEEE" filter="url(#f8ut1sqkfwyyd)" height="25.706" style="stroke:#000000;stroke-width:2.0;" width="253" x="251" y="879.7762"/><text fill="#000000" font-family="sans-serif" font-size="13" font-weight="bold" lengthAdjust="spacing" textLength="236" x="257" y="897.6732">Server offers service (Client present)</text><polygon fill="#A80036" points="669,935.1882,679,939.1882,669,943.1882,673,939.1882" style="stroke:#A80036;stroke-width:1.0;"/><line style="stroke:#A80036;stroke-width:1.0;" x1="58" x2="675" y1="939.1882" y2="939.1882"/><text fill="#000000" font-family="sans-serif" font-size="13" lengthAdjust="spacing" textLength="127" x="65" y="933.3792">tryGetCaProMessage</text><polygon fill="#A80036" points="69,966.8943,59,970.8943,69,974.8943,65,970.8943" style="stroke:#A80036;stroke-width:1.0;"/><line style="stroke:#A80036;stroke-width:1.0;stroke-dasharray:2.0,2.0;" x1="63" x2="685" y1="970.8943" y2="970.8943"/><text fill="#000000" font-family="sans-serif" font-size="13" lengthAdjust="spacing" textLength="163" x="75" y="965.0853">CaproMessageType::OFFER</text><line style="stroke:#A80036;stroke-width:1.0;" x1="58" x2="105" y1="997.6003" y2="997.6003"/><line style="stroke:#A80036;stroke-width:1.0;" x1="105" x2="105" y1="997.6003" y2="1010.6003"/><line style="stroke:#A80036;stroke-width:1.0;" x1="64" x2="105" y1="1010.6003" y2="1010.6003"/><polygon fill="#A80036" points="74,1006.6003,64,1010.6003,74,1014.6003,70,1010.6003" style="stroke:#A80036;stroke-width:1.0;"/><text fill="#000000" font-family="sans-serif" font-size="13" lengthAdjust="spacing" textLength="181" x="70" y="991.7913">sendToAllMatchingClientPorts</text><polygon fill="#A80036" points="533,1043.3063,543,1047.3063,533,1051.3063,537,1047.3063" style="stroke:#A80036;stroke-width:1.0;"/><line style="stroke:#A80036;stroke-width:1.0;" x1="63" x2="539" y1="1047.3063" y2="1047.3063"/><text fill="#000000" font-family="sans-serif" font-size="13" lengthAdjust="spacing" textLength="463" x="70" y="1041.4973">dispatchCaProMessageAndGetPossibleResponse(CaproMessageType::OFFER)</text><polygon fill="#A80036" points="74,1075.0123,64,1079.0123,74,1083.0123,70,1079.0123" style="stroke:#A80036;stroke-width:1.0;"/><line style="stroke:#A80036;stroke-width:1.0;stroke-dasharray:2.0,2.0;" x1="68" x2="549" y1="1079.0123" y2="1079.0123"/><text fill="#000000" font-family="sans-serif" font-size="13" lengthAdjust="spacing" textLength="184" x="80" y="1073.2033">CaproMessageType::CONNECT</text><polygon fill="#A80036" points="669,1106.7183,679,1110.7183,669,1114.7183,673,1110.7183" style="stroke:#A80036;stroke-width:1.0;"/><line style="stroke:#A80036;stroke-width:1.0;" x1="63" x2="675" y1="1110.7183" y2="1110.7183"/><text fill="#000000" font-family="sans-serif" font-size="13" lengthAdjust="spacing" textLength="484" x="70" y="1104.9093">dispatchCaProMessageAndGetPossibleResponse(CaproMessageType::CONNECT)</text><polygon fill="#A80036" points="74,1138.4243,64,1142.4243,74,1146.4243,70,1142.4243" style="stroke:#A80036;stroke-width:1.0;"/><line style="stroke:#A80036;stroke-width:1.0;stroke-dasharray:2.0,2.0;" x1="68" x2="685" y1="1142.4243" y2="1142.4243"/><text fill="#000000" font-family="sans-serif" font-size="13" lengthAdjust="spacing" textLength="148" x="80" y="1136.6153">CaproMessageType::ACK</text><polygon fill="#A80036" points="533,1170.1304,543,1174.1304,533,1178.1304,537,1174.1304" style="stroke:#A80036;stroke-width:1.0;"/><line style="stroke:#A80036;stroke-width:1.0;" x1="63" x2="539" y1="1174.1304" y2="1174.1304"/><text fill="#000000" font-family="sans-serif" font-size="13" lengthAdjust="spacing" textLength="448" x="70" y="1168.3214">dispatchCaProMessageAndGetPossibleResponse(CaproMessageType::ACK)</text><polygon fill="#A80036" points="74,1201.8364,64,1205.8364,74,1209.8364,70,1205.8364" style="stroke:#A80036;stroke-width:1.0;"/><line style="stroke:#A80036;stroke-width:1.0;stroke-dasharray:2.0,2.0;" x1="68" x2="549" y1="1205.8364" y2="1205.8364"/><text fill="#000000" font-family="sans-serif" font-size="13" lengthAdjust="spacing" textLength="69" x="80" y="1200.0274">cxx::nullopt</text><line style="stroke:#A80036;stroke-width:1.0;stroke-dasharray:2.0,2.0;" x1="63" x2="105" y1="1224.8364" y2="1224.8364"/><line style="stroke:#A80036;stroke-width:1.0;stroke-dasharray:2.0,2.0;" x1="105" x2="105" y1="1224.8364" y2="1237.8364"/><line style="stroke:#A80036;stroke-width:1.0;stroke-dasharray:2.0,2.0;" x1="58" x2="105" y1="1237.8364" y2="1237.8364"/><polygon fill="#A80036" points="68,1233.8364,58,1237.8364,68,1241.8364,64,1237.8364" style="stroke:#A80036;stroke-width:1.0;"/></g></svg>