<?xml version="1.0" encoding="UTF-8" standalone="no"?><svg xmlns="http://www.w3.org/2000/svg" xmlns:xlink="http://www.w3.org/1999/xlink" contentScriptType="application/ecmascript" contentStyleType="text/css" height="471px" preserveAspectRatio="none" style="width:520px;height:471px;background:#EEEBDC;" version="1.1" viewBox="0 0 520 471" width="520px" zoomAndPan="magnify"><defs><filter height="300%" id="f1fwdqxryna2r9" width="300%" x="-1" y="-1"><feGaussianBlur result="blurOut" stdDeviation="2.0"/><feColorMatrix in="blurOut" result="blurOut2" type="matrix" values="0 0 0 0 0 0 0 0 0 0 0 0 0 0 0 0 0 0 .4 0"/><feOffset dx="4.0" dy="4.0" in="blurOut2" result="blurOut3"/><feBlend in="SourceGraphic" in2="blurOut3" mode="normal"/></filter></defs><g><ellipse cx="240" cy="16" fill="#000000" filter="url(#f1fwdqxryna2r9)" rx="10" ry="10" style="stroke:none;stroke-width:1.0;"/><g id="NOT_CONNECTED"><rect fill="#FEFECE" filter="url(#f1fwdqxryna2r9)" height="50" rx="12.5" ry="12.5" style="stroke:#A80036;stroke-width:1.5;" width="141" x="169.5" y="87"/><line style="stroke:#A80036;stroke-width:1.5;" x1="169.5" x2="310.5" y1="116.0679" y2="116.0679"/><text fill="#000000" font-family="sans-serif" font-size="14" lengthAdjust="spacing" textLength="121" x="179.5" y="106.9659">NOT_CONNECTED</text></g><g id="CONNECT_REQUESTED"><rect fill="#FEFECE" filter="url(#f1fwdqxryna2r9)" height="50" rx="12.5" ry="12.5" style="stroke:#A80036;stroke-width:1.5;" width="173" x="259.5" y="278"/><line style="stroke:#A80036;stroke-width:1.5;" x1="259.5" x2="432.5" y1="307.0679" y2="307.0679"/><text fill="#000000" font-family="sans-serif" font-size="14" lengthAdjust="spacing" textLength="153" x="269.5" y="297.9659">CONNECT_REQUESTED</text></g><g id="CONNECT_HANDSHAKE"><rect fill="#FEFECE" filter="url(#f1fwdqxryna2r9)" height="50" rx="12.5" ry="12.5" style="stroke:#A80036;stroke-width:1.5;" width="177" x="297.5" y="407"/><line style="stroke:#A80036;stroke-width:1.5;" x1="297.5" x2="474.5" y1="436.0679" y2="436.0679"/><text fill="#000000" font-family="sans-serif" font-size="14" lengthAdjust="spacing" textLength="157" x="307.5" y="426.9659">CONNECT_HANDSHAKE</text></g><g id="CONNECTED"><rect fill="#FEFECE" filter="url(#f1fwdqxryna2r9)" height="50" rx="12.5" ry="12.5" style="stroke:#A80036;stroke-width:1.5;" width="105" x="131.5" y="407"/><line style="stroke:#A80036;stroke-width:1.5;" x1="131.5" x2="236.5" y1="436.0679" y2="436.0679"/><text fill="#000000" font-family="sans-serif" font-size="14" lengthAdjust="spacing" textLength="85" x="141.5" y="426.9659">CONNECTED</text></g><g id="DISCONNECT_REQUESTED"><rect fill="#FEFECE" filter="url(#f1fwdqxryna2r9)" height="50" rx="12.5" ry="12.5" style="stroke:#A80036;stroke-width:1.5;" width="196" x="7" y="278"/><line style="stroke:#A80036;stroke-width:1.5;" x1="7" x2="203" y1="307.0679" y2="307.0679"/><text fill="#000000" font-family="sans-serif" font-size="14" lengthAdjust="spacing" textLength="176" x="17" y="297.9659">DISCONNECT_REQUESTED</text></g><!--MD5=[ac5c2e6b1118f58b9afe14441bc27cc5]
link *start to NOT_CONNECTED--><path d="M240,26.01 C240,38.7 240,62.41 240,81.57 " fill="none" id="*start-to-NOT_CONNECTED" style="stroke:#A80036;stroke-width:1.0;"/><polygon fill="#A80036" points="240,86.84,244,77.84,240,81.84,236,77.84,240,86.84" style="stroke:#A80036;stroke-width:1.0;"/><!--MD5=[34885ab5e020aa93819f7b230c24e7e1]
reverse link NOT_CONNECTED to NOT_CONNECTED--><path d="M315.94,102.13 C333.02,103.02 345.5,106.31 345.5,112 C345.5,118.28 330.3,121.63 310.5,122.07 " fill="none" id="NOT_CONNECTED-backto-NOT_CONNECTED" style="stroke:#A80036;stroke-width:1.0;"/><polygon fill="#A80036" points="310.5,101.93,319.3453,106.2613,315.4966,102.1156,319.6423,98.2668,310.5,101.93" style="stroke:#A80036;stroke-width:1.0;"/><text fill="#000000" font-family="sans-serif" font-size="13" lengthAdjust="spacing" textLength="39" x="351.5" y="117.397">OFFER</text><!--MD5=[a63dee3f0560c066ab929cd5f6cd8eb5]
link NOT_CONNECTED to CONNECT_REQUESTED--><path d="M275.41,137.23 C294.72,152.39 317.22,173.64 330,198 C342.18,221.21 345.73,251.08 346.5,272.85 " fill="none" id="NOT_CONNECTED-to-CONNECT_REQUESTED" style="stroke:#A80036;stroke-width:1.0;"/><polygon fill="#A80036" points="346.64,277.92,350.3806,268.8091,346.4968,272.9221,342.3839,269.0383,346.64,277.92" style="stroke:#A80036;stroke-width:1.0;"/><text fill="#000000" font-family="sans-serif" font-size="13" lengthAdjust="spacing" textLength="60" x="338" y="212.897">CONNECT</text><!--MD5=[bf2b5d668d6b58320b72be55ca466bf8]
reverse link NOT_CONNECTED to CONNECT_REQUESTED--><path d="M233.5,142.07 C230.15,163.79 228.79,193.64 240,217 C252.45,242.95 277.11,263.47 299.51,277.84 " fill="none" id="NOT_CONNECTED-backto-CONNECT_REQUESTED" style="stroke:#A80036;stroke-width:1.0;"/><polygon fill="#A80036" points="234.35,137.01,228.9133,145.2223,233.5211,141.9408,236.8025,146.5486,234.35,137.01" style="stroke:#A80036;stroke-width:1.0;"/><text fill="#000000" font-family="sans-serif" font-size="13" lengthAdjust="spacing" textLength="80" x="241" y="212.897">DISCONNECT</text><!--MD5=[4f3e1287b76e4b7a45c75cf23f2038b1]
link CONNECT_REQUESTED to CONNECT_REQUESTED--><path d="M432.55,293.09 C452.68,293.92 467.5,297.23 467.5,303 C467.5,308.28 455.12,311.49 437.62,312.64 " fill="none" id="CONNECT_REQUESTED-to-CONNECT_REQUESTED" style="stroke:#A80036;stroke-width:1.0;"/><polygon fill="#A80036" points="432.55,312.91,441.7541,316.4148,437.5426,312.6382,441.3192,308.4267,432.55,312.91" style="stroke:#A80036;stroke-width:1.0;"/><text fill="#000000" font-family="sans-serif" font-size="13" lengthAdjust="spacing" textLength="34" x="473.5" y="308.397">NACK</text><!--MD5=[6d849c9631bbb8864d1a375763c13c54]
link CONNECT_REQUESTED to CONNECT_HANDSHAKE--><path d="M340.58,328.33 C338.42,342.85 337.56,361.43 343,377 C346.2,386.16 351.68,394.93 357.68,402.64 " fill="none" id="CONNECT_REQUESTED-to-CONNECT_HANDSHAKE" style="stroke:#A80036;stroke-width:1.0;"/><polygon fill="#A80036" points="361.05,406.81,358.5002,397.2969,357.9057,402.9224,352.2801,402.3279,361.05,406.81" style="stroke:#A80036;stroke-width:1.0;"/><text fill="#000000" font-family="sans-serif" font-size="13" lengthAdjust="spacing" textLength="39" x="344" y="372.897">OFFER</text><!--MD5=[c15b1023e6e8158d0162ea30a21d8939]
reverse link CONNECT_REQUESTED to CONNECT_HANDSHAKE--><path d="M373.49,332.21 C379.42,339.97 384.85,348.81 388,358 C393.35,373.59 392.75,392.17 390.86,406.69 " fill="none" id="CONNECT_REQUESTED-backto-CONNECT_HANDSHAKE" style="stroke:#A80036;stroke-width:1.0;"/><polygon fill="#A80036" points="370.15,328.01,372.6233,337.5433,373.263,331.9227,378.8836,332.5624,370.15,328.01" style="stroke:#A80036;stroke-width:1.0;"/><text fill="#000000" font-family="sans-serif" font-size="13" lengthAdjust="spacing" textLength="34" x="392" y="372.897">NACK</text><!--MD5=[b35b746a25591679971712a27fdc0a73]
reverse link CONNECTED to CONNECT_HANDSHAKE--><path d="M241.85,432 C259.15,432 278.53,432 297.34,432 " fill="none" id="CONNECTED-backto-CONNECT_HANDSHAKE" style="stroke:#A80036;stroke-width:1.0;"/><polygon fill="#A80036" points="236.55,432,245.55,436,241.55,432,245.55,428,236.55,432" style="stroke:#A80036;stroke-width:1.0;"/><text fill="#000000" font-family="sans-serif" font-size="13" lengthAdjust="spacing" textLength="24" x="255" y="424.897">ACK</text><!--MD5=[7ae16d8c11da92896f1be6a1780c3371]
reverse link DISCONNECT_REQUESTED to CONNECTED--><path d="M97.16,333.12 C94.98,347.16 94.87,363.77 102,377 C108.71,389.45 119.69,399.51 131.46,407.41 " fill="none" id="DISCONNECT_REQUESTED-backto-CONNECTED" style="stroke:#A80036;stroke-width:1.0;"/><polygon fill="#A80036" points="98.05,328.08,92.5631,336.2588,97.1909,333.0056,100.4441,337.6334,98.05,328.08" style="stroke:#A80036;stroke-width:1.0;"/><text fill="#000000" font-family="sans-serif" font-size="13" lengthAdjust="spacing" textLength="80" x="103" y="372.897">DISCONNECT</text><!--MD5=[4b3e6b1de88036bf09e9f367526b7076]
reverse link CONNECT_REQUESTED to CONNECTED--><path d="M293.15,330.68 C279.22,338.68 264.58,348.01 252,358 C233.82,372.43 216.05,391.76 203.23,406.9 " fill="none" id="CONNECT_REQUESTED-backto-CONNECTED" style="stroke:#A80036;stroke-width:1.0;"/><polygon fill="#A80036" points="297.84,328.02,288.0381,328.9811,293.4909,330.4869,291.9851,335.9396,297.84,328.02" style="stroke:#A80036;stroke-width:1.0;"/><text fill="#000000" font-family="sans-serif" font-size="13" lengthAdjust="spacing" textLength="77" x="253" y="372.897">STOP_OFFER</text><!--MD5=[263970c7f008148b082ac9ed0f680229]
reverse link NOT_CONNECTED to DISCONNECT_REQUESTED--><path d="M210.42,141.12 C194.67,156.96 175.6,177.61 161,198 C142.62,223.68 126.08,256.1 115.83,277.85 " fill="none" id="NOT_CONNECTED-backto-DISCONNECT_REQUESTED" style="stroke:#A80036;stroke-width:1.0;"/><polygon fill="#A80036" points="214.35,137.2,205.1576,140.7355,210.8145,140.7355,210.8145,146.3924,214.35,137.2" style="stroke:#A80036;stroke-width:1.0;"/><text fill="#000000" font-family="sans-serif" font-size="13" lengthAdjust="spacing" textLength="63" x="162" y="212.897">ACK/NACK</text></g></svg>