<?xml version="1.0" encoding="UTF-8" standalone="no"?><svg xmlns="http://www.w3.org/2000/svg" xmlns:xlink="http://www.w3.org/1999/xlink" contentScriptType="application/ecmascript" contentStyleType="text/css" height="285px" preserveAspectRatio="none" style="width:289px;height:285px;background:#EEEBDC;" version="1.1" viewBox="0 0 289 285" width="289px" zoomAndPan="magnify"><defs><filter height="300%" id="f1m9fk30sg74lc" width="300%" x="-1" y="-1"><feGaussianBlur result="blurOut" stdDeviation="2.0"/><feColorMatrix in="blurOut" result="blurOut2" type="matrix" values="0 0 0 0 0 0 0 0 0 0 0 0 0 0 0 0 0 0 .4 0"/><feOffset dx="4.0" dy="4.0" in="blurOut2" result="blurOut3"/><feBlend in="SourceGraphic" in2="blurOut3" mode="normal"/></filter></defs><g><!--MD5=[ed6624c6556d5e7b1bd23032162d20b7]
class Client--><rect codeLine="2" fill="#FEFECE" filter="url(#f1m9fk30sg74lc)" height="48" id="Client" style="stroke:#A80036;stroke-width:1.5;" width="64" x="32" y="7"/><ellipse cx="47" cy="23" fill="#ADD1B2" rx="11" ry="11" style="stroke:#A80036;stroke-width:1.0;"/><path d="M46.7969,29.7344 Q44.3125,29.7344 42.9844,28.0938 Q41.6719,26.4219 41.6719,23.3125 Q41.6719,20.1875 42.9844,18.5313 Q44.3125,16.875 46.7969,16.875 Q47.5156,16.875 48.1719,17.0313 Q48.8125,17.1875 49.375,17.4844 L49.375,20.2031 Q49.0156,19.8594 48.7188,19.6719 Q48.4219,19.4688 48.1563,19.3438 Q47.8438,19.2031 47.5313,19.1406 Q47.2344,19.0781 46.9219,19.0781 Q45.5938,19.0781 44.9063,20.1406 Q44.2188,21.2344 44.2188,23.3125 Q44.2188,25.4063 44.9063,26.4688 Q45.5938,27.5469 46.9219,27.5469 Q47.5625,27.5469 48.1563,27.2656 Q48.4531,27.1406 48.7344,26.9531 Q49.0313,26.75 49.375,26.4219 L49.375,29.1406 Q48.7969,29.4375 48.1563,29.5938 Q47.5313,29.7344 46.7969,29.7344 Z " fill="#000000"/><text fill="#000000" font-family="sans-serif" font-size="12" lengthAdjust="spacing" textLength="32" x="61" y="27.656">Client</text><line style="stroke:#A80036;stroke-width:1.5;" x1="33" x2="95" y1="39" y2="39"/><line style="stroke:#A80036;stroke-width:1.5;" x1="33" x2="95" y1="47" y2="47"/><!--MD5=[c60af77fe5573b84a4aa4bce89659574]
class Server--><rect codeLine="5" fill="#FEFECE" filter="url(#f1m9fk30sg74lc)" height="48" id="Server" style="stroke:#A80036;stroke-width:1.5;" width="69" x="181.5" y="7"/><ellipse cx="196.5" cy="23" fill="#ADD1B2" rx="11" ry="11" style="stroke:#A80036;stroke-width:1.0;"/><path d="M196.2969,29.7344 Q193.8125,29.7344 192.4844,28.0938 Q191.1719,26.4219 191.1719,23.3125 Q191.1719,20.1875 192.4844,18.5313 Q193.8125,16.875 196.2969,16.875 Q197.0156,16.875 197.6719,17.0313 Q198.3125,17.1875 198.875,17.4844 L198.875,20.2031 Q198.5156,19.8594 198.2188,19.6719 Q197.9219,19.4688 197.6563,19.3438 Q197.3438,19.2031 197.0313,19.1406 Q196.7344,19.0781 196.4219,19.0781 Q195.0938,19.0781 194.4063,20.1406 Q193.7188,21.2344 193.7188,23.3125 Q193.7188,25.4063 194.4063,26.4688 Q195.0938,27.5469 196.4219,27.5469 Q197.0625,27.5469 197.6563,27.2656 Q197.9531,27.1406 198.2344,26.9531 Q198.5313,26.75 198.875,26.4219 L198.875,29.1406 Q198.2969,29.4375 197.6563,29.5938 Q197.0313,29.7344 196.2969,29.7344 Z " fill="#000000"/><text fill="#000000" font-family="sans-serif" font-size="12" lengthAdjust="spacing" textLength="37" x="210.5" y="27.656">Server</text><line style="stroke:#A80036;stroke-width:1.5;" x1="182.5" x2="249.5" y1="39" y2="39"/><line style="stroke:#A80036;stroke-width:1.5;" x1="182.5" x2="249.5" y1="47" y2="47"/><!--MD5=[7c99419aff5009fddfdcdd46e780beee]
class ClientPortUser--><rect codeLine="8" fill="#FEFECE" filter="url(#f1m9fk30sg74lc)" height="48" id="ClientPortUser" style="stroke:#A80036;stroke-width:1.5;" width="114" x="7" y="115"/><ellipse cx="22" cy="131" fill="#ADD1B2" rx="11" ry="11" style="stroke:#A80036;stroke-width:1.0;"/><path d="M21.7969,137.7344 Q19.3125,137.7344 17.9844,136.0938 Q16.6719,134.4219 16.6719,131.3125 Q16.6719,128.1875 17.9844,126.5313 Q19.3125,124.875 21.7969,124.875 Q22.5156,124.875 23.1719,125.0313 Q23.8125,125.1875 24.375,125.4844 L24.375,128.2031 Q24.0156,127.8594 23.7188,127.6719 Q23.4219,127.4688 23.1563,127.3438 Q22.8438,127.2031 22.5313,127.1406 Q22.2344,127.0781 21.9219,127.0781 Q20.5938,127.0781 19.9063,128.1406 Q19.2188,129.2344 19.2188,131.3125 Q19.2188,133.4063 19.9063,134.4688 Q20.5938,135.5469 21.9219,135.5469 Q22.5625,135.5469 23.1563,135.2656 Q23.4531,135.1406 23.7344,134.9531 Q24.0313,134.75 24.375,134.4219 L24.375,137.1406 Q23.7969,137.4375 23.1563,137.5938 Q22.5313,137.7344 21.7969,137.7344 Z " fill="#000000"/><text fill="#000000" font-family="sans-serif" font-size="12" lengthAdjust="spacing" textLength="82" x="36" y="135.656">ClientPortUser</text><line style="stroke:#A80036;stroke-width:1.5;" x1="8" x2="120" y1="147" y2="147"/><line style="stroke:#A80036;stroke-width:1.5;" x1="8" x2="120" y1="155" y2="155"/><!--MD5=[57d9931a6973ef884f15a41ba7bb7c60]
class ServerPortUser--><rect codeLine="11" fill="#FEFECE" filter="url(#f1m9fk30sg74lc)" height="48" id="ServerPortUser" style="stroke:#A80036;stroke-width:1.5;" width="119" x="156.5" y="115"/><ellipse cx="171.5" cy="131" fill="#ADD1B2" rx="11" ry="11" style="stroke:#A80036;stroke-width:1.0;"/><path d="M171.2969,137.7344 Q168.8125,137.7344 167.4844,136.0938 Q166.1719,134.4219 166.1719,131.3125 Q166.1719,128.1875 167.4844,126.5313 Q168.8125,124.875 171.2969,124.875 Q172.0156,124.875 172.6719,125.0313 Q173.3125,125.1875 173.875,125.4844 L173.875,128.2031 Q173.5156,127.8594 173.2188,127.6719 Q172.9219,127.4688 172.6563,127.3438 Q172.3438,127.2031 172.0313,127.1406 Q171.7344,127.0781 171.4219,127.0781 Q170.0938,127.0781 169.4063,128.1406 Q168.7188,129.2344 168.7188,131.3125 Q168.7188,133.4063 169.4063,134.4688 Q170.0938,135.5469 171.4219,135.5469 Q172.0625,135.5469 172.6563,135.2656 Q172.9531,135.1406 173.2344,134.9531 Q173.5313,134.75 173.875,134.4219 L173.875,137.1406 Q173.2969,137.4375 172.6563,137.5938 Q172.0313,137.7344 171.2969,137.7344 Z " fill="#000000"/><text fill="#000000" font-family="sans-serif" font-size="12" lengthAdjust="spacing" textLength="87" x="185.5" y="135.656">ServerPortUser</text><line style="stroke:#A80036;stroke-width:1.5;" x1="157.5" x2="274.5" y1="147" y2="147"/><line style="stroke:#A80036;stroke-width:1.5;" x1="157.5" x2="274.5" y1="155" y2="155"/><!--MD5=[5db7d3fb0705949d82e389f21f83438d]
class ChunkSender--><rect fill="#FEFECE" filter="url(#f1m9fk30sg74lc)" height="48" id="ChunkSender" style="stroke:#A80036;stroke-width:1.5;" width="107" x="13.5" y="223"/><ellipse cx="28.5" cy="239" fill="#ADD1B2" rx="11" ry="11" style="stroke:#A80036;stroke-width:1.0;"/><path d="M28.2969,245.7344 Q25.8125,245.7344 24.4844,244.0938 Q23.1719,242.4219 23.1719,239.3125 Q23.1719,236.1875 24.4844,234.5313 Q25.8125,232.875 28.2969,232.875 Q29.0156,232.875 29.6719,233.0313 Q30.3125,233.1875 30.875,233.4844 L30.875,236.2031 Q30.5156,235.8594 30.2188,235.6719 Q29.9219,235.4688 29.6563,235.3438 Q29.3438,235.2031 29.0313,235.1406 Q28.7344,235.0781 28.4219,235.0781 Q27.0938,235.0781 26.4063,236.1406 Q25.7188,237.2344 25.7188,239.3125 Q25.7188,241.4063 26.4063,242.4688 Q27.0938,243.5469 28.4219,243.5469 Q29.0625,243.5469 29.6563,243.2656 Q29.9531,243.1406 30.2344,242.9531 Q30.5313,242.75 30.875,242.4219 L30.875,245.1406 Q30.2969,245.4375 29.6563,245.5938 Q29.0313,245.7344 28.2969,245.7344 Z " fill="#000000"/><text fill="#000000" font-family="sans-serif" font-size="12" lengthAdjust="spacing" textLength="75" x="42.5" y="243.656">ChunkSender</text><line style="stroke:#A80036;stroke-width:1.5;" x1="14.5" x2="119.5" y1="255" y2="255"/><line style="stroke:#A80036;stroke-width:1.5;" x1="14.5" x2="119.5" y1="263" y2="263"/><!--MD5=[56725b2b8d7b861694d8392c37cfc44d]
class ChunkReceiver--><rect fill="#FEFECE" filter="url(#f1m9fk30sg74lc)" height="48" id="ChunkReceiver" style="stroke:#A80036;stroke-width:1.5;" width="115" x="156.5" y="223"/><ellipse cx="171.5" cy="239" fill="#ADD1B2" rx="11" ry="11" style="stroke:#A80036;stroke-width:1.0;"/><path d="M171.2969,245.7344 Q168.8125,245.7344 167.4844,244.0938 Q166.1719,242.4219 166.1719,239.3125 Q166.1719,236.1875 167.4844,234.5313 Q168.8125,232.875 171.2969,232.875 Q172.0156,232.875 172.6719,233.0313 Q173.3125,233.1875 173.875,233.4844 L173.875,236.2031 Q173.5156,235.8594 173.2188,235.6719 Q172.9219,235.4688 172.6563,235.3438 Q172.3438,235.2031 172.0313,235.1406 Q171.7344,235.0781 171.4219,235.0781 Q170.0938,235.0781 169.4063,236.1406 Q168.7188,237.2344 168.7188,239.3125 Q168.7188,241.4063 169.4063,242.4688 Q170.0938,243.5469 171.4219,243.5469 Q172.0625,243.5469 172.6563,243.2656 Q172.9531,243.1406 173.2344,242.9531 Q173.5313,242.75 173.875,242.4219 L173.875,245.1406 Q173.2969,245.4375 172.6563,245.5938 Q172.0313,245.7344 171.2969,245.7344 Z " fill="#000000"/><text fill="#000000" font-family="sans-serif" font-size="12" lengthAdjust="spacing" textLength="83" x="185.5" y="243.656">ChunkReceiver</text><line style="stroke:#A80036;stroke-width:1.5;" x1="157.5" x2="270.5" y1="255" y2="255"/><line style="stroke:#A80036;stroke-width:1.5;" x1="157.5" x2="270.5" y1="263" y2="263"/><!--MD5=[d7d92669a6c176c96fa91d3d853474b2]
reverse link Client to ClientPortUser--><path codeLine="14" d="M64,68.34 C64,83.68 64,101.1 64,114.68 " fill="none" id="Client-backto-ClientPortUser" style="stroke:#A80036;stroke-width:1.0;"/><polygon fill="#EEEBDC" points="64,55,60,61,64,67,68,61,64,55" style="stroke:#A80036;stroke-width:1.0;"/><!--MD5=[5ca044769eef536d584406bf742ecfce]
reverse link Server to ServerPortUser--><path codeLine="15" d="M216,68.34 C216,83.68 216,101.1 216,114.68 " fill="none" id="Server-backto-ServerPortUser" style="stroke:#A80036;stroke-width:1.0;"/><polygon fill="#EEEBDC" points="216,55,212,61,216,67,220,61,216,55" style="stroke:#A80036;stroke-width:1.0;"/><!--MD5=[986435fce3cac8788ab9e1e30341f016]
reverse link ClientPortUser to ChunkSender--><path codeLine="17" d="M65.03,176.34 C65.46,191.68 65.96,209.1 66.34,222.68 " fill="none" id="ClientPortUser-backto-ChunkSender" style="stroke:#A80036;stroke-width:1.0;"/><polygon fill="#EEEBDC" points="64.65,163,60.8163,169.1076,64.9795,174.9955,68.8133,168.8879,64.65,163" style="stroke:#A80036;stroke-width:1.0;"/><!--MD5=[e004a45bbcda25030c8bd819b12af5a9]
reverse link ClientPortUser to ChunkReceiver--><path codeLine="18" d="M107.31,170.61 C130.88,187.26 159.57,207.54 181.26,222.86 " fill="none" id="ClientPortUser-backto-ChunkReceiver" style="stroke:#A80036;stroke-width:1.0;"/><polygon fill="#EEEBDC" points="96.55,163,99.1419,169.7292,106.3503,169.9249,103.7584,163.1957,96.55,163" style="stroke:#A80036;stroke-width:1.0;"/><!--MD5=[9ac31ad24446b9096af7568942b8f437]
reverse link ServerPortUser to ChunkSender--><path codeLine="20" d="M172.98,170.61 C149.56,187.26 121.07,207.54 99.52,222.86 " fill="none" id="ServerPortUser-backto-ChunkSender" style="stroke:#A80036;stroke-width:1.0;"/><polygon fill="#EEEBDC" points="183.67,163,176.4622,163.2178,173.891,169.9549,181.0988,169.7371,183.67,163" style="stroke:#A80036;stroke-width:1.0;"/><!--MD5=[6fedce80cf6adfd27af1484b794b1f92]
reverse link ServerPortUser to ChunkReceiver--><path codeLine="21" d="M215.31,176.34 C215.02,191.68 214.7,209.1 214.44,222.68 " fill="none" id="ServerPortUser-backto-ChunkReceiver" style="stroke:#A80036;stroke-width:1.0;"/><polygon fill="#EEEBDC" points="215.57,163,211.4586,168.9242,215.3459,174.9979,219.4572,169.0737,215.57,163" style="stroke:#A80036;stroke-width:1.0;"/></g></svg>