<?xml version="1.0" encoding="UTF-8" standalone="no"?><svg xmlns="http://www.w3.org/2000/svg" xmlns:xlink="http://www.w3.org/1999/xlink" contentScriptType="application/ecmascript" contentStyleType="text/css" height="356px" preserveAspectRatio="none" style="width:1228px;height:356px;background:#EEEBDC;" version="1.1" viewBox="0 0 1228 356" width="1228px" zoomAndPan="magnify"><defs><filter height="300%" id="f1dcn5rolqgtxs" width="300%" x="-1" y="-1"><feGaussianBlur result="blurOut" stdDeviation="2.0"/><feColorMatrix in="blurOut" result="blurOut2" type="matrix" values="0 0 0 0 0 0 0 0 0 0 0 0 0 0 0 0 0 0 .4 0"/><feOffset dx="4.0" dy="4.0" in="blurOut2" result="blurOut3"/><feBlend in="SourceGraphic" in2="blurOut3" mode="normal"/></filter></defs><g><!--MD5=[0d14460b0789ede061c4aebafd984493]
class RpcBaseHeader--><rect codeLine="3" fill="#FEFECE" filter="url(#f1dcn5rolqgtxs)" height="167.8551" id="RpcBaseHeader" style="stroke:#A80036;stroke-width:1.5;" width="640" x="259.5" y="175"/><ellipse cx="530.25" cy="191" fill="#ADD1B2" rx="11" ry="11" style="stroke:#A80036;stroke-width:1.0;"/><path d="M530.0469,197.7344 Q527.5625,197.7344 526.2344,196.0938 Q524.9219,194.4219 524.9219,191.3125 Q524.9219,188.1875 526.2344,186.5313 Q527.5625,184.875 530.0469,184.875 Q530.7656,184.875 531.4219,185.0313 Q532.0625,185.1875 532.625,185.4844 L532.625,188.2031 Q532.2656,187.8594 531.9688,187.6719 Q531.6719,187.4688 531.4063,187.3438 Q531.0938,187.2031 530.7813,187.1406 Q530.4844,187.0781 530.1719,187.0781 Q528.8438,187.0781 528.1563,188.1406 Q527.4688,189.2344 527.4688,191.3125 Q527.4688,193.4063 528.1563,194.4688 Q528.8438,195.5469 530.1719,195.5469 Q530.8125,195.5469 531.4063,195.2656 Q531.7031,195.1406 531.9844,194.9531 Q532.2813,194.75 532.625,194.4219 L532.625,197.1406 Q532.0469,197.4375 531.4063,197.5938 Q530.7813,197.7344 530.0469,197.7344 Z " fill="#000000"/><text fill="#000000" font-family="sans-serif" font-size="12" lengthAdjust="spacing" textLength="90" x="550.75" y="195.656">RpcBaseHeader</text><line style="stroke:#A80036;stroke-width:1.5;" x1="260.5" x2="898.5" y1="207" y2="207"/><polygon fill="none" points="270.5,213,274.5,217,270.5,221,266.5,217" style="stroke:#B38D22;stroke-width:1.0;"/><text fill="#000000" font-family="sans-serif" font-size="11" lengthAdjust="spacing" textLength="152" x="279.5" y="222.7589">m_rpcHeaderVersion: uint8_t</text><polygon fill="none" points="270.5,227.9819,274.5,231.9819,270.5,235.9819,266.5,231.9819" style="stroke:#B38D22;stroke-width:1.0;"/><text fill="#000000" font-family="sans-serif" font-size="11" lengthAdjust="spacing" textLength="254" x="279.5" y="237.7408">m_clientQueueUniqueuePortId: UniqueuePortId</text><polygon fill="none" points="270.5,242.9638,274.5,246.9638,270.5,250.9638,266.5,246.9638" style="stroke:#B38D22;stroke-width:1.0;"/><text fill="#000000" font-family="sans-serif" font-size="11" lengthAdjust="spacing" textLength="213" x="279.5" y="252.7227">m_lastKnownClientQueueIndex: uint64_t</text><polygon fill="none" points="270.5,257.9457,274.5,261.9457,270.5,265.9457,266.5,261.9457" style="stroke:#B38D22;stroke-width:1.0;"/><text fill="#000000" font-family="sans-serif" font-size="11" lengthAdjust="spacing" textLength="123" x="279.5" y="267.7046">m_sequenceId: uint64_t</text><line style="stroke:#A80036;stroke-width:1.5;" x1="260.5" x2="898.5" y1="274.9276" y2="274.9276"/><ellipse cx="270.5" cy="285.9276" fill="#84BE84" rx="3" ry="3" style="stroke:#038048;stroke-width:1.0;"/><text fill="#000000" font-family="sans-serif" font-size="11" lengthAdjust="spacing" textLength="614" x="279.5" y="290.6865">RpcBaseHeader(clientQueueUniqueuePortId: UniqueuePortId, lastKnownQueueIndex: uint64_t, sequenceId: uint64_t)</text><ellipse cx="270.5" cy="300.9094" fill="#84BE84" rx="3" ry="3" style="stroke:#038048;stroke-width:1.0;"/><text fill="#000000" font-family="sans-serif" font-size="11" lengthAdjust="spacing" textLength="132" x="279.5" y="305.6684">getSequenceId(): uint64_t</text><ellipse cx="270.5" cy="315.8913" fill="#84BE84" rx="3" ry="3" style="stroke:#038048;stroke-width:1.0;"/><text fill="#000000" font-family="sans-serif" font-size="11" lengthAdjust="spacing" textLength="179" x="279.5" y="320.6502">getChunkHeader(): ChunkHeader*</text><ellipse cx="270.5" cy="330.8732" fill="#84BE84" rx="3" ry="3" style="stroke:#038048;stroke-width:1.0;"/><text fill="#000000" font-family="sans-serif" font-size="11" lengthAdjust="spacing" textLength="124" x="279.5" y="335.6321">getUserPayload(): void*</text><!--MD5=[6cc62d088b7a142a0ad16d78c666be36]
class RequestHeader--><rect codeLine="14" fill="#FEFECE" filter="url(#f1dcn5rolqgtxs)" height="107.9276" id="RequestHeader" style="stroke:#A80036;stroke-width:1.5;" width="525" x="7" y="7"/><ellipse cx="221.75" cy="23" fill="#ADD1B2" rx="11" ry="11" style="stroke:#A80036;stroke-width:1.0;"/><path d="M221.5469,29.7344 Q219.0625,29.7344 217.7344,28.0938 Q216.4219,26.4219 216.4219,23.3125 Q216.4219,20.1875 217.7344,18.5313 Q219.0625,16.875 221.5469,16.875 Q222.2656,16.875 222.9219,17.0313 Q223.5625,17.1875 224.125,17.4844 L224.125,20.2031 Q223.7656,19.8594 223.4688,19.6719 Q223.1719,19.4688 222.9063,19.3438 Q222.5938,19.2031 222.2813,19.1406 Q221.9844,19.0781 221.6719,19.0781 Q220.3438,19.0781 219.6563,20.1406 Q218.9688,21.2344 218.9688,23.3125 Q218.9688,25.4063 219.6563,26.4688 Q220.3438,27.5469 221.6719,27.5469 Q222.3125,27.5469 222.9063,27.2656 Q223.2031,27.1406 223.4844,26.9531 Q223.7813,26.75 224.125,26.4219 L224.125,29.1406 Q223.5469,29.4375 222.9063,29.5938 Q222.2813,29.7344 221.5469,29.7344 Z " fill="#000000"/><text fill="#000000" font-family="sans-serif" font-size="12" lengthAdjust="spacing" textLength="87" x="242.25" y="27.656">RequestHeader</text><line style="stroke:#A80036;stroke-width:1.5;" x1="8" x2="531" y1="39" y2="39"/><rect fill="none" height="6" style="stroke:#C82930;stroke-width:1.0;" width="6" x="15" y="47"/><text fill="#000000" font-family="sans-serif" font-size="11" lengthAdjust="spacing" textLength="129" x="27" y="54.7589">m_isFireAndForget: bool</text><line style="stroke:#A80036;stroke-width:1.5;" x1="8" x2="531" y1="61.9819" y2="61.9819"/><ellipse cx="18" cy="72.9819" fill="#84BE84" rx="3" ry="3" style="stroke:#038048;stroke-width:1.0;"/><text fill="#000000" font-family="sans-serif" font-size="11" lengthAdjust="spacing" textLength="499" x="27" y="77.7408">RequestHeader(clientQueueUniqueuePortId: UniqueuePortId, lastKnownQueueIndex: uint64_t)</text><ellipse cx="18" cy="87.9638" fill="#84BE84" rx="3" ry="3" style="stroke:#038048;stroke-width:1.0;"/><text fill="#000000" font-family="sans-serif" font-size="11" lengthAdjust="spacing" textLength="219" x="27" y="92.7227">setSequenceId(sequenceId: uint64_t): void</text><ellipse cx="18" cy="102.9457" fill="#84BE84" rx="3" ry="3" style="stroke:#038048;stroke-width:1.0;"/><text fill="#000000" font-family="sans-serif" font-size="11" lengthAdjust="spacing" textLength="230" x="27" y="107.7046">setFireAndForget(fireAndForget: bool): void</text><!--MD5=[5e52833216ce84db46124975cdba11dc]
class ResponseHeader--><rect codeLine="21" fill="#FEFECE" filter="url(#f1dcn5rolqgtxs)" height="107.9276" id="ResponseHeader" style="stroke:#A80036;stroke-width:1.5;" width="647" x="567" y="7"/><ellipse cx="838.25" cy="23" fill="#ADD1B2" rx="11" ry="11" style="stroke:#A80036;stroke-width:1.0;"/><path d="M838.0469,29.7344 Q835.5625,29.7344 834.2344,28.0938 Q832.9219,26.4219 832.9219,23.3125 Q832.9219,20.1875 834.2344,18.5313 Q835.5625,16.875 838.0469,16.875 Q838.7656,16.875 839.4219,17.0313 Q840.0625,17.1875 840.625,17.4844 L840.625,20.2031 Q840.2656,19.8594 839.9688,19.6719 Q839.6719,19.4688 839.4063,19.3438 Q839.0938,19.2031 838.7813,19.1406 Q838.4844,19.0781 838.1719,19.0781 Q836.8438,19.0781 836.1563,20.1406 Q835.4688,21.2344 835.4688,23.3125 Q835.4688,25.4063 836.1563,26.4688 Q836.8438,27.5469 838.1719,27.5469 Q838.8125,27.5469 839.4063,27.2656 Q839.7031,27.1406 839.9844,26.9531 Q840.2813,26.75 840.625,26.4219 L840.625,29.1406 Q840.0469,29.4375 839.4063,29.5938 Q838.7813,29.7344 838.0469,29.7344 Z " fill="#000000"/><text fill="#000000" font-family="sans-serif" font-size="12" lengthAdjust="spacing" textLength="96" x="858.75" y="27.656">ResponseHeader</text><line style="stroke:#A80036;stroke-width:1.5;" x1="568" x2="1213" y1="39" y2="39"/><rect fill="none" height="6" style="stroke:#C82930;stroke-width:1.0;" width="6" x="575" y="47"/><text fill="#000000" font-family="sans-serif" font-size="11" lengthAdjust="spacing" textLength="125" x="587" y="54.7589">m_hasServerError: bool</text><line style="stroke:#A80036;stroke-width:1.5;" x1="568" x2="1213" y1="61.9819" y2="61.9819"/><ellipse cx="578" cy="72.9819" fill="#84BE84" rx="3" ry="3" style="stroke:#038048;stroke-width:1.0;"/><text fill="#000000" font-family="sans-serif" font-size="11" lengthAdjust="spacing" textLength="621" x="587" y="77.7408">ResponseHeader(clientQueueUniqueuePortId: UniqueuePortId, lastKnownQueueIndex: uint64_t, sequenceId: uint64_t)</text><ellipse cx="578" cy="87.9638" fill="#84BE84" rx="3" ry="3" style="stroke:#038048;stroke-width:1.0;"/><text fill="#000000" font-family="sans-serif" font-size="11" lengthAdjust="spacing" textLength="203" x="587" y="92.7227">setServerError(serverError: bool): void</text><ellipse cx="578" cy="102.9457" fill="#84BE84" rx="3" ry="3" style="stroke:#038048;stroke-width:1.0;"/><text fill="#000000" font-family="sans-serif" font-size="11" lengthAdjust="spacing" textLength="116" x="587" y="107.7046">hasServerError(): bool</text><!--MD5=[1211e87899b0264a6108ab139b773bf5]
link RequestHeader to RpcBaseHeader--><path codeLine="28" d="M353.39,115.04 C381.16,132.6 412.82,152.62 443.48,172 " fill="none" id="RequestHeader-to-RpcBaseHeader" style="stroke:#A80036;stroke-width:1.0;"/><polygon fill="#A80036" points="447.99,174.85,442.5176,166.6614,443.7629,172.1795,438.2448,173.4248,447.99,174.85" style="stroke:#A80036;stroke-width:1.0;"/><!--MD5=[9d409bceee22cd6842596723dd5b07a3]
link ResponseHeader to RpcBaseHeader--><path codeLine="29" d="M806.34,115.04 C778.48,132.6 746.71,152.62 715.96,172 " fill="none" id="ResponseHeader-to-RpcBaseHeader" style="stroke:#A80036;stroke-width:1.0;"/><polygon fill="#A80036" points="711.43,174.85,721.1786,173.4484,715.6636,172.1897,716.9222,166.6747,711.43,174.85" style="stroke:#A80036;stroke-width:1.0;"/></g></svg>