<?xml version="1.0" encoding="UTF-8" standalone="no"?><svg xmlns="http://www.w3.org/2000/svg" xmlns:xlink="http://www.w3.org/1999/xlink" contentScriptType="application/ecmascript" contentStyleType="text/css" height="386px" preserveAspectRatio="none" style="width:1228px;height:386px;background:#EEEBDC;" version="1.1" viewBox="0 0 1228 386" width="1228px" zoomAndPan="magnify"><defs><filter height="300%" id="frpc3n1y3pxdi" width="300%" x="-1" y="-1"><feGaussianBlur result="blurOut" stdDeviation="2.0"/><feColorMatrix in="blurOut" result="blurOut2" type="matrix" values="0 0 0 0 0 0 0 0 0 0 0 0 0 0 0 0 0 0 .4 0"/><feOffset dx="4.0" dy="4.0" in="blurOut2" result="blurOut3"/><feBlend in="SourceGraphic" in2="blurOut3" mode="normal"/></filter></defs><g><!--MD5=[0d14460b0789ede061c4aebafd984493]
class RpcBaseHeader--><rect codeLine="2" fill="#FEFECE" filter="url(#frpc3n1y3pxdi)" height="182.837" id="RpcBaseHeader" style="stroke:#A80036;stroke-width:1.5;" width="783" x="188" y="190"/><ellipse cx="530.25" cy="206" fill="#ADD1B2" rx="11" ry="11" style="stroke:#A80036;stroke-width:1.0;"/><path d="M530.0469,212.7344 Q527.5625,212.7344 526.2344,211.0938 Q524.9219,209.4219 524.9219,206.3125 Q524.9219,203.1875 526.2344,201.5313 Q527.5625,199.875 530.0469,199.875 Q530.7656,199.875 531.4219,200.0313 Q532.0625,200.1875 532.625,200.4844 L532.625,203.2031 Q532.2656,202.8594 531.9688,202.6719 Q531.6719,202.4688 531.4063,202.3438 Q531.0938,202.2031 530.7813,202.1406 Q530.4844,202.0781 530.1719,202.0781 Q528.8438,202.0781 528.1563,203.1406 Q527.4688,204.2344 527.4688,206.3125 Q527.4688,208.4063 528.1563,209.4688 Q528.8438,210.5469 530.1719,210.5469 Q530.8125,210.5469 531.4063,210.2656 Q531.7031,210.1406 531.9844,209.9531 Q532.2813,209.75 532.625,209.4219 L532.625,212.1406 Q532.0469,212.4375 531.4063,212.5938 Q530.7813,212.7344 530.0469,212.7344 Z " fill="#000000"/><text fill="#000000" font-family="sans-serif" font-size="12" lengthAdjust="spacing" textLength="90" x="550.75" y="210.656">RpcBaseHeader</text><line style="stroke:#A80036;stroke-width:1.5;" x1="189" x2="970" y1="222" y2="222"/><polygon fill="none" points="199,228,203,232,199,236,195,232" style="stroke:#B38D22;stroke-width:1.0;"/><text fill="#000000" font-family="sans-serif" font-size="11" lengthAdjust="spacing" textLength="152" x="208" y="237.7589">m_rpcHeaderVersion: uint8_t</text><polygon fill="none" points="199,242.9819,203,246.9819,199,250.9819,195,246.9819" style="stroke:#B38D22;stroke-width:1.0;"/><text fill="#000000" font-family="sans-serif" font-size="11" lengthAdjust="spacing" textLength="213" x="208" y="252.7408">m_lastKnownClientQueueIndex: uint32_t</text><polygon fill="none" points="199,257.9638,203,261.9638,199,265.9638,195,261.9638" style="stroke:#B38D22;stroke-width:1.0;"/><text fill="#000000" font-family="sans-serif" font-size="11" lengthAdjust="spacing" textLength="254" x="208" y="267.7227">m_clientQueueUniqueuePortId: UniqueuePortId</text><polygon fill="none" points="199,272.9457,203,276.9457,199,280.9457,195,276.9457" style="stroke:#B38D22;stroke-width:1.0;"/><text fill="#000000" font-family="sans-serif" font-size="11" lengthAdjust="spacing" textLength="116" x="208" y="282.7046">m_sequenceId: int64_t</text><line style="stroke:#A80036;stroke-width:1.5;" x1="189" x2="970" y1="289.9276" y2="289.9276"/><ellipse cx="199" cy="300.9276" fill="#84BE84" rx="3" ry="3" style="stroke:#038048;stroke-width:1.0;"/><text fill="#000000" font-family="sans-serif" font-size="11" lengthAdjust="spacing" textLength="757" x="208" y="305.6865">RpcBaseHeader(clientQueueUniqueuePortId: UniqueuePortId, lastKnownQueueIndex: uint64_t, sequenceId: uint64_t, rpcHeaderVersion: uint8_t)</text><ellipse cx="199" cy="315.9094" fill="#84BE84" rx="3" ry="3" style="stroke:#038048;stroke-width:1.0;"/><text fill="#000000" font-family="sans-serif" font-size="11" lengthAdjust="spacing" textLength="162" x="208" y="320.6684">getRpcHeaderVersion(): uint8_t</text><ellipse cx="199" cy="330.8913" fill="#84BE84" rx="3" ry="3" style="stroke:#038048;stroke-width:1.0;"/><text fill="#000000" font-family="sans-serif" font-size="11" lengthAdjust="spacing" textLength="125" x="208" y="335.6502">getSequenceId(): int64_t</text><ellipse cx="199" cy="345.8732" fill="#84BE84" rx="3" ry="3" style="stroke:#038048;stroke-width:1.0;"/><text fill="#000000" font-family="sans-serif" font-size="11" lengthAdjust="spacing" textLength="179" x="208" y="350.6321">getChunkHeader(): ChunkHeader*</text><ellipse cx="199" cy="360.8551" fill="#84BE84" rx="3" ry="3" style="stroke:#038048;stroke-width:1.0;"/><text fill="#000000" font-family="sans-serif" font-size="11" lengthAdjust="spacing" textLength="124" x="208" y="365.614">getUserPayload(): void*</text><!--MD5=[6cc62d088b7a142a0ad16d78c666be36]
class RequestHeader--><rect codeLine="14" fill="#FEFECE" filter="url(#frpc3n1y3pxdi)" height="122.9094" id="RequestHeader" style="stroke:#A80036;stroke-width:1.5;" width="525" x="7" y="7"/><ellipse cx="221.75" cy="23" fill="#ADD1B2" rx="11" ry="11" style="stroke:#A80036;stroke-width:1.0;"/><path d="M221.5469,29.7344 Q219.0625,29.7344 217.7344,28.0938 Q216.4219,26.4219 216.4219,23.3125 Q216.4219,20.1875 217.7344,18.5313 Q219.0625,16.875 221.5469,16.875 Q222.2656,16.875 222.9219,17.0313 Q223.5625,17.1875 224.125,17.4844 L224.125,20.2031 Q223.7656,19.8594 223.4688,19.6719 Q223.1719,19.4688 222.9063,19.3438 Q222.5938,19.2031 222.2813,19.1406 Q221.9844,19.0781 221.6719,19.0781 Q220.3438,19.0781 219.6563,20.1406 Q218.9688,21.2344 218.9688,23.3125 Q218.9688,25.4063 219.6563,26.4688 Q220.3438,27.5469 221.6719,27.5469 Q222.3125,27.5469 222.9063,27.2656 Q223.2031,27.1406 223.4844,26.9531 Q223.7813,26.75 224.125,26.4219 L224.125,29.1406 Q223.5469,29.4375 222.9063,29.5938 Q222.2813,29.7344 221.5469,29.7344 Z " fill="#000000"/><text fill="#000000" font-family="sans-serif" font-size="12" lengthAdjust="spacing" textLength="87" x="242.25" y="27.656">RequestHeader</text><line style="stroke:#A80036;stroke-width:1.5;" x1="8" x2="531" y1="39" y2="39"/><rect fill="none" height="6" style="stroke:#C82930;stroke-width:1.0;" width="6" x="15" y="47"/><text fill="#000000" font-family="sans-serif" font-size="11" lengthAdjust="spacing" textLength="129" x="27" y="54.7589">m_isFireAndForget: bool</text><line style="stroke:#A80036;stroke-width:1.5;" x1="8" x2="531" y1="61.9819" y2="61.9819"/><ellipse cx="18" cy="72.9819" fill="#84BE84" rx="3" ry="3" style="stroke:#038048;stroke-width:1.0;"/><text fill="#000000" font-family="sans-serif" font-size="11" lengthAdjust="spacing" textLength="499" x="27" y="77.7408">RequestHeader(clientQueueUniqueuePortId: UniqueuePortId, lastKnownQueueIndex: uint64_t)</text><ellipse cx="18" cy="87.9638" fill="#84BE84" rx="3" ry="3" style="stroke:#038048;stroke-width:1.0;"/><text fill="#000000" font-family="sans-serif" font-size="11" lengthAdjust="spacing" textLength="212" x="27" y="92.7227">setSequenceId(sequenceId: int64_t): void</text><ellipse cx="18" cy="102.9457" fill="#84BE84" rx="3" ry="3" style="stroke:#038048;stroke-width:1.0;"/><text fill="#000000" font-family="sans-serif" font-size="11" lengthAdjust="spacing" textLength="126" x="27" y="107.7046">setFireAndForget(): void</text><ellipse cx="18" cy="117.9276" fill="#84BE84" rx="3" ry="3" style="stroke:#038048;stroke-width:1.0;"/><text fill="#000000" font-family="sans-serif" font-size="11" lengthAdjust="spacing" textLength="120" x="27" y="122.6865">isFireAndForget(): bool</text><!--MD5=[5e52833216ce84db46124975cdba11dc]
class ResponseHeader--><rect codeLine="22" fill="#FEFECE" filter="url(#frpc3n1y3pxdi)" height="107.9276" id="ResponseHeader" style="stroke:#A80036;stroke-width:1.5;" width="647" x="567" y="14.5"/><ellipse cx="838.25" cy="30.5" fill="#ADD1B2" rx="11" ry="11" style="stroke:#A80036;stroke-width:1.0;"/><path d="M838.0469,37.2344 Q835.5625,37.2344 834.2344,35.5938 Q832.9219,33.9219 832.9219,30.8125 Q832.9219,27.6875 834.2344,26.0313 Q835.5625,24.375 838.0469,24.375 Q838.7656,24.375 839.4219,24.5313 Q840.0625,24.6875 840.625,24.9844 L840.625,27.7031 Q840.2656,27.3594 839.9688,27.1719 Q839.6719,26.9688 839.4063,26.8438 Q839.0938,26.7031 838.7813,26.6406 Q838.4844,26.5781 838.1719,26.5781 Q836.8438,26.5781 836.1563,27.6406 Q835.4688,28.7344 835.4688,30.8125 Q835.4688,32.9063 836.1563,33.9688 Q836.8438,35.0469 838.1719,35.0469 Q838.8125,35.0469 839.4063,34.7656 Q839.7031,34.6406 839.9844,34.4531 Q840.2813,34.25 840.625,33.9219 L840.625,36.6406 Q840.0469,36.9375 839.4063,37.0938 Q838.7813,37.2344 838.0469,37.2344 Z " fill="#000000"/><text fill="#000000" font-family="sans-serif" font-size="12" lengthAdjust="spacing" textLength="96" x="858.75" y="35.156">ResponseHeader</text><line style="stroke:#A80036;stroke-width:1.5;" x1="568" x2="1213" y1="46.5" y2="46.5"/><rect fill="none" height="6" style="stroke:#C82930;stroke-width:1.0;" width="6" x="575" y="54.5"/><text fill="#000000" font-family="sans-serif" font-size="11" lengthAdjust="spacing" textLength="125" x="587" y="62.2589">m_hasServerError: bool</text><line style="stroke:#A80036;stroke-width:1.5;" x1="568" x2="1213" y1="69.4819" y2="69.4819"/><ellipse cx="578" cy="80.4819" fill="#84BE84" rx="3" ry="3" style="stroke:#038048;stroke-width:1.0;"/><text fill="#000000" font-family="sans-serif" font-size="11" lengthAdjust="spacing" textLength="621" x="587" y="85.2408">ResponseHeader(clientQueueUniqueuePortId: UniqueuePortId, lastKnownQueueIndex: uint64_t, sequenceId: uint64_t)</text><ellipse cx="578" cy="95.4638" fill="#84BE84" rx="3" ry="3" style="stroke:#038048;stroke-width:1.0;"/><text fill="#000000" font-family="sans-serif" font-size="11" lengthAdjust="spacing" textLength="112" x="587" y="100.2227">setServerError(): void</text><ellipse cx="578" cy="110.4457" fill="#84BE84" rx="3" ry="3" style="stroke:#038048;stroke-width:1.0;"/><text fill="#000000" font-family="sans-serif" font-size="11" lengthAdjust="spacing" textLength="116" x="587" y="115.2046">hasServerError(): bool</text><!--MD5=[1211e87899b0264a6108ab139b773bf5]
link RequestHeader to RpcBaseHeader--><path codeLine="29" d="M358.75,130.25 C384.83,148 413.97,167.83 442.3,187.11 " fill="none" id="RequestHeader-to-RpcBaseHeader" style="stroke:#A80036;stroke-width:1.0;"/><polygon fill="#A80036" points="446.47,189.95,441.273,181.584,442.334,187.1404,436.7776,188.2015,446.47,189.95" style="stroke:#A80036;stroke-width:1.0;"/><!--MD5=[9d409bceee22cd6842596723dd5b07a3]
link ResponseHeader to RpcBaseHeader--><path codeLine="30" d="M812.02,122.74 C783.26,142.26 749.8,164.96 717.37,186.96 " fill="none" id="ResponseHeader-to-RpcBaseHeader" style="stroke:#A80036;stroke-width:1.0;"/><polygon fill="#A80036" points="713.01,189.92,722.7065,188.1944,717.1526,187.1202,718.2268,181.5663,713.01,189.92" style="stroke:#A80036;stroke-width:1.0;"/></g></svg>