<?xml version="1.0" encoding="UTF-8" standalone="no"?><svg xmlns="http://www.w3.org/2000/svg" xmlns:xlink="http://www.w3.org/1999/xlink" contentScriptType="application/ecmascript" contentStyleType="text/css" height="236px" preserveAspectRatio="none" style="width:903px;height:236px;background:#EEEBDC;" version="1.1" viewBox="0 0 903 236" width="903px" zoomAndPan="magnify"><defs><filter height="300%" id="f1nypxbwztkzif" width="300%" x="-1" y="-1"><feGaussianBlur result="blurOut" stdDeviation="2.0"/><feColorMatrix in="blurOut" result="blurOut2" type="matrix" values="0 0 0 0 0 0 0 0 0 0 0 0 0 0 0 0 0 0 .4 0"/><feOffset dx="4.0" dy="4.0" in="blurOut2" result="blurOut3"/><feBlend in="SourceGraphic" in2="blurOut3" mode="normal"/></filter></defs><g><!--MD5=[ed6624c6556d5e7b1bd23032162d20b7]
class Client--><rect codeLine="3" fill="#FEFECE" filter="url(#f1nypxbwztkzif)" height="197.8189" id="Client" style="stroke:#A80036;stroke-width:1.5;" width="417" x="7" y="17.516"/><ellipse cx="171.25" cy="33.516" fill="#ADD1B2" rx="11" ry="11" style="stroke:#A80036;stroke-width:1.0;"/><path d="M171.0469,40.2504 Q168.5625,40.2504 167.2344,38.6098 Q165.9219,36.9379 165.9219,33.8285 Q165.9219,30.7035 167.2344,29.0473 Q168.5625,27.391 171.0469,27.391 Q171.7656,27.391 172.4219,27.5473 Q173.0625,27.7035 173.625,28.0004 L173.625,30.7191 Q173.2656,30.3754 172.9688,30.1879 Q172.6719,29.9848 172.4063,29.8598 Q172.0938,29.7191 171.7813,29.6566 Q171.4844,29.5941 171.1719,29.5941 Q169.8438,29.5941 169.1563,30.6566 Q168.4688,31.7504 168.4688,33.8285 Q168.4688,35.9223 169.1563,36.9848 Q169.8438,38.0629 171.1719,38.0629 Q171.8125,38.0629 172.4063,37.7816 Q172.7031,37.6566 172.9844,37.4691 Q173.2813,37.266 173.625,36.9379 L173.625,39.6566 Q173.0469,39.9535 172.4063,40.1098 Q171.7813,40.2504 171.0469,40.2504 Z " fill="#000000"/><text fill="#000000" font-family="sans-serif" font-size="12" lengthAdjust="spacing" textLength="32" x="191.75" y="38.1721">Client</text><rect fill="#EEEBDC" height="18.3441" style="stroke:#000000;stroke-width:1.0;stroke-dasharray:2.0,2.0;" width="46" x="381" y="14.516"/><text fill="#000000" font-family="sans-serif" font-size="12" font-style="italic" lengthAdjust="spacing" textLength="44" x="382" y="28.3441">Req, Res</text><line style="stroke:#A80036;stroke-width:1.5;" x1="8" x2="423" y1="49.516" y2="49.516"/><line style="stroke:#A80036;stroke-width:1.5;" x1="8" x2="423" y1="57.516" y2="57.516"/><text fill="#000000" font-family="sans-serif" font-size="11" lengthAdjust="spacing" textLength="405" x="13" y="73.2749">Client(serviceDescription: ServiceDescription&amp;, clientOptions: ClientOptions&amp;)</text><text fill="#000000" font-family="sans-serif" font-size="11" lengthAdjust="spacing" textLength="76" x="13" y="88.2568">connect(): void</text><text fill="#000000" font-family="sans-serif" font-size="11" lengthAdjust="spacing" textLength="91" x="13" y="103.2387">disconnect(): void</text><text fill="#000000" font-family="sans-serif" font-size="11" lengthAdjust="spacing" textLength="201" x="13" y="118.2206">getConnectionState(): ConnectionState</text><text fill="#000000" font-family="sans-serif" font-size="11" lengthAdjust="spacing" textLength="202" x="13" y="133.2025">loan(): expected&lt;Request&lt;Req&gt;, Error&gt;</text><text fill="#000000" font-family="sans-serif" font-size="11" lengthAdjust="spacing" textLength="180" x="13" y="148.1844">send(request: Request&lt;Req&gt;): void</text><text fill="#000000" font-family="sans-serif" font-size="11" lengthAdjust="spacing" textLength="109" x="13" y="163.1663">hasResponses(): bool</text><text fill="#000000" font-family="sans-serif" font-size="11" lengthAdjust="spacing" textLength="207" x="13" y="178.1482">take(): expected&lt;Response&lt;Res&gt;, Error&gt;</text><text fill="#000000" font-family="sans-serif" font-size="11" lengthAdjust="spacing" textLength="169" x="13" y="193.13">releaseQueuedResponses(): void</text><text fill="#000000" font-family="sans-serif" font-size="11" lengthAdjust="spacing" textLength="145" x="13" y="208.1119">hasMissedResponses(): bool</text><!--MD5=[c60af77fe5573b84a4aa4bce89659574]
class Server--><rect codeLine="16" fill="#FEFECE" filter="url(#f1nypxbwztkzif)" height="212.8008" id="Server" style="stroke:#A80036;stroke-width:1.5;" width="430" x="459.5" y="10.016"/><ellipse cx="627.75" cy="26.016" fill="#ADD1B2" rx="11" ry="11" style="stroke:#A80036;stroke-width:1.0;"/><path d="M627.5469,32.7504 Q625.0625,32.7504 623.7344,31.1098 Q622.4219,29.4379 622.4219,26.3285 Q622.4219,23.2035 623.7344,21.5473 Q625.0625,19.891 627.5469,19.891 Q628.2656,19.891 628.9219,20.0473 Q629.5625,20.2035 630.125,20.5004 L630.125,23.2191 Q629.7656,22.8754 629.4688,22.6879 Q629.1719,22.4848 628.9063,22.3598 Q628.5938,22.2191 628.2813,22.1566 Q627.9844,22.0941 627.6719,22.0941 Q626.3438,22.0941 625.6563,23.1566 Q624.9688,24.2504 624.9688,26.3285 Q624.9688,28.4223 625.6563,29.4848 Q626.3438,30.5629 627.6719,30.5629 Q628.3125,30.5629 628.9063,30.2816 Q629.2031,30.1566 629.4844,29.9691 Q629.7813,29.766 630.125,29.4379 L630.125,32.1566 Q629.5469,32.4535 628.9063,32.6098 Q628.2813,32.7504 627.5469,32.7504 Z " fill="#000000"/><text fill="#000000" font-family="sans-serif" font-size="12" lengthAdjust="spacing" textLength="37" x="648.25" y="30.6721">Server</text><rect fill="#EEEBDC" height="18.3441" style="stroke:#000000;stroke-width:1.0;stroke-dasharray:2.0,2.0;" width="46" x="846.5" y="7.016"/><text fill="#000000" font-family="sans-serif" font-size="12" font-style="italic" lengthAdjust="spacing" textLength="44" x="847.5" y="20.8441">Req, Res</text><line style="stroke:#A80036;stroke-width:1.5;" x1="460.5" x2="888.5" y1="42.016" y2="42.016"/><line style="stroke:#A80036;stroke-width:1.5;" x1="460.5" x2="888.5" y1="50.016" y2="50.016"/><text fill="#000000" font-family="sans-serif" font-size="11" lengthAdjust="spacing" textLength="418" x="465.5" y="65.7749">Server(serviceDescription: ServiceDescription&amp;, serverOptions: ServerOptions&amp;)</text><text fill="#000000" font-family="sans-serif" font-size="11" lengthAdjust="spacing" textLength="61" x="465.5" y="80.7568">offer(): void</text><text fill="#000000" font-family="sans-serif" font-size="11" lengthAdjust="spacing" textLength="86" x="465.5" y="95.7387">stopOffer(): void</text><text fill="#000000" font-family="sans-serif" font-size="11" lengthAdjust="spacing" textLength="85" x="465.5" y="110.7206">isOffered(): bool</text><text fill="#000000" font-family="sans-serif" font-size="11" lengthAdjust="spacing" textLength="89" x="465.5" y="125.7025">hasClients(): bool</text><text fill="#000000" font-family="sans-serif" font-size="11" lengthAdjust="spacing" textLength="101" x="465.5" y="140.6844">hasRequests(): bool</text><text fill="#000000" font-family="sans-serif" font-size="11" lengthAdjust="spacing" textLength="201" x="465.5" y="155.6663">take(): expected&lt;Request&lt;Req&gt;, Error&gt;</text><text fill="#000000" font-family="sans-serif" font-size="11" lengthAdjust="spacing" textLength="161" x="465.5" y="170.6482">releaseQueuedRequests(): void</text><text fill="#000000" font-family="sans-serif" font-size="11" lengthAdjust="spacing" textLength="137" x="465.5" y="185.63">hasMissedRequests(): bool</text><text fill="#000000" font-family="sans-serif" font-size="11" lengthAdjust="spacing" textLength="336" x="465.5" y="200.6119">loan(request: Request&lt;Req&gt;&amp;): expected&lt;Response&lt;Res&gt;, Error&gt;</text><text fill="#000000" font-family="sans-serif" font-size="11" lengthAdjust="spacing" textLength="194" x="465.5" y="215.5938">send(response: Response&lt;Res&gt;): void</text></g></svg>