<?xml version="1.0" encoding="UTF-8" standalone="no"?><svg xmlns="http://www.w3.org/2000/svg" xmlns:xlink="http://www.w3.org/1999/xlink" contentScriptType="application/ecmascript" contentStyleType="text/css" height="997px" preserveAspectRatio="none" style="width:1527px;height:997px;background:#EEEBDC;" version="1.1" viewBox="0 0 1527 997" width="1527px" zoomAndPan="magnify"><defs><filter height="300%" id="f1dn99sjzv6q6h" width="300%" x="-1" y="-1"><feGaussianBlur result="blurOut" stdDeviation="2.0"/><feColorMatrix in="blurOut" result="blurOut2" type="matrix" values="0 0 0 0 0 0 0 0 0 0 0 0 0 0 0 0 0 0 .4 0"/><feOffset dx="4.0" dy="4.0" in="blurOut2" result="blurOut3"/><feBlend in="SourceGraphic" in2="blurOut3" mode="normal"/></filter></defs><g><!--MD5=[cec590fdcedb7e6e9851d53d8e00960d]
cluster Group1--><!--MD5=[b22bc57c0d09f8caf1ed524d630ae0a2]
cluster Group2--><!--MD5=[ed6624c6556d5e7b1bd23032162d20b7]
class Client--><rect codeLine="3" fill="#FEFECE" filter="url(#f1dn99sjzv6q6h)" height="197.8189" id="Client" style="stroke:#A80036;stroke-width:1.5;" width="417" x="506.5" y="128.5"/><ellipse cx="670.75" cy="144.5" fill="#ADD1B2" rx="11" ry="11" style="stroke:#A80036;stroke-width:1.0;"/><path d="M670.5469,151.2344 Q668.0625,151.2344 666.7344,149.5938 Q665.4219,147.9219 665.4219,144.8125 Q665.4219,141.6875 666.7344,140.0313 Q668.0625,138.375 670.5469,138.375 Q671.2656,138.375 671.9219,138.5313 Q672.5625,138.6875 673.125,138.9844 L673.125,141.7031 Q672.7656,141.3594 672.4688,141.1719 Q672.1719,140.9688 671.9063,140.8438 Q671.5938,140.7031 671.2813,140.6406 Q670.9844,140.5781 670.6719,140.5781 Q669.3438,140.5781 668.6563,141.6406 Q667.9688,142.7344 667.9688,144.8125 Q667.9688,146.9063 668.6563,147.9688 Q669.3438,149.0469 670.6719,149.0469 Q671.3125,149.0469 671.9063,148.7656 Q672.2031,148.6406 672.4844,148.4531 Q672.7813,148.25 673.125,147.9219 L673.125,150.6406 Q672.5469,150.9375 671.9063,151.0938 Q671.2813,151.2344 670.5469,151.2344 Z " fill="#000000"/><text fill="#000000" font-family="sans-serif" font-size="12" lengthAdjust="spacing" textLength="32" x="691.25" y="149.156">Client</text><rect fill="#EEEBDC" height="18.3441" style="stroke:#000000;stroke-width:1.0;stroke-dasharray:2.0,2.0;" width="46" x="880.5" y="125.5"/><text fill="#000000" font-family="sans-serif" font-size="12" font-style="italic" lengthAdjust="spacing" textLength="44" x="881.5" y="139.3281">Req, Res</text><line style="stroke:#A80036;stroke-width:1.5;" x1="507.5" x2="922.5" y1="160.5" y2="160.5"/><line style="stroke:#A80036;stroke-width:1.5;" x1="507.5" x2="922.5" y1="168.5" y2="168.5"/><text fill="#000000" font-family="sans-serif" font-size="11" lengthAdjust="spacing" textLength="405" x="512.5" y="184.2589">Client(serviceDescription: ServiceDescription&amp;, clientOptions: ClientOptions&amp;)</text><text fill="#000000" font-family="sans-serif" font-size="11" lengthAdjust="spacing" textLength="76" x="512.5" y="199.2408">connect(): void</text><text fill="#000000" font-family="sans-serif" font-size="11" lengthAdjust="spacing" textLength="91" x="512.5" y="214.2227">disconnect(): void</text><text fill="#000000" font-family="sans-serif" font-size="11" lengthAdjust="spacing" textLength="201" x="512.5" y="229.2046">getConnectionState(): ConnectionState</text><text fill="#000000" font-family="sans-serif" font-size="11" lengthAdjust="spacing" textLength="202" x="512.5" y="244.1865">loan(): expected&lt;Request&lt;Req&gt;, Error&gt;</text><text fill="#000000" font-family="sans-serif" font-size="11" lengthAdjust="spacing" textLength="180" x="512.5" y="259.1684">send(request: Request&lt;Req&gt;): void</text><text fill="#000000" font-family="sans-serif" font-size="11" lengthAdjust="spacing" textLength="109" x="512.5" y="274.1502">hasResponses(): bool</text><text fill="#000000" font-family="sans-serif" font-size="11" lengthAdjust="spacing" textLength="207" x="512.5" y="289.1321">take(): expected&lt;Response&lt;Res&gt;, Error&gt;</text><text fill="#000000" font-family="sans-serif" font-size="11" lengthAdjust="spacing" textLength="169" x="512.5" y="304.114">releaseQueuedResponses(): void</text><text fill="#000000" font-family="sans-serif" font-size="11" lengthAdjust="spacing" textLength="145" x="512.5" y="319.0959">hasMissedResponses(): bool</text><!--MD5=[c60af77fe5573b84a4aa4bce89659574]
class Server--><rect codeLine="16" fill="#FEFECE" filter="url(#f1dn99sjzv6q6h)" height="212.8008" id="Server" style="stroke:#A80036;stroke-width:1.5;" width="430" x="41" y="121"/><ellipse cx="209.25" cy="137" fill="#ADD1B2" rx="11" ry="11" style="stroke:#A80036;stroke-width:1.0;"/><path d="M209.0469,143.7344 Q206.5625,143.7344 205.2344,142.0938 Q203.9219,140.4219 203.9219,137.3125 Q203.9219,134.1875 205.2344,132.5313 Q206.5625,130.875 209.0469,130.875 Q209.7656,130.875 210.4219,131.0313 Q211.0625,131.1875 211.625,131.4844 L211.625,134.2031 Q211.2656,133.8594 210.9688,133.6719 Q210.6719,133.4688 210.4063,133.3438 Q210.0938,133.2031 209.7813,133.1406 Q209.4844,133.0781 209.1719,133.0781 Q207.8438,133.0781 207.1563,134.1406 Q206.4688,135.2344 206.4688,137.3125 Q206.4688,139.4063 207.1563,140.4688 Q207.8438,141.5469 209.1719,141.5469 Q209.8125,141.5469 210.4063,141.2656 Q210.7031,141.1406 210.9844,140.9531 Q211.2813,140.75 211.625,140.4219 L211.625,143.1406 Q211.0469,143.4375 210.4063,143.5938 Q209.7813,143.7344 209.0469,143.7344 Z " fill="#000000"/><text fill="#000000" font-family="sans-serif" font-size="12" lengthAdjust="spacing" textLength="37" x="229.75" y="141.656">Server</text><rect fill="#EEEBDC" height="18.3441" style="stroke:#000000;stroke-width:1.0;stroke-dasharray:2.0,2.0;" width="46" x="428" y="118"/><text fill="#000000" font-family="sans-serif" font-size="12" font-style="italic" lengthAdjust="spacing" textLength="44" x="429" y="131.8281">Req, Res</text><line style="stroke:#A80036;stroke-width:1.5;" x1="42" x2="470" y1="153" y2="153"/><line style="stroke:#A80036;stroke-width:1.5;" x1="42" x2="470" y1="161" y2="161"/><text fill="#000000" font-family="sans-serif" font-size="11" lengthAdjust="spacing" textLength="418" x="47" y="176.7589">Server(serviceDescription: ServiceDescription&amp;, serverOptions: ServerOptions&amp;)</text><text fill="#000000" font-family="sans-serif" font-size="11" lengthAdjust="spacing" textLength="61" x="47" y="191.7408">offer(): void</text><text fill="#000000" font-family="sans-serif" font-size="11" lengthAdjust="spacing" textLength="86" x="47" y="206.7227">stopOffer(): void</text><text fill="#000000" font-family="sans-serif" font-size="11" lengthAdjust="spacing" textLength="85" x="47" y="221.7046">isOffered(): bool</text><text fill="#000000" font-family="sans-serif" font-size="11" lengthAdjust="spacing" textLength="89" x="47" y="236.6865">hasClients(): bool</text><text fill="#000000" font-family="sans-serif" font-size="11" lengthAdjust="spacing" textLength="101" x="47" y="251.6684">hasRequests(): bool</text><text fill="#000000" font-family="sans-serif" font-size="11" lengthAdjust="spacing" textLength="201" x="47" y="266.6502">take(): expected&lt;Request&lt;Req&gt;, Error&gt;</text><text fill="#000000" font-family="sans-serif" font-size="11" lengthAdjust="spacing" textLength="161" x="47" y="281.6321">releaseQueuedRequests(): void</text><text fill="#000000" font-family="sans-serif" font-size="11" lengthAdjust="spacing" textLength="137" x="47" y="296.614">hasMissedRequests(): bool</text><text fill="#000000" font-family="sans-serif" font-size="11" lengthAdjust="spacing" textLength="336" x="47" y="311.5959">loan(request: Request&lt;Req&gt;&amp;): expected&lt;Response&lt;Res&gt;, Error&gt;</text><text fill="#000000" font-family="sans-serif" font-size="11" lengthAdjust="spacing" textLength="194" x="47" y="326.5778">send(response: Response&lt;Res&gt;): void</text><!--MD5=[13fb849c6dfc9273db4c5b2c7ac96a10]
class Publisher--><rect codeLine="30" fill="#FEFECE" filter="url(#f1dn99sjzv6q6h)" height="48" id="Publisher" style="stroke:#A80036;stroke-width:1.5;" width="84" x="958" y="203.5"/><ellipse cx="973" cy="219.5" fill="#ADD1B2" rx="11" ry="11" style="stroke:#A80036;stroke-width:1.0;"/><path d="M972.7969,226.2344 Q970.3125,226.2344 968.9844,224.5938 Q967.6719,222.9219 967.6719,219.8125 Q967.6719,216.6875 968.9844,215.0313 Q970.3125,213.375 972.7969,213.375 Q973.5156,213.375 974.1719,213.5313 Q974.8125,213.6875 975.375,213.9844 L975.375,216.7031 Q975.0156,216.3594 974.7188,216.1719 Q974.4219,215.9688 974.1563,215.8438 Q973.8438,215.7031 973.5313,215.6406 Q973.2344,215.5781 972.9219,215.5781 Q971.5938,215.5781 970.9063,216.6406 Q970.2188,217.7344 970.2188,219.8125 Q970.2188,221.9063 970.9063,222.9688 Q971.5938,224.0469 972.9219,224.0469 Q973.5625,224.0469 974.1563,223.7656 Q974.4531,223.6406 974.7344,223.4531 Q975.0313,223.25 975.375,222.9219 L975.375,225.6406 Q974.7969,225.9375 974.1563,226.0938 Q973.5313,226.2344 972.7969,226.2344 Z " fill="#000000"/><text fill="#000000" font-family="sans-serif" font-size="12" lengthAdjust="spacing" textLength="52" x="987" y="224.156">Publisher</text><line style="stroke:#A80036;stroke-width:1.5;" x1="959" x2="1041" y1="235.5" y2="235.5"/><line style="stroke:#A80036;stroke-width:1.5;" x1="959" x2="1041" y1="243.5" y2="243.5"/><!--MD5=[9681492165142af2a4a3a169d90ee8d4]
class Sample--><rect codeLine="59" fill="#FEFECE" filter="url(#f1dn99sjzv6q6h)" height="122.9094" id="Sample" style="stroke:#A80036;stroke-width:1.5;" width="444" x="1069" y="588"/><ellipse cx="1253.75" cy="604" fill="#ADD1B2" rx="11" ry="11" style="stroke:#A80036;stroke-width:1.0;"/><path d="M1253.5469,610.7344 Q1251.0625,610.7344 1249.7344,609.0938 Q1248.4219,607.4219 1248.4219,604.3125 Q1248.4219,601.1875 1249.7344,599.5313 Q1251.0625,597.875 1253.5469,597.875 Q1254.2656,597.875 1254.9219,598.0313 Q1255.5625,598.1875 1256.125,598.4844 L1256.125,601.2031 Q1255.7656,600.8594 1255.4688,600.6719 Q1255.1719,600.4688 1254.9063,600.3438 Q1254.5938,600.2031 1254.2813,600.1406 Q1253.9844,600.0781 1253.6719,600.0781 Q1252.3438,600.0781 1251.6563,601.1406 Q1250.9688,602.2344 1250.9688,604.3125 Q1250.9688,606.4063 1251.6563,607.4688 Q1252.3438,608.5469 1253.6719,608.5469 Q1254.3125,608.5469 1254.9063,608.2656 Q1255.2031,608.1406 1255.4844,607.9531 Q1255.7813,607.75 1256.125,607.4219 L1256.125,610.1406 Q1255.5469,610.4375 1254.9063,610.5938 Q1254.2813,610.7344 1253.5469,610.7344 Z " fill="#000000"/><text fill="#000000" font-family="sans-serif" font-size="12" lengthAdjust="spacing" textLength="42" x="1274.25" y="608.656">Sample</text><rect fill="#EEEBDC" height="18.3441" style="stroke:#000000;stroke-width:1.0;stroke-dasharray:2.0,2.0;" width="22" x="1494" y="585"/><text fill="#000000" font-family="sans-serif" font-size="12" font-style="italic" lengthAdjust="spacing" textLength="20" x="1495" y="598.8281">T, H</text><line style="stroke:#A80036;stroke-width:1.5;" x1="1070" x2="1512" y1="620" y2="620"/><line style="stroke:#A80036;stroke-width:1.5;" x1="1070" x2="1512" y1="628" y2="628"/><text fill="#000000" font-family="sans-serif" font-size="11" lengthAdjust="spacing" textLength="432" x="1075" y="643.7589">Sample(sampleUniquePtr: unique_ptr&lt;T&gt;&amp;&amp;, publisher: PublisherInterface&lt;T, H&gt;&amp;)</text><text fill="#000000" font-family="sans-serif" font-size="11" lengthAdjust="spacing" textLength="264" x="1075" y="658.7408">Sample(sampleUniquePtr: unique_ptr&lt;const T&gt;&amp;&amp;)</text><text fill="#000000" font-family="sans-serif" font-size="11" lengthAdjust="spacing" textLength="105" x="1075" y="673.7227">getUserHeader(): H*</text><text fill="#000000" font-family="sans-serif" font-size="11" lengthAdjust="spacing" textLength="167" x="1075" y="688.7046">getUserHeader() const: const H*</text><text fill="#000000" font-family="sans-serif" font-size="11" lengthAdjust="spacing" textLength="74" x="1075" y="703.6865">publish(): void</text><!--MD5=[0851f84a889f989e7bb0bebc385d0f09]
class Request--><rect codeLine="67" fill="#FEFECE" filter="url(#f1dn99sjzv6q6h)" height="122.9094" id="Request" style="stroke:#A80036;stroke-width:1.5;" width="466" x="568" y="588"/><ellipse cx="762.25" cy="604" fill="#ADD1B2" rx="11" ry="11" style="stroke:#A80036;stroke-width:1.0;"/><path d="M762.0469,610.7344 Q759.5625,610.7344 758.2344,609.0938 Q756.9219,607.4219 756.9219,604.3125 Q756.9219,601.1875 758.2344,599.5313 Q759.5625,597.875 762.0469,597.875 Q762.7656,597.875 763.4219,598.0313 Q764.0625,598.1875 764.625,598.4844 L764.625,601.2031 Q764.2656,600.8594 763.9688,600.6719 Q763.6719,600.4688 763.4063,600.3438 Q763.0938,600.2031 762.7813,600.1406 Q762.4844,600.0781 762.1719,600.0781 Q760.8438,600.0781 760.1563,601.1406 Q759.4688,602.2344 759.4688,604.3125 Q759.4688,606.4063 760.1563,607.4688 Q760.8438,608.5469 762.1719,608.5469 Q762.8125,608.5469 763.4063,608.2656 Q763.7031,608.1406 763.9844,607.9531 Q764.2813,607.75 764.625,607.4219 L764.625,610.1406 Q764.0469,610.4375 763.4063,610.5938 Q762.7813,610.7344 762.0469,610.7344 Z " fill="#000000"/><text fill="#000000" font-family="sans-serif" font-size="12" lengthAdjust="spacing" textLength="45" x="782.75" y="608.656">Request</text><rect fill="#EEEBDC" height="18.3441" style="stroke:#000000;stroke-width:1.0;stroke-dasharray:2.0,2.0;" width="22" x="1015" y="585"/><text fill="#000000" font-family="sans-serif" font-size="12" font-style="italic" lengthAdjust="spacing" textLength="20" x="1016" y="598.8281">Req</text><line style="stroke:#A80036;stroke-width:1.5;" x1="569" x2="1033" y1="620" y2="620"/><line style="stroke:#A80036;stroke-width:1.5;" x1="569" x2="1033" y1="628" y2="628"/><text fill="#000000" font-family="sans-serif" font-size="11" lengthAdjust="spacing" textLength="454" x="574" y="643.7589">Request(requestUniquePtr: unique_ptr&lt;Req&gt;&amp;&amp;, client: RpcInterface&lt;Request&lt;Req&gt;&gt;&amp;)</text><text fill="#000000" font-family="sans-serif" font-size="11" lengthAdjust="spacing" textLength="285" x="574" y="658.7408">Request(requestUniquePtr: unique_ptr&lt;const Req&gt;&amp;&amp;)</text><text fill="#000000" font-family="sans-serif" font-size="11" lengthAdjust="spacing" textLength="195" x="574" y="673.7227">getRequestHeader(): RequestHeader*</text><text fill="#000000" font-family="sans-serif" font-size="11" lengthAdjust="spacing" textLength="257" x="574" y="688.7046">getRequestHeader() const: const RequestHeader*</text><text fill="#000000" font-family="sans-serif" font-size="11" lengthAdjust="spacing" textLength="60" x="574" y="703.6865">send(): void</text><!--MD5=[62ba8ad8b61caf20139235a169a8c31d]
class Response--><rect codeLine="75" fill="#FEFECE" filter="url(#f1dn99sjzv6q6h)" height="122.9094" id="Response" style="stroke:#A80036;stroke-width:1.5;" width="491" x="41.5" y="588"/><ellipse cx="244.75" cy="604" fill="#ADD1B2" rx="11" ry="11" style="stroke:#A80036;stroke-width:1.0;"/><path d="M244.5469,610.7344 Q242.0625,610.7344 240.7344,609.0938 Q239.4219,607.4219 239.4219,604.3125 Q239.4219,601.1875 240.7344,599.5313 Q242.0625,597.875 244.5469,597.875 Q245.2656,597.875 245.9219,598.0313 Q246.5625,598.1875 247.125,598.4844 L247.125,601.2031 Q246.7656,600.8594 246.4688,600.6719 Q246.1719,600.4688 245.9063,600.3438 Q245.5938,600.2031 245.2813,600.1406 Q244.9844,600.0781 244.6719,600.0781 Q243.3438,600.0781 242.6563,601.1406 Q241.9688,602.2344 241.9688,604.3125 Q241.9688,606.4063 242.6563,607.4688 Q243.3438,608.5469 244.6719,608.5469 Q245.3125,608.5469 245.9063,608.2656 Q246.2031,608.1406 246.4844,607.9531 Q246.7813,607.75 247.125,607.4219 L247.125,610.1406 Q246.5469,610.4375 245.9063,610.5938 Q245.2813,610.7344 244.5469,610.7344 Z " fill="#000000"/><text fill="#000000" font-family="sans-serif" font-size="12" lengthAdjust="spacing" textLength="54" x="265.25" y="608.656">Response</text><rect fill="#EEEBDC" height="18.3441" style="stroke:#000000;stroke-width:1.0;stroke-dasharray:2.0,2.0;" width="20" x="515.5" y="585"/><text fill="#000000" font-family="sans-serif" font-size="12" font-style="italic" lengthAdjust="spacing" textLength="18" x="516.5" y="598.8281">Res</text><line style="stroke:#A80036;stroke-width:1.5;" x1="42.5" x2="531.5" y1="620" y2="620"/><line style="stroke:#A80036;stroke-width:1.5;" x1="42.5" x2="531.5" y1="628" y2="628"/><text fill="#000000" font-family="sans-serif" font-size="11" lengthAdjust="spacing" textLength="479" x="47.5" y="643.7589">Response(responseUniquePtr: unique_ptr&lt;Res&gt;&amp;&amp;, server: RpcInterface&lt;Response&lt;Res&gt;&gt;&amp;)</text><text fill="#000000" font-family="sans-serif" font-size="11" lengthAdjust="spacing" textLength="299" x="47.5" y="658.7408">Response(responseUniquePtr: unique_ptr&lt;const Res&gt;&amp;&amp;)</text><text fill="#000000" font-family="sans-serif" font-size="11" lengthAdjust="spacing" textLength="211" x="47.5" y="673.7227">getResponseHeader(): ResponseHeader*</text><text fill="#000000" font-family="sans-serif" font-size="11" lengthAdjust="spacing" textLength="273" x="47.5" y="688.7046">getResponseHeader() const: const ResponseHeader*</text><text fill="#000000" font-family="sans-serif" font-size="11" lengthAdjust="spacing" textLength="60" x="47.5" y="703.6865">send(): void</text><!--MD5=[2fa57c88a2a661e4d0f335e26d4f1a7f]
class SmartChunk--><rect codeLine="34" fill="#FEFECE" filter="url(#f1dn99sjzv6q6h)" height="212.8008" id="SmartChunk" style="stroke:#A80036;stroke-width:1.5;" width="439" x="581.5" y="771"/><ellipse cx="687.75" cy="787" fill="#ADD1B2" rx="11" ry="11" style="stroke:#A80036;stroke-width:1.0;"/><path d="M687.5469,793.7344 Q685.0625,793.7344 683.7344,792.0938 Q682.4219,790.4219 682.4219,787.3125 Q682.4219,784.1875 683.7344,782.5313 Q685.0625,780.875 687.5469,780.875 Q688.2656,780.875 688.9219,781.0313 Q689.5625,781.1875 690.125,781.4844 L690.125,784.2031 Q689.7656,783.8594 689.4688,783.6719 Q689.1719,783.4688 688.9063,783.3438 Q688.5938,783.2031 688.2813,783.1406 Q687.9844,783.0781 687.6719,783.0781 Q686.3438,783.0781 685.6563,784.1406 Q684.9688,785.2344 684.9688,787.3125 Q684.9688,789.4063 685.6563,790.4688 Q686.3438,791.5469 687.6719,791.5469 Q688.3125,791.5469 688.9063,791.2656 Q689.2031,791.1406 689.4844,790.9531 Q689.7813,790.75 690.125,790.4219 L690.125,793.1406 Q689.5469,793.4375 688.9063,793.5938 Q688.2813,793.7344 687.5469,793.7344 Z " fill="#000000"/><text fill="#000000" font-family="sans-serif" font-size="12" lengthAdjust="spacing" textLength="69" x="708.25" y="791.656">SmartChunk</text><rect fill="#EEEBDC" height="18.3441" style="stroke:#000000;stroke-width:1.0;stroke-dasharray:2.0,2.0;" width="147" x="876.5" y="768"/><text fill="#000000" font-family="sans-serif" font-size="12" font-style="italic" lengthAdjust="spacing" textLength="145" x="877.5" y="781.8281">TransmissionInterface, T, H</text><line style="stroke:#A80036;stroke-width:1.5;" x1="582.5" x2="1019.5" y1="803" y2="803"/><line style="stroke:#A80036;stroke-width:1.5;" x1="582.5" x2="1019.5" y1="811" y2="811"/><text fill="#000000" font-family="sans-serif" font-size="11" lengthAdjust="spacing" textLength="427" x="587.5" y="826.7589">SmartChunk(chunkUniquePtr: unique_ptr&lt;T&gt;&amp;&amp;, sender: TransmissionInterface&amp;)</text><text fill="#000000" font-family="sans-serif" font-size="11" lengthAdjust="spacing" textLength="286" x="587.5" y="841.7408">SmartChunk(chunkUniquePtr: unique_ptr&lt;const T&gt;&amp;&amp;)</text><text fill="#000000" font-family="sans-serif" font-size="11" lengthAdjust="spacing" textLength="81" x="587.5" y="856.7227">operator-&gt;(): T*</text><text fill="#000000" font-family="sans-serif" font-size="11" lengthAdjust="spacing" textLength="143" x="587.5" y="871.7046">operator-&gt;() const: const T*</text><text fill="#000000" font-family="sans-serif" font-size="11" lengthAdjust="spacing" textLength="79" x="587.5" y="886.6865">operator*(): T&amp;</text><text fill="#000000" font-family="sans-serif" font-size="11" lengthAdjust="spacing" textLength="141" x="587.5" y="901.6684">operator*() const: const T&amp;</text><text fill="#000000" font-family="sans-serif" font-size="11" lengthAdjust="spacing" textLength="111" x="587.5" y="916.6502">operator bool() const</text><text fill="#000000" font-family="sans-serif" font-size="11" lengthAdjust="spacing" textLength="41" x="587.5" y="931.6321">get(): T*</text><text fill="#000000" font-family="sans-serif" font-size="11" lengthAdjust="spacing" textLength="103" x="587.5" y="946.614">get() const: const T*</text><text fill="#000000" font-family="sans-serif" font-size="11" lengthAdjust="spacing" textLength="179" x="587.5" y="961.5959">getChunkHeader(): ChunkHeader*</text><text fill="#000000" font-family="sans-serif" font-size="11" lengthAdjust="spacing" textLength="241" x="587.5" y="976.5778">getChunkHeader() const: const ChunkHeader*</text><path d="M1055.5,846 L1055.5,873.5 L1020.61,877.5 L1055.5,881.5 L1055.5,909.118 A0,0 0 0 0 1055.5,909.118 L1382.5,909.118 A0,0 0 0 0 1382.5,909.118 L1382.5,856 L1372.5,846 L1055.5,846 A0,0 0 0 0 1055.5,846 " fill="#FBFB77" filter="url(#f1dn99sjzv6q6h)" style="stroke:#A80036;stroke-width:1.0;"/><path d="M1372.5,846 L1372.5,856 L1382.5,856 L1372.5,846 " fill="#FBFB77" style="stroke:#A80036;stroke-width:1.0;"/><text fill="#000000" font-family="sans-serif" font-size="13" lengthAdjust="spacing" textLength="306" x="1061.5" y="864.897">ForProducerOnly and ForConsumerOnly type traits</text><text fill="#000000" font-family="sans-serif" font-size="13" lengthAdjust="spacing" textLength="254" x="1061.5" y="882.603">restrict access to some ctors and methods,</text><text fill="#000000" font-family="sans-serif" font-size="13" lengthAdjust="spacing" textLength="211" x="1061.5" y="900.309">like no non-const access to payload</text><!--MD5=[1a4e3e2f3ff35c5025a142ebd7418a60]
class PublisherInterface--><rect codeLine="50" fill="#FEFECE" filter="url(#f1dn99sjzv6q6h)" height="62.9819" id="PublisherInterface" style="stroke:#A80036;stroke-width:1.5;" width="199" x="900.5" y="394"/><ellipse cx="935.75" cy="410" fill="#B4A7E5" rx="11" ry="11" style="stroke:#A80036;stroke-width:1.0;"/><path d="M932.1719,414.3438 L934.6406,414.3438 L934.6406,406.2656 L932.1719,406.2656 L932.1719,404.1094 L939.5625,404.1094 L939.5625,406.2656 L937.0938,406.2656 L937.0938,414.3438 L939.5625,414.3438 L939.5625,416.5 L932.1719,416.5 L932.1719,414.3438 Z " fill="#000000"/><text fill="#000000" font-family="sans-serif" font-size="12" font-style="italic" lengthAdjust="spacing" textLength="98" x="954.25" y="414.656">PublisherInterface</text><rect fill="#EEEBDC" height="18.3441" style="stroke:#000000;stroke-width:1.0;stroke-dasharray:2.0,2.0;" width="22" x="1080.5" y="391"/><text fill="#000000" font-family="sans-serif" font-size="12" font-style="italic" lengthAdjust="spacing" textLength="20" x="1081.5" y="404.8281">T, H</text><line style="stroke:#A80036;stroke-width:1.5;" x1="901.5" x2="1098.5" y1="426" y2="426"/><line style="stroke:#A80036;stroke-width:1.5;" x1="901.5" x2="1098.5" y1="434" y2="434"/><text fill="#000000" font-family="sans-serif" font-size="11" lengthAdjust="spacing" textLength="187" x="906.5" y="449.7589">publish(sample: Sample&lt;T, H&gt;): void</text><!--MD5=[486175ef964b0839dd18eb8a9ee30ed8]
class RpcInterface--><rect codeLine="54" fill="#FEFECE" filter="url(#f1dn99sjzv6q6h)" height="62.9819" id="RpcInterface" style="stroke:#A80036;stroke-width:1.5;" width="147" x="411.5" y="394"/><ellipse cx="426.5" cy="410" fill="#B4A7E5" rx="11" ry="11" style="stroke:#A80036;stroke-width:1.0;"/><path d="M422.9219,414.3438 L425.3906,414.3438 L425.3906,406.2656 L422.9219,406.2656 L422.9219,404.1094 L430.3125,404.1094 L430.3125,406.2656 L427.8438,406.2656 L427.8438,414.3438 L430.3125,414.3438 L430.3125,416.5 L422.9219,416.5 L422.9219,414.3438 Z " fill="#000000"/><text fill="#000000" font-family="sans-serif" font-size="12" font-style="italic" lengthAdjust="spacing" textLength="67" x="440.5" y="414.656">RpcInterface</text><rect fill="#EEEBDC" height="18.3441" style="stroke:#000000;stroke-width:1.0;stroke-dasharray:2.0,2.0;" width="46" x="515.5" y="391"/><text fill="#000000" font-family="sans-serif" font-size="12" font-style="italic" lengthAdjust="spacing" textLength="44" x="516.5" y="404.8281">RpcType</text><line style="stroke:#A80036;stroke-width:1.5;" x1="412.5" x2="557.5" y1="426" y2="426"/><line style="stroke:#A80036;stroke-width:1.5;" x1="412.5" x2="557.5" y1="434" y2="434"/><text fill="#000000" font-family="sans-serif" font-size="11" lengthAdjust="spacing" textLength="127" x="417.5" y="449.7589">send(rpc: RpcType): void</text><path d="M827,6 L827,51.412 A0,0 0 0 0 827,51.412 L996,51.412 L1000,203.35 L1004,51.412 L1173,51.412 A0,0 0 0 0 1173,51.412 L1173,16 L1163,6 L827,6 A0,0 0 0 0 827,6 " fill="#FBFB77" filter="url(#f1dn99sjzv6q6h)" style="stroke:#A80036;stroke-width:1.0;"/><path d="M1163,6 L1163,16 L1173,16 L1163,6 " fill="#FBFB77" style="stroke:#A80036;stroke-width:1.0;"/><text fill="#000000" font-family="sans-serif" font-size="13" lengthAdjust="spacing" textLength="218" x="833" y="24.897">This is not used by request-response</text><text fill="#000000" font-family="sans-serif" font-size="13" lengthAdjust="spacing" textLength="325" x="833" y="42.603">and just added to show the similar concepts in the API.</text><!--MD5=[4162ef892c3a2ccf7a6e7265be918e65]
link Publisher to PublisherInterface--><path codeLine="86" d="M1000,251.75 C1000,285.62 1000,348.82 1000,388.66 " fill="none" id="Publisher-to-PublisherInterface" style="stroke:#A80036;stroke-width:1.0;"/><polygon fill="#A80036" points="1000,393.88,1004,384.88,1000,388.88,996,384.88,1000,393.88" style="stroke:#A80036;stroke-width:1.0;"/><!--MD5=[c7a3ccbf4722a82088835254a27868b0]
link Client to RpcInterface--><path codeLine="87" d="M599.66,326.79 C572.65,349.81 545.66,372.8 524.66,390.7 " fill="none" id="Client-to-RpcInterface" style="stroke:#A80036;stroke-width:1.0;"/><polygon fill="#A80036" points="520.81,393.98,530.2526,391.1804,524.6133,390.7343,525.0594,385.0951,520.81,393.98" style="stroke:#A80036;stroke-width:1.0;"/><!--MD5=[eed270aeaf549aa49deb0636758ea025]
link Server to RpcInterface--><path codeLine="88" d="M379.55,334.24 C403.31,354.58 426.55,374.48 445.14,390.39 " fill="none" id="Server-to-RpcInterface" style="stroke:#A80036;stroke-width:1.0;"/><polygon fill="#A80036" points="449.28,393.93,445.0664,385.028,445.4898,390.669,439.8488,391.0923,449.28,393.93" style="stroke:#A80036;stroke-width:1.0;"/><!--MD5=[0f93a8b029fbd230747008e1e14fce4e]
link Group1 to Group2--><!--MD5=[99418a084cf9cc4b3b139951cbe4cee6]
link Sample to SmartChunk--><path codeLine="92" d="M1159.69,711.06 C1118.3,730.15 1071.36,751.8 1025.39,773.01 " fill="none" id="Sample-to-SmartChunk" style="stroke:#A80036;stroke-width:1.0;"/><polygon fill="#A80036" points="1020.65,775.19,1030.4976,775.0326,1025.186,773.0865,1027.1321,767.775,1020.65,775.19" style="stroke:#A80036;stroke-width:1.0;"/><!--MD5=[d5b8d6b9d0b23d26b69c35dea68f1a5d]
link Request to SmartChunk--><path codeLine="93" d="M801,711.06 C801,727.92 801,746.77 801,765.54 " fill="none" id="Request-to-SmartChunk" style="stroke:#A80036;stroke-width:1.0;"/><polygon fill="#A80036" points="801,770.83,805,761.83,801,765.83,797,761.83,801,770.83" style="stroke:#A80036;stroke-width:1.0;"/><!--MD5=[a43eb62d00420a404fe3a3defbc4a436]
link Response to SmartChunk--><path codeLine="94" d="M424.74,711.06 C471.51,731.62 525.04,755.16 576.77,777.91 " fill="none" id="Response-to-SmartChunk" style="stroke:#A80036;stroke-width:1.0;"/><polygon fill="#A80036" points="581.45,779.96,574.8269,772.6706,576.8745,777.9439,571.6012,779.9915,581.45,779.96" style="stroke:#A80036;stroke-width:1.0;"/></g></svg>