<?xml version="1.0" encoding="UTF-8" standalone="no"?><svg xmlns="http://www.w3.org/2000/svg" xmlns:xlink="http://www.w3.org/1999/xlink" contentScriptType="application/ecmascript" contentStyleType="text/css" height="886px" preserveAspectRatio="none" style="width:1464px;height:886px;background:#EEEBDC;" version="1.1" viewBox="0 0 1464 886" width="1464px" zoomAndPan="magnify"><defs><filter height="300%" id="f1ps543p94vi9x" width="300%" x="-1" y="-1"><feGaussianBlur result="blurOut" stdDeviation="2.0"/><feColorMatrix in="blurOut" result="blurOut2" type="matrix" values="0 0 0 0 0 0 0 0 0 0 0 0 0 0 0 0 0 0 .4 0"/><feOffset dx="4.0" dy="4.0" in="blurOut2" result="blurOut3"/><feBlend in="SourceGraphic" in2="blurOut3" mode="normal"/></filter></defs><g><!--MD5=[cec590fdcedb7e6e9851d53d8e00960d]
cluster Group1--><!--MD5=[b22bc57c0d09f8caf1ed524d630ae0a2]
cluster Group2--><!--MD5=[ed6624c6556d5e7b1bd23032162d20b7]
class Client--><rect codeLine="4" fill="#FEFECE" filter="url(#f1ps543p94vi9x)" height="197.8189" id="Client" style="stroke:#A80036;stroke-width:1.5;" width="417" x="41.5" y="17.516"/><ellipse cx="205.75" cy="33.516" fill="#ADD1B2" rx="11" ry="11" style="stroke:#A80036;stroke-width:1.0;"/><path d="M205.5469,40.2504 Q203.0625,40.2504 201.7344,38.6098 Q200.4219,36.9379 200.4219,33.8285 Q200.4219,30.7035 201.7344,29.0473 Q203.0625,27.391 205.5469,27.391 Q206.2656,27.391 206.9219,27.5473 Q207.5625,27.7035 208.125,28.0004 L208.125,30.7191 Q207.7656,30.3754 207.4688,30.1879 Q207.1719,29.9848 206.9063,29.8598 Q206.5938,29.7191 206.2813,29.6566 Q205.9844,29.5941 205.6719,29.5941 Q204.3438,29.5941 203.6563,30.6566 Q202.9688,31.7504 202.9688,33.8285 Q202.9688,35.9223 203.6563,36.9848 Q204.3438,38.0629 205.6719,38.0629 Q206.3125,38.0629 206.9063,37.7816 Q207.2031,37.6566 207.4844,37.4691 Q207.7813,37.266 208.125,36.9379 L208.125,39.6566 Q207.5469,39.9535 206.9063,40.1098 Q206.2813,40.2504 205.5469,40.2504 Z " fill="#000000"/><text fill="#000000" font-family="sans-serif" font-size="12" lengthAdjust="spacing" textLength="32" x="226.25" y="38.1721">Client</text><rect fill="#EEEBDC" height="18.3441" style="stroke:#000000;stroke-width:1.0;stroke-dasharray:2.0,2.0;" width="46" x="415.5" y="14.516"/><text fill="#000000" font-family="sans-serif" font-size="12" font-style="italic" lengthAdjust="spacing" textLength="44" x="416.5" y="28.3441">Req, Res</text><line style="stroke:#A80036;stroke-width:1.5;" x1="42.5" x2="457.5" y1="49.516" y2="49.516"/><line style="stroke:#A80036;stroke-width:1.5;" x1="42.5" x2="457.5" y1="57.516" y2="57.516"/><text fill="#000000" font-family="sans-serif" font-size="11" lengthAdjust="spacing" textLength="405" x="47.5" y="73.2749">Client(serviceDescription: ServiceDescription&amp;, clientOptions: ClientOptions&amp;)</text><text fill="#000000" font-family="sans-serif" font-size="11" lengthAdjust="spacing" textLength="76" x="47.5" y="88.2568">connect(): void</text><text fill="#000000" font-family="sans-serif" font-size="11" lengthAdjust="spacing" textLength="91" x="47.5" y="103.2387">disconnect(): void</text><text fill="#000000" font-family="sans-serif" font-size="11" lengthAdjust="spacing" textLength="201" x="47.5" y="118.2206">getConnectionState(): ConnectionState</text><text fill="#000000" font-family="sans-serif" font-size="11" lengthAdjust="spacing" textLength="202" x="47.5" y="133.2025">loan(): expected&lt;Request&lt;Req&gt;, Error&gt;</text><text fill="#000000" font-family="sans-serif" font-size="11" lengthAdjust="spacing" textLength="180" x="47.5" y="148.1844">send(request: Request&lt;Req&gt;): void</text><text fill="#000000" font-family="sans-serif" font-size="11" lengthAdjust="spacing" textLength="109" x="47.5" y="163.1663">hasResponses(): bool</text><text fill="#000000" font-family="sans-serif" font-size="11" lengthAdjust="spacing" textLength="207" x="47.5" y="178.1482">take(): expected&lt;Response&lt;Res&gt;, Error&gt;</text><text fill="#000000" font-family="sans-serif" font-size="11" lengthAdjust="spacing" textLength="169" x="47.5" y="193.13">releaseQueuedResponses(): void</text><text fill="#000000" font-family="sans-serif" font-size="11" lengthAdjust="spacing" textLength="145" x="47.5" y="208.1119">hasMissedResponses(): bool</text><!--MD5=[c60af77fe5573b84a4aa4bce89659574]
class Server--><rect codeLine="17" fill="#FEFECE" filter="url(#f1ps543p94vi9x)" height="212.8008" id="Server" style="stroke:#A80036;stroke-width:1.5;" width="430" x="494" y="10.016"/><ellipse cx="662.25" cy="26.016" fill="#ADD1B2" rx="11" ry="11" style="stroke:#A80036;stroke-width:1.0;"/><path d="M662.0469,32.7504 Q659.5625,32.7504 658.2344,31.1098 Q656.9219,29.4379 656.9219,26.3285 Q656.9219,23.2035 658.2344,21.5473 Q659.5625,19.891 662.0469,19.891 Q662.7656,19.891 663.4219,20.0473 Q664.0625,20.2035 664.625,20.5004 L664.625,23.2191 Q664.2656,22.8754 663.9688,22.6879 Q663.6719,22.4848 663.4063,22.3598 Q663.0938,22.2191 662.7813,22.1566 Q662.4844,22.0941 662.1719,22.0941 Q660.8438,22.0941 660.1563,23.1566 Q659.4688,24.2504 659.4688,26.3285 Q659.4688,28.4223 660.1563,29.4848 Q660.8438,30.5629 662.1719,30.5629 Q662.8125,30.5629 663.4063,30.2816 Q663.7031,30.1566 663.9844,29.9691 Q664.2813,29.766 664.625,29.4379 L664.625,32.1566 Q664.0469,32.4535 663.4063,32.6098 Q662.7813,32.7504 662.0469,32.7504 Z " fill="#000000"/><text fill="#000000" font-family="sans-serif" font-size="12" lengthAdjust="spacing" textLength="37" x="682.75" y="30.6721">Server</text><rect fill="#EEEBDC" height="18.3441" style="stroke:#000000;stroke-width:1.0;stroke-dasharray:2.0,2.0;" width="46" x="881" y="7.016"/><text fill="#000000" font-family="sans-serif" font-size="12" font-style="italic" lengthAdjust="spacing" textLength="44" x="882" y="20.8441">Req, Res</text><line style="stroke:#A80036;stroke-width:1.5;" x1="495" x2="923" y1="42.016" y2="42.016"/><line style="stroke:#A80036;stroke-width:1.5;" x1="495" x2="923" y1="50.016" y2="50.016"/><text fill="#000000" font-family="sans-serif" font-size="11" lengthAdjust="spacing" textLength="418" x="500" y="65.7749">Server(serviceDescription: ServiceDescription&amp;, serverOptions: ServerOptions&amp;)</text><text fill="#000000" font-family="sans-serif" font-size="11" lengthAdjust="spacing" textLength="61" x="500" y="80.7568">offer(): void</text><text fill="#000000" font-family="sans-serif" font-size="11" lengthAdjust="spacing" textLength="86" x="500" y="95.7387">stopOffer(): void</text><text fill="#000000" font-family="sans-serif" font-size="11" lengthAdjust="spacing" textLength="85" x="500" y="110.7206">isOffered(): bool</text><text fill="#000000" font-family="sans-serif" font-size="11" lengthAdjust="spacing" textLength="89" x="500" y="125.7025">hasClients(): bool</text><text fill="#000000" font-family="sans-serif" font-size="11" lengthAdjust="spacing" textLength="101" x="500" y="140.6844">hasRequests(): bool</text><text fill="#000000" font-family="sans-serif" font-size="11" lengthAdjust="spacing" textLength="201" x="500" y="155.6663">take(): expected&lt;Request&lt;Req&gt;, Error&gt;</text><text fill="#000000" font-family="sans-serif" font-size="11" lengthAdjust="spacing" textLength="161" x="500" y="170.6482">releaseQueuedRequests(): void</text><text fill="#000000" font-family="sans-serif" font-size="11" lengthAdjust="spacing" textLength="137" x="500" y="185.63">hasMissedRequests(): bool</text><text fill="#000000" font-family="sans-serif" font-size="11" lengthAdjust="spacing" textLength="336" x="500" y="200.6119">loan(request: Request&lt;Req&gt;&amp;): expected&lt;Response&lt;Res&gt;, Error&gt;</text><text fill="#000000" font-family="sans-serif" font-size="11" lengthAdjust="spacing" textLength="194" x="500" y="215.5938">send(response: Response&lt;Res&gt;): void</text><!--MD5=[13fb849c6dfc9273db4c5b2c7ac96a10]
class Publisher--><rect codeLine="31" fill="#FEFECE" filter="url(#f1ps543p94vi9x)" height="48" id="Publisher" style="stroke:#A80036;stroke-width:1.5;" width="84" x="959" y="92.516"/><ellipse cx="974" cy="108.516" fill="#ADD1B2" rx="11" ry="11" style="stroke:#A80036;stroke-width:1.0;"/><path d="M973.7969,115.2504 Q971.3125,115.2504 969.9844,113.6098 Q968.6719,111.9379 968.6719,108.8285 Q968.6719,105.7035 969.9844,104.0473 Q971.3125,102.391 973.7969,102.391 Q974.5156,102.391 975.1719,102.5473 Q975.8125,102.7035 976.375,103.0004 L976.375,105.7191 Q976.0156,105.3754 975.7188,105.1879 Q975.4219,104.9848 975.1563,104.8598 Q974.8438,104.7191 974.5313,104.6566 Q974.2344,104.5941 973.9219,104.5941 Q972.5938,104.5941 971.9063,105.6566 Q971.2188,106.7504 971.2188,108.8285 Q971.2188,110.9223 971.9063,111.9848 Q972.5938,113.0629 973.9219,113.0629 Q974.5625,113.0629 975.1563,112.7816 Q975.4531,112.6566 975.7344,112.4691 Q976.0313,112.266 976.375,111.9379 L976.375,114.6566 Q975.7969,114.9535 975.1563,115.1098 Q974.5313,115.2504 973.7969,115.2504 Z " fill="#000000"/><text fill="#000000" font-family="sans-serif" font-size="12" lengthAdjust="spacing" textLength="52" x="988" y="113.1721">Publisher</text><line style="stroke:#A80036;stroke-width:1.5;" x1="960" x2="1042" y1="124.516" y2="124.516"/><line style="stroke:#A80036;stroke-width:1.5;" x1="960" x2="1042" y1="132.516" y2="132.516"/><!--MD5=[9681492165142af2a4a3a169d90ee8d4]
class Sample--><rect codeLine="64" fill="#FEFECE" filter="url(#f1ps543p94vi9x)" height="122.9094" id="Sample" style="stroke:#A80036;stroke-width:1.5;" width="444" x="1006" y="477.016"/><ellipse cx="1190.75" cy="493.016" fill="#ADD1B2" rx="11" ry="11" style="stroke:#A80036;stroke-width:1.0;"/><path d="M1190.5469,499.7504 Q1188.0625,499.7504 1186.7344,498.1098 Q1185.4219,496.4379 1185.4219,493.3285 Q1185.4219,490.2035 1186.7344,488.5473 Q1188.0625,486.891 1190.5469,486.891 Q1191.2656,486.891 1191.9219,487.0473 Q1192.5625,487.2035 1193.125,487.5004 L1193.125,490.2191 Q1192.7656,489.8754 1192.4688,489.6879 Q1192.1719,489.4848 1191.9063,489.3598 Q1191.5938,489.2191 1191.2813,489.1566 Q1190.9844,489.0941 1190.6719,489.0941 Q1189.3438,489.0941 1188.6563,490.1566 Q1187.9688,491.2504 1187.9688,493.3285 Q1187.9688,495.4223 1188.6563,496.4848 Q1189.3438,497.5629 1190.6719,497.5629 Q1191.3125,497.5629 1191.9063,497.2816 Q1192.2031,497.1566 1192.4844,496.9691 Q1192.7813,496.766 1193.125,496.4379 L1193.125,499.1566 Q1192.5469,499.4535 1191.9063,499.6098 Q1191.2813,499.7504 1190.5469,499.7504 Z " fill="#000000"/><text fill="#000000" font-family="sans-serif" font-size="12" lengthAdjust="spacing" textLength="42" x="1211.25" y="497.6721">Sample</text><rect fill="#EEEBDC" height="18.3441" style="stroke:#000000;stroke-width:1.0;stroke-dasharray:2.0,2.0;" width="22" x="1431" y="474.016"/><text fill="#000000" font-family="sans-serif" font-size="12" font-style="italic" lengthAdjust="spacing" textLength="20" x="1432" y="487.8441">T, H</text><line style="stroke:#A80036;stroke-width:1.5;" x1="1007" x2="1449" y1="509.016" y2="509.016"/><line style="stroke:#A80036;stroke-width:1.5;" x1="1007" x2="1449" y1="517.016" y2="517.016"/><text fill="#000000" font-family="sans-serif" font-size="11" lengthAdjust="spacing" textLength="432" x="1012" y="532.7749">Sample(sampleUniquePtr: unique_ptr&lt;T&gt;&amp;&amp;, publisher: PublisherInterface&lt;T, H&gt;&amp;)</text><text fill="#000000" font-family="sans-serif" font-size="11" lengthAdjust="spacing" textLength="264" x="1012" y="547.7568">Sample(sampleUniquePtr: unique_ptr&lt;const T&gt;&amp;&amp;)</text><text fill="#000000" font-family="sans-serif" font-size="11" lengthAdjust="spacing" textLength="105" x="1012" y="562.7387">getUserHeader(): H*</text><text fill="#000000" font-family="sans-serif" font-size="11" lengthAdjust="spacing" textLength="167" x="1012" y="577.7206">getUserHeader() const: const H*</text><text fill="#000000" font-family="sans-serif" font-size="11" lengthAdjust="spacing" textLength="74" x="1012" y="592.7025">publish(): void</text><!--MD5=[0851f84a889f989e7bb0bebc385d0f09]
class Request--><rect codeLine="72" fill="#FEFECE" filter="url(#f1ps543p94vi9x)" height="122.9094" id="Request" style="stroke:#A80036;stroke-width:1.5;" width="435" x="536.5" y="477.016"/><ellipse cx="715.25" cy="493.016" fill="#ADD1B2" rx="11" ry="11" style="stroke:#A80036;stroke-width:1.0;"/><path d="M715.0469,499.7504 Q712.5625,499.7504 711.2344,498.1098 Q709.9219,496.4379 709.9219,493.3285 Q709.9219,490.2035 711.2344,488.5473 Q712.5625,486.891 715.0469,486.891 Q715.7656,486.891 716.4219,487.0473 Q717.0625,487.2035 717.625,487.5004 L717.625,490.2191 Q717.2656,489.8754 716.9688,489.6879 Q716.6719,489.4848 716.4063,489.3598 Q716.0938,489.2191 715.7813,489.1566 Q715.4844,489.0941 715.1719,489.0941 Q713.8438,489.0941 713.1563,490.1566 Q712.4688,491.2504 712.4688,493.3285 Q712.4688,495.4223 713.1563,496.4848 Q713.8438,497.5629 715.1719,497.5629 Q715.8125,497.5629 716.4063,497.2816 Q716.7031,497.1566 716.9844,496.9691 Q717.2813,496.766 717.625,496.4379 L717.625,499.1566 Q717.0469,499.4535 716.4063,499.6098 Q715.7813,499.7504 715.0469,499.7504 Z " fill="#000000"/><text fill="#000000" font-family="sans-serif" font-size="12" lengthAdjust="spacing" textLength="45" x="735.75" y="497.6721">Request</text><rect fill="#EEEBDC" height="18.3441" style="stroke:#000000;stroke-width:1.0;stroke-dasharray:2.0,2.0;" width="22" x="952.5" y="474.016"/><text fill="#000000" font-family="sans-serif" font-size="12" font-style="italic" lengthAdjust="spacing" textLength="20" x="953.5" y="487.8441">Req</text><line style="stroke:#A80036;stroke-width:1.5;" x1="537.5" x2="970.5" y1="509.016" y2="509.016"/><line style="stroke:#A80036;stroke-width:1.5;" x1="537.5" x2="970.5" y1="517.016" y2="517.016"/><text fill="#000000" font-family="sans-serif" font-size="11" lengthAdjust="spacing" textLength="423" x="542.5" y="532.7749">Request(requestUniquePtr: unique_ptr&lt;Req&gt;&amp;&amp;, client: RequestInterface&lt;Req&gt;&amp;)</text><text fill="#000000" font-family="sans-serif" font-size="11" lengthAdjust="spacing" textLength="285" x="542.5" y="547.7568">Request(requestUniquePtr: unique_ptr&lt;const Req&gt;&amp;&amp;)</text><text fill="#000000" font-family="sans-serif" font-size="11" lengthAdjust="spacing" textLength="195" x="542.5" y="562.7387">getRequestHeader(): RequestHeader*</text><text fill="#000000" font-family="sans-serif" font-size="11" lengthAdjust="spacing" textLength="257" x="542.5" y="577.7206">getRequestHeader() const: const RequestHeader*</text><text fill="#000000" font-family="sans-serif" font-size="11" lengthAdjust="spacing" textLength="60" x="542.5" y="592.7025">send(): void</text><!--MD5=[62ba8ad8b61caf20139235a169a8c31d]
class Response--><rect codeLine="80" fill="#FEFECE" filter="url(#f1ps543p94vi9x)" height="122.9094" id="Response" style="stroke:#A80036;stroke-width:1.5;" width="460" x="41" y="477.016"/><ellipse cx="228.75" cy="493.016" fill="#ADD1B2" rx="11" ry="11" style="stroke:#A80036;stroke-width:1.0;"/><path d="M228.5469,499.7504 Q226.0625,499.7504 224.7344,498.1098 Q223.4219,496.4379 223.4219,493.3285 Q223.4219,490.2035 224.7344,488.5473 Q226.0625,486.891 228.5469,486.891 Q229.2656,486.891 229.9219,487.0473 Q230.5625,487.2035 231.125,487.5004 L231.125,490.2191 Q230.7656,489.8754 230.4688,489.6879 Q230.1719,489.4848 229.9063,489.3598 Q229.5938,489.2191 229.2813,489.1566 Q228.9844,489.0941 228.6719,489.0941 Q227.3438,489.0941 226.6563,490.1566 Q225.9688,491.2504 225.9688,493.3285 Q225.9688,495.4223 226.6563,496.4848 Q227.3438,497.5629 228.6719,497.5629 Q229.3125,497.5629 229.9063,497.2816 Q230.2031,497.1566 230.4844,496.9691 Q230.7813,496.766 231.125,496.4379 L231.125,499.1566 Q230.5469,499.4535 229.9063,499.6098 Q229.2813,499.7504 228.5469,499.7504 Z " fill="#000000"/><text fill="#000000" font-family="sans-serif" font-size="12" lengthAdjust="spacing" textLength="54" x="249.25" y="497.6721">Response</text><rect fill="#EEEBDC" height="18.3441" style="stroke:#000000;stroke-width:1.0;stroke-dasharray:2.0,2.0;" width="20" x="484" y="474.016"/><text fill="#000000" font-family="sans-serif" font-size="12" font-style="italic" lengthAdjust="spacing" textLength="18" x="485" y="487.8441">Res</text><line style="stroke:#A80036;stroke-width:1.5;" x1="42" x2="500" y1="509.016" y2="509.016"/><line style="stroke:#A80036;stroke-width:1.5;" x1="42" x2="500" y1="517.016" y2="517.016"/><text fill="#000000" font-family="sans-serif" font-size="11" lengthAdjust="spacing" textLength="448" x="47" y="532.7749">Response(responseUniquePtr: unique_ptr&lt;Res&gt;&amp;&amp;, server: ResponseInterface&lt;Res&gt;&amp;)</text><text fill="#000000" font-family="sans-serif" font-size="11" lengthAdjust="spacing" textLength="299" x="47" y="547.7568">Response(responseUniquePtr: unique_ptr&lt;const Res&gt;&amp;&amp;)</text><text fill="#000000" font-family="sans-serif" font-size="11" lengthAdjust="spacing" textLength="211" x="47" y="562.7387">getResponseHeader(): ResponseHeader*</text><text fill="#000000" font-family="sans-serif" font-size="11" lengthAdjust="spacing" textLength="273" x="47" y="577.7206">getResponseHeader() const: const ResponseHeader*</text><text fill="#000000" font-family="sans-serif" font-size="11" lengthAdjust="spacing" textLength="60" x="47" y="592.7025">send(): void</text><!--MD5=[2fa57c88a2a661e4d0f335e26d4f1a7f]
class SmartChunk--><rect codeLine="35" fill="#FEFECE" filter="url(#f1ps543p94vi9x)" height="212.8008" id="SmartChunk" style="stroke:#A80036;stroke-width:1.5;" width="439" x="534.5" y="660.016"/><ellipse cx="640.75" cy="676.016" fill="#ADD1B2" rx="11" ry="11" style="stroke:#A80036;stroke-width:1.0;"/><path d="M640.5469,682.7504 Q638.0625,682.7504 636.7344,681.1098 Q635.4219,679.4379 635.4219,676.3285 Q635.4219,673.2035 636.7344,671.5473 Q638.0625,669.891 640.5469,669.891 Q641.2656,669.891 641.9219,670.0473 Q642.5625,670.2035 643.125,670.5004 L643.125,673.2191 Q642.7656,672.8754 642.4688,672.6879 Q642.1719,672.4848 641.9063,672.3598 Q641.5938,672.2191 641.2813,672.1566 Q640.9844,672.0941 640.6719,672.0941 Q639.3438,672.0941 638.6563,673.1566 Q637.9688,674.2504 637.9688,676.3285 Q637.9688,678.4223 638.6563,679.4848 Q639.3438,680.5629 640.6719,680.5629 Q641.3125,680.5629 641.9063,680.2816 Q642.2031,680.1566 642.4844,679.9691 Q642.7813,679.766 643.125,679.4379 L643.125,682.1566 Q642.5469,682.4535 641.9063,682.6098 Q641.2813,682.7504 640.5469,682.7504 Z " fill="#000000"/><text fill="#000000" font-family="sans-serif" font-size="12" lengthAdjust="spacing" textLength="69" x="661.25" y="680.6721">SmartChunk</text><rect fill="#EEEBDC" height="18.3441" style="stroke:#000000;stroke-width:1.0;stroke-dasharray:2.0,2.0;" width="147" x="829.5" y="657.016"/><text fill="#000000" font-family="sans-serif" font-size="12" font-style="italic" lengthAdjust="spacing" textLength="145" x="830.5" y="670.8441">TransmissionInterface, T, H</text><line style="stroke:#A80036;stroke-width:1.5;" x1="535.5" x2="972.5" y1="692.016" y2="692.016"/><line style="stroke:#A80036;stroke-width:1.5;" x1="535.5" x2="972.5" y1="700.016" y2="700.016"/><text fill="#000000" font-family="sans-serif" font-size="11" lengthAdjust="spacing" textLength="427" x="540.5" y="715.7749">SmartChunk(chunkUniquePtr: unique_ptr&lt;T&gt;&amp;&amp;, sender: TransmissionInterface&amp;)</text><text fill="#000000" font-family="sans-serif" font-size="11" lengthAdjust="spacing" textLength="286" x="540.5" y="730.7568">SmartChunk(chunkUniquePtr: unique_ptr&lt;const T&gt;&amp;&amp;)</text><text fill="#000000" font-family="sans-serif" font-size="11" lengthAdjust="spacing" textLength="81" x="540.5" y="745.7387">operator-&gt;(): T*</text><text fill="#000000" font-family="sans-serif" font-size="11" lengthAdjust="spacing" textLength="143" x="540.5" y="760.7206">operator-&gt;() const: const T*</text><text fill="#000000" font-family="sans-serif" font-size="11" lengthAdjust="spacing" textLength="79" x="540.5" y="775.7025">operator*(): T&amp;</text><text fill="#000000" font-family="sans-serif" font-size="11" lengthAdjust="spacing" textLength="141" x="540.5" y="790.6844">operator*() const: const T&amp;</text><text fill="#000000" font-family="sans-serif" font-size="11" lengthAdjust="spacing" textLength="111" x="540.5" y="805.6663">operator bool() const</text><text fill="#000000" font-family="sans-serif" font-size="11" lengthAdjust="spacing" textLength="41" x="540.5" y="820.6482">get(): T*</text><text fill="#000000" font-family="sans-serif" font-size="11" lengthAdjust="spacing" textLength="103" x="540.5" y="835.63">get() const: const T*</text><text fill="#000000" font-family="sans-serif" font-size="11" lengthAdjust="spacing" textLength="179" x="540.5" y="850.6119">getChunkHeader(): ChunkHeader*</text><text fill="#000000" font-family="sans-serif" font-size="11" lengthAdjust="spacing" textLength="241" x="540.5" y="865.5938">getChunkHeader() const: const ChunkHeader*</text><path d="M1008.5,735.016 L1008.5,762.516 L973.61,766.516 L1008.5,770.516 L1008.5,798.1341 A0,0 0 0 0 1008.5,798.1341 L1335.5,798.1341 A0,0 0 0 0 1335.5,798.1341 L1335.5,745.016 L1325.5,735.016 L1008.5,735.016 A0,0 0 0 0 1008.5,735.016 " fill="#FBFB77" filter="url(#f1ps543p94vi9x)" style="stroke:#A80036;stroke-width:1.0;"/><path d="M1325.5,735.016 L1325.5,745.016 L1335.5,745.016 L1325.5,735.016 " fill="#FBFB77" style="stroke:#A80036;stroke-width:1.0;"/><text fill="#000000" font-family="sans-serif" font-size="13" lengthAdjust="spacing" textLength="306" x="1014.5" y="753.913">ForProducerOnly and ForConsumerOnly type traits</text><text fill="#000000" font-family="sans-serif" font-size="13" lengthAdjust="spacing" textLength="254" x="1014.5" y="771.6191">restrict access to some ctors and methods,</text><text fill="#000000" font-family="sans-serif" font-size="13" lengthAdjust="spacing" textLength="211" x="1014.5" y="789.3251">like no non-const access to payload</text><!--MD5=[1a4e3e2f3ff35c5025a142ebd7418a60]
class PublisherInterface--><rect codeLine="51" fill="#FEFECE" filter="url(#f1ps543p94vi9x)" height="62.9819" id="PublisherInterface" style="stroke:#A80036;stroke-width:1.5;" width="196" x="903" y="283.016"/><ellipse cx="936.9" cy="299.016" fill="#B4A7E5" rx="11" ry="11" style="stroke:#A80036;stroke-width:1.0;"/><path d="M933.3219,303.3598 L935.7906,303.3598 L935.7906,295.2816 L933.3219,295.2816 L933.3219,293.1254 L940.7125,293.1254 L940.7125,295.2816 L938.2438,295.2816 L938.2438,303.3598 L940.7125,303.3598 L940.7125,305.516 L933.3219,305.516 L933.3219,303.3598 Z " fill="#000000"/><text fill="#000000" font-family="sans-serif" font-size="12" font-style="italic" lengthAdjust="spacing" textLength="98" x="955.1" y="303.6721">PublisherInterface</text><rect fill="#EEEBDC" height="18.3441" style="stroke:#000000;stroke-width:1.0;stroke-dasharray:2.0,2.0;" width="22" x="1080" y="280.016"/><text fill="#000000" font-family="sans-serif" font-size="12" font-style="italic" lengthAdjust="spacing" textLength="20" x="1081" y="293.8441">T, H</text><line style="stroke:#A80036;stroke-width:1.5;" x1="904" x2="1098" y1="315.016" y2="315.016"/><line style="stroke:#A80036;stroke-width:1.5;" x1="904" x2="1098" y1="323.016" y2="323.016"/><text fill="#000000" font-family="sans-serif" font-size="11" lengthAdjust="spacing" textLength="184" x="909" y="338.7749">pubish(sample: Sample&lt;T, H&gt;): void</text><!--MD5=[ccc335596fccdc44db9a89724390e84a]
class RequestInterface--><rect codeLine="55" fill="#FEFECE" filter="url(#f1ps543p94vi9x)" height="62.9819" id="RequestInterface" style="stroke:#A80036;stroke-width:1.5;" width="192" x="154" y="283.016"/><ellipse cx="200.75" cy="299.016" fill="#B4A7E5" rx="11" ry="11" style="stroke:#A80036;stroke-width:1.0;"/><path d="M197.1719,303.3598 L199.6406,303.3598 L199.6406,295.2816 L197.1719,295.2816 L197.1719,293.1254 L204.5625,293.1254 L204.5625,295.2816 L202.0938,295.2816 L202.0938,303.3598 L204.5625,303.3598 L204.5625,305.516 L197.1719,305.516 L197.1719,303.3598 Z " fill="#000000"/><text fill="#000000" font-family="sans-serif" font-size="12" font-style="italic" lengthAdjust="spacing" textLength="90" x="221.25" y="303.6721">RequestInterface</text><line style="stroke:#A80036;stroke-width:1.5;" x1="155" x2="345" y1="315.016" y2="315.016"/><line style="stroke:#A80036;stroke-width:1.5;" x1="155" x2="345" y1="323.016" y2="323.016"/><text fill="#000000" font-family="sans-serif" font-size="11" lengthAdjust="spacing" textLength="180" x="160" y="338.7749">send(request: Request&lt;Req&gt;): void</text><!--MD5=[0d3116ef1fef5eebd2b776ba8d85bd6c]
class ResponseInterface--><rect codeLine="59" fill="#FEFECE" filter="url(#f1ps543p94vi9x)" height="62.9819" id="ResponseInterface" style="stroke:#A80036;stroke-width:1.5;" width="206" x="606" y="283.016"/><ellipse cx="655.75" cy="299.016" fill="#B4A7E5" rx="11" ry="11" style="stroke:#A80036;stroke-width:1.0;"/><path d="M652.1719,303.3598 L654.6406,303.3598 L654.6406,295.2816 L652.1719,295.2816 L652.1719,293.1254 L659.5625,293.1254 L659.5625,295.2816 L657.0938,295.2816 L657.0938,303.3598 L659.5625,303.3598 L659.5625,305.516 L652.1719,305.516 L652.1719,303.3598 Z " fill="#000000"/><text fill="#000000" font-family="sans-serif" font-size="12" font-style="italic" lengthAdjust="spacing" textLength="98" x="676.25" y="303.6721">ResponseInterface</text><line style="stroke:#A80036;stroke-width:1.5;" x1="607" x2="811" y1="315.016" y2="315.016"/><line style="stroke:#A80036;stroke-width:1.5;" x1="607" x2="811" y1="323.016" y2="323.016"/><text fill="#000000" font-family="sans-serif" font-size="11" lengthAdjust="spacing" textLength="194" x="612" y="338.7749">send(response: Response&lt;Res&gt;): void</text><!--MD5=[4162ef892c3a2ccf7a6e7265be918e65]
link Publisher to PublisherInterface--><path codeLine="89" d="M1001,140.766 C1001,174.636 1001,237.836 1001,277.676 " fill="none" id="Publisher-to-PublisherInterface" style="stroke:#A80036;stroke-width:1.0;"/><polygon fill="#A80036" points="1001,282.896,1005,273.896,1001,277.896,997,273.896,1001,282.896" style="stroke:#A80036;stroke-width:1.0;"/><!--MD5=[7e96fa97dc528fc0ad776d634e479e58]
link Client to RequestInterface--><path codeLine="90" d="M250,215.806 C250,237.966 250,260.106 250,277.696 " fill="none" id="Client-to-RequestInterface" style="stroke:#A80036;stroke-width:1.0;"/><polygon fill="#A80036" points="250,282.996,254,273.996,250,277.996,246,273.996,250,282.996" style="stroke:#A80036;stroke-width:1.0;"/><!--MD5=[256a87e191612ae973a87d735cfd4d3f]
link Server to ResponseInterface--><path codeLine="91" d="M709,223.256 C709,242.916 709,262.156 709,277.786 " fill="none" id="Server-to-ResponseInterface" style="stroke:#A80036;stroke-width:1.0;"/><polygon fill="#A80036" points="709,282.946,713,273.946,709,277.946,705,273.946,709,282.946" style="stroke:#A80036;stroke-width:1.0;"/><!--MD5=[0f93a8b029fbd230747008e1e14fce4e]
link Group1 to Group2--><!--MD5=[99418a084cf9cc4b3b139951cbe4cee6]
link Sample to SmartChunk--><path codeLine="95" d="M1100.98,600.076 C1063.14,618.116 1020.5,638.446 978.39,658.526 " fill="none" id="Sample-to-SmartChunk" style="stroke:#A80036;stroke-width:1.0;"/><polygon fill="#A80036" points="973.79,660.726,983.6351,660.4548,978.3014,658.5703,980.1859,653.2365,973.79,660.726" style="stroke:#A80036;stroke-width:1.0;"/><!--MD5=[d5b8d6b9d0b23d26b69c35dea68f1a5d]
link Request to SmartChunk--><path codeLine="96" d="M754,600.076 C754,616.936 754,635.786 754,654.556 " fill="none" id="Request-to-SmartChunk" style="stroke:#A80036;stroke-width:1.0;"/><polygon fill="#A80036" points="754,659.846,758,650.846,754,654.846,750,650.846,754,659.846" style="stroke:#A80036;stroke-width:1.0;"/><!--MD5=[a43eb62d00420a404fe3a3defbc4a436]
link Response to SmartChunk--><path codeLine="97" d="M400.44,600.076 C440.28,618.726 485.36,639.816 529.67,660.546 " fill="none" id="Response-to-SmartChunk" style="stroke:#A80036;stroke-width:1.0;"/><polygon fill="#A80036" points="534.23,662.686,527.7672,655.2542,529.6994,660.5708,524.3828,662.5031,534.23,662.686" style="stroke:#A80036;stroke-width:1.0;"/></g></svg>