<?xml version="1.0" encoding="UTF-8" standalone="no"?><svg xmlns="http://www.w3.org/2000/svg" xmlns:xlink="http://www.w3.org/1999/xlink" contentScriptType="application/ecmascript" contentStyleType="text/css" height="263px" preserveAspectRatio="none" style="width:903px;height:263px;background:#EEEBDC;" version="1.1" viewBox="0 0 903 263" width="903px" zoomAndPan="magnify"><defs><filter height="300%" id="f1ha8pg1y92nvf" width="300%" x="-1" y="-1"><feGaussianBlur result="blurOut" stdDeviation="2.0"/><feColorMatrix in="blurOut" result="blurOut2" type="matrix" values="0 0 0 0 0 0 0 0 0 0 0 0 0 0 0 0 0 0 .4 0"/><feOffset dx="4.0" dy="4.0" in="blurOut2" result="blurOut3"/><feBlend in="SourceGraphic" in2="blurOut3" mode="normal"/></filter></defs><g><!--MD5=[7c46b07ee330a5ac83506660f79e9eba]
class UntypedClient--><rect codeLine="3" fill="#FEFECE" filter="url(#f1ha8pg1y92nvf)" height="227.7827" id="UntypedClient" style="stroke:#A80036;stroke-width:1.5;" width="417" x="7" y="14.5"/><ellipse cx="171.75" cy="30.5" fill="#ADD1B2" rx="11" ry="11" style="stroke:#A80036;stroke-width:1.0;"/><path d="M171.5469,37.2344 Q169.0625,37.2344 167.7344,35.5938 Q166.4219,33.9219 166.4219,30.8125 Q166.4219,27.6875 167.7344,26.0313 Q169.0625,24.375 171.5469,24.375 Q172.2656,24.375 172.9219,24.5313 Q173.5625,24.6875 174.125,24.9844 L174.125,27.7031 Q173.7656,27.3594 173.4688,27.1719 Q173.1719,26.9688 172.9063,26.8438 Q172.5938,26.7031 172.2813,26.6406 Q171.9844,26.5781 171.6719,26.5781 Q170.3438,26.5781 169.6563,27.6406 Q168.9688,28.7344 168.9688,30.8125 Q168.9688,32.9063 169.6563,33.9688 Q170.3438,35.0469 171.6719,35.0469 Q172.3125,35.0469 172.9063,34.7656 Q173.2031,34.6406 173.4844,34.4531 Q173.7813,34.25 174.125,33.9219 L174.125,36.6406 Q173.5469,36.9375 172.9063,37.0938 Q172.2813,37.2344 171.5469,37.2344 Z " fill="#000000"/><text fill="#000000" font-family="sans-serif" font-size="12" lengthAdjust="spacing" textLength="79" x="192.25" y="35.156">UntypedClient</text><line style="stroke:#A80036;stroke-width:1.5;" x1="8" x2="423" y1="46.5" y2="46.5"/><line style="stroke:#A80036;stroke-width:1.5;" x1="8" x2="423" y1="54.5" y2="54.5"/><text fill="#000000" font-family="sans-serif" font-size="11" lengthAdjust="spacing" textLength="405" x="13" y="70.2589">Client(serviceDescription: ServiceDescription&amp;, clientOptions: ClientOptions&amp;)</text><text fill="#000000" font-family="sans-serif" font-size="11" lengthAdjust="spacing" textLength="76" x="13" y="85.2408">connect(): void</text><text fill="#000000" font-family="sans-serif" font-size="11" lengthAdjust="spacing" textLength="91" x="13" y="100.2227">disconnect(): void</text><text fill="#000000" font-family="sans-serif" font-size="11" lengthAdjust="spacing" textLength="201" x="13" y="115.2046">getConnectionState(): ConnectionState</text><text fill="#000000" font-family="sans-serif" font-size="11" lengthAdjust="spacing" textLength="157" x="13" y="130.1865">loan(): expected&lt;void*, Error&gt;</text><text fill="#000000" font-family="sans-serif" font-size="11" lengthAdjust="spacing" textLength="135" x="13" y="145.1684">send(request: void*): void</text><text fill="#000000" font-family="sans-serif" font-size="11" lengthAdjust="spacing" textLength="147" x="13" y="160.1502">release(request: void*): void</text><text fill="#000000" font-family="sans-serif" font-size="11" lengthAdjust="spacing" textLength="109" x="13" y="175.1321">hasResponses(): bool</text><text fill="#000000" font-family="sans-serif" font-size="11" lengthAdjust="spacing" textLength="156" x="13" y="190.114">take(): expected&lt;void*, Error&gt;</text><text fill="#000000" font-family="sans-serif" font-size="11" lengthAdjust="spacing" textLength="155" x="13" y="205.0959">release(response: void*): void</text><text fill="#000000" font-family="sans-serif" font-size="11" lengthAdjust="spacing" textLength="169" x="13" y="220.0778">releaseQueuedResponses(): void</text><text fill="#000000" font-family="sans-serif" font-size="11" lengthAdjust="spacing" textLength="145" x="13" y="235.0597">hasMissedResponses(): bool</text><!--MD5=[44227b1ab5d0bc37f306ef65b6104f3a]
class UntypedServer--><rect codeLine="18" fill="#FEFECE" filter="url(#f1ha8pg1y92nvf)" height="242.7645" id="UntypedServer" style="stroke:#A80036;stroke-width:1.5;" width="430" x="459.5" y="7"/><ellipse cx="628.25" cy="23" fill="#ADD1B2" rx="11" ry="11" style="stroke:#A80036;stroke-width:1.0;"/><path d="M628.0469,29.7344 Q625.5625,29.7344 624.2344,28.0938 Q622.9219,26.4219 622.9219,23.3125 Q622.9219,20.1875 624.2344,18.5313 Q625.5625,16.875 628.0469,16.875 Q628.7656,16.875 629.4219,17.0313 Q630.0625,17.1875 630.625,17.4844 L630.625,20.2031 Q630.2656,19.8594 629.9688,19.6719 Q629.6719,19.4688 629.4063,19.3438 Q629.0938,19.2031 628.7813,19.1406 Q628.4844,19.0781 628.1719,19.0781 Q626.8438,19.0781 626.1563,20.1406 Q625.4688,21.2344 625.4688,23.3125 Q625.4688,25.4063 626.1563,26.4688 Q626.8438,27.5469 628.1719,27.5469 Q628.8125,27.5469 629.4063,27.2656 Q629.7031,27.1406 629.9844,26.9531 Q630.2813,26.75 630.625,26.4219 L630.625,29.1406 Q630.0469,29.4375 629.4063,29.5938 Q628.7813,29.7344 628.0469,29.7344 Z " fill="#000000"/><text fill="#000000" font-family="sans-serif" font-size="12" lengthAdjust="spacing" textLength="84" x="648.75" y="27.656">UntypedServer</text><line style="stroke:#A80036;stroke-width:1.5;" x1="460.5" x2="888.5" y1="39" y2="39"/><line style="stroke:#A80036;stroke-width:1.5;" x1="460.5" x2="888.5" y1="47" y2="47"/><text fill="#000000" font-family="sans-serif" font-size="11" lengthAdjust="spacing" textLength="418" x="465.5" y="62.7589">Server(serviceDescription: ServiceDescription&amp;, serverOptions: ServerOptions&amp;)</text><text fill="#000000" font-family="sans-serif" font-size="11" lengthAdjust="spacing" textLength="61" x="465.5" y="77.7408">offer(): void</text><text fill="#000000" font-family="sans-serif" font-size="11" lengthAdjust="spacing" textLength="83" x="465.5" y="92.7227">stopOffer():void</text><text fill="#000000" font-family="sans-serif" font-size="11" lengthAdjust="spacing" textLength="85" x="465.5" y="107.7046">isOffered(): bool</text><text fill="#000000" font-family="sans-serif" font-size="11" lengthAdjust="spacing" textLength="89" x="465.5" y="122.6865">hasClients(): bool</text><text fill="#000000" font-family="sans-serif" font-size="11" lengthAdjust="spacing" textLength="101" x="465.5" y="137.6684">hasRequests(): bool</text><text fill="#000000" font-family="sans-serif" font-size="11" lengthAdjust="spacing" textLength="156" x="465.5" y="152.6502">take(): expected&lt;void*, Error&gt;</text><text fill="#000000" font-family="sans-serif" font-size="11" lengthAdjust="spacing" textLength="147" x="465.5" y="167.6321">release(request: void*): void</text><text fill="#000000" font-family="sans-serif" font-size="11" lengthAdjust="spacing" textLength="161" x="465.5" y="182.614">releaseQueuedRequests(): void</text><text fill="#000000" font-family="sans-serif" font-size="11" lengthAdjust="spacing" textLength="137" x="465.5" y="197.5959">hasMissedRequests(): bool</text><text fill="#000000" font-family="sans-serif" font-size="11" lengthAdjust="spacing" textLength="327" x="465.5" y="212.5778">loan(requestHeader: RequestHeader*): expected&lt;void*, Error&gt;</text><text fill="#000000" font-family="sans-serif" font-size="11" lengthAdjust="spacing" textLength="143" x="465.5" y="227.5597">send(response: void*): void</text><text fill="#000000" font-family="sans-serif" font-size="11" lengthAdjust="spacing" textLength="155" x="465.5" y="242.5416">release(response: void*): void</text></g></svg>