<?xml version="1.0" encoding="UTF-8" standalone="no"?><svg xmlns="http://www.w3.org/2000/svg" xmlns:xlink="http://www.w3.org/1999/xlink" contentScriptType="application/ecmascript" contentStyleType="text/css" height="1333px" preserveAspectRatio="none" style="width:3355px;height:1333px;background:#00000000;" version="1.1" viewBox="0 0 3355 1333" width="3355px" zoomAndPan="magnify"><defs><filter height="300%" id="f14v363iggzmlj" width="300%" x="-1" y="-1"><feGaussianBlur result="blurOut" stdDeviation="2.0"/><feColorMatrix in="blurOut" result="blurOut2" type="matrix" values="0 0 0 0 0 0 0 0 0 0 0 0 0 0 0 0 0 0 .4 0"/><feOffset dx="4.0" dy="4.0" in="blurOut2" result="blurOut3"/><feBlend in="SourceGraphic" in2="blurOut3" mode="normal"/></filter></defs><g><text fill="#888888" font-family="sans-serif" font-size="10" lengthAdjust="spacing" textLength="176" x="3166" y="9.2822">Eclipse iceoryx component overview</text><text fill="#000000" font-family="sans-serif" font-size="18" lengthAdjust="spacing" textLength="334" x="1504" y="28.3486">Eclipse iceoryx Component Overview</text><!--MD5=[ed7dc03aa8d539cfd7d57db110a68e55]
cluster iceoryx_posh--><polygon fill="#008000" filter="url(#f14v363iggzmlj)" points="1279,226.5938,1389,226.5938,1396,248.8906,2860,248.8906,2860,884.5938,1279,884.5938,1279,226.5938" style="stroke:#000000;stroke-width:1.5;"/><line style="stroke:#000000;stroke-width:1.5;" x1="1279" x2="1396" y1="248.8906" y2="248.8906"/><text fill="#000000" font-family="sans-serif" font-size="14" font-weight="bold" lengthAdjust="spacing" textLength="104" x="1283" y="241.5889">iceoryx_posh</text><!--MD5=[38f2323d045ecacd4478f4c7d1e06b9d]
cluster core library--><rect fill="#D2691E" filter="url(#f14v363iggzmlj)" height="623" style="stroke:#000000;stroke-width:1.5;" width="327" x="2525" y="253.5938"/><path d="M2626,253.5938 L2626,262.8906 L2616,272.8906 L2525,272.8906 " fill="none" style="stroke:#000000;stroke-width:1.5;"/><text fill="#000000" font-family="sans-serif" font-size="14" font-weight="bold" lengthAdjust="spacing" textLength="91" x="2528" y="267.5889">core library</text><!--MD5=[2882655244722af885eff964b671140f]
cluster runtime library--><rect fill="#D2691E" filter="url(#f14v363iggzmlj)" height="98" style="stroke:#000000;stroke-width:1.5;" width="154" x="2352" y="253.5938"/><path d="M2478,253.5938 L2478,262.8906 L2468,272.8906 L2352,272.8906 " fill="none" style="stroke:#000000;stroke-width:1.5;"/><text fill="#000000" font-family="sans-serif" font-size="14" font-weight="bold" lengthAdjust="spacing" textLength="116" x="2355" y="267.5889">runtime library</text><!--MD5=[4997cf375c60d6f53c72389211135b42]
cluster gateway library--><rect fill="#D2691E" filter="url(#f14v363iggzmlj)" height="98" style="stroke:#000000;stroke-width:1.5;" width="154" x="2179" y="253.5938"/><path d="M2311,253.5938 L2311,262.8906 L2301,272.8906 L2179,272.8906 " fill="none" style="stroke:#000000;stroke-width:1.5;"/><text fill="#000000" font-family="sans-serif" font-size="14" font-weight="bold" lengthAdjust="spacing" textLength="122" x="2182" y="267.5889">gateway library</text><!--MD5=[c694ed67aab4c45e63f5b674f5ebdacc]
cluster RouDi library--><rect fill="#D2691E" filter="url(#f14v363iggzmlj)" height="98" style="stroke:#000000;stroke-width:1.5;" width="327" x="1833" y="253.5938"/><path d="M1943,253.5938 L1943,262.8906 L1933,272.8906 L1833,272.8906 " fill="none" style="stroke:#000000;stroke-width:1.5;"/><text fill="#000000" font-family="sans-serif" font-size="14" font-weight="bold" lengthAdjust="spacing" textLength="100" x="1836" y="267.5889">RouDi library</text><!--MD5=[d11aad145ca7e2c3ef6ec64753ab2f2b]
cluster config library--><rect fill="#D2691E" filter="url(#f14v363iggzmlj)" height="98" style="stroke:#000000;stroke-width:1.5;" width="327" x="1487" y="253.5938"/><path d="M1601,253.5938 L1601,262.8906 L1591,272.8906 L1487,272.8906 " fill="none" style="stroke:#000000;stroke-width:1.5;"/><text fill="#000000" font-family="sans-serif" font-size="14" font-weight="bold" lengthAdjust="spacing" textLength="104" x="1490" y="267.5889">config library</text><!--MD5=[415eaaaa2a07b50c6508c9baea7f95bd]
cluster iceoryx_hoofs--><polygon fill="#008000" filter="url(#f14v363iggzmlj)" points="189,398.5938,305,398.5938,312,420.8906,1271,420.8906,1271,1326.5938,189,1326.5938,189,398.5938" style="stroke:#000000;stroke-width:1.5;"/><line style="stroke:#000000;stroke-width:1.5;" x1="189" x2="312" y1="420.8906" y2="420.8906"/><text fill="#000000" font-family="sans-serif" font-size="14" font-weight="bold" lengthAdjust="spacing" textLength="110" x="193" y="413.5889">iceoryx_hoofs</text><!--MD5=[b4465e90ffeb9984a7a126b6e59ae458]
cluster hoofs library--><rect fill="#D2691E" filter="url(#f14v363iggzmlj)" height="893" style="stroke:#000000;stroke-width:1.5;" width="1039" x="224" y="425.5938"/><path d="M334,425.5938 L334,434.8906 L324,444.8906 L224,444.8906 " fill="none" style="stroke:#000000;stroke-width:1.5;"/><text fill="#000000" font-family="sans-serif" font-size="14" font-weight="bold" lengthAdjust="spacing" textLength="100" x="227" y="439.5889">hoofs library</text><!--MD5=[c7abec679f850aa996fa297d4bffb25c]
cluster cxx--><rect fill="#FFFF00" filter="url(#f14v363iggzmlj)" height="858" style="stroke:#000000;stroke-width:1.5;" width="327" x="928" y="452.5938"/><rect fill="#FFFF00" height="10" style="stroke:#000000;stroke-width:1.5;" width="15" x="1235" y="457.5938"/><rect fill="#FFFF00" height="2" style="stroke:#000000;stroke-width:1.5;" width="4" x="1233" y="459.5938"/><rect fill="#FFFF00" height="2" style="stroke:#000000;stroke-width:1.5;" width="4" x="1233" y="463.5938"/><text fill="#000000" font-family="sans-serif" font-size="14" font-style="italic" lengthAdjust="spacing" textLength="98" x="1042.5" y="478.5889">«namespace»</text><text fill="#000000" font-family="sans-serif" font-size="14" font-weight="bold" lengthAdjust="spacing" textLength="27" x="1078" y="494.8857">cxx</text><!--MD5=[4a0d858a1b32f3a888c29c8953eb9aab]
cluster log--><rect fill="#FFFF00" filter="url(#f14v363iggzmlj)" height="114" style="stroke:#000000;stroke-width:1.5;" width="154" x="755" y="452.5938"/><rect fill="#FFFF00" height="10" style="stroke:#000000;stroke-width:1.5;" width="15" x="889" y="457.5938"/><rect fill="#FFFF00" height="2" style="stroke:#000000;stroke-width:1.5;" width="4" x="887" y="459.5938"/><rect fill="#FFFF00" height="2" style="stroke:#000000;stroke-width:1.5;" width="4" x="887" y="463.5938"/><text fill="#000000" font-family="sans-serif" font-size="14" font-style="italic" lengthAdjust="spacing" textLength="98" x="783" y="478.5889">«namespace»</text><text fill="#000000" font-family="sans-serif" font-size="14" font-weight="bold" lengthAdjust="spacing" textLength="24" x="820" y="494.8857">log</text><!--MD5=[f5f1b3651291938931aee825d03ea60b]
cluster units--><rect fill="#FFFF00" filter="url(#f14v363iggzmlj)" height="114" style="stroke:#000000;stroke-width:1.5;" width="164" x="572" y="452.5938"/><rect fill="#FFFF00" height="10" style="stroke:#000000;stroke-width:1.5;" width="15" x="716" y="457.5938"/><rect fill="#FFFF00" height="2" style="stroke:#000000;stroke-width:1.5;" width="4" x="714" y="459.5938"/><rect fill="#FFFF00" height="2" style="stroke:#000000;stroke-width:1.5;" width="4" x="714" y="463.5938"/><text fill="#000000" font-family="sans-serif" font-size="14" font-style="italic" lengthAdjust="spacing" textLength="98" x="605" y="478.5889">«namespace»</text><text fill="#000000" font-family="sans-serif" font-size="14" font-weight="bold" lengthAdjust="spacing" textLength="39" x="634.5" y="494.8857">units</text><!--MD5=[95dba68051f17ed836827d70d887a54a]
cluster iceoryx_dds--><polygon fill="#008000" filter="url(#f14v363iggzmlj)" points="1049,81.5938,1149,81.5938,1156,103.8906,1411,103.8906,1411,179.5938,1049,179.5938,1049,81.5938" style="stroke:#000000;stroke-width:1.5;"/><line style="stroke:#000000;stroke-width:1.5;" x1="1049" x2="1156" y1="103.8906" y2="103.8906"/><text fill="#000000" font-family="sans-serif" font-size="14" font-weight="bold" lengthAdjust="spacing" textLength="94" x="1053" y="96.5889">iceoryx_dds</text><!--MD5=[addeb03e3eb587838caeece846992337]
cluster iceoryx_binding_c--><polygon fill="#008000" filter="url(#f14v363iggzmlj)" points="2868,81.5938,3013,81.5938,3020,103.8906,3338,103.8906,3338,752.5938,2868,752.5938,2868,81.5938" style="stroke:#000000;stroke-width:1.5;"/><line style="stroke:#000000;stroke-width:1.5;" x1="2868" x2="3020" y1="103.8906" y2="103.8906"/><text fill="#000000" font-family="sans-serif" font-size="14" font-weight="bold" lengthAdjust="spacing" textLength="139" x="2872" y="96.5889">iceoryx_binding_c</text><!--MD5=[b4eaf1e3bde212ac1537153269f045bb]
cluster iceoryx_calf--><polygon fill="#008000" filter="url(#f14v363iggzmlj)" points="16,253.5938,115,253.5938,122,275.8906,205,275.8906,205,351.5938,16,351.5938,16,253.5938" style="stroke:#000000;stroke-width:1.5;"/><line style="stroke:#000000;stroke-width:1.5;" x1="16" x2="122" y1="275.8906" y2="275.8906"/><text fill="#000000" font-family="sans-serif" font-size="14" font-weight="bold" lengthAdjust="spacing" textLength="93" x="20" y="268.5889">iceoryx_calf</text><!--MD5=[beec581614c18060e11082c458798f50]
cluster iceoryx_introspection--><polygon fill="#008000" filter="url(#f14v363iggzmlj)" points="1421,38.5938,1597,38.5938,1604,60.8906,1607,60.8906,1607,187.5938,1421,187.5938,1421,38.5938" style="stroke:#000000;stroke-width:1.5;"/><line style="stroke:#000000;stroke-width:1.5;" x1="1421" x2="1604" y1="60.8906" y2="60.8906"/><text fill="#000000" font-family="sans-serif" font-size="14" font-weight="bold" lengthAdjust="spacing" textLength="170" x="1425" y="53.5889">iceoryx_introspection</text><!--MD5=[aa2f05b2676d7d34ffa7e771fb7634f3]
cluster client--><rect fill="#FFFF00" filter="url(#f14v363iggzmlj)" height="114" style="stroke:#000000;stroke-width:1.5;" width="154" x="1430" y="65.5938"/><rect fill="#FFFF00" height="10" style="stroke:#000000;stroke-width:1.5;" width="15" x="1564" y="70.5938"/><rect fill="#FFFF00" height="2" style="stroke:#000000;stroke-width:1.5;" width="4" x="1562" y="72.5938"/><rect fill="#FFFF00" height="2" style="stroke:#000000;stroke-width:1.5;" width="4" x="1562" y="76.5938"/><text fill="#000000" font-family="sans-serif" font-size="14" font-style="italic" lengthAdjust="spacing" textLength="98" x="1458" y="91.5889">«namespace»</text><text fill="#000000" font-family="sans-serif" font-size="14" font-weight="bold" lengthAdjust="spacing" textLength="43" x="1485.5" y="107.8857">client</text><!--MD5=[ffd9c204d205bc9185ab1a43c6f1aff1]
entity errors--><rect fill="#FFFF00" filter="url(#f14v363iggzmlj)" height="62.5938" style="stroke:#A80036;stroke-width:1.5;" width="138" x="1287" y="280.5938"/><rect fill="#FFFF00" height="10" style="stroke:#A80036;stroke-width:1.5;" width="15" x="1405" y="285.5938"/><rect fill="#FFFF00" height="2" style="stroke:#A80036;stroke-width:1.5;" width="4" x="1403" y="287.5938"/><rect fill="#FFFF00" height="2" style="stroke:#A80036;stroke-width:1.5;" width="4" x="1403" y="291.5938"/><text fill="#000000" font-family="sans-serif" font-size="14" font-style="italic" lengthAdjust="spacing" textLength="98" x="1302" y="313.5889">«namespace»</text><text fill="#000000" font-family="sans-serif" font-size="14" lengthAdjust="spacing" textLength="41" x="1330.5" y="329.8857">errors</text><!--MD5=[477a64901edc741ec91a401c96bc08f2]
entity popo--><rect fill="#FFFF00" filter="url(#f14v363iggzmlj)" height="62.5938" style="stroke:#A80036;stroke-width:1.5;" width="138" x="2533" y="280.5938"/><rect fill="#FFFF00" height="10" style="stroke:#A80036;stroke-width:1.5;" width="15" x="2651" y="285.5938"/><rect fill="#FFFF00" height="2" style="stroke:#A80036;stroke-width:1.5;" width="4" x="2649" y="287.5938"/><rect fill="#FFFF00" height="2" style="stroke:#A80036;stroke-width:1.5;" width="4" x="2649" y="291.5938"/><text fill="#000000" font-family="sans-serif" font-size="14" font-style="italic" lengthAdjust="spacing" textLength="98" x="2548" y="313.5889">«namespace»</text><text fill="#000000" font-family="sans-serif" font-size="14" lengthAdjust="spacing" textLength="36" x="2579" y="329.8857">popo</text><!--MD5=[ba5cc415984907cdd9d4abcea172ca01]
entity capro--><rect fill="#FFFF00" filter="url(#f14v363iggzmlj)" height="62.5938" style="stroke:#A80036;stroke-width:1.5;" width="138" x="2706" y="280.5938"/><rect fill="#FFFF00" height="10" style="stroke:#A80036;stroke-width:1.5;" width="15" x="2824" y="285.5938"/><rect fill="#FFFF00" height="2" style="stroke:#A80036;stroke-width:1.5;" width="4" x="2822" y="287.5938"/><rect fill="#FFFF00" height="2" style="stroke:#A80036;stroke-width:1.5;" width="4" x="2822" y="291.5938"/><text fill="#000000" font-family="sans-serif" font-size="14" font-style="italic" lengthAdjust="spacing" textLength="98" x="2721" y="313.5889">«namespace»</text><text fill="#000000" font-family="sans-serif" font-size="14" lengthAdjust="spacing" textLength="39" x="2750.5" y="329.8857">capro</text><!--MD5=[09f98eabc58f714e0f010bacf40ca87c]
entity mepoo--><rect fill="#FFFF00" filter="url(#f14v363iggzmlj)" height="62.5938" style="stroke:#A80036;stroke-width:1.5;" width="138" x="2533" y="805.5938"/><rect fill="#FFFF00" height="10" style="stroke:#A80036;stroke-width:1.5;" width="15" x="2651" y="810.5938"/><rect fill="#FFFF00" height="2" style="stroke:#A80036;stroke-width:1.5;" width="4" x="2649" y="812.5938"/><rect fill="#FFFF00" height="2" style="stroke:#A80036;stroke-width:1.5;" width="4" x="2649" y="816.5938"/><text fill="#000000" font-family="sans-serif" font-size="14" font-style="italic" lengthAdjust="spacing" textLength="98" x="2548" y="838.5889">«namespace»</text><text fill="#000000" font-family="sans-serif" font-size="14" lengthAdjust="spacing" textLength="49" x="2572.5" y="854.8857">mepoo</text><!--MD5=[eed5921adeb5106d45e8647997b5fa68]
entity version--><rect fill="#FFFF00" filter="url(#f14v363iggzmlj)" height="62.5938" style="stroke:#A80036;stroke-width:1.5;" width="138" x="2706" y="805.5938"/><rect fill="#FFFF00" height="10" style="stroke:#A80036;stroke-width:1.5;" width="15" x="2824" y="810.5938"/><rect fill="#FFFF00" height="2" style="stroke:#A80036;stroke-width:1.5;" width="4" x="2822" y="812.5938"/><rect fill="#FFFF00" height="2" style="stroke:#A80036;stroke-width:1.5;" width="4" x="2822" y="816.5938"/><text fill="#000000" font-family="sans-serif" font-size="14" font-style="italic" lengthAdjust="spacing" textLength="98" x="2721" y="838.5889">«namespace»</text><text fill="#000000" font-family="sans-serif" font-size="14" lengthAdjust="spacing" textLength="50" x="2745" y="854.8857">version</text><!--MD5=[6857f13236cb144e56befd21da1781a5]
entity runtime--><rect fill="#FFFF00" filter="url(#f14v363iggzmlj)" height="62.5938" style="stroke:#A80036;stroke-width:1.5;" width="138" x="2360" y="280.5938"/><rect fill="#FFFF00" height="10" style="stroke:#A80036;stroke-width:1.5;" width="15" x="2478" y="285.5938"/><rect fill="#FFFF00" height="2" style="stroke:#A80036;stroke-width:1.5;" width="4" x="2476" y="287.5938"/><rect fill="#FFFF00" height="2" style="stroke:#A80036;stroke-width:1.5;" width="4" x="2476" y="291.5938"/><text fill="#000000" font-family="sans-serif" font-size="14" font-style="italic" lengthAdjust="spacing" textLength="98" x="2375" y="313.5889">«namespace»</text><text fill="#000000" font-family="sans-serif" font-size="14" lengthAdjust="spacing" textLength="53" x="2397.5" y="329.8857">runtime</text><!--MD5=[5f97cdfbafef6a5cbddfbf6bdd3803d1]
entity gw--><rect fill="#FFFF00" filter="url(#f14v363iggzmlj)" height="62.5938" style="stroke:#A80036;stroke-width:1.5;" width="138" x="2187" y="280.5938"/><rect fill="#FFFF00" height="10" style="stroke:#A80036;stroke-width:1.5;" width="15" x="2305" y="285.5938"/><rect fill="#FFFF00" height="2" style="stroke:#A80036;stroke-width:1.5;" width="4" x="2303" y="287.5938"/><rect fill="#FFFF00" height="2" style="stroke:#A80036;stroke-width:1.5;" width="4" x="2303" y="291.5938"/><text fill="#000000" font-family="sans-serif" font-size="14" font-style="italic" lengthAdjust="spacing" textLength="98" x="2202" y="313.5889">«namespace»</text><text fill="#000000" font-family="sans-serif" font-size="14" lengthAdjust="spacing" textLength="20" x="2241" y="329.8857">gw</text><!--MD5=[f73e6e01beb5fef5d3e1c08b5afdf415]
entity roudi--><rect fill="#FFFF00" filter="url(#f14v363iggzmlj)" height="62.5938" style="stroke:#A80036;stroke-width:1.5;" width="138" x="2014" y="280.5938"/><rect fill="#FFFF00" height="10" style="stroke:#A80036;stroke-width:1.5;" width="15" x="2132" y="285.5938"/><rect fill="#FFFF00" height="2" style="stroke:#A80036;stroke-width:1.5;" width="4" x="2130" y="287.5938"/><rect fill="#FFFF00" height="2" style="stroke:#A80036;stroke-width:1.5;" width="4" x="2130" y="291.5938"/><text fill="#000000" font-family="sans-serif" font-size="14" font-style="italic" lengthAdjust="spacing" textLength="98" x="2029" y="313.5889">«namespace»</text><text fill="#000000" font-family="sans-serif" font-size="14" lengthAdjust="spacing" textLength="35" x="2060.5" y="329.8857">roudi</text><!--MD5=[11fa01443fe50a6a26e5f9d4ef816fb0]
entity build--><rect fill="#FFFF00" filter="url(#f14v363iggzmlj)" height="62.5938" style="stroke:#A80036;stroke-width:1.5;" width="138" x="1841" y="280.5938"/><rect fill="#FFFF00" height="10" style="stroke:#A80036;stroke-width:1.5;" width="15" x="1959" y="285.5938"/><rect fill="#FFFF00" height="2" style="stroke:#A80036;stroke-width:1.5;" width="4" x="1957" y="287.5938"/><rect fill="#FFFF00" height="2" style="stroke:#A80036;stroke-width:1.5;" width="4" x="1957" y="291.5938"/><text fill="#000000" font-family="sans-serif" font-size="14" font-style="italic" lengthAdjust="spacing" textLength="98" x="1856" y="313.5889">«namespace»</text><text fill="#000000" font-family="sans-serif" font-size="14" lengthAdjust="spacing" textLength="33" x="1888.5" y="329.8857">build</text><!--MD5=[caf660ac2a54b55a5c31b5515889e628]
entity config--><rect fill="#FFFF00" filter="url(#f14v363iggzmlj)" height="62.5938" style="stroke:#A80036;stroke-width:1.5;" width="138" x="1668" y="280.5938"/><rect fill="#FFFF00" height="10" style="stroke:#A80036;stroke-width:1.5;" width="15" x="1786" y="285.5938"/><rect fill="#FFFF00" height="2" style="stroke:#A80036;stroke-width:1.5;" width="4" x="1784" y="287.5938"/><rect fill="#FFFF00" height="2" style="stroke:#A80036;stroke-width:1.5;" width="4" x="1784" y="291.5938"/><text fill="#000000" font-family="sans-serif" font-size="14" font-style="italic" lengthAdjust="spacing" textLength="98" x="1683" y="313.5889">«namespace»</text><text fill="#000000" font-family="sans-serif" font-size="14" lengthAdjust="spacing" textLength="42" x="1711" y="329.8857">config</text><!--MD5=[41236b02c847786743686b4ddf809814]
entity helper--><rect fill="#FFFF00" filter="url(#f14v363iggzmlj)" height="62.5938" style="stroke:#A80036;stroke-width:1.5;" width="138" x="1495" y="280.5938"/><rect fill="#FFFF00" height="10" style="stroke:#A80036;stroke-width:1.5;" width="15" x="1613" y="285.5938"/><rect fill="#FFFF00" height="2" style="stroke:#A80036;stroke-width:1.5;" width="4" x="1611" y="287.5938"/><rect fill="#FFFF00" height="2" style="stroke:#A80036;stroke-width:1.5;" width="4" x="1611" y="291.5938"/><text fill="#000000" font-family="sans-serif" font-size="14" font-style="italic" lengthAdjust="spacing" textLength="98" x="1510" y="313.5889">«namespace»</text><text fill="#000000" font-family="sans-serif" font-size="14" lengthAdjust="spacing" textLength="44" x="1537" y="329.8857">helper</text><!--MD5=[d91e39a99efde3d86d45b17502cf0b7a]
entity concurrent--><rect fill="#FFFF00" filter="url(#f14v363iggzmlj)" height="62.5938" style="stroke:#A80036;stroke-width:1.5;" width="138" x="232" y="495.5938"/><rect fill="#FFFF00" height="10" style="stroke:#A80036;stroke-width:1.5;" width="15" x="350" y="500.5938"/><rect fill="#FFFF00" height="2" style="stroke:#A80036;stroke-width:1.5;" width="4" x="348" y="502.5938"/><rect fill="#FFFF00" height="2" style="stroke:#A80036;stroke-width:1.5;" width="4" x="348" y="506.5938"/><text fill="#000000" font-family="sans-serif" font-size="14" font-style="italic" lengthAdjust="spacing" textLength="98" x="247" y="528.5889">«namespace»</text><text fill="#000000" font-family="sans-serif" font-size="14" lengthAdjust="spacing" textLength="76" x="258" y="544.8857">concurrent</text><!--MD5=[ee73bf7a731da339678d59279e2ee62c]
entity DesignPattern--><rect fill="#FFFF00" filter="url(#f14v363iggzmlj)" height="62.5938" style="stroke:#A80036;stroke-width:1.5;" width="139" x="405.5" y="495.5938"/><rect fill="#FFFF00" height="10" style="stroke:#A80036;stroke-width:1.5;" width="15" x="524.5" y="500.5938"/><rect fill="#FFFF00" height="2" style="stroke:#A80036;stroke-width:1.5;" width="4" x="522.5" y="502.5938"/><rect fill="#FFFF00" height="2" style="stroke:#A80036;stroke-width:1.5;" width="4" x="522.5" y="506.5938"/><text fill="#000000" font-family="sans-serif" font-size="14" font-style="italic" lengthAdjust="spacing" textLength="98" x="421" y="528.5889">«namespace»</text><text fill="#000000" font-family="sans-serif" font-size="14" lengthAdjust="spacing" textLength="99" x="420.5" y="544.8857">DesignPattern</text><!--MD5=[4f40616c88d3689c25a72e321dd68143]
entity posix--><rect fill="#FFFF00" filter="url(#f14v363iggzmlj)" height="62.5938" style="stroke:#A80036;stroke-width:1.5;" width="138" x="232" y="929.5938"/><rect fill="#FFFF00" height="10" style="stroke:#A80036;stroke-width:1.5;" width="15" x="350" y="934.5938"/><rect fill="#FFFF00" height="2" style="stroke:#A80036;stroke-width:1.5;" width="4" x="348" y="936.5938"/><rect fill="#FFFF00" height="2" style="stroke:#A80036;stroke-width:1.5;" width="4" x="348" y="940.5938"/><text fill="#000000" font-family="sans-serif" font-size="14" font-style="italic" lengthAdjust="spacing" textLength="98" x="247" y="962.5889">«namespace»</text><text fill="#000000" font-family="sans-serif" font-size="14" lengthAdjust="spacing" textLength="36" x="278" y="978.8857">posix</text><!--MD5=[a388eb35229be2a3c0c5fd8670f7a8b2]
entity threading--><rect fill="#FFFF00" filter="url(#f14v363iggzmlj)" height="62.5938" style="stroke:#A80036;stroke-width:1.5;" width="138" x="405" y="929.5938"/><rect fill="#FFFF00" height="10" style="stroke:#A80036;stroke-width:1.5;" width="15" x="523" y="934.5938"/><rect fill="#FFFF00" height="2" style="stroke:#A80036;stroke-width:1.5;" width="4" x="521" y="936.5938"/><rect fill="#FFFF00" height="2" style="stroke:#A80036;stroke-width:1.5;" width="4" x="521" y="940.5938"/><text fill="#000000" font-family="sans-serif" font-size="14" font-style="italic" lengthAdjust="spacing" textLength="98" x="420" y="962.5889">«namespace»</text><text fill="#000000" font-family="sans-serif" font-size="14" lengthAdjust="spacing" textLength="66" x="436" y="978.8857">threading</text><!--MD5=[6e04307d27c2c0e0e73f4ec182e43def]
entity newtype--><rect fill="#FFFF00" filter="url(#f14v363iggzmlj)" height="62.5938" style="stroke:#A80036;stroke-width:1.5;" width="138" x="936" y="495.5938"/><rect fill="#FFFF00" height="10" style="stroke:#A80036;stroke-width:1.5;" width="15" x="1054" y="500.5938"/><rect fill="#FFFF00" height="2" style="stroke:#A80036;stroke-width:1.5;" width="4" x="1052" y="502.5938"/><rect fill="#FFFF00" height="2" style="stroke:#A80036;stroke-width:1.5;" width="4" x="1052" y="506.5938"/><text fill="#000000" font-family="sans-serif" font-size="14" font-style="italic" lengthAdjust="spacing" textLength="98" x="951" y="528.5889">«namespace»</text><text fill="#000000" font-family="sans-serif" font-size="14" lengthAdjust="spacing" textLength="59" x="970.5" y="544.8857">newtype</text><!--MD5=[01dbf0ecbd7384941a03b03e119fcbdd]
entity set--><rect fill="#FFFF00" filter="url(#f14v363iggzmlj)" height="62.5938" style="stroke:#A80036;stroke-width:1.5;" width="138" x="1109" y="495.5938"/><rect fill="#FFFF00" height="10" style="stroke:#A80036;stroke-width:1.5;" width="15" x="1227" y="500.5938"/><rect fill="#FFFF00" height="2" style="stroke:#A80036;stroke-width:1.5;" width="4" x="1225" y="502.5938"/><rect fill="#FFFF00" height="2" style="stroke:#A80036;stroke-width:1.5;" width="4" x="1225" y="506.5938"/><text fill="#000000" font-family="sans-serif" font-size="14" font-style="italic" lengthAdjust="spacing" textLength="98" x="1124" y="528.5889">«namespace»</text><text fill="#000000" font-family="sans-serif" font-size="14" lengthAdjust="spacing" textLength="22" x="1162" y="544.8857">set</text><!--MD5=[ad1b6dc57716247de80283970c4ee265]
entity algorithm--><rect fill="#FFFF00" filter="url(#f14v363iggzmlj)" height="62.5938" style="stroke:#A80036;stroke-width:1.5;" width="138" x="936" y="1239.5938"/><rect fill="#FFFF00" height="10" style="stroke:#A80036;stroke-width:1.5;" width="15" x="1054" y="1244.5938"/><rect fill="#FFFF00" height="2" style="stroke:#A80036;stroke-width:1.5;" width="4" x="1052" y="1246.5938"/><rect fill="#FFFF00" height="2" style="stroke:#A80036;stroke-width:1.5;" width="4" x="1052" y="1250.5938"/><text fill="#000000" font-family="sans-serif" font-size="14" font-style="italic" lengthAdjust="spacing" textLength="98" x="951" y="1272.5889">«namespace»</text><text fill="#000000" font-family="sans-serif" font-size="14" lengthAdjust="spacing" textLength="64" x="968" y="1288.8857">algorithm</text><!--MD5=[963fb1ac2687aab13b570b0cd76338eb]
entity ffbb--><rect fill="#FFFF00" filter="url(#f14v363iggzmlj)" height="62.5938" style="stroke:#A80036;stroke-width:1.5;" width="138" x="763" y="495.5938"/><rect fill="#FFFF00" height="10" style="stroke:#A80036;stroke-width:1.5;" width="15" x="881" y="500.5938"/><rect fill="#FFFF00" height="2" style="stroke:#A80036;stroke-width:1.5;" width="4" x="879" y="502.5938"/><rect fill="#FFFF00" height="2" style="stroke:#A80036;stroke-width:1.5;" width="4" x="879" y="506.5938"/><text fill="#000000" font-family="sans-serif" font-size="14" font-style="italic" lengthAdjust="spacing" textLength="98" x="778" y="528.5889">«namespace»</text><text fill="#000000" font-family="sans-serif" font-size="14" lengthAdjust="spacing" textLength="26" x="814" y="544.8857">ffbb</text><!--MD5=[02615e27588e6842f1f6d6ca220ff1eb]
entity duration_literals--><rect fill="#FFFF00" filter="url(#f14v363iggzmlj)" height="62.5938" style="stroke:#A80036;stroke-width:1.5;" width="148" x="580" y="495.5938"/><rect fill="#FFFF00" height="10" style="stroke:#A80036;stroke-width:1.5;" width="15" x="708" y="500.5938"/><rect fill="#FFFF00" height="2" style="stroke:#A80036;stroke-width:1.5;" width="4" x="706" y="502.5938"/><rect fill="#FFFF00" height="2" style="stroke:#A80036;stroke-width:1.5;" width="4" x="706" y="506.5938"/><text fill="#000000" font-family="sans-serif" font-size="14" font-style="italic" lengthAdjust="spacing" textLength="98" x="600" y="528.5889">«namespace»</text><text fill="#000000" font-family="sans-serif" font-size="14" lengthAdjust="spacing" textLength="108" x="595" y="544.8857">duration_literals</text><!--MD5=[4617e0b67180f9dd16cbedc18db55043]
entity dds--><rect fill="#FFFF00" filter="url(#f14v363iggzmlj)" height="62.5938" style="stroke:#A80036;stroke-width:1.5;" width="138" x="1230" y="108.5938"/><rect fill="#FFFF00" height="10" style="stroke:#A80036;stroke-width:1.5;" width="15" x="1348" y="113.5938"/><rect fill="#FFFF00" height="2" style="stroke:#A80036;stroke-width:1.5;" width="4" x="1346" y="115.5938"/><rect fill="#FFFF00" height="2" style="stroke:#A80036;stroke-width:1.5;" width="4" x="1346" y="119.5938"/><text fill="#000000" font-family="sans-serif" font-size="14" font-style="italic" lengthAdjust="spacing" textLength="98" x="1245" y="141.5889">«namespace»</text><text fill="#000000" font-family="sans-serif" font-size="14" lengthAdjust="spacing" textLength="26" x="1281" y="157.8857">dds</text><!--MD5=[b74312c72fa74392e6ee98a94ff43660]
entity gateway_dds--><rect fill="#FFFF00" filter="url(#f14v363iggzmlj)" height="62.5938" style="stroke:#A80036;stroke-width:1.5;" width="138" x="1057" y="108.5938"/><rect fill="#FFFF00" height="10" style="stroke:#A80036;stroke-width:1.5;" width="15" x="1175" y="113.5938"/><rect fill="#FFFF00" height="2" style="stroke:#A80036;stroke-width:1.5;" width="4" x="1173" y="115.5938"/><rect fill="#FFFF00" height="2" style="stroke:#A80036;stroke-width:1.5;" width="4" x="1173" y="119.5938"/><text fill="#000000" font-family="sans-serif" font-size="14" font-style="italic" lengthAdjust="spacing" textLength="98" x="1072" y="141.5889">«namespace»</text><text fill="#000000" font-family="sans-serif" font-size="14" lengthAdjust="spacing" textLength="20" x="1111" y="157.8857">gw</text><!--MD5=[0627aaed11246a7abeee6f9f458fd6fc]
entity enums.h--><rect fill="#FEFECE" filter="url(#f14v363iggzmlj)" height="62.5938" style="stroke:#A80036;stroke-width:1.5;" width="101" x="2911.5" y="108.5938"/><rect fill="#FEFECE" height="10" style="stroke:#A80036;stroke-width:1.5;" width="15" x="2992.5" y="113.5938"/><rect fill="#FEFECE" height="2" style="stroke:#A80036;stroke-width:1.5;" width="4" x="2990.5" y="115.5938"/><rect fill="#FEFECE" height="2" style="stroke:#A80036;stroke-width:1.5;" width="4" x="2990.5" y="119.5938"/><text fill="#000000" font-family="sans-serif" font-size="14" font-style="italic" lengthAdjust="spacing" textLength="37" x="2938.5" y="141.5889">«file»</text><text fill="#000000" font-family="sans-serif" font-size="14" lengthAdjust="spacing" textLength="61" x="2926.5" y="157.8857">enums.h</text><!--MD5=[1c619d803853c9eee27c012254ad2594]
entity event_info.h--><rect fill="#FEFECE" filter="url(#f14v363iggzmlj)" height="62.5938" style="stroke:#A80036;stroke-width:1.5;" width="124" x="3048" y="108.5938"/><rect fill="#FEFECE" height="10" style="stroke:#A80036;stroke-width:1.5;" width="15" x="3152" y="113.5938"/><rect fill="#FEFECE" height="2" style="stroke:#A80036;stroke-width:1.5;" width="4" x="3150" y="115.5938"/><rect fill="#FEFECE" height="2" style="stroke:#A80036;stroke-width:1.5;" width="4" x="3150" y="119.5938"/><text fill="#000000" font-family="sans-serif" font-size="14" font-style="italic" lengthAdjust="spacing" textLength="37" x="3086.5" y="141.5889">«file»</text><text fill="#000000" font-family="sans-serif" font-size="14" lengthAdjust="spacing" textLength="84" x="3063" y="157.8857">event_info.h</text><!--MD5=[76ee3045bfc984a675b86340146c3740]
entity publisher.h--><rect fill="#FEFECE" filter="url(#f14v363iggzmlj)" height="62.5938" style="stroke:#A80036;stroke-width:1.5;" width="117" x="3207.5" y="108.5938"/><rect fill="#FEFECE" height="10" style="stroke:#A80036;stroke-width:1.5;" width="15" x="3304.5" y="113.5938"/><rect fill="#FEFECE" height="2" style="stroke:#A80036;stroke-width:1.5;" width="4" x="3302.5" y="115.5938"/><rect fill="#FEFECE" height="2" style="stroke:#A80036;stroke-width:1.5;" width="4" x="3302.5" y="119.5938"/><text fill="#000000" font-family="sans-serif" font-size="14" font-style="italic" lengthAdjust="spacing" textLength="37" x="3242.5" y="141.5889">«file»</text><text fill="#000000" font-family="sans-serif" font-size="14" lengthAdjust="spacing" textLength="77" x="3222.5" y="157.8857">publisher.h</text><!--MD5=[90dc9a8280b62d1f068a2b58527dd27f]
entity subscriber.h--><rect fill="#FEFECE" filter="url(#f14v363iggzmlj)" height="62.5938" style="stroke:#A80036;stroke-width:1.5;" width="126" x="2887" y="495.5938"/><rect fill="#FEFECE" height="10" style="stroke:#A80036;stroke-width:1.5;" width="15" x="2993" y="500.5938"/><rect fill="#FEFECE" height="2" style="stroke:#A80036;stroke-width:1.5;" width="4" x="2991" y="502.5938"/><rect fill="#FEFECE" height="2" style="stroke:#A80036;stroke-width:1.5;" width="4" x="2991" y="506.5938"/><text fill="#000000" font-family="sans-serif" font-size="14" font-style="italic" lengthAdjust="spacing" textLength="37" x="2926.5" y="528.5889">«file»</text><text fill="#000000" font-family="sans-serif" font-size="14" lengthAdjust="spacing" textLength="86" x="2902" y="544.8857">subscriber.h</text><!--MD5=[3ebdfda5c754ded4c7098b9e6fd5a2af]
entity node.h--><rect fill="#FEFECE" filter="url(#f14v363iggzmlj)" height="62.5938" style="stroke:#A80036;stroke-width:1.5;" width="89" x="3048.5" y="495.5938"/><rect fill="#FEFECE" height="10" style="stroke:#A80036;stroke-width:1.5;" width="15" x="3117.5" y="500.5938"/><rect fill="#FEFECE" height="2" style="stroke:#A80036;stroke-width:1.5;" width="4" x="3115.5" y="502.5938"/><rect fill="#FEFECE" height="2" style="stroke:#A80036;stroke-width:1.5;" width="4" x="3115.5" y="506.5938"/><text fill="#000000" font-family="sans-serif" font-size="14" font-style="italic" lengthAdjust="spacing" textLength="37" x="3069.5" y="528.5889">«file»</text><text fill="#000000" font-family="sans-serif" font-size="14" lengthAdjust="spacing" textLength="49" x="3063.5" y="544.8857">node.h</text><!--MD5=[862e9d7b2a60af0be616e480092cbeb2]
entity types.h--><rect fill="#FEFECE" filter="url(#f14v363iggzmlj)" height="62.5938" style="stroke:#A80036;stroke-width:1.5;" width="91" x="3172.5" y="495.5938"/><rect fill="#FEFECE" height="10" style="stroke:#A80036;stroke-width:1.5;" width="15" x="3243.5" y="500.5938"/><rect fill="#FEFECE" height="2" style="stroke:#A80036;stroke-width:1.5;" width="4" x="3241.5" y="502.5938"/><rect fill="#FEFECE" height="2" style="stroke:#A80036;stroke-width:1.5;" width="4" x="3241.5" y="506.5938"/><text fill="#000000" font-family="sans-serif" font-size="14" font-style="italic" lengthAdjust="spacing" textLength="37" x="3194.5" y="528.5889">«file»</text><text fill="#000000" font-family="sans-serif" font-size="14" lengthAdjust="spacing" textLength="51" x="3187.5" y="544.8857">types.h</text><!--MD5=[a6402ff01b9b3c6186ed744136ac3ec4]
entity wait_set.h--><rect fill="#FEFECE" filter="url(#f14v363iggzmlj)" height="62.5938" style="stroke:#A80036;stroke-width:1.5;" width="109" x="2876.5" y="681.5938"/><rect fill="#FEFECE" height="10" style="stroke:#A80036;stroke-width:1.5;" width="15" x="2965.5" y="686.5938"/><rect fill="#FEFECE" height="2" style="stroke:#A80036;stroke-width:1.5;" width="4" x="2963.5" y="688.5938"/><rect fill="#FEFECE" height="2" style="stroke:#A80036;stroke-width:1.5;" width="4" x="2963.5" y="692.5938"/><text fill="#000000" font-family="sans-serif" font-size="14" font-style="italic" lengthAdjust="spacing" textLength="37" x="2907.5" y="714.5889">«file»</text><text fill="#000000" font-family="sans-serif" font-size="14" lengthAdjust="spacing" textLength="69" x="2891.5" y="730.8857">wait_set.h</text><!--MD5=[532165c7ffa14e8a56c0d26ac01eaa4b]
entity user_trigger.h--><rect fill="#FEFECE" filter="url(#f14v363iggzmlj)" height="62.5938" style="stroke:#A80036;stroke-width:1.5;" width="136" x="3021" y="681.5938"/><rect fill="#FEFECE" height="10" style="stroke:#A80036;stroke-width:1.5;" width="15" x="3137" y="686.5938"/><rect fill="#FEFECE" height="2" style="stroke:#A80036;stroke-width:1.5;" width="4" x="3135" y="688.5938"/><rect fill="#FEFECE" height="2" style="stroke:#A80036;stroke-width:1.5;" width="4" x="3135" y="692.5938"/><text fill="#000000" font-family="sans-serif" font-size="14" font-style="italic" lengthAdjust="spacing" textLength="37" x="3065.5" y="714.5889">«file»</text><text fill="#000000" font-family="sans-serif" font-size="14" lengthAdjust="spacing" textLength="96" x="3036" y="730.8857">user_trigger.h</text><!--MD5=[fc4286d0b2a052e711aae933c9ad3727]
entity cpp2c--><rect fill="#FFFF00" filter="url(#f14v363iggzmlj)" height="62.5938" style="stroke:#A80036;stroke-width:1.5;" width="138" x="3192" y="681.5938"/><rect fill="#FFFF00" height="10" style="stroke:#A80036;stroke-width:1.5;" width="15" x="3310" y="686.5938"/><rect fill="#FFFF00" height="2" style="stroke:#A80036;stroke-width:1.5;" width="4" x="3308" y="688.5938"/><rect fill="#FFFF00" height="2" style="stroke:#A80036;stroke-width:1.5;" width="4" x="3308" y="692.5938"/><text fill="#000000" font-family="sans-serif" font-size="14" font-style="italic" lengthAdjust="spacing" textLength="98" x="3207" y="714.5889">«namespace»</text><text fill="#000000" font-family="sans-serif" font-size="14" lengthAdjust="spacing" textLength="43" x="3234.5" y="730.8857">cpp2c</text><!--MD5=[3289cdfcfa066358ec6e8499b533f1e0]
entity calf--><rect fill="#FFFF00" filter="url(#f14v363iggzmlj)" height="62.5938" style="stroke:#A80036;stroke-width:1.5;" width="138" x="24" y="280.5938"/><rect fill="#FFFF00" height="10" style="stroke:#A80036;stroke-width:1.5;" width="15" x="142" y="285.5938"/><rect fill="#FFFF00" height="2" style="stroke:#A80036;stroke-width:1.5;" width="4" x="140" y="287.5938"/><rect fill="#FFFF00" height="2" style="stroke:#A80036;stroke-width:1.5;" width="4" x="140" y="291.5938"/><text fill="#000000" font-family="sans-serif" font-size="14" font-style="italic" lengthAdjust="spacing" textLength="98" x="39" y="313.5889">«namespace»</text><text fill="#000000" font-family="sans-serif" font-size="14" lengthAdjust="spacing" textLength="23" x="76.5" y="329.8857">calf</text><!--MD5=[38dbeb4b243ea6dae1c7e5b7ff87398b]
entity introspection--><rect fill="#FFFF00" filter="url(#f14v363iggzmlj)" height="62.5938" style="stroke:#A80036;stroke-width:1.5;" width="138" x="1438" y="108.5938"/><rect fill="#FFFF00" height="10" style="stroke:#A80036;stroke-width:1.5;" width="15" x="1556" y="113.5938"/><rect fill="#FFFF00" height="2" style="stroke:#A80036;stroke-width:1.5;" width="4" x="1554" y="115.5938"/><rect fill="#FFFF00" height="2" style="stroke:#A80036;stroke-width:1.5;" width="4" x="1554" y="119.5938"/><text fill="#000000" font-family="sans-serif" font-size="14" font-style="italic" lengthAdjust="spacing" textLength="98" x="1453" y="141.5889">«namespace»</text><text fill="#000000" font-family="sans-serif" font-size="14" lengthAdjust="spacing" textLength="91" x="1456.5" y="157.8857">introspection</text><!--MD5=[c6bc123b88581d7893511edbb3afda00]
link iceoryx_posh to iceoryx_hoofs--><path d="M1275.7103,367.7065 C1262.5989,368.114 1248.9044,368.4814 1234.6918,368.8135 C1120.9911,371.4702 974.1347,371.8689 827.4491,372.485 C680.7636,373.1011 534.249,373.9345 421.2319,377.4609 C364.7234,379.224 316.5892,381.6604 280.9953,385.0794 C263.1983,386.7889 248.5364,388.7441 237.5303,390.9836 C232.0272,392.1033 227.4381,393.2941 223.828,394.5609 C222.023,395.1943 220.4627,395.8466 219.1553,396.5186 C218.5016,396.8545 217.9112,397.1954 217.3849,397.5412 C217.1218,397.7142 216.8748,397.8883 216.6439,398.0637 C216.5285,398.1514 216.4171,398.2395 216.3098,398.3278 " fill="none" id="iceoryx_posh-to-iceoryx_hoofs" style="stroke:#A80036;stroke-width:1.0;stroke-dasharray:7.0,7.0;"/><polygon fill="#A80036" points="216.3098,398.3278,225.8007,395.6968,220.1703,395.1503,220.7167,389.5199,216.3098,398.3278" style="stroke:#A80036;stroke-width:1.0;"/><text fill="#000000" font-family="sans-serif" font-size="13" lengthAdjust="spacing" textLength="23" x="621" y="386.6606">use</text><!--MD5=[923ab2d2a35521c01aa04bd91104d3ef]
link iceoryx_dds to iceoryx_posh--><path d="M1411.0679,161.7581 C1411.1241,161.9016 1411.1805,162.0456 1411.237,162.1898 C1411.6897,163.344 1412.1548,164.5202 1412.6306,165.7123 C1413.5823,168.0966 1414.5771,170.5449 1415.6016,173.0087 C1417.6506,177.9365 1419.8188,182.9269 1422,187.5938 C1426.1679,196.511 1429.7529,201.6296 1433.1285,206.8346 C1434.8162,209.437 1436.4517,212.0611 1438.0814,215.1924 C1438.8962,216.7581 1439.7096,218.4506 1440.5275,220.3306 C1440.9364,221.2706 1441.3464,222.2574 1441.7582,223.2988 C1441.9642,223.8194 1442.1705,224.3537 1442.3775,224.9026 C1442.4809,225.177 1442.5845,225.455 1442.6883,225.7369 C1442.7402,225.8778 1442.7921,226.0196 1442.844,226.1624 C1442.87,226.2339 1442.896,226.3055 1442.922,226.3774 " fill="none" id="iceoryx_dds-to-iceoryx_posh" style="stroke:#A80036;stroke-width:1.0;stroke-dasharray:7.0,7.0;"/><polygon fill="#A80036" points="1442.922,226.3774,1443.6229,216.5535,1441.2216,221.6754,1436.0997,219.2741,1442.922,226.3774" style="stroke:#A80036;stroke-width:1.0;"/><text fill="#000000" font-family="sans-serif" font-size="13" lengthAdjust="spacing" textLength="23" x="1440" y="214.6606">use</text><!--MD5=[ef085833380be4e9d63cc0e4596daa95]
link iceoryx_binding_c to iceoryx_posh--><path d="M2867.4152,140.4807 C2866.9472,140.5018 2866.4607,140.5238 2865.9559,140.5467 C2864.9461,140.5924 2863.863,140.6414 2862.7077,140.6938 C2860.3972,140.7985 2857.798,140.9165 2854.9201,141.0474 C2843.4087,141.571 2827.4386,142.3009 2807.6475,143.2144 C2768.0653,145.0413 2713.1987,147.6022 2648.148,150.7137 C2518.0465,156.9367 2347.2086,165.3624 2176.4361,174.524 C2005.6636,183.6856 1834.9564,193.5833 1705.1165,202.7504 C1640.1965,207.334 1585.4933,211.735 1546.1071,215.7699 C1526.4141,217.7874 1510.5502,219.7134 1499.1532,221.5251 C1493.4547,222.4309 1488.8729,223.3081 1485.4874,224.1538 C1483.7947,224.5767 1482.4011,224.9917 1481.3165,225.3984 C1480.7743,225.6018 1480.3092,225.8032 1479.9227,226.0024 C1479.7295,226.102 1479.5559,226.2011 1479.402,226.2997 C1479.3251,226.3489 1479.2531,226.3981 1479.1861,226.4471 " fill="none" id="iceoryx_binding_c-to-iceoryx_posh" style="stroke:#A80036;stroke-width:1.0;stroke-dasharray:7.0,7.0;"/><polygon fill="#A80036" points="1479.1861,226.4471,1488.8118,224.3623,1483.2218,223.4953,1484.0888,217.9053,1479.1861,226.4471" style="stroke:#A80036;stroke-width:1.0;"/><text fill="#000000" font-family="sans-serif" font-size="13" lengthAdjust="spacing" textLength="23" x="1695" y="214.6606">use</text><!--MD5=[fe0c5398c07e7bcf675fe39d456333c8]
link iceoryx_calf to iceoryx_hoofs--><path d="M197,352.4104 C197,352.726 197,353.0429 197,353.3611 C197,354.6337 197,355.9266 197,357.2385 C197,359.8623 197,362.5617 197,365.3261 C197,370.8549 197,376.6433 197,382.6044 C197,385.585 197,388.6088 197,391.665 C197,393.1931 197,394.7292 197,396.2721 C197,397.0436 197,397.8167 197,398.5914 " fill="none" id="iceoryx_calf-to-iceoryx_hoofs" style="stroke:#A80036;stroke-width:1.0;stroke-dasharray:7.0,7.0;"/><polygon fill="#A80036" points="197,398.5914,201,389.5914,197,393.5914,193,389.5914,197,398.5914" style="stroke:#A80036;stroke-width:1.0;"/><text fill="#000000" font-family="sans-serif" font-size="13" lengthAdjust="spacing" textLength="23" x="198" y="386.6606">use</text><!--MD5=[4b8aab564a453d286cf375876300a066]
link introspection to iceoryx_posh--><path d="M1495.9029,171.9192 C1493.1715,180.0442 1490.19,189.1438 1487.2692,198.4967 C1485.8088,203.1732 1484.3636,207.9129 1482.9724,212.6258 C1482.2768,214.9823 1481.5948,217.332 1480.9311,219.6637 C1480.5992,220.8296 1480.272,221.991 1479.9499,223.1465 C1479.7889,223.7242 1479.6292,224.3005 1479.4708,224.8751 C1479.3917,225.1624 1479.3128,225.4493 1479.2344,225.7357 C1479.1951,225.8789 1479.156,226.0221 1479.1169,226.1651 C1479.0974,226.2366 1479.0779,226.308 1479.0584,226.3795 " fill="none" id="introspection-to-iceoryx_posh" style="stroke:#A80036;stroke-width:1.0;stroke-dasharray:7.0,7.0;"/><polygon fill="#A80036" points="1479.0584,226.3795,1485.2855,218.7491,1480.374,221.5557,1477.5674,216.6442,1479.0584,226.3795" style="stroke:#A80036;stroke-width:1.0;"/><text fill="#000000" font-family="sans-serif" font-size="13" lengthAdjust="spacing" textLength="23" x="1486" y="214.6606">use</text><!--MD5=[4f791f3a16e89c6f7a776d127bc56767]
link popo to capro--><!--MD5=[bae83738ec178758dbd7c7b616b9e8cc]
link popo to mepoo--><!--MD5=[845e45b8f13c4ad49641425808468818]
link mepoo to version--><!--MD5=[6ee88ec5bb08a8f80fef382bcd89ab2a]
link concurrent to DesignPattern--><!--MD5=[93c62250fb8f89d229326eff2da3c4e2]
link concurrent to posix--><!--MD5=[66592ae040fad66e6f88fee3a0a0b31f]
link posix to threading--><!--MD5=[ad6e6e5a7cf711b8afeea2c3ceffa3b6]
link newtype to set--><!--MD5=[a8e109713a8745e1bfd03a8f989edc95]
link newtype to algorithm--><!--MD5=[a9c4659403d3857be5e25b5a5a9c99f8]
link enums.h to event_info.h--><!--MD5=[254534e2c11d15766d27730dbbfeaa65]
link event_info.h to publisher.h--><!--MD5=[3face6c57d48dbc8ebcee15e0ca35910]
link enums.h to subscriber.h--><!--MD5=[91e7f7f6a10ca830dfe05c96c0ce7802]
link subscriber.h to node.h--><!--MD5=[a63c041bb62c183c5b073c81f8295f06]
link node.h to types.h--><!--MD5=[80806f9a12da8899c1bab1cb87b51ced]
link subscriber.h to wait_set.h--><!--MD5=[d51684e9046eaa2ba6160b4d05495dda]
link wait_set.h to user_trigger.h--><!--MD5=[8bf4a0d5cafcee0f366fc2bbd146f60e]
link user_trigger.h to cpp2c--></g></svg>