<?xml version="1.0" encoding="UTF-8" standalone="no"?><svg xmlns="http://www.w3.org/2000/svg" xmlns:xlink="http://www.w3.org/1999/xlink" contentScriptType="application/ecmascript" contentStyleType="text/css" height="1024px" preserveAspectRatio="none" style="width:2485px;height:1024px;background:#00000000;" version="1.1" viewBox="0 0 2485 1024" width="2485px" zoomAndPan="magnify"><defs><filter height="300%" id="f1fides0ms7ao0" width="300%" x="-1" y="-1"><feGaussianBlur result="blurOut" stdDeviation="2.0"/><feColorMatrix in="blurOut" result="blurOut2" type="matrix" values="0 0 0 0 0 0 0 0 0 0 0 0 0 0 0 0 0 0 .4 0"/><feOffset dx="4.0" dy="4.0" in="blurOut2" result="blurOut3"/><feBlend in="SourceGraphic" in2="blurOut3" mode="normal"/></filter></defs><g><text fill="#888888" font-family="sans-serif" font-size="10" lengthAdjust="spacing" textLength="174" x="2298" y="10.69">Eclipse iceoryx component overview</text><text fill="#000000" font-family="sans-serif" font-size="18" lengthAdjust="spacing" textLength="313" x="1079.5" y="32.8619">Eclipse iceoryx Component Overview</text><!--MD5=[415eaaaa2a07b50c6508c9baea7f95bd]
cluster iceoryx_hoofs--><polygon fill="#008000" filter="url(#f1fides0ms7ao0)" points="1334,549.7378,1435,549.7378,1442,574.8057,2468,574.8057,2468,1017.7378,1334,1017.7378,1334,549.7378" style="stroke:#000000;stroke-width:1.5;"/><line style="stroke:#000000;stroke-width:1.5;" x1="1334" x2="1442" y1="574.8057" y2="574.8057"/><text fill="#000000" font-family="sans-serif" font-size="14" font-weight="bold" lengthAdjust="spacing" textLength="95" x="1338" y="566.7038">iceoryx_hoofs</text><!--MD5=[b4465e90ffeb9984a7a126b6e59ae458]
cluster hoofs library--><rect fill="#D2691E" filter="url(#f1fides0ms7ao0)" height="382" style="stroke:#000000;stroke-width:1.5;" width="1062" x="1374" y="603.7378"/><path d="M1472,603.7378 L1472,615.8057 L1462,625.8057 L1374,625.8057 " fill="none" style="stroke:#000000;stroke-width:1.5;"/><text fill="#000000" font-family="sans-serif" font-size="14" font-weight="bold" lengthAdjust="spacing" textLength="88" x="1377" y="619.7038">hoofs library</text><!--MD5=[c7abec679f850aa996fa297d4bffb25c]
cluster cxx--><rect fill="#FFFF00" filter="url(#f1fides0ms7ao0)" height="312" style="stroke:#000000;stroke-width:1.5;" width="318" x="2094" y="649.7378"/><rect fill="#FFFF00" height="10" style="stroke:#000000;stroke-width:1.5;" width="15" x="2392" y="654.7378"/><rect fill="#FFFF00" height="2" style="stroke:#000000;stroke-width:1.5;" width="4" x="2390" y="656.7378"/><rect fill="#FFFF00" height="2" style="stroke:#000000;stroke-width:1.5;" width="4" x="2390" y="660.7378"/><text fill="#000000" font-family="sans-serif" font-size="14" font-style="italic" lengthAdjust="spacing" textLength="85" x="2210.5" y="677.7038">«namespace»</text><text fill="#000000" font-family="sans-serif" font-size="14" font-weight="bold" lengthAdjust="spacing" textLength="23" x="2241.5" y="696.7717">cxx</text><!--MD5=[4a0d858a1b32f3a888c29c8953eb9aab]
cluster log--><rect fill="#FFFF00" filter="url(#f1fides0ms7ao0)" height="141" style="stroke:#000000;stroke-width:1.5;" width="158" x="1912" y="649.7378"/><rect fill="#FFFF00" height="10" style="stroke:#000000;stroke-width:1.5;" width="15" x="2050" y="654.7378"/><rect fill="#FFFF00" height="2" style="stroke:#000000;stroke-width:1.5;" width="4" x="2048" y="656.7378"/><rect fill="#FFFF00" height="2" style="stroke:#000000;stroke-width:1.5;" width="4" x="2048" y="660.7378"/><text fill="#000000" font-family="sans-serif" font-size="14" font-style="italic" lengthAdjust="spacing" textLength="85" x="1948.5" y="677.7038">«namespace»</text><text fill="#000000" font-family="sans-serif" font-size="14" font-weight="bold" lengthAdjust="spacing" textLength="22" x="1980" y="696.7717">log</text><!--MD5=[f5f1b3651291938931aee825d03ea60b]
cluster units--><rect fill="#FFFF00" filter="url(#f1fides0ms7ao0)" height="141" style="stroke:#000000;stroke-width:1.5;" width="182" x="1706" y="649.7378"/><rect fill="#FFFF00" height="10" style="stroke:#000000;stroke-width:1.5;" width="15" x="1868" y="654.7378"/><rect fill="#FFFF00" height="2" style="stroke:#000000;stroke-width:1.5;" width="4" x="1866" y="656.7378"/><rect fill="#FFFF00" height="2" style="stroke:#000000;stroke-width:1.5;" width="4" x="1866" y="660.7378"/><text fill="#000000" font-family="sans-serif" font-size="14" font-style="italic" lengthAdjust="spacing" textLength="85" x="1754.5" y="677.7038">«namespace»</text><text fill="#000000" font-family="sans-serif" font-size="14" font-weight="bold" lengthAdjust="spacing" textLength="35" x="1779.5" y="696.7717">units</text><!--MD5=[ed7dc03aa8d539cfd7d57db110a68e55]
cluster iceoryx_posh--><polygon fill="#008000" filter="url(#f1fides0ms7ao0)" points="16,314.7378,112,314.7378,119,339.8057,1294,339.8057,1294,822.7378,16,822.7378,16,314.7378" style="stroke:#000000;stroke-width:1.5;"/><line style="stroke:#000000;stroke-width:1.5;" x1="16" x2="119" y1="339.8057" y2="339.8057"/><text fill="#000000" font-family="sans-serif" font-size="14" font-weight="bold" lengthAdjust="spacing" textLength="90" x="20" y="331.7038">iceoryx_posh</text><!--MD5=[38f2323d045ecacd4478f4c7d1e06b9d]
cluster core library--><rect fill="#D2691E" filter="url(#f1fides0ms7ao0)" height="422" style="stroke:#000000;stroke-width:1.5;" width="478" x="776" y="368.7378"/><path d="M865,368.7378 L865,380.8057 L855,390.8057 L776,390.8057 " fill="none" style="stroke:#000000;stroke-width:1.5;"/><text fill="#000000" font-family="sans-serif" font-size="14" font-weight="bold" lengthAdjust="spacing" textLength="79" x="779" y="384.7038">core library</text><!--MD5=[2882655244722af885eff964b671140f]
cluster runtime library--><rect fill="#D2691E" filter="url(#f1fides0ms7ao0)" height="122" style="stroke:#000000;stroke-width:1.5;" width="158" x="594" y="368.7378"/><path d="M709,368.7378 L709,380.8057 L699,390.8057 L594,390.8057 " fill="none" style="stroke:#000000;stroke-width:1.5;"/><text fill="#000000" font-family="sans-serif" font-size="14" font-weight="bold" lengthAdjust="spacing" textLength="105" x="597" y="384.7038">runtime library</text><!--MD5=[4997cf375c60d6f53c72389211135b42]
cluster gateway library--><rect fill="#D2691E" filter="url(#f1fides0ms7ao0)" height="122" style="stroke:#000000;stroke-width:1.5;" width="158" x="412" y="368.7378"/><path d="M530,368.7378 L530,380.8057 L520,390.8057 L412,390.8057 " fill="none" style="stroke:#000000;stroke-width:1.5;"/><text fill="#000000" font-family="sans-serif" font-size="14" font-weight="bold" lengthAdjust="spacing" textLength="108" x="415" y="384.7038">gateway library</text><!--MD5=[d11aad145ca7e2c3ef6ec64753ab2f2b]
cluster config library--><rect fill="#D2691E" filter="url(#f1fides0ms7ao0)" height="122" style="stroke:#000000;stroke-width:1.5;" width="158" x="230" y="368.7378"/><path d="M332,368.7378 L332,380.8057 L322,390.8057 L230,390.8057 " fill="none" style="stroke:#000000;stroke-width:1.5;"/><text fill="#000000" font-family="sans-serif" font-size="14" font-weight="bold" lengthAdjust="spacing" textLength="92" x="233" y="384.7038">config library</text><!--MD5=[c694ed67aab4c45e63f5b674f5ebdacc]
cluster RouDi library--><rect fill="#D2691E" filter="url(#f1fides0ms7ao0)" height="122" style="stroke:#000000;stroke-width:1.5;" width="158" x="48" y="368.7378"/><path d="M148,368.7378 L148,380.8057 L138,390.8057 L48,390.8057 " fill="none" style="stroke:#000000;stroke-width:1.5;"/><text fill="#000000" font-family="sans-serif" font-size="14" font-weight="bold" lengthAdjust="spacing" textLength="90" x="51" y="384.7038">RouDi library</text><!--MD5=[95dba68051f17ed836827d70d887a54a]
cluster iceoryx_dds--><polygon fill="#008000" filter="url(#f1fides0ms7ao0)" points="885,101.7378,972,101.7378,979,126.8057,1238,126.8057,1238,239.7378,885,239.7378,885,101.7378" style="stroke:#000000;stroke-width:1.5;"/><line style="stroke:#000000;stroke-width:1.5;" x1="885" x2="979" y1="126.8057" y2="126.8057"/><text fill="#000000" font-family="sans-serif" font-size="14" font-weight="bold" lengthAdjust="spacing" textLength="81" x="889" y="118.7038">iceoryx_dds</text><!--MD5=[addeb03e3eb587838caeece846992337]
cluster iceoryx_binding_c--><polygon fill="#008000" filter="url(#f1fides0ms7ao0)" points="1278,101.7378,1406,101.7378,1413,126.8057,1631,126.8057,1631,239.7378,1278,239.7378,1278,101.7378" style="stroke:#000000;stroke-width:1.5;"/><line style="stroke:#000000;stroke-width:1.5;" x1="1278" x2="1413" y1="126.8057" y2="126.8057"/><text fill="#000000" font-family="sans-serif" font-size="14" font-weight="bold" lengthAdjust="spacing" textLength="122" x="1282" y="118.7038">iceoryx_binding_c</text><!--MD5=[beec581614c18060e11082c458798f50]
cluster iceoryx_introspection--><polygon fill="#008000" filter="url(#f1fides0ms7ao0)" points="1663,44.7378,1818,44.7378,1825,69.8057,1873,69.8057,1873,255.7378,1663,255.7378,1663,44.7378" style="stroke:#000000;stroke-width:1.5;"/><line style="stroke:#000000;stroke-width:1.5;" x1="1663" x2="1825" y1="69.8057" y2="69.8057"/><text fill="#000000" font-family="sans-serif" font-size="14" font-weight="bold" lengthAdjust="spacing" textLength="149" x="1667" y="61.7038">iceoryx_introspection</text><!--MD5=[aa2f05b2676d7d34ffa7e771fb7634f3]
cluster client--><rect fill="#FFFF00" filter="url(#f1fides0ms7ao0)" height="141" style="stroke:#000000;stroke-width:1.5;" width="162" x="1687" y="90.7378"/><rect fill="#FFFF00" height="10" style="stroke:#000000;stroke-width:1.5;" width="15" x="1829" y="95.7378"/><rect fill="#FFFF00" height="2" style="stroke:#000000;stroke-width:1.5;" width="4" x="1827" y="97.7378"/><rect fill="#FFFF00" height="2" style="stroke:#000000;stroke-width:1.5;" width="4" x="1827" y="101.7378"/><text fill="#000000" font-family="sans-serif" font-size="14" font-style="italic" lengthAdjust="spacing" textLength="85" x="1725.5" y="118.7038">«namespace»</text><text fill="#000000" font-family="sans-serif" font-size="14" font-weight="bold" lengthAdjust="spacing" textLength="38" x="1749" y="137.7717">client</text><!--MD5=[d91e39a99efde3d86d45b17502cf0b7a]
entity concurrent--><rect fill="#FFFF00" filter="url(#f1fides0ms7ao0)" height="68.1358" style="stroke:#A80036;stroke-width:1.5;" width="125" x="1390.5" y="706.7378"/><rect fill="#FFFF00" height="10" style="stroke:#A80036;stroke-width:1.5;" width="15" x="1495.5" y="711.7378"/><rect fill="#FFFF00" height="2" style="stroke:#A80036;stroke-width:1.5;" width="4" x="1493.5" y="713.7378"/><rect fill="#FFFF00" height="2" style="stroke:#A80036;stroke-width:1.5;" width="4" x="1493.5" y="717.7378"/><text fill="#000000" font-family="sans-serif" font-size="14" font-style="italic" lengthAdjust="spacing" textLength="85" x="1405.5" y="741.7038">«namespace»</text><text fill="#000000" font-family="sans-serif" font-size="14" lengthAdjust="spacing" textLength="74" x="1411" y="760.7717">concurrent</text><!--MD5=[ee73bf7a731da339678d59279e2ee62c]
entity DesignPattern--><rect fill="#FFFF00" filter="url(#f1fides0ms7ao0)" height="68.1358" style="stroke:#A80036;stroke-width:1.5;" width="136" x="1551" y="706.7378"/><rect fill="#FFFF00" height="10" style="stroke:#A80036;stroke-width:1.5;" width="15" x="1667" y="711.7378"/><rect fill="#FFFF00" height="2" style="stroke:#A80036;stroke-width:1.5;" width="4" x="1665" y="713.7378"/><rect fill="#FFFF00" height="2" style="stroke:#A80036;stroke-width:1.5;" width="4" x="1665" y="717.7378"/><text fill="#000000" font-family="sans-serif" font-size="14" font-style="italic" lengthAdjust="spacing" textLength="85" x="1571.5" y="741.7038">«namespace»</text><text fill="#000000" font-family="sans-serif" font-size="14" lengthAdjust="spacing" textLength="96" x="1566" y="760.7717">DesignPattern</text><!--MD5=[ffd9c204d205bc9185ab1a43c6f1aff1]
entity errors--><rect fill="#FFFF00" filter="url(#f1fides0ms7ao0)" height="68.1358" style="stroke:#A80036;stroke-width:1.5;" width="125" x="1390.5" y="877.7378"/><rect fill="#FFFF00" height="10" style="stroke:#A80036;stroke-width:1.5;" width="15" x="1495.5" y="882.7378"/><rect fill="#FFFF00" height="2" style="stroke:#A80036;stroke-width:1.5;" width="4" x="1493.5" y="884.7378"/><rect fill="#FFFF00" height="2" style="stroke:#A80036;stroke-width:1.5;" width="4" x="1493.5" y="888.7378"/><text fill="#000000" font-family="sans-serif" font-size="14" font-style="italic" lengthAdjust="spacing" textLength="85" x="1405.5" y="912.7038">«namespace»</text><text fill="#000000" font-family="sans-serif" font-size="14" lengthAdjust="spacing" textLength="41" x="1427.5" y="931.7717">errors</text><!--MD5=[4f40616c88d3689c25a72e321dd68143]
entity posix--><rect fill="#FFFF00" filter="url(#f1fides0ms7ao0)" height="68.1358" style="stroke:#A80036;stroke-width:1.5;" width="125" x="1550.5" y="877.7378"/><rect fill="#FFFF00" height="10" style="stroke:#A80036;stroke-width:1.5;" width="15" x="1655.5" y="882.7378"/><rect fill="#FFFF00" height="2" style="stroke:#A80036;stroke-width:1.5;" width="4" x="1653.5" y="884.7378"/><rect fill="#FFFF00" height="2" style="stroke:#A80036;stroke-width:1.5;" width="4" x="1653.5" y="888.7378"/><text fill="#000000" font-family="sans-serif" font-size="14" font-style="italic" lengthAdjust="spacing" textLength="85" x="1565.5" y="912.7038">«namespace»</text><text fill="#000000" font-family="sans-serif" font-size="14" lengthAdjust="spacing" textLength="35" x="1590.5" y="931.7717">posix</text><!--MD5=[6e04307d27c2c0e0e73f4ec182e43def]
entity newtype--><rect fill="#FFFF00" filter="url(#f1fides0ms7ao0)" height="68.1358" style="stroke:#A80036;stroke-width:1.5;" width="125" x="2110.5" y="706.7378"/><rect fill="#FFFF00" height="10" style="stroke:#A80036;stroke-width:1.5;" width="15" x="2215.5" y="711.7378"/><rect fill="#FFFF00" height="2" style="stroke:#A80036;stroke-width:1.5;" width="4" x="2213.5" y="713.7378"/><rect fill="#FFFF00" height="2" style="stroke:#A80036;stroke-width:1.5;" width="4" x="2213.5" y="717.7378"/><text fill="#000000" font-family="sans-serif" font-size="14" font-style="italic" lengthAdjust="spacing" textLength="85" x="2125.5" y="741.7038">«namespace»</text><text fill="#000000" font-family="sans-serif" font-size="14" lengthAdjust="spacing" textLength="57" x="2139.5" y="760.7717">newtype</text><!--MD5=[01dbf0ecbd7384941a03b03e119fcbdd]
entity set--><rect fill="#FFFF00" filter="url(#f1fides0ms7ao0)" height="68.1358" style="stroke:#A80036;stroke-width:1.5;" width="125" x="2270.5" y="706.7378"/><rect fill="#FFFF00" height="10" style="stroke:#A80036;stroke-width:1.5;" width="15" x="2375.5" y="711.7378"/><rect fill="#FFFF00" height="2" style="stroke:#A80036;stroke-width:1.5;" width="4" x="2373.5" y="713.7378"/><rect fill="#FFFF00" height="2" style="stroke:#A80036;stroke-width:1.5;" width="4" x="2373.5" y="717.7378"/><text fill="#000000" font-family="sans-serif" font-size="14" font-style="italic" lengthAdjust="spacing" textLength="85" x="2285.5" y="741.7038">«namespace»</text><text fill="#000000" font-family="sans-serif" font-size="14" lengthAdjust="spacing" textLength="20" x="2318" y="760.7717">set</text><!--MD5=[ad1b6dc57716247de80283970c4ee265]
entity algorithm--><rect fill="#FFFF00" filter="url(#f1fides0ms7ao0)" height="68.1358" style="stroke:#A80036;stroke-width:1.5;" width="125" x="2110.5" y="877.7378"/><rect fill="#FFFF00" height="10" style="stroke:#A80036;stroke-width:1.5;" width="15" x="2215.5" y="882.7378"/><rect fill="#FFFF00" height="2" style="stroke:#A80036;stroke-width:1.5;" width="4" x="2213.5" y="884.7378"/><rect fill="#FFFF00" height="2" style="stroke:#A80036;stroke-width:1.5;" width="4" x="2213.5" y="888.7378"/><text fill="#000000" font-family="sans-serif" font-size="14" font-style="italic" lengthAdjust="spacing" textLength="85" x="2125.5" y="912.7038">«namespace»</text><text fill="#000000" font-family="sans-serif" font-size="14" lengthAdjust="spacing" textLength="66" x="2135" y="931.7717">algorithm</text><!--MD5=[963fb1ac2687aab13b570b0cd76338eb]
entity ffbb--><rect fill="#FFFF00" filter="url(#f1fides0ms7ao0)" height="68.1358" style="stroke:#A80036;stroke-width:1.5;" width="125" x="1928.5" y="706.7378"/><rect fill="#FFFF00" height="10" style="stroke:#A80036;stroke-width:1.5;" width="15" x="2033.5" y="711.7378"/><rect fill="#FFFF00" height="2" style="stroke:#A80036;stroke-width:1.5;" width="4" x="2031.5" y="713.7378"/><rect fill="#FFFF00" height="2" style="stroke:#A80036;stroke-width:1.5;" width="4" x="2031.5" y="717.7378"/><text fill="#000000" font-family="sans-serif" font-size="14" font-style="italic" lengthAdjust="spacing" textLength="85" x="1943.5" y="741.7038">«namespace»</text><text fill="#000000" font-family="sans-serif" font-size="14" lengthAdjust="spacing" textLength="28" x="1972" y="760.7717">ffbb</text><!--MD5=[02615e27588e6842f1f6d6ca220ff1eb]
entity duration_literals--><rect fill="#FFFF00" filter="url(#f1fides0ms7ao0)" height="68.1358" style="stroke:#A80036;stroke-width:1.5;" width="150" x="1722" y="706.7378"/><rect fill="#FFFF00" height="10" style="stroke:#A80036;stroke-width:1.5;" width="15" x="1852" y="711.7378"/><rect fill="#FFFF00" height="2" style="stroke:#A80036;stroke-width:1.5;" width="4" x="1850" y="713.7378"/><rect fill="#FFFF00" height="2" style="stroke:#A80036;stroke-width:1.5;" width="4" x="1850" y="717.7378"/><text fill="#000000" font-family="sans-serif" font-size="14" font-style="italic" lengthAdjust="spacing" textLength="85" x="1749.5" y="741.7038">«namespace»</text><text fill="#000000" font-family="sans-serif" font-size="14" lengthAdjust="spacing" textLength="110" x="1737" y="760.7717">duration_literals</text><!--MD5=[477a64901edc741ec91a401c96bc08f2]
entity popo--><rect fill="#FFFF00" filter="url(#f1fides0ms7ao0)" height="68.1358" style="stroke:#A80036;stroke-width:1.5;" width="125" x="792.5" y="406.7378"/><rect fill="#FFFF00" height="10" style="stroke:#A80036;stroke-width:1.5;" width="15" x="897.5" y="411.7378"/><rect fill="#FFFF00" height="2" style="stroke:#A80036;stroke-width:1.5;" width="4" x="895.5" y="413.7378"/><rect fill="#FFFF00" height="2" style="stroke:#A80036;stroke-width:1.5;" width="4" x="895.5" y="417.7378"/><text fill="#000000" font-family="sans-serif" font-size="14" font-style="italic" lengthAdjust="spacing" textLength="85" x="807.5" y="441.7038">«namespace»</text><text fill="#000000" font-family="sans-serif" font-size="14" lengthAdjust="spacing" textLength="34" x="833" y="460.7717">popo</text><!--MD5=[ba5cc415984907cdd9d4abcea172ca01]
entity capro--><rect fill="#FFFF00" filter="url(#f1fides0ms7ao0)" height="68.1358" style="stroke:#A80036;stroke-width:1.5;" width="125" x="952.5" y="406.7378"/><rect fill="#FFFF00" height="10" style="stroke:#A80036;stroke-width:1.5;" width="15" x="1057.5" y="411.7378"/><rect fill="#FFFF00" height="2" style="stroke:#A80036;stroke-width:1.5;" width="4" x="1055.5" y="413.7378"/><rect fill="#FFFF00" height="2" style="stroke:#A80036;stroke-width:1.5;" width="4" x="1055.5" y="417.7378"/><text fill="#000000" font-family="sans-serif" font-size="14" font-style="italic" lengthAdjust="spacing" textLength="85" x="967.5" y="441.7038">«namespace»</text><text fill="#000000" font-family="sans-serif" font-size="14" lengthAdjust="spacing" textLength="38" x="991" y="460.7717">capro</text><!--MD5=[09f98eabc58f714e0f010bacf40ca87c]
entity mepoo--><rect fill="#FFFF00" filter="url(#f1fides0ms7ao0)" height="68.1358" style="stroke:#A80036;stroke-width:1.5;" width="125" x="1112.5" y="406.7378"/><rect fill="#FFFF00" height="10" style="stroke:#A80036;stroke-width:1.5;" width="15" x="1217.5" y="411.7378"/><rect fill="#FFFF00" height="2" style="stroke:#A80036;stroke-width:1.5;" width="4" x="1215.5" y="413.7378"/><rect fill="#FFFF00" height="2" style="stroke:#A80036;stroke-width:1.5;" width="4" x="1215.5" y="417.7378"/><text fill="#000000" font-family="sans-serif" font-size="14" font-style="italic" lengthAdjust="spacing" textLength="85" x="1127.5" y="441.7038">«namespace»</text><text fill="#000000" font-family="sans-serif" font-size="14" lengthAdjust="spacing" textLength="46" x="1147" y="460.7717">mepoo</text><!--MD5=[eed5921adeb5106d45e8647997b5fa68]
entity version--><rect fill="#FFFF00" filter="url(#f1fides0ms7ao0)" height="68.1358" style="stroke:#A80036;stroke-width:1.5;" width="125" x="792.5" y="706.7378"/><rect fill="#FFFF00" height="10" style="stroke:#A80036;stroke-width:1.5;" width="15" x="897.5" y="711.7378"/><rect fill="#FFFF00" height="2" style="stroke:#A80036;stroke-width:1.5;" width="4" x="895.5" y="713.7378"/><rect fill="#FFFF00" height="2" style="stroke:#A80036;stroke-width:1.5;" width="4" x="895.5" y="717.7378"/><text fill="#000000" font-family="sans-serif" font-size="14" font-style="italic" lengthAdjust="spacing" textLength="85" x="807.5" y="741.7038">«namespace»</text><text fill="#000000" font-family="sans-serif" font-size="14" lengthAdjust="spacing" textLength="49" x="825.5" y="760.7717">version</text><!--MD5=[11fa01443fe50a6a26e5f9d4ef816fb0]
entity build--><rect fill="#FFFF00" filter="url(#f1fides0ms7ao0)" height="68.1358" style="stroke:#A80036;stroke-width:1.5;" width="125" x="952.5" y="706.7378"/><rect fill="#FFFF00" height="10" style="stroke:#A80036;stroke-width:1.5;" width="15" x="1057.5" y="711.7378"/><rect fill="#FFFF00" height="2" style="stroke:#A80036;stroke-width:1.5;" width="4" x="1055.5" y="713.7378"/><rect fill="#FFFF00" height="2" style="stroke:#A80036;stroke-width:1.5;" width="4" x="1055.5" y="717.7378"/><text fill="#000000" font-family="sans-serif" font-size="14" font-style="italic" lengthAdjust="spacing" textLength="85" x="967.5" y="741.7038">«namespace»</text><text fill="#000000" font-family="sans-serif" font-size="14" lengthAdjust="spacing" textLength="35" x="992.5" y="760.7717">build</text><!--MD5=[6857f13236cb144e56befd21da1781a5]
entity runtime--><rect fill="#FFFF00" filter="url(#f1fides0ms7ao0)" height="68.1358" style="stroke:#A80036;stroke-width:1.5;" width="125" x="610.5" y="406.7378"/><rect fill="#FFFF00" height="10" style="stroke:#A80036;stroke-width:1.5;" width="15" x="715.5" y="411.7378"/><rect fill="#FFFF00" height="2" style="stroke:#A80036;stroke-width:1.5;" width="4" x="713.5" y="413.7378"/><rect fill="#FFFF00" height="2" style="stroke:#A80036;stroke-width:1.5;" width="4" x="713.5" y="417.7378"/><text fill="#000000" font-family="sans-serif" font-size="14" font-style="italic" lengthAdjust="spacing" textLength="85" x="625.5" y="441.7038">«namespace»</text><text fill="#000000" font-family="sans-serif" font-size="14" lengthAdjust="spacing" textLength="54" x="641" y="460.7717">runtime</text><!--MD5=[5f97cdfbafef6a5cbddfbf6bdd3803d1]
entity gw--><rect fill="#FFFF00" filter="url(#f1fides0ms7ao0)" height="68.1358" style="stroke:#A80036;stroke-width:1.5;" width="125" x="428.5" y="406.7378"/><rect fill="#FFFF00" height="10" style="stroke:#A80036;stroke-width:1.5;" width="15" x="533.5" y="411.7378"/><rect fill="#FFFF00" height="2" style="stroke:#A80036;stroke-width:1.5;" width="4" x="531.5" y="413.7378"/><rect fill="#FFFF00" height="2" style="stroke:#A80036;stroke-width:1.5;" width="4" x="531.5" y="417.7378"/><text fill="#000000" font-family="sans-serif" font-size="14" font-style="italic" lengthAdjust="spacing" textLength="85" x="443.5" y="441.7038">«namespace»</text><text fill="#000000" font-family="sans-serif" font-size="14" lengthAdjust="spacing" textLength="20" x="476" y="460.7717">gw</text><!--MD5=[caf660ac2a54b55a5c31b5515889e628]
entity config--><rect fill="#FFFF00" filter="url(#f1fides0ms7ao0)" height="68.1358" style="stroke:#A80036;stroke-width:1.5;" width="125" x="246.5" y="406.7378"/><rect fill="#FFFF00" height="10" style="stroke:#A80036;stroke-width:1.5;" width="15" x="351.5" y="411.7378"/><rect fill="#FFFF00" height="2" style="stroke:#A80036;stroke-width:1.5;" width="4" x="349.5" y="413.7378"/><rect fill="#FFFF00" height="2" style="stroke:#A80036;stroke-width:1.5;" width="4" x="349.5" y="417.7378"/><text fill="#000000" font-family="sans-serif" font-size="14" font-style="italic" lengthAdjust="spacing" textLength="85" x="261.5" y="441.7038">«namespace»</text><text fill="#000000" font-family="sans-serif" font-size="14" lengthAdjust="spacing" textLength="42" x="283" y="460.7717">config</text><!--MD5=[f73e6e01beb5fef5d3e1c08b5afdf415]
entity roudi--><rect fill="#FFFF00" filter="url(#f1fides0ms7ao0)" height="68.1358" style="stroke:#A80036;stroke-width:1.5;" width="125" x="64.5" y="406.7378"/><rect fill="#FFFF00" height="10" style="stroke:#A80036;stroke-width:1.5;" width="15" x="169.5" y="411.7378"/><rect fill="#FFFF00" height="2" style="stroke:#A80036;stroke-width:1.5;" width="4" x="167.5" y="413.7378"/><rect fill="#FFFF00" height="2" style="stroke:#A80036;stroke-width:1.5;" width="4" x="167.5" y="417.7378"/><text fill="#000000" font-family="sans-serif" font-size="14" font-style="italic" lengthAdjust="spacing" textLength="85" x="79.5" y="441.7038">«namespace»</text><text fill="#000000" font-family="sans-serif" font-size="14" lengthAdjust="spacing" textLength="36" x="104" y="460.7717">roudi</text><!--MD5=[4617e0b67180f9dd16cbedc18db55043]
entity dds--><rect fill="#FFFF00" filter="url(#f1fides0ms7ao0)" height="68.1358" style="stroke:#A80036;stroke-width:1.5;" width="125" x="1088.5" y="147.7378"/><rect fill="#FFFF00" height="10" style="stroke:#A80036;stroke-width:1.5;" width="15" x="1193.5" y="152.7378"/><rect fill="#FFFF00" height="2" style="stroke:#A80036;stroke-width:1.5;" width="4" x="1191.5" y="154.7378"/><rect fill="#FFFF00" height="2" style="stroke:#A80036;stroke-width:1.5;" width="4" x="1191.5" y="158.7378"/><text fill="#000000" font-family="sans-serif" font-size="14" font-style="italic" lengthAdjust="spacing" textLength="85" x="1103.5" y="182.7038">«namespace»</text><text fill="#000000" font-family="sans-serif" font-size="14" lengthAdjust="spacing" textLength="25" x="1133.5" y="201.7717">dds</text><!--MD5=[b74312c72fa74392e6ee98a94ff43660]
entity gateway_dds--><rect fill="#FFFF00" filter="url(#f1fides0ms7ao0)" height="68.1358" style="stroke:#A80036;stroke-width:1.5;" width="125" x="928.5" y="147.7378"/><rect fill="#FFFF00" height="10" style="stroke:#A80036;stroke-width:1.5;" width="15" x="1033.5" y="152.7378"/><rect fill="#FFFF00" height="2" style="stroke:#A80036;stroke-width:1.5;" width="4" x="1031.5" y="154.7378"/><rect fill="#FFFF00" height="2" style="stroke:#A80036;stroke-width:1.5;" width="4" x="1031.5" y="158.7378"/><text fill="#000000" font-family="sans-serif" font-size="14" font-style="italic" lengthAdjust="spacing" textLength="85" x="943.5" y="182.7038">«namespace»</text><text fill="#000000" font-family="sans-serif" font-size="14" lengthAdjust="spacing" textLength="20" x="976" y="201.7717">gw</text><!--MD5=[fc4286d0b2a052e711aae933c9ad3727]
entity cpp2c--><rect fill="#FFFF00" filter="url(#f1fides0ms7ao0)" height="68.1358" style="stroke:#A80036;stroke-width:1.5;" width="125" x="1481.5" y="147.7378"/><rect fill="#FFFF00" height="10" style="stroke:#A80036;stroke-width:1.5;" width="15" x="1586.5" y="152.7378"/><rect fill="#FFFF00" height="2" style="stroke:#A80036;stroke-width:1.5;" width="4" x="1584.5" y="154.7378"/><rect fill="#FFFF00" height="2" style="stroke:#A80036;stroke-width:1.5;" width="4" x="1584.5" y="158.7378"/><text fill="#000000" font-family="sans-serif" font-size="14" font-style="italic" lengthAdjust="spacing" textLength="85" x="1496.5" y="182.7038">«namespace»</text><text fill="#000000" font-family="sans-serif" font-size="14" lengthAdjust="spacing" textLength="40" x="1519" y="201.7717">cpp2c</text><!--MD5=[e16426ebbb4af2a750e421465750c76a]
entity c2cpp--><rect fill="#FFFF00" filter="url(#f1fides0ms7ao0)" height="68.1358" style="stroke:#A80036;stroke-width:1.5;" width="125" x="1321.5" y="147.7378"/><rect fill="#FFFF00" height="10" style="stroke:#A80036;stroke-width:1.5;" width="15" x="1426.5" y="152.7378"/><rect fill="#FFFF00" height="2" style="stroke:#A80036;stroke-width:1.5;" width="4" x="1424.5" y="154.7378"/><rect fill="#FFFF00" height="2" style="stroke:#A80036;stroke-width:1.5;" width="4" x="1424.5" y="158.7378"/><text fill="#000000" font-family="sans-serif" font-size="14" font-style="italic" lengthAdjust="spacing" textLength="85" x="1336.5" y="182.7038">«namespace»</text><text fill="#000000" font-family="sans-serif" font-size="14" lengthAdjust="spacing" textLength="40" x="1359" y="201.7717">c2cpp</text><!--MD5=[38dbeb4b243ea6dae1c7e5b7ff87398b]
entity introspection--><rect fill="#FFFF00" filter="url(#f1fides0ms7ao0)" height="68.1358" style="stroke:#A80036;stroke-width:1.5;" width="129" x="1703.5" y="147.7378"/><rect fill="#FFFF00" height="10" style="stroke:#A80036;stroke-width:1.5;" width="15" x="1812.5" y="152.7378"/><rect fill="#FFFF00" height="2" style="stroke:#A80036;stroke-width:1.5;" width="4" x="1810.5" y="154.7378"/><rect fill="#FFFF00" height="2" style="stroke:#A80036;stroke-width:1.5;" width="4" x="1810.5" y="158.7378"/><text fill="#000000" font-family="sans-serif" font-size="14" font-style="italic" lengthAdjust="spacing" textLength="85" x="1720.5" y="182.7038">«namespace»</text><text fill="#000000" font-family="sans-serif" font-size="14" lengthAdjust="spacing" textLength="89" x="1718.5" y="201.7717">introspection</text><!--MD5=[c6bc123b88581d7893511edbb3afda00]
link iceoryx_posh to iceoryx_hoofs--><path d="M1294.0369,484.5146 C1294.3498,486.1798 1294.6696,487.8818 1294.9959,489.6186 C1300.2175,517.4069 1307.1087,554.0784 1314,590.7491 C1320.8913,627.4197 1327.7825,664.0894 1333.0041,691.8739 C1333.3304,693.6104 1333.6502,695.3123 1333.9631,696.9772 " fill="none" id="iceoryx_posh-to-iceoryx_hoofs" style="stroke:#A80036;stroke-width:1.0;stroke-dasharray:7.0,7.0;"/><polygon fill="#A80036" points="1333.9631,696.9772,1336.232,687.3933,1333.0396,692.0632,1328.3697,688.8708,1333.9631,696.9772" style="stroke:#A80036;stroke-width:1.0;"/><text fill="#000000" font-family="sans-serif" font-size="13" lengthAdjust="spacing" textLength="21" x="1302" y="521.6348">use</text><!--MD5=[923ab2d2a35521c01aa04bd91104d3ef]
link iceoryx_dds to iceoryx_posh--><path d="M897.0503,240.0135 C897.2313,240.5447 897.4181,241.0737 897.6108,241.6003 C900.6931,250.0259 905.275,257.8253 912,263.7378 C1026.75,364.6278 1139.61,197.4378 1254,298.7378 C1256.96,301.3591 1259.6769,304.1915 1262.1694,307.1992 C1263.4157,308.703 1264.6059,310.2507 1265.7423,311.8377 C1266.3105,312.6312 1266.8653,313.4345 1267.4069,314.2471 " fill="none" id="iceoryx_dds-to-iceoryx_posh" style="stroke:#A80036;stroke-width:1.0;stroke-dasharray:7.0,7.0;"/><polygon fill="#A80036" points="1267.4069,314.2471,1265.7437,304.5397,1264.6338,310.0866,1259.0869,308.9767,1267.4069,314.2471" style="stroke:#A80036;stroke-width:1.0;"/><text fill="#000000" font-family="sans-serif" font-size="13" lengthAdjust="spacing" textLength="21" x="1241" y="286.6348">use</text><!--MD5=[ef085833380be4e9d63cc0e4596daa95]
link iceoryx_binding_c to iceoryx_posh--><path d="M1286,240.7813 C1286,241.6234 1286,242.4714 1286,243.3251 C1286,250.154 1286,257.3421 1286,264.7696 C1286,279.6245 1286,295.4369 1286,311.2491 C1286,312.2373 1286,313.2256 1286,314.2136 " fill="none" id="iceoryx_binding_c-to-iceoryx_posh" style="stroke:#A80036;stroke-width:1.0;stroke-dasharray:7.0,7.0;"/><polygon fill="#A80036" points="1286,314.2136,1290,305.2136,1286,309.2136,1282,305.2136,1286,314.2136" style="stroke:#A80036;stroke-width:1.0;"/><text fill="#000000" font-family="sans-serif" font-size="13" lengthAdjust="spacing" textLength="21" x="1287" y="286.6348">use</text><!--MD5=[4b8aab564a453d286cf375876300a066]
link introspection to iceoryx_posh--><path d="M1709.65,215.8278 C1683.28,230.6478 1651.67,248.2478 1623,263.7378 C1549.83,303.2728 1467.05,346.5253 1401.845,380.2591 C1369.2425,397.1259 1341.0338,411.6131 1320.6169,422.0661 C1310.4084,427.2926 1302.148,431.5105 1296.2602,434.5131 C1295.5243,434.8884 1294.8254,435.2447 1294.1644,435.5817 " fill="none" id="introspection-to-iceoryx_posh" style="stroke:#A80036;stroke-width:1.0;stroke-dasharray:7.0,7.0;"/><polygon fill="#A80036" points="1294.1644,435.5817,1303.9993,435.0581,1298.619,433.3109,1300.3662,427.9306,1294.1644,435.5817" style="stroke:#A80036;stroke-width:1.0;"/><text fill="#000000" font-family="sans-serif" font-size="13" lengthAdjust="spacing" textLength="21" x="1605" y="286.6348">use</text><!--MD5=[6ee88ec5bb08a8f80fef382bcd89ab2a]
link concurrent to DesignPattern--><!--MD5=[7145daca522e1efb54063cc7aa38c07a]
link concurrent to errors--><!--MD5=[4218ed6aaceaf698e1509a8b8c7331dd]
link errors to posix--><!--MD5=[ad6e6e5a7cf711b8afeea2c3ceffa3b6]
link newtype to set--><!--MD5=[a8e109713a8745e1bfd03a8f989edc95]
link newtype to algorithm--><!--MD5=[4f791f3a16e89c6f7a776d127bc56767]
link popo to capro--><!--MD5=[ba7497340c31a8eaf849912da58dc6c5]
link capro to mepoo--><!--MD5=[978295f2acd8e12b6cc29277143f7468]
link popo to version--><!--MD5=[bbfd15eccc194e184bc66a7fb4fec50c]
link version to build--></g></svg>