<?xml version="1.0" encoding="UTF-8" standalone="no"?><svg xmlns="http://www.w3.org/2000/svg" xmlns:xlink="http://www.w3.org/1999/xlink" contentScriptType="application/ecmascript" contentStyleType="text/css" height="408px" preserveAspectRatio="none" style="width:1007px;height:408px;background:#EEEBDC;" version="1.1" viewBox="0 0 1007 408" width="1007px" zoomAndPan="magnify"><defs><filter height="300%" id="f18ey02a78uejz" width="300%" x="-1" y="-1"><feGaussianBlur result="blurOut" stdDeviation="2.0"/><feColorMatrix in="blurOut" result="blurOut2" type="matrix" values="0 0 0 0 0 0 0 0 0 0 0 0 0 0 0 0 0 0 .4 0"/><feOffset dx="4.0" dy="4.0" in="blurOut2" result="blurOut3"/><feBlend in="SourceGraphic" in2="blurOut3" mode="normal"/></filter></defs><g><!--MD5=[81da3b3e20e7b00bc69cac0acd70a916]
entity Iceoryx_Contributor--><ellipse cx="272.5" cy="170" fill="#FEFECE" filter="url(#f18ey02a78uejz)" rx="8" ry="8" style="stroke:#A80036;stroke-width:1.5;"/><path d="M272.5,178 L272.5,205 M259.5,186 L285.5,186 M272.5,205 L259.5,220 M272.5,205 L285.5,220 " fill="none" filter="url(#f18ey02a78uejz)" style="stroke:#A80036;stroke-width:1.5;"/><text fill="#000000" font-family="sans-serif" font-size="14" lengthAdjust="spacing" textLength="132" x="206.5" y="240.4659">Iceoryx_Contributor</text><ellipse cx="797.526" cy="36.5052" fill="#FEFECE" filter="url(#f18ey02a78uejz)" rx="140.526" ry="30.5052" style="stroke:#A80036;stroke-width:1.5;"/><text fill="#000000" font-family="sans-serif" font-size="14" lengthAdjust="spacing" textLength="246" x="674.526" y="39.9372">1. Create Diagram in PlanUML Editor</text><ellipse cx="797.4038" cy="144.5808" fill="#FEFECE" filter="url(#f18ey02a78uejz)" rx="198.4038" ry="42.0808" style="stroke:#A80036;stroke-width:1.5;"/><text fill="#000000" font-family="sans-serif" font-size="14" lengthAdjust="spacing" textLength="367" x="613.9038" y="148.0127">2. Save it as new .puml file in iceoryx/doc/design/puml</text><ellipse cx="797.3941" cy="260.6788" fill="#FEFECE" filter="url(#f18ey02a78uejz)" rx="183.8941" ry="39.1788" style="stroke:#A80036;stroke-width:1.5;"/><text fill="#000000" font-family="sans-serif" font-size="14" lengthAdjust="spacing" textLength="337" x="628.8941" y="264.1108">3. Export svg files via script in iceoryx/tools/ folder</text><ellipse cx="797.526" cy="365.5052" fill="#FEFECE" filter="url(#f18ey02a78uejz)" rx="140.526" ry="30.5052" style="stroke:#A80036;stroke-width:1.5;"/><text fill="#000000" font-family="sans-serif" font-size="14" lengthAdjust="spacing" textLength="246" x="674.526" y="368.9372">4. Create a Link in the Markdown file</text><path d="M6,344 L6,386.8388 A0,0 0 0 0 6,386.8388 L539,386.8388 A0,0 0 0 0 539,386.8388 L539,369.5 L656.88,365.5 L539,361.5 L539,354 L529,344 L6,344 A0,0 0 0 0 6,344 " fill="#FBFB77" filter="url(#f18ey02a78uejz)" style="stroke:#A80036;stroke-width:1.0;"/><path d="M529,344 L529,354 L539,354 L529,344 " fill="#FBFB77" style="stroke:#A80036;stroke-width:1.0;"/><text fill="#000000" font-family="sans-serif" font-size="13" lengthAdjust="spacing" textLength="428" x="12" y="362.897">The following snippet can be used to link against a svg file in markdown:</text><text fill="#000000" font-family="monospace" font-size="13" lengthAdjust="spacing" textLength="512" x="12" y="378.7729">![your image description](puml/your_exported_vector_graphic.svg)</text><!--MD5=[cffcf64586dbaf06f9e757fc961fa4f4]
link Iceoryx_Contributor to 1. Create Diagram in PlanUML Editor--><path d="M338.57,176.53 C403.77,151.07 507.36,112.16 599,84.5 C629.38,75.33 662.79,66.68 693.36,59.31 " fill="none" id="Iceoryx_Contributor-to-1. Create Diagram in PlanUML Editor" style="stroke:#A80036;stroke-width:1.0;"/><polygon fill="#A80036" points="698.24,58.14,688.558,56.3346,693.3761,59.2987,690.412,64.1168,698.24,58.14" style="stroke:#A80036;stroke-width:1.0;"/><!--MD5=[66be488fc23afe3f548d0b8c15b84b21]
link Iceoryx_Contributor to 2. Save it as new .puml file in iceoryx/doc/design/puml--><path d="M338.68,195.27 C407.82,187.6 520.1,175.15 616.16,164.5 " fill="none" id="Iceoryx_Contributor-to-2. Save it as new .puml file in iceoryx/doc/design/puml" style="stroke:#A80036;stroke-width:1.0;"/><polygon fill="#A80036" points="621.3,163.93,611.919,160.9306,616.3295,164.4728,612.7874,168.8833,621.3,163.93" style="stroke:#A80036;stroke-width:1.0;"/><!--MD5=[1ac9b40cf3804c630c51fcdb01346d0e]
link Iceoryx_Contributor to 3. Export svg files via script in iceoryx/tools/ folder--><path d="M338.68,209.73 C410.98,217.75 530.47,231 629.25,241.95 " fill="none" id="Iceoryx_Contributor-to-3. Export svg files via script in iceoryx/tools/ folder" style="stroke:#A80036;stroke-width:1.0;"/><polygon fill="#A80036" points="634.23,242.5,625.7174,237.5467,629.2595,241.9572,624.849,245.4994,634.23,242.5" style="stroke:#A80036;stroke-width:1.0;"/><!--MD5=[e154aaa7bd506ad5aa98a2cb54109de2]
link Iceoryx_Contributor to 4. Create a Link in the Markdown file--><path d="M338.63,227.71 C403.89,252.44 507.51,290.3 599,317.5 C629.5,326.57 663.02,335.2 693.64,342.59 " fill="none" id="Iceoryx_Contributor-to-4. Create a Link in the Markdown file" style="stroke:#A80036;stroke-width:1.0;"/><polygon fill="#A80036" points="698.53,343.76,690.7147,337.7666,693.6686,342.591,688.8442,345.5449,698.53,343.76" style="stroke:#A80036;stroke-width:1.0;"/></g></svg>