<?xml version="1.0" encoding="UTF-8" standalone="no"?><svg xmlns="http://www.w3.org/2000/svg" xmlns:xlink="http://www.w3.org/1999/xlink" contentScriptType="application/ecmascript" contentStyleType="text/css" height="405px" preserveAspectRatio="none" style="width:1007px;height:405px;background:#EEEBDC;" version="1.1" viewBox="0 0 1007 405" width="1007px" zoomAndPan="magnify"><defs><filter height="300%" id="f18ey02a78uejz" width="300%" x="-1" y="-1"><feGaussianBlur result="blurOut" stdDeviation="2.0"/><feColorMatrix in="blurOut" result="blurOut2" type="matrix" values="0 0 0 0 0 0 0 0 0 0 0 0 0 0 0 0 0 0 .4 0"/><feOffset dx="4.0" dy="4.0" in="blurOut2" result="blurOut3"/><feBlend in="SourceGraphic" in2="blurOut3" mode="normal"/></filter></defs><g><!--MD5=[81da3b3e20e7b00bc69cac0acd70a916]
entity Iceoryx_Contributor--><ellipse cx="272.5" cy="170" fill="#FEFECE" filter="url(#f18ey02a78uejz)" rx="8" ry="8" style="stroke:#A80036;stroke-width:1.5;"/><path d="M272.5,178 L272.5,205 M259.5,186 L285.5,186 M272.5,205 L259.5,220 M272.5,205 L285.5,220 " fill="none" filter="url(#f18ey02a78uejz)" style="stroke:#A80036;stroke-width:1.5;"/><text fill="#000000" font-family="sans-serif" font-size="14" lengthAdjust="spacing" textLength="133" x="206" y="238.4951">Iceoryx_Contributor</text><ellipse cx="797.2809" cy="36.0562" fill="#FEFECE" filter="url(#f18ey02a78uejz)" rx="138.2809" ry="30.0562" style="stroke:#A80036;stroke-width:1.5;"/><text fill="#000000" font-family="sans-serif" font-size="14" lengthAdjust="spacing" textLength="246" x="674.2809" y="38.9029">1. Create Diagram in PlanUML Editor</text><ellipse cx="797.297" cy="143.0594" fill="#FEFECE" filter="url(#f18ey02a78uejz)" rx="198.297" ry="42.0594" style="stroke:#A80036;stroke-width:1.5;"/><text fill="#000000" font-family="sans-serif" font-size="14" lengthAdjust="spacing" textLength="370" x="612.297" y="145.9061">2. Save it as new .puml file in iceoryx/doc/design/puml</text><ellipse cx="797.6671" cy="259.0334" fill="#FEFECE" filter="url(#f18ey02a78uejz)" rx="183.1671" ry="39.0334" style="stroke:#A80036;stroke-width:1.5;"/><text fill="#000000" font-family="sans-serif" font-size="14" lengthAdjust="spacing" textLength="339" x="628.1671" y="261.8801">3. Export svg files via script in iceoryx/tools/ folder</text><ellipse cx="797.2578" cy="363.1516" fill="#FEFECE" filter="url(#f18ey02a78uejz)" rx="138.7578" ry="30.1516" style="stroke:#A80036;stroke-width:1.5;"/><text fill="#000000" font-family="sans-serif" font-size="14" lengthAdjust="spacing" textLength="247" x="673.7578" y="365.9982">4. Create a Link in the Markdown file</text><path d="M6,343 L6,383.2656 A0,0 0 0 0 6,383.2656 L539,383.2656 A0,0 0 0 0 539,383.2656 L539,367 L658.23,363 L539,359 L539,353 L529,343 L6,343 A0,0 0 0 0 6,343 " fill="#FBFB77" filter="url(#f18ey02a78uejz)" style="stroke:#A80036;stroke-width:1.0;"/><path d="M529,343 L529,353 L539,353 L529,343 " fill="#FBFB77" style="stroke:#A80036;stroke-width:1.0;"/><text fill="#000000" font-family="sans-serif" font-size="13" lengthAdjust="spacing" textLength="456" x="12" y="360.0669">The following snippet can be used to link against a svg file in markdown:</text><text fill="#000000" font-family="monospace" font-size="13" lengthAdjust="spacing" textLength="512" x="12" y="375.1997">![your image description](puml/your_exported_vector_graphic.svg)</text><!--MD5=[cffcf64586dbaf06f9e757fc961fa4f4]
link Iceoryx_Contributor to 1. Create Diagram in PlanUML Editor--><path d="M339.15,174.69 C404.37,149.16 507.58,110.35 599,83 C629.45,73.89 662.95,65.37 693.58,58.15 " fill="none" id="Iceoryx_Contributor-to-1. Create Diagram in PlanUML Editor" style="stroke:#A80036;stroke-width:1.0;"/><polygon fill="#A80036" points="698.47,57,688.7931,55.1677,693.6029,58.1452,690.6254,62.955,698.47,57" style="stroke:#A80036;stroke-width:1.0;"/><!--MD5=[66be488fc23afe3f548d0b8c15b84b21]
link Iceoryx_Contributor to 2. Save it as new .puml file in iceoryx/doc/design/puml--><path d="M339.21,193.71 C408.41,186.04 520.41,173.62 616.25,162.99 " fill="none" id="Iceoryx_Contributor-to-2. Save it as new .puml file in iceoryx/doc/design/puml" style="stroke:#A80036;stroke-width:1.0;"/><polygon fill="#A80036" points="621.38,162.42,611.999,159.4206,616.4095,162.9628,612.8674,167.3733,621.38,162.42" style="stroke:#A80036;stroke-width:1.0;"/><!--MD5=[1ac9b40cf3804c630c51fcdb01346d0e]
link Iceoryx_Contributor to 3. Export svg files via script in iceoryx/tools/ folder--><path d="M339.21,208.29 C411.72,216.33 531.21,229.58 629.87,240.52 " fill="none" id="Iceoryx_Contributor-to-3. Export svg files via script in iceoryx/tools/ folder" style="stroke:#A80036;stroke-width:1.0;"/><polygon fill="#A80036" points="634.85,241.07,626.3374,236.1167,629.8795,240.5272,625.469,244.0694,634.85,241.07" style="stroke:#A80036;stroke-width:1.0;"/><!--MD5=[e154aaa7bd506ad5aa98a2cb54109de2]
link Iceoryx_Contributor to 4. Create a Link in the Markdown file--><path d="M339.22,226.53 C404.49,251.34 507.74,289.1 599,316 C629.49,324.99 663,333.47 693.63,340.7 " fill="none" id="Iceoryx_Contributor-to-4. Create a Link in the Markdown file" style="stroke:#A80036;stroke-width:1.0;"/><polygon fill="#A80036" points="698.52,341.85,690.6715,335.9001,693.6522,340.708,688.8443,343.6886,698.52,341.85" style="stroke:#A80036;stroke-width:1.0;"/></g></svg>