<?xml version="1.0" encoding="UTF-8" standalone="no"?><svg xmlns="http://www.w3.org/2000/svg" xmlns:xlink="http://www.w3.org/1999/xlink" contentScriptType="application/ecmascript" contentStyleType="text/css" height="408px" preserveAspectRatio="none" style="width:1007px;height:408px;background:#EEEBDC;" version="1.1" viewBox="0 0 1007 408" width="1007px" zoomAndPan="magnify"><defs><filter height="300%" id="f178mbr5kfr2qf" width="300%" x="-1" y="-1"><feGaussianBlur result="blurOut" stdDeviation="2.0"/><feColorMatrix in="blurOut" result="blurOut2" type="matrix" values="0 0 0 0 0 0 0 0 0 0 0 0 0 0 0 0 0 0 .4 0"/><feOffset dx="4.0" dy="4.0" in="blurOut2" result="blurOut3"/><feBlend in="SourceGraphic" in2="blurOut3" mode="normal"/></filter></defs><g><!--MD5=[81da3b3e20e7b00bc69cac0acd70a916]
entity Iceoryx_Contributor--><ellipse cx="272.5" cy="170.5" fill="#FEFECE" filter="url(#f178mbr5kfr2qf)" rx="8" ry="8" style="stroke:#A80036;stroke-width:1.5;"/><path d="M272.5,178.5 L272.5,205.5 M259.5,186.5 L285.5,186.5 M272.5,205.5 L259.5,220.5 M272.5,205.5 L285.5,220.5 " fill="none" filter="url(#f178mbr5kfr2qf)" style="stroke:#A80036;stroke-width:1.5;"/><text fill="#000000" font-family="sans-serif" font-size="14" lengthAdjust="spacing" textLength="132" x="206.5" y="240.9659">Iceoryx_Contributor</text><ellipse cx="797.3737" cy="36.9747" fill="#FEFECE" filter="url(#f178mbr5kfr2qf)" rx="142.8737" ry="30.9747" style="stroke:#A80036;stroke-width:1.5;"/><text fill="#000000" font-family="sans-serif" font-size="14" lengthAdjust="spacing" textLength="251" x="671.8737" y="40.4067">1. Create Diagram in PlantUML Editor</text><ellipse cx="797.4038" cy="145.0808" fill="#FEFECE" filter="url(#f178mbr5kfr2qf)" rx="198.4038" ry="42.0808" style="stroke:#A80036;stroke-width:1.5;"/><text fill="#000000" font-family="sans-serif" font-size="14" lengthAdjust="spacing" textLength="367" x="613.9038" y="148.5127">2. Save it as new .puml file in iceoryx/doc/design/puml</text><ellipse cx="797.3941" cy="261.1788" fill="#FEFECE" filter="url(#f178mbr5kfr2qf)" rx="183.8941" ry="39.1788" style="stroke:#A80036;stroke-width:1.5;"/><text fill="#000000" font-family="sans-serif" font-size="14" lengthAdjust="spacing" textLength="337" x="628.8941" y="264.6108">3. Export svg files via script in iceoryx/tools/ folder</text><ellipse cx="797.526" cy="366.0052" fill="#FEFECE" filter="url(#f178mbr5kfr2qf)" rx="140.526" ry="30.5052" style="stroke:#A80036;stroke-width:1.5;"/><text fill="#000000" font-family="sans-serif" font-size="14" lengthAdjust="spacing" textLength="246" x="674.526" y="369.4372">4. Create a Link in the Markdown file</text><path d="M6,344.5 L6,387.3388 A0,0 0 0 0 6,387.3388 L539,387.3388 A0,0 0 0 0 539,387.3388 L539,370 L656.88,366 L539,362 L539,354.5 L529,344.5 L6,344.5 A0,0 0 0 0 6,344.5 " fill="#FBFB77" filter="url(#f178mbr5kfr2qf)" style="stroke:#A80036;stroke-width:1.0;"/><path d="M529,344.5 L529,354.5 L539,354.5 L529,344.5 " fill="#FBFB77" style="stroke:#A80036;stroke-width:1.0;"/><text fill="#000000" font-family="sans-serif" font-size="13" lengthAdjust="spacing" textLength="428" x="12" y="363.397">The following snippet can be used to link against a svg file in markdown:</text><text fill="#000000" font-family="monospace" font-size="13" lengthAdjust="spacing" textLength="512" x="12" y="379.2729">![your image description](puml/your_exported_vector_graphic.svg)</text><!--MD5=[37e9297b1c28da29a116a925beadc54c]
link Iceoryx_Contributor to 1. Create Diagram in PlantUML Editor--><path d="M338.57,177.03 C403.77,151.57 507.36,112.66 599,85 C628.78,76.01 661.47,67.52 691.53,60.26 " fill="none" id="Iceoryx_Contributor-to-1. Create Diagram in PlantUML Editor" style="stroke:#A80036;stroke-width:1.0;"/><polygon fill="#A80036" points="696.72,59.01,687.0342,57.2251,691.8586,60.179,688.9047,65.0034,696.72,59.01" style="stroke:#A80036;stroke-width:1.0;"/><!--MD5=[66be488fc23afe3f548d0b8c15b84b21]
link Iceoryx_Contributor to 2. Save it as new .puml file in iceoryx/doc/design/puml--><path d="M338.68,195.77 C407.82,188.1 520.1,175.65 616.16,165 " fill="none" id="Iceoryx_Contributor-to-2. Save it as new .puml file in iceoryx/doc/design/puml" style="stroke:#A80036;stroke-width:1.0;"/><polygon fill="#A80036" points="621.3,164.43,611.919,161.4306,616.3295,164.9728,612.7874,169.3833,621.3,164.43" style="stroke:#A80036;stroke-width:1.0;"/><!--MD5=[1ac9b40cf3804c630c51fcdb01346d0e]
link Iceoryx_Contributor to 3. Export svg files via script in iceoryx/tools/ folder--><path d="M338.68,210.23 C410.98,218.25 530.47,231.5 629.25,242.45 " fill="none" id="Iceoryx_Contributor-to-3. Export svg files via script in iceoryx/tools/ folder" style="stroke:#A80036;stroke-width:1.0;"/><polygon fill="#A80036" points="634.23,243,625.7174,238.0467,629.2595,242.4572,624.849,245.9994,634.23,243" style="stroke:#A80036;stroke-width:1.0;"/><!--MD5=[e154aaa7bd506ad5aa98a2cb54109de2]
link Iceoryx_Contributor to 4. Create a Link in the Markdown file--><path d="M338.63,228.21 C403.89,252.94 507.51,290.8 599,318 C629.5,327.07 663.02,335.7 693.64,343.09 " fill="none" id="Iceoryx_Contributor-to-4. Create a Link in the Markdown file" style="stroke:#A80036;stroke-width:1.0;"/><polygon fill="#A80036" points="698.53,344.26,690.7147,338.2666,693.6686,343.091,688.8442,346.0449,698.53,344.26" style="stroke:#A80036;stroke-width:1.0;"/></g></svg>