<?xml version="1.0" encoding="UTF-8" standalone="no"?><svg xmlns="http://www.w3.org/2000/svg" xmlns:xlink="http://www.w3.org/1999/xlink" contentScriptType="application/ecmascript" contentStyleType="text/css" height="218px" preserveAspectRatio="none" style="width:459px;height:218px;background:#EEEBDC;" version="1.1" viewBox="0 0 459 218" width="459px" zoomAndPan="magnify"><defs><filter height="300%" id="fsev7j15k1npb" width="300%" x="-1" y="-1"><feGaussianBlur result="blurOut" stdDeviation="2.0"/><feColorMatrix in="blurOut" result="blurOut2" type="matrix" values="0 0 0 0 0 0 0 0 0 0 0 0 0 0 0 0 0 0 .4 0"/><feOffset dx="4.0" dy="4.0" in="blurOut2" result="blurOut3"/><feBlend in="SourceGraphic" in2="blurOut3" mode="normal"/></filter></defs><g><!--MD5=[ed6624c6556d5e7b1bd23032162d20b7]
class Client--><rect codeLine="3" fill="#FEFECE" filter="url(#fsev7j15k1npb)" height="182.837" id="Client" style="stroke:#A80036;stroke-width:1.5;" width="213" x="7" y="14.5"/><ellipse cx="93.25" cy="30.5" fill="#ADD1B2" rx="11" ry="11" style="stroke:#A80036;stroke-width:1.0;"/><path d="M93.0469,37.2344 Q90.5625,37.2344 89.2344,35.5938 Q87.9219,33.9219 87.9219,30.8125 Q87.9219,27.6875 89.2344,26.0313 Q90.5625,24.375 93.0469,24.375 Q93.7656,24.375 94.4219,24.5313 Q95.0625,24.6875 95.625,24.9844 L95.625,27.7031 Q95.2656,27.3594 94.9688,27.1719 Q94.6719,26.9688 94.4063,26.8438 Q94.0938,26.7031 93.7813,26.6406 Q93.4844,26.5781 93.1719,26.5781 Q91.8438,26.5781 91.1563,27.6406 Q90.4688,28.7344 90.4688,30.8125 Q90.4688,32.9063 91.1563,33.9688 Q91.8438,35.0469 93.1719,35.0469 Q93.8125,35.0469 94.4063,34.7656 Q94.7031,34.6406 94.9844,34.4531 Q95.2813,34.25 95.625,33.9219 L95.625,36.6406 Q95.0469,36.9375 94.4063,37.0938 Q93.7813,37.2344 93.0469,37.2344 Z " fill="#000000"/><text fill="#000000" font-family="sans-serif" font-size="12" lengthAdjust="spacing" textLength="32" x="113.75" y="35.156">Client</text><line style="stroke:#A80036;stroke-width:1.5;" x1="8" x2="219" y1="46.5" y2="46.5"/><line style="stroke:#A80036;stroke-width:1.5;" x1="8" x2="219" y1="54.5" y2="54.5"/><text fill="#000000" font-family="sans-serif" font-size="11" lengthAdjust="spacing" textLength="76" x="13" y="70.2589">connect(): void</text><text fill="#000000" font-family="sans-serif" font-size="11" lengthAdjust="spacing" textLength="91" x="13" y="85.2408">disconnect(): void</text><text fill="#000000" font-family="sans-serif" font-size="11" lengthAdjust="spacing" textLength="201" x="13" y="100.2227">getConnectionState(): ConnectionState</text><text fill="#000000" font-family="sans-serif" font-size="11" lengthAdjust="spacing" textLength="170" x="13" y="115.2046">loan(): expected&lt;Request, Error&gt;</text><text fill="#000000" font-family="sans-serif" font-size="11" lengthAdjust="spacing" textLength="148" x="13" y="130.1865">send(request: Request): void</text><text fill="#000000" font-family="sans-serif" font-size="11" lengthAdjust="spacing" textLength="109" x="13" y="145.1684">hasResponses(): bool</text><text fill="#000000" font-family="sans-serif" font-size="11" lengthAdjust="spacing" textLength="177" x="13" y="160.1502">take(): expected&lt;Response, Error&gt;</text><text fill="#000000" font-family="sans-serif" font-size="11" lengthAdjust="spacing" textLength="169" x="13" y="175.1321">releaseQueuedResponses(): void</text><text fill="#000000" font-family="sans-serif" font-size="11" lengthAdjust="spacing" textLength="145" x="13" y="190.114">hasMissedResponses(): bool</text><!--MD5=[c60af77fe5573b84a4aa4bce89659574]
class Server--><rect codeLine="15" fill="#FEFECE" filter="url(#fsev7j15k1npb)" height="197.8189" id="Server" style="stroke:#A80036;stroke-width:1.5;" width="190" x="255.5" y="7"/><ellipse cx="327.75" cy="23" fill="#ADD1B2" rx="11" ry="11" style="stroke:#A80036;stroke-width:1.0;"/><path d="M327.5469,29.7344 Q325.0625,29.7344 323.7344,28.0938 Q322.4219,26.4219 322.4219,23.3125 Q322.4219,20.1875 323.7344,18.5313 Q325.0625,16.875 327.5469,16.875 Q328.2656,16.875 328.9219,17.0313 Q329.5625,17.1875 330.125,17.4844 L330.125,20.2031 Q329.7656,19.8594 329.4688,19.6719 Q329.1719,19.4688 328.9063,19.3438 Q328.5938,19.2031 328.2813,19.1406 Q327.9844,19.0781 327.6719,19.0781 Q326.3438,19.0781 325.6563,20.1406 Q324.9688,21.2344 324.9688,23.3125 Q324.9688,25.4063 325.6563,26.4688 Q326.3438,27.5469 327.6719,27.5469 Q328.3125,27.5469 328.9063,27.2656 Q329.2031,27.1406 329.4844,26.9531 Q329.7813,26.75 330.125,26.4219 L330.125,29.1406 Q329.5469,29.4375 328.9063,29.5938 Q328.2813,29.7344 327.5469,29.7344 Z " fill="#000000"/><text fill="#000000" font-family="sans-serif" font-size="12" lengthAdjust="spacing" textLength="37" x="348.25" y="27.656">Server</text><line style="stroke:#A80036;stroke-width:1.5;" x1="256.5" x2="444.5" y1="39" y2="39"/><line style="stroke:#A80036;stroke-width:1.5;" x1="256.5" x2="444.5" y1="47" y2="47"/><text fill="#000000" font-family="sans-serif" font-size="11" lengthAdjust="spacing" textLength="61" x="261.5" y="62.7589">offer(): void</text><text fill="#000000" font-family="sans-serif" font-size="11" lengthAdjust="spacing" textLength="86" x="261.5" y="77.7408">stopOffer(): void</text><text fill="#000000" font-family="sans-serif" font-size="11" lengthAdjust="spacing" textLength="85" x="261.5" y="92.7227">isOffered(): bool</text><text fill="#000000" font-family="sans-serif" font-size="11" lengthAdjust="spacing" textLength="89" x="261.5" y="107.7046">hasClients(): bool</text><text fill="#000000" font-family="sans-serif" font-size="11" lengthAdjust="spacing" textLength="101" x="261.5" y="122.6865">hasRequests(): bool</text><text fill="#000000" font-family="sans-serif" font-size="11" lengthAdjust="spacing" textLength="169" x="261.5" y="137.6684">take(): expected&lt;Request, Error&gt;</text><text fill="#000000" font-family="sans-serif" font-size="11" lengthAdjust="spacing" textLength="161" x="261.5" y="152.6502">releaseQueuedRequests(): void</text><text fill="#000000" font-family="sans-serif" font-size="11" lengthAdjust="spacing" textLength="137" x="261.5" y="167.6321">hasMissedRequests(): bool</text><text fill="#000000" font-family="sans-serif" font-size="11" lengthAdjust="spacing" textLength="178" x="261.5" y="182.614">loan(): expected&lt;Response, Error&gt;</text><text fill="#000000" font-family="sans-serif" font-size="11" lengthAdjust="spacing" textLength="164" x="261.5" y="197.5959">send(response: Response): void</text></g></svg>