<?xml version="1.0" encoding="UTF-8" standalone="no"?><svg xmlns="http://www.w3.org/2000/svg" xmlns:xlink="http://www.w3.org/1999/xlink" contentScriptType="application/ecmascript" contentStyleType="text/css" height="420px" preserveAspectRatio="none" style="width:486px;height:420px;background:#EEEBDC;" version="1.1" viewBox="0 0 486 420" width="486px" zoomAndPan="magnify"><defs><filter height="300%" id="f1iy3ol3l478nq" width="300%" x="-1" y="-1"><feGaussianBlur result="blurOut" stdDeviation="2.0"/><feColorMatrix in="blurOut" result="blurOut2" type="matrix" values="0 0 0 0 0 0 0 0 0 0 0 0 0 0 0 0 0 0 .4 0"/><feOffset dx="4.0" dy="4.0" in="blurOut2" result="blurOut3"/><feBlend in="SourceGraphic" in2="blurOut3" mode="normal"/></filter></defs><g><!--MD5=[ed6624c6556d5e7b1bd23032162d20b7]
class Client--><rect codeLine="3" fill="#FEFECE" filter="url(#f1iy3ol3l478nq)" height="167.8551" id="Client" style="stroke:#A80036;stroke-width:1.5;" width="210" x="7" y="14.5"/><ellipse cx="91.75" cy="30.5" fill="#ADD1B2" rx="11" ry="11" style="stroke:#A80036;stroke-width:1.0;"/><path d="M91.5469,37.2344 Q89.0625,37.2344 87.7344,35.5938 Q86.4219,33.9219 86.4219,30.8125 Q86.4219,27.6875 87.7344,26.0313 Q89.0625,24.375 91.5469,24.375 Q92.2656,24.375 92.9219,24.5313 Q93.5625,24.6875 94.125,24.9844 L94.125,27.7031 Q93.7656,27.3594 93.4688,27.1719 Q93.1719,26.9688 92.9063,26.8438 Q92.5938,26.7031 92.2813,26.6406 Q91.9844,26.5781 91.6719,26.5781 Q90.3438,26.5781 89.6563,27.6406 Q88.9688,28.7344 88.9688,30.8125 Q88.9688,32.9063 89.6563,33.9688 Q90.3438,35.0469 91.6719,35.0469 Q92.3125,35.0469 92.9063,34.7656 Q93.2031,34.6406 93.4844,34.4531 Q93.7813,34.25 94.125,33.9219 L94.125,36.6406 Q93.5469,36.9375 92.9063,37.0938 Q92.2813,37.2344 91.5469,37.2344 Z " fill="#000000"/><text fill="#000000" font-family="sans-serif" font-size="12" lengthAdjust="spacing" textLength="32" x="112.25" y="35.156">Client</text><line style="stroke:#A80036;stroke-width:1.5;" x1="8" x2="216" y1="46.5" y2="46.5"/><line style="stroke:#A80036;stroke-width:1.5;" x1="8" x2="216" y1="54.5" y2="54.5"/><text fill="#000000" font-family="sans-serif" font-size="11" lengthAdjust="spacing" textLength="73" x="13" y="70.2589">void connect()</text><text fill="#000000" font-family="sans-serif" font-size="11" lengthAdjust="spacing" textLength="88" x="13" y="85.2408">void disconnect()</text><text fill="#000000" font-family="sans-serif" font-size="11" lengthAdjust="spacing" textLength="198" x="13" y="100.2227">ConnectionState getConnectionState()</text><text fill="#000000" font-family="sans-serif" font-size="11" lengthAdjust="spacing" textLength="167" x="13" y="115.2046">expected&lt;Request, Error&gt; loan()</text><text fill="#000000" font-family="sans-serif" font-size="11" lengthAdjust="spacing" textLength="99" x="13" y="130.1865">void send(Request)</text><text fill="#000000" font-family="sans-serif" font-size="11" lengthAdjust="spacing" textLength="101" x="13" y="145.1684">bool hasResponse()</text><text fill="#000000" font-family="sans-serif" font-size="11" lengthAdjust="spacing" textLength="174" x="13" y="160.1502">expected&lt;Response, Error&gt; take()</text><text fill="#000000" font-family="sans-serif" font-size="11" lengthAdjust="spacing" textLength="142" x="13" y="175.1321">bool hasMissedResponses()</text><!--MD5=[c60af77fe5573b84a4aa4bce89659574]
class Server--><rect codeLine="14" fill="#FEFECE" filter="url(#f1iy3ol3l478nq)" height="182.837" id="Server" style="stroke:#A80036;stroke-width:1.5;" width="220" x="252" y="7"/><ellipse cx="339.25" cy="23" fill="#ADD1B2" rx="11" ry="11" style="stroke:#A80036;stroke-width:1.0;"/><path d="M339.0469,29.7344 Q336.5625,29.7344 335.2344,28.0938 Q333.9219,26.4219 333.9219,23.3125 Q333.9219,20.1875 335.2344,18.5313 Q336.5625,16.875 339.0469,16.875 Q339.7656,16.875 340.4219,17.0313 Q341.0625,17.1875 341.625,17.4844 L341.625,20.2031 Q341.2656,19.8594 340.9688,19.6719 Q340.6719,19.4688 340.4063,19.3438 Q340.0938,19.2031 339.7813,19.1406 Q339.4844,19.0781 339.1719,19.0781 Q337.8438,19.0781 337.1563,20.1406 Q336.4688,21.2344 336.4688,23.3125 Q336.4688,25.4063 337.1563,26.4688 Q337.8438,27.5469 339.1719,27.5469 Q339.8125,27.5469 340.4063,27.2656 Q340.7031,27.1406 340.9844,26.9531 Q341.2813,26.75 341.625,26.4219 L341.625,29.1406 Q341.0469,29.4375 340.4063,29.5938 Q339.7813,29.7344 339.0469,29.7344 Z " fill="#000000"/><text fill="#000000" font-family="sans-serif" font-size="12" lengthAdjust="spacing" textLength="37" x="359.75" y="27.656">Server</text><line style="stroke:#A80036;stroke-width:1.5;" x1="253" x2="471" y1="39" y2="39"/><line style="stroke:#A80036;stroke-width:1.5;" x1="253" x2="471" y1="47" y2="47"/><text fill="#000000" font-family="sans-serif" font-size="11" lengthAdjust="spacing" textLength="58" x="258" y="62.7589">void offer()</text><text fill="#000000" font-family="sans-serif" font-size="11" lengthAdjust="spacing" textLength="83" x="258" y="77.7408">void stopOffer()</text><text fill="#000000" font-family="sans-serif" font-size="11" lengthAdjust="spacing" textLength="82" x="258" y="92.7227">bool isOffered()</text><text fill="#000000" font-family="sans-serif" font-size="11" lengthAdjust="spacing" textLength="86" x="258" y="107.7046">bool hasClients()</text><text fill="#000000" font-family="sans-serif" font-size="11" lengthAdjust="spacing" textLength="98" x="258" y="122.6865">bool hasRequests()</text><text fill="#000000" font-family="sans-serif" font-size="11" lengthAdjust="spacing" textLength="208" x="258" y="137.6684">expected&lt;Request, Error&gt; takeRequest()</text><text fill="#000000" font-family="sans-serif" font-size="11" lengthAdjust="spacing" textLength="134" x="258" y="152.6502">bool hasMissedRequests()</text><text fill="#000000" font-family="sans-serif" font-size="11" lengthAdjust="spacing" textLength="175" x="258" y="167.6321">expected&lt;Response, Error&gt; loan()</text><text fill="#000000" font-family="sans-serif" font-size="11" lengthAdjust="spacing" textLength="107" x="258" y="182.614">void send(Response)</text><!--MD5=[7c99419aff5009fddfdcdd46e780beee]
class ClientPortUser--><rect codeLine="26" fill="#FEFECE" filter="url(#f1iy3ol3l478nq)" height="48" id="ClientPortUser" style="stroke:#A80036;stroke-width:1.5;" width="114" x="104" y="250"/><ellipse cx="119" cy="266" fill="#ADD1B2" rx="11" ry="11" style="stroke:#A80036;stroke-width:1.0;"/><path d="M118.7969,272.7344 Q116.3125,272.7344 114.9844,271.0938 Q113.6719,269.4219 113.6719,266.3125 Q113.6719,263.1875 114.9844,261.5313 Q116.3125,259.875 118.7969,259.875 Q119.5156,259.875 120.1719,260.0313 Q120.8125,260.1875 121.375,260.4844 L121.375,263.2031 Q121.0156,262.8594 120.7188,262.6719 Q120.4219,262.4688 120.1563,262.3438 Q119.8438,262.2031 119.5313,262.1406 Q119.2344,262.0781 118.9219,262.0781 Q117.5938,262.0781 116.9063,263.1406 Q116.2188,264.2344 116.2188,266.3125 Q116.2188,268.4063 116.9063,269.4688 Q117.5938,270.5469 118.9219,270.5469 Q119.5625,270.5469 120.1563,270.2656 Q120.4531,270.1406 120.7344,269.9531 Q121.0313,269.75 121.375,269.4219 L121.375,272.1406 Q120.7969,272.4375 120.1563,272.5938 Q119.5313,272.7344 118.7969,272.7344 Z " fill="#000000"/><text fill="#000000" font-family="sans-serif" font-size="12" lengthAdjust="spacing" textLength="82" x="133" y="270.656">ClientPortUser</text><line style="stroke:#A80036;stroke-width:1.5;" x1="105" x2="217" y1="282" y2="282"/><line style="stroke:#A80036;stroke-width:1.5;" x1="105" x2="217" y1="290" y2="290"/><!--MD5=[57d9931a6973ef884f15a41ba7bb7c60]
class ServerPortUser--><rect codeLine="29" fill="#FEFECE" filter="url(#f1iy3ol3l478nq)" height="48" id="ServerPortUser" style="stroke:#A80036;stroke-width:1.5;" width="119" x="253.5" y="250"/><ellipse cx="268.5" cy="266" fill="#ADD1B2" rx="11" ry="11" style="stroke:#A80036;stroke-width:1.0;"/><path d="M268.2969,272.7344 Q265.8125,272.7344 264.4844,271.0938 Q263.1719,269.4219 263.1719,266.3125 Q263.1719,263.1875 264.4844,261.5313 Q265.8125,259.875 268.2969,259.875 Q269.0156,259.875 269.6719,260.0313 Q270.3125,260.1875 270.875,260.4844 L270.875,263.2031 Q270.5156,262.8594 270.2188,262.6719 Q269.9219,262.4688 269.6563,262.3438 Q269.3438,262.2031 269.0313,262.1406 Q268.7344,262.0781 268.4219,262.0781 Q267.0938,262.0781 266.4063,263.1406 Q265.7188,264.2344 265.7188,266.3125 Q265.7188,268.4063 266.4063,269.4688 Q267.0938,270.5469 268.4219,270.5469 Q269.0625,270.5469 269.6563,270.2656 Q269.9531,270.1406 270.2344,269.9531 Q270.5313,269.75 270.875,269.4219 L270.875,272.1406 Q270.2969,272.4375 269.6563,272.5938 Q269.0313,272.7344 268.2969,272.7344 Z " fill="#000000"/><text fill="#000000" font-family="sans-serif" font-size="12" lengthAdjust="spacing" textLength="87" x="282.5" y="270.656">ServerPortUser</text><line style="stroke:#A80036;stroke-width:1.5;" x1="254.5" x2="371.5" y1="282" y2="282"/><line style="stroke:#A80036;stroke-width:1.5;" x1="254.5" x2="371.5" y1="290" y2="290"/><!--MD5=[5db7d3fb0705949d82e389f21f83438d]
class ChunkSender--><rect fill="#FEFECE" filter="url(#f1iy3ol3l478nq)" height="48" id="ChunkSender" style="stroke:#A80036;stroke-width:1.5;" width="107" x="110.5" y="358"/><ellipse cx="125.5" cy="374" fill="#ADD1B2" rx="11" ry="11" style="stroke:#A80036;stroke-width:1.0;"/><path d="M125.2969,380.7344 Q122.8125,380.7344 121.4844,379.0938 Q120.1719,377.4219 120.1719,374.3125 Q120.1719,371.1875 121.4844,369.5313 Q122.8125,367.875 125.2969,367.875 Q126.0156,367.875 126.6719,368.0313 Q127.3125,368.1875 127.875,368.4844 L127.875,371.2031 Q127.5156,370.8594 127.2188,370.6719 Q126.9219,370.4688 126.6563,370.3438 Q126.3438,370.2031 126.0313,370.1406 Q125.7344,370.0781 125.4219,370.0781 Q124.0938,370.0781 123.4063,371.1406 Q122.7188,372.2344 122.7188,374.3125 Q122.7188,376.4063 123.4063,377.4688 Q124.0938,378.5469 125.4219,378.5469 Q126.0625,378.5469 126.6563,378.2656 Q126.9531,378.1406 127.2344,377.9531 Q127.5313,377.75 127.875,377.4219 L127.875,380.1406 Q127.2969,380.4375 126.6563,380.5938 Q126.0313,380.7344 125.2969,380.7344 Z " fill="#000000"/><text fill="#000000" font-family="sans-serif" font-size="12" lengthAdjust="spacing" textLength="75" x="139.5" y="378.656">ChunkSender</text><line style="stroke:#A80036;stroke-width:1.5;" x1="111.5" x2="216.5" y1="390" y2="390"/><line style="stroke:#A80036;stroke-width:1.5;" x1="111.5" x2="216.5" y1="398" y2="398"/><!--MD5=[56725b2b8d7b861694d8392c37cfc44d]
class ChunkReceiver--><rect fill="#FEFECE" filter="url(#f1iy3ol3l478nq)" height="48" id="ChunkReceiver" style="stroke:#A80036;stroke-width:1.5;" width="115" x="253.5" y="358"/><ellipse cx="268.5" cy="374" fill="#ADD1B2" rx="11" ry="11" style="stroke:#A80036;stroke-width:1.0;"/><path d="M268.2969,380.7344 Q265.8125,380.7344 264.4844,379.0938 Q263.1719,377.4219 263.1719,374.3125 Q263.1719,371.1875 264.4844,369.5313 Q265.8125,367.875 268.2969,367.875 Q269.0156,367.875 269.6719,368.0313 Q270.3125,368.1875 270.875,368.4844 L270.875,371.2031 Q270.5156,370.8594 270.2188,370.6719 Q269.9219,370.4688 269.6563,370.3438 Q269.3438,370.2031 269.0313,370.1406 Q268.7344,370.0781 268.4219,370.0781 Q267.0938,370.0781 266.4063,371.1406 Q265.7188,372.2344 265.7188,374.3125 Q265.7188,376.4063 266.4063,377.4688 Q267.0938,378.5469 268.4219,378.5469 Q269.0625,378.5469 269.6563,378.2656 Q269.9531,378.1406 270.2344,377.9531 Q270.5313,377.75 270.875,377.4219 L270.875,380.1406 Q270.2969,380.4375 269.6563,380.5938 Q269.0313,380.7344 268.2969,380.7344 Z " fill="#000000"/><text fill="#000000" font-family="sans-serif" font-size="12" lengthAdjust="spacing" textLength="83" x="282.5" y="378.656">ChunkReceiver</text><line style="stroke:#A80036;stroke-width:1.5;" x1="254.5" x2="367.5" y1="390" y2="390"/><line style="stroke:#A80036;stroke-width:1.5;" x1="254.5" x2="367.5" y1="398" y2="398"/><!--MD5=[d7d92669a6c176c96fa91d3d853474b2]
reverse link Client to ClientPortUser--><path codeLine="32" d="M139.09,195.42 C144.84,215.79 150.4,235.47 154.48,249.92 " fill="none" id="Client-backto-ClientPortUser" style="stroke:#A80036;stroke-width:1.0;"/><polygon fill="#EEEBDC" points="135.5,182.69,133.2784,189.5504,138.7566,194.2397,140.9782,187.3793,135.5,182.69" style="stroke:#A80036;stroke-width:1.0;"/><!--MD5=[5ca044769eef536d584406bf742ecfce]
reverse link Server to ServerPortUser--><path codeLine="33" d="M332.85,202.72 C327.86,220.39 323.14,237.1 319.55,249.8 " fill="none" id="Server-backto-ServerPortUser" style="stroke:#A80036;stroke-width:1.0;"/><polygon fill="#EEEBDC" points="336.42,190.06,330.9418,194.7493,333.1634,201.6097,338.6416,196.9204,336.42,190.06" style="stroke:#A80036;stroke-width:1.0;"/><!--MD5=[986435fce3cac8788ab9e1e30341f016]
reverse link ClientPortUser to ChunkSender--><path codeLine="35" d="M162.03,311.34 C162.46,326.68 162.96,344.1 163.34,357.68 " fill="none" id="ClientPortUser-backto-ChunkSender" style="stroke:#A80036;stroke-width:1.0;"/><polygon fill="#EEEBDC" points="161.65,298,157.8163,304.1076,161.9795,309.9955,165.8133,303.8879,161.65,298" style="stroke:#A80036;stroke-width:1.0;"/><!--MD5=[e004a45bbcda25030c8bd819b12af5a9]
reverse link ClientPortUser to ChunkReceiver--><path codeLine="36" d="M204.31,305.61 C227.88,322.26 256.57,342.54 278.26,357.86 " fill="none" id="ClientPortUser-backto-ChunkReceiver" style="stroke:#A80036;stroke-width:1.0;"/><polygon fill="#EEEBDC" points="193.55,298,196.1419,304.7292,203.3503,304.9249,200.7584,298.1957,193.55,298" style="stroke:#A80036;stroke-width:1.0;"/><!--MD5=[9ac31ad24446b9096af7568942b8f437]
reverse link ServerPortUser to ChunkSender--><path codeLine="38" d="M269.98,305.61 C246.56,322.26 218.07,342.54 196.52,357.86 " fill="none" id="ServerPortUser-backto-ChunkSender" style="stroke:#A80036;stroke-width:1.0;"/><polygon fill="#EEEBDC" points="280.67,298,273.4622,298.2178,270.891,304.9549,278.0988,304.7371,280.67,298" style="stroke:#A80036;stroke-width:1.0;"/><!--MD5=[6fedce80cf6adfd27af1484b794b1f92]
reverse link ServerPortUser to ChunkReceiver--><path codeLine="39" d="M312.31,311.34 C312.02,326.68 311.7,344.1 311.44,357.68 " fill="none" id="ServerPortUser-backto-ChunkReceiver" style="stroke:#A80036;stroke-width:1.0;"/><polygon fill="#EEEBDC" points="312.57,298,308.4586,303.9242,312.3459,309.9979,316.4572,304.0737,312.57,298" style="stroke:#A80036;stroke-width:1.0;"/></g></svg>