<?xml version="1.0" encoding="UTF-8" standalone="no"?><svg xmlns="http://www.w3.org/2000/svg" xmlns:xlink="http://www.w3.org/1999/xlink" contentScriptType="application/ecmascript" contentStyleType="text/css" height="326px" preserveAspectRatio="none" style="width:850px;height:326px;background:#EEEBDC;" version="1.1" viewBox="0 0 850 326" width="850px" zoomAndPan="magnify"><defs><filter height="300%" id="fslg8stonqxgd" width="300%" x="-1" y="-1"><feGaussianBlur result="blurOut" stdDeviation="2.0"/><feColorMatrix in="blurOut" result="blurOut2" type="matrix" values="0 0 0 0 0 0 0 0 0 0 0 0 0 0 0 0 0 0 .4 0"/><feOffset dx="4.0" dy="4.0" in="blurOut2" result="blurOut3"/><feBlend in="SourceGraphic" in2="blurOut3" mode="normal"/></filter></defs><g><!--MD5=[0d14460b0789ede061c4aebafd984493]
class RpcBaseHeader--><rect codeLine="3" fill="#FEFECE" filter="url(#fslg8stonqxgd)" height="137.8913" id="RpcBaseHeader" style="stroke:#A80036;stroke-width:1.5;" width="451" x="165.5" y="175"/><ellipse cx="341.75" cy="191" fill="#ADD1B2" rx="11" ry="11" style="stroke:#A80036;stroke-width:1.0;"/><path d="M341.5469,197.7344 Q339.0625,197.7344 337.7344,196.0938 Q336.4219,194.4219 336.4219,191.3125 Q336.4219,188.1875 337.7344,186.5313 Q339.0625,184.875 341.5469,184.875 Q342.2656,184.875 342.9219,185.0313 Q343.5625,185.1875 344.125,185.4844 L344.125,188.2031 Q343.7656,187.8594 343.4688,187.6719 Q343.1719,187.4688 342.9063,187.3438 Q342.5938,187.2031 342.2813,187.1406 Q341.9844,187.0781 341.6719,187.0781 Q340.3438,187.0781 339.6563,188.1406 Q338.9688,189.2344 338.9688,191.3125 Q338.9688,193.4063 339.6563,194.4688 Q340.3438,195.5469 341.6719,195.5469 Q342.3125,195.5469 342.9063,195.2656 Q343.2031,195.1406 343.4844,194.9531 Q343.7813,194.75 344.125,194.4219 L344.125,197.1406 Q343.5469,197.4375 342.9063,197.5938 Q342.2813,197.7344 341.5469,197.7344 Z " fill="#000000"/><text fill="#000000" font-family="sans-serif" font-size="12" lengthAdjust="spacing" textLength="90" x="362.25" y="195.656">RpcBaseHeader</text><line style="stroke:#A80036;stroke-width:1.5;" x1="166.5" x2="615.5" y1="207" y2="207"/><polygon fill="none" points="176.5,213,180.5,217,176.5,221,172.5,217" style="stroke:#B38D22;stroke-width:1.0;"/><text fill="#000000" font-family="sans-serif" font-size="11" lengthAdjust="spacing" textLength="319" x="185.5" y="222.7589">m_clientQueueId: RelativePointer&lt;ClientChunkQueueData_t&gt;</text><polygon fill="none" points="176.5,227.9819,180.5,231.9819,176.5,235.9819,172.5,231.9819" style="stroke:#B38D22;stroke-width:1.0;"/><text fill="#000000" font-family="sans-serif" font-size="11" lengthAdjust="spacing" textLength="123" x="185.5" y="237.7408">m_sequenceId: uint64_t</text><line style="stroke:#A80036;stroke-width:1.5;" x1="166.5" x2="615.5" y1="244.9638" y2="244.9638"/><ellipse cx="176.5" cy="255.9638" fill="#84BE84" rx="3" ry="3" style="stroke:#038048;stroke-width:1.0;"/><text fill="#000000" font-family="sans-serif" font-size="11" lengthAdjust="spacing" textLength="425" x="185.5" y="260.7227">RpcBaseHeader(chunkQueueId: ClientChunkQueueData_t&amp;, sequenceId: uint64_t)</text><ellipse cx="176.5" cy="270.9457" fill="#84BE84" rx="3" ry="3" style="stroke:#038048;stroke-width:1.0;"/><text fill="#000000" font-family="sans-serif" font-size="11" lengthAdjust="spacing" textLength="132" x="185.5" y="275.7046">getSequenceId(): uint64_t</text><ellipse cx="176.5" cy="285.9276" fill="#84BE84" rx="3" ry="3" style="stroke:#038048;stroke-width:1.0;"/><text fill="#000000" font-family="sans-serif" font-size="11" lengthAdjust="spacing" textLength="179" x="185.5" y="290.6865">getChunkHeader(): ChunkHeader*</text><ellipse cx="176.5" cy="300.9094" fill="#84BE84" rx="3" ry="3" style="stroke:#038048;stroke-width:1.0;"/><text fill="#000000" font-family="sans-serif" font-size="11" lengthAdjust="spacing" textLength="124" x="185.5" y="305.6684">getUserPayload(): void*</text><!--MD5=[6cc62d088b7a142a0ad16d78c666be36]
class RequestHeader--><rect codeLine="12" fill="#FEFECE" filter="url(#fslg8stonqxgd)" height="107.9276" id="RequestHeader" style="stroke:#A80036;stroke-width:1.5;" width="336" x="7" y="7"/><ellipse cx="127.25" cy="23" fill="#ADD1B2" rx="11" ry="11" style="stroke:#A80036;stroke-width:1.0;"/><path d="M127.0469,29.7344 Q124.5625,29.7344 123.2344,28.0938 Q121.9219,26.4219 121.9219,23.3125 Q121.9219,20.1875 123.2344,18.5313 Q124.5625,16.875 127.0469,16.875 Q127.7656,16.875 128.4219,17.0313 Q129.0625,17.1875 129.625,17.4844 L129.625,20.2031 Q129.2656,19.8594 128.9688,19.6719 Q128.6719,19.4688 128.4063,19.3438 Q128.0938,19.2031 127.7813,19.1406 Q127.4844,19.0781 127.1719,19.0781 Q125.8438,19.0781 125.1563,20.1406 Q124.4688,21.2344 124.4688,23.3125 Q124.4688,25.4063 125.1563,26.4688 Q125.8438,27.5469 127.1719,27.5469 Q127.8125,27.5469 128.4063,27.2656 Q128.7031,27.1406 128.9844,26.9531 Q129.2813,26.75 129.625,26.4219 L129.625,29.1406 Q129.0469,29.4375 128.4063,29.5938 Q127.7813,29.7344 127.0469,29.7344 Z " fill="#000000"/><text fill="#000000" font-family="sans-serif" font-size="12" lengthAdjust="spacing" textLength="87" x="147.75" y="27.656">RequestHeader</text><line style="stroke:#A80036;stroke-width:1.5;" x1="8" x2="342" y1="39" y2="39"/><rect fill="none" height="6" style="stroke:#C82930;stroke-width:1.0;" width="6" x="15" y="47"/><text fill="#000000" font-family="sans-serif" font-size="11" lengthAdjust="spacing" textLength="129" x="27" y="54.7589">m_isFireAndForget: bool</text><line style="stroke:#A80036;stroke-width:1.5;" x1="8" x2="342" y1="61.9819" y2="61.9819"/><ellipse cx="18" cy="72.9819" fill="#84BE84" rx="3" ry="3" style="stroke:#038048;stroke-width:1.0;"/><text fill="#000000" font-family="sans-serif" font-size="11" lengthAdjust="spacing" textLength="310" x="27" y="77.7408">RequestHeader(chunkQueueId: ClientChunkQueueData_t&amp;)</text><ellipse cx="18" cy="87.9638" fill="#84BE84" rx="3" ry="3" style="stroke:#038048;stroke-width:1.0;"/><text fill="#000000" font-family="sans-serif" font-size="11" lengthAdjust="spacing" textLength="219" x="27" y="92.7227">setSequenceId(sequenceId: uint64_t): void</text><ellipse cx="18" cy="102.9457" fill="#84BE84" rx="3" ry="3" style="stroke:#038048;stroke-width:1.0;"/><text fill="#000000" font-family="sans-serif" font-size="11" lengthAdjust="spacing" textLength="230" x="27" y="107.7046">setFireAndForget(fireAndForget: bool): void</text><!--MD5=[5e52833216ce84db46124975cdba11dc]
class ResponseHeader--><rect codeLine="19" fill="#FEFECE" filter="url(#fslg8stonqxgd)" height="107.9276" id="ResponseHeader" style="stroke:#A80036;stroke-width:1.5;" width="458" x="378" y="7"/><ellipse cx="554.75" cy="23" fill="#ADD1B2" rx="11" ry="11" style="stroke:#A80036;stroke-width:1.0;"/><path d="M554.5469,29.7344 Q552.0625,29.7344 550.7344,28.0938 Q549.4219,26.4219 549.4219,23.3125 Q549.4219,20.1875 550.7344,18.5313 Q552.0625,16.875 554.5469,16.875 Q555.2656,16.875 555.9219,17.0313 Q556.5625,17.1875 557.125,17.4844 L557.125,20.2031 Q556.7656,19.8594 556.4688,19.6719 Q556.1719,19.4688 555.9063,19.3438 Q555.5938,19.2031 555.2813,19.1406 Q554.9844,19.0781 554.6719,19.0781 Q553.3438,19.0781 552.6563,20.1406 Q551.9688,21.2344 551.9688,23.3125 Q551.9688,25.4063 552.6563,26.4688 Q553.3438,27.5469 554.6719,27.5469 Q555.3125,27.5469 555.9063,27.2656 Q556.2031,27.1406 556.4844,26.9531 Q556.7813,26.75 557.125,26.4219 L557.125,29.1406 Q556.5469,29.4375 555.9063,29.5938 Q555.2813,29.7344 554.5469,29.7344 Z " fill="#000000"/><text fill="#000000" font-family="sans-serif" font-size="12" lengthAdjust="spacing" textLength="96" x="575.25" y="27.656">ResponseHeader</text><line style="stroke:#A80036;stroke-width:1.5;" x1="379" x2="835" y1="39" y2="39"/><rect fill="none" height="6" style="stroke:#C82930;stroke-width:1.0;" width="6" x="386" y="47"/><text fill="#000000" font-family="sans-serif" font-size="11" lengthAdjust="spacing" textLength="125" x="398" y="54.7589">m_hasServerError: bool</text><line style="stroke:#A80036;stroke-width:1.5;" x1="379" x2="835" y1="61.9819" y2="61.9819"/><ellipse cx="389" cy="72.9819" fill="#84BE84" rx="3" ry="3" style="stroke:#038048;stroke-width:1.0;"/><text fill="#000000" font-family="sans-serif" font-size="11" lengthAdjust="spacing" textLength="432" x="398" y="77.7408">ResponseHeader(chunkQueueId: ClientChunkQueueData_t&amp;, sequenceId: uint64_t)</text><ellipse cx="389" cy="87.9638" fill="#84BE84" rx="3" ry="3" style="stroke:#038048;stroke-width:1.0;"/><text fill="#000000" font-family="sans-serif" font-size="11" lengthAdjust="spacing" textLength="203" x="398" y="92.7227">setServerError(serverError: bool): void</text><ellipse cx="389" cy="102.9457" fill="#84BE84" rx="3" ry="3" style="stroke:#038048;stroke-width:1.0;"/><text fill="#000000" font-family="sans-serif" font-size="11" lengthAdjust="spacing" textLength="116" x="398" y="107.7046">hasServerError(): bool</text><!--MD5=[1211e87899b0264a6108ab139b773bf5]
link RequestHeader to RpcBaseHeader--><path codeLine="26" d="M238.35,115.08 C259.41,132.73 283.23,152.69 305.67,171.5 " fill="none" id="RequestHeader-to-RpcBaseHeader" style="stroke:#A80036;stroke-width:1.0;"/><polygon fill="#A80036" points="309.55,174.75,305.2097,165.9091,305.7136,171.5434,300.0792,172.0473,309.55,174.75" style="stroke:#A80036;stroke-width:1.0;"/><!--MD5=[9d409bceee22cd6842596723dd5b07a3]
link ResponseHeader to RpcBaseHeader--><path codeLine="27" d="M543.65,115.08 C522.59,132.73 498.77,152.69 476.33,171.5 " fill="none" id="ResponseHeader-to-RpcBaseHeader" style="stroke:#A80036;stroke-width:1.0;"/><polygon fill="#A80036" points="472.45,174.75,481.9208,172.0473,476.2864,171.5434,476.7903,165.9091,472.45,174.75" style="stroke:#A80036;stroke-width:1.0;"/></g></svg>