<?xml version="1.0" encoding="UTF-8" standalone="no"?><svg xmlns="http://www.w3.org/2000/svg" xmlns:xlink="http://www.w3.org/1999/xlink" contentScriptType="application/ecmascript" contentStyleType="text/css" height="599px" preserveAspectRatio="none" style="width:680px;height:599px;background:#EEEBDC;" version="1.1" viewBox="0 0 680 599" width="680px" zoomAndPan="magnify"><defs><filter height="300%" id="f1bccbpqijddle" width="300%" x="-1" y="-1"><feGaussianBlur result="blurOut" stdDeviation="2.0"/><feColorMatrix in="blurOut" result="blurOut2" type="matrix" values="0 0 0 0 0 0 0 0 0 0 0 0 0 0 0 0 0 0 .4 0"/><feOffset dx="4.0" dy="4.0" in="blurOut2" result="blurOut3"/><feBlend in="SourceGraphic" in2="blurOut3" mode="normal"/></filter></defs><g><!--MD5=[daf4dc8478f5ff517faba916b57c658d]
class ServerPortData--><rect codeLine="3" fill="#FEFECE" filter="url(#f1bccbpqijddle)" height="107.9276" id="ServerPortData" style="stroke:#A80036;stroke-width:1.5;" width="220" x="226.5" y="325"/><ellipse cx="288.75" cy="341" fill="#ADD1B2" rx="11" ry="11" style="stroke:#A80036;stroke-width:1.0;"/><path d="M288.5469,347.7344 Q286.0625,347.7344 284.7344,346.0938 Q283.4219,344.4219 283.4219,341.3125 Q283.4219,338.1875 284.7344,336.5313 Q286.0625,334.875 288.5469,334.875 Q289.2656,334.875 289.9219,335.0313 Q290.5625,335.1875 291.125,335.4844 L291.125,338.2031 Q290.7656,337.8594 290.4688,337.6719 Q290.1719,337.4688 289.9063,337.3438 Q289.5938,337.2031 289.2813,337.1406 Q288.9844,337.0781 288.6719,337.0781 Q287.3438,337.0781 286.6563,338.1406 Q285.9688,339.2344 285.9688,341.3125 Q285.9688,343.4063 286.6563,344.4688 Q287.3438,345.5469 288.6719,345.5469 Q289.3125,345.5469 289.9063,345.2656 Q290.2031,345.1406 290.4844,344.9531 Q290.7813,344.75 291.125,344.4219 L291.125,347.1406 Q290.5469,347.4375 289.9063,347.5938 Q289.2813,347.7344 288.5469,347.7344 Z " fill="#000000"/><text fill="#000000" font-family="sans-serif" font-size="12" lengthAdjust="spacing" textLength="87" x="309.25" y="345.656">ServerPortData</text><line style="stroke:#A80036;stroke-width:1.5;" x1="227.5" x2="445.5" y1="357" y2="357"/><text fill="#000000" font-family="sans-serif" font-size="11" lengthAdjust="spacing" textLength="194" x="232.5" y="372.7589">chunkSenderData: ChunkSenderData</text><text fill="#000000" font-family="sans-serif" font-size="11" lengthAdjust="spacing" textLength="208" x="232.5" y="387.7408">chunkReceiverData: ChunkReceiverData</text><text fill="#000000" font-family="sans-serif" font-size="11" lengthAdjust="spacing" textLength="175" x="232.5" y="402.7227">offeringRequested: atomic&lt;bool&gt;</text><text fill="#000000" font-family="sans-serif" font-size="11" lengthAdjust="spacing" textLength="116" x="232.5" y="417.7046">offered: atomic&lt;bool&gt;</text><line style="stroke:#A80036;stroke-width:1.5;" x1="227.5" x2="445.5" y1="424.9276" y2="424.9276"/><!--MD5=[57d9931a6973ef884f15a41ba7bb7c60]
class ServerPortUser--><rect codeLine="10" fill="#FEFECE" filter="url(#f1bccbpqijddle)" height="257.7464" id="ServerPortUser" style="stroke:#A80036;stroke-width:1.5;" width="659" x="7" y="7"/><ellipse cx="288.75" cy="23" fill="#ADD1B2" rx="11" ry="11" style="stroke:#A80036;stroke-width:1.0;"/><path d="M288.5469,29.7344 Q286.0625,29.7344 284.7344,28.0938 Q283.4219,26.4219 283.4219,23.3125 Q283.4219,20.1875 284.7344,18.5313 Q286.0625,16.875 288.5469,16.875 Q289.2656,16.875 289.9219,17.0313 Q290.5625,17.1875 291.125,17.4844 L291.125,20.2031 Q290.7656,19.8594 290.4688,19.6719 Q290.1719,19.4688 289.9063,19.3438 Q289.5938,19.2031 289.2813,19.1406 Q288.9844,19.0781 288.6719,19.0781 Q287.3438,19.0781 286.6563,20.1406 Q285.9688,21.2344 285.9688,23.3125 Q285.9688,25.4063 286.6563,26.4688 Q287.3438,27.5469 288.6719,27.5469 Q289.3125,27.5469 289.9063,27.2656 Q290.2031,27.1406 290.4844,26.9531 Q290.7813,26.75 291.125,26.4219 L291.125,29.1406 Q290.5469,29.4375 289.9063,29.5938 Q289.2813,29.7344 288.5469,29.7344 Z " fill="#000000"/><text fill="#000000" font-family="sans-serif" font-size="12" lengthAdjust="spacing" textLength="87" x="309.25" y="27.656">ServerPortUser</text><line style="stroke:#A80036;stroke-width:1.5;" x1="8" x2="665" y1="39" y2="39"/><text fill="#000000" font-family="sans-serif" font-size="11" lengthAdjust="spacing" textLength="153" x="13" y="54.7589">unsetConditionVariable: void</text><line style="stroke:#A80036;stroke-width:1.5;" x1="8" x2="665" y1="61.9819" y2="61.9819"/><text fill="#000000" font-family="sans-serif" font-size="11" lengthAdjust="spacing" textLength="61" x="13" y="77.7408">offer(): void</text><text fill="#000000" font-family="sans-serif" font-size="11" lengthAdjust="spacing" textLength="86" x="13" y="92.7227">stopOffer(): void</text><text fill="#000000" font-family="sans-serif" font-size="11" lengthAdjust="spacing" textLength="85" x="13" y="107.7046">isOffered(): bool</text><text fill="#000000" font-family="sans-serif" font-size="11" lengthAdjust="spacing" textLength="89" x="13" y="122.6865">hasClients(): bool</text><text fill="#000000" font-family="sans-serif" font-size="11" lengthAdjust="spacing" textLength="358" x="13" y="137.6684">getRequest(): expected&lt;const RequestHeader*, ChunkReceiveResult&gt;</text><text fill="#000000" font-family="sans-serif" font-size="11" lengthAdjust="spacing" textLength="326" x="13" y="152.6502">releaseRequest(response Header: const RequestHeader*): void</text><text fill="#000000" font-family="sans-serif" font-size="11" lengthAdjust="spacing" textLength="123" x="13" y="167.6321">hasNewRequests(): void</text><text fill="#000000" font-family="sans-serif" font-size="11" lengthAdjust="spacing" textLength="190" x="13" y="182.614">hasLostRequestsSinceLastCall(): bool</text><text fill="#000000" font-family="sans-serif" font-size="11" lengthAdjust="spacing" textLength="647" x="13" y="197.5959">allocateResponse(userPayloadSize: uint32_t, userPayloadAlignment: uint32_t): expected&lt;ResponseHeader*, AllocationError&gt;</text><text fill="#000000" font-family="sans-serif" font-size="11" lengthAdjust="spacing" textLength="282" x="13" y="212.5778">sendResponse(requestHeader: ResponseHeader): void</text><text fill="#000000" font-family="sans-serif" font-size="11" lengthAdjust="spacing" textLength="282" x="13" y="227.5597">freeResponset(requestHeader: ResponseHeader): void</text><text fill="#000000" font-family="sans-serif" font-size="11" lengthAdjust="spacing" textLength="515" x="13" y="242.5416">setConditionVariable(conditionVariable: ConditionVariableData&amp;, notificationIndex: uint64_t): void</text><text fill="#000000" font-family="sans-serif" font-size="11" lengthAdjust="spacing" textLength="155" x="13" y="257.5235">isConditionVariableSet(): bool</text><!--MD5=[99e70ca6bb6308bc6f0b9f96d720bf14]
class ServerPortRouDi--><rect codeLine="27" fill="#FEFECE" filter="url(#f1bccbpqijddle)" height="92.9457" id="ServerPortRouDi" style="stroke:#A80036;stroke-width:1.5;" width="599" x="37" y="493"/><ellipse cx="285.75" cy="509" fill="#ADD1B2" rx="11" ry="11" style="stroke:#A80036;stroke-width:1.0;"/><path d="M285.5469,515.7344 Q283.0625,515.7344 281.7344,514.0938 Q280.4219,512.4219 280.4219,509.3125 Q280.4219,506.1875 281.7344,504.5313 Q283.0625,502.875 285.5469,502.875 Q286.2656,502.875 286.9219,503.0313 Q287.5625,503.1875 288.125,503.4844 L288.125,506.2031 Q287.7656,505.8594 287.4688,505.6719 Q287.1719,505.4688 286.9063,505.3438 Q286.5938,505.2031 286.2813,505.1406 Q285.9844,505.0781 285.6719,505.0781 Q284.3438,505.0781 283.6563,506.1406 Q282.9688,507.2344 282.9688,509.3125 Q282.9688,511.4063 283.6563,512.4688 Q284.3438,513.5469 285.6719,513.5469 Q286.3125,513.5469 286.9063,513.2656 Q287.2031,513.1406 287.4844,512.9531 Q287.7813,512.75 288.125,512.4219 L288.125,515.1406 Q287.5469,515.4375 286.9063,515.5938 Q286.2813,515.7344 285.5469,515.7344 Z " fill="#000000"/><text fill="#000000" font-family="sans-serif" font-size="12" lengthAdjust="spacing" textLength="93" x="306.25" y="513.656">ServerPortRouDi</text><line style="stroke:#A80036;stroke-width:1.5;" x1="38" x2="635" y1="525" y2="525"/><line style="stroke:#A80036;stroke-width:1.5;" x1="38" x2="635" y1="533" y2="533"/><text fill="#000000" font-family="sans-serif" font-size="11" lengthAdjust="spacing" textLength="255" x="43" y="548.7589">tryGetCaProMessage(): optional&lt;CaProMessage&gt;</text><text fill="#000000" font-family="sans-serif" font-size="11" lengthAdjust="spacing" textLength="587" x="43" y="563.7408">dispatchCaProMessageAndGetPossibleResponse(caProMessage: const CaProMessage): optional&lt;CaProMessage&gt;</text><text fill="#000000" font-family="sans-serif" font-size="11" lengthAdjust="spacing" textLength="124" x="43" y="578.7227">releaseAllChunks(): void</text><!--MD5=[150dbe2ea2c87a40d47eb3f59f3cc076]
reverse link ServerPortUser to ServerPortData--><path codeLine="33" d="M336.5,278.5 C336.5,294.89 336.5,310.75 336.5,324.8 " fill="none" id="ServerPortUser-backto-ServerPortData" style="stroke:#A80036;stroke-width:1.0;"/><polygon fill="#EEEBDC" points="336.5,265.26,332.5,271.26,336.5,277.26,340.5,271.26,336.5,265.26" style="stroke:#A80036;stroke-width:1.0;"/><!--MD5=[77f2c4f822f9a02acd697a117f190e81]
link ServerPortData to ServerPortRouDi--><path codeLine="34" d="M336.5,433.22 C336.5,448.17 336.5,464.52 336.5,479.78 " fill="none" id="ServerPortData-to-ServerPortRouDi" style="stroke:#A80036;stroke-width:1.0;"/><polygon fill="#EEEBDC" points="336.5,492.84,340.5,486.84,336.5,480.84,332.5,486.84,336.5,492.84" style="stroke:#A80036;stroke-width:1.0;"/></g></svg>