<?xml version="1.0" encoding="UTF-8" standalone="no"?><svg xmlns="http://www.w3.org/2000/svg" xmlns:xlink="http://www.w3.org/1999/xlink" contentScriptType="application/ecmascript" contentStyleType="text/css" height="248px" preserveAspectRatio="none" style="width:442px;height:248px;background:#EEEBDC;" version="1.1" viewBox="0 0 442 248" width="442px" zoomAndPan="magnify"><defs><filter height="300%" id="f19tjrgxf9f27r" width="300%" x="-1" y="-1"><feGaussianBlur result="blurOut" stdDeviation="2.0"/><feColorMatrix in="blurOut" result="blurOut2" type="matrix" values="0 0 0 0 0 0 0 0 0 0 0 0 0 0 0 0 0 0 .4 0"/><feOffset dx="4.0" dy="4.0" in="blurOut2" result="blurOut3"/><feBlend in="SourceGraphic" in2="blurOut3" mode="normal"/></filter></defs><g><!--MD5=[7c46b07ee330a5ac83506660f79e9eba]
class UntypedClient--><rect codeLine="3" fill="#FEFECE" filter="url(#f19tjrgxf9f27r)" height="212.8008" id="UntypedClient" style="stroke:#A80036;stroke-width:1.5;" width="213" x="7" y="14.5"/><ellipse cx="69.75" cy="30.5" fill="#ADD1B2" rx="11" ry="11" style="stroke:#A80036;stroke-width:1.0;"/><path d="M69.5469,37.2344 Q67.0625,37.2344 65.7344,35.5938 Q64.4219,33.9219 64.4219,30.8125 Q64.4219,27.6875 65.7344,26.0313 Q67.0625,24.375 69.5469,24.375 Q70.2656,24.375 70.9219,24.5313 Q71.5625,24.6875 72.125,24.9844 L72.125,27.7031 Q71.7656,27.3594 71.4688,27.1719 Q71.1719,26.9688 70.9063,26.8438 Q70.5938,26.7031 70.2813,26.6406 Q69.9844,26.5781 69.6719,26.5781 Q68.3438,26.5781 67.6563,27.6406 Q66.9688,28.7344 66.9688,30.8125 Q66.9688,32.9063 67.6563,33.9688 Q68.3438,35.0469 69.6719,35.0469 Q70.3125,35.0469 70.9063,34.7656 Q71.2031,34.6406 71.4844,34.4531 Q71.7813,34.25 72.125,33.9219 L72.125,36.6406 Q71.5469,36.9375 70.9063,37.0938 Q70.2813,37.2344 69.5469,37.2344 Z " fill="#000000"/><text fill="#000000" font-family="sans-serif" font-size="12" lengthAdjust="spacing" textLength="79" x="90.25" y="35.156">UntypedClient</text><line style="stroke:#A80036;stroke-width:1.5;" x1="8" x2="219" y1="46.5" y2="46.5"/><line style="stroke:#A80036;stroke-width:1.5;" x1="8" x2="219" y1="54.5" y2="54.5"/><text fill="#000000" font-family="sans-serif" font-size="11" lengthAdjust="spacing" textLength="76" x="13" y="70.2589">connect(): void</text><text fill="#000000" font-family="sans-serif" font-size="11" lengthAdjust="spacing" textLength="91" x="13" y="85.2408">disconnect(): void</text><text fill="#000000" font-family="sans-serif" font-size="11" lengthAdjust="spacing" textLength="201" x="13" y="100.2227">getConnectionState(): ConnectionState</text><text fill="#000000" font-family="sans-serif" font-size="11" lengthAdjust="spacing" textLength="157" x="13" y="115.2046">loan(): expected&lt;void*, Error&gt;</text><text fill="#000000" font-family="sans-serif" font-size="11" lengthAdjust="spacing" textLength="135" x="13" y="130.1865">send(request: void*): void</text><text fill="#000000" font-family="sans-serif" font-size="11" lengthAdjust="spacing" textLength="147" x="13" y="145.1684">release(request: void*): void</text><text fill="#000000" font-family="sans-serif" font-size="11" lengthAdjust="spacing" textLength="109" x="13" y="160.1502">hasResponses(): bool</text><text fill="#000000" font-family="sans-serif" font-size="11" lengthAdjust="spacing" textLength="156" x="13" y="175.1321">take(): expected&lt;void*, Error&gt;</text><text fill="#000000" font-family="sans-serif" font-size="11" lengthAdjust="spacing" textLength="155" x="13" y="190.114">release(response: void*): void</text><text fill="#000000" font-family="sans-serif" font-size="11" lengthAdjust="spacing" textLength="169" x="13" y="205.0959">releaseQueuedResponses(): void</text><text fill="#000000" font-family="sans-serif" font-size="11" lengthAdjust="spacing" textLength="145" x="13" y="220.0778">hasMissedResponses(): bool</text><!--MD5=[44227b1ab5d0bc37f306ef65b6104f3a]
class UntypedServer--><rect codeLine="17" fill="#FEFECE" filter="url(#f19tjrgxf9f27r)" height="227.7827" id="UntypedServer" style="stroke:#A80036;stroke-width:1.5;" width="173" x="255" y="7"/><ellipse cx="295.65" cy="23" fill="#ADD1B2" rx="11" ry="11" style="stroke:#A80036;stroke-width:1.0;"/><path d="M295.4469,29.7344 Q292.9625,29.7344 291.6344,28.0938 Q290.3219,26.4219 290.3219,23.3125 Q290.3219,20.1875 291.6344,18.5313 Q292.9625,16.875 295.4469,16.875 Q296.1656,16.875 296.8219,17.0313 Q297.4625,17.1875 298.025,17.4844 L298.025,20.2031 Q297.6656,19.8594 297.3688,19.6719 Q297.0719,19.4688 296.8063,19.3438 Q296.4938,19.2031 296.1813,19.1406 Q295.8844,19.0781 295.5719,19.0781 Q294.2438,19.0781 293.5563,20.1406 Q292.8688,21.2344 292.8688,23.3125 Q292.8688,25.4063 293.5563,26.4688 Q294.2438,27.5469 295.5719,27.5469 Q296.2125,27.5469 296.8063,27.2656 Q297.1031,27.1406 297.3844,26.9531 Q297.6813,26.75 298.025,26.4219 L298.025,29.1406 Q297.4469,29.4375 296.8063,29.5938 Q296.1813,29.7344 295.4469,29.7344 Z " fill="#000000"/><text fill="#000000" font-family="sans-serif" font-size="12" lengthAdjust="spacing" textLength="84" x="315.35" y="27.656">UntypedServer</text><line style="stroke:#A80036;stroke-width:1.5;" x1="256" x2="427" y1="39" y2="39"/><line style="stroke:#A80036;stroke-width:1.5;" x1="256" x2="427" y1="47" y2="47"/><text fill="#000000" font-family="sans-serif" font-size="11" lengthAdjust="spacing" textLength="61" x="261" y="62.7589">offer(): void</text><text fill="#000000" font-family="sans-serif" font-size="11" lengthAdjust="spacing" textLength="83" x="261" y="77.7408">stopOffer():void</text><text fill="#000000" font-family="sans-serif" font-size="11" lengthAdjust="spacing" textLength="85" x="261" y="92.7227">isOffered(): bool</text><text fill="#000000" font-family="sans-serif" font-size="11" lengthAdjust="spacing" textLength="89" x="261" y="107.7046">hasClients(): bool</text><text fill="#000000" font-family="sans-serif" font-size="11" lengthAdjust="spacing" textLength="101" x="261" y="122.6865">hasRequests(): bool</text><text fill="#000000" font-family="sans-serif" font-size="11" lengthAdjust="spacing" textLength="156" x="261" y="137.6684">take(): expected&lt;void*, Error&gt;</text><text fill="#000000" font-family="sans-serif" font-size="11" lengthAdjust="spacing" textLength="147" x="261" y="152.6502">release(request: void*): void</text><text fill="#000000" font-family="sans-serif" font-size="11" lengthAdjust="spacing" textLength="161" x="261" y="167.6321">releaseQueuedRequests(): void</text><text fill="#000000" font-family="sans-serif" font-size="11" lengthAdjust="spacing" textLength="137" x="261" y="182.614">hasMissedRequests(): bool</text><text fill="#000000" font-family="sans-serif" font-size="11" lengthAdjust="spacing" textLength="157" x="261" y="197.5959">loan(): expected&lt;void*, Error&gt;</text><text fill="#000000" font-family="sans-serif" font-size="11" lengthAdjust="spacing" textLength="143" x="261" y="212.5778">send(response: void*): void</text><text fill="#000000" font-family="sans-serif" font-size="11" lengthAdjust="spacing" textLength="155" x="261" y="227.5597">release(response: void*): void</text></g></svg>